%TF.GenerationSoftware,KiCad,Pcbnew,7.0.6*%
%TF.CreationDate,2023-11-30T13:58:40-08:00*%
%TF.ProjectId,MainBoard,4d61696e-426f-4617-9264-2e6b69636164,0.1*%
%TF.SameCoordinates,Original*%
%TF.FileFunction,Drillmap*%
%TF.FilePolarity,Positive*%
%FSLAX45Y45*%
G04 Gerber Fmt 4.5, Leading zero omitted, Abs format (unit mm)*
G04 Created by KiCad (PCBNEW 7.0.6) date 2023-11-30 13:58:40*
%MOMM*%
%LPD*%
G01*
G04 APERTURE LIST*
%ADD10C,0.100000*%
%ADD11C,0.200000*%
%ADD12C,0.320000*%
G04 APERTURE END LIST*
D10*
X16850000Y-8230000D02*
G75*
G03*
X16550000Y-8530000I0J-300000D01*
G01*
X26550000Y-8530000D02*
X26550000Y-16560000D01*
X26250000Y-16860000D02*
G75*
G03*
X26550000Y-16560000I0J300000D01*
G01*
X16550000Y-16560000D02*
G75*
G03*
X16850000Y-16860000I300000J0D01*
G01*
X26250000Y-16860000D02*
X16850000Y-16860000D01*
X16850000Y-8230000D02*
X26250000Y-8230000D01*
X26550000Y-8530000D02*
G75*
G03*
X26250000Y-8230000I-300000J0D01*
G01*
X16550000Y-16560000D02*
X16550000Y-8530000D01*
D11*
D12*
X16760000Y-8440000D02*
X17080000Y-8760000D01*
X17080000Y-8440000D02*
X16760000Y-8760000D01*
X16770000Y-16290000D02*
X17090000Y-16610000D01*
X17090000Y-16290000D02*
X16770000Y-16610000D01*
X26010000Y-8440000D02*
X26330000Y-8760000D01*
X26330000Y-8440000D02*
X26010000Y-8760000D01*
X26010000Y-16290000D02*
X26330000Y-16610000D01*
X26330000Y-16290000D02*
X26010000Y-16610000D01*
D11*
X16805777Y-17176484D02*
X16805777Y-16976484D01*
X16805777Y-16976484D02*
X16853396Y-16976484D01*
X16853396Y-16976484D02*
X16881967Y-16986008D01*
X16881967Y-16986008D02*
X16901015Y-17005055D01*
X16901015Y-17005055D02*
X16910539Y-17024103D01*
X16910539Y-17024103D02*
X16920063Y-17062198D01*
X16920063Y-17062198D02*
X16920063Y-17090770D01*
X16920063Y-17090770D02*
X16910539Y-17128865D01*
X16910539Y-17128865D02*
X16901015Y-17147912D01*
X16901015Y-17147912D02*
X16881967Y-17166960D01*
X16881967Y-17166960D02*
X16853396Y-17176484D01*
X16853396Y-17176484D02*
X16805777Y-17176484D01*
X17005777Y-17176484D02*
X17005777Y-17043150D01*
X17005777Y-17081246D02*
X17015301Y-17062198D01*
X17015301Y-17062198D02*
X17024824Y-17052674D01*
X17024824Y-17052674D02*
X17043872Y-17043150D01*
X17043872Y-17043150D02*
X17062920Y-17043150D01*
X17129586Y-17176484D02*
X17129586Y-17043150D01*
X17129586Y-16976484D02*
X17120063Y-16986008D01*
X17120063Y-16986008D02*
X17129586Y-16995531D01*
X17129586Y-16995531D02*
X17139110Y-16986008D01*
X17139110Y-16986008D02*
X17129586Y-16976484D01*
X17129586Y-16976484D02*
X17129586Y-16995531D01*
X17253396Y-17176484D02*
X17234348Y-17166960D01*
X17234348Y-17166960D02*
X17224824Y-17147912D01*
X17224824Y-17147912D02*
X17224824Y-16976484D01*
X17358158Y-17176484D02*
X17339110Y-17166960D01*
X17339110Y-17166960D02*
X17329586Y-17147912D01*
X17329586Y-17147912D02*
X17329586Y-16976484D01*
X17586729Y-17176484D02*
X17586729Y-16976484D01*
X17586729Y-16976484D02*
X17653396Y-17119341D01*
X17653396Y-17119341D02*
X17720063Y-16976484D01*
X17720063Y-16976484D02*
X17720063Y-17176484D01*
X17901015Y-17176484D02*
X17901015Y-17071722D01*
X17901015Y-17071722D02*
X17891491Y-17052674D01*
X17891491Y-17052674D02*
X17872444Y-17043150D01*
X17872444Y-17043150D02*
X17834348Y-17043150D01*
X17834348Y-17043150D02*
X17815301Y-17052674D01*
X17901015Y-17166960D02*
X17881967Y-17176484D01*
X17881967Y-17176484D02*
X17834348Y-17176484D01*
X17834348Y-17176484D02*
X17815301Y-17166960D01*
X17815301Y-17166960D02*
X17805777Y-17147912D01*
X17805777Y-17147912D02*
X17805777Y-17128865D01*
X17805777Y-17128865D02*
X17815301Y-17109817D01*
X17815301Y-17109817D02*
X17834348Y-17100293D01*
X17834348Y-17100293D02*
X17881967Y-17100293D01*
X17881967Y-17100293D02*
X17901015Y-17090770D01*
X17996253Y-17043150D02*
X17996253Y-17243150D01*
X17996253Y-17052674D02*
X18015301Y-17043150D01*
X18015301Y-17043150D02*
X18053396Y-17043150D01*
X18053396Y-17043150D02*
X18072444Y-17052674D01*
X18072444Y-17052674D02*
X18081967Y-17062198D01*
X18081967Y-17062198D02*
X18091491Y-17081246D01*
X18091491Y-17081246D02*
X18091491Y-17138389D01*
X18091491Y-17138389D02*
X18081967Y-17157436D01*
X18081967Y-17157436D02*
X18072444Y-17166960D01*
X18072444Y-17166960D02*
X18053396Y-17176484D01*
X18053396Y-17176484D02*
X18015301Y-17176484D01*
X18015301Y-17176484D02*
X17996253Y-17166960D01*
X18177205Y-17157436D02*
X18186729Y-17166960D01*
X18186729Y-17166960D02*
X18177205Y-17176484D01*
X18177205Y-17176484D02*
X18167682Y-17166960D01*
X18167682Y-17166960D02*
X18177205Y-17157436D01*
X18177205Y-17157436D02*
X18177205Y-17176484D01*
X18177205Y-17052674D02*
X18186729Y-17062198D01*
X18186729Y-17062198D02*
X18177205Y-17071722D01*
X18177205Y-17071722D02*
X18167682Y-17062198D01*
X18167682Y-17062198D02*
X18177205Y-17052674D01*
X18177205Y-17052674D02*
X18177205Y-17071722D01*
X16345000Y-17405000D02*
X16545000Y-17605000D01*
X16545000Y-17405000D02*
X16345000Y-17605000D01*
X16786729Y-17396484D02*
X16910539Y-17396484D01*
X16910539Y-17396484D02*
X16843872Y-17472674D01*
X16843872Y-17472674D02*
X16872444Y-17472674D01*
X16872444Y-17472674D02*
X16891491Y-17482198D01*
X16891491Y-17482198D02*
X16901015Y-17491722D01*
X16901015Y-17491722D02*
X16910539Y-17510770D01*
X16910539Y-17510770D02*
X16910539Y-17558389D01*
X16910539Y-17558389D02*
X16901015Y-17577436D01*
X16901015Y-17577436D02*
X16891491Y-17586960D01*
X16891491Y-17586960D02*
X16872444Y-17596484D01*
X16872444Y-17596484D02*
X16815301Y-17596484D01*
X16815301Y-17596484D02*
X16796253Y-17586960D01*
X16796253Y-17586960D02*
X16786729Y-17577436D01*
X16996253Y-17577436D02*
X17005777Y-17586960D01*
X17005777Y-17586960D02*
X16996253Y-17596484D01*
X16996253Y-17596484D02*
X16986729Y-17586960D01*
X16986729Y-17586960D02*
X16996253Y-17577436D01*
X16996253Y-17577436D02*
X16996253Y-17596484D01*
X17081967Y-17415531D02*
X17091491Y-17406008D01*
X17091491Y-17406008D02*
X17110539Y-17396484D01*
X17110539Y-17396484D02*
X17158158Y-17396484D01*
X17158158Y-17396484D02*
X17177205Y-17406008D01*
X17177205Y-17406008D02*
X17186729Y-17415531D01*
X17186729Y-17415531D02*
X17196253Y-17434579D01*
X17196253Y-17434579D02*
X17196253Y-17453627D01*
X17196253Y-17453627D02*
X17186729Y-17482198D01*
X17186729Y-17482198D02*
X17072444Y-17596484D01*
X17072444Y-17596484D02*
X17196253Y-17596484D01*
X17320063Y-17396484D02*
X17339110Y-17396484D01*
X17339110Y-17396484D02*
X17358158Y-17406008D01*
X17358158Y-17406008D02*
X17367682Y-17415531D01*
X17367682Y-17415531D02*
X17377205Y-17434579D01*
X17377205Y-17434579D02*
X17386729Y-17472674D01*
X17386729Y-17472674D02*
X17386729Y-17520293D01*
X17386729Y-17520293D02*
X17377205Y-17558389D01*
X17377205Y-17558389D02*
X17367682Y-17577436D01*
X17367682Y-17577436D02*
X17358158Y-17586960D01*
X17358158Y-17586960D02*
X17339110Y-17596484D01*
X17339110Y-17596484D02*
X17320063Y-17596484D01*
X17320063Y-17596484D02*
X17301015Y-17586960D01*
X17301015Y-17586960D02*
X17291491Y-17577436D01*
X17291491Y-17577436D02*
X17281967Y-17558389D01*
X17281967Y-17558389D02*
X17272444Y-17520293D01*
X17272444Y-17520293D02*
X17272444Y-17472674D01*
X17272444Y-17472674D02*
X17281967Y-17434579D01*
X17281967Y-17434579D02*
X17291491Y-17415531D01*
X17291491Y-17415531D02*
X17301015Y-17406008D01*
X17301015Y-17406008D02*
X17320063Y-17396484D01*
X17510539Y-17396484D02*
X17529586Y-17396484D01*
X17529586Y-17396484D02*
X17548634Y-17406008D01*
X17548634Y-17406008D02*
X17558158Y-17415531D01*
X17558158Y-17415531D02*
X17567682Y-17434579D01*
X17567682Y-17434579D02*
X17577205Y-17472674D01*
X17577205Y-17472674D02*
X17577205Y-17520293D01*
X17577205Y-17520293D02*
X17567682Y-17558389D01*
X17567682Y-17558389D02*
X17558158Y-17577436D01*
X17558158Y-17577436D02*
X17548634Y-17586960D01*
X17548634Y-17586960D02*
X17529586Y-17596484D01*
X17529586Y-17596484D02*
X17510539Y-17596484D01*
X17510539Y-17596484D02*
X17491491Y-17586960D01*
X17491491Y-17586960D02*
X17481967Y-17577436D01*
X17481967Y-17577436D02*
X17472444Y-17558389D01*
X17472444Y-17558389D02*
X17462920Y-17520293D01*
X17462920Y-17520293D02*
X17462920Y-17472674D01*
X17462920Y-17472674D02*
X17472444Y-17434579D01*
X17472444Y-17434579D02*
X17481967Y-17415531D01*
X17481967Y-17415531D02*
X17491491Y-17406008D01*
X17491491Y-17406008D02*
X17510539Y-17396484D01*
X17662920Y-17596484D02*
X17662920Y-17463150D01*
X17662920Y-17482198D02*
X17672444Y-17472674D01*
X17672444Y-17472674D02*
X17691491Y-17463150D01*
X17691491Y-17463150D02*
X17720063Y-17463150D01*
X17720063Y-17463150D02*
X17739110Y-17472674D01*
X17739110Y-17472674D02*
X17748634Y-17491722D01*
X17748634Y-17491722D02*
X17748634Y-17596484D01*
X17748634Y-17491722D02*
X17758158Y-17472674D01*
X17758158Y-17472674D02*
X17777205Y-17463150D01*
X17777205Y-17463150D02*
X17805777Y-17463150D01*
X17805777Y-17463150D02*
X17824825Y-17472674D01*
X17824825Y-17472674D02*
X17834348Y-17491722D01*
X17834348Y-17491722D02*
X17834348Y-17596484D01*
X17929586Y-17596484D02*
X17929586Y-17463150D01*
X17929586Y-17482198D02*
X17939110Y-17472674D01*
X17939110Y-17472674D02*
X17958158Y-17463150D01*
X17958158Y-17463150D02*
X17986729Y-17463150D01*
X17986729Y-17463150D02*
X18005777Y-17472674D01*
X18005777Y-17472674D02*
X18015301Y-17491722D01*
X18015301Y-17491722D02*
X18015301Y-17596484D01*
X18015301Y-17491722D02*
X18024825Y-17472674D01*
X18024825Y-17472674D02*
X18043872Y-17463150D01*
X18043872Y-17463150D02*
X18072444Y-17463150D01*
X18072444Y-17463150D02*
X18091491Y-17472674D01*
X18091491Y-17472674D02*
X18101015Y-17491722D01*
X18101015Y-17491722D02*
X18101015Y-17596484D01*
X18491491Y-17386960D02*
X18320063Y-17644103D01*
X18748634Y-17396484D02*
X18767682Y-17396484D01*
X18767682Y-17396484D02*
X18786729Y-17406008D01*
X18786729Y-17406008D02*
X18796253Y-17415531D01*
X18796253Y-17415531D02*
X18805777Y-17434579D01*
X18805777Y-17434579D02*
X18815301Y-17472674D01*
X18815301Y-17472674D02*
X18815301Y-17520293D01*
X18815301Y-17520293D02*
X18805777Y-17558389D01*
X18805777Y-17558389D02*
X18796253Y-17577436D01*
X18796253Y-17577436D02*
X18786729Y-17586960D01*
X18786729Y-17586960D02*
X18767682Y-17596484D01*
X18767682Y-17596484D02*
X18748634Y-17596484D01*
X18748634Y-17596484D02*
X18729587Y-17586960D01*
X18729587Y-17586960D02*
X18720063Y-17577436D01*
X18720063Y-17577436D02*
X18710539Y-17558389D01*
X18710539Y-17558389D02*
X18701015Y-17520293D01*
X18701015Y-17520293D02*
X18701015Y-17472674D01*
X18701015Y-17472674D02*
X18710539Y-17434579D01*
X18710539Y-17434579D02*
X18720063Y-17415531D01*
X18720063Y-17415531D02*
X18729587Y-17406008D01*
X18729587Y-17406008D02*
X18748634Y-17396484D01*
X18901015Y-17577436D02*
X18910539Y-17586960D01*
X18910539Y-17586960D02*
X18901015Y-17596484D01*
X18901015Y-17596484D02*
X18891491Y-17586960D01*
X18891491Y-17586960D02*
X18901015Y-17577436D01*
X18901015Y-17577436D02*
X18901015Y-17596484D01*
X19101015Y-17596484D02*
X18986729Y-17596484D01*
X19043872Y-17596484D02*
X19043872Y-17396484D01*
X19043872Y-17396484D02*
X19024825Y-17425055D01*
X19024825Y-17425055D02*
X19005777Y-17444103D01*
X19005777Y-17444103D02*
X18986729Y-17453627D01*
X19177206Y-17415531D02*
X19186729Y-17406008D01*
X19186729Y-17406008D02*
X19205777Y-17396484D01*
X19205777Y-17396484D02*
X19253396Y-17396484D01*
X19253396Y-17396484D02*
X19272444Y-17406008D01*
X19272444Y-17406008D02*
X19281968Y-17415531D01*
X19281968Y-17415531D02*
X19291491Y-17434579D01*
X19291491Y-17434579D02*
X19291491Y-17453627D01*
X19291491Y-17453627D02*
X19281968Y-17482198D01*
X19281968Y-17482198D02*
X19167682Y-17596484D01*
X19167682Y-17596484D02*
X19291491Y-17596484D01*
X19462920Y-17396484D02*
X19424825Y-17396484D01*
X19424825Y-17396484D02*
X19405777Y-17406008D01*
X19405777Y-17406008D02*
X19396253Y-17415531D01*
X19396253Y-17415531D02*
X19377206Y-17444103D01*
X19377206Y-17444103D02*
X19367682Y-17482198D01*
X19367682Y-17482198D02*
X19367682Y-17558389D01*
X19367682Y-17558389D02*
X19377206Y-17577436D01*
X19377206Y-17577436D02*
X19386729Y-17586960D01*
X19386729Y-17586960D02*
X19405777Y-17596484D01*
X19405777Y-17596484D02*
X19443872Y-17596484D01*
X19443872Y-17596484D02*
X19462920Y-17586960D01*
X19462920Y-17586960D02*
X19472444Y-17577436D01*
X19472444Y-17577436D02*
X19481968Y-17558389D01*
X19481968Y-17558389D02*
X19481968Y-17510770D01*
X19481968Y-17510770D02*
X19472444Y-17491722D01*
X19472444Y-17491722D02*
X19462920Y-17482198D01*
X19462920Y-17482198D02*
X19443872Y-17472674D01*
X19443872Y-17472674D02*
X19405777Y-17472674D01*
X19405777Y-17472674D02*
X19386729Y-17482198D01*
X19386729Y-17482198D02*
X19377206Y-17491722D01*
X19377206Y-17491722D02*
X19367682Y-17510770D01*
X19605777Y-17396484D02*
X19624825Y-17396484D01*
X19624825Y-17396484D02*
X19643872Y-17406008D01*
X19643872Y-17406008D02*
X19653396Y-17415531D01*
X19653396Y-17415531D02*
X19662920Y-17434579D01*
X19662920Y-17434579D02*
X19672444Y-17472674D01*
X19672444Y-17472674D02*
X19672444Y-17520293D01*
X19672444Y-17520293D02*
X19662920Y-17558389D01*
X19662920Y-17558389D02*
X19653396Y-17577436D01*
X19653396Y-17577436D02*
X19643872Y-17586960D01*
X19643872Y-17586960D02*
X19624825Y-17596484D01*
X19624825Y-17596484D02*
X19605777Y-17596484D01*
X19605777Y-17596484D02*
X19586729Y-17586960D01*
X19586729Y-17586960D02*
X19577206Y-17577436D01*
X19577206Y-17577436D02*
X19567682Y-17558389D01*
X19567682Y-17558389D02*
X19558158Y-17520293D01*
X19558158Y-17520293D02*
X19558158Y-17472674D01*
X19558158Y-17472674D02*
X19567682Y-17434579D01*
X19567682Y-17434579D02*
X19577206Y-17415531D01*
X19577206Y-17415531D02*
X19586729Y-17406008D01*
X19586729Y-17406008D02*
X19605777Y-17396484D01*
X19748634Y-17396484D02*
X19748634Y-17434579D01*
X19824825Y-17396484D02*
X19824825Y-17434579D01*
X20120063Y-17672674D02*
X20110539Y-17663150D01*
X20110539Y-17663150D02*
X20091491Y-17634579D01*
X20091491Y-17634579D02*
X20081968Y-17615531D01*
X20081968Y-17615531D02*
X20072444Y-17586960D01*
X20072444Y-17586960D02*
X20062920Y-17539341D01*
X20062920Y-17539341D02*
X20062920Y-17501246D01*
X20062920Y-17501246D02*
X20072444Y-17453627D01*
X20072444Y-17453627D02*
X20081968Y-17425055D01*
X20081968Y-17425055D02*
X20091491Y-17406008D01*
X20091491Y-17406008D02*
X20110539Y-17377436D01*
X20110539Y-17377436D02*
X20120063Y-17367912D01*
X20281968Y-17463150D02*
X20281968Y-17596484D01*
X20234349Y-17386960D02*
X20186730Y-17529817D01*
X20186730Y-17529817D02*
X20310539Y-17529817D01*
X20539111Y-17596484D02*
X20539111Y-17396484D01*
X20624825Y-17596484D02*
X20624825Y-17491722D01*
X20624825Y-17491722D02*
X20615301Y-17472674D01*
X20615301Y-17472674D02*
X20596253Y-17463150D01*
X20596253Y-17463150D02*
X20567682Y-17463150D01*
X20567682Y-17463150D02*
X20548634Y-17472674D01*
X20548634Y-17472674D02*
X20539111Y-17482198D01*
X20748634Y-17596484D02*
X20729587Y-17586960D01*
X20729587Y-17586960D02*
X20720063Y-17577436D01*
X20720063Y-17577436D02*
X20710539Y-17558389D01*
X20710539Y-17558389D02*
X20710539Y-17501246D01*
X20710539Y-17501246D02*
X20720063Y-17482198D01*
X20720063Y-17482198D02*
X20729587Y-17472674D01*
X20729587Y-17472674D02*
X20748634Y-17463150D01*
X20748634Y-17463150D02*
X20777206Y-17463150D01*
X20777206Y-17463150D02*
X20796253Y-17472674D01*
X20796253Y-17472674D02*
X20805777Y-17482198D01*
X20805777Y-17482198D02*
X20815301Y-17501246D01*
X20815301Y-17501246D02*
X20815301Y-17558389D01*
X20815301Y-17558389D02*
X20805777Y-17577436D01*
X20805777Y-17577436D02*
X20796253Y-17586960D01*
X20796253Y-17586960D02*
X20777206Y-17596484D01*
X20777206Y-17596484D02*
X20748634Y-17596484D01*
X20929587Y-17596484D02*
X20910539Y-17586960D01*
X20910539Y-17586960D02*
X20901015Y-17567912D01*
X20901015Y-17567912D02*
X20901015Y-17396484D01*
X21081968Y-17586960D02*
X21062920Y-17596484D01*
X21062920Y-17596484D02*
X21024825Y-17596484D01*
X21024825Y-17596484D02*
X21005777Y-17586960D01*
X21005777Y-17586960D02*
X20996253Y-17567912D01*
X20996253Y-17567912D02*
X20996253Y-17491722D01*
X20996253Y-17491722D02*
X21005777Y-17472674D01*
X21005777Y-17472674D02*
X21024825Y-17463150D01*
X21024825Y-17463150D02*
X21062920Y-17463150D01*
X21062920Y-17463150D02*
X21081968Y-17472674D01*
X21081968Y-17472674D02*
X21091492Y-17491722D01*
X21091492Y-17491722D02*
X21091492Y-17510770D01*
X21091492Y-17510770D02*
X20996253Y-17529817D01*
X21167682Y-17586960D02*
X21186730Y-17596484D01*
X21186730Y-17596484D02*
X21224825Y-17596484D01*
X21224825Y-17596484D02*
X21243873Y-17586960D01*
X21243873Y-17586960D02*
X21253396Y-17567912D01*
X21253396Y-17567912D02*
X21253396Y-17558389D01*
X21253396Y-17558389D02*
X21243873Y-17539341D01*
X21243873Y-17539341D02*
X21224825Y-17529817D01*
X21224825Y-17529817D02*
X21196253Y-17529817D01*
X21196253Y-17529817D02*
X21177206Y-17520293D01*
X21177206Y-17520293D02*
X21167682Y-17501246D01*
X21167682Y-17501246D02*
X21167682Y-17491722D01*
X21167682Y-17491722D02*
X21177206Y-17472674D01*
X21177206Y-17472674D02*
X21196253Y-17463150D01*
X21196253Y-17463150D02*
X21224825Y-17463150D01*
X21224825Y-17463150D02*
X21243873Y-17472674D01*
X21320063Y-17672674D02*
X21329587Y-17663150D01*
X21329587Y-17663150D02*
X21348634Y-17634579D01*
X21348634Y-17634579D02*
X21358158Y-17615531D01*
X21358158Y-17615531D02*
X21367682Y-17586960D01*
X21367682Y-17586960D02*
X21377206Y-17539341D01*
X21377206Y-17539341D02*
X21377206Y-17501246D01*
X21377206Y-17501246D02*
X21367682Y-17453627D01*
X21367682Y-17453627D02*
X21358158Y-17425055D01*
X21358158Y-17425055D02*
X21348634Y-17406008D01*
X21348634Y-17406008D02*
X21329587Y-17377436D01*
X21329587Y-17377436D02*
X21320063Y-17367912D01*
X21681968Y-17672674D02*
X21672444Y-17663150D01*
X21672444Y-17663150D02*
X21653396Y-17634579D01*
X21653396Y-17634579D02*
X21643873Y-17615531D01*
X21643873Y-17615531D02*
X21634349Y-17586960D01*
X21634349Y-17586960D02*
X21624825Y-17539341D01*
X21624825Y-17539341D02*
X21624825Y-17501246D01*
X21624825Y-17501246D02*
X21634349Y-17453627D01*
X21634349Y-17453627D02*
X21643873Y-17425055D01*
X21643873Y-17425055D02*
X21653396Y-17406008D01*
X21653396Y-17406008D02*
X21672444Y-17377436D01*
X21672444Y-17377436D02*
X21681968Y-17367912D01*
X21758158Y-17463150D02*
X21758158Y-17596484D01*
X21758158Y-17482198D02*
X21767682Y-17472674D01*
X21767682Y-17472674D02*
X21786730Y-17463150D01*
X21786730Y-17463150D02*
X21815301Y-17463150D01*
X21815301Y-17463150D02*
X21834349Y-17472674D01*
X21834349Y-17472674D02*
X21843873Y-17491722D01*
X21843873Y-17491722D02*
X21843873Y-17596484D01*
X21967682Y-17596484D02*
X21948634Y-17586960D01*
X21948634Y-17586960D02*
X21939111Y-17577436D01*
X21939111Y-17577436D02*
X21929587Y-17558389D01*
X21929587Y-17558389D02*
X21929587Y-17501246D01*
X21929587Y-17501246D02*
X21939111Y-17482198D01*
X21939111Y-17482198D02*
X21948634Y-17472674D01*
X21948634Y-17472674D02*
X21967682Y-17463150D01*
X21967682Y-17463150D02*
X21996254Y-17463150D01*
X21996254Y-17463150D02*
X22015301Y-17472674D01*
X22015301Y-17472674D02*
X22024825Y-17482198D01*
X22024825Y-17482198D02*
X22034349Y-17501246D01*
X22034349Y-17501246D02*
X22034349Y-17558389D01*
X22034349Y-17558389D02*
X22024825Y-17577436D01*
X22024825Y-17577436D02*
X22015301Y-17586960D01*
X22015301Y-17586960D02*
X21996254Y-17596484D01*
X21996254Y-17596484D02*
X21967682Y-17596484D01*
X22091492Y-17463150D02*
X22167682Y-17463150D01*
X22120063Y-17396484D02*
X22120063Y-17567912D01*
X22120063Y-17567912D02*
X22129587Y-17586960D01*
X22129587Y-17586960D02*
X22148634Y-17596484D01*
X22148634Y-17596484D02*
X22167682Y-17596484D01*
X22386730Y-17463150D02*
X22386730Y-17663150D01*
X22386730Y-17472674D02*
X22405777Y-17463150D01*
X22405777Y-17463150D02*
X22443873Y-17463150D01*
X22443873Y-17463150D02*
X22462920Y-17472674D01*
X22462920Y-17472674D02*
X22472444Y-17482198D01*
X22472444Y-17482198D02*
X22481968Y-17501246D01*
X22481968Y-17501246D02*
X22481968Y-17558389D01*
X22481968Y-17558389D02*
X22472444Y-17577436D01*
X22472444Y-17577436D02*
X22462920Y-17586960D01*
X22462920Y-17586960D02*
X22443873Y-17596484D01*
X22443873Y-17596484D02*
X22405777Y-17596484D01*
X22405777Y-17596484D02*
X22386730Y-17586960D01*
X22596253Y-17596484D02*
X22577206Y-17586960D01*
X22577206Y-17586960D02*
X22567682Y-17567912D01*
X22567682Y-17567912D02*
X22567682Y-17396484D01*
X22758158Y-17596484D02*
X22758158Y-17491722D01*
X22758158Y-17491722D02*
X22748634Y-17472674D01*
X22748634Y-17472674D02*
X22729587Y-17463150D01*
X22729587Y-17463150D02*
X22691492Y-17463150D01*
X22691492Y-17463150D02*
X22672444Y-17472674D01*
X22758158Y-17586960D02*
X22739111Y-17596484D01*
X22739111Y-17596484D02*
X22691492Y-17596484D01*
X22691492Y-17596484D02*
X22672444Y-17586960D01*
X22672444Y-17586960D02*
X22662920Y-17567912D01*
X22662920Y-17567912D02*
X22662920Y-17548865D01*
X22662920Y-17548865D02*
X22672444Y-17529817D01*
X22672444Y-17529817D02*
X22691492Y-17520293D01*
X22691492Y-17520293D02*
X22739111Y-17520293D01*
X22739111Y-17520293D02*
X22758158Y-17510770D01*
X22824825Y-17463150D02*
X22901015Y-17463150D01*
X22853396Y-17396484D02*
X22853396Y-17567912D01*
X22853396Y-17567912D02*
X22862920Y-17586960D01*
X22862920Y-17586960D02*
X22881968Y-17596484D01*
X22881968Y-17596484D02*
X22901015Y-17596484D01*
X23043873Y-17586960D02*
X23024825Y-17596484D01*
X23024825Y-17596484D02*
X22986730Y-17596484D01*
X22986730Y-17596484D02*
X22967682Y-17586960D01*
X22967682Y-17586960D02*
X22958158Y-17567912D01*
X22958158Y-17567912D02*
X22958158Y-17491722D01*
X22958158Y-17491722D02*
X22967682Y-17472674D01*
X22967682Y-17472674D02*
X22986730Y-17463150D01*
X22986730Y-17463150D02*
X23024825Y-17463150D01*
X23024825Y-17463150D02*
X23043873Y-17472674D01*
X23043873Y-17472674D02*
X23053396Y-17491722D01*
X23053396Y-17491722D02*
X23053396Y-17510770D01*
X23053396Y-17510770D02*
X22958158Y-17529817D01*
X23224825Y-17596484D02*
X23224825Y-17396484D01*
X23224825Y-17586960D02*
X23205777Y-17596484D01*
X23205777Y-17596484D02*
X23167682Y-17596484D01*
X23167682Y-17596484D02*
X23148634Y-17586960D01*
X23148634Y-17586960D02*
X23139111Y-17577436D01*
X23139111Y-17577436D02*
X23129587Y-17558389D01*
X23129587Y-17558389D02*
X23129587Y-17501246D01*
X23129587Y-17501246D02*
X23139111Y-17482198D01*
X23139111Y-17482198D02*
X23148634Y-17472674D01*
X23148634Y-17472674D02*
X23167682Y-17463150D01*
X23167682Y-17463150D02*
X23205777Y-17463150D01*
X23205777Y-17463150D02*
X23224825Y-17472674D01*
X23301015Y-17672674D02*
X23310539Y-17663150D01*
X23310539Y-17663150D02*
X23329587Y-17634579D01*
X23329587Y-17634579D02*
X23339111Y-17615531D01*
X23339111Y-17615531D02*
X23348634Y-17586960D01*
X23348634Y-17586960D02*
X23358158Y-17539341D01*
X23358158Y-17539341D02*
X23358158Y-17501246D01*
X23358158Y-17501246D02*
X23348634Y-17453627D01*
X23348634Y-17453627D02*
X23339111Y-17425055D01*
X23339111Y-17425055D02*
X23329587Y-17406008D01*
X23329587Y-17406008D02*
X23310539Y-17377436D01*
X23310539Y-17377436D02*
X23301015Y-17367912D01*
M02*
