%TF.GenerationSoftware,KiCad,Pcbnew,7.0.6*%
%TF.CreationDate,2023-11-30T13:58:43-08:00*%
%TF.ProjectId,MainBoard,4d61696e-426f-4617-9264-2e6b69636164,0.1*%
%TF.SameCoordinates,Original*%
%TF.FileFunction,Soldermask,Top*%
%TF.FilePolarity,Negative*%
%FSLAX46Y46*%
G04 Gerber Fmt 4.6, Leading zero omitted, Abs format (unit mm)*
G04 Created by KiCad (PCBNEW 7.0.6) date 2023-11-30 13:58:43*
%MOMM*%
%LPD*%
G01*
G04 APERTURE LIST*
G04 Aperture macros list*
%AMRoundRect*
0 Rectangle with rounded corners*
0 $1 Rounding radius*
0 $2 $3 $4 $5 $6 $7 $8 $9 X,Y pos of 4 corners*
0 Add a 4 corners polygon primitive as box body*
4,1,4,$2,$3,$4,$5,$6,$7,$8,$9,$2,$3,0*
0 Add four circle primitives for the rounded corners*
1,1,$1+$1,$2,$3*
1,1,$1+$1,$4,$5*
1,1,$1+$1,$6,$7*
1,1,$1+$1,$8,$9*
0 Add four rect primitives between the rounded corners*
20,1,$1+$1,$2,$3,$4,$5,0*
20,1,$1+$1,$4,$5,$6,$7,0*
20,1,$1+$1,$6,$7,$8,$9,0*
20,1,$1+$1,$8,$9,$2,$3,0*%
G04 Aperture macros list end*
%ADD10C,1.507998*%
%ADD11R,1.700000X1.700000*%
%ADD12O,1.700000X1.700000*%
%ADD13RoundRect,0.250000X0.450000X-0.325000X0.450000X0.325000X-0.450000X0.325000X-0.450000X-0.325000X0*%
%ADD14C,1.524000*%
%ADD15RoundRect,0.250000X-0.337500X-0.475000X0.337500X-0.475000X0.337500X0.475000X-0.337500X0.475000X0*%
%ADD16RoundRect,0.250000X-0.475000X0.337500X-0.475000X-0.337500X0.475000X-0.337500X0.475000X0.337500X0*%
%ADD17RoundRect,0.250000X0.450000X-0.350000X0.450000X0.350000X-0.450000X0.350000X-0.450000X-0.350000X0*%
%ADD18RoundRect,0.250000X0.337500X0.475000X-0.337500X0.475000X-0.337500X-0.475000X0.337500X-0.475000X0*%
%ADD19RoundRect,0.250000X0.475000X-0.337500X0.475000X0.337500X-0.475000X0.337500X-0.475000X-0.337500X0*%
%ADD20C,1.803400*%
%ADD21RoundRect,0.250000X-0.350000X-0.450000X0.350000X-0.450000X0.350000X0.450000X-0.350000X0.450000X0*%
%ADD22C,1.574800*%
%ADD23C,3.200000*%
%ADD24R,0.650000X0.400000*%
%ADD25RoundRect,0.250000X-0.450000X0.350000X-0.450000X-0.350000X0.450000X-0.350000X0.450000X0.350000X0*%
%ADD26RoundRect,0.250000X0.350000X0.450000X-0.350000X0.450000X-0.350000X-0.450000X0.350000X-0.450000X0*%
%ADD27R,1.599999X0.449999*%
%ADD28C,0.600000*%
%ADD29R,3.099999X5.180000*%
%ADD30RoundRect,0.192000X0.865000X0.210000X-0.865000X0.210000X-0.865000X-0.210000X0.865000X-0.210000X0*%
%ADD31R,1.295400X1.295400*%
%ADD32C,1.295400*%
%ADD33C,2.000000*%
%ADD34RoundRect,0.250000X-0.450000X0.325000X-0.450000X-0.325000X0.450000X-0.325000X0.450000X0.325000X0*%
%ADD35R,1.562100X0.279400*%
%ADD36R,0.279400X1.562100*%
%ADD37R,1.600200X3.810000*%
%ADD38R,2.066000X0.901600*%
%ADD39R,2.066000X3.201599*%
%ADD40R,1.663700X0.533400*%
%ADD41RoundRect,0.102000X0.675000X-0.200000X0.675000X0.200000X-0.675000X0.200000X-0.675000X-0.200000X0*%
%ADD42RoundRect,0.102000X0.700000X-0.800000X0.700000X0.800000X-0.700000X0.800000X-0.700000X-0.800000X0*%
%ADD43RoundRect,0.102000X0.950000X-0.950000X0.950000X0.950000X-0.950000X0.950000X-0.950000X-0.950000X0*%
%ADD44O,2.004000X1.104000*%
%ADD45R,0.635000X0.355600*%
%ADD46R,0.355600X0.635000*%
%ADD47C,2.209800*%
%ADD48R,1.600000X1.600000*%
%ADD49C,1.600000*%
%ADD50C,2.184000*%
%ADD51RoundRect,0.102000X0.200000X0.675000X-0.200000X0.675000X-0.200000X-0.675000X0.200000X-0.675000X0*%
%ADD52RoundRect,0.102000X0.800000X0.700000X-0.800000X0.700000X-0.800000X-0.700000X0.800000X-0.700000X0*%
%ADD53RoundRect,0.102000X0.950000X0.950000X-0.950000X0.950000X-0.950000X-0.950000X0.950000X-0.950000X0*%
%ADD54O,1.104000X2.004000*%
%ADD55R,1.397000X1.803400*%
%ADD56R,1.905000X1.397000*%
%ADD57R,2.006600X0.812800*%
G04 APERTURE END LIST*
D10*
%TO.C,SW1*%
X192300001Y-127099998D03*
X192300001Y-133600000D03*
X187800000Y-127099998D03*
X187800000Y-133600000D03*
%TD*%
D11*
%TO.C,J25*%
X201250000Y-116275000D03*
D12*
X203790000Y-116275000D03*
X201250000Y-118815000D03*
X203790000Y-118815000D03*
%TD*%
D13*
%TO.C,D5*%
X215400000Y-165400000D03*
X215400000Y-163350000D03*
%TD*%
D14*
%TO.C,SW8*%
X189060000Y-100300000D03*
X191600000Y-100300000D03*
%TD*%
D15*
%TO.C,C18*%
X221662500Y-111200000D03*
X223737500Y-111200000D03*
%TD*%
D16*
%TO.C,C10*%
X207700000Y-146662500D03*
X207700000Y-148737500D03*
%TD*%
D17*
%TO.C,R29*%
X253500000Y-132500000D03*
X253500000Y-130500000D03*
%TD*%
D18*
%TO.C,C13*%
X203337500Y-100200000D03*
X201262500Y-100200000D03*
%TD*%
%TO.C,C3*%
X200400000Y-139550000D03*
X198325000Y-139550000D03*
%TD*%
D16*
%TO.C,C36*%
X208900000Y-151925000D03*
X208900000Y-154000000D03*
%TD*%
%TO.C,C28*%
X257050000Y-121612500D03*
X257050000Y-123687500D03*
%TD*%
D19*
%TO.C,C7*%
X216600000Y-118537500D03*
X216600000Y-116462500D03*
%TD*%
D20*
%TO.C,M2*%
X260100000Y-132750000D03*
X260100000Y-127750000D03*
%TD*%
D16*
%TO.C,C6*%
X211500000Y-116462500D03*
X211500000Y-118537500D03*
%TD*%
D21*
%TO.C,R33*%
X241800000Y-144300000D03*
X243800000Y-144300000D03*
%TD*%
D22*
%TO.C,U11*%
X169250000Y-136390000D03*
X169250000Y-133850000D03*
X169250000Y-131310000D03*
X169250000Y-128770000D03*
%TD*%
%TO.C,J15*%
X177450000Y-166350000D03*
X177450000Y-163810000D03*
X177450000Y-161270000D03*
%TD*%
D23*
%TO.C,H2*%
X261700000Y-86000000D03*
%TD*%
D22*
%TO.C,U12*%
X261750000Y-115530000D03*
X261750000Y-118070000D03*
X261750000Y-120610000D03*
X261750000Y-123150000D03*
%TD*%
D11*
%TO.C,J1*%
X167850000Y-140300000D03*
D12*
X167850000Y-142840000D03*
X167850000Y-145380000D03*
X167850000Y-147920000D03*
X167850000Y-150460000D03*
X167850000Y-153000000D03*
%TD*%
D16*
%TO.C,C32*%
X243100000Y-125262500D03*
X243100000Y-127337500D03*
%TD*%
D11*
%TO.C,J18*%
X253360000Y-163300000D03*
D12*
X255900000Y-163300000D03*
X253360000Y-165840000D03*
X255900000Y-165840000D03*
%TD*%
D24*
%TO.C,U6*%
X218000000Y-157800000D03*
X218000000Y-157150000D03*
X218000000Y-156500000D03*
X216100000Y-156500000D03*
X216100000Y-157150000D03*
X216100000Y-157800000D03*
%TD*%
D17*
%TO.C,R12*%
X242100128Y-166875000D03*
X242100128Y-164875000D03*
%TD*%
D22*
%TO.C,J14*%
X184673800Y-166390000D03*
X184673800Y-163850000D03*
X184673800Y-161310000D03*
%TD*%
D15*
%TO.C,C17*%
X221662500Y-113300000D03*
X223737500Y-113300000D03*
%TD*%
D22*
%TO.C,D8*%
X211990000Y-106376200D03*
X209450000Y-106376200D03*
X206910000Y-106376200D03*
%TD*%
D11*
%TO.C,J3*%
X200300000Y-84360000D03*
D12*
X200300000Y-86900000D03*
X197760000Y-84360000D03*
X197760000Y-86900000D03*
X195220000Y-84360000D03*
X195220000Y-86900000D03*
X192680000Y-84360000D03*
X192680000Y-86900000D03*
X190140000Y-84360000D03*
X190140000Y-86900000D03*
%TD*%
D16*
%TO.C,C31*%
X256131250Y-140762500D03*
X256131250Y-142837500D03*
%TD*%
D19*
%TO.C,C23*%
X174500000Y-110437500D03*
X174500000Y-108362500D03*
%TD*%
D25*
%TO.C,R28*%
X251400000Y-130500000D03*
X251400000Y-132500000D03*
%TD*%
D19*
%TO.C,C9*%
X215250000Y-147637500D03*
X215250000Y-145562500D03*
%TD*%
D26*
%TO.C,R40*%
X179650000Y-104950000D03*
X177650000Y-104950000D03*
%TD*%
D27*
%TO.C,U10*%
X177650001Y-108674999D03*
X177650001Y-109325000D03*
X177650001Y-109974999D03*
X177650001Y-110625000D03*
X177650001Y-111274998D03*
X177650001Y-111925000D03*
X177650001Y-112574998D03*
X177650001Y-113225000D03*
X177650001Y-113874998D03*
X177650001Y-114525000D03*
X177650001Y-115174998D03*
X177650001Y-115824999D03*
X177650001Y-116474998D03*
X177650001Y-117124999D03*
X183750002Y-117124999D03*
X183750002Y-116474998D03*
X183750002Y-115824999D03*
X183750002Y-115174998D03*
X183750002Y-114525000D03*
X183750002Y-113874998D03*
X183750002Y-113225000D03*
X183750002Y-112574998D03*
X183750002Y-111925000D03*
X183750002Y-111274998D03*
X183750002Y-110625000D03*
X183750002Y-109974999D03*
X183750002Y-109325000D03*
X183750002Y-108674999D03*
D28*
X179600000Y-111799999D03*
X179600000Y-112899999D03*
X179600000Y-113999999D03*
X179600000Y-115100000D03*
X179620000Y-110779999D03*
X180700000Y-110779999D03*
D29*
X180700000Y-112899999D03*
D28*
X180700000Y-115100000D03*
X180700003Y-111799999D03*
X180700003Y-112899999D03*
X180700003Y-113999999D03*
X181760000Y-110779999D03*
X181800000Y-111799999D03*
X181800000Y-112899999D03*
X181800000Y-113999999D03*
X181800000Y-115100000D03*
%TD*%
D25*
%TO.C,R5*%
X208400000Y-159500000D03*
X208400000Y-161500000D03*
%TD*%
D11*
%TO.C,J21*%
X233010000Y-118650000D03*
D12*
X233010000Y-116110000D03*
X235550000Y-118650000D03*
X235550000Y-116110000D03*
X238090000Y-118650000D03*
X238090000Y-116110000D03*
%TD*%
D13*
%TO.C,D2*%
X211900000Y-165400000D03*
X211900000Y-163350000D03*
%TD*%
D21*
%TO.C,R26*%
X172400000Y-114350000D03*
X174400000Y-114350000D03*
%TD*%
D30*
%TO.C,U9*%
X260700000Y-107470000D03*
X260700000Y-106200000D03*
X260700000Y-104930000D03*
X260700000Y-103660000D03*
X260700000Y-102390000D03*
X260700000Y-101120000D03*
X260700000Y-99850000D03*
X255780000Y-99850000D03*
X255780000Y-101120000D03*
X255780000Y-102390000D03*
X255780000Y-103660000D03*
X255780000Y-104930000D03*
X255780000Y-106200000D03*
X255780000Y-107470000D03*
%TD*%
D19*
%TO.C,C8*%
X220700000Y-149168750D03*
X220700000Y-147093750D03*
%TD*%
D25*
%TO.C,R35*%
X260331250Y-140800000D03*
X260331250Y-142800000D03*
%TD*%
D26*
%TO.C,R22*%
X188850000Y-109550000D03*
X186850000Y-109550000D03*
%TD*%
D11*
%TO.C,J19*%
X237510000Y-126560000D03*
D12*
X240050000Y-126560000D03*
X237510000Y-129100000D03*
X240050000Y-129100000D03*
X237510000Y-131640000D03*
X240050000Y-131640000D03*
%TD*%
D31*
%TO.C,SW2*%
X211550000Y-86049999D03*
D32*
X211550000Y-88050000D03*
X211550000Y-90050001D03*
D33*
X211550000Y-83949999D03*
X211550000Y-92150000D03*
%TD*%
D13*
%TO.C,D3*%
X208400000Y-165400000D03*
X208400000Y-163350000D03*
%TD*%
D25*
%TO.C,R6*%
X218900000Y-159500000D03*
X218900000Y-161500000D03*
%TD*%
D27*
%TO.C,U13*%
X253349999Y-143224999D03*
X253349999Y-142574998D03*
X253349999Y-141924999D03*
X253349999Y-141274998D03*
X253349999Y-140625000D03*
X253349999Y-139974998D03*
X253349999Y-139325000D03*
X253349999Y-138674998D03*
X253349999Y-138025000D03*
X253349999Y-137374998D03*
X253349999Y-136725000D03*
X253349999Y-136074999D03*
X253349999Y-135425000D03*
X253349999Y-134774999D03*
X247249998Y-134774999D03*
X247249998Y-135425000D03*
X247249998Y-136074999D03*
X247249998Y-136725000D03*
X247249998Y-137374998D03*
X247249998Y-138025000D03*
X247249998Y-138674998D03*
X247249998Y-139325000D03*
X247249998Y-139974998D03*
X247249998Y-140625000D03*
X247249998Y-141274998D03*
X247249998Y-141924999D03*
X247249998Y-142574998D03*
X247249998Y-143224999D03*
D28*
X251400000Y-140099999D03*
X251400000Y-138999999D03*
X251400000Y-137899999D03*
X251400000Y-136799998D03*
X251380000Y-141119999D03*
X250300000Y-141119999D03*
D29*
X250300000Y-138999999D03*
D28*
X250300000Y-136799998D03*
X250299997Y-140099999D03*
X250299997Y-138999999D03*
X250299997Y-137899999D03*
X249240000Y-141119999D03*
X249200000Y-140099999D03*
X249200000Y-138999999D03*
X249200000Y-137899999D03*
X249200000Y-136799998D03*
%TD*%
D34*
%TO.C,D1*%
X205200000Y-83475000D03*
X205200000Y-85525000D03*
%TD*%
D19*
%TO.C,C29*%
X263200000Y-142937500D03*
X263200000Y-140862500D03*
%TD*%
D24*
%TO.C,U7*%
X225000000Y-157800000D03*
X225000000Y-157150000D03*
X225000000Y-156500000D03*
X223100000Y-156500000D03*
X223100000Y-157150000D03*
X223100000Y-157800000D03*
%TD*%
D21*
%TO.C,R30*%
X241800000Y-138300000D03*
X243800000Y-138300000D03*
%TD*%
D25*
%TO.C,R1*%
X194500000Y-130200000D03*
X194500000Y-132200000D03*
%TD*%
D17*
%TO.C,R25*%
X170200000Y-110400000D03*
X170200000Y-108400000D03*
%TD*%
D11*
%TO.C,J20*%
X171610000Y-140370000D03*
D12*
X174150000Y-140370000D03*
X171610000Y-142910000D03*
X174150000Y-142910000D03*
X171610000Y-145450000D03*
X174150000Y-145450000D03*
%TD*%
D11*
%TO.C,J8*%
X201160000Y-158430000D03*
D12*
X203700000Y-158430000D03*
X201160000Y-160970000D03*
X203700000Y-160970000D03*
X201160000Y-163510000D03*
X203700000Y-163510000D03*
X201160000Y-166050000D03*
X203700000Y-166050000D03*
%TD*%
D11*
%TO.C,J2*%
X185140000Y-84060000D03*
D12*
X185140000Y-86600000D03*
X182600000Y-84060000D03*
X182600000Y-86600000D03*
X180060000Y-84060000D03*
X180060000Y-86600000D03*
X177520000Y-84060000D03*
X177520000Y-86600000D03*
X174980000Y-84060000D03*
X174980000Y-86600000D03*
%TD*%
D21*
%TO.C,R32*%
X241800000Y-142300000D03*
X243800000Y-142300000D03*
%TD*%
%TO.C,R16*%
X255400000Y-93500000D03*
X257400000Y-93500000D03*
%TD*%
D25*
%TO.C,R7*%
X215400000Y-159500000D03*
X215400000Y-161500000D03*
%TD*%
D11*
%TO.C,J23*%
X171660000Y-152150000D03*
D12*
X174200000Y-152150000D03*
X171660000Y-154690000D03*
X174200000Y-154690000D03*
X171660000Y-157230000D03*
X174200000Y-157230000D03*
%TD*%
D34*
%TO.C,D10*%
X264400000Y-107475000D03*
X264400000Y-109525000D03*
%TD*%
D14*
%TO.C,SW6*%
X231610128Y-164351200D03*
X229070128Y-164351200D03*
%TD*%
D35*
%TO.C,U1*%
X204624050Y-123250000D03*
X204624050Y-123749999D03*
X204624050Y-124250000D03*
X204624050Y-124749999D03*
X204624050Y-125250001D03*
X204624050Y-125750000D03*
X204624050Y-126249999D03*
X204624050Y-126750000D03*
X204624050Y-127249999D03*
X204624050Y-127750001D03*
X204624050Y-128250000D03*
X204624050Y-128749999D03*
X204624050Y-129250000D03*
X204624050Y-129749999D03*
X204624050Y-130250001D03*
X204624050Y-130750000D03*
X204624050Y-131249999D03*
X204624050Y-131750000D03*
X204624050Y-132250000D03*
X204624050Y-132749998D03*
X204624050Y-133250000D03*
X204624050Y-133749999D03*
X204624050Y-134250001D03*
X204624050Y-134750000D03*
X204624050Y-135249999D03*
X204624050Y-135750000D03*
X204624050Y-136249999D03*
X204624050Y-136750001D03*
X204624050Y-137250000D03*
X204624050Y-137749999D03*
X204624050Y-138250000D03*
X204624050Y-138749999D03*
X204624050Y-139250001D03*
X204624050Y-139750000D03*
X204624050Y-140249999D03*
X204624050Y-140750000D03*
D36*
X206650000Y-142775950D03*
X207149999Y-142775950D03*
X207650000Y-142775950D03*
X208149999Y-142775950D03*
X208650001Y-142775950D03*
X209150000Y-142775950D03*
X209649999Y-142775950D03*
X210150000Y-142775950D03*
X210649999Y-142775950D03*
X211150001Y-142775950D03*
X211650000Y-142775950D03*
X212149999Y-142775950D03*
X212650000Y-142775950D03*
X213149999Y-142775950D03*
X213650001Y-142775950D03*
X214150000Y-142775950D03*
X214649999Y-142775950D03*
X215150000Y-142775950D03*
X215650000Y-142775950D03*
X216150001Y-142775950D03*
X216650000Y-142775950D03*
X217149999Y-142775950D03*
X217650001Y-142775950D03*
X218150000Y-142775950D03*
X218650001Y-142775950D03*
X219150000Y-142775950D03*
X219649999Y-142775950D03*
X220150001Y-142775950D03*
X220650000Y-142775950D03*
X221150001Y-142775950D03*
X221650000Y-142775950D03*
X222149999Y-142775950D03*
X222650001Y-142775950D03*
X223150000Y-142775950D03*
X223650001Y-142775950D03*
X224150000Y-142775950D03*
D35*
X226175950Y-140750000D03*
X226175950Y-140250001D03*
X226175950Y-139750000D03*
X226175950Y-139250001D03*
X226175950Y-138749999D03*
X226175950Y-138250000D03*
X226175950Y-137750001D03*
X226175950Y-137250000D03*
X226175950Y-136750001D03*
X226175950Y-136249999D03*
X226175950Y-135750000D03*
X226175950Y-135250001D03*
X226175950Y-134750000D03*
X226175950Y-134250001D03*
X226175950Y-133749999D03*
X226175950Y-133250000D03*
X226175950Y-132750001D03*
X226175950Y-132250000D03*
X226175950Y-131750000D03*
X226175950Y-131249999D03*
X226175950Y-130750000D03*
X226175950Y-130250001D03*
X226175950Y-129749999D03*
X226175950Y-129250000D03*
X226175950Y-128749999D03*
X226175950Y-128250000D03*
X226175950Y-127750001D03*
X226175950Y-127249999D03*
X226175950Y-126750000D03*
X226175950Y-126249999D03*
X226175950Y-125750000D03*
X226175950Y-125250001D03*
X226175950Y-124749999D03*
X226175950Y-124250000D03*
X226175950Y-123749999D03*
X226175950Y-123250000D03*
D36*
X224150000Y-121224050D03*
X223650001Y-121224050D03*
X223150000Y-121224050D03*
X222650001Y-121224050D03*
X222149999Y-121224050D03*
X221650000Y-121224050D03*
X221150001Y-121224050D03*
X220650000Y-121224050D03*
X220150001Y-121224050D03*
X219649999Y-121224050D03*
X219150000Y-121224050D03*
X218650001Y-121224050D03*
X218150000Y-121224050D03*
X217650001Y-121224050D03*
X217149999Y-121224050D03*
X216650000Y-121224050D03*
X216150001Y-121224050D03*
X215650000Y-121224050D03*
X215150000Y-121224050D03*
X214649999Y-121224050D03*
X214150000Y-121224050D03*
X213650001Y-121224050D03*
X213149999Y-121224050D03*
X212650000Y-121224050D03*
X212149999Y-121224050D03*
X211650000Y-121224050D03*
X211150001Y-121224050D03*
X210649999Y-121224050D03*
X210150000Y-121224050D03*
X209649999Y-121224050D03*
X209150000Y-121224050D03*
X208650001Y-121224050D03*
X208149999Y-121224050D03*
X207650000Y-121224050D03*
X207149999Y-121224050D03*
X206650000Y-121224050D03*
%TD*%
D21*
%TO.C,R31*%
X241800000Y-140300000D03*
X243800000Y-140300000D03*
%TD*%
D25*
%TO.C,R17*%
X184800000Y-119400000D03*
X184800000Y-121400000D03*
%TD*%
D24*
%TO.C,U5*%
X211100000Y-157800000D03*
X211100000Y-157150000D03*
X211100000Y-156500000D03*
X209200000Y-156500000D03*
X209200000Y-157150000D03*
X209200000Y-157800000D03*
%TD*%
D16*
%TO.C,C16*%
X227100000Y-115062500D03*
X227100000Y-117137500D03*
%TD*%
D37*
%TO.C,C33*%
X249400000Y-124800000D03*
X249400000Y-117891200D03*
%TD*%
D26*
%TO.C,R37*%
X196500000Y-105000000D03*
X194500000Y-105000000D03*
%TD*%
D38*
%TO.C,U2*%
X205624200Y-95800000D03*
X205624200Y-98100000D03*
X205624200Y-100400000D03*
D39*
X211775800Y-98100000D03*
%TD*%
D40*
%TO.C,U15*%
X217025750Y-154005000D03*
X217025750Y-152735000D03*
X217025750Y-151465000D03*
X217025750Y-150195000D03*
X211374250Y-150195000D03*
X211374250Y-151465000D03*
X211374250Y-152735000D03*
X211374250Y-154005000D03*
%TD*%
D41*
%TO.C,J9*%
X261225000Y-95700000D03*
X261225000Y-95050000D03*
X261225000Y-94400000D03*
X261225000Y-93750000D03*
X261225000Y-93100000D03*
D42*
X261450000Y-97600000D03*
X261450000Y-91200000D03*
D43*
X263900000Y-93200000D03*
X263900000Y-95600000D03*
D44*
X263900000Y-97700000D03*
X263900000Y-91100000D03*
%TD*%
D45*
%TO.C,U4*%
X224030299Y-117061001D03*
X224030299Y-116561000D03*
X224030299Y-116061000D03*
X224030299Y-115560999D03*
D46*
X223399998Y-115422000D03*
X222899999Y-115422000D03*
X222400000Y-115422000D03*
D45*
X221769699Y-115560999D03*
X221769699Y-116061000D03*
X221769699Y-116561000D03*
X221769699Y-117061001D03*
D46*
X222400000Y-117200000D03*
X222899999Y-117200000D03*
X223399998Y-117200000D03*
%TD*%
D18*
%TO.C,C4*%
X201137500Y-131650000D03*
X199062500Y-131650000D03*
%TD*%
D17*
%TO.C,R39*%
X188650000Y-93950000D03*
X188650000Y-91950000D03*
%TD*%
%TO.C,R13*%
X249840128Y-166975000D03*
X249840128Y-164975000D03*
%TD*%
%TO.C,R38*%
X190900000Y-93950000D03*
X190900000Y-91950000D03*
%TD*%
D26*
%TO.C,R36*%
X258800000Y-136500000D03*
X256800000Y-136500000D03*
%TD*%
D19*
%TO.C,C22*%
X172400000Y-110437500D03*
X172400000Y-108362500D03*
%TD*%
D13*
%TO.C,D4*%
X218900000Y-165400000D03*
X218900000Y-163350000D03*
%TD*%
D14*
%TO.C,SW10*%
X177510000Y-100300000D03*
X180050000Y-100300000D03*
%TD*%
%TO.C,SW4*%
X239490128Y-164375000D03*
X236950128Y-164375000D03*
%TD*%
%TO.C,SW5*%
X247230128Y-164375000D03*
X244690128Y-164375000D03*
%TD*%
D17*
%TO.C,R14*%
X234310128Y-166851200D03*
X234310128Y-164851200D03*
%TD*%
D16*
%TO.C,C20*%
X182600000Y-119362500D03*
X182600000Y-121437500D03*
%TD*%
D17*
%TO.C,R3*%
X207800000Y-88300000D03*
X207800000Y-86300000D03*
%TD*%
D19*
%TO.C,C24*%
X186900000Y-124937500D03*
X186900000Y-122862500D03*
%TD*%
D26*
%TO.C,R20*%
X188850000Y-113550000D03*
X186850000Y-113550000D03*
%TD*%
D18*
%TO.C,C5*%
X229137500Y-121400000D03*
X227062500Y-121400000D03*
%TD*%
D17*
%TO.C,R27*%
X244200000Y-132600000D03*
X244200000Y-130600000D03*
%TD*%
D24*
%TO.C,U8*%
X214450000Y-107650000D03*
X214450000Y-108300000D03*
X214450000Y-108950000D03*
X216350000Y-108950000D03*
X216350000Y-108300000D03*
X216350000Y-107650000D03*
%TD*%
D47*
%TO.C,SW3*%
X219500000Y-103087200D03*
X219500000Y-99124800D03*
X219500000Y-95162400D03*
X219500000Y-91200000D03*
%TD*%
D17*
%TO.C,R18*%
X179400000Y-121300000D03*
X179400000Y-119300000D03*
%TD*%
D13*
%TO.C,D6*%
X225800000Y-165400000D03*
X225800000Y-163350000D03*
%TD*%
D15*
%TO.C,C1*%
X194462500Y-128200000D03*
X196537500Y-128200000D03*
%TD*%
D48*
%TO.C,C15*%
X204305113Y-91700000D03*
D49*
X201805113Y-91700000D03*
%TD*%
D15*
%TO.C,C14*%
X182962500Y-91000000D03*
X185037500Y-91000000D03*
%TD*%
D13*
%TO.C,D7*%
X222300000Y-165400000D03*
X222300000Y-163350000D03*
%TD*%
D25*
%TO.C,R4*%
X211900000Y-159500000D03*
X211900000Y-161500000D03*
%TD*%
D21*
%TO.C,R11*%
X206410000Y-110876200D03*
X208410000Y-110876200D03*
%TD*%
D19*
%TO.C,C30*%
X258231250Y-142837500D03*
X258231250Y-140762500D03*
%TD*%
D17*
%TO.C,R2*%
X196500000Y-132200000D03*
X196500000Y-130200000D03*
%TD*%
D38*
%TO.C,U3*%
X180575800Y-94628500D03*
X180575800Y-92328500D03*
X180575800Y-90028500D03*
D39*
X174424200Y-92328500D03*
%TD*%
D15*
%TO.C,C12*%
X183062500Y-94400000D03*
X185137500Y-94400000D03*
%TD*%
D50*
%TO.C,F1*%
X228350000Y-109400000D03*
X250850000Y-109400000D03*
%TD*%
D21*
%TO.C,R34*%
X241800000Y-146400000D03*
X243800000Y-146400000D03*
%TD*%
D25*
%TO.C,R8*%
X225800000Y-159500000D03*
X225800000Y-161500000D03*
%TD*%
D22*
%TO.C,J13*%
X230973800Y-159140000D03*
X230973800Y-156600000D03*
X230973800Y-154060000D03*
%TD*%
D20*
%TO.C,M1*%
X171000000Y-119050000D03*
X171000000Y-124050000D03*
%TD*%
D14*
%TO.C,SW9*%
X183310000Y-100300000D03*
X185850000Y-100300000D03*
%TD*%
D19*
%TO.C,C35*%
X247800000Y-155837500D03*
X247800000Y-153762500D03*
%TD*%
D18*
%TO.C,C19*%
X261137500Y-109400000D03*
X259062500Y-109400000D03*
%TD*%
D47*
%TO.C,J6*%
X235500000Y-101000000D03*
X229150000Y-91500001D03*
%TD*%
D14*
%TO.C,SW7*%
X195000000Y-100300000D03*
X197540000Y-100300000D03*
%TD*%
D19*
%TO.C,C27*%
X174150000Y-130707500D03*
X174150000Y-128632500D03*
%TD*%
D21*
%TO.C,R15*%
X255400000Y-91400000D03*
X257400000Y-91400000D03*
%TD*%
D16*
%TO.C,C21*%
X167200000Y-108362500D03*
X167200000Y-110437500D03*
%TD*%
D26*
%TO.C,R10*%
X212210000Y-110876200D03*
X210210000Y-110876200D03*
%TD*%
D13*
%TO.C,D9*%
X264400000Y-103025000D03*
X264400000Y-100975000D03*
%TD*%
D51*
%TO.C,J4*%
X220400000Y-86575000D03*
X219750000Y-86575000D03*
X219100000Y-86575000D03*
X218450000Y-86575000D03*
X217800000Y-86575000D03*
D52*
X222300000Y-86350000D03*
X215900000Y-86350000D03*
D53*
X217900000Y-83900000D03*
X220300000Y-83900000D03*
D54*
X222400000Y-83900000D03*
X215800000Y-83900000D03*
%TD*%
D26*
%TO.C,R23*%
X188850000Y-107550000D03*
X186850000Y-107550000D03*
%TD*%
D22*
%TO.C,J24*%
X169100000Y-104000000D03*
X169100000Y-101460000D03*
X169100000Y-98920000D03*
X169100000Y-96380000D03*
%TD*%
D18*
%TO.C,C2*%
X232087500Y-132250000D03*
X230012500Y-132250000D03*
%TD*%
D26*
%TO.C,R24*%
X188850000Y-105550000D03*
X186850000Y-105550000D03*
%TD*%
D25*
%TO.C,R9*%
X222300000Y-159500000D03*
X222300000Y-161500000D03*
%TD*%
D26*
%TO.C,R21*%
X188850000Y-111550000D03*
X186850000Y-111550000D03*
%TD*%
D25*
%TO.C,R19*%
X177200000Y-119300000D03*
X177200000Y-121300000D03*
%TD*%
D11*
%TO.C,J7*%
X190250000Y-155740000D03*
D12*
X192790000Y-155740000D03*
X190250000Y-158280000D03*
X192790000Y-158280000D03*
X190250000Y-160820000D03*
X192790000Y-160820000D03*
X190250000Y-163360000D03*
X192790000Y-163360000D03*
X190250000Y-165900000D03*
X192790000Y-165900000D03*
%TD*%
D23*
%TO.C,H4*%
X261700000Y-164500000D03*
%TD*%
D37*
%TO.C,C25*%
X181000000Y-127240900D03*
X181000000Y-134149700D03*
%TD*%
D55*
%TO.C,J17*%
X249878399Y-157350000D03*
X249878399Y-151649999D03*
D56*
X263028401Y-158950000D03*
X264028401Y-145799998D03*
D57*
X260428401Y-150459999D03*
X260028402Y-151560073D03*
X260428401Y-152659999D03*
X260628401Y-153760000D03*
X260428401Y-154860000D03*
X260628401Y-155960000D03*
X260428401Y-157060001D03*
X260428401Y-158160001D03*
%TD*%
D23*
%TO.C,H1*%
X169200000Y-86000000D03*
%TD*%
D18*
%TO.C,C11*%
X203437500Y-95800000D03*
X201362500Y-95800000D03*
%TD*%
D11*
%TO.C,J16*%
X191210000Y-117510000D03*
D12*
X193750000Y-117510000D03*
X191210000Y-120050000D03*
X193750000Y-120050000D03*
X191210000Y-122590000D03*
X193750000Y-122590000D03*
%TD*%
D23*
%TO.C,H3*%
X169300000Y-164500000D03*
%TD*%
D19*
%TO.C,C26*%
X246300000Y-132600000D03*
X246300000Y-130525000D03*
%TD*%
D47*
%TO.C,J5*%
X250100000Y-100999999D03*
X243750000Y-91500000D03*
%TD*%
D11*
%TO.C,J22*%
X198050000Y-90650000D03*
D12*
X198050000Y-93190000D03*
X195510000Y-90650000D03*
X195510000Y-93190000D03*
%TD*%
M02*
