%TF.GenerationSoftware,KiCad,Pcbnew,9.0.2*%
%TF.CreationDate,2025-05-19T09:33:39-07:00*%
%TF.ProjectId,MainBoard,4d61696e-426f-4617-9264-2e6b69636164,0.3*%
%TF.SameCoordinates,Original*%
%TF.FileFunction,Soldermask,Bot*%
%TF.FilePolarity,Negative*%
%FSLAX46Y46*%
G04 Gerber Fmt 4.6, Leading zero omitted, Abs format (unit mm)*
G04 Created by KiCad (PCBNEW 9.0.2) date 2025-05-19 09:33:39*
%MOMM*%
%LPD*%
G01*
G04 APERTURE LIST*
G04 Aperture macros list*
%AMRoundRect*
0 Rectangle with rounded corners*
0 $1 Rounding radius*
0 $2 $3 $4 $5 $6 $7 $8 $9 X,Y pos of 4 corners*
0 Add a 4 corners polygon primitive as box body*
4,1,4,$2,$3,$4,$5,$6,$7,$8,$9,$2,$3,0*
0 Add four circle primitives for the rounded corners*
1,1,$1+$1,$2,$3*
1,1,$1+$1,$4,$5*
1,1,$1+$1,$6,$7*
1,1,$1+$1,$8,$9*
0 Add four rect primitives between the rounded corners*
20,1,$1+$1,$2,$3,$4,$5,0*
20,1,$1+$1,$4,$5,$6,$7,0*
20,1,$1+$1,$6,$7,$8,$9,0*
20,1,$1+$1,$8,$9,$2,$3,0*%
G04 Aperture macros list end*
%ADD10C,1.524000*%
%ADD11RoundRect,0.250000X-0.845000X0.620000X-0.845000X-0.620000X0.845000X-0.620000X0.845000X0.620000X0*%
%ADD12O,2.190000X1.740000*%
%ADD13C,1.574800*%
%ADD14C,3.200000*%
%ADD15RoundRect,0.250000X0.845000X-0.620000X0.845000X0.620000X-0.845000X0.620000X-0.845000X-0.620000X0*%
%ADD16R,1.700000X1.700000*%
%ADD17O,1.700000X1.700000*%
%ADD18C,0.600000*%
%ADD19R,1.295400X1.295400*%
%ADD20C,1.295400*%
%ADD21C,2.000000*%
%ADD22RoundRect,0.250000X-0.620000X-0.845000X0.620000X-0.845000X0.620000X0.845000X-0.620000X0.845000X0*%
%ADD23O,1.740000X2.190000*%
%ADD24O,2.004000X1.104000*%
%ADD25C,1.507998*%
%ADD26C,2.209800*%
%ADD27R,1.600000X1.600000*%
%ADD28C,1.600000*%
%ADD29O,1.104000X2.004000*%
%ADD30C,2.184000*%
%ADD31RoundRect,0.237500X0.250000X0.237500X-0.250000X0.237500X-0.250000X-0.237500X0.250000X-0.237500X0*%
%ADD32RoundRect,0.237500X-0.250000X-0.237500X0.250000X-0.237500X0.250000X0.237500X-0.250000X0.237500X0*%
G04 APERTURE END LIST*
D10*
%TO.C,SW8*%
X189060000Y-100300000D03*
X191600000Y-100300000D03*
%TD*%
D11*
%TO.C,U11*%
X261925000Y-115570000D03*
D12*
X261925000Y-118110000D03*
X261925000Y-120650000D03*
X261925000Y-123190000D03*
X261925000Y-125730000D03*
X261925000Y-128270000D03*
%TD*%
D13*
%TO.C,J15*%
X177450000Y-166350000D03*
X177450000Y-163810000D03*
X177450000Y-161270000D03*
%TD*%
D14*
%TO.C,H2*%
X261700000Y-86000000D03*
%TD*%
D15*
%TO.C,U12*%
X169100000Y-135890000D03*
D12*
X169100000Y-133350000D03*
X169100000Y-130810000D03*
X169100000Y-128270000D03*
X169100000Y-125730000D03*
X169100000Y-123190000D03*
%TD*%
D16*
%TO.C,J1*%
X167850000Y-140300000D03*
D17*
X167850000Y-142840000D03*
X167850000Y-145380000D03*
X167850000Y-147920000D03*
X167850000Y-150460000D03*
X167850000Y-153000000D03*
%TD*%
D16*
%TO.C,J18*%
X253360000Y-163300000D03*
D17*
X255900000Y-163300000D03*
X253360000Y-165840000D03*
X255900000Y-165840000D03*
%TD*%
D13*
%TO.C,J14*%
X184673800Y-166390000D03*
X184673800Y-163850000D03*
X184673800Y-161310000D03*
%TD*%
%TO.C,D8*%
X211990000Y-106376200D03*
X209450000Y-106376200D03*
X206910000Y-106376200D03*
%TD*%
D16*
%TO.C,J3*%
X200300000Y-84360000D03*
D17*
X200300000Y-86900000D03*
X197760000Y-84360000D03*
X197760000Y-86900000D03*
X195220000Y-84360000D03*
X195220000Y-86900000D03*
X192680000Y-84360000D03*
X192680000Y-86900000D03*
X190140000Y-84360000D03*
X190140000Y-86900000D03*
%TD*%
D18*
%TO.C,U10*%
X179600000Y-111799999D03*
X179600000Y-112899999D03*
X179600000Y-113999999D03*
X179600000Y-115100000D03*
X179620000Y-110779999D03*
X180700000Y-110779999D03*
X180700000Y-115100000D03*
X180700003Y-111799999D03*
X180700003Y-112899999D03*
X180700003Y-113999999D03*
X181760000Y-110779999D03*
X181800000Y-111799999D03*
X181800000Y-112899999D03*
X181800000Y-113999999D03*
X181800000Y-115100000D03*
%TD*%
D16*
%TO.C,J21*%
X233010000Y-118650000D03*
D17*
X233010000Y-116110000D03*
X235550000Y-118650000D03*
X235550000Y-116110000D03*
X238090000Y-118650000D03*
X238090000Y-116110000D03*
%TD*%
D16*
%TO.C,J19*%
X237510000Y-126560000D03*
D17*
X240050000Y-126560000D03*
X237510000Y-129100000D03*
X240050000Y-129100000D03*
X237510000Y-131640000D03*
X240050000Y-131640000D03*
%TD*%
D19*
%TO.C,SW2*%
X211550000Y-86049999D03*
D20*
X211550000Y-88050000D03*
X211550000Y-90050001D03*
D21*
X211550000Y-83949999D03*
X211550000Y-92150000D03*
%TD*%
D18*
%TO.C,U13*%
X251400000Y-140099999D03*
X251400000Y-138999999D03*
X251400000Y-137899999D03*
X251400000Y-136799998D03*
X251380000Y-141119999D03*
X250300000Y-141119999D03*
X250300000Y-136799998D03*
X250299997Y-140099999D03*
X250299997Y-138999999D03*
X250299997Y-137899999D03*
X249240000Y-141119999D03*
X249200000Y-140099999D03*
X249200000Y-138999999D03*
X249200000Y-137899999D03*
X249200000Y-136799998D03*
%TD*%
D22*
%TO.C,J20*%
X172055000Y-142450000D03*
D23*
X174595000Y-142450000D03*
X177135000Y-142450000D03*
X179675000Y-142450000D03*
X182215000Y-142450000D03*
X184755000Y-142450000D03*
%TD*%
D16*
%TO.C,J8*%
X201160000Y-158430000D03*
D17*
X203700000Y-158430000D03*
X201160000Y-160970000D03*
X203700000Y-160970000D03*
X201160000Y-163510000D03*
X203700000Y-163510000D03*
X201160000Y-166050000D03*
X203700000Y-166050000D03*
%TD*%
D16*
%TO.C,J2*%
X185140000Y-84060000D03*
D17*
X185140000Y-86600000D03*
X182600000Y-84060000D03*
X182600000Y-86600000D03*
X180060000Y-84060000D03*
X180060000Y-86600000D03*
X177520000Y-84060000D03*
X177520000Y-86600000D03*
X174980000Y-84060000D03*
X174980000Y-86600000D03*
%TD*%
D16*
%TO.C,J23*%
X171660000Y-152150000D03*
D17*
X174200000Y-152150000D03*
X171660000Y-154690000D03*
X174200000Y-154690000D03*
X171660000Y-157230000D03*
X174200000Y-157230000D03*
%TD*%
D10*
%TO.C,SW6*%
X231610128Y-164351200D03*
X229070128Y-164351200D03*
%TD*%
D24*
%TO.C,J9*%
X263900000Y-97700000D03*
X263900000Y-91100000D03*
%TD*%
D10*
%TO.C,SW10*%
X177510000Y-100300000D03*
X180050000Y-100300000D03*
%TD*%
%TO.C,SW4*%
X239490128Y-164375000D03*
X236950128Y-164375000D03*
%TD*%
%TO.C,SW5*%
X247230128Y-164375000D03*
X244690128Y-164375000D03*
%TD*%
D16*
%TO.C,J25*%
X201250000Y-116275000D03*
D17*
X203790000Y-116275000D03*
X201250000Y-118815000D03*
X203790000Y-118815000D03*
%TD*%
D25*
%TO.C,SW1*%
X192300001Y-127099998D03*
X192300001Y-133600000D03*
X187800000Y-127099998D03*
X187800000Y-133600000D03*
%TD*%
D16*
%TO.C,J26*%
X222460000Y-110400000D03*
D17*
X225000000Y-110400000D03*
X222460000Y-112940000D03*
X225000000Y-112940000D03*
X222460000Y-115480000D03*
X225000000Y-115480000D03*
X222460000Y-118020000D03*
X225000000Y-118020000D03*
%TD*%
D26*
%TO.C,SW3*%
X219500000Y-103087200D03*
X219500000Y-99124800D03*
X219500000Y-95162400D03*
X219500000Y-91200000D03*
%TD*%
D27*
%TO.C,C15*%
X204305113Y-91700000D03*
D28*
X201805113Y-91700000D03*
%TD*%
D29*
%TO.C,J4*%
X222400000Y-83800000D03*
X215800000Y-83800000D03*
%TD*%
D30*
%TO.C,F1*%
X228350000Y-109400000D03*
X250850000Y-109400000D03*
%TD*%
D13*
%TO.C,J13*%
X230973800Y-159140000D03*
X230973800Y-156600000D03*
X230973800Y-154060000D03*
%TD*%
D10*
%TO.C,SW9*%
X183310000Y-100300000D03*
X185850000Y-100300000D03*
%TD*%
D26*
%TO.C,J6*%
X235500000Y-101000000D03*
X229150000Y-91500001D03*
%TD*%
D10*
%TO.C,SW7*%
X195000000Y-100300000D03*
X197540000Y-100300000D03*
%TD*%
D13*
%TO.C,J24*%
X169100000Y-104000000D03*
X169100000Y-101460000D03*
X169100000Y-98920000D03*
X169100000Y-96380000D03*
%TD*%
D16*
%TO.C,J7*%
X190250000Y-155740000D03*
D17*
X192790000Y-155740000D03*
X190250000Y-158280000D03*
X192790000Y-158280000D03*
X190250000Y-160820000D03*
X192790000Y-160820000D03*
X190250000Y-163360000D03*
X192790000Y-163360000D03*
X190250000Y-165900000D03*
X192790000Y-165900000D03*
%TD*%
D14*
%TO.C,H4*%
X261700000Y-164500000D03*
%TD*%
%TO.C,H1*%
X169200000Y-86000000D03*
%TD*%
D16*
%TO.C,J16*%
X191210000Y-117510000D03*
D17*
X193750000Y-117510000D03*
X191210000Y-120050000D03*
X193750000Y-120050000D03*
X191210000Y-122590000D03*
X193750000Y-122590000D03*
%TD*%
D14*
%TO.C,H3*%
X169300000Y-164500000D03*
%TD*%
D26*
%TO.C,J5*%
X250100000Y-100999999D03*
X243750000Y-91500000D03*
%TD*%
D16*
%TO.C,J22*%
X198050000Y-90650000D03*
D17*
X198050000Y-93190000D03*
X195510000Y-90650000D03*
X195510000Y-93190000D03*
%TD*%
D31*
%TO.C,R49*%
X260925000Y-138125000D03*
X259100000Y-138125000D03*
%TD*%
D32*
%TO.C,R26*%
X173275000Y-113700000D03*
X175100000Y-113700000D03*
%TD*%
D31*
%TO.C,R36*%
X257562500Y-138125000D03*
X255737500Y-138125000D03*
%TD*%
D32*
%TO.C,R47*%
X169900000Y-113700000D03*
X171725000Y-113700000D03*
%TD*%
%TO.C,R48*%
X166525000Y-113700000D03*
X168350000Y-113700000D03*
%TD*%
D31*
%TO.C,R50*%
X264300000Y-138125000D03*
X262475000Y-138125000D03*
%TD*%
M02*
