%TF.GenerationSoftware,KiCad,Pcbnew,9.0.2*%
%TF.CreationDate,2025-08-15T10:19:52-07:00*%
%TF.ProjectId,MainBoard,4d61696e-426f-4617-9264-2e6b69636164,0.4*%
%TF.SameCoordinates,Original*%
%TF.FileFunction,Legend,Bot*%
%TF.FilePolarity,Positive*%
%FSLAX46Y46*%
G04 Gerber Fmt 4.6, Leading zero omitted, Abs format (unit mm)*
G04 Created by KiCad (PCBNEW 9.0.2) date 2025-08-15 10:19:52*
%MOMM*%
%LPD*%
G01*
G04 APERTURE LIST*
%ADD10C,0.150000*%
%ADD11C,0.508000*%
%ADD12C,0.254000*%
%ADD13C,0.120000*%
G04 APERTURE END LIST*
D10*
X167437500Y-114222500D02*
X167437500Y-115800000D01*
X263642224Y-140211250D02*
X263642224Y-141788750D01*
X170812500Y-114222500D02*
X172400000Y-115800000D01*
X258406250Y-136011250D02*
X259993750Y-137588750D01*
X172400000Y-115800000D02*
X173932776Y-114222500D01*
X256650000Y-137602500D02*
X258406250Y-136011250D01*
X227863220Y-142430043D02*
X227863220Y-141430043D01*
X227863220Y-141430043D02*
X227529887Y-142144328D01*
X227529887Y-142144328D02*
X227196554Y-141430043D01*
X227196554Y-141430043D02*
X227196554Y-142430043D01*
X226291792Y-142430043D02*
X226291792Y-141906233D01*
X226291792Y-141906233D02*
X226339411Y-141810995D01*
X226339411Y-141810995D02*
X226434649Y-141763376D01*
X226434649Y-141763376D02*
X226625125Y-141763376D01*
X226625125Y-141763376D02*
X226720363Y-141810995D01*
X226291792Y-142382424D02*
X226387030Y-142430043D01*
X226387030Y-142430043D02*
X226625125Y-142430043D01*
X226625125Y-142430043D02*
X226720363Y-142382424D01*
X226720363Y-142382424D02*
X226767982Y-142287185D01*
X226767982Y-142287185D02*
X226767982Y-142191947D01*
X226767982Y-142191947D02*
X226720363Y-142096709D01*
X226720363Y-142096709D02*
X226625125Y-142049090D01*
X226625125Y-142049090D02*
X226387030Y-142049090D01*
X226387030Y-142049090D02*
X226291792Y-142001471D01*
X225958458Y-141763376D02*
X225577506Y-141763376D01*
X225815601Y-141430043D02*
X225815601Y-142287185D01*
X225815601Y-142287185D02*
X225767982Y-142382424D01*
X225767982Y-142382424D02*
X225672744Y-142430043D01*
X225672744Y-142430043D02*
X225577506Y-142430043D01*
X225387029Y-141763376D02*
X225006077Y-141763376D01*
X225244172Y-141430043D02*
X225244172Y-142287185D01*
X225244172Y-142287185D02*
X225196553Y-142382424D01*
X225196553Y-142382424D02*
X225101315Y-142430043D01*
X225101315Y-142430043D02*
X225006077Y-142430043D01*
X224672743Y-142430043D02*
X224672743Y-141430043D01*
X224244172Y-142430043D02*
X224244172Y-141906233D01*
X224244172Y-141906233D02*
X224291791Y-141810995D01*
X224291791Y-141810995D02*
X224387029Y-141763376D01*
X224387029Y-141763376D02*
X224529886Y-141763376D01*
X224529886Y-141763376D02*
X224625124Y-141810995D01*
X224625124Y-141810995D02*
X224672743Y-141858614D01*
X223387029Y-142382424D02*
X223482267Y-142430043D01*
X223482267Y-142430043D02*
X223672743Y-142430043D01*
X223672743Y-142430043D02*
X223767981Y-142382424D01*
X223767981Y-142382424D02*
X223815600Y-142287185D01*
X223815600Y-142287185D02*
X223815600Y-141906233D01*
X223815600Y-141906233D02*
X223767981Y-141810995D01*
X223767981Y-141810995D02*
X223672743Y-141763376D01*
X223672743Y-141763376D02*
X223482267Y-141763376D01*
X223482267Y-141763376D02*
X223387029Y-141810995D01*
X223387029Y-141810995D02*
X223339410Y-141906233D01*
X223339410Y-141906233D02*
X223339410Y-142001471D01*
X223339410Y-142001471D02*
X223815600Y-142096709D01*
X223006076Y-141763376D02*
X222815600Y-142430043D01*
X222815600Y-142430043D02*
X222625124Y-141953852D01*
X222625124Y-141953852D02*
X222434648Y-142430043D01*
X222434648Y-142430043D02*
X222244172Y-141763376D01*
X221148933Y-142382424D02*
X221006076Y-142430043D01*
X221006076Y-142430043D02*
X220767981Y-142430043D01*
X220767981Y-142430043D02*
X220672743Y-142382424D01*
X220672743Y-142382424D02*
X220625124Y-142334804D01*
X220625124Y-142334804D02*
X220577505Y-142239566D01*
X220577505Y-142239566D02*
X220577505Y-142144328D01*
X220577505Y-142144328D02*
X220625124Y-142049090D01*
X220625124Y-142049090D02*
X220672743Y-142001471D01*
X220672743Y-142001471D02*
X220767981Y-141953852D01*
X220767981Y-141953852D02*
X220958457Y-141906233D01*
X220958457Y-141906233D02*
X221053695Y-141858614D01*
X221053695Y-141858614D02*
X221101314Y-141810995D01*
X221101314Y-141810995D02*
X221148933Y-141715757D01*
X221148933Y-141715757D02*
X221148933Y-141620519D01*
X221148933Y-141620519D02*
X221101314Y-141525281D01*
X221101314Y-141525281D02*
X221053695Y-141477662D01*
X221053695Y-141477662D02*
X220958457Y-141430043D01*
X220958457Y-141430043D02*
X220720362Y-141430043D01*
X220720362Y-141430043D02*
X220577505Y-141477662D01*
X219720362Y-142430043D02*
X219720362Y-141906233D01*
X219720362Y-141906233D02*
X219767981Y-141810995D01*
X219767981Y-141810995D02*
X219863219Y-141763376D01*
X219863219Y-141763376D02*
X220053695Y-141763376D01*
X220053695Y-141763376D02*
X220148933Y-141810995D01*
X219720362Y-142382424D02*
X219815600Y-142430043D01*
X219815600Y-142430043D02*
X220053695Y-142430043D01*
X220053695Y-142430043D02*
X220148933Y-142382424D01*
X220148933Y-142382424D02*
X220196552Y-142287185D01*
X220196552Y-142287185D02*
X220196552Y-142191947D01*
X220196552Y-142191947D02*
X220148933Y-142096709D01*
X220148933Y-142096709D02*
X220053695Y-142049090D01*
X220053695Y-142049090D02*
X219815600Y-142049090D01*
X219815600Y-142049090D02*
X219720362Y-142001471D01*
X219387028Y-141763376D02*
X219006076Y-141763376D01*
X219244171Y-141430043D02*
X219244171Y-142287185D01*
X219244171Y-142287185D02*
X219196552Y-142382424D01*
X219196552Y-142382424D02*
X219101314Y-142430043D01*
X219101314Y-142430043D02*
X219006076Y-142430043D01*
X218529885Y-142430043D02*
X218625123Y-142382424D01*
X218625123Y-142382424D02*
X218672742Y-142334804D01*
X218672742Y-142334804D02*
X218720361Y-142239566D01*
X218720361Y-142239566D02*
X218720361Y-141953852D01*
X218720361Y-141953852D02*
X218672742Y-141858614D01*
X218672742Y-141858614D02*
X218625123Y-141810995D01*
X218625123Y-141810995D02*
X218529885Y-141763376D01*
X218529885Y-141763376D02*
X218387028Y-141763376D01*
X218387028Y-141763376D02*
X218291790Y-141810995D01*
X218291790Y-141810995D02*
X218244171Y-141858614D01*
X218244171Y-141858614D02*
X218196552Y-141953852D01*
X218196552Y-141953852D02*
X218196552Y-142239566D01*
X218196552Y-142239566D02*
X218244171Y-142334804D01*
X218244171Y-142334804D02*
X218291790Y-142382424D01*
X218291790Y-142382424D02*
X218387028Y-142430043D01*
X218387028Y-142430043D02*
X218529885Y-142430043D01*
X217720361Y-142382424D02*
X217720361Y-142430043D01*
X217720361Y-142430043D02*
X217767980Y-142525281D01*
X217767980Y-142525281D02*
X217815599Y-142572900D01*
X216339409Y-141430043D02*
X216244171Y-141430043D01*
X216244171Y-141430043D02*
X216148933Y-141477662D01*
X216148933Y-141477662D02*
X216101314Y-141525281D01*
X216101314Y-141525281D02*
X216053695Y-141620519D01*
X216053695Y-141620519D02*
X216006076Y-141810995D01*
X216006076Y-141810995D02*
X216006076Y-142049090D01*
X216006076Y-142049090D02*
X216053695Y-142239566D01*
X216053695Y-142239566D02*
X216101314Y-142334804D01*
X216101314Y-142334804D02*
X216148933Y-142382424D01*
X216148933Y-142382424D02*
X216244171Y-142430043D01*
X216244171Y-142430043D02*
X216339409Y-142430043D01*
X216339409Y-142430043D02*
X216434647Y-142382424D01*
X216434647Y-142382424D02*
X216482266Y-142334804D01*
X216482266Y-142334804D02*
X216529885Y-142239566D01*
X216529885Y-142239566D02*
X216577504Y-142049090D01*
X216577504Y-142049090D02*
X216577504Y-141810995D01*
X216577504Y-141810995D02*
X216529885Y-141620519D01*
X216529885Y-141620519D02*
X216482266Y-141525281D01*
X216482266Y-141525281D02*
X216434647Y-141477662D01*
X216434647Y-141477662D02*
X216339409Y-141430043D01*
X215434647Y-141858614D02*
X215529885Y-141810995D01*
X215529885Y-141810995D02*
X215577504Y-141763376D01*
X215577504Y-141763376D02*
X215625123Y-141668138D01*
X215625123Y-141668138D02*
X215625123Y-141620519D01*
X215625123Y-141620519D02*
X215577504Y-141525281D01*
X215577504Y-141525281D02*
X215529885Y-141477662D01*
X215529885Y-141477662D02*
X215434647Y-141430043D01*
X215434647Y-141430043D02*
X215244171Y-141430043D01*
X215244171Y-141430043D02*
X215148933Y-141477662D01*
X215148933Y-141477662D02*
X215101314Y-141525281D01*
X215101314Y-141525281D02*
X215053695Y-141620519D01*
X215053695Y-141620519D02*
X215053695Y-141668138D01*
X215053695Y-141668138D02*
X215101314Y-141763376D01*
X215101314Y-141763376D02*
X215148933Y-141810995D01*
X215148933Y-141810995D02*
X215244171Y-141858614D01*
X215244171Y-141858614D02*
X215434647Y-141858614D01*
X215434647Y-141858614D02*
X215529885Y-141906233D01*
X215529885Y-141906233D02*
X215577504Y-141953852D01*
X215577504Y-141953852D02*
X215625123Y-142049090D01*
X215625123Y-142049090D02*
X215625123Y-142239566D01*
X215625123Y-142239566D02*
X215577504Y-142334804D01*
X215577504Y-142334804D02*
X215529885Y-142382424D01*
X215529885Y-142382424D02*
X215434647Y-142430043D01*
X215434647Y-142430043D02*
X215244171Y-142430043D01*
X215244171Y-142430043D02*
X215148933Y-142382424D01*
X215148933Y-142382424D02*
X215101314Y-142334804D01*
X215101314Y-142334804D02*
X215053695Y-142239566D01*
X215053695Y-142239566D02*
X215053695Y-142049090D01*
X215053695Y-142049090D02*
X215101314Y-141953852D01*
X215101314Y-141953852D02*
X215148933Y-141906233D01*
X215148933Y-141906233D02*
X215244171Y-141858614D01*
X213910838Y-141382424D02*
X214767980Y-142668138D01*
X213387028Y-141430043D02*
X213291790Y-141430043D01*
X213291790Y-141430043D02*
X213196552Y-141477662D01*
X213196552Y-141477662D02*
X213148933Y-141525281D01*
X213148933Y-141525281D02*
X213101314Y-141620519D01*
X213101314Y-141620519D02*
X213053695Y-141810995D01*
X213053695Y-141810995D02*
X213053695Y-142049090D01*
X213053695Y-142049090D02*
X213101314Y-142239566D01*
X213101314Y-142239566D02*
X213148933Y-142334804D01*
X213148933Y-142334804D02*
X213196552Y-142382424D01*
X213196552Y-142382424D02*
X213291790Y-142430043D01*
X213291790Y-142430043D02*
X213387028Y-142430043D01*
X213387028Y-142430043D02*
X213482266Y-142382424D01*
X213482266Y-142382424D02*
X213529885Y-142334804D01*
X213529885Y-142334804D02*
X213577504Y-142239566D01*
X213577504Y-142239566D02*
X213625123Y-142049090D01*
X213625123Y-142049090D02*
X213625123Y-141810995D01*
X213625123Y-141810995D02*
X213577504Y-141620519D01*
X213577504Y-141620519D02*
X213529885Y-141525281D01*
X213529885Y-141525281D02*
X213482266Y-141477662D01*
X213482266Y-141477662D02*
X213387028Y-141430043D01*
X212482266Y-141858614D02*
X212577504Y-141810995D01*
X212577504Y-141810995D02*
X212625123Y-141763376D01*
X212625123Y-141763376D02*
X212672742Y-141668138D01*
X212672742Y-141668138D02*
X212672742Y-141620519D01*
X212672742Y-141620519D02*
X212625123Y-141525281D01*
X212625123Y-141525281D02*
X212577504Y-141477662D01*
X212577504Y-141477662D02*
X212482266Y-141430043D01*
X212482266Y-141430043D02*
X212291790Y-141430043D01*
X212291790Y-141430043D02*
X212196552Y-141477662D01*
X212196552Y-141477662D02*
X212148933Y-141525281D01*
X212148933Y-141525281D02*
X212101314Y-141620519D01*
X212101314Y-141620519D02*
X212101314Y-141668138D01*
X212101314Y-141668138D02*
X212148933Y-141763376D01*
X212148933Y-141763376D02*
X212196552Y-141810995D01*
X212196552Y-141810995D02*
X212291790Y-141858614D01*
X212291790Y-141858614D02*
X212482266Y-141858614D01*
X212482266Y-141858614D02*
X212577504Y-141906233D01*
X212577504Y-141906233D02*
X212625123Y-141953852D01*
X212625123Y-141953852D02*
X212672742Y-142049090D01*
X212672742Y-142049090D02*
X212672742Y-142239566D01*
X212672742Y-142239566D02*
X212625123Y-142334804D01*
X212625123Y-142334804D02*
X212577504Y-142382424D01*
X212577504Y-142382424D02*
X212482266Y-142430043D01*
X212482266Y-142430043D02*
X212291790Y-142430043D01*
X212291790Y-142430043D02*
X212196552Y-142382424D01*
X212196552Y-142382424D02*
X212148933Y-142334804D01*
X212148933Y-142334804D02*
X212101314Y-142239566D01*
X212101314Y-142239566D02*
X212101314Y-142049090D01*
X212101314Y-142049090D02*
X212148933Y-141953852D01*
X212148933Y-141953852D02*
X212196552Y-141906233D01*
X212196552Y-141906233D02*
X212291790Y-141858614D01*
X210958457Y-141382424D02*
X211815599Y-142668138D01*
X210672742Y-141525281D02*
X210625123Y-141477662D01*
X210625123Y-141477662D02*
X210529885Y-141430043D01*
X210529885Y-141430043D02*
X210291790Y-141430043D01*
X210291790Y-141430043D02*
X210196552Y-141477662D01*
X210196552Y-141477662D02*
X210148933Y-141525281D01*
X210148933Y-141525281D02*
X210101314Y-141620519D01*
X210101314Y-141620519D02*
X210101314Y-141715757D01*
X210101314Y-141715757D02*
X210148933Y-141858614D01*
X210148933Y-141858614D02*
X210720361Y-142430043D01*
X210720361Y-142430043D02*
X210101314Y-142430043D01*
X209482266Y-141430043D02*
X209387028Y-141430043D01*
X209387028Y-141430043D02*
X209291790Y-141477662D01*
X209291790Y-141477662D02*
X209244171Y-141525281D01*
X209244171Y-141525281D02*
X209196552Y-141620519D01*
X209196552Y-141620519D02*
X209148933Y-141810995D01*
X209148933Y-141810995D02*
X209148933Y-142049090D01*
X209148933Y-142049090D02*
X209196552Y-142239566D01*
X209196552Y-142239566D02*
X209244171Y-142334804D01*
X209244171Y-142334804D02*
X209291790Y-142382424D01*
X209291790Y-142382424D02*
X209387028Y-142430043D01*
X209387028Y-142430043D02*
X209482266Y-142430043D01*
X209482266Y-142430043D02*
X209577504Y-142382424D01*
X209577504Y-142382424D02*
X209625123Y-142334804D01*
X209625123Y-142334804D02*
X209672742Y-142239566D01*
X209672742Y-142239566D02*
X209720361Y-142049090D01*
X209720361Y-142049090D02*
X209720361Y-141810995D01*
X209720361Y-141810995D02*
X209672742Y-141620519D01*
X209672742Y-141620519D02*
X209625123Y-141525281D01*
X209625123Y-141525281D02*
X209577504Y-141477662D01*
X209577504Y-141477662D02*
X209482266Y-141430043D01*
X208767980Y-141525281D02*
X208720361Y-141477662D01*
X208720361Y-141477662D02*
X208625123Y-141430043D01*
X208625123Y-141430043D02*
X208387028Y-141430043D01*
X208387028Y-141430043D02*
X208291790Y-141477662D01*
X208291790Y-141477662D02*
X208244171Y-141525281D01*
X208244171Y-141525281D02*
X208196552Y-141620519D01*
X208196552Y-141620519D02*
X208196552Y-141715757D01*
X208196552Y-141715757D02*
X208244171Y-141858614D01*
X208244171Y-141858614D02*
X208815599Y-142430043D01*
X208815599Y-142430043D02*
X208196552Y-142430043D01*
X207291790Y-141430043D02*
X207767980Y-141430043D01*
X207767980Y-141430043D02*
X207815599Y-141906233D01*
X207815599Y-141906233D02*
X207767980Y-141858614D01*
X207767980Y-141858614D02*
X207672742Y-141810995D01*
X207672742Y-141810995D02*
X207434647Y-141810995D01*
X207434647Y-141810995D02*
X207339409Y-141858614D01*
X207339409Y-141858614D02*
X207291790Y-141906233D01*
X207291790Y-141906233D02*
X207244171Y-142001471D01*
X207244171Y-142001471D02*
X207244171Y-142239566D01*
X207244171Y-142239566D02*
X207291790Y-142334804D01*
X207291790Y-142334804D02*
X207339409Y-142382424D01*
X207339409Y-142382424D02*
X207434647Y-142430043D01*
X207434647Y-142430043D02*
X207672742Y-142430043D01*
X207672742Y-142430043D02*
X207767980Y-142382424D01*
X207767980Y-142382424D02*
X207815599Y-142334804D01*
X227863220Y-143516177D02*
X227529887Y-143516177D01*
X227387030Y-144039987D02*
X227863220Y-144039987D01*
X227863220Y-144039987D02*
X227863220Y-143039987D01*
X227863220Y-143039987D02*
X227387030Y-143039987D01*
X226958458Y-143373320D02*
X226958458Y-144039987D01*
X226958458Y-143468558D02*
X226910839Y-143420939D01*
X226910839Y-143420939D02*
X226815601Y-143373320D01*
X226815601Y-143373320D02*
X226672744Y-143373320D01*
X226672744Y-143373320D02*
X226577506Y-143420939D01*
X226577506Y-143420939D02*
X226529887Y-143516177D01*
X226529887Y-143516177D02*
X226529887Y-144039987D01*
X225625125Y-143373320D02*
X225625125Y-144182844D01*
X225625125Y-144182844D02*
X225672744Y-144278082D01*
X225672744Y-144278082D02*
X225720363Y-144325701D01*
X225720363Y-144325701D02*
X225815601Y-144373320D01*
X225815601Y-144373320D02*
X225958458Y-144373320D01*
X225958458Y-144373320D02*
X226053696Y-144325701D01*
X225625125Y-143992368D02*
X225720363Y-144039987D01*
X225720363Y-144039987D02*
X225910839Y-144039987D01*
X225910839Y-144039987D02*
X226006077Y-143992368D01*
X226006077Y-143992368D02*
X226053696Y-143944748D01*
X226053696Y-143944748D02*
X226101315Y-143849510D01*
X226101315Y-143849510D02*
X226101315Y-143563796D01*
X226101315Y-143563796D02*
X226053696Y-143468558D01*
X226053696Y-143468558D02*
X226006077Y-143420939D01*
X226006077Y-143420939D02*
X225910839Y-143373320D01*
X225910839Y-143373320D02*
X225720363Y-143373320D01*
X225720363Y-143373320D02*
X225625125Y-143420939D01*
X225148934Y-144039987D02*
X225148934Y-143373320D01*
X225148934Y-143039987D02*
X225196553Y-143087606D01*
X225196553Y-143087606D02*
X225148934Y-143135225D01*
X225148934Y-143135225D02*
X225101315Y-143087606D01*
X225101315Y-143087606D02*
X225148934Y-143039987D01*
X225148934Y-143039987D02*
X225148934Y-143135225D01*
X224672744Y-143373320D02*
X224672744Y-144039987D01*
X224672744Y-143468558D02*
X224625125Y-143420939D01*
X224625125Y-143420939D02*
X224529887Y-143373320D01*
X224529887Y-143373320D02*
X224387030Y-143373320D01*
X224387030Y-143373320D02*
X224291792Y-143420939D01*
X224291792Y-143420939D02*
X224244173Y-143516177D01*
X224244173Y-143516177D02*
X224244173Y-144039987D01*
X223387030Y-143992368D02*
X223482268Y-144039987D01*
X223482268Y-144039987D02*
X223672744Y-144039987D01*
X223672744Y-144039987D02*
X223767982Y-143992368D01*
X223767982Y-143992368D02*
X223815601Y-143897129D01*
X223815601Y-143897129D02*
X223815601Y-143516177D01*
X223815601Y-143516177D02*
X223767982Y-143420939D01*
X223767982Y-143420939D02*
X223672744Y-143373320D01*
X223672744Y-143373320D02*
X223482268Y-143373320D01*
X223482268Y-143373320D02*
X223387030Y-143420939D01*
X223387030Y-143420939D02*
X223339411Y-143516177D01*
X223339411Y-143516177D02*
X223339411Y-143611415D01*
X223339411Y-143611415D02*
X223815601Y-143706653D01*
X222529887Y-143992368D02*
X222625125Y-144039987D01*
X222625125Y-144039987D02*
X222815601Y-144039987D01*
X222815601Y-144039987D02*
X222910839Y-143992368D01*
X222910839Y-143992368D02*
X222958458Y-143897129D01*
X222958458Y-143897129D02*
X222958458Y-143516177D01*
X222958458Y-143516177D02*
X222910839Y-143420939D01*
X222910839Y-143420939D02*
X222815601Y-143373320D01*
X222815601Y-143373320D02*
X222625125Y-143373320D01*
X222625125Y-143373320D02*
X222529887Y-143420939D01*
X222529887Y-143420939D02*
X222482268Y-143516177D01*
X222482268Y-143516177D02*
X222482268Y-143611415D01*
X222482268Y-143611415D02*
X222958458Y-143706653D01*
X222053696Y-144039987D02*
X222053696Y-143373320D01*
X222053696Y-143563796D02*
X222006077Y-143468558D01*
X222006077Y-143468558D02*
X221958458Y-143420939D01*
X221958458Y-143420939D02*
X221863220Y-143373320D01*
X221863220Y-143373320D02*
X221767982Y-143373320D01*
X221434648Y-144039987D02*
X221434648Y-143373320D01*
X221434648Y-143039987D02*
X221482267Y-143087606D01*
X221482267Y-143087606D02*
X221434648Y-143135225D01*
X221434648Y-143135225D02*
X221387029Y-143087606D01*
X221387029Y-143087606D02*
X221434648Y-143039987D01*
X221434648Y-143039987D02*
X221434648Y-143135225D01*
X220958458Y-143373320D02*
X220958458Y-144039987D01*
X220958458Y-143468558D02*
X220910839Y-143420939D01*
X220910839Y-143420939D02*
X220815601Y-143373320D01*
X220815601Y-143373320D02*
X220672744Y-143373320D01*
X220672744Y-143373320D02*
X220577506Y-143420939D01*
X220577506Y-143420939D02*
X220529887Y-143516177D01*
X220529887Y-143516177D02*
X220529887Y-144039987D01*
X219625125Y-143373320D02*
X219625125Y-144182844D01*
X219625125Y-144182844D02*
X219672744Y-144278082D01*
X219672744Y-144278082D02*
X219720363Y-144325701D01*
X219720363Y-144325701D02*
X219815601Y-144373320D01*
X219815601Y-144373320D02*
X219958458Y-144373320D01*
X219958458Y-144373320D02*
X220053696Y-144325701D01*
X219625125Y-143992368D02*
X219720363Y-144039987D01*
X219720363Y-144039987D02*
X219910839Y-144039987D01*
X219910839Y-144039987D02*
X220006077Y-143992368D01*
X220006077Y-143992368D02*
X220053696Y-143944748D01*
X220053696Y-143944748D02*
X220101315Y-143849510D01*
X220101315Y-143849510D02*
X220101315Y-143563796D01*
X220101315Y-143563796D02*
X220053696Y-143468558D01*
X220053696Y-143468558D02*
X220006077Y-143420939D01*
X220006077Y-143420939D02*
X219910839Y-143373320D01*
X219910839Y-143373320D02*
X219720363Y-143373320D01*
X219720363Y-143373320D02*
X219625125Y-143420939D01*
X218387029Y-144039987D02*
X218387029Y-143039987D01*
X217910839Y-143373320D02*
X217910839Y-144039987D01*
X217910839Y-143468558D02*
X217863220Y-143420939D01*
X217863220Y-143420939D02*
X217767982Y-143373320D01*
X217767982Y-143373320D02*
X217625125Y-143373320D01*
X217625125Y-143373320D02*
X217529887Y-143420939D01*
X217529887Y-143420939D02*
X217482268Y-143516177D01*
X217482268Y-143516177D02*
X217482268Y-144039987D01*
X217148934Y-143373320D02*
X216767982Y-143373320D01*
X217006077Y-144039987D02*
X217006077Y-143182844D01*
X217006077Y-143182844D02*
X216958458Y-143087606D01*
X216958458Y-143087606D02*
X216863220Y-143039987D01*
X216863220Y-143039987D02*
X216767982Y-143039987D01*
X216291791Y-144039987D02*
X216387029Y-143992368D01*
X216387029Y-143992368D02*
X216434648Y-143944748D01*
X216434648Y-143944748D02*
X216482267Y-143849510D01*
X216482267Y-143849510D02*
X216482267Y-143563796D01*
X216482267Y-143563796D02*
X216434648Y-143468558D01*
X216434648Y-143468558D02*
X216387029Y-143420939D01*
X216387029Y-143420939D02*
X216291791Y-143373320D01*
X216291791Y-143373320D02*
X216148934Y-143373320D01*
X216148934Y-143373320D02*
X216053696Y-143420939D01*
X216053696Y-143420939D02*
X216006077Y-143468558D01*
X216006077Y-143468558D02*
X215958458Y-143563796D01*
X215958458Y-143563796D02*
X215958458Y-143849510D01*
X215958458Y-143849510D02*
X216006077Y-143944748D01*
X216006077Y-143944748D02*
X216053696Y-143992368D01*
X216053696Y-143992368D02*
X216148934Y-144039987D01*
X216148934Y-144039987D02*
X216291791Y-144039987D01*
X215529886Y-144039987D02*
X215529886Y-143373320D01*
X215529886Y-143563796D02*
X215482267Y-143468558D01*
X215482267Y-143468558D02*
X215434648Y-143420939D01*
X215434648Y-143420939D02*
X215339410Y-143373320D01*
X215339410Y-143373320D02*
X215244172Y-143373320D01*
X214910838Y-144039987D02*
X214910838Y-143373320D01*
X214910838Y-143468558D02*
X214863219Y-143420939D01*
X214863219Y-143420939D02*
X214767981Y-143373320D01*
X214767981Y-143373320D02*
X214625124Y-143373320D01*
X214625124Y-143373320D02*
X214529886Y-143420939D01*
X214529886Y-143420939D02*
X214482267Y-143516177D01*
X214482267Y-143516177D02*
X214482267Y-144039987D01*
X214482267Y-143516177D02*
X214434648Y-143420939D01*
X214434648Y-143420939D02*
X214339410Y-143373320D01*
X214339410Y-143373320D02*
X214196553Y-143373320D01*
X214196553Y-143373320D02*
X214101314Y-143420939D01*
X214101314Y-143420939D02*
X214053695Y-143516177D01*
X214053695Y-143516177D02*
X214053695Y-144039987D01*
X213148934Y-144039987D02*
X213148934Y-143516177D01*
X213148934Y-143516177D02*
X213196553Y-143420939D01*
X213196553Y-143420939D02*
X213291791Y-143373320D01*
X213291791Y-143373320D02*
X213482267Y-143373320D01*
X213482267Y-143373320D02*
X213577505Y-143420939D01*
X213148934Y-143992368D02*
X213244172Y-144039987D01*
X213244172Y-144039987D02*
X213482267Y-144039987D01*
X213482267Y-144039987D02*
X213577505Y-143992368D01*
X213577505Y-143992368D02*
X213625124Y-143897129D01*
X213625124Y-143897129D02*
X213625124Y-143801891D01*
X213625124Y-143801891D02*
X213577505Y-143706653D01*
X213577505Y-143706653D02*
X213482267Y-143659034D01*
X213482267Y-143659034D02*
X213244172Y-143659034D01*
X213244172Y-143659034D02*
X213148934Y-143611415D01*
X212815600Y-143373320D02*
X212434648Y-143373320D01*
X212672743Y-143039987D02*
X212672743Y-143897129D01*
X212672743Y-143897129D02*
X212625124Y-143992368D01*
X212625124Y-143992368D02*
X212529886Y-144039987D01*
X212529886Y-144039987D02*
X212434648Y-144039987D01*
X212101314Y-144039987D02*
X212101314Y-143373320D01*
X212101314Y-143039987D02*
X212148933Y-143087606D01*
X212148933Y-143087606D02*
X212101314Y-143135225D01*
X212101314Y-143135225D02*
X212053695Y-143087606D01*
X212053695Y-143087606D02*
X212101314Y-143039987D01*
X212101314Y-143039987D02*
X212101314Y-143135225D01*
X211196553Y-143992368D02*
X211291791Y-144039987D01*
X211291791Y-144039987D02*
X211482267Y-144039987D01*
X211482267Y-144039987D02*
X211577505Y-143992368D01*
X211577505Y-143992368D02*
X211625124Y-143944748D01*
X211625124Y-143944748D02*
X211672743Y-143849510D01*
X211672743Y-143849510D02*
X211672743Y-143563796D01*
X211672743Y-143563796D02*
X211625124Y-143468558D01*
X211625124Y-143468558D02*
X211577505Y-143420939D01*
X211577505Y-143420939D02*
X211482267Y-143373320D01*
X211482267Y-143373320D02*
X211291791Y-143373320D01*
X211291791Y-143373320D02*
X211196553Y-143420939D01*
X210815600Y-143992368D02*
X210720362Y-144039987D01*
X210720362Y-144039987D02*
X210529886Y-144039987D01*
X210529886Y-144039987D02*
X210434648Y-143992368D01*
X210434648Y-143992368D02*
X210387029Y-143897129D01*
X210387029Y-143897129D02*
X210387029Y-143849510D01*
X210387029Y-143849510D02*
X210434648Y-143754272D01*
X210434648Y-143754272D02*
X210529886Y-143706653D01*
X210529886Y-143706653D02*
X210672743Y-143706653D01*
X210672743Y-143706653D02*
X210767981Y-143659034D01*
X210767981Y-143659034D02*
X210815600Y-143563796D01*
X210815600Y-143563796D02*
X210815600Y-143516177D01*
X210815600Y-143516177D02*
X210767981Y-143420939D01*
X210767981Y-143420939D02*
X210672743Y-143373320D01*
X210672743Y-143373320D02*
X210529886Y-143373320D01*
X210529886Y-143373320D02*
X210434648Y-143420939D01*
X208672743Y-143087606D02*
X208767981Y-143039987D01*
X208767981Y-143039987D02*
X208910838Y-143039987D01*
X208910838Y-143039987D02*
X209053695Y-143087606D01*
X209053695Y-143087606D02*
X209148933Y-143182844D01*
X209148933Y-143182844D02*
X209196552Y-143278082D01*
X209196552Y-143278082D02*
X209244171Y-143468558D01*
X209244171Y-143468558D02*
X209244171Y-143611415D01*
X209244171Y-143611415D02*
X209196552Y-143801891D01*
X209196552Y-143801891D02*
X209148933Y-143897129D01*
X209148933Y-143897129D02*
X209053695Y-143992368D01*
X209053695Y-143992368D02*
X208910838Y-144039987D01*
X208910838Y-144039987D02*
X208815600Y-144039987D01*
X208815600Y-144039987D02*
X208672743Y-143992368D01*
X208672743Y-143992368D02*
X208625124Y-143944748D01*
X208625124Y-143944748D02*
X208625124Y-143611415D01*
X208625124Y-143611415D02*
X208815600Y-143611415D01*
X208196552Y-144039987D02*
X208196552Y-143373320D01*
X208196552Y-143563796D02*
X208148933Y-143468558D01*
X208148933Y-143468558D02*
X208101314Y-143420939D01*
X208101314Y-143420939D02*
X208006076Y-143373320D01*
X208006076Y-143373320D02*
X207910838Y-143373320D01*
X207434647Y-144039987D02*
X207529885Y-143992368D01*
X207529885Y-143992368D02*
X207577504Y-143944748D01*
X207577504Y-143944748D02*
X207625123Y-143849510D01*
X207625123Y-143849510D02*
X207625123Y-143563796D01*
X207625123Y-143563796D02*
X207577504Y-143468558D01*
X207577504Y-143468558D02*
X207529885Y-143420939D01*
X207529885Y-143420939D02*
X207434647Y-143373320D01*
X207434647Y-143373320D02*
X207291790Y-143373320D01*
X207291790Y-143373320D02*
X207196552Y-143420939D01*
X207196552Y-143420939D02*
X207148933Y-143468558D01*
X207148933Y-143468558D02*
X207101314Y-143563796D01*
X207101314Y-143563796D02*
X207101314Y-143849510D01*
X207101314Y-143849510D02*
X207148933Y-143944748D01*
X207148933Y-143944748D02*
X207196552Y-143992368D01*
X207196552Y-143992368D02*
X207291790Y-144039987D01*
X207291790Y-144039987D02*
X207434647Y-144039987D01*
X206244171Y-143373320D02*
X206244171Y-144039987D01*
X206672742Y-143373320D02*
X206672742Y-143897129D01*
X206672742Y-143897129D02*
X206625123Y-143992368D01*
X206625123Y-143992368D02*
X206529885Y-144039987D01*
X206529885Y-144039987D02*
X206387028Y-144039987D01*
X206387028Y-144039987D02*
X206291790Y-143992368D01*
X206291790Y-143992368D02*
X206244171Y-143944748D01*
X205767980Y-143373320D02*
X205767980Y-144373320D01*
X205767980Y-143420939D02*
X205672742Y-143373320D01*
X205672742Y-143373320D02*
X205482266Y-143373320D01*
X205482266Y-143373320D02*
X205387028Y-143420939D01*
X205387028Y-143420939D02*
X205339409Y-143468558D01*
X205339409Y-143468558D02*
X205291790Y-143563796D01*
X205291790Y-143563796D02*
X205291790Y-143849510D01*
X205291790Y-143849510D02*
X205339409Y-143944748D01*
X205339409Y-143944748D02*
X205387028Y-143992368D01*
X205387028Y-143992368D02*
X205482266Y-144039987D01*
X205482266Y-144039987D02*
X205672742Y-144039987D01*
X205672742Y-144039987D02*
X205767980Y-143992368D01*
X227910839Y-145602312D02*
X227767982Y-145649931D01*
X227767982Y-145649931D02*
X227529887Y-145649931D01*
X227529887Y-145649931D02*
X227434649Y-145602312D01*
X227434649Y-145602312D02*
X227387030Y-145554692D01*
X227387030Y-145554692D02*
X227339411Y-145459454D01*
X227339411Y-145459454D02*
X227339411Y-145364216D01*
X227339411Y-145364216D02*
X227387030Y-145268978D01*
X227387030Y-145268978D02*
X227434649Y-145221359D01*
X227434649Y-145221359D02*
X227529887Y-145173740D01*
X227529887Y-145173740D02*
X227720363Y-145126121D01*
X227720363Y-145126121D02*
X227815601Y-145078502D01*
X227815601Y-145078502D02*
X227863220Y-145030883D01*
X227863220Y-145030883D02*
X227910839Y-144935645D01*
X227910839Y-144935645D02*
X227910839Y-144840407D01*
X227910839Y-144840407D02*
X227863220Y-144745169D01*
X227863220Y-144745169D02*
X227815601Y-144697550D01*
X227815601Y-144697550D02*
X227720363Y-144649931D01*
X227720363Y-144649931D02*
X227482268Y-144649931D01*
X227482268Y-144649931D02*
X227339411Y-144697550D01*
X227053696Y-144983264D02*
X226672744Y-144983264D01*
X226910839Y-144649931D02*
X226910839Y-145507073D01*
X226910839Y-145507073D02*
X226863220Y-145602312D01*
X226863220Y-145602312D02*
X226767982Y-145649931D01*
X226767982Y-145649931D02*
X226672744Y-145649931D01*
X225910839Y-145649931D02*
X225910839Y-145126121D01*
X225910839Y-145126121D02*
X225958458Y-145030883D01*
X225958458Y-145030883D02*
X226053696Y-144983264D01*
X226053696Y-144983264D02*
X226244172Y-144983264D01*
X226244172Y-144983264D02*
X226339410Y-145030883D01*
X225910839Y-145602312D02*
X226006077Y-145649931D01*
X226006077Y-145649931D02*
X226244172Y-145649931D01*
X226244172Y-145649931D02*
X226339410Y-145602312D01*
X226339410Y-145602312D02*
X226387029Y-145507073D01*
X226387029Y-145507073D02*
X226387029Y-145411835D01*
X226387029Y-145411835D02*
X226339410Y-145316597D01*
X226339410Y-145316597D02*
X226244172Y-145268978D01*
X226244172Y-145268978D02*
X226006077Y-145268978D01*
X226006077Y-145268978D02*
X225910839Y-145221359D01*
X225434648Y-144983264D02*
X225434648Y-145649931D01*
X225434648Y-145078502D02*
X225387029Y-145030883D01*
X225387029Y-145030883D02*
X225291791Y-144983264D01*
X225291791Y-144983264D02*
X225148934Y-144983264D01*
X225148934Y-144983264D02*
X225053696Y-145030883D01*
X225053696Y-145030883D02*
X225006077Y-145126121D01*
X225006077Y-145126121D02*
X225006077Y-145649931D01*
X224672743Y-144983264D02*
X224291791Y-144983264D01*
X224529886Y-145649931D02*
X224529886Y-144792788D01*
X224529886Y-144792788D02*
X224482267Y-144697550D01*
X224482267Y-144697550D02*
X224387029Y-144649931D01*
X224387029Y-144649931D02*
X224291791Y-144649931D01*
X223815600Y-145649931D02*
X223910838Y-145602312D01*
X223910838Y-145602312D02*
X223958457Y-145554692D01*
X223958457Y-145554692D02*
X224006076Y-145459454D01*
X224006076Y-145459454D02*
X224006076Y-145173740D01*
X224006076Y-145173740D02*
X223958457Y-145078502D01*
X223958457Y-145078502D02*
X223910838Y-145030883D01*
X223910838Y-145030883D02*
X223815600Y-144983264D01*
X223815600Y-144983264D02*
X223672743Y-144983264D01*
X223672743Y-144983264D02*
X223577505Y-145030883D01*
X223577505Y-145030883D02*
X223529886Y-145078502D01*
X223529886Y-145078502D02*
X223482267Y-145173740D01*
X223482267Y-145173740D02*
X223482267Y-145459454D01*
X223482267Y-145459454D02*
X223529886Y-145554692D01*
X223529886Y-145554692D02*
X223577505Y-145602312D01*
X223577505Y-145602312D02*
X223672743Y-145649931D01*
X223672743Y-145649931D02*
X223815600Y-145649931D01*
X223053695Y-145649931D02*
X223053695Y-144983264D01*
X223053695Y-145173740D02*
X223006076Y-145078502D01*
X223006076Y-145078502D02*
X222958457Y-145030883D01*
X222958457Y-145030883D02*
X222863219Y-144983264D01*
X222863219Y-144983264D02*
X222767981Y-144983264D01*
X222006076Y-145649931D02*
X222006076Y-144649931D01*
X222006076Y-145602312D02*
X222101314Y-145649931D01*
X222101314Y-145649931D02*
X222291790Y-145649931D01*
X222291790Y-145649931D02*
X222387028Y-145602312D01*
X222387028Y-145602312D02*
X222434647Y-145554692D01*
X222434647Y-145554692D02*
X222482266Y-145459454D01*
X222482266Y-145459454D02*
X222482266Y-145173740D01*
X222482266Y-145173740D02*
X222434647Y-145078502D01*
X222434647Y-145078502D02*
X222387028Y-145030883D01*
X222387028Y-145030883D02*
X222291790Y-144983264D01*
X222291790Y-144983264D02*
X222101314Y-144983264D01*
X222101314Y-144983264D02*
X222006076Y-145030883D01*
X220767980Y-144649931D02*
X220767980Y-145459454D01*
X220767980Y-145459454D02*
X220720361Y-145554692D01*
X220720361Y-145554692D02*
X220672742Y-145602312D01*
X220672742Y-145602312D02*
X220577504Y-145649931D01*
X220577504Y-145649931D02*
X220387028Y-145649931D01*
X220387028Y-145649931D02*
X220291790Y-145602312D01*
X220291790Y-145602312D02*
X220244171Y-145554692D01*
X220244171Y-145554692D02*
X220196552Y-145459454D01*
X220196552Y-145459454D02*
X220196552Y-144649931D01*
X219720361Y-144983264D02*
X219720361Y-145649931D01*
X219720361Y-145078502D02*
X219672742Y-145030883D01*
X219672742Y-145030883D02*
X219577504Y-144983264D01*
X219577504Y-144983264D02*
X219434647Y-144983264D01*
X219434647Y-144983264D02*
X219339409Y-145030883D01*
X219339409Y-145030883D02*
X219291790Y-145126121D01*
X219291790Y-145126121D02*
X219291790Y-145649931D01*
X218815599Y-145649931D02*
X218815599Y-144983264D01*
X218815599Y-144649931D02*
X218863218Y-144697550D01*
X218863218Y-144697550D02*
X218815599Y-144745169D01*
X218815599Y-144745169D02*
X218767980Y-144697550D01*
X218767980Y-144697550D02*
X218815599Y-144649931D01*
X218815599Y-144649931D02*
X218815599Y-144745169D01*
X218434647Y-144983264D02*
X218196552Y-145649931D01*
X218196552Y-145649931D02*
X217958457Y-144983264D01*
X217196552Y-145602312D02*
X217291790Y-145649931D01*
X217291790Y-145649931D02*
X217482266Y-145649931D01*
X217482266Y-145649931D02*
X217577504Y-145602312D01*
X217577504Y-145602312D02*
X217625123Y-145507073D01*
X217625123Y-145507073D02*
X217625123Y-145126121D01*
X217625123Y-145126121D02*
X217577504Y-145030883D01*
X217577504Y-145030883D02*
X217482266Y-144983264D01*
X217482266Y-144983264D02*
X217291790Y-144983264D01*
X217291790Y-144983264D02*
X217196552Y-145030883D01*
X217196552Y-145030883D02*
X217148933Y-145126121D01*
X217148933Y-145126121D02*
X217148933Y-145221359D01*
X217148933Y-145221359D02*
X217625123Y-145316597D01*
X216720361Y-145649931D02*
X216720361Y-144983264D01*
X216720361Y-145173740D02*
X216672742Y-145078502D01*
X216672742Y-145078502D02*
X216625123Y-145030883D01*
X216625123Y-145030883D02*
X216529885Y-144983264D01*
X216529885Y-144983264D02*
X216434647Y-144983264D01*
X216148932Y-145602312D02*
X216053694Y-145649931D01*
X216053694Y-145649931D02*
X215863218Y-145649931D01*
X215863218Y-145649931D02*
X215767980Y-145602312D01*
X215767980Y-145602312D02*
X215720361Y-145507073D01*
X215720361Y-145507073D02*
X215720361Y-145459454D01*
X215720361Y-145459454D02*
X215767980Y-145364216D01*
X215767980Y-145364216D02*
X215863218Y-145316597D01*
X215863218Y-145316597D02*
X216006075Y-145316597D01*
X216006075Y-145316597D02*
X216101313Y-145268978D01*
X216101313Y-145268978D02*
X216148932Y-145173740D01*
X216148932Y-145173740D02*
X216148932Y-145126121D01*
X216148932Y-145126121D02*
X216101313Y-145030883D01*
X216101313Y-145030883D02*
X216006075Y-144983264D01*
X216006075Y-144983264D02*
X215863218Y-144983264D01*
X215863218Y-144983264D02*
X215767980Y-145030883D01*
X215291789Y-145649931D02*
X215291789Y-144983264D01*
X215291789Y-144649931D02*
X215339408Y-144697550D01*
X215339408Y-144697550D02*
X215291789Y-144745169D01*
X215291789Y-144745169D02*
X215244170Y-144697550D01*
X215244170Y-144697550D02*
X215291789Y-144649931D01*
X215291789Y-144649931D02*
X215291789Y-144745169D01*
X214958456Y-144983264D02*
X214577504Y-144983264D01*
X214815599Y-144649931D02*
X214815599Y-145507073D01*
X214815599Y-145507073D02*
X214767980Y-145602312D01*
X214767980Y-145602312D02*
X214672742Y-145649931D01*
X214672742Y-145649931D02*
X214577504Y-145649931D01*
X214339408Y-144983264D02*
X214101313Y-145649931D01*
X213863218Y-144983264D02*
X214101313Y-145649931D01*
X214101313Y-145649931D02*
X214196551Y-145888026D01*
X214196551Y-145888026D02*
X214244170Y-145935645D01*
X214244170Y-145935645D02*
X214339408Y-145983264D01*
X227291792Y-147259875D02*
X227625125Y-146783684D01*
X227863220Y-147259875D02*
X227863220Y-146259875D01*
X227863220Y-146259875D02*
X227482268Y-146259875D01*
X227482268Y-146259875D02*
X227387030Y-146307494D01*
X227387030Y-146307494D02*
X227339411Y-146355113D01*
X227339411Y-146355113D02*
X227291792Y-146450351D01*
X227291792Y-146450351D02*
X227291792Y-146593208D01*
X227291792Y-146593208D02*
X227339411Y-146688446D01*
X227339411Y-146688446D02*
X227387030Y-146736065D01*
X227387030Y-146736065D02*
X227482268Y-146783684D01*
X227482268Y-146783684D02*
X227863220Y-146783684D01*
X226720363Y-147259875D02*
X226815601Y-147212256D01*
X226815601Y-147212256D02*
X226863220Y-147164636D01*
X226863220Y-147164636D02*
X226910839Y-147069398D01*
X226910839Y-147069398D02*
X226910839Y-146783684D01*
X226910839Y-146783684D02*
X226863220Y-146688446D01*
X226863220Y-146688446D02*
X226815601Y-146640827D01*
X226815601Y-146640827D02*
X226720363Y-146593208D01*
X226720363Y-146593208D02*
X226577506Y-146593208D01*
X226577506Y-146593208D02*
X226482268Y-146640827D01*
X226482268Y-146640827D02*
X226434649Y-146688446D01*
X226434649Y-146688446D02*
X226387030Y-146783684D01*
X226387030Y-146783684D02*
X226387030Y-147069398D01*
X226387030Y-147069398D02*
X226434649Y-147164636D01*
X226434649Y-147164636D02*
X226482268Y-147212256D01*
X226482268Y-147212256D02*
X226577506Y-147259875D01*
X226577506Y-147259875D02*
X226720363Y-147259875D01*
X225958458Y-147259875D02*
X225958458Y-146259875D01*
X225958458Y-146640827D02*
X225863220Y-146593208D01*
X225863220Y-146593208D02*
X225672744Y-146593208D01*
X225672744Y-146593208D02*
X225577506Y-146640827D01*
X225577506Y-146640827D02*
X225529887Y-146688446D01*
X225529887Y-146688446D02*
X225482268Y-146783684D01*
X225482268Y-146783684D02*
X225482268Y-147069398D01*
X225482268Y-147069398D02*
X225529887Y-147164636D01*
X225529887Y-147164636D02*
X225577506Y-147212256D01*
X225577506Y-147212256D02*
X225672744Y-147259875D01*
X225672744Y-147259875D02*
X225863220Y-147259875D01*
X225863220Y-147259875D02*
X225958458Y-147212256D01*
X224910839Y-147259875D02*
X225006077Y-147212256D01*
X225006077Y-147212256D02*
X225053696Y-147164636D01*
X225053696Y-147164636D02*
X225101315Y-147069398D01*
X225101315Y-147069398D02*
X225101315Y-146783684D01*
X225101315Y-146783684D02*
X225053696Y-146688446D01*
X225053696Y-146688446D02*
X225006077Y-146640827D01*
X225006077Y-146640827D02*
X224910839Y-146593208D01*
X224910839Y-146593208D02*
X224767982Y-146593208D01*
X224767982Y-146593208D02*
X224672744Y-146640827D01*
X224672744Y-146640827D02*
X224625125Y-146688446D01*
X224625125Y-146688446D02*
X224577506Y-146783684D01*
X224577506Y-146783684D02*
X224577506Y-147069398D01*
X224577506Y-147069398D02*
X224625125Y-147164636D01*
X224625125Y-147164636D02*
X224672744Y-147212256D01*
X224672744Y-147212256D02*
X224767982Y-147259875D01*
X224767982Y-147259875D02*
X224910839Y-147259875D01*
X224291791Y-146593208D02*
X223910839Y-146593208D01*
X224148934Y-146259875D02*
X224148934Y-147117017D01*
X224148934Y-147117017D02*
X224101315Y-147212256D01*
X224101315Y-147212256D02*
X224006077Y-147259875D01*
X224006077Y-147259875D02*
X223910839Y-147259875D01*
X222244172Y-147164636D02*
X222291791Y-147212256D01*
X222291791Y-147212256D02*
X222434648Y-147259875D01*
X222434648Y-147259875D02*
X222529886Y-147259875D01*
X222529886Y-147259875D02*
X222672743Y-147212256D01*
X222672743Y-147212256D02*
X222767981Y-147117017D01*
X222767981Y-147117017D02*
X222815600Y-147021779D01*
X222815600Y-147021779D02*
X222863219Y-146831303D01*
X222863219Y-146831303D02*
X222863219Y-146688446D01*
X222863219Y-146688446D02*
X222815600Y-146497970D01*
X222815600Y-146497970D02*
X222767981Y-146402732D01*
X222767981Y-146402732D02*
X222672743Y-146307494D01*
X222672743Y-146307494D02*
X222529886Y-146259875D01*
X222529886Y-146259875D02*
X222434648Y-146259875D01*
X222434648Y-146259875D02*
X222291791Y-146307494D01*
X222291791Y-146307494D02*
X222244172Y-146355113D01*
X221672743Y-147259875D02*
X221767981Y-147212256D01*
X221767981Y-147212256D02*
X221815600Y-147164636D01*
X221815600Y-147164636D02*
X221863219Y-147069398D01*
X221863219Y-147069398D02*
X221863219Y-146783684D01*
X221863219Y-146783684D02*
X221815600Y-146688446D01*
X221815600Y-146688446D02*
X221767981Y-146640827D01*
X221767981Y-146640827D02*
X221672743Y-146593208D01*
X221672743Y-146593208D02*
X221529886Y-146593208D01*
X221529886Y-146593208D02*
X221434648Y-146640827D01*
X221434648Y-146640827D02*
X221387029Y-146688446D01*
X221387029Y-146688446D02*
X221339410Y-146783684D01*
X221339410Y-146783684D02*
X221339410Y-147069398D01*
X221339410Y-147069398D02*
X221387029Y-147164636D01*
X221387029Y-147164636D02*
X221434648Y-147212256D01*
X221434648Y-147212256D02*
X221529886Y-147259875D01*
X221529886Y-147259875D02*
X221672743Y-147259875D01*
X220910838Y-146593208D02*
X220910838Y-147259875D01*
X220910838Y-146688446D02*
X220863219Y-146640827D01*
X220863219Y-146640827D02*
X220767981Y-146593208D01*
X220767981Y-146593208D02*
X220625124Y-146593208D01*
X220625124Y-146593208D02*
X220529886Y-146640827D01*
X220529886Y-146640827D02*
X220482267Y-146736065D01*
X220482267Y-146736065D02*
X220482267Y-147259875D01*
X220148933Y-146593208D02*
X219767981Y-146593208D01*
X220006076Y-146259875D02*
X220006076Y-147117017D01*
X220006076Y-147117017D02*
X219958457Y-147212256D01*
X219958457Y-147212256D02*
X219863219Y-147259875D01*
X219863219Y-147259875D02*
X219767981Y-147259875D01*
X219434647Y-147259875D02*
X219434647Y-146593208D01*
X219434647Y-146783684D02*
X219387028Y-146688446D01*
X219387028Y-146688446D02*
X219339409Y-146640827D01*
X219339409Y-146640827D02*
X219244171Y-146593208D01*
X219244171Y-146593208D02*
X219148933Y-146593208D01*
X218672742Y-147259875D02*
X218767980Y-147212256D01*
X218767980Y-147212256D02*
X218815599Y-147164636D01*
X218815599Y-147164636D02*
X218863218Y-147069398D01*
X218863218Y-147069398D02*
X218863218Y-146783684D01*
X218863218Y-146783684D02*
X218815599Y-146688446D01*
X218815599Y-146688446D02*
X218767980Y-146640827D01*
X218767980Y-146640827D02*
X218672742Y-146593208D01*
X218672742Y-146593208D02*
X218529885Y-146593208D01*
X218529885Y-146593208D02*
X218434647Y-146640827D01*
X218434647Y-146640827D02*
X218387028Y-146688446D01*
X218387028Y-146688446D02*
X218339409Y-146783684D01*
X218339409Y-146783684D02*
X218339409Y-147069398D01*
X218339409Y-147069398D02*
X218387028Y-147164636D01*
X218387028Y-147164636D02*
X218434647Y-147212256D01*
X218434647Y-147212256D02*
X218529885Y-147259875D01*
X218529885Y-147259875D02*
X218672742Y-147259875D01*
X217767980Y-147259875D02*
X217863218Y-147212256D01*
X217863218Y-147212256D02*
X217910837Y-147117017D01*
X217910837Y-147117017D02*
X217910837Y-146259875D01*
X216291789Y-146736065D02*
X216148932Y-146783684D01*
X216148932Y-146783684D02*
X216101313Y-146831303D01*
X216101313Y-146831303D02*
X216053694Y-146926541D01*
X216053694Y-146926541D02*
X216053694Y-147069398D01*
X216053694Y-147069398D02*
X216101313Y-147164636D01*
X216101313Y-147164636D02*
X216148932Y-147212256D01*
X216148932Y-147212256D02*
X216244170Y-147259875D01*
X216244170Y-147259875D02*
X216625122Y-147259875D01*
X216625122Y-147259875D02*
X216625122Y-146259875D01*
X216625122Y-146259875D02*
X216291789Y-146259875D01*
X216291789Y-146259875D02*
X216196551Y-146307494D01*
X216196551Y-146307494D02*
X216148932Y-146355113D01*
X216148932Y-146355113D02*
X216101313Y-146450351D01*
X216101313Y-146450351D02*
X216101313Y-146545589D01*
X216101313Y-146545589D02*
X216148932Y-146640827D01*
X216148932Y-146640827D02*
X216196551Y-146688446D01*
X216196551Y-146688446D02*
X216291789Y-146736065D01*
X216291789Y-146736065D02*
X216625122Y-146736065D01*
X215482265Y-147259875D02*
X215577503Y-147212256D01*
X215577503Y-147212256D02*
X215625122Y-147164636D01*
X215625122Y-147164636D02*
X215672741Y-147069398D01*
X215672741Y-147069398D02*
X215672741Y-146783684D01*
X215672741Y-146783684D02*
X215625122Y-146688446D01*
X215625122Y-146688446D02*
X215577503Y-146640827D01*
X215577503Y-146640827D02*
X215482265Y-146593208D01*
X215482265Y-146593208D02*
X215339408Y-146593208D01*
X215339408Y-146593208D02*
X215244170Y-146640827D01*
X215244170Y-146640827D02*
X215196551Y-146688446D01*
X215196551Y-146688446D02*
X215148932Y-146783684D01*
X215148932Y-146783684D02*
X215148932Y-147069398D01*
X215148932Y-147069398D02*
X215196551Y-147164636D01*
X215196551Y-147164636D02*
X215244170Y-147212256D01*
X215244170Y-147212256D02*
X215339408Y-147259875D01*
X215339408Y-147259875D02*
X215482265Y-147259875D01*
X214291789Y-147259875D02*
X214291789Y-146736065D01*
X214291789Y-146736065D02*
X214339408Y-146640827D01*
X214339408Y-146640827D02*
X214434646Y-146593208D01*
X214434646Y-146593208D02*
X214625122Y-146593208D01*
X214625122Y-146593208D02*
X214720360Y-146640827D01*
X214291789Y-147212256D02*
X214387027Y-147259875D01*
X214387027Y-147259875D02*
X214625122Y-147259875D01*
X214625122Y-147259875D02*
X214720360Y-147212256D01*
X214720360Y-147212256D02*
X214767979Y-147117017D01*
X214767979Y-147117017D02*
X214767979Y-147021779D01*
X214767979Y-147021779D02*
X214720360Y-146926541D01*
X214720360Y-146926541D02*
X214625122Y-146878922D01*
X214625122Y-146878922D02*
X214387027Y-146878922D01*
X214387027Y-146878922D02*
X214291789Y-146831303D01*
X213815598Y-147259875D02*
X213815598Y-146593208D01*
X213815598Y-146783684D02*
X213767979Y-146688446D01*
X213767979Y-146688446D02*
X213720360Y-146640827D01*
X213720360Y-146640827D02*
X213625122Y-146593208D01*
X213625122Y-146593208D02*
X213529884Y-146593208D01*
X212767979Y-147259875D02*
X212767979Y-146259875D01*
X212767979Y-147212256D02*
X212863217Y-147259875D01*
X212863217Y-147259875D02*
X213053693Y-147259875D01*
X213053693Y-147259875D02*
X213148931Y-147212256D01*
X213148931Y-147212256D02*
X213196550Y-147164636D01*
X213196550Y-147164636D02*
X213244169Y-147069398D01*
X213244169Y-147069398D02*
X213244169Y-146783684D01*
X213244169Y-146783684D02*
X213196550Y-146688446D01*
X213196550Y-146688446D02*
X213148931Y-146640827D01*
X213148931Y-146640827D02*
X213053693Y-146593208D01*
X213053693Y-146593208D02*
X212863217Y-146593208D01*
X212863217Y-146593208D02*
X212767979Y-146640827D01*
X212244169Y-147212256D02*
X212244169Y-147259875D01*
X212244169Y-147259875D02*
X212291788Y-147355113D01*
X212291788Y-147355113D02*
X212339407Y-147402732D01*
X210482265Y-147259875D02*
X210815598Y-146783684D01*
X211053693Y-147259875D02*
X211053693Y-146259875D01*
X211053693Y-146259875D02*
X210672741Y-146259875D01*
X210672741Y-146259875D02*
X210577503Y-146307494D01*
X210577503Y-146307494D02*
X210529884Y-146355113D01*
X210529884Y-146355113D02*
X210482265Y-146450351D01*
X210482265Y-146450351D02*
X210482265Y-146593208D01*
X210482265Y-146593208D02*
X210529884Y-146688446D01*
X210529884Y-146688446D02*
X210577503Y-146736065D01*
X210577503Y-146736065D02*
X210672741Y-146783684D01*
X210672741Y-146783684D02*
X211053693Y-146783684D01*
X209672741Y-147212256D02*
X209767979Y-147259875D01*
X209767979Y-147259875D02*
X209958455Y-147259875D01*
X209958455Y-147259875D02*
X210053693Y-147212256D01*
X210053693Y-147212256D02*
X210101312Y-147117017D01*
X210101312Y-147117017D02*
X210101312Y-146736065D01*
X210101312Y-146736065D02*
X210053693Y-146640827D01*
X210053693Y-146640827D02*
X209958455Y-146593208D01*
X209958455Y-146593208D02*
X209767979Y-146593208D01*
X209767979Y-146593208D02*
X209672741Y-146640827D01*
X209672741Y-146640827D02*
X209625122Y-146736065D01*
X209625122Y-146736065D02*
X209625122Y-146831303D01*
X209625122Y-146831303D02*
X210101312Y-146926541D01*
X209291788Y-146593208D02*
X209053693Y-147259875D01*
X209053693Y-147259875D02*
X208815598Y-146593208D01*
X207482264Y-146259875D02*
X207387026Y-146259875D01*
X207387026Y-146259875D02*
X207291788Y-146307494D01*
X207291788Y-146307494D02*
X207244169Y-146355113D01*
X207244169Y-146355113D02*
X207196550Y-146450351D01*
X207196550Y-146450351D02*
X207148931Y-146640827D01*
X207148931Y-146640827D02*
X207148931Y-146878922D01*
X207148931Y-146878922D02*
X207196550Y-147069398D01*
X207196550Y-147069398D02*
X207244169Y-147164636D01*
X207244169Y-147164636D02*
X207291788Y-147212256D01*
X207291788Y-147212256D02*
X207387026Y-147259875D01*
X207387026Y-147259875D02*
X207482264Y-147259875D01*
X207482264Y-147259875D02*
X207577502Y-147212256D01*
X207577502Y-147212256D02*
X207625121Y-147164636D01*
X207625121Y-147164636D02*
X207672740Y-147069398D01*
X207672740Y-147069398D02*
X207720359Y-146878922D01*
X207720359Y-146878922D02*
X207720359Y-146640827D01*
X207720359Y-146640827D02*
X207672740Y-146450351D01*
X207672740Y-146450351D02*
X207625121Y-146355113D01*
X207625121Y-146355113D02*
X207577502Y-146307494D01*
X207577502Y-146307494D02*
X207482264Y-146259875D01*
X206720359Y-147164636D02*
X206672740Y-147212256D01*
X206672740Y-147212256D02*
X206720359Y-147259875D01*
X206720359Y-147259875D02*
X206767978Y-147212256D01*
X206767978Y-147212256D02*
X206720359Y-147164636D01*
X206720359Y-147164636D02*
X206720359Y-147259875D01*
X205815598Y-146593208D02*
X205815598Y-147259875D01*
X206053693Y-146212256D02*
X206291788Y-146926541D01*
X206291788Y-146926541D02*
X205672741Y-146926541D01*
X227910839Y-148822200D02*
X227767982Y-148869819D01*
X227767982Y-148869819D02*
X227529887Y-148869819D01*
X227529887Y-148869819D02*
X227434649Y-148822200D01*
X227434649Y-148822200D02*
X227387030Y-148774580D01*
X227387030Y-148774580D02*
X227339411Y-148679342D01*
X227339411Y-148679342D02*
X227339411Y-148584104D01*
X227339411Y-148584104D02*
X227387030Y-148488866D01*
X227387030Y-148488866D02*
X227434649Y-148441247D01*
X227434649Y-148441247D02*
X227529887Y-148393628D01*
X227529887Y-148393628D02*
X227720363Y-148346009D01*
X227720363Y-148346009D02*
X227815601Y-148298390D01*
X227815601Y-148298390D02*
X227863220Y-148250771D01*
X227863220Y-148250771D02*
X227910839Y-148155533D01*
X227910839Y-148155533D02*
X227910839Y-148060295D01*
X227910839Y-148060295D02*
X227863220Y-147965057D01*
X227863220Y-147965057D02*
X227815601Y-147917438D01*
X227815601Y-147917438D02*
X227720363Y-147869819D01*
X227720363Y-147869819D02*
X227482268Y-147869819D01*
X227482268Y-147869819D02*
X227339411Y-147917438D01*
X226482268Y-148822200D02*
X226577506Y-148869819D01*
X226577506Y-148869819D02*
X226767982Y-148869819D01*
X226767982Y-148869819D02*
X226863220Y-148822200D01*
X226863220Y-148822200D02*
X226910839Y-148774580D01*
X226910839Y-148774580D02*
X226958458Y-148679342D01*
X226958458Y-148679342D02*
X226958458Y-148393628D01*
X226958458Y-148393628D02*
X226910839Y-148298390D01*
X226910839Y-148298390D02*
X226863220Y-148250771D01*
X226863220Y-148250771D02*
X226767982Y-148203152D01*
X226767982Y-148203152D02*
X226577506Y-148203152D01*
X226577506Y-148203152D02*
X226482268Y-148250771D01*
X226053696Y-148869819D02*
X226053696Y-147869819D01*
X225625125Y-148869819D02*
X225625125Y-148346009D01*
X225625125Y-148346009D02*
X225672744Y-148250771D01*
X225672744Y-148250771D02*
X225767982Y-148203152D01*
X225767982Y-148203152D02*
X225910839Y-148203152D01*
X225910839Y-148203152D02*
X226006077Y-148250771D01*
X226006077Y-148250771D02*
X226053696Y-148298390D01*
X224767982Y-148822200D02*
X224863220Y-148869819D01*
X224863220Y-148869819D02*
X225053696Y-148869819D01*
X225053696Y-148869819D02*
X225148934Y-148822200D01*
X225148934Y-148822200D02*
X225196553Y-148726961D01*
X225196553Y-148726961D02*
X225196553Y-148346009D01*
X225196553Y-148346009D02*
X225148934Y-148250771D01*
X225148934Y-148250771D02*
X225053696Y-148203152D01*
X225053696Y-148203152D02*
X224863220Y-148203152D01*
X224863220Y-148203152D02*
X224767982Y-148250771D01*
X224767982Y-148250771D02*
X224720363Y-148346009D01*
X224720363Y-148346009D02*
X224720363Y-148441247D01*
X224720363Y-148441247D02*
X225196553Y-148536485D01*
X224291791Y-148869819D02*
X224291791Y-148203152D01*
X224291791Y-148298390D02*
X224244172Y-148250771D01*
X224244172Y-148250771D02*
X224148934Y-148203152D01*
X224148934Y-148203152D02*
X224006077Y-148203152D01*
X224006077Y-148203152D02*
X223910839Y-148250771D01*
X223910839Y-148250771D02*
X223863220Y-148346009D01*
X223863220Y-148346009D02*
X223863220Y-148869819D01*
X223863220Y-148346009D02*
X223815601Y-148250771D01*
X223815601Y-148250771D02*
X223720363Y-148203152D01*
X223720363Y-148203152D02*
X223577506Y-148203152D01*
X223577506Y-148203152D02*
X223482267Y-148250771D01*
X223482267Y-148250771D02*
X223434648Y-148346009D01*
X223434648Y-148346009D02*
X223434648Y-148869819D01*
X222529887Y-148869819D02*
X222529887Y-148346009D01*
X222529887Y-148346009D02*
X222577506Y-148250771D01*
X222577506Y-148250771D02*
X222672744Y-148203152D01*
X222672744Y-148203152D02*
X222863220Y-148203152D01*
X222863220Y-148203152D02*
X222958458Y-148250771D01*
X222529887Y-148822200D02*
X222625125Y-148869819D01*
X222625125Y-148869819D02*
X222863220Y-148869819D01*
X222863220Y-148869819D02*
X222958458Y-148822200D01*
X222958458Y-148822200D02*
X223006077Y-148726961D01*
X223006077Y-148726961D02*
X223006077Y-148631723D01*
X223006077Y-148631723D02*
X222958458Y-148536485D01*
X222958458Y-148536485D02*
X222863220Y-148488866D01*
X222863220Y-148488866D02*
X222625125Y-148488866D01*
X222625125Y-148488866D02*
X222529887Y-148441247D01*
X222196553Y-148203152D02*
X221815601Y-148203152D01*
X222053696Y-147869819D02*
X222053696Y-148726961D01*
X222053696Y-148726961D02*
X222006077Y-148822200D01*
X222006077Y-148822200D02*
X221910839Y-148869819D01*
X221910839Y-148869819D02*
X221815601Y-148869819D01*
X221482267Y-148869819D02*
X221482267Y-148203152D01*
X221482267Y-147869819D02*
X221529886Y-147917438D01*
X221529886Y-147917438D02*
X221482267Y-147965057D01*
X221482267Y-147965057D02*
X221434648Y-147917438D01*
X221434648Y-147917438D02*
X221482267Y-147869819D01*
X221482267Y-147869819D02*
X221482267Y-147965057D01*
X220577506Y-148822200D02*
X220672744Y-148869819D01*
X220672744Y-148869819D02*
X220863220Y-148869819D01*
X220863220Y-148869819D02*
X220958458Y-148822200D01*
X220958458Y-148822200D02*
X221006077Y-148774580D01*
X221006077Y-148774580D02*
X221053696Y-148679342D01*
X221053696Y-148679342D02*
X221053696Y-148393628D01*
X221053696Y-148393628D02*
X221006077Y-148298390D01*
X221006077Y-148298390D02*
X220958458Y-148250771D01*
X220958458Y-148250771D02*
X220863220Y-148203152D01*
X220863220Y-148203152D02*
X220672744Y-148203152D01*
X220672744Y-148203152D02*
X220577506Y-148250771D01*
X219387029Y-148869819D02*
X219387029Y-147869819D01*
X219387029Y-147869819D02*
X219148934Y-147869819D01*
X219148934Y-147869819D02*
X219006077Y-147917438D01*
X219006077Y-147917438D02*
X218910839Y-148012676D01*
X218910839Y-148012676D02*
X218863220Y-148107914D01*
X218863220Y-148107914D02*
X218815601Y-148298390D01*
X218815601Y-148298390D02*
X218815601Y-148441247D01*
X218815601Y-148441247D02*
X218863220Y-148631723D01*
X218863220Y-148631723D02*
X218910839Y-148726961D01*
X218910839Y-148726961D02*
X219006077Y-148822200D01*
X219006077Y-148822200D02*
X219148934Y-148869819D01*
X219148934Y-148869819D02*
X219387029Y-148869819D01*
X218006077Y-148822200D02*
X218101315Y-148869819D01*
X218101315Y-148869819D02*
X218291791Y-148869819D01*
X218291791Y-148869819D02*
X218387029Y-148822200D01*
X218387029Y-148822200D02*
X218434648Y-148726961D01*
X218434648Y-148726961D02*
X218434648Y-148346009D01*
X218434648Y-148346009D02*
X218387029Y-148250771D01*
X218387029Y-148250771D02*
X218291791Y-148203152D01*
X218291791Y-148203152D02*
X218101315Y-148203152D01*
X218101315Y-148203152D02*
X218006077Y-148250771D01*
X218006077Y-148250771D02*
X217958458Y-148346009D01*
X217958458Y-148346009D02*
X217958458Y-148441247D01*
X217958458Y-148441247D02*
X218434648Y-148536485D01*
X217672743Y-148203152D02*
X217291791Y-148203152D01*
X217529886Y-147869819D02*
X217529886Y-148726961D01*
X217529886Y-148726961D02*
X217482267Y-148822200D01*
X217482267Y-148822200D02*
X217387029Y-148869819D01*
X217387029Y-148869819D02*
X217291791Y-148869819D01*
X216529886Y-148869819D02*
X216529886Y-148346009D01*
X216529886Y-148346009D02*
X216577505Y-148250771D01*
X216577505Y-148250771D02*
X216672743Y-148203152D01*
X216672743Y-148203152D02*
X216863219Y-148203152D01*
X216863219Y-148203152D02*
X216958457Y-148250771D01*
X216529886Y-148822200D02*
X216625124Y-148869819D01*
X216625124Y-148869819D02*
X216863219Y-148869819D01*
X216863219Y-148869819D02*
X216958457Y-148822200D01*
X216958457Y-148822200D02*
X217006076Y-148726961D01*
X217006076Y-148726961D02*
X217006076Y-148631723D01*
X217006076Y-148631723D02*
X216958457Y-148536485D01*
X216958457Y-148536485D02*
X216863219Y-148488866D01*
X216863219Y-148488866D02*
X216625124Y-148488866D01*
X216625124Y-148488866D02*
X216529886Y-148441247D01*
X216053695Y-148869819D02*
X216053695Y-148203152D01*
X216053695Y-147869819D02*
X216101314Y-147917438D01*
X216101314Y-147917438D02*
X216053695Y-147965057D01*
X216053695Y-147965057D02*
X216006076Y-147917438D01*
X216006076Y-147917438D02*
X216053695Y-147869819D01*
X216053695Y-147869819D02*
X216053695Y-147965057D01*
X215434648Y-148869819D02*
X215529886Y-148822200D01*
X215529886Y-148822200D02*
X215577505Y-148726961D01*
X215577505Y-148726961D02*
X215577505Y-147869819D01*
X215101314Y-148822200D02*
X215006076Y-148869819D01*
X215006076Y-148869819D02*
X214815600Y-148869819D01*
X214815600Y-148869819D02*
X214720362Y-148822200D01*
X214720362Y-148822200D02*
X214672743Y-148726961D01*
X214672743Y-148726961D02*
X214672743Y-148679342D01*
X214672743Y-148679342D02*
X214720362Y-148584104D01*
X214720362Y-148584104D02*
X214815600Y-148536485D01*
X214815600Y-148536485D02*
X214958457Y-148536485D01*
X214958457Y-148536485D02*
X215053695Y-148488866D01*
X215053695Y-148488866D02*
X215101314Y-148393628D01*
X215101314Y-148393628D02*
X215101314Y-148346009D01*
X215101314Y-148346009D02*
X215053695Y-148250771D01*
X215053695Y-148250771D02*
X214958457Y-148203152D01*
X214958457Y-148203152D02*
X214815600Y-148203152D01*
X214815600Y-148203152D02*
X214720362Y-148250771D01*
X214244171Y-148774580D02*
X214196552Y-148822200D01*
X214196552Y-148822200D02*
X214244171Y-148869819D01*
X214244171Y-148869819D02*
X214291790Y-148822200D01*
X214291790Y-148822200D02*
X214244171Y-148774580D01*
X214244171Y-148774580D02*
X214244171Y-148869819D01*
X214244171Y-148250771D02*
X214196552Y-148298390D01*
X214196552Y-148298390D02*
X214244171Y-148346009D01*
X214244171Y-148346009D02*
X214291790Y-148298390D01*
X214291790Y-148298390D02*
X214244171Y-148250771D01*
X214244171Y-148250771D02*
X214244171Y-148346009D01*
X213006076Y-148869819D02*
X213006076Y-147869819D01*
X212577505Y-148869819D02*
X212577505Y-148346009D01*
X212577505Y-148346009D02*
X212625124Y-148250771D01*
X212625124Y-148250771D02*
X212720362Y-148203152D01*
X212720362Y-148203152D02*
X212863219Y-148203152D01*
X212863219Y-148203152D02*
X212958457Y-148250771D01*
X212958457Y-148250771D02*
X213006076Y-148298390D01*
X212244171Y-148203152D02*
X211863219Y-148203152D01*
X212101314Y-147869819D02*
X212101314Y-148726961D01*
X212101314Y-148726961D02*
X212053695Y-148822200D01*
X212053695Y-148822200D02*
X211958457Y-148869819D01*
X211958457Y-148869819D02*
X211863219Y-148869819D01*
X211672742Y-148203152D02*
X211291790Y-148203152D01*
X211529885Y-147869819D02*
X211529885Y-148726961D01*
X211529885Y-148726961D02*
X211482266Y-148822200D01*
X211482266Y-148822200D02*
X211387028Y-148869819D01*
X211387028Y-148869819D02*
X211291790Y-148869819D01*
X210958456Y-148203152D02*
X210958456Y-149203152D01*
X210958456Y-148250771D02*
X210863218Y-148203152D01*
X210863218Y-148203152D02*
X210672742Y-148203152D01*
X210672742Y-148203152D02*
X210577504Y-148250771D01*
X210577504Y-148250771D02*
X210529885Y-148298390D01*
X210529885Y-148298390D02*
X210482266Y-148393628D01*
X210482266Y-148393628D02*
X210482266Y-148679342D01*
X210482266Y-148679342D02*
X210529885Y-148774580D01*
X210529885Y-148774580D02*
X210577504Y-148822200D01*
X210577504Y-148822200D02*
X210672742Y-148869819D01*
X210672742Y-148869819D02*
X210863218Y-148869819D01*
X210863218Y-148869819D02*
X210958456Y-148822200D01*
X210101313Y-148822200D02*
X210006075Y-148869819D01*
X210006075Y-148869819D02*
X209815599Y-148869819D01*
X209815599Y-148869819D02*
X209720361Y-148822200D01*
X209720361Y-148822200D02*
X209672742Y-148726961D01*
X209672742Y-148726961D02*
X209672742Y-148679342D01*
X209672742Y-148679342D02*
X209720361Y-148584104D01*
X209720361Y-148584104D02*
X209815599Y-148536485D01*
X209815599Y-148536485D02*
X209958456Y-148536485D01*
X209958456Y-148536485D02*
X210053694Y-148488866D01*
X210053694Y-148488866D02*
X210101313Y-148393628D01*
X210101313Y-148393628D02*
X210101313Y-148346009D01*
X210101313Y-148346009D02*
X210053694Y-148250771D01*
X210053694Y-148250771D02*
X209958456Y-148203152D01*
X209958456Y-148203152D02*
X209815599Y-148203152D01*
X209815599Y-148203152D02*
X209720361Y-148250771D01*
X209244170Y-148774580D02*
X209196551Y-148822200D01*
X209196551Y-148822200D02*
X209244170Y-148869819D01*
X209244170Y-148869819D02*
X209291789Y-148822200D01*
X209291789Y-148822200D02*
X209244170Y-148774580D01*
X209244170Y-148774580D02*
X209244170Y-148869819D01*
X209244170Y-148250771D02*
X209196551Y-148298390D01*
X209196551Y-148298390D02*
X209244170Y-148346009D01*
X209244170Y-148346009D02*
X209291789Y-148298390D01*
X209291789Y-148298390D02*
X209244170Y-148250771D01*
X209244170Y-148250771D02*
X209244170Y-148346009D01*
X208053695Y-147822200D02*
X208910837Y-149107914D01*
X207006076Y-147822200D02*
X207863218Y-149107914D01*
X206244171Y-148203152D02*
X206244171Y-149012676D01*
X206244171Y-149012676D02*
X206291790Y-149107914D01*
X206291790Y-149107914D02*
X206339409Y-149155533D01*
X206339409Y-149155533D02*
X206434647Y-149203152D01*
X206434647Y-149203152D02*
X206577504Y-149203152D01*
X206577504Y-149203152D02*
X206672742Y-149155533D01*
X206244171Y-148822200D02*
X206339409Y-148869819D01*
X206339409Y-148869819D02*
X206529885Y-148869819D01*
X206529885Y-148869819D02*
X206625123Y-148822200D01*
X206625123Y-148822200D02*
X206672742Y-148774580D01*
X206672742Y-148774580D02*
X206720361Y-148679342D01*
X206720361Y-148679342D02*
X206720361Y-148393628D01*
X206720361Y-148393628D02*
X206672742Y-148298390D01*
X206672742Y-148298390D02*
X206625123Y-148250771D01*
X206625123Y-148250771D02*
X206529885Y-148203152D01*
X206529885Y-148203152D02*
X206339409Y-148203152D01*
X206339409Y-148203152D02*
X206244171Y-148250771D01*
X205767980Y-148869819D02*
X205767980Y-148203152D01*
X205767980Y-147869819D02*
X205815599Y-147917438D01*
X205815599Y-147917438D02*
X205767980Y-147965057D01*
X205767980Y-147965057D02*
X205720361Y-147917438D01*
X205720361Y-147917438D02*
X205767980Y-147869819D01*
X205767980Y-147869819D02*
X205767980Y-147965057D01*
X205434647Y-148203152D02*
X205053695Y-148203152D01*
X205291790Y-147869819D02*
X205291790Y-148726961D01*
X205291790Y-148726961D02*
X205244171Y-148822200D01*
X205244171Y-148822200D02*
X205148933Y-148869819D01*
X205148933Y-148869819D02*
X205053695Y-148869819D01*
X204720361Y-148869819D02*
X204720361Y-147869819D01*
X204291790Y-148869819D02*
X204291790Y-148346009D01*
X204291790Y-148346009D02*
X204339409Y-148250771D01*
X204339409Y-148250771D02*
X204434647Y-148203152D01*
X204434647Y-148203152D02*
X204577504Y-148203152D01*
X204577504Y-148203152D02*
X204672742Y-148250771D01*
X204672742Y-148250771D02*
X204720361Y-148298390D01*
X203387028Y-148203152D02*
X203387028Y-148869819D01*
X203815599Y-148203152D02*
X203815599Y-148726961D01*
X203815599Y-148726961D02*
X203767980Y-148822200D01*
X203767980Y-148822200D02*
X203672742Y-148869819D01*
X203672742Y-148869819D02*
X203529885Y-148869819D01*
X203529885Y-148869819D02*
X203434647Y-148822200D01*
X203434647Y-148822200D02*
X203387028Y-148774580D01*
X202910837Y-148869819D02*
X202910837Y-147869819D01*
X202910837Y-148250771D02*
X202815599Y-148203152D01*
X202815599Y-148203152D02*
X202625123Y-148203152D01*
X202625123Y-148203152D02*
X202529885Y-148250771D01*
X202529885Y-148250771D02*
X202482266Y-148298390D01*
X202482266Y-148298390D02*
X202434647Y-148393628D01*
X202434647Y-148393628D02*
X202434647Y-148679342D01*
X202434647Y-148679342D02*
X202482266Y-148774580D01*
X202482266Y-148774580D02*
X202529885Y-148822200D01*
X202529885Y-148822200D02*
X202625123Y-148869819D01*
X202625123Y-148869819D02*
X202815599Y-148869819D01*
X202815599Y-148869819D02*
X202910837Y-148822200D01*
X202006075Y-148774580D02*
X201958456Y-148822200D01*
X201958456Y-148822200D02*
X202006075Y-148869819D01*
X202006075Y-148869819D02*
X202053694Y-148822200D01*
X202053694Y-148822200D02*
X202006075Y-148774580D01*
X202006075Y-148774580D02*
X202006075Y-148869819D01*
X201101314Y-148822200D02*
X201196552Y-148869819D01*
X201196552Y-148869819D02*
X201387028Y-148869819D01*
X201387028Y-148869819D02*
X201482266Y-148822200D01*
X201482266Y-148822200D02*
X201529885Y-148774580D01*
X201529885Y-148774580D02*
X201577504Y-148679342D01*
X201577504Y-148679342D02*
X201577504Y-148393628D01*
X201577504Y-148393628D02*
X201529885Y-148298390D01*
X201529885Y-148298390D02*
X201482266Y-148250771D01*
X201482266Y-148250771D02*
X201387028Y-148203152D01*
X201387028Y-148203152D02*
X201196552Y-148203152D01*
X201196552Y-148203152D02*
X201101314Y-148250771D01*
X200529885Y-148869819D02*
X200625123Y-148822200D01*
X200625123Y-148822200D02*
X200672742Y-148774580D01*
X200672742Y-148774580D02*
X200720361Y-148679342D01*
X200720361Y-148679342D02*
X200720361Y-148393628D01*
X200720361Y-148393628D02*
X200672742Y-148298390D01*
X200672742Y-148298390D02*
X200625123Y-148250771D01*
X200625123Y-148250771D02*
X200529885Y-148203152D01*
X200529885Y-148203152D02*
X200387028Y-148203152D01*
X200387028Y-148203152D02*
X200291790Y-148250771D01*
X200291790Y-148250771D02*
X200244171Y-148298390D01*
X200244171Y-148298390D02*
X200196552Y-148393628D01*
X200196552Y-148393628D02*
X200196552Y-148679342D01*
X200196552Y-148679342D02*
X200244171Y-148774580D01*
X200244171Y-148774580D02*
X200291790Y-148822200D01*
X200291790Y-148822200D02*
X200387028Y-148869819D01*
X200387028Y-148869819D02*
X200529885Y-148869819D01*
X199767980Y-148869819D02*
X199767980Y-148203152D01*
X199767980Y-148298390D02*
X199720361Y-148250771D01*
X199720361Y-148250771D02*
X199625123Y-148203152D01*
X199625123Y-148203152D02*
X199482266Y-148203152D01*
X199482266Y-148203152D02*
X199387028Y-148250771D01*
X199387028Y-148250771D02*
X199339409Y-148346009D01*
X199339409Y-148346009D02*
X199339409Y-148869819D01*
X199339409Y-148346009D02*
X199291790Y-148250771D01*
X199291790Y-148250771D02*
X199196552Y-148203152D01*
X199196552Y-148203152D02*
X199053695Y-148203152D01*
X199053695Y-148203152D02*
X198958456Y-148250771D01*
X198958456Y-148250771D02*
X198910837Y-148346009D01*
X198910837Y-148346009D02*
X198910837Y-148869819D01*
X197720362Y-147822200D02*
X198577504Y-149107914D01*
X197434647Y-148822200D02*
X197339409Y-148869819D01*
X197339409Y-148869819D02*
X197148933Y-148869819D01*
X197148933Y-148869819D02*
X197053695Y-148822200D01*
X197053695Y-148822200D02*
X197006076Y-148726961D01*
X197006076Y-148726961D02*
X197006076Y-148679342D01*
X197006076Y-148679342D02*
X197053695Y-148584104D01*
X197053695Y-148584104D02*
X197148933Y-148536485D01*
X197148933Y-148536485D02*
X197291790Y-148536485D01*
X197291790Y-148536485D02*
X197387028Y-148488866D01*
X197387028Y-148488866D02*
X197434647Y-148393628D01*
X197434647Y-148393628D02*
X197434647Y-148346009D01*
X197434647Y-148346009D02*
X197387028Y-148250771D01*
X197387028Y-148250771D02*
X197291790Y-148203152D01*
X197291790Y-148203152D02*
X197148933Y-148203152D01*
X197148933Y-148203152D02*
X197053695Y-148250771D01*
X196148933Y-148869819D02*
X196148933Y-148346009D01*
X196148933Y-148346009D02*
X196196552Y-148250771D01*
X196196552Y-148250771D02*
X196291790Y-148203152D01*
X196291790Y-148203152D02*
X196482266Y-148203152D01*
X196482266Y-148203152D02*
X196577504Y-148250771D01*
X196148933Y-148822200D02*
X196244171Y-148869819D01*
X196244171Y-148869819D02*
X196482266Y-148869819D01*
X196482266Y-148869819D02*
X196577504Y-148822200D01*
X196577504Y-148822200D02*
X196625123Y-148726961D01*
X196625123Y-148726961D02*
X196625123Y-148631723D01*
X196625123Y-148631723D02*
X196577504Y-148536485D01*
X196577504Y-148536485D02*
X196482266Y-148488866D01*
X196482266Y-148488866D02*
X196244171Y-148488866D01*
X196244171Y-148488866D02*
X196148933Y-148441247D01*
X195815599Y-148203152D02*
X195434647Y-148203152D01*
X195672742Y-147869819D02*
X195672742Y-148726961D01*
X195672742Y-148726961D02*
X195625123Y-148822200D01*
X195625123Y-148822200D02*
X195529885Y-148869819D01*
X195529885Y-148869819D02*
X195434647Y-148869819D01*
X194958456Y-148869819D02*
X195053694Y-148822200D01*
X195053694Y-148822200D02*
X195101313Y-148774580D01*
X195101313Y-148774580D02*
X195148932Y-148679342D01*
X195148932Y-148679342D02*
X195148932Y-148393628D01*
X195148932Y-148393628D02*
X195101313Y-148298390D01*
X195101313Y-148298390D02*
X195053694Y-148250771D01*
X195053694Y-148250771D02*
X194958456Y-148203152D01*
X194958456Y-148203152D02*
X194815599Y-148203152D01*
X194815599Y-148203152D02*
X194720361Y-148250771D01*
X194720361Y-148250771D02*
X194672742Y-148298390D01*
X194672742Y-148298390D02*
X194625123Y-148393628D01*
X194625123Y-148393628D02*
X194625123Y-148679342D01*
X194625123Y-148679342D02*
X194672742Y-148774580D01*
X194672742Y-148774580D02*
X194720361Y-148822200D01*
X194720361Y-148822200D02*
X194815599Y-148869819D01*
X194815599Y-148869819D02*
X194958456Y-148869819D01*
X194196551Y-148869819D02*
X194196551Y-148203152D01*
X194196551Y-148298390D02*
X194148932Y-148250771D01*
X194148932Y-148250771D02*
X194053694Y-148203152D01*
X194053694Y-148203152D02*
X193910837Y-148203152D01*
X193910837Y-148203152D02*
X193815599Y-148250771D01*
X193815599Y-148250771D02*
X193767980Y-148346009D01*
X193767980Y-148346009D02*
X193767980Y-148869819D01*
X193767980Y-148346009D02*
X193720361Y-148250771D01*
X193720361Y-148250771D02*
X193625123Y-148203152D01*
X193625123Y-148203152D02*
X193482266Y-148203152D01*
X193482266Y-148203152D02*
X193387027Y-148250771D01*
X193387027Y-148250771D02*
X193339408Y-148346009D01*
X193339408Y-148346009D02*
X193339408Y-148869819D01*
X192863218Y-148869819D02*
X192863218Y-148203152D01*
X192863218Y-148298390D02*
X192815599Y-148250771D01*
X192815599Y-148250771D02*
X192720361Y-148203152D01*
X192720361Y-148203152D02*
X192577504Y-148203152D01*
X192577504Y-148203152D02*
X192482266Y-148250771D01*
X192482266Y-148250771D02*
X192434647Y-148346009D01*
X192434647Y-148346009D02*
X192434647Y-148869819D01*
X192434647Y-148346009D02*
X192387028Y-148250771D01*
X192387028Y-148250771D02*
X192291790Y-148203152D01*
X192291790Y-148203152D02*
X192148933Y-148203152D01*
X192148933Y-148203152D02*
X192053694Y-148250771D01*
X192053694Y-148250771D02*
X192006075Y-148346009D01*
X192006075Y-148346009D02*
X192006075Y-148869819D01*
X191006076Y-148869819D02*
X191577504Y-148869819D01*
X191291790Y-148869819D02*
X191291790Y-147869819D01*
X191291790Y-147869819D02*
X191387028Y-148012676D01*
X191387028Y-148012676D02*
X191482266Y-148107914D01*
X191482266Y-148107914D02*
X191577504Y-148155533D01*
X189863219Y-147822200D02*
X190720361Y-149107914D01*
X188958457Y-148869819D02*
X189291790Y-148393628D01*
X189529885Y-148869819D02*
X189529885Y-147869819D01*
X189529885Y-147869819D02*
X189148933Y-147869819D01*
X189148933Y-147869819D02*
X189053695Y-147917438D01*
X189053695Y-147917438D02*
X189006076Y-147965057D01*
X189006076Y-147965057D02*
X188958457Y-148060295D01*
X188958457Y-148060295D02*
X188958457Y-148203152D01*
X188958457Y-148203152D02*
X189006076Y-148298390D01*
X189006076Y-148298390D02*
X189053695Y-148346009D01*
X189053695Y-148346009D02*
X189148933Y-148393628D01*
X189148933Y-148393628D02*
X189529885Y-148393628D01*
X188387028Y-148869819D02*
X188482266Y-148822200D01*
X188482266Y-148822200D02*
X188529885Y-148774580D01*
X188529885Y-148774580D02*
X188577504Y-148679342D01*
X188577504Y-148679342D02*
X188577504Y-148393628D01*
X188577504Y-148393628D02*
X188529885Y-148298390D01*
X188529885Y-148298390D02*
X188482266Y-148250771D01*
X188482266Y-148250771D02*
X188387028Y-148203152D01*
X188387028Y-148203152D02*
X188244171Y-148203152D01*
X188244171Y-148203152D02*
X188148933Y-148250771D01*
X188148933Y-148250771D02*
X188101314Y-148298390D01*
X188101314Y-148298390D02*
X188053695Y-148393628D01*
X188053695Y-148393628D02*
X188053695Y-148679342D01*
X188053695Y-148679342D02*
X188101314Y-148774580D01*
X188101314Y-148774580D02*
X188148933Y-148822200D01*
X188148933Y-148822200D02*
X188244171Y-148869819D01*
X188244171Y-148869819D02*
X188387028Y-148869819D01*
X187625123Y-148869819D02*
X187625123Y-147869819D01*
X187625123Y-148250771D02*
X187529885Y-148203152D01*
X187529885Y-148203152D02*
X187339409Y-148203152D01*
X187339409Y-148203152D02*
X187244171Y-148250771D01*
X187244171Y-148250771D02*
X187196552Y-148298390D01*
X187196552Y-148298390D02*
X187148933Y-148393628D01*
X187148933Y-148393628D02*
X187148933Y-148679342D01*
X187148933Y-148679342D02*
X187196552Y-148774580D01*
X187196552Y-148774580D02*
X187244171Y-148822200D01*
X187244171Y-148822200D02*
X187339409Y-148869819D01*
X187339409Y-148869819D02*
X187529885Y-148869819D01*
X187529885Y-148869819D02*
X187625123Y-148822200D01*
X186577504Y-148869819D02*
X186672742Y-148822200D01*
X186672742Y-148822200D02*
X186720361Y-148774580D01*
X186720361Y-148774580D02*
X186767980Y-148679342D01*
X186767980Y-148679342D02*
X186767980Y-148393628D01*
X186767980Y-148393628D02*
X186720361Y-148298390D01*
X186720361Y-148298390D02*
X186672742Y-148250771D01*
X186672742Y-148250771D02*
X186577504Y-148203152D01*
X186577504Y-148203152D02*
X186434647Y-148203152D01*
X186434647Y-148203152D02*
X186339409Y-148250771D01*
X186339409Y-148250771D02*
X186291790Y-148298390D01*
X186291790Y-148298390D02*
X186244171Y-148393628D01*
X186244171Y-148393628D02*
X186244171Y-148679342D01*
X186244171Y-148679342D02*
X186291790Y-148774580D01*
X186291790Y-148774580D02*
X186339409Y-148822200D01*
X186339409Y-148822200D02*
X186434647Y-148869819D01*
X186434647Y-148869819D02*
X186577504Y-148869819D01*
X185958456Y-148203152D02*
X185577504Y-148203152D01*
X185815599Y-147869819D02*
X185815599Y-148726961D01*
X185815599Y-148726961D02*
X185767980Y-148822200D01*
X185767980Y-148822200D02*
X185672742Y-148869819D01*
X185672742Y-148869819D02*
X185577504Y-148869819D01*
X173872744Y-116069819D02*
X173777506Y-116069819D01*
X173777506Y-116069819D02*
X173682268Y-116117438D01*
X173682268Y-116117438D02*
X173634649Y-116165057D01*
X173634649Y-116165057D02*
X173587030Y-116260295D01*
X173587030Y-116260295D02*
X173539411Y-116450771D01*
X173539411Y-116450771D02*
X173539411Y-116688866D01*
X173539411Y-116688866D02*
X173587030Y-116879342D01*
X173587030Y-116879342D02*
X173634649Y-116974580D01*
X173634649Y-116974580D02*
X173682268Y-117022200D01*
X173682268Y-117022200D02*
X173777506Y-117069819D01*
X173777506Y-117069819D02*
X173872744Y-117069819D01*
X173872744Y-117069819D02*
X173967982Y-117022200D01*
X173967982Y-117022200D02*
X174015601Y-116974580D01*
X174015601Y-116974580D02*
X174063220Y-116879342D01*
X174063220Y-116879342D02*
X174110839Y-116688866D01*
X174110839Y-116688866D02*
X174110839Y-116450771D01*
X174110839Y-116450771D02*
X174063220Y-116260295D01*
X174063220Y-116260295D02*
X174015601Y-116165057D01*
X174015601Y-116165057D02*
X173967982Y-116117438D01*
X173967982Y-116117438D02*
X173872744Y-116069819D01*
X173110839Y-116974580D02*
X173063220Y-117022200D01*
X173063220Y-117022200D02*
X173110839Y-117069819D01*
X173110839Y-117069819D02*
X173158458Y-117022200D01*
X173158458Y-117022200D02*
X173110839Y-116974580D01*
X173110839Y-116974580D02*
X173110839Y-117069819D01*
X172110840Y-117069819D02*
X172682268Y-117069819D01*
X172396554Y-117069819D02*
X172396554Y-116069819D01*
X172396554Y-116069819D02*
X172491792Y-116212676D01*
X172491792Y-116212676D02*
X172587030Y-116307914D01*
X172587030Y-116307914D02*
X172682268Y-116355533D01*
X171110840Y-117069819D02*
X171444173Y-116593628D01*
X171682268Y-117069819D02*
X171682268Y-116069819D01*
X171682268Y-116069819D02*
X171301316Y-116069819D01*
X171301316Y-116069819D02*
X171206078Y-116117438D01*
X171206078Y-116117438D02*
X171158459Y-116165057D01*
X171158459Y-116165057D02*
X171110840Y-116260295D01*
X171110840Y-116260295D02*
X171110840Y-116403152D01*
X171110840Y-116403152D02*
X171158459Y-116498390D01*
X171158459Y-116498390D02*
X171206078Y-116546009D01*
X171206078Y-116546009D02*
X171301316Y-116593628D01*
X171301316Y-116593628D02*
X171682268Y-116593628D01*
X259272744Y-134669819D02*
X259177506Y-134669819D01*
X259177506Y-134669819D02*
X259082268Y-134717438D01*
X259082268Y-134717438D02*
X259034649Y-134765057D01*
X259034649Y-134765057D02*
X258987030Y-134860295D01*
X258987030Y-134860295D02*
X258939411Y-135050771D01*
X258939411Y-135050771D02*
X258939411Y-135288866D01*
X258939411Y-135288866D02*
X258987030Y-135479342D01*
X258987030Y-135479342D02*
X259034649Y-135574580D01*
X259034649Y-135574580D02*
X259082268Y-135622200D01*
X259082268Y-135622200D02*
X259177506Y-135669819D01*
X259177506Y-135669819D02*
X259272744Y-135669819D01*
X259272744Y-135669819D02*
X259367982Y-135622200D01*
X259367982Y-135622200D02*
X259415601Y-135574580D01*
X259415601Y-135574580D02*
X259463220Y-135479342D01*
X259463220Y-135479342D02*
X259510839Y-135288866D01*
X259510839Y-135288866D02*
X259510839Y-135050771D01*
X259510839Y-135050771D02*
X259463220Y-134860295D01*
X259463220Y-134860295D02*
X259415601Y-134765057D01*
X259415601Y-134765057D02*
X259367982Y-134717438D01*
X259367982Y-134717438D02*
X259272744Y-134669819D01*
X258510839Y-135574580D02*
X258463220Y-135622200D01*
X258463220Y-135622200D02*
X258510839Y-135669819D01*
X258510839Y-135669819D02*
X258558458Y-135622200D01*
X258558458Y-135622200D02*
X258510839Y-135574580D01*
X258510839Y-135574580D02*
X258510839Y-135669819D01*
X257510840Y-135669819D02*
X258082268Y-135669819D01*
X257796554Y-135669819D02*
X257796554Y-134669819D01*
X257796554Y-134669819D02*
X257891792Y-134812676D01*
X257891792Y-134812676D02*
X257987030Y-134907914D01*
X257987030Y-134907914D02*
X258082268Y-134955533D01*
X256510840Y-135669819D02*
X256844173Y-135193628D01*
X257082268Y-135669819D02*
X257082268Y-134669819D01*
X257082268Y-134669819D02*
X256701316Y-134669819D01*
X256701316Y-134669819D02*
X256606078Y-134717438D01*
X256606078Y-134717438D02*
X256558459Y-134765057D01*
X256558459Y-134765057D02*
X256510840Y-134860295D01*
X256510840Y-134860295D02*
X256510840Y-135003152D01*
X256510840Y-135003152D02*
X256558459Y-135098390D01*
X256558459Y-135098390D02*
X256606078Y-135146009D01*
X256606078Y-135146009D02*
X256701316Y-135193628D01*
X256701316Y-135193628D02*
X257082268Y-135193628D01*
X225213220Y-129449931D02*
X225213220Y-128449931D01*
X225213220Y-128926121D02*
X224641792Y-128926121D01*
X224641792Y-129449931D02*
X224641792Y-128449931D01*
X224022744Y-129449931D02*
X224117982Y-129402312D01*
X224117982Y-129402312D02*
X224165601Y-129354692D01*
X224165601Y-129354692D02*
X224213220Y-129259454D01*
X224213220Y-129259454D02*
X224213220Y-128973740D01*
X224213220Y-128973740D02*
X224165601Y-128878502D01*
X224165601Y-128878502D02*
X224117982Y-128830883D01*
X224117982Y-128830883D02*
X224022744Y-128783264D01*
X224022744Y-128783264D02*
X223879887Y-128783264D01*
X223879887Y-128783264D02*
X223784649Y-128830883D01*
X223784649Y-128830883D02*
X223737030Y-128878502D01*
X223737030Y-128878502D02*
X223689411Y-128973740D01*
X223689411Y-128973740D02*
X223689411Y-129259454D01*
X223689411Y-129259454D02*
X223737030Y-129354692D01*
X223737030Y-129354692D02*
X223784649Y-129402312D01*
X223784649Y-129402312D02*
X223879887Y-129449931D01*
X223879887Y-129449931D02*
X224022744Y-129449931D01*
X223117982Y-129449931D02*
X223213220Y-129402312D01*
X223213220Y-129402312D02*
X223260839Y-129307073D01*
X223260839Y-129307073D02*
X223260839Y-128449931D01*
X222356077Y-129402312D02*
X222451315Y-129449931D01*
X222451315Y-129449931D02*
X222641791Y-129449931D01*
X222641791Y-129449931D02*
X222737029Y-129402312D01*
X222737029Y-129402312D02*
X222784648Y-129307073D01*
X222784648Y-129307073D02*
X222784648Y-128926121D01*
X222784648Y-128926121D02*
X222737029Y-128830883D01*
X222737029Y-128830883D02*
X222641791Y-128783264D01*
X222641791Y-128783264D02*
X222451315Y-128783264D01*
X222451315Y-128783264D02*
X222356077Y-128830883D01*
X222356077Y-128830883D02*
X222308458Y-128926121D01*
X222308458Y-128926121D02*
X222308458Y-129021359D01*
X222308458Y-129021359D02*
X222784648Y-129116597D01*
X221165600Y-129402312D02*
X221022743Y-129449931D01*
X221022743Y-129449931D02*
X220784648Y-129449931D01*
X220784648Y-129449931D02*
X220689410Y-129402312D01*
X220689410Y-129402312D02*
X220641791Y-129354692D01*
X220641791Y-129354692D02*
X220594172Y-129259454D01*
X220594172Y-129259454D02*
X220594172Y-129164216D01*
X220594172Y-129164216D02*
X220641791Y-129068978D01*
X220641791Y-129068978D02*
X220689410Y-129021359D01*
X220689410Y-129021359D02*
X220784648Y-128973740D01*
X220784648Y-128973740D02*
X220975124Y-128926121D01*
X220975124Y-128926121D02*
X221070362Y-128878502D01*
X221070362Y-128878502D02*
X221117981Y-128830883D01*
X221117981Y-128830883D02*
X221165600Y-128735645D01*
X221165600Y-128735645D02*
X221165600Y-128640407D01*
X221165600Y-128640407D02*
X221117981Y-128545169D01*
X221117981Y-128545169D02*
X221070362Y-128497550D01*
X221070362Y-128497550D02*
X220975124Y-128449931D01*
X220975124Y-128449931D02*
X220737029Y-128449931D01*
X220737029Y-128449931D02*
X220594172Y-128497550D01*
X220165600Y-128783264D02*
X220165600Y-129783264D01*
X220165600Y-128830883D02*
X220070362Y-128783264D01*
X220070362Y-128783264D02*
X219879886Y-128783264D01*
X219879886Y-128783264D02*
X219784648Y-128830883D01*
X219784648Y-128830883D02*
X219737029Y-128878502D01*
X219737029Y-128878502D02*
X219689410Y-128973740D01*
X219689410Y-128973740D02*
X219689410Y-129259454D01*
X219689410Y-129259454D02*
X219737029Y-129354692D01*
X219737029Y-129354692D02*
X219784648Y-129402312D01*
X219784648Y-129402312D02*
X219879886Y-129449931D01*
X219879886Y-129449931D02*
X220070362Y-129449931D01*
X220070362Y-129449931D02*
X220165600Y-129402312D01*
X218832267Y-129449931D02*
X218832267Y-128926121D01*
X218832267Y-128926121D02*
X218879886Y-128830883D01*
X218879886Y-128830883D02*
X218975124Y-128783264D01*
X218975124Y-128783264D02*
X219165600Y-128783264D01*
X219165600Y-128783264D02*
X219260838Y-128830883D01*
X218832267Y-129402312D02*
X218927505Y-129449931D01*
X218927505Y-129449931D02*
X219165600Y-129449931D01*
X219165600Y-129449931D02*
X219260838Y-129402312D01*
X219260838Y-129402312D02*
X219308457Y-129307073D01*
X219308457Y-129307073D02*
X219308457Y-129211835D01*
X219308457Y-129211835D02*
X219260838Y-129116597D01*
X219260838Y-129116597D02*
X219165600Y-129068978D01*
X219165600Y-129068978D02*
X218927505Y-129068978D01*
X218927505Y-129068978D02*
X218832267Y-129021359D01*
X217927505Y-129402312D02*
X218022743Y-129449931D01*
X218022743Y-129449931D02*
X218213219Y-129449931D01*
X218213219Y-129449931D02*
X218308457Y-129402312D01*
X218308457Y-129402312D02*
X218356076Y-129354692D01*
X218356076Y-129354692D02*
X218403695Y-129259454D01*
X218403695Y-129259454D02*
X218403695Y-128973740D01*
X218403695Y-128973740D02*
X218356076Y-128878502D01*
X218356076Y-128878502D02*
X218308457Y-128830883D01*
X218308457Y-128830883D02*
X218213219Y-128783264D01*
X218213219Y-128783264D02*
X218022743Y-128783264D01*
X218022743Y-128783264D02*
X217927505Y-128830883D01*
X217498933Y-129449931D02*
X217498933Y-128783264D01*
X217498933Y-128449931D02*
X217546552Y-128497550D01*
X217546552Y-128497550D02*
X217498933Y-128545169D01*
X217498933Y-128545169D02*
X217451314Y-128497550D01*
X217451314Y-128497550D02*
X217498933Y-128449931D01*
X217498933Y-128449931D02*
X217498933Y-128545169D01*
X217022743Y-128783264D02*
X217022743Y-129449931D01*
X217022743Y-128878502D02*
X216975124Y-128830883D01*
X216975124Y-128830883D02*
X216879886Y-128783264D01*
X216879886Y-128783264D02*
X216737029Y-128783264D01*
X216737029Y-128783264D02*
X216641791Y-128830883D01*
X216641791Y-128830883D02*
X216594172Y-128926121D01*
X216594172Y-128926121D02*
X216594172Y-129449931D01*
X215689410Y-128783264D02*
X215689410Y-129592788D01*
X215689410Y-129592788D02*
X215737029Y-129688026D01*
X215737029Y-129688026D02*
X215784648Y-129735645D01*
X215784648Y-129735645D02*
X215879886Y-129783264D01*
X215879886Y-129783264D02*
X216022743Y-129783264D01*
X216022743Y-129783264D02*
X216117981Y-129735645D01*
X215689410Y-129402312D02*
X215784648Y-129449931D01*
X215784648Y-129449931D02*
X215975124Y-129449931D01*
X215975124Y-129449931D02*
X216070362Y-129402312D01*
X216070362Y-129402312D02*
X216117981Y-129354692D01*
X216117981Y-129354692D02*
X216165600Y-129259454D01*
X216165600Y-129259454D02*
X216165600Y-128973740D01*
X216165600Y-128973740D02*
X216117981Y-128878502D01*
X216117981Y-128878502D02*
X216070362Y-128830883D01*
X216070362Y-128830883D02*
X215975124Y-128783264D01*
X215975124Y-128783264D02*
X215784648Y-128783264D01*
X215784648Y-128783264D02*
X215689410Y-128830883D01*
X215213219Y-129354692D02*
X215165600Y-129402312D01*
X215165600Y-129402312D02*
X215213219Y-129449931D01*
X215213219Y-129449931D02*
X215260838Y-129402312D01*
X215260838Y-129402312D02*
X215213219Y-129354692D01*
X215213219Y-129354692D02*
X215213219Y-129449931D01*
X215213219Y-128830883D02*
X215165600Y-128878502D01*
X215165600Y-128878502D02*
X215213219Y-128926121D01*
X215213219Y-128926121D02*
X215260838Y-128878502D01*
X215260838Y-128878502D02*
X215213219Y-128830883D01*
X215213219Y-128830883D02*
X215213219Y-128926121D01*
X213927505Y-129449931D02*
X213737029Y-129449931D01*
X213737029Y-129449931D02*
X213641791Y-129402312D01*
X213641791Y-129402312D02*
X213594172Y-129354692D01*
X213594172Y-129354692D02*
X213498934Y-129211835D01*
X213498934Y-129211835D02*
X213451315Y-129021359D01*
X213451315Y-129021359D02*
X213451315Y-128640407D01*
X213451315Y-128640407D02*
X213498934Y-128545169D01*
X213498934Y-128545169D02*
X213546553Y-128497550D01*
X213546553Y-128497550D02*
X213641791Y-128449931D01*
X213641791Y-128449931D02*
X213832267Y-128449931D01*
X213832267Y-128449931D02*
X213927505Y-128497550D01*
X213927505Y-128497550D02*
X213975124Y-128545169D01*
X213975124Y-128545169D02*
X214022743Y-128640407D01*
X214022743Y-128640407D02*
X214022743Y-128878502D01*
X214022743Y-128878502D02*
X213975124Y-128973740D01*
X213975124Y-128973740D02*
X213927505Y-129021359D01*
X213927505Y-129021359D02*
X213832267Y-129068978D01*
X213832267Y-129068978D02*
X213641791Y-129068978D01*
X213641791Y-129068978D02*
X213546553Y-129021359D01*
X213546553Y-129021359D02*
X213498934Y-128973740D01*
X213498934Y-128973740D02*
X213451315Y-128878502D01*
X213070362Y-128545169D02*
X213022743Y-128497550D01*
X213022743Y-128497550D02*
X212927505Y-128449931D01*
X212927505Y-128449931D02*
X212689410Y-128449931D01*
X212689410Y-128449931D02*
X212594172Y-128497550D01*
X212594172Y-128497550D02*
X212546553Y-128545169D01*
X212546553Y-128545169D02*
X212498934Y-128640407D01*
X212498934Y-128640407D02*
X212498934Y-128735645D01*
X212498934Y-128735645D02*
X212546553Y-128878502D01*
X212546553Y-128878502D02*
X213117981Y-129449931D01*
X213117981Y-129449931D02*
X212498934Y-129449931D01*
X212070362Y-129354692D02*
X212022743Y-129402312D01*
X212022743Y-129402312D02*
X212070362Y-129449931D01*
X212070362Y-129449931D02*
X212117981Y-129402312D01*
X212117981Y-129402312D02*
X212070362Y-129354692D01*
X212070362Y-129354692D02*
X212070362Y-129449931D01*
X211117982Y-128449931D02*
X211594172Y-128449931D01*
X211594172Y-128449931D02*
X211641791Y-128926121D01*
X211641791Y-128926121D02*
X211594172Y-128878502D01*
X211594172Y-128878502D02*
X211498934Y-128830883D01*
X211498934Y-128830883D02*
X211260839Y-128830883D01*
X211260839Y-128830883D02*
X211165601Y-128878502D01*
X211165601Y-128878502D02*
X211117982Y-128926121D01*
X211117982Y-128926121D02*
X211070363Y-129021359D01*
X211070363Y-129021359D02*
X211070363Y-129259454D01*
X211070363Y-129259454D02*
X211117982Y-129354692D01*
X211117982Y-129354692D02*
X211165601Y-129402312D01*
X211165601Y-129402312D02*
X211260839Y-129449931D01*
X211260839Y-129449931D02*
X211498934Y-129449931D01*
X211498934Y-129449931D02*
X211594172Y-129402312D01*
X211594172Y-129402312D02*
X211641791Y-129354692D01*
X209879886Y-129449931D02*
X209879886Y-128783264D01*
X209879886Y-128878502D02*
X209832267Y-128830883D01*
X209832267Y-128830883D02*
X209737029Y-128783264D01*
X209737029Y-128783264D02*
X209594172Y-128783264D01*
X209594172Y-128783264D02*
X209498934Y-128830883D01*
X209498934Y-128830883D02*
X209451315Y-128926121D01*
X209451315Y-128926121D02*
X209451315Y-129449931D01*
X209451315Y-128926121D02*
X209403696Y-128830883D01*
X209403696Y-128830883D02*
X209308458Y-128783264D01*
X209308458Y-128783264D02*
X209165601Y-128783264D01*
X209165601Y-128783264D02*
X209070362Y-128830883D01*
X209070362Y-128830883D02*
X209022743Y-128926121D01*
X209022743Y-128926121D02*
X209022743Y-129449931D01*
X208546553Y-129449931D02*
X208546553Y-128783264D01*
X208546553Y-128878502D02*
X208498934Y-128830883D01*
X208498934Y-128830883D02*
X208403696Y-128783264D01*
X208403696Y-128783264D02*
X208260839Y-128783264D01*
X208260839Y-128783264D02*
X208165601Y-128830883D01*
X208165601Y-128830883D02*
X208117982Y-128926121D01*
X208117982Y-128926121D02*
X208117982Y-129449931D01*
X208117982Y-128926121D02*
X208070363Y-128830883D01*
X208070363Y-128830883D02*
X207975125Y-128783264D01*
X207975125Y-128783264D02*
X207832268Y-128783264D01*
X207832268Y-128783264D02*
X207737029Y-128830883D01*
X207737029Y-128830883D02*
X207689410Y-128926121D01*
X207689410Y-128926121D02*
X207689410Y-129449931D01*
X206546553Y-129449931D02*
X206022744Y-128783264D01*
X206546553Y-128783264D02*
X206022744Y-129449931D01*
X204975124Y-128449931D02*
X204308458Y-128449931D01*
X204308458Y-128449931D02*
X204737029Y-129449931D01*
X203784648Y-128878502D02*
X203879886Y-128830883D01*
X203879886Y-128830883D02*
X203927505Y-128783264D01*
X203927505Y-128783264D02*
X203975124Y-128688026D01*
X203975124Y-128688026D02*
X203975124Y-128640407D01*
X203975124Y-128640407D02*
X203927505Y-128545169D01*
X203927505Y-128545169D02*
X203879886Y-128497550D01*
X203879886Y-128497550D02*
X203784648Y-128449931D01*
X203784648Y-128449931D02*
X203594172Y-128449931D01*
X203594172Y-128449931D02*
X203498934Y-128497550D01*
X203498934Y-128497550D02*
X203451315Y-128545169D01*
X203451315Y-128545169D02*
X203403696Y-128640407D01*
X203403696Y-128640407D02*
X203403696Y-128688026D01*
X203403696Y-128688026D02*
X203451315Y-128783264D01*
X203451315Y-128783264D02*
X203498934Y-128830883D01*
X203498934Y-128830883D02*
X203594172Y-128878502D01*
X203594172Y-128878502D02*
X203784648Y-128878502D01*
X203784648Y-128878502D02*
X203879886Y-128926121D01*
X203879886Y-128926121D02*
X203927505Y-128973740D01*
X203927505Y-128973740D02*
X203975124Y-129068978D01*
X203975124Y-129068978D02*
X203975124Y-129259454D01*
X203975124Y-129259454D02*
X203927505Y-129354692D01*
X203927505Y-129354692D02*
X203879886Y-129402312D01*
X203879886Y-129402312D02*
X203784648Y-129449931D01*
X203784648Y-129449931D02*
X203594172Y-129449931D01*
X203594172Y-129449931D02*
X203498934Y-129402312D01*
X203498934Y-129402312D02*
X203451315Y-129354692D01*
X203451315Y-129354692D02*
X203403696Y-129259454D01*
X203403696Y-129259454D02*
X203403696Y-129068978D01*
X203403696Y-129068978D02*
X203451315Y-128973740D01*
X203451315Y-128973740D02*
X203498934Y-128926121D01*
X203498934Y-128926121D02*
X203594172Y-128878502D01*
X202975124Y-129354692D02*
X202927505Y-129402312D01*
X202927505Y-129402312D02*
X202975124Y-129449931D01*
X202975124Y-129449931D02*
X203022743Y-129402312D01*
X203022743Y-129402312D02*
X202975124Y-129354692D01*
X202975124Y-129354692D02*
X202975124Y-129449931D01*
X202022744Y-128449931D02*
X202498934Y-128449931D01*
X202498934Y-128449931D02*
X202546553Y-128926121D01*
X202546553Y-128926121D02*
X202498934Y-128878502D01*
X202498934Y-128878502D02*
X202403696Y-128830883D01*
X202403696Y-128830883D02*
X202165601Y-128830883D01*
X202165601Y-128830883D02*
X202070363Y-128878502D01*
X202070363Y-128878502D02*
X202022744Y-128926121D01*
X202022744Y-128926121D02*
X201975125Y-129021359D01*
X201975125Y-129021359D02*
X201975125Y-129259454D01*
X201975125Y-129259454D02*
X202022744Y-129354692D01*
X202022744Y-129354692D02*
X202070363Y-129402312D01*
X202070363Y-129402312D02*
X202165601Y-129449931D01*
X202165601Y-129449931D02*
X202403696Y-129449931D01*
X202403696Y-129449931D02*
X202498934Y-129402312D01*
X202498934Y-129402312D02*
X202546553Y-129354692D01*
X200784648Y-129449931D02*
X200784648Y-128783264D01*
X200784648Y-128878502D02*
X200737029Y-128830883D01*
X200737029Y-128830883D02*
X200641791Y-128783264D01*
X200641791Y-128783264D02*
X200498934Y-128783264D01*
X200498934Y-128783264D02*
X200403696Y-128830883D01*
X200403696Y-128830883D02*
X200356077Y-128926121D01*
X200356077Y-128926121D02*
X200356077Y-129449931D01*
X200356077Y-128926121D02*
X200308458Y-128830883D01*
X200308458Y-128830883D02*
X200213220Y-128783264D01*
X200213220Y-128783264D02*
X200070363Y-128783264D01*
X200070363Y-128783264D02*
X199975124Y-128830883D01*
X199975124Y-128830883D02*
X199927505Y-128926121D01*
X199927505Y-128926121D02*
X199927505Y-129449931D01*
X199451315Y-129449931D02*
X199451315Y-128783264D01*
X199451315Y-128878502D02*
X199403696Y-128830883D01*
X199403696Y-128830883D02*
X199308458Y-128783264D01*
X199308458Y-128783264D02*
X199165601Y-128783264D01*
X199165601Y-128783264D02*
X199070363Y-128830883D01*
X199070363Y-128830883D02*
X199022744Y-128926121D01*
X199022744Y-128926121D02*
X199022744Y-129449931D01*
X199022744Y-128926121D02*
X198975125Y-128830883D01*
X198975125Y-128830883D02*
X198879887Y-128783264D01*
X198879887Y-128783264D02*
X198737030Y-128783264D01*
X198737030Y-128783264D02*
X198641791Y-128830883D01*
X198641791Y-128830883D02*
X198594172Y-128926121D01*
X198594172Y-128926121D02*
X198594172Y-129449931D01*
X224879887Y-130536065D02*
X224737030Y-130583684D01*
X224737030Y-130583684D02*
X224689411Y-130631303D01*
X224689411Y-130631303D02*
X224641792Y-130726541D01*
X224641792Y-130726541D02*
X224641792Y-130869398D01*
X224641792Y-130869398D02*
X224689411Y-130964636D01*
X224689411Y-130964636D02*
X224737030Y-131012256D01*
X224737030Y-131012256D02*
X224832268Y-131059875D01*
X224832268Y-131059875D02*
X225213220Y-131059875D01*
X225213220Y-131059875D02*
X225213220Y-130059875D01*
X225213220Y-130059875D02*
X224879887Y-130059875D01*
X224879887Y-130059875D02*
X224784649Y-130107494D01*
X224784649Y-130107494D02*
X224737030Y-130155113D01*
X224737030Y-130155113D02*
X224689411Y-130250351D01*
X224689411Y-130250351D02*
X224689411Y-130345589D01*
X224689411Y-130345589D02*
X224737030Y-130440827D01*
X224737030Y-130440827D02*
X224784649Y-130488446D01*
X224784649Y-130488446D02*
X224879887Y-130536065D01*
X224879887Y-130536065D02*
X225213220Y-130536065D01*
X224070363Y-131059875D02*
X224165601Y-131012256D01*
X224165601Y-131012256D02*
X224213220Y-130964636D01*
X224213220Y-130964636D02*
X224260839Y-130869398D01*
X224260839Y-130869398D02*
X224260839Y-130583684D01*
X224260839Y-130583684D02*
X224213220Y-130488446D01*
X224213220Y-130488446D02*
X224165601Y-130440827D01*
X224165601Y-130440827D02*
X224070363Y-130393208D01*
X224070363Y-130393208D02*
X223927506Y-130393208D01*
X223927506Y-130393208D02*
X223832268Y-130440827D01*
X223832268Y-130440827D02*
X223784649Y-130488446D01*
X223784649Y-130488446D02*
X223737030Y-130583684D01*
X223737030Y-130583684D02*
X223737030Y-130869398D01*
X223737030Y-130869398D02*
X223784649Y-130964636D01*
X223784649Y-130964636D02*
X223832268Y-131012256D01*
X223832268Y-131012256D02*
X223927506Y-131059875D01*
X223927506Y-131059875D02*
X224070363Y-131059875D01*
X222879887Y-131059875D02*
X222879887Y-130536065D01*
X222879887Y-130536065D02*
X222927506Y-130440827D01*
X222927506Y-130440827D02*
X223022744Y-130393208D01*
X223022744Y-130393208D02*
X223213220Y-130393208D01*
X223213220Y-130393208D02*
X223308458Y-130440827D01*
X222879887Y-131012256D02*
X222975125Y-131059875D01*
X222975125Y-131059875D02*
X223213220Y-131059875D01*
X223213220Y-131059875D02*
X223308458Y-131012256D01*
X223308458Y-131012256D02*
X223356077Y-130917017D01*
X223356077Y-130917017D02*
X223356077Y-130821779D01*
X223356077Y-130821779D02*
X223308458Y-130726541D01*
X223308458Y-130726541D02*
X223213220Y-130678922D01*
X223213220Y-130678922D02*
X222975125Y-130678922D01*
X222975125Y-130678922D02*
X222879887Y-130631303D01*
X222403696Y-131059875D02*
X222403696Y-130393208D01*
X222403696Y-130583684D02*
X222356077Y-130488446D01*
X222356077Y-130488446D02*
X222308458Y-130440827D01*
X222308458Y-130440827D02*
X222213220Y-130393208D01*
X222213220Y-130393208D02*
X222117982Y-130393208D01*
X221356077Y-131059875D02*
X221356077Y-130059875D01*
X221356077Y-131012256D02*
X221451315Y-131059875D01*
X221451315Y-131059875D02*
X221641791Y-131059875D01*
X221641791Y-131059875D02*
X221737029Y-131012256D01*
X221737029Y-131012256D02*
X221784648Y-130964636D01*
X221784648Y-130964636D02*
X221832267Y-130869398D01*
X221832267Y-130869398D02*
X221832267Y-130583684D01*
X221832267Y-130583684D02*
X221784648Y-130488446D01*
X221784648Y-130488446D02*
X221737029Y-130440827D01*
X221737029Y-130440827D02*
X221641791Y-130393208D01*
X221641791Y-130393208D02*
X221451315Y-130393208D01*
X221451315Y-130393208D02*
X221356077Y-130440827D01*
X220165600Y-131012256D02*
X220022743Y-131059875D01*
X220022743Y-131059875D02*
X219784648Y-131059875D01*
X219784648Y-131059875D02*
X219689410Y-131012256D01*
X219689410Y-131012256D02*
X219641791Y-130964636D01*
X219641791Y-130964636D02*
X219594172Y-130869398D01*
X219594172Y-130869398D02*
X219594172Y-130774160D01*
X219594172Y-130774160D02*
X219641791Y-130678922D01*
X219641791Y-130678922D02*
X219689410Y-130631303D01*
X219689410Y-130631303D02*
X219784648Y-130583684D01*
X219784648Y-130583684D02*
X219975124Y-130536065D01*
X219975124Y-130536065D02*
X220070362Y-130488446D01*
X220070362Y-130488446D02*
X220117981Y-130440827D01*
X220117981Y-130440827D02*
X220165600Y-130345589D01*
X220165600Y-130345589D02*
X220165600Y-130250351D01*
X220165600Y-130250351D02*
X220117981Y-130155113D01*
X220117981Y-130155113D02*
X220070362Y-130107494D01*
X220070362Y-130107494D02*
X219975124Y-130059875D01*
X219975124Y-130059875D02*
X219737029Y-130059875D01*
X219737029Y-130059875D02*
X219594172Y-130107494D01*
X219165600Y-131059875D02*
X219165600Y-130393208D01*
X219165600Y-130059875D02*
X219213219Y-130107494D01*
X219213219Y-130107494D02*
X219165600Y-130155113D01*
X219165600Y-130155113D02*
X219117981Y-130107494D01*
X219117981Y-130107494D02*
X219165600Y-130059875D01*
X219165600Y-130059875D02*
X219165600Y-130155113D01*
X218784648Y-130393208D02*
X218260839Y-130393208D01*
X218260839Y-130393208D02*
X218784648Y-131059875D01*
X218784648Y-131059875D02*
X218260839Y-131059875D01*
X217498934Y-131012256D02*
X217594172Y-131059875D01*
X217594172Y-131059875D02*
X217784648Y-131059875D01*
X217784648Y-131059875D02*
X217879886Y-131012256D01*
X217879886Y-131012256D02*
X217927505Y-130917017D01*
X217927505Y-130917017D02*
X217927505Y-130536065D01*
X217927505Y-130536065D02*
X217879886Y-130440827D01*
X217879886Y-130440827D02*
X217784648Y-130393208D01*
X217784648Y-130393208D02*
X217594172Y-130393208D01*
X217594172Y-130393208D02*
X217498934Y-130440827D01*
X217498934Y-130440827D02*
X217451315Y-130536065D01*
X217451315Y-130536065D02*
X217451315Y-130631303D01*
X217451315Y-130631303D02*
X217927505Y-130726541D01*
X217022743Y-130964636D02*
X216975124Y-131012256D01*
X216975124Y-131012256D02*
X217022743Y-131059875D01*
X217022743Y-131059875D02*
X217070362Y-131012256D01*
X217070362Y-131012256D02*
X217022743Y-130964636D01*
X217022743Y-130964636D02*
X217022743Y-131059875D01*
X217022743Y-130440827D02*
X216975124Y-130488446D01*
X216975124Y-130488446D02*
X217022743Y-130536065D01*
X217022743Y-130536065D02*
X217070362Y-130488446D01*
X217070362Y-130488446D02*
X217022743Y-130440827D01*
X217022743Y-130440827D02*
X217022743Y-130536065D01*
X215260839Y-131059875D02*
X215832267Y-131059875D01*
X215546553Y-131059875D02*
X215546553Y-130059875D01*
X215546553Y-130059875D02*
X215641791Y-130202732D01*
X215641791Y-130202732D02*
X215737029Y-130297970D01*
X215737029Y-130297970D02*
X215832267Y-130345589D01*
X214641791Y-130059875D02*
X214546553Y-130059875D01*
X214546553Y-130059875D02*
X214451315Y-130107494D01*
X214451315Y-130107494D02*
X214403696Y-130155113D01*
X214403696Y-130155113D02*
X214356077Y-130250351D01*
X214356077Y-130250351D02*
X214308458Y-130440827D01*
X214308458Y-130440827D02*
X214308458Y-130678922D01*
X214308458Y-130678922D02*
X214356077Y-130869398D01*
X214356077Y-130869398D02*
X214403696Y-130964636D01*
X214403696Y-130964636D02*
X214451315Y-131012256D01*
X214451315Y-131012256D02*
X214546553Y-131059875D01*
X214546553Y-131059875D02*
X214641791Y-131059875D01*
X214641791Y-131059875D02*
X214737029Y-131012256D01*
X214737029Y-131012256D02*
X214784648Y-130964636D01*
X214784648Y-130964636D02*
X214832267Y-130869398D01*
X214832267Y-130869398D02*
X214879886Y-130678922D01*
X214879886Y-130678922D02*
X214879886Y-130440827D01*
X214879886Y-130440827D02*
X214832267Y-130250351D01*
X214832267Y-130250351D02*
X214784648Y-130155113D01*
X214784648Y-130155113D02*
X214737029Y-130107494D01*
X214737029Y-130107494D02*
X214641791Y-130059875D01*
X213689410Y-130059875D02*
X213594172Y-130059875D01*
X213594172Y-130059875D02*
X213498934Y-130107494D01*
X213498934Y-130107494D02*
X213451315Y-130155113D01*
X213451315Y-130155113D02*
X213403696Y-130250351D01*
X213403696Y-130250351D02*
X213356077Y-130440827D01*
X213356077Y-130440827D02*
X213356077Y-130678922D01*
X213356077Y-130678922D02*
X213403696Y-130869398D01*
X213403696Y-130869398D02*
X213451315Y-130964636D01*
X213451315Y-130964636D02*
X213498934Y-131012256D01*
X213498934Y-131012256D02*
X213594172Y-131059875D01*
X213594172Y-131059875D02*
X213689410Y-131059875D01*
X213689410Y-131059875D02*
X213784648Y-131012256D01*
X213784648Y-131012256D02*
X213832267Y-130964636D01*
X213832267Y-130964636D02*
X213879886Y-130869398D01*
X213879886Y-130869398D02*
X213927505Y-130678922D01*
X213927505Y-130678922D02*
X213927505Y-130440827D01*
X213927505Y-130440827D02*
X213879886Y-130250351D01*
X213879886Y-130250351D02*
X213832267Y-130155113D01*
X213832267Y-130155113D02*
X213784648Y-130107494D01*
X213784648Y-130107494D02*
X213689410Y-130059875D01*
X212165600Y-131059875D02*
X212165600Y-130393208D01*
X212165600Y-130488446D02*
X212117981Y-130440827D01*
X212117981Y-130440827D02*
X212022743Y-130393208D01*
X212022743Y-130393208D02*
X211879886Y-130393208D01*
X211879886Y-130393208D02*
X211784648Y-130440827D01*
X211784648Y-130440827D02*
X211737029Y-130536065D01*
X211737029Y-130536065D02*
X211737029Y-131059875D01*
X211737029Y-130536065D02*
X211689410Y-130440827D01*
X211689410Y-130440827D02*
X211594172Y-130393208D01*
X211594172Y-130393208D02*
X211451315Y-130393208D01*
X211451315Y-130393208D02*
X211356076Y-130440827D01*
X211356076Y-130440827D02*
X211308457Y-130536065D01*
X211308457Y-130536065D02*
X211308457Y-131059875D01*
X210832267Y-131059875D02*
X210832267Y-130393208D01*
X210832267Y-130488446D02*
X210784648Y-130440827D01*
X210784648Y-130440827D02*
X210689410Y-130393208D01*
X210689410Y-130393208D02*
X210546553Y-130393208D01*
X210546553Y-130393208D02*
X210451315Y-130440827D01*
X210451315Y-130440827D02*
X210403696Y-130536065D01*
X210403696Y-130536065D02*
X210403696Y-131059875D01*
X210403696Y-130536065D02*
X210356077Y-130440827D01*
X210356077Y-130440827D02*
X210260839Y-130393208D01*
X210260839Y-130393208D02*
X210117982Y-130393208D01*
X210117982Y-130393208D02*
X210022743Y-130440827D01*
X210022743Y-130440827D02*
X209975124Y-130536065D01*
X209975124Y-130536065D02*
X209975124Y-131059875D01*
X208832267Y-131059875D02*
X208308458Y-130393208D01*
X208832267Y-130393208D02*
X208308458Y-131059875D01*
X207022743Y-130488446D02*
X207117981Y-130440827D01*
X207117981Y-130440827D02*
X207165600Y-130393208D01*
X207165600Y-130393208D02*
X207213219Y-130297970D01*
X207213219Y-130297970D02*
X207213219Y-130250351D01*
X207213219Y-130250351D02*
X207165600Y-130155113D01*
X207165600Y-130155113D02*
X207117981Y-130107494D01*
X207117981Y-130107494D02*
X207022743Y-130059875D01*
X207022743Y-130059875D02*
X206832267Y-130059875D01*
X206832267Y-130059875D02*
X206737029Y-130107494D01*
X206737029Y-130107494D02*
X206689410Y-130155113D01*
X206689410Y-130155113D02*
X206641791Y-130250351D01*
X206641791Y-130250351D02*
X206641791Y-130297970D01*
X206641791Y-130297970D02*
X206689410Y-130393208D01*
X206689410Y-130393208D02*
X206737029Y-130440827D01*
X206737029Y-130440827D02*
X206832267Y-130488446D01*
X206832267Y-130488446D02*
X207022743Y-130488446D01*
X207022743Y-130488446D02*
X207117981Y-130536065D01*
X207117981Y-130536065D02*
X207165600Y-130583684D01*
X207165600Y-130583684D02*
X207213219Y-130678922D01*
X207213219Y-130678922D02*
X207213219Y-130869398D01*
X207213219Y-130869398D02*
X207165600Y-130964636D01*
X207165600Y-130964636D02*
X207117981Y-131012256D01*
X207117981Y-131012256D02*
X207022743Y-131059875D01*
X207022743Y-131059875D02*
X206832267Y-131059875D01*
X206832267Y-131059875D02*
X206737029Y-131012256D01*
X206737029Y-131012256D02*
X206689410Y-130964636D01*
X206689410Y-130964636D02*
X206641791Y-130869398D01*
X206641791Y-130869398D02*
X206641791Y-130678922D01*
X206641791Y-130678922D02*
X206689410Y-130583684D01*
X206689410Y-130583684D02*
X206737029Y-130536065D01*
X206737029Y-130536065D02*
X206832267Y-130488446D01*
X205784648Y-130059875D02*
X205975124Y-130059875D01*
X205975124Y-130059875D02*
X206070362Y-130107494D01*
X206070362Y-130107494D02*
X206117981Y-130155113D01*
X206117981Y-130155113D02*
X206213219Y-130297970D01*
X206213219Y-130297970D02*
X206260838Y-130488446D01*
X206260838Y-130488446D02*
X206260838Y-130869398D01*
X206260838Y-130869398D02*
X206213219Y-130964636D01*
X206213219Y-130964636D02*
X206165600Y-131012256D01*
X206165600Y-131012256D02*
X206070362Y-131059875D01*
X206070362Y-131059875D02*
X205879886Y-131059875D01*
X205879886Y-131059875D02*
X205784648Y-131012256D01*
X205784648Y-131012256D02*
X205737029Y-130964636D01*
X205737029Y-130964636D02*
X205689410Y-130869398D01*
X205689410Y-130869398D02*
X205689410Y-130631303D01*
X205689410Y-130631303D02*
X205737029Y-130536065D01*
X205737029Y-130536065D02*
X205784648Y-130488446D01*
X205784648Y-130488446D02*
X205879886Y-130440827D01*
X205879886Y-130440827D02*
X206070362Y-130440827D01*
X206070362Y-130440827D02*
X206165600Y-130488446D01*
X206165600Y-130488446D02*
X206213219Y-130536065D01*
X206213219Y-130536065D02*
X206260838Y-130631303D01*
X205260838Y-130964636D02*
X205213219Y-131012256D01*
X205213219Y-131012256D02*
X205260838Y-131059875D01*
X205260838Y-131059875D02*
X205308457Y-131012256D01*
X205308457Y-131012256D02*
X205260838Y-130964636D01*
X205260838Y-130964636D02*
X205260838Y-131059875D01*
X204308458Y-130059875D02*
X204784648Y-130059875D01*
X204784648Y-130059875D02*
X204832267Y-130536065D01*
X204832267Y-130536065D02*
X204784648Y-130488446D01*
X204784648Y-130488446D02*
X204689410Y-130440827D01*
X204689410Y-130440827D02*
X204451315Y-130440827D01*
X204451315Y-130440827D02*
X204356077Y-130488446D01*
X204356077Y-130488446D02*
X204308458Y-130536065D01*
X204308458Y-130536065D02*
X204260839Y-130631303D01*
X204260839Y-130631303D02*
X204260839Y-130869398D01*
X204260839Y-130869398D02*
X204308458Y-130964636D01*
X204308458Y-130964636D02*
X204356077Y-131012256D01*
X204356077Y-131012256D02*
X204451315Y-131059875D01*
X204451315Y-131059875D02*
X204689410Y-131059875D01*
X204689410Y-131059875D02*
X204784648Y-131012256D01*
X204784648Y-131012256D02*
X204832267Y-130964636D01*
X203070362Y-131059875D02*
X203070362Y-130393208D01*
X203070362Y-130488446D02*
X203022743Y-130440827D01*
X203022743Y-130440827D02*
X202927505Y-130393208D01*
X202927505Y-130393208D02*
X202784648Y-130393208D01*
X202784648Y-130393208D02*
X202689410Y-130440827D01*
X202689410Y-130440827D02*
X202641791Y-130536065D01*
X202641791Y-130536065D02*
X202641791Y-131059875D01*
X202641791Y-130536065D02*
X202594172Y-130440827D01*
X202594172Y-130440827D02*
X202498934Y-130393208D01*
X202498934Y-130393208D02*
X202356077Y-130393208D01*
X202356077Y-130393208D02*
X202260838Y-130440827D01*
X202260838Y-130440827D02*
X202213219Y-130536065D01*
X202213219Y-130536065D02*
X202213219Y-131059875D01*
X201737029Y-131059875D02*
X201737029Y-130393208D01*
X201737029Y-130488446D02*
X201689410Y-130440827D01*
X201689410Y-130440827D02*
X201594172Y-130393208D01*
X201594172Y-130393208D02*
X201451315Y-130393208D01*
X201451315Y-130393208D02*
X201356077Y-130440827D01*
X201356077Y-130440827D02*
X201308458Y-130536065D01*
X201308458Y-130536065D02*
X201308458Y-131059875D01*
X201308458Y-130536065D02*
X201260839Y-130440827D01*
X201260839Y-130440827D02*
X201165601Y-130393208D01*
X201165601Y-130393208D02*
X201022744Y-130393208D01*
X201022744Y-130393208D02*
X200927505Y-130440827D01*
X200927505Y-130440827D02*
X200879886Y-130536065D01*
X200879886Y-130536065D02*
X200879886Y-131059875D01*
X225213220Y-132669819D02*
X225213220Y-131669819D01*
X225213220Y-132146009D02*
X224641792Y-132146009D01*
X224641792Y-132669819D02*
X224641792Y-131669819D01*
X224022744Y-132669819D02*
X224117982Y-132622200D01*
X224117982Y-132622200D02*
X224165601Y-132574580D01*
X224165601Y-132574580D02*
X224213220Y-132479342D01*
X224213220Y-132479342D02*
X224213220Y-132193628D01*
X224213220Y-132193628D02*
X224165601Y-132098390D01*
X224165601Y-132098390D02*
X224117982Y-132050771D01*
X224117982Y-132050771D02*
X224022744Y-132003152D01*
X224022744Y-132003152D02*
X223879887Y-132003152D01*
X223879887Y-132003152D02*
X223784649Y-132050771D01*
X223784649Y-132050771D02*
X223737030Y-132098390D01*
X223737030Y-132098390D02*
X223689411Y-132193628D01*
X223689411Y-132193628D02*
X223689411Y-132479342D01*
X223689411Y-132479342D02*
X223737030Y-132574580D01*
X223737030Y-132574580D02*
X223784649Y-132622200D01*
X223784649Y-132622200D02*
X223879887Y-132669819D01*
X223879887Y-132669819D02*
X224022744Y-132669819D01*
X223117982Y-132669819D02*
X223213220Y-132622200D01*
X223213220Y-132622200D02*
X223260839Y-132526961D01*
X223260839Y-132526961D02*
X223260839Y-131669819D01*
X222356077Y-132622200D02*
X222451315Y-132669819D01*
X222451315Y-132669819D02*
X222641791Y-132669819D01*
X222641791Y-132669819D02*
X222737029Y-132622200D01*
X222737029Y-132622200D02*
X222784648Y-132526961D01*
X222784648Y-132526961D02*
X222784648Y-132146009D01*
X222784648Y-132146009D02*
X222737029Y-132050771D01*
X222737029Y-132050771D02*
X222641791Y-132003152D01*
X222641791Y-132003152D02*
X222451315Y-132003152D01*
X222451315Y-132003152D02*
X222356077Y-132050771D01*
X222356077Y-132050771D02*
X222308458Y-132146009D01*
X222308458Y-132146009D02*
X222308458Y-132241247D01*
X222308458Y-132241247D02*
X222784648Y-132336485D01*
X221165600Y-132622200D02*
X221022743Y-132669819D01*
X221022743Y-132669819D02*
X220784648Y-132669819D01*
X220784648Y-132669819D02*
X220689410Y-132622200D01*
X220689410Y-132622200D02*
X220641791Y-132574580D01*
X220641791Y-132574580D02*
X220594172Y-132479342D01*
X220594172Y-132479342D02*
X220594172Y-132384104D01*
X220594172Y-132384104D02*
X220641791Y-132288866D01*
X220641791Y-132288866D02*
X220689410Y-132241247D01*
X220689410Y-132241247D02*
X220784648Y-132193628D01*
X220784648Y-132193628D02*
X220975124Y-132146009D01*
X220975124Y-132146009D02*
X221070362Y-132098390D01*
X221070362Y-132098390D02*
X221117981Y-132050771D01*
X221117981Y-132050771D02*
X221165600Y-131955533D01*
X221165600Y-131955533D02*
X221165600Y-131860295D01*
X221165600Y-131860295D02*
X221117981Y-131765057D01*
X221117981Y-131765057D02*
X221070362Y-131717438D01*
X221070362Y-131717438D02*
X220975124Y-131669819D01*
X220975124Y-131669819D02*
X220737029Y-131669819D01*
X220737029Y-131669819D02*
X220594172Y-131717438D01*
X220165600Y-132669819D02*
X220165600Y-132003152D01*
X220165600Y-131669819D02*
X220213219Y-131717438D01*
X220213219Y-131717438D02*
X220165600Y-131765057D01*
X220165600Y-131765057D02*
X220117981Y-131717438D01*
X220117981Y-131717438D02*
X220165600Y-131669819D01*
X220165600Y-131669819D02*
X220165600Y-131765057D01*
X219784648Y-132003152D02*
X219260839Y-132003152D01*
X219260839Y-132003152D02*
X219784648Y-132669819D01*
X219784648Y-132669819D02*
X219260839Y-132669819D01*
X218498934Y-132622200D02*
X218594172Y-132669819D01*
X218594172Y-132669819D02*
X218784648Y-132669819D01*
X218784648Y-132669819D02*
X218879886Y-132622200D01*
X218879886Y-132622200D02*
X218927505Y-132526961D01*
X218927505Y-132526961D02*
X218927505Y-132146009D01*
X218927505Y-132146009D02*
X218879886Y-132050771D01*
X218879886Y-132050771D02*
X218784648Y-132003152D01*
X218784648Y-132003152D02*
X218594172Y-132003152D01*
X218594172Y-132003152D02*
X218498934Y-132050771D01*
X218498934Y-132050771D02*
X218451315Y-132146009D01*
X218451315Y-132146009D02*
X218451315Y-132241247D01*
X218451315Y-132241247D02*
X218927505Y-132336485D01*
X218022743Y-132574580D02*
X217975124Y-132622200D01*
X217975124Y-132622200D02*
X218022743Y-132669819D01*
X218022743Y-132669819D02*
X218070362Y-132622200D01*
X218070362Y-132622200D02*
X218022743Y-132574580D01*
X218022743Y-132574580D02*
X218022743Y-132669819D01*
X218022743Y-132050771D02*
X217975124Y-132098390D01*
X217975124Y-132098390D02*
X218022743Y-132146009D01*
X218022743Y-132146009D02*
X218070362Y-132098390D01*
X218070362Y-132098390D02*
X218022743Y-132050771D01*
X218022743Y-132050771D02*
X218022743Y-132146009D01*
X216784648Y-132669819D02*
X216784648Y-131669819D01*
X216784648Y-131669819D02*
X216451315Y-132384104D01*
X216451315Y-132384104D02*
X216117982Y-131669819D01*
X216117982Y-131669819D02*
X216117982Y-132669819D01*
X215737029Y-131669819D02*
X215117982Y-131669819D01*
X215117982Y-131669819D02*
X215451315Y-132050771D01*
X215451315Y-132050771D02*
X215308458Y-132050771D01*
X215308458Y-132050771D02*
X215213220Y-132098390D01*
X215213220Y-132098390D02*
X215165601Y-132146009D01*
X215165601Y-132146009D02*
X215117982Y-132241247D01*
X215117982Y-132241247D02*
X215117982Y-132479342D01*
X215117982Y-132479342D02*
X215165601Y-132574580D01*
X215165601Y-132574580D02*
X215213220Y-132622200D01*
X215213220Y-132622200D02*
X215308458Y-132669819D01*
X215308458Y-132669819D02*
X215594172Y-132669819D01*
X215594172Y-132669819D02*
X215689410Y-132622200D01*
X215689410Y-132622200D02*
X215737029Y-132574580D01*
X264172744Y-141969819D02*
X264077506Y-141969819D01*
X264077506Y-141969819D02*
X263982268Y-142017438D01*
X263982268Y-142017438D02*
X263934649Y-142065057D01*
X263934649Y-142065057D02*
X263887030Y-142160295D01*
X263887030Y-142160295D02*
X263839411Y-142350771D01*
X263839411Y-142350771D02*
X263839411Y-142588866D01*
X263839411Y-142588866D02*
X263887030Y-142779342D01*
X263887030Y-142779342D02*
X263934649Y-142874580D01*
X263934649Y-142874580D02*
X263982268Y-142922200D01*
X263982268Y-142922200D02*
X264077506Y-142969819D01*
X264077506Y-142969819D02*
X264172744Y-142969819D01*
X264172744Y-142969819D02*
X264267982Y-142922200D01*
X264267982Y-142922200D02*
X264315601Y-142874580D01*
X264315601Y-142874580D02*
X264363220Y-142779342D01*
X264363220Y-142779342D02*
X264410839Y-142588866D01*
X264410839Y-142588866D02*
X264410839Y-142350771D01*
X264410839Y-142350771D02*
X264363220Y-142160295D01*
X264363220Y-142160295D02*
X264315601Y-142065057D01*
X264315601Y-142065057D02*
X264267982Y-142017438D01*
X264267982Y-142017438D02*
X264172744Y-141969819D01*
X263410839Y-142874580D02*
X263363220Y-142922200D01*
X263363220Y-142922200D02*
X263410839Y-142969819D01*
X263410839Y-142969819D02*
X263458458Y-142922200D01*
X263458458Y-142922200D02*
X263410839Y-142874580D01*
X263410839Y-142874580D02*
X263410839Y-142969819D01*
X262744173Y-141969819D02*
X262648935Y-141969819D01*
X262648935Y-141969819D02*
X262553697Y-142017438D01*
X262553697Y-142017438D02*
X262506078Y-142065057D01*
X262506078Y-142065057D02*
X262458459Y-142160295D01*
X262458459Y-142160295D02*
X262410840Y-142350771D01*
X262410840Y-142350771D02*
X262410840Y-142588866D01*
X262410840Y-142588866D02*
X262458459Y-142779342D01*
X262458459Y-142779342D02*
X262506078Y-142874580D01*
X262506078Y-142874580D02*
X262553697Y-142922200D01*
X262553697Y-142922200D02*
X262648935Y-142969819D01*
X262648935Y-142969819D02*
X262744173Y-142969819D01*
X262744173Y-142969819D02*
X262839411Y-142922200D01*
X262839411Y-142922200D02*
X262887030Y-142874580D01*
X262887030Y-142874580D02*
X262934649Y-142779342D01*
X262934649Y-142779342D02*
X262982268Y-142588866D01*
X262982268Y-142588866D02*
X262982268Y-142350771D01*
X262982268Y-142350771D02*
X262934649Y-142160295D01*
X262934649Y-142160295D02*
X262887030Y-142065057D01*
X262887030Y-142065057D02*
X262839411Y-142017438D01*
X262839411Y-142017438D02*
X262744173Y-141969819D01*
X261506078Y-141969819D02*
X261982268Y-141969819D01*
X261982268Y-141969819D02*
X262029887Y-142446009D01*
X262029887Y-142446009D02*
X261982268Y-142398390D01*
X261982268Y-142398390D02*
X261887030Y-142350771D01*
X261887030Y-142350771D02*
X261648935Y-142350771D01*
X261648935Y-142350771D02*
X261553697Y-142398390D01*
X261553697Y-142398390D02*
X261506078Y-142446009D01*
X261506078Y-142446009D02*
X261458459Y-142541247D01*
X261458459Y-142541247D02*
X261458459Y-142779342D01*
X261458459Y-142779342D02*
X261506078Y-142874580D01*
X261506078Y-142874580D02*
X261553697Y-142922200D01*
X261553697Y-142922200D02*
X261648935Y-142969819D01*
X261648935Y-142969819D02*
X261887030Y-142969819D01*
X261887030Y-142969819D02*
X261982268Y-142922200D01*
X261982268Y-142922200D02*
X262029887Y-142874580D01*
X260458459Y-142969819D02*
X260791792Y-142493628D01*
X261029887Y-142969819D02*
X261029887Y-141969819D01*
X261029887Y-141969819D02*
X260648935Y-141969819D01*
X260648935Y-141969819D02*
X260553697Y-142017438D01*
X260553697Y-142017438D02*
X260506078Y-142065057D01*
X260506078Y-142065057D02*
X260458459Y-142160295D01*
X260458459Y-142160295D02*
X260458459Y-142303152D01*
X260458459Y-142303152D02*
X260506078Y-142398390D01*
X260506078Y-142398390D02*
X260553697Y-142446009D01*
X260553697Y-142446009D02*
X260648935Y-142493628D01*
X260648935Y-142493628D02*
X261029887Y-142493628D01*
X169772744Y-116069819D02*
X169677506Y-116069819D01*
X169677506Y-116069819D02*
X169582268Y-116117438D01*
X169582268Y-116117438D02*
X169534649Y-116165057D01*
X169534649Y-116165057D02*
X169487030Y-116260295D01*
X169487030Y-116260295D02*
X169439411Y-116450771D01*
X169439411Y-116450771D02*
X169439411Y-116688866D01*
X169439411Y-116688866D02*
X169487030Y-116879342D01*
X169487030Y-116879342D02*
X169534649Y-116974580D01*
X169534649Y-116974580D02*
X169582268Y-117022200D01*
X169582268Y-117022200D02*
X169677506Y-117069819D01*
X169677506Y-117069819D02*
X169772744Y-117069819D01*
X169772744Y-117069819D02*
X169867982Y-117022200D01*
X169867982Y-117022200D02*
X169915601Y-116974580D01*
X169915601Y-116974580D02*
X169963220Y-116879342D01*
X169963220Y-116879342D02*
X170010839Y-116688866D01*
X170010839Y-116688866D02*
X170010839Y-116450771D01*
X170010839Y-116450771D02*
X169963220Y-116260295D01*
X169963220Y-116260295D02*
X169915601Y-116165057D01*
X169915601Y-116165057D02*
X169867982Y-116117438D01*
X169867982Y-116117438D02*
X169772744Y-116069819D01*
X169010839Y-116974580D02*
X168963220Y-117022200D01*
X168963220Y-117022200D02*
X169010839Y-117069819D01*
X169010839Y-117069819D02*
X169058458Y-117022200D01*
X169058458Y-117022200D02*
X169010839Y-116974580D01*
X169010839Y-116974580D02*
X169010839Y-117069819D01*
X168344173Y-116069819D02*
X168248935Y-116069819D01*
X168248935Y-116069819D02*
X168153697Y-116117438D01*
X168153697Y-116117438D02*
X168106078Y-116165057D01*
X168106078Y-116165057D02*
X168058459Y-116260295D01*
X168058459Y-116260295D02*
X168010840Y-116450771D01*
X168010840Y-116450771D02*
X168010840Y-116688866D01*
X168010840Y-116688866D02*
X168058459Y-116879342D01*
X168058459Y-116879342D02*
X168106078Y-116974580D01*
X168106078Y-116974580D02*
X168153697Y-117022200D01*
X168153697Y-117022200D02*
X168248935Y-117069819D01*
X168248935Y-117069819D02*
X168344173Y-117069819D01*
X168344173Y-117069819D02*
X168439411Y-117022200D01*
X168439411Y-117022200D02*
X168487030Y-116974580D01*
X168487030Y-116974580D02*
X168534649Y-116879342D01*
X168534649Y-116879342D02*
X168582268Y-116688866D01*
X168582268Y-116688866D02*
X168582268Y-116450771D01*
X168582268Y-116450771D02*
X168534649Y-116260295D01*
X168534649Y-116260295D02*
X168487030Y-116165057D01*
X168487030Y-116165057D02*
X168439411Y-116117438D01*
X168439411Y-116117438D02*
X168344173Y-116069819D01*
X167106078Y-116069819D02*
X167582268Y-116069819D01*
X167582268Y-116069819D02*
X167629887Y-116546009D01*
X167629887Y-116546009D02*
X167582268Y-116498390D01*
X167582268Y-116498390D02*
X167487030Y-116450771D01*
X167487030Y-116450771D02*
X167248935Y-116450771D01*
X167248935Y-116450771D02*
X167153697Y-116498390D01*
X167153697Y-116498390D02*
X167106078Y-116546009D01*
X167106078Y-116546009D02*
X167058459Y-116641247D01*
X167058459Y-116641247D02*
X167058459Y-116879342D01*
X167058459Y-116879342D02*
X167106078Y-116974580D01*
X167106078Y-116974580D02*
X167153697Y-117022200D01*
X167153697Y-117022200D02*
X167248935Y-117069819D01*
X167248935Y-117069819D02*
X167487030Y-117069819D01*
X167487030Y-117069819D02*
X167582268Y-117022200D01*
X167582268Y-117022200D02*
X167629887Y-116974580D01*
X166058459Y-117069819D02*
X166391792Y-116593628D01*
X166629887Y-117069819D02*
X166629887Y-116069819D01*
X166629887Y-116069819D02*
X166248935Y-116069819D01*
X166248935Y-116069819D02*
X166153697Y-116117438D01*
X166153697Y-116117438D02*
X166106078Y-116165057D01*
X166106078Y-116165057D02*
X166058459Y-116260295D01*
X166058459Y-116260295D02*
X166058459Y-116403152D01*
X166058459Y-116403152D02*
X166106078Y-116498390D01*
X166106078Y-116498390D02*
X166153697Y-116546009D01*
X166153697Y-116546009D02*
X166248935Y-116593628D01*
X166248935Y-116593628D02*
X166629887Y-116593628D01*
X260455357Y-139979819D02*
X260788690Y-139503628D01*
X261026785Y-139979819D02*
X261026785Y-138979819D01*
X261026785Y-138979819D02*
X260645833Y-138979819D01*
X260645833Y-138979819D02*
X260550595Y-139027438D01*
X260550595Y-139027438D02*
X260502976Y-139075057D01*
X260502976Y-139075057D02*
X260455357Y-139170295D01*
X260455357Y-139170295D02*
X260455357Y-139313152D01*
X260455357Y-139313152D02*
X260502976Y-139408390D01*
X260502976Y-139408390D02*
X260550595Y-139456009D01*
X260550595Y-139456009D02*
X260645833Y-139503628D01*
X260645833Y-139503628D02*
X261026785Y-139503628D01*
X259598214Y-139313152D02*
X259598214Y-139979819D01*
X259836309Y-138932200D02*
X260074404Y-139646485D01*
X260074404Y-139646485D02*
X259455357Y-139646485D01*
X259026785Y-139979819D02*
X258836309Y-139979819D01*
X258836309Y-139979819D02*
X258741071Y-139932200D01*
X258741071Y-139932200D02*
X258693452Y-139884580D01*
X258693452Y-139884580D02*
X258598214Y-139741723D01*
X258598214Y-139741723D02*
X258550595Y-139551247D01*
X258550595Y-139551247D02*
X258550595Y-139170295D01*
X258550595Y-139170295D02*
X258598214Y-139075057D01*
X258598214Y-139075057D02*
X258645833Y-139027438D01*
X258645833Y-139027438D02*
X258741071Y-138979819D01*
X258741071Y-138979819D02*
X258931547Y-138979819D01*
X258931547Y-138979819D02*
X259026785Y-139027438D01*
X259026785Y-139027438D02*
X259074404Y-139075057D01*
X259074404Y-139075057D02*
X259122023Y-139170295D01*
X259122023Y-139170295D02*
X259122023Y-139408390D01*
X259122023Y-139408390D02*
X259074404Y-139503628D01*
X259074404Y-139503628D02*
X259026785Y-139551247D01*
X259026785Y-139551247D02*
X258931547Y-139598866D01*
X258931547Y-139598866D02*
X258741071Y-139598866D01*
X258741071Y-139598866D02*
X258645833Y-139551247D01*
X258645833Y-139551247D02*
X258598214Y-139503628D01*
X258598214Y-139503628D02*
X258550595Y-139408390D01*
X174955357Y-112779819D02*
X175288690Y-112303628D01*
X175526785Y-112779819D02*
X175526785Y-111779819D01*
X175526785Y-111779819D02*
X175145833Y-111779819D01*
X175145833Y-111779819D02*
X175050595Y-111827438D01*
X175050595Y-111827438D02*
X175002976Y-111875057D01*
X175002976Y-111875057D02*
X174955357Y-111970295D01*
X174955357Y-111970295D02*
X174955357Y-112113152D01*
X174955357Y-112113152D02*
X175002976Y-112208390D01*
X175002976Y-112208390D02*
X175050595Y-112256009D01*
X175050595Y-112256009D02*
X175145833Y-112303628D01*
X175145833Y-112303628D02*
X175526785Y-112303628D01*
X174574404Y-111875057D02*
X174526785Y-111827438D01*
X174526785Y-111827438D02*
X174431547Y-111779819D01*
X174431547Y-111779819D02*
X174193452Y-111779819D01*
X174193452Y-111779819D02*
X174098214Y-111827438D01*
X174098214Y-111827438D02*
X174050595Y-111875057D01*
X174050595Y-111875057D02*
X174002976Y-111970295D01*
X174002976Y-111970295D02*
X174002976Y-112065533D01*
X174002976Y-112065533D02*
X174050595Y-112208390D01*
X174050595Y-112208390D02*
X174622023Y-112779819D01*
X174622023Y-112779819D02*
X174002976Y-112779819D01*
X173145833Y-111779819D02*
X173336309Y-111779819D01*
X173336309Y-111779819D02*
X173431547Y-111827438D01*
X173431547Y-111827438D02*
X173479166Y-111875057D01*
X173479166Y-111875057D02*
X173574404Y-112017914D01*
X173574404Y-112017914D02*
X173622023Y-112208390D01*
X173622023Y-112208390D02*
X173622023Y-112589342D01*
X173622023Y-112589342D02*
X173574404Y-112684580D01*
X173574404Y-112684580D02*
X173526785Y-112732200D01*
X173526785Y-112732200D02*
X173431547Y-112779819D01*
X173431547Y-112779819D02*
X173241071Y-112779819D01*
X173241071Y-112779819D02*
X173145833Y-112732200D01*
X173145833Y-112732200D02*
X173098214Y-112684580D01*
X173098214Y-112684580D02*
X173050595Y-112589342D01*
X173050595Y-112589342D02*
X173050595Y-112351247D01*
X173050595Y-112351247D02*
X173098214Y-112256009D01*
X173098214Y-112256009D02*
X173145833Y-112208390D01*
X173145833Y-112208390D02*
X173241071Y-112160771D01*
X173241071Y-112160771D02*
X173431547Y-112160771D01*
X173431547Y-112160771D02*
X173526785Y-112208390D01*
X173526785Y-112208390D02*
X173574404Y-112256009D01*
X173574404Y-112256009D02*
X173622023Y-112351247D01*
X259042857Y-118754819D02*
X259376190Y-118278628D01*
X259614285Y-118754819D02*
X259614285Y-117754819D01*
X259614285Y-117754819D02*
X259233333Y-117754819D01*
X259233333Y-117754819D02*
X259138095Y-117802438D01*
X259138095Y-117802438D02*
X259090476Y-117850057D01*
X259090476Y-117850057D02*
X259042857Y-117945295D01*
X259042857Y-117945295D02*
X259042857Y-118088152D01*
X259042857Y-118088152D02*
X259090476Y-118183390D01*
X259090476Y-118183390D02*
X259138095Y-118231009D01*
X259138095Y-118231009D02*
X259233333Y-118278628D01*
X259233333Y-118278628D02*
X259614285Y-118278628D01*
X258090476Y-118754819D02*
X258661904Y-118754819D01*
X258376190Y-118754819D02*
X258376190Y-117754819D01*
X258376190Y-117754819D02*
X258471428Y-117897676D01*
X258471428Y-117897676D02*
X258566666Y-117992914D01*
X258566666Y-117992914D02*
X258661904Y-118040533D01*
X257233333Y-117754819D02*
X257423809Y-117754819D01*
X257423809Y-117754819D02*
X257519047Y-117802438D01*
X257519047Y-117802438D02*
X257566666Y-117850057D01*
X257566666Y-117850057D02*
X257661904Y-117992914D01*
X257661904Y-117992914D02*
X257709523Y-118183390D01*
X257709523Y-118183390D02*
X257709523Y-118564342D01*
X257709523Y-118564342D02*
X257661904Y-118659580D01*
X257661904Y-118659580D02*
X257614285Y-118707200D01*
X257614285Y-118707200D02*
X257519047Y-118754819D01*
X257519047Y-118754819D02*
X257328571Y-118754819D01*
X257328571Y-118754819D02*
X257233333Y-118707200D01*
X257233333Y-118707200D02*
X257185714Y-118659580D01*
X257185714Y-118659580D02*
X257138095Y-118564342D01*
X257138095Y-118564342D02*
X257138095Y-118326247D01*
X257138095Y-118326247D02*
X257185714Y-118231009D01*
X257185714Y-118231009D02*
X257233333Y-118183390D01*
X257233333Y-118183390D02*
X257328571Y-118135771D01*
X257328571Y-118135771D02*
X257519047Y-118135771D01*
X257519047Y-118135771D02*
X257614285Y-118183390D01*
X257614285Y-118183390D02*
X257661904Y-118231009D01*
X257661904Y-118231009D02*
X257709523Y-118326247D01*
X257292857Y-139954819D02*
X257626190Y-139478628D01*
X257864285Y-139954819D02*
X257864285Y-138954819D01*
X257864285Y-138954819D02*
X257483333Y-138954819D01*
X257483333Y-138954819D02*
X257388095Y-139002438D01*
X257388095Y-139002438D02*
X257340476Y-139050057D01*
X257340476Y-139050057D02*
X257292857Y-139145295D01*
X257292857Y-139145295D02*
X257292857Y-139288152D01*
X257292857Y-139288152D02*
X257340476Y-139383390D01*
X257340476Y-139383390D02*
X257388095Y-139431009D01*
X257388095Y-139431009D02*
X257483333Y-139478628D01*
X257483333Y-139478628D02*
X257864285Y-139478628D01*
X256959523Y-138954819D02*
X256340476Y-138954819D01*
X256340476Y-138954819D02*
X256673809Y-139335771D01*
X256673809Y-139335771D02*
X256530952Y-139335771D01*
X256530952Y-139335771D02*
X256435714Y-139383390D01*
X256435714Y-139383390D02*
X256388095Y-139431009D01*
X256388095Y-139431009D02*
X256340476Y-139526247D01*
X256340476Y-139526247D02*
X256340476Y-139764342D01*
X256340476Y-139764342D02*
X256388095Y-139859580D01*
X256388095Y-139859580D02*
X256435714Y-139907200D01*
X256435714Y-139907200D02*
X256530952Y-139954819D01*
X256530952Y-139954819D02*
X256816666Y-139954819D01*
X256816666Y-139954819D02*
X256911904Y-139907200D01*
X256911904Y-139907200D02*
X256959523Y-139859580D01*
X255483333Y-138954819D02*
X255673809Y-138954819D01*
X255673809Y-138954819D02*
X255769047Y-139002438D01*
X255769047Y-139002438D02*
X255816666Y-139050057D01*
X255816666Y-139050057D02*
X255911904Y-139192914D01*
X255911904Y-139192914D02*
X255959523Y-139383390D01*
X255959523Y-139383390D02*
X255959523Y-139764342D01*
X255959523Y-139764342D02*
X255911904Y-139859580D01*
X255911904Y-139859580D02*
X255864285Y-139907200D01*
X255864285Y-139907200D02*
X255769047Y-139954819D01*
X255769047Y-139954819D02*
X255578571Y-139954819D01*
X255578571Y-139954819D02*
X255483333Y-139907200D01*
X255483333Y-139907200D02*
X255435714Y-139859580D01*
X255435714Y-139859580D02*
X255388095Y-139764342D01*
X255388095Y-139764342D02*
X255388095Y-139526247D01*
X255388095Y-139526247D02*
X255435714Y-139431009D01*
X255435714Y-139431009D02*
X255483333Y-139383390D01*
X255483333Y-139383390D02*
X255578571Y-139335771D01*
X255578571Y-139335771D02*
X255769047Y-139335771D01*
X255769047Y-139335771D02*
X255864285Y-139383390D01*
X255864285Y-139383390D02*
X255911904Y-139431009D01*
X255911904Y-139431009D02*
X255959523Y-139526247D01*
X214261904Y-111954819D02*
X214261904Y-112764342D01*
X214261904Y-112764342D02*
X214214285Y-112859580D01*
X214214285Y-112859580D02*
X214166666Y-112907200D01*
X214166666Y-112907200D02*
X214071428Y-112954819D01*
X214071428Y-112954819D02*
X213880952Y-112954819D01*
X213880952Y-112954819D02*
X213785714Y-112907200D01*
X213785714Y-112907200D02*
X213738095Y-112859580D01*
X213738095Y-112859580D02*
X213690476Y-112764342D01*
X213690476Y-112764342D02*
X213690476Y-111954819D01*
X213071428Y-112383390D02*
X213166666Y-112335771D01*
X213166666Y-112335771D02*
X213214285Y-112288152D01*
X213214285Y-112288152D02*
X213261904Y-112192914D01*
X213261904Y-112192914D02*
X213261904Y-112145295D01*
X213261904Y-112145295D02*
X213214285Y-112050057D01*
X213214285Y-112050057D02*
X213166666Y-112002438D01*
X213166666Y-112002438D02*
X213071428Y-111954819D01*
X213071428Y-111954819D02*
X212880952Y-111954819D01*
X212880952Y-111954819D02*
X212785714Y-112002438D01*
X212785714Y-112002438D02*
X212738095Y-112050057D01*
X212738095Y-112050057D02*
X212690476Y-112145295D01*
X212690476Y-112145295D02*
X212690476Y-112192914D01*
X212690476Y-112192914D02*
X212738095Y-112288152D01*
X212738095Y-112288152D02*
X212785714Y-112335771D01*
X212785714Y-112335771D02*
X212880952Y-112383390D01*
X212880952Y-112383390D02*
X213071428Y-112383390D01*
X213071428Y-112383390D02*
X213166666Y-112431009D01*
X213166666Y-112431009D02*
X213214285Y-112478628D01*
X213214285Y-112478628D02*
X213261904Y-112573866D01*
X213261904Y-112573866D02*
X213261904Y-112764342D01*
X213261904Y-112764342D02*
X213214285Y-112859580D01*
X213214285Y-112859580D02*
X213166666Y-112907200D01*
X213166666Y-112907200D02*
X213071428Y-112954819D01*
X213071428Y-112954819D02*
X212880952Y-112954819D01*
X212880952Y-112954819D02*
X212785714Y-112907200D01*
X212785714Y-112907200D02*
X212738095Y-112859580D01*
X212738095Y-112859580D02*
X212690476Y-112764342D01*
X212690476Y-112764342D02*
X212690476Y-112573866D01*
X212690476Y-112573866D02*
X212738095Y-112478628D01*
X212738095Y-112478628D02*
X212785714Y-112431009D01*
X212785714Y-112431009D02*
X212880952Y-112383390D01*
X208232857Y-110531019D02*
X208566190Y-110054828D01*
X208804285Y-110531019D02*
X208804285Y-109531019D01*
X208804285Y-109531019D02*
X208423333Y-109531019D01*
X208423333Y-109531019D02*
X208328095Y-109578638D01*
X208328095Y-109578638D02*
X208280476Y-109626257D01*
X208280476Y-109626257D02*
X208232857Y-109721495D01*
X208232857Y-109721495D02*
X208232857Y-109864352D01*
X208232857Y-109864352D02*
X208280476Y-109959590D01*
X208280476Y-109959590D02*
X208328095Y-110007209D01*
X208328095Y-110007209D02*
X208423333Y-110054828D01*
X208423333Y-110054828D02*
X208804285Y-110054828D01*
X207280476Y-110531019D02*
X207851904Y-110531019D01*
X207566190Y-110531019D02*
X207566190Y-109531019D01*
X207566190Y-109531019D02*
X207661428Y-109673876D01*
X207661428Y-109673876D02*
X207756666Y-109769114D01*
X207756666Y-109769114D02*
X207851904Y-109816733D01*
X206328095Y-110531019D02*
X206899523Y-110531019D01*
X206613809Y-110531019D02*
X206613809Y-109531019D01*
X206613809Y-109531019D02*
X206709047Y-109673876D01*
X206709047Y-109673876D02*
X206804285Y-109769114D01*
X206804285Y-109769114D02*
X206899523Y-109816733D01*
X171517857Y-112779819D02*
X171851190Y-112303628D01*
X172089285Y-112779819D02*
X172089285Y-111779819D01*
X172089285Y-111779819D02*
X171708333Y-111779819D01*
X171708333Y-111779819D02*
X171613095Y-111827438D01*
X171613095Y-111827438D02*
X171565476Y-111875057D01*
X171565476Y-111875057D02*
X171517857Y-111970295D01*
X171517857Y-111970295D02*
X171517857Y-112113152D01*
X171517857Y-112113152D02*
X171565476Y-112208390D01*
X171565476Y-112208390D02*
X171613095Y-112256009D01*
X171613095Y-112256009D02*
X171708333Y-112303628D01*
X171708333Y-112303628D02*
X172089285Y-112303628D01*
X170660714Y-112113152D02*
X170660714Y-112779819D01*
X170898809Y-111732200D02*
X171136904Y-112446485D01*
X171136904Y-112446485D02*
X170517857Y-112446485D01*
X170232142Y-111779819D02*
X169565476Y-111779819D01*
X169565476Y-111779819D02*
X169994047Y-112779819D01*
X261242857Y-108104819D02*
X261576190Y-107628628D01*
X261814285Y-108104819D02*
X261814285Y-107104819D01*
X261814285Y-107104819D02*
X261433333Y-107104819D01*
X261433333Y-107104819D02*
X261338095Y-107152438D01*
X261338095Y-107152438D02*
X261290476Y-107200057D01*
X261290476Y-107200057D02*
X261242857Y-107295295D01*
X261242857Y-107295295D02*
X261242857Y-107438152D01*
X261242857Y-107438152D02*
X261290476Y-107533390D01*
X261290476Y-107533390D02*
X261338095Y-107581009D01*
X261338095Y-107581009D02*
X261433333Y-107628628D01*
X261433333Y-107628628D02*
X261814285Y-107628628D01*
X260290476Y-108104819D02*
X260861904Y-108104819D01*
X260576190Y-108104819D02*
X260576190Y-107104819D01*
X260576190Y-107104819D02*
X260671428Y-107247676D01*
X260671428Y-107247676D02*
X260766666Y-107342914D01*
X260766666Y-107342914D02*
X260861904Y-107390533D01*
X259385714Y-107104819D02*
X259861904Y-107104819D01*
X259861904Y-107104819D02*
X259909523Y-107581009D01*
X259909523Y-107581009D02*
X259861904Y-107533390D01*
X259861904Y-107533390D02*
X259766666Y-107485771D01*
X259766666Y-107485771D02*
X259528571Y-107485771D01*
X259528571Y-107485771D02*
X259433333Y-107533390D01*
X259433333Y-107533390D02*
X259385714Y-107581009D01*
X259385714Y-107581009D02*
X259338095Y-107676247D01*
X259338095Y-107676247D02*
X259338095Y-107914342D01*
X259338095Y-107914342D02*
X259385714Y-108009580D01*
X259385714Y-108009580D02*
X259433333Y-108057200D01*
X259433333Y-108057200D02*
X259528571Y-108104819D01*
X259528571Y-108104819D02*
X259766666Y-108104819D01*
X259766666Y-108104819D02*
X259861904Y-108057200D01*
X259861904Y-108057200D02*
X259909523Y-108009580D01*
X168217857Y-112829819D02*
X168551190Y-112353628D01*
X168789285Y-112829819D02*
X168789285Y-111829819D01*
X168789285Y-111829819D02*
X168408333Y-111829819D01*
X168408333Y-111829819D02*
X168313095Y-111877438D01*
X168313095Y-111877438D02*
X168265476Y-111925057D01*
X168265476Y-111925057D02*
X168217857Y-112020295D01*
X168217857Y-112020295D02*
X168217857Y-112163152D01*
X168217857Y-112163152D02*
X168265476Y-112258390D01*
X168265476Y-112258390D02*
X168313095Y-112306009D01*
X168313095Y-112306009D02*
X168408333Y-112353628D01*
X168408333Y-112353628D02*
X168789285Y-112353628D01*
X167360714Y-112163152D02*
X167360714Y-112829819D01*
X167598809Y-111782200D02*
X167836904Y-112496485D01*
X167836904Y-112496485D02*
X167217857Y-112496485D01*
X166694047Y-112258390D02*
X166789285Y-112210771D01*
X166789285Y-112210771D02*
X166836904Y-112163152D01*
X166836904Y-112163152D02*
X166884523Y-112067914D01*
X166884523Y-112067914D02*
X166884523Y-112020295D01*
X166884523Y-112020295D02*
X166836904Y-111925057D01*
X166836904Y-111925057D02*
X166789285Y-111877438D01*
X166789285Y-111877438D02*
X166694047Y-111829819D01*
X166694047Y-111829819D02*
X166503571Y-111829819D01*
X166503571Y-111829819D02*
X166408333Y-111877438D01*
X166408333Y-111877438D02*
X166360714Y-111925057D01*
X166360714Y-111925057D02*
X166313095Y-112020295D01*
X166313095Y-112020295D02*
X166313095Y-112067914D01*
X166313095Y-112067914D02*
X166360714Y-112163152D01*
X166360714Y-112163152D02*
X166408333Y-112210771D01*
X166408333Y-112210771D02*
X166503571Y-112258390D01*
X166503571Y-112258390D02*
X166694047Y-112258390D01*
X166694047Y-112258390D02*
X166789285Y-112306009D01*
X166789285Y-112306009D02*
X166836904Y-112353628D01*
X166836904Y-112353628D02*
X166884523Y-112448866D01*
X166884523Y-112448866D02*
X166884523Y-112639342D01*
X166884523Y-112639342D02*
X166836904Y-112734580D01*
X166836904Y-112734580D02*
X166789285Y-112782200D01*
X166789285Y-112782200D02*
X166694047Y-112829819D01*
X166694047Y-112829819D02*
X166503571Y-112829819D01*
X166503571Y-112829819D02*
X166408333Y-112782200D01*
X166408333Y-112782200D02*
X166360714Y-112734580D01*
X166360714Y-112734580D02*
X166313095Y-112639342D01*
X166313095Y-112639342D02*
X166313095Y-112448866D01*
X166313095Y-112448866D02*
X166360714Y-112353628D01*
X166360714Y-112353628D02*
X166408333Y-112306009D01*
X166408333Y-112306009D02*
X166503571Y-112258390D01*
X264005357Y-139979819D02*
X264338690Y-139503628D01*
X264576785Y-139979819D02*
X264576785Y-138979819D01*
X264576785Y-138979819D02*
X264195833Y-138979819D01*
X264195833Y-138979819D02*
X264100595Y-139027438D01*
X264100595Y-139027438D02*
X264052976Y-139075057D01*
X264052976Y-139075057D02*
X264005357Y-139170295D01*
X264005357Y-139170295D02*
X264005357Y-139313152D01*
X264005357Y-139313152D02*
X264052976Y-139408390D01*
X264052976Y-139408390D02*
X264100595Y-139456009D01*
X264100595Y-139456009D02*
X264195833Y-139503628D01*
X264195833Y-139503628D02*
X264576785Y-139503628D01*
X263100595Y-138979819D02*
X263576785Y-138979819D01*
X263576785Y-138979819D02*
X263624404Y-139456009D01*
X263624404Y-139456009D02*
X263576785Y-139408390D01*
X263576785Y-139408390D02*
X263481547Y-139360771D01*
X263481547Y-139360771D02*
X263243452Y-139360771D01*
X263243452Y-139360771D02*
X263148214Y-139408390D01*
X263148214Y-139408390D02*
X263100595Y-139456009D01*
X263100595Y-139456009D02*
X263052976Y-139551247D01*
X263052976Y-139551247D02*
X263052976Y-139789342D01*
X263052976Y-139789342D02*
X263100595Y-139884580D01*
X263100595Y-139884580D02*
X263148214Y-139932200D01*
X263148214Y-139932200D02*
X263243452Y-139979819D01*
X263243452Y-139979819D02*
X263481547Y-139979819D01*
X263481547Y-139979819D02*
X263576785Y-139932200D01*
X263576785Y-139932200D02*
X263624404Y-139884580D01*
X262433928Y-138979819D02*
X262338690Y-138979819D01*
X262338690Y-138979819D02*
X262243452Y-139027438D01*
X262243452Y-139027438D02*
X262195833Y-139075057D01*
X262195833Y-139075057D02*
X262148214Y-139170295D01*
X262148214Y-139170295D02*
X262100595Y-139360771D01*
X262100595Y-139360771D02*
X262100595Y-139598866D01*
X262100595Y-139598866D02*
X262148214Y-139789342D01*
X262148214Y-139789342D02*
X262195833Y-139884580D01*
X262195833Y-139884580D02*
X262243452Y-139932200D01*
X262243452Y-139932200D02*
X262338690Y-139979819D01*
X262338690Y-139979819D02*
X262433928Y-139979819D01*
X262433928Y-139979819D02*
X262529166Y-139932200D01*
X262529166Y-139932200D02*
X262576785Y-139884580D01*
X262576785Y-139884580D02*
X262624404Y-139789342D01*
X262624404Y-139789342D02*
X262672023Y-139598866D01*
X262672023Y-139598866D02*
X262672023Y-139360771D01*
X262672023Y-139360771D02*
X262624404Y-139170295D01*
X262624404Y-139170295D02*
X262576785Y-139075057D01*
X262576785Y-139075057D02*
X262529166Y-139027438D01*
X262529166Y-139027438D02*
X262433928Y-138979819D01*
X215042857Y-104854819D02*
X215376190Y-104378628D01*
X215614285Y-104854819D02*
X215614285Y-103854819D01*
X215614285Y-103854819D02*
X215233333Y-103854819D01*
X215233333Y-103854819D02*
X215138095Y-103902438D01*
X215138095Y-103902438D02*
X215090476Y-103950057D01*
X215090476Y-103950057D02*
X215042857Y-104045295D01*
X215042857Y-104045295D02*
X215042857Y-104188152D01*
X215042857Y-104188152D02*
X215090476Y-104283390D01*
X215090476Y-104283390D02*
X215138095Y-104331009D01*
X215138095Y-104331009D02*
X215233333Y-104378628D01*
X215233333Y-104378628D02*
X215614285Y-104378628D01*
X214090476Y-104854819D02*
X214661904Y-104854819D01*
X214376190Y-104854819D02*
X214376190Y-103854819D01*
X214376190Y-103854819D02*
X214471428Y-103997676D01*
X214471428Y-103997676D02*
X214566666Y-104092914D01*
X214566666Y-104092914D02*
X214661904Y-104140533D01*
X213471428Y-103854819D02*
X213376190Y-103854819D01*
X213376190Y-103854819D02*
X213280952Y-103902438D01*
X213280952Y-103902438D02*
X213233333Y-103950057D01*
X213233333Y-103950057D02*
X213185714Y-104045295D01*
X213185714Y-104045295D02*
X213138095Y-104235771D01*
X213138095Y-104235771D02*
X213138095Y-104473866D01*
X213138095Y-104473866D02*
X213185714Y-104664342D01*
X213185714Y-104664342D02*
X213233333Y-104759580D01*
X213233333Y-104759580D02*
X213280952Y-104807200D01*
X213280952Y-104807200D02*
X213376190Y-104854819D01*
X213376190Y-104854819D02*
X213471428Y-104854819D01*
X213471428Y-104854819D02*
X213566666Y-104807200D01*
X213566666Y-104807200D02*
X213614285Y-104759580D01*
X213614285Y-104759580D02*
X213661904Y-104664342D01*
X213661904Y-104664342D02*
X213709523Y-104473866D01*
X213709523Y-104473866D02*
X213709523Y-104235771D01*
X213709523Y-104235771D02*
X213661904Y-104045295D01*
X213661904Y-104045295D02*
X213614285Y-103950057D01*
X213614285Y-103950057D02*
X213566666Y-103902438D01*
X213566666Y-103902438D02*
X213471428Y-103854819D01*
D11*
%TO.C,SW8*%
X189441000Y-98399000D02*
G75*
G02*
X188679000Y-98399000I-381000J0D01*
G01*
X188679000Y-98399000D02*
G75*
G02*
X189441000Y-98399000I381000J0D01*
G01*
%TO.C,J15*%
X175931000Y-166351000D02*
G75*
G02*
X175169000Y-166351000I-381000J0D01*
G01*
X175169000Y-166351000D02*
G75*
G02*
X175931000Y-166351000I381000J0D01*
G01*
%TO.C,J14*%
X183154800Y-166391000D02*
G75*
G02*
X182392800Y-166391000I-381000J0D01*
G01*
X182392800Y-166391000D02*
G75*
G02*
X183154800Y-166391000I381000J0D01*
G01*
%TO.C,D11*%
X207100000Y-104300000D02*
G75*
G02*
X206338000Y-104300000I-381000J0D01*
G01*
X206338000Y-104300000D02*
G75*
G02*
X207100000Y-104300000I381000J0D01*
G01*
%TO.C,SW6*%
X231991128Y-166252200D02*
G75*
G02*
X231229128Y-166252200I-381000J0D01*
G01*
X231229128Y-166252200D02*
G75*
G02*
X231991128Y-166252200I381000J0D01*
G01*
%TO.C,SW10*%
X177891000Y-98399000D02*
G75*
G02*
X177129000Y-98399000I-381000J0D01*
G01*
X177129000Y-98399000D02*
G75*
G02*
X177891000Y-98399000I381000J0D01*
G01*
%TO.C,SW4*%
X239871128Y-166276000D02*
G75*
G02*
X239109128Y-166276000I-381000J0D01*
G01*
X239109128Y-166276000D02*
G75*
G02*
X239871128Y-166276000I381000J0D01*
G01*
%TO.C,SW5*%
X247611128Y-166276000D02*
G75*
G02*
X246849128Y-166276000I-381000J0D01*
G01*
X246849128Y-166276000D02*
G75*
G02*
X247611128Y-166276000I381000J0D01*
G01*
D12*
%TO.C,SW1*%
X192427001Y-128369998D02*
G75*
G02*
X192173001Y-128369998I-127000J0D01*
G01*
X192173001Y-128369998D02*
G75*
G02*
X192427001Y-128369998I127000J0D01*
G01*
D11*
%TO.C,SW3*%
X221790000Y-103087200D02*
G75*
G02*
X221028000Y-103087200I-381000J0D01*
G01*
X221028000Y-103087200D02*
G75*
G02*
X221790000Y-103087200I381000J0D01*
G01*
%TO.C,J13*%
X229454800Y-159141000D02*
G75*
G02*
X228692800Y-159141000I-381000J0D01*
G01*
X228692800Y-159141000D02*
G75*
G02*
X229454800Y-159141000I381000J0D01*
G01*
%TO.C,SW9*%
X183691000Y-98399000D02*
G75*
G02*
X182929000Y-98399000I-381000J0D01*
G01*
X182929000Y-98399000D02*
G75*
G02*
X183691000Y-98399000I381000J0D01*
G01*
%TO.C,J6*%
X235881000Y-99100000D02*
G75*
G02*
X235119000Y-99100000I-381000J0D01*
G01*
X235119000Y-99100000D02*
G75*
G02*
X235881000Y-99100000I381000J0D01*
G01*
%TO.C,SW7*%
X195381000Y-98399000D02*
G75*
G02*
X194619000Y-98399000I-381000J0D01*
G01*
X194619000Y-98399000D02*
G75*
G02*
X195381000Y-98399000I381000J0D01*
G01*
%TO.C,J5*%
X250381000Y-99059999D02*
G75*
G02*
X249619000Y-99059999I-381000J0D01*
G01*
X249619000Y-99059999D02*
G75*
G02*
X250381000Y-99059999I381000J0D01*
G01*
D13*
%TO.C,R49*%
X260267224Y-137602500D02*
X259757776Y-137602500D01*
X260267224Y-138647500D02*
X259757776Y-138647500D01*
%TO.C,R26*%
X173932776Y-113177500D02*
X174442224Y-113177500D01*
X173932776Y-114222500D02*
X174442224Y-114222500D01*
%TO.C,R16*%
X258272936Y-115965000D02*
X258727064Y-115965000D01*
X258272936Y-117435000D02*
X258727064Y-117435000D01*
%TO.C,R36*%
X256904724Y-137602500D02*
X256395276Y-137602500D01*
X256904724Y-138647500D02*
X256395276Y-138647500D01*
%TO.C,U8*%
X212800000Y-109340000D02*
X214200000Y-109340000D01*
X214200000Y-111660000D02*
X212300000Y-111660000D01*
%TO.C,R11*%
X207727064Y-107765000D02*
X207272936Y-107765000D01*
X207727064Y-109235000D02*
X207272936Y-109235000D01*
%TO.C,R47*%
X170557776Y-113177500D02*
X171067224Y-113177500D01*
X170557776Y-114222500D02*
X171067224Y-114222500D01*
%TO.C,R15*%
X260372936Y-105265000D02*
X260827064Y-105265000D01*
X260372936Y-106735000D02*
X260827064Y-106735000D01*
%TO.C,R48*%
X167182776Y-113177500D02*
X167692224Y-113177500D01*
X167182776Y-114222500D02*
X167692224Y-114222500D01*
%TO.C,R50*%
X263642224Y-137602500D02*
X263132776Y-137602500D01*
X263642224Y-138647500D02*
X263132776Y-138647500D01*
%TO.C,R10*%
X213665000Y-107227064D02*
X213665000Y-106772936D01*
X215135000Y-107227064D02*
X215135000Y-106772936D01*
%TD*%
M02*
