%TF.GenerationSoftware,KiCad,Pcbnew,7.0.6*%
%TF.CreationDate,2023-11-25T10:56:24-07:00*%
%TF.ProjectId,MainBoard,4d61696e-426f-4617-9264-2e6b69636164,0.1*%
%TF.SameCoordinates,Original*%
%TF.FileFunction,Copper,L4,Bot*%
%TF.FilePolarity,Positive*%
%FSLAX46Y46*%
G04 Gerber Fmt 4.6, Leading zero omitted, Abs format (unit mm)*
G04 Created by KiCad (PCBNEW 7.0.6) date 2023-11-25 10:56:24*
%MOMM*%
%LPD*%
G01*
G04 APERTURE LIST*
%TA.AperFunction,ComponentPad*%
%ADD10C,1.524000*%
%TD*%
%TA.AperFunction,ComponentPad*%
%ADD11C,1.803400*%
%TD*%
%TA.AperFunction,ComponentPad*%
%ADD12C,1.574800*%
%TD*%
%TA.AperFunction,ComponentPad*%
%ADD13R,1.700000X1.700000*%
%TD*%
%TA.AperFunction,ComponentPad*%
%ADD14O,1.700000X1.700000*%
%TD*%
%TA.AperFunction,ComponentPad*%
%ADD15C,0.600000*%
%TD*%
%TA.AperFunction,ComponentPad*%
%ADD16R,1.295400X1.295400*%
%TD*%
%TA.AperFunction,ComponentPad*%
%ADD17C,1.295400*%
%TD*%
%TA.AperFunction,ComponentPad*%
%ADD18C,2.000000*%
%TD*%
%TA.AperFunction,ComponentPad*%
%ADD19O,1.800000X0.900000*%
%TD*%
%TA.AperFunction,ComponentPad*%
%ADD20C,1.507998*%
%TD*%
%TA.AperFunction,ComponentPad*%
%ADD21C,2.209800*%
%TD*%
%TA.AperFunction,ComponentPad*%
%ADD22R,1.600000X1.600000*%
%TD*%
%TA.AperFunction,ComponentPad*%
%ADD23C,1.600000*%
%TD*%
%TA.AperFunction,ComponentPad*%
%ADD24C,1.980000*%
%TD*%
%TA.AperFunction,ComponentPad*%
%ADD25O,0.900000X1.800000*%
%TD*%
%TA.AperFunction,ViaPad*%
%ADD26C,0.800000*%
%TD*%
%TA.AperFunction,Conductor*%
%ADD27C,0.250000*%
%TD*%
%TA.AperFunction,Conductor*%
%ADD28C,0.500000*%
%TD*%
G04 APERTURE END LIST*
D10*
%TO.P,SW8,1,A*%
%TO.N,+3.3V*%
X189060000Y-100300000D03*
%TO.P,SW8,2,B*%
%TO.N,/Bump2*%
X191600000Y-100300000D03*
%TD*%
D11*
%TO.P,M2,1,+*%
%TO.N,Net-(M2-+)*%
X260100000Y-132750000D03*
%TO.P,M2,2,-*%
%TO.N,Net-(M2--)*%
X260100000Y-127750000D03*
%TD*%
D12*
%TO.P,U11,1,PhaseA*%
%TO.N,/IC3*%
X169250000Y-136390000D03*
%TO.P,U11,2,PhaseB*%
%TO.N,/IC4*%
X169250000Y-133850000D03*
%TO.P,U11,3,Vcc*%
%TO.N,+3.3V*%
X169250000Y-131310000D03*
%TO.P,U11,4,GND*%
%TO.N,GND*%
X169250000Y-128770000D03*
%TD*%
%TO.P,J15,1,Pin_1*%
%TO.N,+3.3V*%
X177450000Y-166350000D03*
%TO.P,J15,2,Pin_2*%
%TO.N,GND*%
X177450000Y-163810000D03*
%TO.P,J15,3,Pin_3*%
%TO.N,/Refl3*%
X177450000Y-161270000D03*
%TD*%
%TO.P,U12,1,PhaseA*%
%TO.N,/IC1*%
X261750000Y-115530000D03*
%TO.P,U12,2,PhaseB*%
%TO.N,/IC2*%
X261750000Y-118070000D03*
%TO.P,U12,3,Vcc*%
%TO.N,+3.3V*%
X261750000Y-120610000D03*
%TO.P,U12,4,GND*%
%TO.N,GND*%
X261750000Y-123150000D03*
%TD*%
D13*
%TO.P,J1,1,Pin_1*%
%TO.N,unconnected-(J1-Pin_1-Pad1)*%
X167850000Y-140300000D03*
D14*
%TO.P,J1,2,Pin_2*%
%TO.N,Net-(J1-Pin_2)*%
X167850000Y-142840000D03*
%TO.P,J1,3,Pin_3*%
%TO.N,Net-(J1-Pin_3)*%
X167850000Y-145380000D03*
%TO.P,J1,4,Pin_4*%
%TO.N,GND*%
X167850000Y-147920000D03*
%TO.P,J1,5,Pin_5*%
%TO.N,+3.3V*%
X167850000Y-150460000D03*
%TO.P,J1,6,Pin_6*%
%TO.N,Net-(J1-Pin_6)*%
X167850000Y-153000000D03*
%TD*%
D13*
%TO.P,J18,1,Pin_1*%
%TO.N,/SDA2*%
X253360000Y-163300000D03*
D14*
%TO.P,J18,2,Pin_2*%
%TO.N,GND*%
X255900000Y-163300000D03*
%TO.P,J18,3,Pin_3*%
%TO.N,/SCL2*%
X253360000Y-165840000D03*
%TO.P,J18,4,Pin_4*%
%TO.N,GND*%
X255900000Y-165840000D03*
%TD*%
D12*
%TO.P,J14,1,Pin_1*%
%TO.N,+3.3V*%
X184673800Y-166390000D03*
%TO.P,J14,2,Pin_2*%
%TO.N,GND*%
X184673800Y-163850000D03*
%TO.P,J14,3,Pin_3*%
%TO.N,/Refl2*%
X184673800Y-161310000D03*
%TD*%
%TO.P,D8,1,A1*%
%TO.N,Net-(D8-A1)*%
X211990000Y-106376200D03*
%TO.P,D8,2,K*%
%TO.N,GND*%
X209450000Y-106376200D03*
%TO.P,D8,3,A2*%
%TO.N,Net-(D8-A2)*%
X206910000Y-106376200D03*
%TD*%
D13*
%TO.P,J3,1,Pin_1*%
%TO.N,+5V*%
X200300000Y-84360000D03*
D14*
%TO.P,J3,2,Pin_2*%
%TO.N,GND*%
X200300000Y-86900000D03*
%TO.P,J3,3,Pin_3*%
%TO.N,+5V*%
X197760000Y-84360000D03*
%TO.P,J3,4,Pin_4*%
%TO.N,GND*%
X197760000Y-86900000D03*
%TO.P,J3,5,Pin_5*%
%TO.N,+5V*%
X195220000Y-84360000D03*
%TO.P,J3,6,Pin_6*%
%TO.N,GND*%
X195220000Y-86900000D03*
%TO.P,J3,7,Pin_7*%
%TO.N,+5V*%
X192680000Y-84360000D03*
%TO.P,J3,8,Pin_8*%
%TO.N,GND*%
X192680000Y-86900000D03*
%TO.P,J3,9,Pin_9*%
%TO.N,+5V*%
X190140000Y-84360000D03*
%TO.P,J3,10,Pin_10*%
%TO.N,GND*%
X190140000Y-86900000D03*
%TD*%
D15*
%TO.P,U10,29,PAD*%
%TO.N,GND*%
X179600000Y-111799999D03*
X179600000Y-112899999D03*
X179600000Y-113999999D03*
X179600000Y-115100000D03*
X179620000Y-110779999D03*
X180700000Y-110779999D03*
X180700000Y-115100000D03*
X180700003Y-111799999D03*
X180700003Y-112899999D03*
X180700003Y-113999999D03*
X181760000Y-110779999D03*
X181800000Y-111799999D03*
X181800000Y-112899999D03*
X181800000Y-113999999D03*
X181800000Y-115100000D03*
%TD*%
D13*
%TO.P,J21,1,Pin_1*%
%TO.N,/RH15*%
X233010000Y-118650000D03*
D14*
%TO.P,J21,2,Pin_2*%
%TO.N,/RH14*%
X233010000Y-116110000D03*
%TO.P,J21,3,Pin_3*%
%TO.N,/RH13*%
X235550000Y-118650000D03*
%TO.P,J21,4,Pin_4*%
%TO.N,/RH12*%
X235550000Y-116110000D03*
%TO.P,J21,5,Pin_5*%
%TO.N,GND*%
X238090000Y-118650000D03*
%TO.P,J21,6,Pin_6*%
X238090000Y-116110000D03*
%TD*%
D13*
%TO.P,J19,1,Pin_1*%
%TO.N,/SCK4*%
X237510000Y-126560000D03*
D14*
%TO.P,J19,2,Pin_2*%
%TO.N,/SDI4*%
X240050000Y-126560000D03*
%TO.P,J19,3,Pin_3*%
%TO.N,/SS4\u002A*%
X237510000Y-129100000D03*
%TO.P,J19,4,Pin_4*%
%TO.N,/SDO4*%
X240050000Y-129100000D03*
%TO.P,J19,5,Pin_5*%
%TO.N,GND*%
X237510000Y-131640000D03*
%TO.P,J19,6,Pin_6*%
X240050000Y-131640000D03*
%TD*%
D16*
%TO.P,SW2,1,A*%
%TO.N,Net-(J4-VBUS)*%
X211550000Y-86049999D03*
D17*
%TO.P,SW2,2,B*%
%TO.N,+5V*%
X211550000Y-88050000D03*
%TO.P,SW2,3,C*%
%TO.N,unconnected-(SW2-C-Pad3)*%
X211550000Y-90050001D03*
D18*
%TO.P,SW2,4*%
%TO.N,N/C*%
X211550000Y-83949999D03*
%TO.P,SW2,5*%
X211550000Y-92150000D03*
%TD*%
D15*
%TO.P,U13,29,PAD*%
%TO.N,GND*%
X251400000Y-140099999D03*
X251400000Y-138999999D03*
X251400000Y-137899999D03*
X251400000Y-136799998D03*
X251380000Y-141119999D03*
X250300000Y-141119999D03*
X250300000Y-136799998D03*
X250299997Y-140099999D03*
X250299997Y-138999999D03*
X250299997Y-137899999D03*
X249240000Y-141119999D03*
X249200000Y-140099999D03*
X249200000Y-138999999D03*
X249200000Y-137899999D03*
X249200000Y-136799998D03*
%TD*%
D13*
%TO.P,J20,1,Pin_1*%
%TO.N,/SCK2*%
X171610000Y-140370000D03*
D14*
%TO.P,J20,2,Pin_2*%
%TO.N,/SDO2*%
X174150000Y-140370000D03*
%TO.P,J20,3,Pin_3*%
%TO.N,/SS2\u002A*%
X171610000Y-142910000D03*
%TO.P,J20,4,Pin_4*%
%TO.N,/SDI2*%
X174150000Y-142910000D03*
%TO.P,J20,5,Pin_5*%
%TO.N,GND*%
X171610000Y-145450000D03*
%TO.P,J20,6,Pin_6*%
X174150000Y-145450000D03*
%TD*%
D13*
%TO.P,J8,1,Pin_1*%
%TO.N,/SCK3*%
X201160000Y-158430000D03*
D14*
%TO.P,J8,2,Pin_2*%
%TO.N,/SDO3*%
X203700000Y-158430000D03*
%TO.P,J8,3,Pin_3*%
%TO.N,/SS3\u002A*%
X201160000Y-160970000D03*
%TO.P,J8,4,Pin_4*%
%TO.N,/SDI3*%
X203700000Y-160970000D03*
%TO.P,J8,5,Pin_5*%
%TO.N,GND*%
X201160000Y-163510000D03*
%TO.P,J8,6,Pin_6*%
X203700000Y-163510000D03*
%TO.P,J8,7,Pin_7*%
%TO.N,/U4RX*%
X201160000Y-166050000D03*
%TO.P,J8,8,Pin_8*%
%TO.N,/U4TX*%
X203700000Y-166050000D03*
%TD*%
D13*
%TO.P,J2,1,Pin_1*%
%TO.N,Net-(J2-Pin_1)*%
X185140000Y-84060000D03*
D14*
%TO.P,J2,2,Pin_2*%
%TO.N,GND*%
X185140000Y-86600000D03*
%TO.P,J2,3,Pin_3*%
%TO.N,Net-(J2-Pin_1)*%
X182600000Y-84060000D03*
%TO.P,J2,4,Pin_4*%
%TO.N,GND*%
X182600000Y-86600000D03*
%TO.P,J2,5,Pin_5*%
%TO.N,Net-(J2-Pin_1)*%
X180060000Y-84060000D03*
%TO.P,J2,6,Pin_6*%
%TO.N,GND*%
X180060000Y-86600000D03*
%TO.P,J2,7,Pin_7*%
%TO.N,Net-(J2-Pin_1)*%
X177520000Y-84060000D03*
%TO.P,J2,8,Pin_8*%
%TO.N,GND*%
X177520000Y-86600000D03*
%TO.P,J2,9,Pin_9*%
%TO.N,Net-(J2-Pin_1)*%
X174980000Y-84060000D03*
%TO.P,J2,10,Pin_10*%
%TO.N,GND*%
X174980000Y-86600000D03*
%TD*%
D13*
%TO.P,J23,1,Pin_1*%
%TO.N,/U5TX*%
X171660000Y-152150000D03*
D14*
%TO.P,J23,2,Pin_2*%
%TO.N,/U5RX*%
X174200000Y-152150000D03*
%TO.P,J23,3,Pin_3*%
%TO.N,/U6TX*%
X171660000Y-154690000D03*
%TO.P,J23,4,Pin_4*%
%TO.N,/U6RX*%
X174200000Y-154690000D03*
%TO.P,J23,5,Pin_5*%
%TO.N,GND*%
X171660000Y-157230000D03*
%TO.P,J23,6,Pin_6*%
X174200000Y-157230000D03*
%TD*%
D10*
%TO.P,SW6,1,1*%
%TO.N,+3.3V*%
X231610128Y-164351200D03*
%TO.P,SW6,2,2*%
%TO.N,/Switch1*%
X229070128Y-164351200D03*
%TD*%
D19*
%TO.P,J9,S5*%
%TO.N,N/C*%
X263900000Y-97700000D03*
%TO.P,J9,S6*%
X263900000Y-91100000D03*
%TD*%
D10*
%TO.P,SW10,1,A*%
%TO.N,+3.3V*%
X177510000Y-100300000D03*
%TO.P,SW10,2,B*%
%TO.N,/Bump4*%
X180050000Y-100300000D03*
%TD*%
%TO.P,SW4,1,1*%
%TO.N,+3.3V*%
X239490128Y-164375000D03*
%TO.P,SW4,2,2*%
%TO.N,/Switch2*%
X236950128Y-164375000D03*
%TD*%
%TO.P,SW5,1,1*%
%TO.N,+3.3V*%
X247230128Y-164375000D03*
%TO.P,SW5,2,2*%
%TO.N,/Switch3*%
X244690128Y-164375000D03*
%TD*%
D20*
%TO.P,SW1,1*%
%TO.N,GND*%
X192300001Y-127099998D03*
%TO.P,SW1,2*%
%TO.N,N/C*%
X192300001Y-133600000D03*
%TO.P,SW1,3*%
X187800000Y-127099998D03*
%TO.P,SW1,4*%
%TO.N,Net-(C1-Pad1)*%
X187800000Y-133600000D03*
%TD*%
D21*
%TO.P,SW3,1,1*%
%TO.N,+5V*%
X219500000Y-103087200D03*
%TO.P,SW3,2,2*%
%TO.N,Net-(J4-VBUS)*%
X219500000Y-99124800D03*
%TO.P,SW3,3,3*%
%TO.N,Vdrive*%
X219500000Y-95162400D03*
%TO.P,SW3,4,4*%
%TO.N,Net-(F1-Pad1)*%
X219500000Y-91200000D03*
%TD*%
D22*
%TO.P,C15,1*%
%TO.N,+5V*%
X204305113Y-91700000D03*
D23*
%TO.P,C15,2*%
%TO.N,GND*%
X201805113Y-91700000D03*
%TD*%
D24*
%TO.P,F1,1*%
%TO.N,Net-(F1-Pad1)*%
X228350000Y-109400000D03*
%TO.P,F1,2*%
%TO.N,Net-(J5-Pin_1)*%
X250850000Y-109400000D03*
%TD*%
D12*
%TO.P,J13,1,Pin_1*%
%TO.N,+3.3V*%
X230973800Y-159140000D03*
%TO.P,J13,2,Pin_2*%
%TO.N,GND*%
X230973800Y-156600000D03*
%TO.P,J13,3,Pin_3*%
%TO.N,/Refl1*%
X230973800Y-154060000D03*
%TD*%
D11*
%TO.P,M1,1,+*%
%TO.N,Net-(M1-+)*%
X171000000Y-119050000D03*
%TO.P,M1,2,-*%
%TO.N,Net-(M1--)*%
X171000000Y-124050000D03*
%TD*%
D10*
%TO.P,SW9,1,A*%
%TO.N,+3.3V*%
X183310000Y-100300000D03*
%TO.P,SW9,2,B*%
%TO.N,/Bump3*%
X185850000Y-100300000D03*
%TD*%
D21*
%TO.P,J6,1,Pin_1*%
%TO.N,Net-(J5-Pin_2)*%
X235500000Y-101000000D03*
%TO.P,J6,2,Pin_2*%
%TO.N,GND*%
X229150000Y-91500001D03*
%TD*%
D10*
%TO.P,SW7,1,A*%
%TO.N,+3.3V*%
X195000000Y-100300000D03*
%TO.P,SW7,2,B*%
%TO.N,/Bump1*%
X197540000Y-100300000D03*
%TD*%
D25*
%TO.P,J4,S5*%
%TO.N,N/C*%
X222400000Y-83900000D03*
%TO.P,J4,S6*%
X215800000Y-83900000D03*
%TD*%
D12*
%TO.P,J24,1,Pin_1*%
%TO.N,/U2TX*%
X169100000Y-104000000D03*
%TO.P,J24,2,Pin_2*%
%TO.N,/U2RX*%
X169100000Y-101460000D03*
%TO.P,J24,3,Pin_3*%
%TO.N,/GPS_Reset*%
X169100000Y-98920000D03*
%TO.P,J24,4,Pin_4*%
%TO.N,/GPS_INT*%
X169100000Y-96380000D03*
%TD*%
D13*
%TO.P,J7,1,Pin_1*%
%TO.N,/RA9*%
X190250000Y-155740000D03*
D14*
%TO.P,J7,2,Pin_2*%
%TO.N,/RA10*%
X192790000Y-155740000D03*
%TO.P,J7,3,Pin_3*%
%TO.N,/RH0*%
X190250000Y-158280000D03*
%TO.P,J7,4,Pin_4*%
%TO.N,/RH1*%
X192790000Y-158280000D03*
%TO.P,J7,5,Pin_5*%
%TO.N,/RH2*%
X190250000Y-160820000D03*
%TO.P,J7,6,Pin_6*%
%TO.N,/RH3*%
X192790000Y-160820000D03*
%TO.P,J7,7,Pin_7*%
%TO.N,/RB10*%
X190250000Y-163360000D03*
%TO.P,J7,8,Pin_8*%
%TO.N,/RK1*%
X192790000Y-163360000D03*
%TO.P,J7,9,Pin_9*%
%TO.N,/RK2*%
X190250000Y-165900000D03*
%TO.P,J7,10,Pin_10*%
%TO.N,/RK3*%
X192790000Y-165900000D03*
%TD*%
D13*
%TO.P,J16,1,Pin_1*%
%TO.N,/RE7*%
X191210000Y-117510000D03*
D14*
%TO.P,J16,2,Pin_2*%
%TO.N,/RJ8*%
X193750000Y-117510000D03*
%TO.P,J16,3,Pin_3*%
%TO.N,/RJ13*%
X191210000Y-120050000D03*
%TO.P,J16,4,Pin_4*%
%TO.N,/RJ14*%
X193750000Y-120050000D03*
%TO.P,J16,5,Pin_5*%
%TO.N,/RJ15*%
X191210000Y-122590000D03*
%TO.P,J16,6,Pin_6*%
%TO.N,GND*%
X193750000Y-122590000D03*
%TD*%
D21*
%TO.P,J5,1,Pin_1*%
%TO.N,Net-(J5-Pin_1)*%
X250100000Y-100999999D03*
%TO.P,J5,2,Pin_2*%
%TO.N,Net-(J5-Pin_2)*%
X243750000Y-91500000D03*
%TD*%
D13*
%TO.P,J22,1,Pin_1*%
%TO.N,/U3TX*%
X198050000Y-90650000D03*
D14*
%TO.P,J22,2,Pin_2*%
%TO.N,GND*%
X198050000Y-93190000D03*
%TO.P,J22,3,Pin_3*%
%TO.N,/U3RX*%
X195510000Y-90650000D03*
%TO.P,J22,4,Pin_4*%
%TO.N,GND*%
X195510000Y-93190000D03*
%TD*%
D26*
%TO.N,GND*%
X247500000Y-116000000D03*
X183050000Y-136400000D03*
X208200000Y-156500000D03*
X202310556Y-131798056D03*
X216925501Y-119600000D03*
X259900000Y-93150000D03*
X215100000Y-156500000D03*
X176100000Y-117650000D03*
X215258526Y-144491472D03*
X220400333Y-145999667D03*
X212100000Y-100500000D03*
X213900000Y-97900000D03*
X227100000Y-118400000D03*
X197859787Y-128309787D03*
X187000000Y-121600000D03*
X171250000Y-114350000D03*
X247800000Y-157000000D03*
X225994063Y-157486643D03*
X222100000Y-156500000D03*
X217700000Y-149250000D03*
X253500000Y-129300000D03*
X192950000Y-104750000D03*
X257050000Y-143825500D03*
X251400000Y-115600000D03*
X247700000Y-130600000D03*
X220800000Y-116700000D03*
X244500000Y-127300000D03*
X186400000Y-94400000D03*
X181034787Y-137084787D03*
X172600000Y-92400000D03*
X249790128Y-163575000D03*
X189750000Y-90800000D03*
X174750000Y-107150000D03*
X218100000Y-87900000D03*
X192850000Y-90800000D03*
X247200000Y-144600000D03*
X176400000Y-104950000D03*
X263950000Y-144450000D03*
X201562500Y-139850000D03*
X241990128Y-163525000D03*
X217000000Y-88000000D03*
X263050000Y-160500000D03*
X253400000Y-134000000D03*
X183750000Y-107450000D03*
X204100000Y-97500000D03*
X178050000Y-122450000D03*
X206600000Y-83475000D03*
X174400000Y-90100000D03*
X181600000Y-122450000D03*
X225000000Y-111200000D03*
X207500000Y-151950000D03*
X225400000Y-116300000D03*
X174400000Y-94600000D03*
X225000000Y-113300000D03*
X257800000Y-109400000D03*
X186300000Y-91000000D03*
X219000000Y-157800000D03*
X211300000Y-119700000D03*
X178900000Y-136250000D03*
X222600000Y-114500000D03*
X258173056Y-137773056D03*
X182300000Y-92600000D03*
X228776944Y-132276944D03*
X253600000Y-107530000D03*
X200100000Y-95800000D03*
X200100000Y-100100000D03*
X212100000Y-95700000D03*
X228050000Y-140000000D03*
X208426944Y-145326944D03*
X212100000Y-157800000D03*
X234340128Y-163475000D03*
X227336051Y-122636051D03*
%TO.N,+3.3V*%
X194500000Y-133300000D03*
X245600000Y-135400000D03*
X216600000Y-115400000D03*
X213200000Y-159500000D03*
X240600000Y-146400000D03*
X240600000Y-142300000D03*
X240600000Y-144300000D03*
X190100000Y-111550000D03*
X214900000Y-158300000D03*
X240600000Y-138300000D03*
X207800000Y-89500000D03*
X190050000Y-107500000D03*
X230300000Y-121400000D03*
X203500000Y-98500000D03*
X190100000Y-113550000D03*
X205950000Y-148000000D03*
X205800000Y-101800000D03*
X208000000Y-158300000D03*
X185300000Y-116100000D03*
X240600000Y-140300000D03*
X220300000Y-112200000D03*
X214800356Y-148700351D03*
X190050000Y-109550000D03*
X255400000Y-95000000D03*
X220300000Y-159400000D03*
X190100000Y-105500000D03*
X227100000Y-113900000D03*
X197200000Y-140213420D03*
X254000000Y-103400000D03*
X203600000Y-101800000D03*
X246200000Y-153800000D03*
X227100000Y-159500000D03*
X220700000Y-150450000D03*
X214350000Y-110050000D03*
X261050354Y-110650353D03*
X207750000Y-153162500D03*
X197900000Y-131650000D03*
X211500000Y-115300000D03*
X221800000Y-158400000D03*
X255400000Y-90000000D03*
X215485556Y-106664444D03*
X233300000Y-132250000D03*
%TO.N,Net-(J1-Pin_2)*%
X177250000Y-141350000D03*
X196550000Y-141700000D03*
%TO.N,Net-(J1-Pin_3)*%
X184050000Y-141850000D03*
X196000000Y-142750000D03*
%TO.N,/Refl1*%
X214000000Y-149450000D03*
%TO.N,/Refl2*%
X198499503Y-142700000D03*
X200200000Y-137775000D03*
%TO.N,/Refl3*%
X197550000Y-142700000D03*
X199100000Y-137775000D03*
%TO.N,/SDA2*%
X232389694Y-140018292D03*
X231653888Y-135796112D03*
%TO.N,/SCL2*%
X229926944Y-135023056D03*
X232250000Y-138700000D03*
%TO.N,/RH0*%
X209401731Y-145306046D03*
%TO.N,/RH1*%
X209439127Y-146514762D03*
%TO.N,/RJ13*%
X202657370Y-136624500D03*
%TO.N,/RH2*%
X209200000Y-147550000D03*
%TO.N,/RJ14*%
X201821956Y-137075764D03*
%TO.N,/RH3*%
X210450000Y-147600000D03*
%TO.N,/RJ15*%
X201239950Y-137825980D03*
%TO.N,/U2TX*%
X189250000Y-125800000D03*
%TO.N,Net-(D9-K)*%
X262200000Y-105000000D03*
X263800000Y-104400000D03*
%TO.N,/U2RX*%
X205000000Y-116900000D03*
X200200000Y-104250000D03*
X201800000Y-106050000D03*
%TO.N,/U3TX*%
X205150000Y-111900000D03*
X218100000Y-115800000D03*
%TO.N,/U3RX*%
X218100000Y-116900000D03*
X204202910Y-111967649D03*
%TO.N,/RA9*%
X204430444Y-147480444D03*
%TO.N,/RB10*%
X212405233Y-148075750D03*
%TO.N,/RA10*%
X203280444Y-148630444D03*
%TO.N,/U6TX*%
X201450000Y-134250000D03*
X201510340Y-128575500D03*
%TO.N,/Switch1*%
X228165980Y-136525500D03*
X229350000Y-139250000D03*
%TO.N,/SCK3*%
X218724501Y-145550000D03*
%TO.N,/SS3\u002A*%
X218850000Y-146600000D03*
%TO.N,/SCK4*%
X231450000Y-128200000D03*
%TO.N,/SDO4*%
X229650000Y-129700000D03*
%TO.N,/Switch2*%
X230300000Y-139250000D03*
X229200000Y-136525500D03*
%TO.N,/Switch3*%
X230300000Y-136350000D03*
X231249503Y-139250000D03*
%TO.N,/SS4\u002A*%
X230596809Y-129043540D03*
%TO.N,/SDI4*%
X232457370Y-127307370D03*
%TO.N,/SDO5*%
X211359787Y-149459786D03*
X213924500Y-119400000D03*
%TO.N,/SDI5*%
X215050000Y-119400000D03*
X210051906Y-150710761D03*
%TO.N,/SCK6*%
X232850000Y-149250000D03*
X225975500Y-149396660D03*
%TO.N,/SDO6*%
X231750000Y-145050000D03*
X226701000Y-143800000D03*
%TO.N,/SS6\u002A*%
X224612476Y-148987524D03*
X232700000Y-150350000D03*
%TO.N,/SDI6*%
X227375500Y-144974500D03*
X231324500Y-146200000D03*
%TO.N,/SCK2*%
X196674032Y-134197201D03*
X200400000Y-129675500D03*
%TO.N,/SDI2*%
X197699266Y-133672527D03*
X199300000Y-130274500D03*
%TO.N,/SDO2*%
X202900000Y-130924501D03*
X196775868Y-135532616D03*
%TO.N,/SS2\u002A*%
X179425000Y-144325000D03*
X182100000Y-144800000D03*
%TO.N,/IC2*%
X233850000Y-136925500D03*
%TO.N,/IC3*%
X195767244Y-133915616D03*
X200700000Y-125150000D03*
%TO.N,/IC1*%
X230299527Y-125075500D03*
%TO.N,/SCK1*%
X224500000Y-119200000D03*
X222725498Y-118227889D03*
%TO.N,/Bump1*%
X200700000Y-112025500D03*
X200800000Y-113824500D03*
%TO.N,/Bump2*%
X199200000Y-112025500D03*
X199100000Y-113850000D03*
%TO.N,/Bump3*%
X197650000Y-113824500D03*
X197550000Y-111950000D03*
%TO.N,/Bump4*%
X195750000Y-111950000D03*
X195700000Y-114150000D03*
%TO.N,/LED2*%
X211600000Y-155700000D03*
X220719870Y-152769870D03*
%TO.N,/IMU_INT1*%
X225400000Y-115350497D03*
X222600000Y-119300000D03*
%TO.N,/IMU_INT2*%
X221526944Y-119426944D03*
X220594024Y-115773108D03*
%TO.N,/GPS_INT*%
X208350000Y-118300000D03*
X201700000Y-102850000D03*
X203950000Y-106400000D03*
%TO.N,/GPS_Reset*%
X200650000Y-103400000D03*
X206750000Y-117300000D03*
X202800000Y-105950000D03*
%TO.N,/Status_Yellow*%
X214250000Y-113824500D03*
X214250000Y-112025500D03*
%TO.N,/Status_Green*%
X213250000Y-113824500D03*
X213200000Y-112025500D03*
%TO.N,Vdrive*%
X188450000Y-124100000D03*
X243100000Y-122500000D03*
%TO.N,Net-(D9-A)*%
X263000000Y-100300000D03*
X258700000Y-91600000D03*
%TO.N,Net-(D10-K)*%
X262200500Y-106400000D03*
X263600000Y-106400000D03*
%TO.N,Net-(D10-A)*%
X256900000Y-95000000D03*
X263800000Y-110700000D03*
%TO.N,/MotorCurrent1*%
X175900000Y-112100500D03*
X175900000Y-113699500D03*
X190673056Y-124973056D03*
%TO.N,/MotorCurrent2*%
X255000000Y-138225499D03*
X254900000Y-140000000D03*
X226324500Y-145300000D03*
%TO.N,/Dir2*%
X220339194Y-119414695D03*
X215459674Y-113413562D03*
%TO.N,/RJ8*%
X202460933Y-125864821D03*
%TD*%
D27*
%TO.N,+3.3V*%
X261050354Y-110650353D02*
X254000000Y-103599999D01*
X254000000Y-103599999D02*
X254000000Y-103400000D01*
%TO.N,Net-(J1-Pin_2)*%
X177425000Y-141175000D02*
X177250000Y-141350000D01*
X184329595Y-141175000D02*
X177425000Y-141175000D01*
X184854595Y-141700000D02*
X184329595Y-141175000D01*
X196550000Y-141700000D02*
X184854595Y-141700000D01*
%TO.N,Net-(J1-Pin_3)*%
X184950000Y-142750000D02*
X184050000Y-141850000D01*
X196000000Y-142750000D02*
X184950000Y-142750000D01*
%TO.N,/Refl1*%
X215050000Y-150500000D02*
X219795405Y-150500000D01*
X223355405Y-154060000D02*
X230973800Y-154060000D01*
X214000000Y-149450000D02*
X215050000Y-150500000D01*
X219795405Y-150500000D02*
X223355405Y-154060000D01*
%TO.N,/Refl2*%
X198499503Y-139500497D02*
X198499503Y-142700000D01*
X200200000Y-137800000D02*
X198499503Y-139500497D01*
X200200000Y-137775000D02*
X200200000Y-137800000D01*
%TO.N,/Refl3*%
X198099503Y-142145405D02*
X197824503Y-142420405D01*
X197824503Y-142420405D02*
X197824503Y-142425497D01*
X197824503Y-142425497D02*
X197550000Y-142700000D01*
X199025000Y-137775000D02*
X198099503Y-138700497D01*
X199100000Y-137775000D02*
X199025000Y-137775000D01*
X198099503Y-138700497D02*
X198099503Y-142145405D01*
%TO.N,/SDA2*%
X232925000Y-139482986D02*
X232389694Y-140018292D01*
X231653888Y-135796112D02*
X232925000Y-137067224D01*
X232925000Y-137067224D02*
X232925000Y-139482986D01*
%TO.N,/SCL2*%
X232250000Y-137346112D02*
X229926944Y-135023056D01*
X232250000Y-138700000D02*
X232250000Y-137346112D01*
%TO.N,/RH0*%
X208548196Y-146159581D02*
X206740419Y-146159581D01*
X191480000Y-157050000D02*
X190720000Y-157810000D01*
X195850000Y-157050000D02*
X191480000Y-157050000D01*
X206740419Y-146159581D02*
X195850000Y-157050000D01*
X209401731Y-145306046D02*
X208548196Y-146159581D01*
%TO.N,/RH1*%
X195185686Y-158280000D02*
X193220000Y-158280000D01*
X204790686Y-148675000D02*
X195185686Y-158280000D01*
X208758701Y-146514762D02*
X206598463Y-148675000D01*
X209439127Y-146514762D02*
X208758701Y-146514762D01*
X206598463Y-148675000D02*
X204790686Y-148675000D01*
%TO.N,/RJ13*%
X196407616Y-136207616D02*
X193825000Y-133625000D01*
X202232870Y-136200000D02*
X197063079Y-136200000D01*
X193825000Y-133625000D02*
X193825000Y-124105991D01*
X192335000Y-118925000D02*
X191210000Y-120050000D01*
X202657370Y-136624500D02*
X202232870Y-136200000D01*
X197055463Y-136207616D02*
X196407616Y-136207616D01*
X194215991Y-118925000D02*
X192335000Y-118925000D01*
X194875000Y-119584009D02*
X194215991Y-118925000D01*
X193825000Y-124105991D02*
X194875000Y-123055991D01*
X197063079Y-136200000D02*
X197055463Y-136207616D01*
X194875000Y-123055991D02*
X194875000Y-119584009D01*
%TO.N,/RH2*%
X191520000Y-159550000D02*
X190250000Y-160820000D01*
X208289149Y-147550000D02*
X206764148Y-149075000D01*
X194481372Y-159550000D02*
X191520000Y-159550000D01*
X204956372Y-149075000D02*
X194481372Y-159550000D01*
X206764148Y-149075000D02*
X204956372Y-149075000D01*
X209200000Y-147550000D02*
X208289149Y-147550000D01*
%TO.N,/RJ14*%
X197221148Y-136607616D02*
X196241931Y-136607616D01*
X196241931Y-136607616D02*
X193329000Y-133694685D01*
X193329000Y-133694685D02*
X193329000Y-126673772D01*
X193329000Y-126673772D02*
X192625000Y-125969772D01*
X197228764Y-136600000D02*
X197221148Y-136607616D01*
X201821956Y-137075764D02*
X201346192Y-136600000D01*
X192625000Y-125969772D02*
X192625000Y-121175000D01*
X192625000Y-121175000D02*
X193750000Y-120050000D01*
X201346192Y-136600000D02*
X197228764Y-136600000D01*
%TO.N,/RH3*%
X208575000Y-149475000D02*
X210450000Y-147600000D01*
X193777058Y-160820000D02*
X205122058Y-149475000D01*
X205122058Y-149475000D02*
X208575000Y-149475000D01*
X193220000Y-160820000D02*
X193777058Y-160820000D01*
%TO.N,/RJ15*%
X191200354Y-125400353D02*
X191348056Y-125252651D01*
X200514470Y-137100500D02*
X194345276Y-137100500D01*
X201239950Y-137825980D02*
X200514470Y-137100500D01*
X194345276Y-137100500D02*
X191200354Y-133955578D01*
X191200354Y-133955578D02*
X191200354Y-125400353D01*
X191348056Y-125252651D02*
X191348056Y-122728056D01*
%TO.N,/U2TX*%
X186771001Y-125525096D02*
X188975096Y-125525096D01*
X169100000Y-107854095D02*
X186771001Y-125525096D01*
X169100000Y-104000000D02*
X169100000Y-107854095D01*
X188975096Y-125525096D02*
X189250000Y-125800000D01*
%TO.N,Net-(D9-K)*%
X263800000Y-104400000D02*
X262800000Y-104400000D01*
X262800000Y-104400000D02*
X262200000Y-105000000D01*
%TO.N,/U2RX*%
X201800000Y-113700000D02*
X205000000Y-116900000D01*
X201800000Y-106050000D02*
X201800000Y-113700000D01*
X169100000Y-101460000D02*
X197410000Y-101460000D01*
X197410000Y-101460000D02*
X200200000Y-104250000D01*
%TO.N,/U3TX*%
X217250000Y-114550000D02*
X212950000Y-114550000D01*
X218100000Y-115400000D02*
X217250000Y-114550000D01*
X218100000Y-115800000D02*
X218100000Y-115400000D01*
X212950000Y-114550000D02*
X210300000Y-111900000D01*
X210300000Y-111900000D02*
X205150000Y-111900000D01*
%TO.N,/U3RX*%
X208725000Y-112575000D02*
X204810261Y-112575000D01*
X204810261Y-112575000D02*
X204202910Y-111967649D01*
X209654595Y-112500000D02*
X208800000Y-112500000D01*
X208800000Y-112500000D02*
X208725000Y-112575000D01*
X213304595Y-116150000D02*
X209654595Y-112500000D01*
X218100000Y-116900000D02*
X217350000Y-116150000D01*
X217350000Y-116150000D02*
X213304595Y-116150000D01*
%TO.N,/RA9*%
X204430444Y-147480444D02*
X204310888Y-147600000D01*
X198390000Y-147600000D02*
X190720000Y-155270000D01*
X204310888Y-147600000D02*
X198390000Y-147600000D01*
%TO.N,/RB10*%
X212434787Y-148105304D02*
X212434787Y-150533841D01*
X200750000Y-154600000D02*
X193150000Y-162200000D01*
X209445534Y-153523094D02*
X209376906Y-153523094D01*
X209376906Y-153523094D02*
X208300000Y-154600000D01*
X191410000Y-162200000D02*
X190465000Y-163145000D01*
X193150000Y-162200000D02*
X191410000Y-162200000D01*
X208300000Y-154600000D02*
X200750000Y-154600000D01*
X212405233Y-148075750D02*
X212434787Y-148105304D01*
X212434787Y-150533841D02*
X209445534Y-153523094D01*
%TO.N,/RA10*%
X199880000Y-148650000D02*
X193260000Y-155270000D01*
X203260888Y-148650000D02*
X199880000Y-148650000D01*
X203280444Y-148630444D02*
X203260888Y-148650000D01*
%TO.N,/U6TX*%
X201510340Y-128575500D02*
X201500000Y-128585840D01*
X201500000Y-134200000D02*
X201450000Y-134250000D01*
X201500000Y-128585840D02*
X201500000Y-134200000D01*
%TO.N,/Switch1*%
X229350000Y-137709520D02*
X229350000Y-139250000D01*
X228165980Y-136525500D02*
X229350000Y-137709520D01*
%TO.N,/SCK3*%
X212834787Y-150699526D02*
X208109314Y-155425000D01*
X218724501Y-145550000D02*
X218224501Y-146050000D01*
X205874719Y-157305000D02*
X202285000Y-157305000D01*
X218224501Y-146050000D02*
X215600000Y-146050000D01*
X208109314Y-155425000D02*
X207754719Y-155425000D01*
X207754719Y-155425000D02*
X205874719Y-157305000D01*
X202285000Y-157305000D02*
X201160000Y-158430000D01*
X215600000Y-146050000D02*
X212834787Y-148815213D01*
X212834787Y-148815213D02*
X212834787Y-150699526D01*
%TO.N,/SS3\u002A*%
X215650000Y-146600000D02*
X213234787Y-149015213D01*
X207920405Y-155825000D02*
X204190405Y-159555000D01*
X218850000Y-146600000D02*
X215650000Y-146600000D01*
X208275000Y-155825000D02*
X207920405Y-155825000D01*
X213234787Y-149015213D02*
X213234787Y-150865211D01*
X202575000Y-159555000D02*
X201160000Y-160970000D01*
X213234787Y-150865211D02*
X208275000Y-155825000D01*
X204190405Y-159555000D02*
X202575000Y-159555000D01*
%TO.N,/SCK4*%
X235450000Y-128200000D02*
X237090000Y-126560000D01*
X231450000Y-128200000D02*
X235450000Y-128200000D01*
%TO.N,/SDO4*%
X229650000Y-129700000D02*
X229750000Y-129800000D01*
X236619009Y-129800000D02*
X237044009Y-130225000D01*
X229750000Y-129800000D02*
X236619009Y-129800000D01*
X238925000Y-130225000D02*
X240050000Y-129100000D01*
X237044009Y-130225000D02*
X238925000Y-130225000D01*
%TO.N,/Switch2*%
X230300000Y-137625500D02*
X230300000Y-139250000D01*
X229200000Y-136525500D02*
X230300000Y-137625500D01*
%TO.N,/Switch3*%
X231249503Y-139250000D02*
X231249503Y-137299503D01*
X231249503Y-137299503D02*
X230300000Y-136350000D01*
%TO.N,/SS4\u002A*%
X230596809Y-129043540D02*
X230653269Y-129100000D01*
X230653269Y-129100000D02*
X237510000Y-129100000D01*
%TO.N,/SDI4*%
X234329740Y-125435000D02*
X238925000Y-125435000D01*
X232457370Y-127307370D02*
X234329740Y-125435000D01*
X238925000Y-125435000D02*
X240050000Y-126560000D01*
%TO.N,/SDO5*%
X211125000Y-149224999D02*
X211125000Y-122199500D01*
X211359787Y-149459786D02*
X211125000Y-149224999D01*
X211125000Y-122199500D02*
X213924500Y-119400000D01*
%TO.N,/SDI5*%
X210051906Y-150710761D02*
X211063407Y-150710761D01*
X211600000Y-148745404D02*
X211600000Y-122850000D01*
X212034787Y-149180191D02*
X211600000Y-148745404D01*
X211600000Y-122850000D02*
X215050000Y-119400000D01*
X211063407Y-150710761D02*
X212034787Y-149739381D01*
X212034787Y-149739381D02*
X212034787Y-149180191D01*
%TO.N,/SCK6*%
X232850000Y-149250000D02*
X232700000Y-149400000D01*
X232700000Y-149400000D02*
X225978840Y-149400000D01*
X225978840Y-149400000D02*
X225975500Y-149396660D01*
%TO.N,/SDO6*%
X230999500Y-144299500D02*
X227200500Y-144299500D01*
X231750000Y-145050000D02*
X230999500Y-144299500D01*
X227200500Y-144299500D02*
X226701000Y-143800000D01*
%TO.N,/SS6\u002A*%
X225974952Y-150350000D02*
X232700000Y-150350000D01*
X224612476Y-148987524D02*
X225974952Y-150350000D01*
%TO.N,/SDI6*%
X230724500Y-145600000D02*
X228001000Y-145600000D01*
X228001000Y-145600000D02*
X227375500Y-144974500D01*
X231324500Y-146200000D02*
X230724500Y-145600000D01*
%TO.N,/SCK2*%
X196900000Y-131079719D02*
X198379719Y-129600000D01*
X196740213Y-134131020D02*
X196740213Y-131259787D01*
X196740213Y-131259787D02*
X196900000Y-131100000D01*
X196674032Y-134197201D02*
X196740213Y-134131020D01*
X196900000Y-131100000D02*
X196900000Y-131079719D01*
X198379719Y-129600000D02*
X200324500Y-129600000D01*
X200324500Y-129600000D02*
X200400000Y-129675500D01*
%TO.N,/SDI2*%
X198900000Y-132471793D02*
X198900000Y-130674500D01*
X198900000Y-130674500D02*
X199300000Y-130274500D01*
X197699266Y-133672527D02*
X198900000Y-132471793D01*
%TO.N,/SDO2*%
X201508630Y-135291370D02*
X202985556Y-133814444D01*
X196775868Y-135532616D02*
X197017114Y-135291370D01*
X202985556Y-133814444D02*
X202985556Y-131010057D01*
X202985556Y-131010057D02*
X202900000Y-130924501D01*
X197017114Y-135291370D02*
X201508630Y-135291370D01*
%TO.N,/SS2\u002A*%
X182100000Y-144800000D02*
X179900000Y-144800000D01*
X179900000Y-144800000D02*
X179425000Y-144325000D01*
%TO.N,/IC2*%
X234375500Y-136400000D02*
X243420000Y-136400000D01*
X233850000Y-136925500D02*
X234375500Y-136400000D01*
X243420000Y-136400000D02*
X261750000Y-118070000D01*
%TO.N,/IC3*%
X196000000Y-133682860D02*
X195767244Y-133915616D01*
X200700000Y-125150000D02*
X199550000Y-125150000D01*
X196000000Y-128700000D02*
X196000000Y-133682860D01*
X199550000Y-125150000D02*
X196000000Y-128700000D01*
%TO.N,/IC1*%
X231125027Y-124250000D02*
X253030000Y-124250000D01*
X230299527Y-125075500D02*
X231125027Y-124250000D01*
X253030000Y-124250000D02*
X261750000Y-115530000D01*
%TO.N,/SCK1*%
X222725498Y-118227889D02*
X223527889Y-118227889D01*
X223527889Y-118227889D02*
X224500000Y-119200000D01*
%TO.N,/Bump1*%
X200700000Y-112025500D02*
X200700000Y-113724500D01*
X200700000Y-113724500D02*
X200800000Y-113824500D01*
%TO.N,/Bump2*%
X199200000Y-113750000D02*
X199100000Y-113850000D01*
X199200000Y-112025500D02*
X199200000Y-113750000D01*
%TO.N,/Bump3*%
X197550000Y-113724500D02*
X197650000Y-113824500D01*
X197550000Y-111950000D02*
X197550000Y-113724500D01*
%TO.N,/Bump4*%
X195750000Y-114100000D02*
X195700000Y-114150000D01*
X195750000Y-111950000D02*
X195750000Y-114100000D01*
%TO.N,/LED2*%
X211600000Y-155700000D02*
X217789740Y-155700000D01*
X217789740Y-155700000D02*
X220719870Y-152769870D01*
%TO.N,/IMU_INT1*%
X222050498Y-118750498D02*
X222600000Y-119300000D01*
X224648295Y-115350497D02*
X222050498Y-117948294D01*
X225400000Y-115350497D02*
X224648295Y-115350497D01*
X222050498Y-117948294D02*
X222050498Y-118750498D01*
%TO.N,/IMU_INT2*%
X220125000Y-116242132D02*
X220125000Y-118025000D01*
X220594024Y-115773108D02*
X220125000Y-116242132D01*
X220125000Y-118025000D02*
X221526944Y-119426944D01*
%TO.N,/GPS_INT*%
X208350000Y-117945405D02*
X208350000Y-118300000D01*
X169100000Y-96380000D02*
X197334595Y-96380000D01*
X203527910Y-113123315D02*
X208350000Y-117945405D01*
X203527910Y-106822090D02*
X203527910Y-113123315D01*
X197334595Y-96380000D02*
X201700000Y-100745405D01*
X201700000Y-100745405D02*
X201700000Y-102850000D01*
X203950000Y-106400000D02*
X203527910Y-106822090D01*
%TO.N,/GPS_Reset*%
X197626540Y-98920000D02*
X200650000Y-101943460D01*
X202800000Y-105950000D02*
X202800000Y-113350000D01*
X169100000Y-98920000D02*
X197626540Y-98920000D01*
X200650000Y-101943460D02*
X200650000Y-103400000D01*
X202800000Y-113350000D02*
X206750000Y-117300000D01*
%TO.N,/Status_Yellow*%
X214250000Y-112025500D02*
X214250000Y-113824500D01*
%TO.N,/Status_Green*%
X213200000Y-112025500D02*
X213200000Y-113700000D01*
X213200000Y-113700000D02*
X213250000Y-113750000D01*
X213250000Y-113750000D02*
X213250000Y-113824500D01*
D28*
%TO.N,Vdrive*%
X203500000Y-102600000D02*
X212062400Y-102600000D01*
X243100000Y-118762400D02*
X219500000Y-95162400D01*
X188450000Y-124100000D02*
X188950000Y-123600000D01*
X212062400Y-102600000D02*
X219500000Y-95162400D01*
X188950000Y-117150000D02*
X203500000Y-102600000D01*
X243100000Y-122500000D02*
X243100000Y-118762400D01*
X188950000Y-123600000D02*
X188950000Y-117150000D01*
%TO.N,Net-(J5-Pin_1)*%
X250350000Y-101249999D02*
X250350000Y-108900000D01*
D27*
%TO.N,Net-(D9-A)*%
X258700000Y-96000000D02*
X263000000Y-100300000D01*
X258700000Y-91600000D02*
X258700000Y-96000000D01*
%TO.N,Net-(D10-K)*%
X262200500Y-106400000D02*
X263600000Y-106400000D01*
%TO.N,Net-(D10-A)*%
X258900000Y-97000000D02*
X258900000Y-107154595D01*
X258900000Y-107154595D02*
X262445405Y-110700000D01*
X262445405Y-110700000D02*
X263800000Y-110700000D01*
X256900000Y-95000000D02*
X258900000Y-97000000D01*
%TO.N,/MotorCurrent1*%
X175900000Y-113699500D02*
X175900000Y-112100500D01*
X187173556Y-124973056D02*
X175900000Y-113699500D01*
X190673056Y-124973056D02*
X187173556Y-124973056D01*
%TO.N,/MotorCurrent2*%
X247400000Y-147450000D02*
X253950000Y-140900000D01*
X254000000Y-140900000D02*
X254900000Y-140000000D01*
X254900000Y-138325499D02*
X255000000Y-138225499D01*
X226324500Y-145300000D02*
X228474500Y-147450000D01*
X228474500Y-147450000D02*
X247400000Y-147450000D01*
X254900000Y-140000000D02*
X254900000Y-138325499D01*
X253950000Y-140900000D02*
X254000000Y-140900000D01*
%TO.N,/Dir2*%
X217063562Y-113413562D02*
X219725000Y-116075000D01*
X219725000Y-116075000D02*
X219725000Y-118800501D01*
X219725000Y-118800501D02*
X220339194Y-119414695D01*
X215459674Y-113413562D02*
X217063562Y-113413562D01*
D28*
%TO.N,Net-(J5-Pin_2)*%
X243750000Y-91500000D02*
X243750000Y-92750000D01*
X243750000Y-92750000D02*
X235500000Y-101000000D01*
D27*
%TO.N,/RJ8*%
X202460933Y-125864821D02*
X194106112Y-117510000D01*
%TD*%
M02*
