M48
; DRILL file {KiCad 9.0.2} date 2025-06-11T14:24:18-0700
; FORMAT={-:-/ absolute / inch / decimal}
; #@! TF.CreationDate,2025-06-11T14:24:18-07:00
; #@! TF.GenerationSoftware,Kicad,Pcbnew,9.0.2
; #@! TF.FileFunction,Plated,1,4,PTH
FMAT,2
INCH
; #@! TA.AperFunction,Plated,PTH,ComponentDrill
T1C0.0118
; #@! TA.AperFunction,Plated,PTH,ViaDrill
T2C0.0157
; #@! TA.AperFunction,Plated,PTH,ComponentDrill
T3C0.0197
; #@! TA.AperFunction,Plated,PTH,ComponentDrill
T4C0.0310
; #@! TA.AperFunction,Plated,PTH,ComponentDrill
T5C0.0315
; #@! TA.AperFunction,Plated,PTH,ComponentDrill
T6C0.0394
; #@! TA.AperFunction,Plated,PTH,ComponentDrill
T7C0.0394
; #@! TA.AperFunction,Plated,PTH,ComponentDrill
T8C0.0400
; #@! TA.AperFunction,Plated,PTH,ComponentDrill
T9C0.0420
; #@! TA.AperFunction,Plated,PTH,ComponentDrill
T10C0.0469
; #@! TA.AperFunction,Plated,PTH,ComponentDrill
T11C0.0520
; #@! TA.AperFunction,Plated,PTH,ComponentDrill
T12C0.0590
; #@! TA.AperFunction,Plated,PTH,ComponentDrill
T13C0.0670
%
G90
G05
T1
X7.0709Y-4.4016
X7.0709Y-4.4449
X7.0709Y-4.4882
X7.0709Y-4.5315
X7.0717Y-4.3614
X7.1142Y-4.3614
X7.1142Y-4.5315
X7.1142Y-4.4016
X7.1142Y-4.4449
X7.1142Y-4.4882
X7.1559Y-4.3614
X7.1575Y-4.4016
X7.1575Y-4.4449
X7.1575Y-4.4882
X7.1575Y-4.5315
X9.811Y-5.3858
X9.811Y-5.4291
X9.811Y-5.4724
X9.811Y-5.5157
X9.8126Y-5.5559
X9.8543Y-5.4291
X9.8543Y-5.4724
X9.8543Y-5.5157
X9.8543Y-5.3858
X9.8543Y-5.5559
X9.8969Y-5.5559
X9.8976Y-5.3858
X9.8976Y-5.4291
X9.8976Y-5.4724
X9.8976Y-5.5157
T2
X6.5561Y-4.4291
X6.7953Y-3.6378
X6.8661Y-3.5472
X6.8661Y-3.7244
X6.8799Y-4.2185
X6.9331Y-4.6319
X6.9341Y-4.4134
X6.936Y-4.4774
X7.0098Y-4.8209
X7.0433Y-5.3642
X7.1024Y-4.1299
X7.1274Y-5.397
X7.1496Y-4.8209
X7.1772Y-3.6457
X7.2067Y-5.3701
X7.2343Y-4.2303
X7.2953Y-4.5709
X7.3346Y-3.5827
X7.3386Y-3.7165
X7.3583Y-4.7441
X7.4173Y-4.8543
X7.4508Y-4.9528
X7.4636Y-3.565
X7.4823Y-4.2323
X7.4823Y-4.313
X7.4843Y-4.1535
X7.4843Y-4.3917
X7.4843Y-4.4705
X7.5068Y-4.9202
X7.5453Y-5.3652
X7.5571Y-3.5748
X7.5965Y-4.124
X7.6575Y-5.248
X7.7047Y-4.4941
X7.7067Y-4.4075
X7.7074Y-5.2723
X7.7431Y-5.2834
X7.7471Y-5.3359
X7.751Y-4.4055
X7.752Y-4.4921
X7.7638Y-5.5202
X7.7776Y-5.6181
X7.7834Y-5.2627
X7.7913Y-5.1831
X7.7933Y-4.4075
X7.7953Y-4.4931
X7.8149Y-5.6181
X7.8152Y-5.0516
X7.8228Y-5.6815
X7.8386Y-5.4242
X7.8425Y-4.4035
X7.8425Y-4.4911
X7.8465Y-5.1289
X7.8691Y-5.6506
X7.878Y-3.7717
X7.878Y-3.9409
X7.8819Y-4.1043
X7.8819Y-5.4242
X7.8898Y-5.1053
X7.9016Y-4.9272
X7.9213Y-4.0709
X7.9228Y-5.4262
X7.9311Y-5.2854
X7.9335Y-5.062
X7.9355Y-5.5059
X7.9449Y-4.1752
X7.9457Y-5.3967
X7.9528Y-4.0039
X7.965Y-5.1889
X7.9709Y-4.9553
X7.9786Y-5.3789
X7.9882Y-4.1339
X7.9882Y-5.1545
X7.9987Y-4.4856
X8.0032Y-5.8516
X8.0098Y-4.0965
X8.0118Y-3.878
X8.0157Y-4.0079
X8.0354Y-3.8386
X8.0395Y-4.4082
X8.0433Y-6.1575
X8.0484Y-5.8063
X8.0768Y-4.4055
X8.0906Y-5.9252
X8.1024Y-4.0079
X8.1024Y-4.5157
X8.1083Y-5.8268
X8.1339Y-3.2864
X8.163Y-4.5231
X8.1693Y-5.9823
X8.1791Y-6.03
X8.1811Y-3.5236
X8.189Y-6.2323
X8.1905Y-4.6841
X8.1969Y-6.1614
X8.2018Y-4.5807
X8.2058Y-5.7215
X8.2244Y-4.6683
X8.2362Y-5.8091
X8.2442Y-5.7207
X8.2456Y-5.7683
X8.2698Y-5.9335
X8.2854Y-5.811
X8.3189Y-4.7126
X8.3213Y-5.8842
X8.3268Y-4.5394
X8.3307Y-6.1299
X8.3504Y-3.7677
X8.3504Y-3.9567
X8.3504Y-6.2126
X8.3661Y-4.4016
X8.372Y-5.8268
X8.3819Y-4.4813
X8.3937Y-6.2795
X8.4213Y-3.8543
X8.4222Y-4.7008
X8.4252Y-5.8839
X8.435Y-4.4813
X8.4528Y-5.8583
X8.4606Y-6.2323
X8.4665Y-4.7008
X8.4685Y-6.1614
X8.4747Y-5.6886
X8.4827Y-4.4651
X8.4882Y-4.3228
X8.5276Y-4.5433
X8.5354Y-4.7165
X8.5433Y-3.4646
X8.5709Y-5.876
X8.5866Y-3.4606
X8.5866Y-4.5591
X8.5866Y-4.6024
X8.6112Y-5.7303
X8.6161Y-5.7717
X8.622Y-6.2126
X8.6732Y-6.2756
X8.6748Y-4.7014
X8.6772Y-5.748
X8.689Y-5.9232
X8.6898Y-6.0146
X8.7323Y-6.2362
X8.7441Y-6.1614
X8.843Y-5.8657
X8.8967Y-5.8818
X8.8974Y-6.2003
X8.9104Y-5.7205
X8.9252Y-5.6614
X8.9409Y-6.2795
X8.9502Y-4.8282
X8.9518Y-5.7077
X8.9783Y-5.5118
X8.9829Y-5.375
X9.007Y-5.2078
X9.0236Y-5.375
X9.0295Y-5.4823
X9.0413Y-5.1063
X9.0522Y-5.3159
X9.0669Y-4.9242
X9.0669Y-4.7795
X9.0669Y-5.3681
X9.0669Y-5.4823
X9.0786Y-5.0805
X9.1043Y-5.4823
X9.1073Y-5.7559
X9.1122Y-5.0472
X9.1202Y-5.3463
X9.124Y-5.7106
X9.1437Y-5.4606
X9.1492Y-5.5125
X9.1519Y-5.0121
X9.1614Y-5.9193
X9.1673Y-5.876
X9.185Y-5.2067
X9.2067Y-5.3908
X9.226Y-6.436
X9.4724Y-5.4449
X9.4724Y-5.5236
X9.4724Y-5.6024
X9.4724Y-5.6811
X9.4724Y-5.7638
X9.5272Y-6.438
X9.5709Y-4.8228
X9.626Y-5.0118
X9.6693Y-5.3307
X9.6929Y-6.0551
X9.6969Y-5.7047
X9.7441Y-4.5669
X9.752Y-5.1417
X9.7559Y-6.1811
X9.8343Y-6.44
X9.8937Y-4.5709
X9.9764Y-5.2756
X9.9803Y-5.0906
X9.9843Y-4.4539
X10.0Y-4.2913
X10.0305Y-5.4399
X10.0315Y-5.5157
X10.0866Y-4.5551
X10.1201Y-5.6624
X10.1467Y-4.3976
X10.1496Y-4.5276
X10.1614Y-4.0945
X10.1998Y-4.3082
X10.2323Y-3.8878
X10.2776Y-4.5768
X10.3307Y-4.3543
X10.3307Y-4.4016
X10.3543Y-4.1693
X10.3563Y-6.3189
X10.3858Y-4.5787
X10.3917Y-5.687
X10.4016Y-4.3307
X10.4016Y-4.4016
X10.4213Y-5.4892
T4
X8.3287Y-3.3878
X8.3287Y-3.4665
X8.3287Y-3.5453
T5
X7.9451Y-3.6102
X8.0435Y-3.6102
T6
X7.3937Y-5.0039
X7.3937Y-5.2598
X7.5709Y-5.0039
X7.5709Y-5.2598
T7
X6.6083Y-5.5236
X6.6083Y-5.6236
X6.6083Y-5.7236
X6.6083Y-5.8236
X6.6083Y-5.9236
X6.6083Y-6.0236
X6.7583Y-5.9902
X6.7583Y-6.0902
X6.7583Y-6.1902
X6.8583Y-5.9902
X6.8583Y-6.0902
X6.8583Y-6.1902
X6.889Y-3.3094
X6.889Y-3.4094
X6.989Y-3.3094
X6.989Y-3.4094
X7.089Y-3.3094
X7.089Y-3.4094
X7.189Y-3.3094
X7.189Y-3.4094
X7.289Y-3.3094
X7.289Y-3.4094
X7.4858Y-3.3213
X7.4858Y-3.4213
X7.4902Y-6.1315
X7.4902Y-6.2315
X7.4902Y-6.3315
X7.4902Y-6.4315
X7.4902Y-6.5315
X7.528Y-4.6264
X7.528Y-4.7264
X7.528Y-4.8264
X7.5858Y-3.3213
X7.5858Y-3.4213
X7.5902Y-6.1315
X7.5902Y-6.2315
X7.5902Y-6.3315
X7.5902Y-6.4315
X7.5902Y-6.5315
X7.628Y-4.6264
X7.628Y-4.7264
X7.628Y-4.8264
X7.6858Y-3.3213
X7.6858Y-3.4213
X7.6972Y-3.5689
X7.6972Y-3.6689
X7.7858Y-3.3213
X7.7858Y-3.4213
X7.7972Y-3.5689
X7.7972Y-3.6689
X7.8858Y-3.3213
X7.8858Y-3.4213
X7.9197Y-6.2374
X7.9197Y-6.3374
X7.9197Y-6.4374
X7.9197Y-6.5374
X7.9232Y-4.5778
X7.9232Y-4.6778
X8.0197Y-6.2374
X8.0197Y-6.3374
X8.0197Y-6.4374
X8.0197Y-6.5374
X8.0232Y-4.5778
X8.0232Y-4.6778
X8.7583Y-4.3465
X8.7583Y-4.4465
X8.7583Y-4.5465
X8.7583Y-4.6465
X8.8583Y-4.3465
X8.8583Y-4.4465
X8.8583Y-4.5465
X8.8583Y-4.6465
X9.1736Y-4.5713
X9.1736Y-4.6713
X9.2736Y-4.5713
X9.2736Y-4.6713
X9.3508Y-4.9827
X9.3508Y-5.0827
X9.3508Y-5.1827
X9.3736Y-4.5713
X9.3736Y-4.6713
X9.4508Y-4.9827
X9.4508Y-5.0827
X9.4508Y-5.1827
X9.9748Y-6.4291
X9.9748Y-6.5291
X10.0748Y-6.4291
X10.0748Y-6.5291
T8
X6.9886Y-3.9488
X7.0886Y-3.9488
X7.2169Y-3.9488
X7.3169Y-3.9488
X7.4433Y-3.9488
X7.5433Y-3.9488
X7.6772Y-3.9488
X7.7772Y-3.9488
X9.0185Y-6.4705
X9.1185Y-6.4705
X9.3287Y-6.4715
X9.4287Y-6.4715
X9.6335Y-6.4715
X9.7335Y-6.4715
T9
X6.6575Y-3.7945
X6.6575Y-3.8945
X6.6575Y-3.9945
X6.6575Y-4.0945
X6.9862Y-6.3492
X6.9862Y-6.4492
X6.9862Y-6.5492
X7.2706Y-6.3508
X7.2706Y-6.4508
X7.2706Y-6.5508
X8.1386Y-4.1811
X8.2386Y-4.1811
X8.3386Y-4.1811
X9.0935Y-6.0654
X9.0935Y-6.1654
X9.0935Y-6.2654
T10
X6.6575Y-4.85
X6.6575Y-4.95
X6.6575Y-5.05
X6.6575Y-5.15
X6.6575Y-5.25
X6.6575Y-5.35
X6.7738Y-5.6083
X6.8738Y-5.6083
X6.9738Y-5.6083
X7.0738Y-5.6083
X7.1738Y-5.6083
X7.2738Y-5.6083
X10.3071Y-4.7953
X10.3071Y-4.8953
X10.3071Y-4.9953
X10.3071Y-5.0953
X10.3071Y-5.1953
X10.3071Y-5.2953
T11
X8.9902Y-4.3071
X9.876Y-4.3071
T12
X8.3287Y-3.3051
X8.3287Y-3.628
T13
X8.6417Y-3.5906
X8.6417Y-3.7466
X8.6417Y-3.9026
X8.6417Y-4.0586
X9.0217Y-3.6024
X9.2717Y-3.9764
X9.5925Y-3.6008
X9.8425Y-3.9748
T3
G00X8.4961Y-3.313
M15
G01X8.4961Y-3.2854
M16
G05
G00X8.7559Y-3.313
M15
G01X8.7559Y-3.2854
M16
G05
G00X10.376Y-3.8071
M15
G01X10.4035Y-3.8071
M16
G05
G00X10.376Y-4.0669
M15
G01X10.4035Y-4.0669
M16
G05
M30
