M48
; DRILL file {KiCad 7.0.6} date Sat Nov 25 15:45:05 2023
; FORMAT={-:-/ absolute / inch / decimal}
; #@! TF.CreationDate,2023-11-25T15:45:05-07:00
; #@! TF.GenerationSoftware,Kicad,Pcbnew,7.0.6
; #@! TF.FileFunction,Plated,1,4,PTH
FMAT,2
INCH
; #@! TA.AperFunction,Plated,PTH,ComponentDrill
T1C0.0118
; #@! TA.AperFunction,Plated,PTH,ViaDrill
T2C0.0157
; #@! TA.AperFunction,Plated,PTH,ComponentDrill
T3C0.0197
; #@! TA.AperFunction,Plated,PTH,ComponentDrill
T4C0.0310
; #@! TA.AperFunction,Plated,PTH,ComponentDrill
T5C0.0315
; #@! TA.AperFunction,Plated,PTH,ComponentDrill
T6C0.0394
; #@! TA.AperFunction,Plated,PTH,ComponentDrill
T7C0.0394
; #@! TA.AperFunction,Plated,PTH,ComponentDrill
T8C0.0400
; #@! TA.AperFunction,Plated,PTH,ComponentDrill
T9C0.0420
; #@! TA.AperFunction,Plated,PTH,ComponentDrill
T10C0.0510
; #@! TA.AperFunction,Plated,PTH,ComponentDrill
T11C0.0520
; #@! TA.AperFunction,Plated,PTH,ComponentDrill
T12C0.0590
; #@! TA.AperFunction,Plated,PTH,ComponentDrill
T13C0.0670
%
G90
G05
T1
X7.0709Y-4.4016
X7.0709Y-4.4449
X7.0709Y-4.4882
X7.0709Y-4.5315
X7.0717Y-4.3614
X7.1142Y-4.3614
X7.1142Y-4.5315
X7.1142Y-4.4016
X7.1142Y-4.4449
X7.1142Y-4.4882
X7.1559Y-4.3614
X7.1575Y-4.4016
X7.1575Y-4.4449
X7.1575Y-4.4882
X7.1575Y-4.5315
X9.811Y-5.3858
X9.811Y-5.4291
X9.811Y-5.4724
X9.811Y-5.5157
X9.8126Y-5.5559
X9.8543Y-5.4291
X9.8543Y-5.4724
X9.8543Y-5.5157
X9.8543Y-5.3858
X9.8543Y-5.5559
X9.8969Y-5.5559
X9.8976Y-5.3858
X9.8976Y-5.4291
X9.8976Y-5.4724
X9.8976Y-5.5157
T2
X6.7421Y-4.502
X6.7953Y-3.6378
X6.8661Y-3.5472
X6.8661Y-3.7244
X6.8799Y-4.2185
X6.9252Y-4.4134
X6.9252Y-4.4764
X6.9331Y-4.6319
X6.9449Y-4.1319
X6.9783Y-5.565
X7.0098Y-4.8209
X7.0433Y-5.3642
X7.064Y-5.6821
X7.1274Y-5.397
X7.1496Y-4.8209
X7.1693Y-5.7008
X7.1772Y-3.6457
X7.2067Y-5.3701
X7.2343Y-4.2303
X7.2461Y-5.5846
X7.2953Y-4.5709
X7.3346Y-3.5827
X7.3386Y-3.7165
X7.3622Y-4.7874
X7.4193Y-4.8858
X7.4508Y-4.9528
X7.4705Y-3.5748
X7.4823Y-4.2323
X7.4823Y-4.313
X7.4843Y-4.1535
X7.4843Y-4.3917
X7.4843Y-4.4705
X7.5068Y-4.9202
X7.5925Y-3.5748
X7.5965Y-4.124
X7.6575Y-5.248
X7.7047Y-4.4941
X7.7067Y-4.4075
X7.7074Y-5.2723
X7.7165Y-5.6201
X7.7382Y-5.5787
X7.7431Y-5.2834
X7.7471Y-5.3359
X7.7638Y-5.5202
X7.7776Y-4.4075
X7.7776Y-5.6181
X7.7815Y-4.4813
X7.7834Y-5.2627
X7.7898Y-5.0516
X7.7913Y-5.1831
X7.8149Y-5.6181
X7.8386Y-4.4823
X7.8386Y-5.4242
X7.8425Y-4.4105
X7.8465Y-5.1289
X7.878Y-3.7717
X7.878Y-3.9409
X7.8819Y-4.1043
X7.8819Y-5.4242
X7.8898Y-5.1053
X7.8996Y-4.0709
X7.9016Y-4.4105
X7.9016Y-4.9272
X7.9055Y-4.4813
X7.9228Y-5.4262
X7.9311Y-5.2854
X7.9335Y-5.062
X7.9355Y-5.5059
X7.9409Y-4.0492
X7.9449Y-4.1752
X7.9457Y-5.3967
X7.965Y-5.1889
X7.9709Y-4.9553
X7.9786Y-5.3789
X7.9843Y-4.1713
X7.9882Y-5.1545
X8.0032Y-5.8516
X8.0118Y-3.878
X8.0157Y-4.0079
X8.0295Y-4.189
X8.0354Y-3.8386
X8.0395Y-4.4082
X8.0484Y-5.8063
X8.0709Y-4.6024
X8.0768Y-4.4055
X8.1024Y-4.0079
X8.1083Y-5.8268
X8.1339Y-3.2864
X8.1398Y-4.6181
X8.1693Y-5.9823
X8.1791Y-6.03
X8.1811Y-3.5236
X8.189Y-6.2323
X8.1969Y-6.1614
X8.2028Y-4.6575
X8.2058Y-5.7215
X8.2362Y-5.8091
X8.2442Y-5.7207
X8.2456Y-5.7683
X8.2698Y-5.9335
X8.2854Y-5.811
X8.3189Y-4.7126
X8.3213Y-5.8842
X8.3268Y-4.5394
X8.3307Y-6.1299
X8.3504Y-3.7677
X8.3504Y-3.9567
X8.3504Y-6.2126
X8.3624Y-5.8298
X8.3937Y-4.4105
X8.3937Y-6.2795
X8.3957Y-4.4813
X8.4213Y-3.8543
X8.4222Y-4.7008
X8.4252Y-5.8839
X8.435Y-4.4105
X8.435Y-4.4813
X8.439Y-4.3327
X8.4567Y-5.8543
X8.4606Y-6.2323
X8.4665Y-4.7008
X8.4685Y-6.1614
X8.4747Y-5.6886
X8.4827Y-4.4651
X8.4837Y-4.1994
X8.5276Y-4.5433
X8.5404Y-4.7087
X8.5433Y-3.4646
X8.5709Y-5.876
X8.5866Y-3.4606
X8.5866Y-4.5591
X8.5866Y-4.6024
X8.6112Y-5.7303
X8.6161Y-5.7717
X8.622Y-6.2126
X8.6732Y-4.4173
X8.6732Y-6.2756
X8.6748Y-4.7014
X8.6772Y-5.748
X8.6848Y-4.558
X8.689Y-5.9232
X8.6898Y-6.0146
X8.6929Y-4.5945
X8.7215Y-4.7018
X8.7323Y-6.2362
X8.7441Y-6.1614
X8.7638Y-4.5079
X8.7638Y-4.6969
X8.7687Y-4.6546
X8.8386Y-4.6929
X8.843Y-5.8657
X8.8583Y-4.378
X8.8583Y-4.4606
X8.874Y-4.5414
X8.874Y-4.5787
X8.8967Y-5.8818
X8.8974Y-6.2003
X8.9104Y-5.7205
X8.9252Y-5.6614
X8.9409Y-4.4843
X8.9409Y-4.6614
X8.9409Y-6.2795
X8.9502Y-4.8282
X8.9518Y-5.7077
X8.9783Y-5.5118
X8.9829Y-5.375
X9.007Y-5.2078
X9.0236Y-5.375
X9.0295Y-5.4823
X9.0413Y-5.1063
X9.0522Y-5.3159
X9.0669Y-4.9242
X9.0669Y-4.7795
X9.0669Y-5.3681
X9.0669Y-5.4823
X9.0786Y-5.0805
X9.1043Y-5.4823
X9.1073Y-5.7559
X9.1122Y-5.0472
X9.1202Y-5.3463
X9.124Y-5.7106
X9.1437Y-5.4606
X9.1492Y-5.5125
X9.1519Y-5.0121
X9.1614Y-5.9193
X9.1673Y-5.876
X9.185Y-5.2067
X9.2067Y-5.3908
X9.226Y-6.436
X9.4724Y-5.4449
X9.4724Y-5.5236
X9.4724Y-5.6024
X9.4724Y-5.6811
X9.4724Y-5.7638
X9.5272Y-6.438
X9.5709Y-4.8228
X9.626Y-5.0118
X9.6693Y-5.3307
X9.6929Y-6.0551
X9.7323Y-5.6929
X9.7441Y-4.5669
X9.752Y-5.1417
X9.7559Y-6.1811
X9.8343Y-6.44
X9.8976Y-4.5512
X9.9764Y-5.2756
X9.9803Y-5.0906
X9.9843Y-4.2335
X10.0Y-4.0709
X10.0354Y-5.5118
X10.0394Y-5.4419
X10.0551Y-3.5433
X10.0551Y-3.7402
X10.1142Y-3.7402
X10.1201Y-5.6624
X10.1496Y-4.3071
X10.1643Y-5.4241
X10.185Y-3.6063
X10.2323Y-3.6673
X10.2776Y-4.3563
X10.3228Y-4.1339
X10.3229Y-4.189
X10.3543Y-3.9488
X10.3563Y-6.3189
X10.378Y-4.189
X10.3858Y-4.1102
X10.3858Y-4.3583
X10.3917Y-5.687
T4
X8.3287Y-3.3878
X8.3287Y-3.4665
X8.3287Y-3.5453
T5
X7.9451Y-3.6102
X8.0435Y-3.6102
T6
X7.3937Y-5.0039
X7.3937Y-5.2598
X7.5709Y-5.0039
X7.5709Y-5.2598
T7
X6.6083Y-5.5236
X6.6083Y-5.6236
X6.6083Y-5.7236
X6.6083Y-5.8236
X6.6083Y-5.9236
X6.6083Y-6.0236
X6.7563Y-5.5264
X6.7563Y-5.6264
X6.7563Y-5.7264
X6.7583Y-5.9902
X6.7583Y-6.0902
X6.7583Y-6.1902
X6.8563Y-5.5264
X6.8563Y-5.6264
X6.8563Y-5.7264
X6.8583Y-5.9902
X6.8583Y-6.0902
X6.8583Y-6.1902
X6.889Y-3.3094
X6.889Y-3.4094
X6.989Y-3.3094
X6.989Y-3.4094
X7.089Y-3.3094
X7.089Y-3.4094
X7.189Y-3.3094
X7.189Y-3.4094
X7.289Y-3.3094
X7.289Y-3.4094
X7.4858Y-3.3213
X7.4858Y-3.4213
X7.4902Y-6.1315
X7.4902Y-6.2315
X7.4902Y-6.3315
X7.4902Y-6.4315
X7.4902Y-6.5315
X7.528Y-4.6264
X7.528Y-4.7264
X7.528Y-4.8264
X7.5858Y-3.3213
X7.5858Y-3.4213
X7.5902Y-6.1315
X7.5902Y-6.2315
X7.5902Y-6.3315
X7.5902Y-6.4315
X7.5902Y-6.5315
X7.628Y-4.6264
X7.628Y-4.7264
X7.628Y-4.8264
X7.6858Y-3.3213
X7.6858Y-3.4213
X7.6972Y-3.5689
X7.6972Y-3.6689
X7.7858Y-3.3213
X7.7858Y-3.4213
X7.7972Y-3.5689
X7.7972Y-3.6689
X7.8858Y-3.3213
X7.8858Y-3.4213
X7.9197Y-6.2374
X7.9197Y-6.3374
X7.9197Y-6.4374
X7.9197Y-6.5374
X8.0197Y-6.2374
X8.0197Y-6.3374
X8.0197Y-6.4374
X8.0197Y-6.5374
X9.1736Y-4.5713
X9.1736Y-4.6713
X9.2736Y-4.5713
X9.2736Y-4.6713
X9.3508Y-4.9827
X9.3508Y-5.0827
X9.3508Y-5.1827
X9.3736Y-4.5713
X9.3736Y-4.6713
X9.4508Y-4.9827
X9.4508Y-5.0827
X9.4508Y-5.1827
X9.9748Y-6.4291
X9.9748Y-6.5291
X10.0748Y-6.4291
X10.0748Y-6.5291
T8
X6.9886Y-3.9488
X7.0886Y-3.9488
X7.2169Y-3.9488
X7.3169Y-3.9488
X7.4433Y-3.9488
X7.5433Y-3.9488
X7.6772Y-3.9488
X7.7772Y-3.9488
X9.0185Y-6.4705
X9.1185Y-6.4705
X9.3287Y-6.4715
X9.4287Y-6.4715
X9.6335Y-6.4715
X9.7335Y-6.4715
T9
X6.6575Y-3.7945
X6.6575Y-3.8945
X6.6575Y-3.9945
X6.6575Y-4.0945
X6.6634Y-5.0697
X6.6634Y-5.1697
X6.6634Y-5.2697
X6.6634Y-5.3697
X6.9862Y-6.3492
X6.9862Y-6.4492
X6.9862Y-6.5492
X7.2706Y-6.3508
X7.2706Y-6.4508
X7.2706Y-6.5508
X8.1461Y-4.188
X8.2461Y-4.188
X8.3461Y-4.188
X9.0935Y-6.0654
X9.0935Y-6.1654
X9.0935Y-6.2654
X10.3051Y-4.5484
X10.3051Y-4.6484
X10.3051Y-4.7484
X10.3051Y-4.8484
T10
X6.7323Y-4.687
X6.7323Y-4.8839
X10.2402Y-5.0295
X10.2402Y-5.2264
T11
X8.9902Y-4.3071
X9.876Y-4.3071
T12
X8.3287Y-3.3051
X8.3287Y-3.628
T13
X8.6417Y-3.5906
X8.6417Y-3.7466
X8.6417Y-3.9026
X8.6417Y-4.0586
X9.0217Y-3.6024
X9.2717Y-3.9764
X9.5965Y-3.6024
X9.8465Y-3.9764
T3
G00X8.4961Y-3.3169
M15
G01X8.4961Y-3.2894
M16
G05
G00X8.7559Y-3.3169
M15
G01X8.7559Y-3.2894
M16
G05
G00X10.376Y-3.5866
M15
G01X10.4035Y-3.5866
M16
G05
G00X10.376Y-3.8465
M15
G01X10.4035Y-3.8465
M16
G05
T0
M30
