%TF.GenerationSoftware,KiCad,Pcbnew,9.0.2*%
%TF.CreationDate,2025-05-19T09:33:39-07:00*%
%TF.ProjectId,MainBoard,4d61696e-426f-4617-9264-2e6b69636164,0.3*%
%TF.SameCoordinates,Original*%
%TF.FileFunction,Legend,Bot*%
%TF.FilePolarity,Positive*%
%FSLAX46Y46*%
G04 Gerber Fmt 4.6, Leading zero omitted, Abs format (unit mm)*
G04 Created by KiCad (PCBNEW 9.0.2) date 2025-05-19 09:33:39*
%MOMM*%
%LPD*%
G01*
G04 APERTURE LIST*
%ADD10C,0.150000*%
%ADD11C,0.508000*%
%ADD12C,0.254000*%
%ADD13C,0.120000*%
G04 APERTURE END LIST*
D10*
X167437500Y-114222500D02*
X167437500Y-115800000D01*
X263387500Y-136011250D02*
X263387500Y-137588750D01*
X170812500Y-114222500D02*
X172400000Y-115800000D01*
X258406250Y-136011250D02*
X259993750Y-137588750D01*
X172400000Y-115800000D02*
X173932776Y-114222500D01*
X256650000Y-137602500D02*
X258406250Y-136011250D01*
X236363220Y-140830043D02*
X236363220Y-139830043D01*
X236363220Y-139830043D02*
X236029887Y-140544328D01*
X236029887Y-140544328D02*
X235696554Y-139830043D01*
X235696554Y-139830043D02*
X235696554Y-140830043D01*
X234791792Y-140830043D02*
X234791792Y-140306233D01*
X234791792Y-140306233D02*
X234839411Y-140210995D01*
X234839411Y-140210995D02*
X234934649Y-140163376D01*
X234934649Y-140163376D02*
X235125125Y-140163376D01*
X235125125Y-140163376D02*
X235220363Y-140210995D01*
X234791792Y-140782424D02*
X234887030Y-140830043D01*
X234887030Y-140830043D02*
X235125125Y-140830043D01*
X235125125Y-140830043D02*
X235220363Y-140782424D01*
X235220363Y-140782424D02*
X235267982Y-140687185D01*
X235267982Y-140687185D02*
X235267982Y-140591947D01*
X235267982Y-140591947D02*
X235220363Y-140496709D01*
X235220363Y-140496709D02*
X235125125Y-140449090D01*
X235125125Y-140449090D02*
X234887030Y-140449090D01*
X234887030Y-140449090D02*
X234791792Y-140401471D01*
X234458458Y-140163376D02*
X234077506Y-140163376D01*
X234315601Y-139830043D02*
X234315601Y-140687185D01*
X234315601Y-140687185D02*
X234267982Y-140782424D01*
X234267982Y-140782424D02*
X234172744Y-140830043D01*
X234172744Y-140830043D02*
X234077506Y-140830043D01*
X233887029Y-140163376D02*
X233506077Y-140163376D01*
X233744172Y-139830043D02*
X233744172Y-140687185D01*
X233744172Y-140687185D02*
X233696553Y-140782424D01*
X233696553Y-140782424D02*
X233601315Y-140830043D01*
X233601315Y-140830043D02*
X233506077Y-140830043D01*
X233172743Y-140830043D02*
X233172743Y-139830043D01*
X232744172Y-140830043D02*
X232744172Y-140306233D01*
X232744172Y-140306233D02*
X232791791Y-140210995D01*
X232791791Y-140210995D02*
X232887029Y-140163376D01*
X232887029Y-140163376D02*
X233029886Y-140163376D01*
X233029886Y-140163376D02*
X233125124Y-140210995D01*
X233125124Y-140210995D02*
X233172743Y-140258614D01*
X231887029Y-140782424D02*
X231982267Y-140830043D01*
X231982267Y-140830043D02*
X232172743Y-140830043D01*
X232172743Y-140830043D02*
X232267981Y-140782424D01*
X232267981Y-140782424D02*
X232315600Y-140687185D01*
X232315600Y-140687185D02*
X232315600Y-140306233D01*
X232315600Y-140306233D02*
X232267981Y-140210995D01*
X232267981Y-140210995D02*
X232172743Y-140163376D01*
X232172743Y-140163376D02*
X231982267Y-140163376D01*
X231982267Y-140163376D02*
X231887029Y-140210995D01*
X231887029Y-140210995D02*
X231839410Y-140306233D01*
X231839410Y-140306233D02*
X231839410Y-140401471D01*
X231839410Y-140401471D02*
X232315600Y-140496709D01*
X231506076Y-140163376D02*
X231315600Y-140830043D01*
X231315600Y-140830043D02*
X231125124Y-140353852D01*
X231125124Y-140353852D02*
X230934648Y-140830043D01*
X230934648Y-140830043D02*
X230744172Y-140163376D01*
X229648933Y-140782424D02*
X229506076Y-140830043D01*
X229506076Y-140830043D02*
X229267981Y-140830043D01*
X229267981Y-140830043D02*
X229172743Y-140782424D01*
X229172743Y-140782424D02*
X229125124Y-140734804D01*
X229125124Y-140734804D02*
X229077505Y-140639566D01*
X229077505Y-140639566D02*
X229077505Y-140544328D01*
X229077505Y-140544328D02*
X229125124Y-140449090D01*
X229125124Y-140449090D02*
X229172743Y-140401471D01*
X229172743Y-140401471D02*
X229267981Y-140353852D01*
X229267981Y-140353852D02*
X229458457Y-140306233D01*
X229458457Y-140306233D02*
X229553695Y-140258614D01*
X229553695Y-140258614D02*
X229601314Y-140210995D01*
X229601314Y-140210995D02*
X229648933Y-140115757D01*
X229648933Y-140115757D02*
X229648933Y-140020519D01*
X229648933Y-140020519D02*
X229601314Y-139925281D01*
X229601314Y-139925281D02*
X229553695Y-139877662D01*
X229553695Y-139877662D02*
X229458457Y-139830043D01*
X229458457Y-139830043D02*
X229220362Y-139830043D01*
X229220362Y-139830043D02*
X229077505Y-139877662D01*
X228220362Y-140830043D02*
X228220362Y-140306233D01*
X228220362Y-140306233D02*
X228267981Y-140210995D01*
X228267981Y-140210995D02*
X228363219Y-140163376D01*
X228363219Y-140163376D02*
X228553695Y-140163376D01*
X228553695Y-140163376D02*
X228648933Y-140210995D01*
X228220362Y-140782424D02*
X228315600Y-140830043D01*
X228315600Y-140830043D02*
X228553695Y-140830043D01*
X228553695Y-140830043D02*
X228648933Y-140782424D01*
X228648933Y-140782424D02*
X228696552Y-140687185D01*
X228696552Y-140687185D02*
X228696552Y-140591947D01*
X228696552Y-140591947D02*
X228648933Y-140496709D01*
X228648933Y-140496709D02*
X228553695Y-140449090D01*
X228553695Y-140449090D02*
X228315600Y-140449090D01*
X228315600Y-140449090D02*
X228220362Y-140401471D01*
X227887028Y-140163376D02*
X227506076Y-140163376D01*
X227744171Y-139830043D02*
X227744171Y-140687185D01*
X227744171Y-140687185D02*
X227696552Y-140782424D01*
X227696552Y-140782424D02*
X227601314Y-140830043D01*
X227601314Y-140830043D02*
X227506076Y-140830043D01*
X227029885Y-140830043D02*
X227125123Y-140782424D01*
X227125123Y-140782424D02*
X227172742Y-140734804D01*
X227172742Y-140734804D02*
X227220361Y-140639566D01*
X227220361Y-140639566D02*
X227220361Y-140353852D01*
X227220361Y-140353852D02*
X227172742Y-140258614D01*
X227172742Y-140258614D02*
X227125123Y-140210995D01*
X227125123Y-140210995D02*
X227029885Y-140163376D01*
X227029885Y-140163376D02*
X226887028Y-140163376D01*
X226887028Y-140163376D02*
X226791790Y-140210995D01*
X226791790Y-140210995D02*
X226744171Y-140258614D01*
X226744171Y-140258614D02*
X226696552Y-140353852D01*
X226696552Y-140353852D02*
X226696552Y-140639566D01*
X226696552Y-140639566D02*
X226744171Y-140734804D01*
X226744171Y-140734804D02*
X226791790Y-140782424D01*
X226791790Y-140782424D02*
X226887028Y-140830043D01*
X226887028Y-140830043D02*
X227029885Y-140830043D01*
X226220361Y-140782424D02*
X226220361Y-140830043D01*
X226220361Y-140830043D02*
X226267980Y-140925281D01*
X226267980Y-140925281D02*
X226315599Y-140972900D01*
X224839409Y-139830043D02*
X224744171Y-139830043D01*
X224744171Y-139830043D02*
X224648933Y-139877662D01*
X224648933Y-139877662D02*
X224601314Y-139925281D01*
X224601314Y-139925281D02*
X224553695Y-140020519D01*
X224553695Y-140020519D02*
X224506076Y-140210995D01*
X224506076Y-140210995D02*
X224506076Y-140449090D01*
X224506076Y-140449090D02*
X224553695Y-140639566D01*
X224553695Y-140639566D02*
X224601314Y-140734804D01*
X224601314Y-140734804D02*
X224648933Y-140782424D01*
X224648933Y-140782424D02*
X224744171Y-140830043D01*
X224744171Y-140830043D02*
X224839409Y-140830043D01*
X224839409Y-140830043D02*
X224934647Y-140782424D01*
X224934647Y-140782424D02*
X224982266Y-140734804D01*
X224982266Y-140734804D02*
X225029885Y-140639566D01*
X225029885Y-140639566D02*
X225077504Y-140449090D01*
X225077504Y-140449090D02*
X225077504Y-140210995D01*
X225077504Y-140210995D02*
X225029885Y-140020519D01*
X225029885Y-140020519D02*
X224982266Y-139925281D01*
X224982266Y-139925281D02*
X224934647Y-139877662D01*
X224934647Y-139877662D02*
X224839409Y-139830043D01*
X223601314Y-139830043D02*
X224077504Y-139830043D01*
X224077504Y-139830043D02*
X224125123Y-140306233D01*
X224125123Y-140306233D02*
X224077504Y-140258614D01*
X224077504Y-140258614D02*
X223982266Y-140210995D01*
X223982266Y-140210995D02*
X223744171Y-140210995D01*
X223744171Y-140210995D02*
X223648933Y-140258614D01*
X223648933Y-140258614D02*
X223601314Y-140306233D01*
X223601314Y-140306233D02*
X223553695Y-140401471D01*
X223553695Y-140401471D02*
X223553695Y-140639566D01*
X223553695Y-140639566D02*
X223601314Y-140734804D01*
X223601314Y-140734804D02*
X223648933Y-140782424D01*
X223648933Y-140782424D02*
X223744171Y-140830043D01*
X223744171Y-140830043D02*
X223982266Y-140830043D01*
X223982266Y-140830043D02*
X224077504Y-140782424D01*
X224077504Y-140782424D02*
X224125123Y-140734804D01*
X222410838Y-139782424D02*
X223267980Y-141068138D01*
X221553695Y-140830043D02*
X222125123Y-140830043D01*
X221839409Y-140830043D02*
X221839409Y-139830043D01*
X221839409Y-139830043D02*
X221934647Y-139972900D01*
X221934647Y-139972900D02*
X222029885Y-140068138D01*
X222029885Y-140068138D02*
X222125123Y-140115757D01*
X220982266Y-140258614D02*
X221077504Y-140210995D01*
X221077504Y-140210995D02*
X221125123Y-140163376D01*
X221125123Y-140163376D02*
X221172742Y-140068138D01*
X221172742Y-140068138D02*
X221172742Y-140020519D01*
X221172742Y-140020519D02*
X221125123Y-139925281D01*
X221125123Y-139925281D02*
X221077504Y-139877662D01*
X221077504Y-139877662D02*
X220982266Y-139830043D01*
X220982266Y-139830043D02*
X220791790Y-139830043D01*
X220791790Y-139830043D02*
X220696552Y-139877662D01*
X220696552Y-139877662D02*
X220648933Y-139925281D01*
X220648933Y-139925281D02*
X220601314Y-140020519D01*
X220601314Y-140020519D02*
X220601314Y-140068138D01*
X220601314Y-140068138D02*
X220648933Y-140163376D01*
X220648933Y-140163376D02*
X220696552Y-140210995D01*
X220696552Y-140210995D02*
X220791790Y-140258614D01*
X220791790Y-140258614D02*
X220982266Y-140258614D01*
X220982266Y-140258614D02*
X221077504Y-140306233D01*
X221077504Y-140306233D02*
X221125123Y-140353852D01*
X221125123Y-140353852D02*
X221172742Y-140449090D01*
X221172742Y-140449090D02*
X221172742Y-140639566D01*
X221172742Y-140639566D02*
X221125123Y-140734804D01*
X221125123Y-140734804D02*
X221077504Y-140782424D01*
X221077504Y-140782424D02*
X220982266Y-140830043D01*
X220982266Y-140830043D02*
X220791790Y-140830043D01*
X220791790Y-140830043D02*
X220696552Y-140782424D01*
X220696552Y-140782424D02*
X220648933Y-140734804D01*
X220648933Y-140734804D02*
X220601314Y-140639566D01*
X220601314Y-140639566D02*
X220601314Y-140449090D01*
X220601314Y-140449090D02*
X220648933Y-140353852D01*
X220648933Y-140353852D02*
X220696552Y-140306233D01*
X220696552Y-140306233D02*
X220791790Y-140258614D01*
X219458457Y-139782424D02*
X220315599Y-141068138D01*
X219172742Y-139925281D02*
X219125123Y-139877662D01*
X219125123Y-139877662D02*
X219029885Y-139830043D01*
X219029885Y-139830043D02*
X218791790Y-139830043D01*
X218791790Y-139830043D02*
X218696552Y-139877662D01*
X218696552Y-139877662D02*
X218648933Y-139925281D01*
X218648933Y-139925281D02*
X218601314Y-140020519D01*
X218601314Y-140020519D02*
X218601314Y-140115757D01*
X218601314Y-140115757D02*
X218648933Y-140258614D01*
X218648933Y-140258614D02*
X219220361Y-140830043D01*
X219220361Y-140830043D02*
X218601314Y-140830043D01*
X217982266Y-139830043D02*
X217887028Y-139830043D01*
X217887028Y-139830043D02*
X217791790Y-139877662D01*
X217791790Y-139877662D02*
X217744171Y-139925281D01*
X217744171Y-139925281D02*
X217696552Y-140020519D01*
X217696552Y-140020519D02*
X217648933Y-140210995D01*
X217648933Y-140210995D02*
X217648933Y-140449090D01*
X217648933Y-140449090D02*
X217696552Y-140639566D01*
X217696552Y-140639566D02*
X217744171Y-140734804D01*
X217744171Y-140734804D02*
X217791790Y-140782424D01*
X217791790Y-140782424D02*
X217887028Y-140830043D01*
X217887028Y-140830043D02*
X217982266Y-140830043D01*
X217982266Y-140830043D02*
X218077504Y-140782424D01*
X218077504Y-140782424D02*
X218125123Y-140734804D01*
X218125123Y-140734804D02*
X218172742Y-140639566D01*
X218172742Y-140639566D02*
X218220361Y-140449090D01*
X218220361Y-140449090D02*
X218220361Y-140210995D01*
X218220361Y-140210995D02*
X218172742Y-140020519D01*
X218172742Y-140020519D02*
X218125123Y-139925281D01*
X218125123Y-139925281D02*
X218077504Y-139877662D01*
X218077504Y-139877662D02*
X217982266Y-139830043D01*
X217267980Y-139925281D02*
X217220361Y-139877662D01*
X217220361Y-139877662D02*
X217125123Y-139830043D01*
X217125123Y-139830043D02*
X216887028Y-139830043D01*
X216887028Y-139830043D02*
X216791790Y-139877662D01*
X216791790Y-139877662D02*
X216744171Y-139925281D01*
X216744171Y-139925281D02*
X216696552Y-140020519D01*
X216696552Y-140020519D02*
X216696552Y-140115757D01*
X216696552Y-140115757D02*
X216744171Y-140258614D01*
X216744171Y-140258614D02*
X217315599Y-140830043D01*
X217315599Y-140830043D02*
X216696552Y-140830043D01*
X215791790Y-139830043D02*
X216267980Y-139830043D01*
X216267980Y-139830043D02*
X216315599Y-140306233D01*
X216315599Y-140306233D02*
X216267980Y-140258614D01*
X216267980Y-140258614D02*
X216172742Y-140210995D01*
X216172742Y-140210995D02*
X215934647Y-140210995D01*
X215934647Y-140210995D02*
X215839409Y-140258614D01*
X215839409Y-140258614D02*
X215791790Y-140306233D01*
X215791790Y-140306233D02*
X215744171Y-140401471D01*
X215744171Y-140401471D02*
X215744171Y-140639566D01*
X215744171Y-140639566D02*
X215791790Y-140734804D01*
X215791790Y-140734804D02*
X215839409Y-140782424D01*
X215839409Y-140782424D02*
X215934647Y-140830043D01*
X215934647Y-140830043D02*
X216172742Y-140830043D01*
X216172742Y-140830043D02*
X216267980Y-140782424D01*
X216267980Y-140782424D02*
X216315599Y-140734804D01*
X236363220Y-141916177D02*
X236029887Y-141916177D01*
X235887030Y-142439987D02*
X236363220Y-142439987D01*
X236363220Y-142439987D02*
X236363220Y-141439987D01*
X236363220Y-141439987D02*
X235887030Y-141439987D01*
X235458458Y-141773320D02*
X235458458Y-142439987D01*
X235458458Y-141868558D02*
X235410839Y-141820939D01*
X235410839Y-141820939D02*
X235315601Y-141773320D01*
X235315601Y-141773320D02*
X235172744Y-141773320D01*
X235172744Y-141773320D02*
X235077506Y-141820939D01*
X235077506Y-141820939D02*
X235029887Y-141916177D01*
X235029887Y-141916177D02*
X235029887Y-142439987D01*
X234125125Y-141773320D02*
X234125125Y-142582844D01*
X234125125Y-142582844D02*
X234172744Y-142678082D01*
X234172744Y-142678082D02*
X234220363Y-142725701D01*
X234220363Y-142725701D02*
X234315601Y-142773320D01*
X234315601Y-142773320D02*
X234458458Y-142773320D01*
X234458458Y-142773320D02*
X234553696Y-142725701D01*
X234125125Y-142392368D02*
X234220363Y-142439987D01*
X234220363Y-142439987D02*
X234410839Y-142439987D01*
X234410839Y-142439987D02*
X234506077Y-142392368D01*
X234506077Y-142392368D02*
X234553696Y-142344748D01*
X234553696Y-142344748D02*
X234601315Y-142249510D01*
X234601315Y-142249510D02*
X234601315Y-141963796D01*
X234601315Y-141963796D02*
X234553696Y-141868558D01*
X234553696Y-141868558D02*
X234506077Y-141820939D01*
X234506077Y-141820939D02*
X234410839Y-141773320D01*
X234410839Y-141773320D02*
X234220363Y-141773320D01*
X234220363Y-141773320D02*
X234125125Y-141820939D01*
X233648934Y-142439987D02*
X233648934Y-141773320D01*
X233648934Y-141439987D02*
X233696553Y-141487606D01*
X233696553Y-141487606D02*
X233648934Y-141535225D01*
X233648934Y-141535225D02*
X233601315Y-141487606D01*
X233601315Y-141487606D02*
X233648934Y-141439987D01*
X233648934Y-141439987D02*
X233648934Y-141535225D01*
X233172744Y-141773320D02*
X233172744Y-142439987D01*
X233172744Y-141868558D02*
X233125125Y-141820939D01*
X233125125Y-141820939D02*
X233029887Y-141773320D01*
X233029887Y-141773320D02*
X232887030Y-141773320D01*
X232887030Y-141773320D02*
X232791792Y-141820939D01*
X232791792Y-141820939D02*
X232744173Y-141916177D01*
X232744173Y-141916177D02*
X232744173Y-142439987D01*
X231887030Y-142392368D02*
X231982268Y-142439987D01*
X231982268Y-142439987D02*
X232172744Y-142439987D01*
X232172744Y-142439987D02*
X232267982Y-142392368D01*
X232267982Y-142392368D02*
X232315601Y-142297129D01*
X232315601Y-142297129D02*
X232315601Y-141916177D01*
X232315601Y-141916177D02*
X232267982Y-141820939D01*
X232267982Y-141820939D02*
X232172744Y-141773320D01*
X232172744Y-141773320D02*
X231982268Y-141773320D01*
X231982268Y-141773320D02*
X231887030Y-141820939D01*
X231887030Y-141820939D02*
X231839411Y-141916177D01*
X231839411Y-141916177D02*
X231839411Y-142011415D01*
X231839411Y-142011415D02*
X232315601Y-142106653D01*
X231029887Y-142392368D02*
X231125125Y-142439987D01*
X231125125Y-142439987D02*
X231315601Y-142439987D01*
X231315601Y-142439987D02*
X231410839Y-142392368D01*
X231410839Y-142392368D02*
X231458458Y-142297129D01*
X231458458Y-142297129D02*
X231458458Y-141916177D01*
X231458458Y-141916177D02*
X231410839Y-141820939D01*
X231410839Y-141820939D02*
X231315601Y-141773320D01*
X231315601Y-141773320D02*
X231125125Y-141773320D01*
X231125125Y-141773320D02*
X231029887Y-141820939D01*
X231029887Y-141820939D02*
X230982268Y-141916177D01*
X230982268Y-141916177D02*
X230982268Y-142011415D01*
X230982268Y-142011415D02*
X231458458Y-142106653D01*
X230553696Y-142439987D02*
X230553696Y-141773320D01*
X230553696Y-141963796D02*
X230506077Y-141868558D01*
X230506077Y-141868558D02*
X230458458Y-141820939D01*
X230458458Y-141820939D02*
X230363220Y-141773320D01*
X230363220Y-141773320D02*
X230267982Y-141773320D01*
X229934648Y-142439987D02*
X229934648Y-141773320D01*
X229934648Y-141439987D02*
X229982267Y-141487606D01*
X229982267Y-141487606D02*
X229934648Y-141535225D01*
X229934648Y-141535225D02*
X229887029Y-141487606D01*
X229887029Y-141487606D02*
X229934648Y-141439987D01*
X229934648Y-141439987D02*
X229934648Y-141535225D01*
X229458458Y-141773320D02*
X229458458Y-142439987D01*
X229458458Y-141868558D02*
X229410839Y-141820939D01*
X229410839Y-141820939D02*
X229315601Y-141773320D01*
X229315601Y-141773320D02*
X229172744Y-141773320D01*
X229172744Y-141773320D02*
X229077506Y-141820939D01*
X229077506Y-141820939D02*
X229029887Y-141916177D01*
X229029887Y-141916177D02*
X229029887Y-142439987D01*
X228125125Y-141773320D02*
X228125125Y-142582844D01*
X228125125Y-142582844D02*
X228172744Y-142678082D01*
X228172744Y-142678082D02*
X228220363Y-142725701D01*
X228220363Y-142725701D02*
X228315601Y-142773320D01*
X228315601Y-142773320D02*
X228458458Y-142773320D01*
X228458458Y-142773320D02*
X228553696Y-142725701D01*
X228125125Y-142392368D02*
X228220363Y-142439987D01*
X228220363Y-142439987D02*
X228410839Y-142439987D01*
X228410839Y-142439987D02*
X228506077Y-142392368D01*
X228506077Y-142392368D02*
X228553696Y-142344748D01*
X228553696Y-142344748D02*
X228601315Y-142249510D01*
X228601315Y-142249510D02*
X228601315Y-141963796D01*
X228601315Y-141963796D02*
X228553696Y-141868558D01*
X228553696Y-141868558D02*
X228506077Y-141820939D01*
X228506077Y-141820939D02*
X228410839Y-141773320D01*
X228410839Y-141773320D02*
X228220363Y-141773320D01*
X228220363Y-141773320D02*
X228125125Y-141820939D01*
X226887029Y-142439987D02*
X226887029Y-141439987D01*
X226410839Y-141773320D02*
X226410839Y-142439987D01*
X226410839Y-141868558D02*
X226363220Y-141820939D01*
X226363220Y-141820939D02*
X226267982Y-141773320D01*
X226267982Y-141773320D02*
X226125125Y-141773320D01*
X226125125Y-141773320D02*
X226029887Y-141820939D01*
X226029887Y-141820939D02*
X225982268Y-141916177D01*
X225982268Y-141916177D02*
X225982268Y-142439987D01*
X225648934Y-141773320D02*
X225267982Y-141773320D01*
X225506077Y-142439987D02*
X225506077Y-141582844D01*
X225506077Y-141582844D02*
X225458458Y-141487606D01*
X225458458Y-141487606D02*
X225363220Y-141439987D01*
X225363220Y-141439987D02*
X225267982Y-141439987D01*
X224791791Y-142439987D02*
X224887029Y-142392368D01*
X224887029Y-142392368D02*
X224934648Y-142344748D01*
X224934648Y-142344748D02*
X224982267Y-142249510D01*
X224982267Y-142249510D02*
X224982267Y-141963796D01*
X224982267Y-141963796D02*
X224934648Y-141868558D01*
X224934648Y-141868558D02*
X224887029Y-141820939D01*
X224887029Y-141820939D02*
X224791791Y-141773320D01*
X224791791Y-141773320D02*
X224648934Y-141773320D01*
X224648934Y-141773320D02*
X224553696Y-141820939D01*
X224553696Y-141820939D02*
X224506077Y-141868558D01*
X224506077Y-141868558D02*
X224458458Y-141963796D01*
X224458458Y-141963796D02*
X224458458Y-142249510D01*
X224458458Y-142249510D02*
X224506077Y-142344748D01*
X224506077Y-142344748D02*
X224553696Y-142392368D01*
X224553696Y-142392368D02*
X224648934Y-142439987D01*
X224648934Y-142439987D02*
X224791791Y-142439987D01*
X224029886Y-142439987D02*
X224029886Y-141773320D01*
X224029886Y-141963796D02*
X223982267Y-141868558D01*
X223982267Y-141868558D02*
X223934648Y-141820939D01*
X223934648Y-141820939D02*
X223839410Y-141773320D01*
X223839410Y-141773320D02*
X223744172Y-141773320D01*
X223410838Y-142439987D02*
X223410838Y-141773320D01*
X223410838Y-141868558D02*
X223363219Y-141820939D01*
X223363219Y-141820939D02*
X223267981Y-141773320D01*
X223267981Y-141773320D02*
X223125124Y-141773320D01*
X223125124Y-141773320D02*
X223029886Y-141820939D01*
X223029886Y-141820939D02*
X222982267Y-141916177D01*
X222982267Y-141916177D02*
X222982267Y-142439987D01*
X222982267Y-141916177D02*
X222934648Y-141820939D01*
X222934648Y-141820939D02*
X222839410Y-141773320D01*
X222839410Y-141773320D02*
X222696553Y-141773320D01*
X222696553Y-141773320D02*
X222601314Y-141820939D01*
X222601314Y-141820939D02*
X222553695Y-141916177D01*
X222553695Y-141916177D02*
X222553695Y-142439987D01*
X221648934Y-142439987D02*
X221648934Y-141916177D01*
X221648934Y-141916177D02*
X221696553Y-141820939D01*
X221696553Y-141820939D02*
X221791791Y-141773320D01*
X221791791Y-141773320D02*
X221982267Y-141773320D01*
X221982267Y-141773320D02*
X222077505Y-141820939D01*
X221648934Y-142392368D02*
X221744172Y-142439987D01*
X221744172Y-142439987D02*
X221982267Y-142439987D01*
X221982267Y-142439987D02*
X222077505Y-142392368D01*
X222077505Y-142392368D02*
X222125124Y-142297129D01*
X222125124Y-142297129D02*
X222125124Y-142201891D01*
X222125124Y-142201891D02*
X222077505Y-142106653D01*
X222077505Y-142106653D02*
X221982267Y-142059034D01*
X221982267Y-142059034D02*
X221744172Y-142059034D01*
X221744172Y-142059034D02*
X221648934Y-142011415D01*
X221315600Y-141773320D02*
X220934648Y-141773320D01*
X221172743Y-141439987D02*
X221172743Y-142297129D01*
X221172743Y-142297129D02*
X221125124Y-142392368D01*
X221125124Y-142392368D02*
X221029886Y-142439987D01*
X221029886Y-142439987D02*
X220934648Y-142439987D01*
X220601314Y-142439987D02*
X220601314Y-141773320D01*
X220601314Y-141439987D02*
X220648933Y-141487606D01*
X220648933Y-141487606D02*
X220601314Y-141535225D01*
X220601314Y-141535225D02*
X220553695Y-141487606D01*
X220553695Y-141487606D02*
X220601314Y-141439987D01*
X220601314Y-141439987D02*
X220601314Y-141535225D01*
X219696553Y-142392368D02*
X219791791Y-142439987D01*
X219791791Y-142439987D02*
X219982267Y-142439987D01*
X219982267Y-142439987D02*
X220077505Y-142392368D01*
X220077505Y-142392368D02*
X220125124Y-142344748D01*
X220125124Y-142344748D02*
X220172743Y-142249510D01*
X220172743Y-142249510D02*
X220172743Y-141963796D01*
X220172743Y-141963796D02*
X220125124Y-141868558D01*
X220125124Y-141868558D02*
X220077505Y-141820939D01*
X220077505Y-141820939D02*
X219982267Y-141773320D01*
X219982267Y-141773320D02*
X219791791Y-141773320D01*
X219791791Y-141773320D02*
X219696553Y-141820939D01*
X219315600Y-142392368D02*
X219220362Y-142439987D01*
X219220362Y-142439987D02*
X219029886Y-142439987D01*
X219029886Y-142439987D02*
X218934648Y-142392368D01*
X218934648Y-142392368D02*
X218887029Y-142297129D01*
X218887029Y-142297129D02*
X218887029Y-142249510D01*
X218887029Y-142249510D02*
X218934648Y-142154272D01*
X218934648Y-142154272D02*
X219029886Y-142106653D01*
X219029886Y-142106653D02*
X219172743Y-142106653D01*
X219172743Y-142106653D02*
X219267981Y-142059034D01*
X219267981Y-142059034D02*
X219315600Y-141963796D01*
X219315600Y-141963796D02*
X219315600Y-141916177D01*
X219315600Y-141916177D02*
X219267981Y-141820939D01*
X219267981Y-141820939D02*
X219172743Y-141773320D01*
X219172743Y-141773320D02*
X219029886Y-141773320D01*
X219029886Y-141773320D02*
X218934648Y-141820939D01*
X217172743Y-141487606D02*
X217267981Y-141439987D01*
X217267981Y-141439987D02*
X217410838Y-141439987D01*
X217410838Y-141439987D02*
X217553695Y-141487606D01*
X217553695Y-141487606D02*
X217648933Y-141582844D01*
X217648933Y-141582844D02*
X217696552Y-141678082D01*
X217696552Y-141678082D02*
X217744171Y-141868558D01*
X217744171Y-141868558D02*
X217744171Y-142011415D01*
X217744171Y-142011415D02*
X217696552Y-142201891D01*
X217696552Y-142201891D02*
X217648933Y-142297129D01*
X217648933Y-142297129D02*
X217553695Y-142392368D01*
X217553695Y-142392368D02*
X217410838Y-142439987D01*
X217410838Y-142439987D02*
X217315600Y-142439987D01*
X217315600Y-142439987D02*
X217172743Y-142392368D01*
X217172743Y-142392368D02*
X217125124Y-142344748D01*
X217125124Y-142344748D02*
X217125124Y-142011415D01*
X217125124Y-142011415D02*
X217315600Y-142011415D01*
X216696552Y-142439987D02*
X216696552Y-141773320D01*
X216696552Y-141963796D02*
X216648933Y-141868558D01*
X216648933Y-141868558D02*
X216601314Y-141820939D01*
X216601314Y-141820939D02*
X216506076Y-141773320D01*
X216506076Y-141773320D02*
X216410838Y-141773320D01*
X215934647Y-142439987D02*
X216029885Y-142392368D01*
X216029885Y-142392368D02*
X216077504Y-142344748D01*
X216077504Y-142344748D02*
X216125123Y-142249510D01*
X216125123Y-142249510D02*
X216125123Y-141963796D01*
X216125123Y-141963796D02*
X216077504Y-141868558D01*
X216077504Y-141868558D02*
X216029885Y-141820939D01*
X216029885Y-141820939D02*
X215934647Y-141773320D01*
X215934647Y-141773320D02*
X215791790Y-141773320D01*
X215791790Y-141773320D02*
X215696552Y-141820939D01*
X215696552Y-141820939D02*
X215648933Y-141868558D01*
X215648933Y-141868558D02*
X215601314Y-141963796D01*
X215601314Y-141963796D02*
X215601314Y-142249510D01*
X215601314Y-142249510D02*
X215648933Y-142344748D01*
X215648933Y-142344748D02*
X215696552Y-142392368D01*
X215696552Y-142392368D02*
X215791790Y-142439987D01*
X215791790Y-142439987D02*
X215934647Y-142439987D01*
X214744171Y-141773320D02*
X214744171Y-142439987D01*
X215172742Y-141773320D02*
X215172742Y-142297129D01*
X215172742Y-142297129D02*
X215125123Y-142392368D01*
X215125123Y-142392368D02*
X215029885Y-142439987D01*
X215029885Y-142439987D02*
X214887028Y-142439987D01*
X214887028Y-142439987D02*
X214791790Y-142392368D01*
X214791790Y-142392368D02*
X214744171Y-142344748D01*
X214267980Y-141773320D02*
X214267980Y-142773320D01*
X214267980Y-141820939D02*
X214172742Y-141773320D01*
X214172742Y-141773320D02*
X213982266Y-141773320D01*
X213982266Y-141773320D02*
X213887028Y-141820939D01*
X213887028Y-141820939D02*
X213839409Y-141868558D01*
X213839409Y-141868558D02*
X213791790Y-141963796D01*
X213791790Y-141963796D02*
X213791790Y-142249510D01*
X213791790Y-142249510D02*
X213839409Y-142344748D01*
X213839409Y-142344748D02*
X213887028Y-142392368D01*
X213887028Y-142392368D02*
X213982266Y-142439987D01*
X213982266Y-142439987D02*
X214172742Y-142439987D01*
X214172742Y-142439987D02*
X214267980Y-142392368D01*
X236410839Y-144002312D02*
X236267982Y-144049931D01*
X236267982Y-144049931D02*
X236029887Y-144049931D01*
X236029887Y-144049931D02*
X235934649Y-144002312D01*
X235934649Y-144002312D02*
X235887030Y-143954692D01*
X235887030Y-143954692D02*
X235839411Y-143859454D01*
X235839411Y-143859454D02*
X235839411Y-143764216D01*
X235839411Y-143764216D02*
X235887030Y-143668978D01*
X235887030Y-143668978D02*
X235934649Y-143621359D01*
X235934649Y-143621359D02*
X236029887Y-143573740D01*
X236029887Y-143573740D02*
X236220363Y-143526121D01*
X236220363Y-143526121D02*
X236315601Y-143478502D01*
X236315601Y-143478502D02*
X236363220Y-143430883D01*
X236363220Y-143430883D02*
X236410839Y-143335645D01*
X236410839Y-143335645D02*
X236410839Y-143240407D01*
X236410839Y-143240407D02*
X236363220Y-143145169D01*
X236363220Y-143145169D02*
X236315601Y-143097550D01*
X236315601Y-143097550D02*
X236220363Y-143049931D01*
X236220363Y-143049931D02*
X235982268Y-143049931D01*
X235982268Y-143049931D02*
X235839411Y-143097550D01*
X235553696Y-143383264D02*
X235172744Y-143383264D01*
X235410839Y-143049931D02*
X235410839Y-143907073D01*
X235410839Y-143907073D02*
X235363220Y-144002312D01*
X235363220Y-144002312D02*
X235267982Y-144049931D01*
X235267982Y-144049931D02*
X235172744Y-144049931D01*
X234410839Y-144049931D02*
X234410839Y-143526121D01*
X234410839Y-143526121D02*
X234458458Y-143430883D01*
X234458458Y-143430883D02*
X234553696Y-143383264D01*
X234553696Y-143383264D02*
X234744172Y-143383264D01*
X234744172Y-143383264D02*
X234839410Y-143430883D01*
X234410839Y-144002312D02*
X234506077Y-144049931D01*
X234506077Y-144049931D02*
X234744172Y-144049931D01*
X234744172Y-144049931D02*
X234839410Y-144002312D01*
X234839410Y-144002312D02*
X234887029Y-143907073D01*
X234887029Y-143907073D02*
X234887029Y-143811835D01*
X234887029Y-143811835D02*
X234839410Y-143716597D01*
X234839410Y-143716597D02*
X234744172Y-143668978D01*
X234744172Y-143668978D02*
X234506077Y-143668978D01*
X234506077Y-143668978D02*
X234410839Y-143621359D01*
X233934648Y-143383264D02*
X233934648Y-144049931D01*
X233934648Y-143478502D02*
X233887029Y-143430883D01*
X233887029Y-143430883D02*
X233791791Y-143383264D01*
X233791791Y-143383264D02*
X233648934Y-143383264D01*
X233648934Y-143383264D02*
X233553696Y-143430883D01*
X233553696Y-143430883D02*
X233506077Y-143526121D01*
X233506077Y-143526121D02*
X233506077Y-144049931D01*
X233172743Y-143383264D02*
X232791791Y-143383264D01*
X233029886Y-144049931D02*
X233029886Y-143192788D01*
X233029886Y-143192788D02*
X232982267Y-143097550D01*
X232982267Y-143097550D02*
X232887029Y-143049931D01*
X232887029Y-143049931D02*
X232791791Y-143049931D01*
X232315600Y-144049931D02*
X232410838Y-144002312D01*
X232410838Y-144002312D02*
X232458457Y-143954692D01*
X232458457Y-143954692D02*
X232506076Y-143859454D01*
X232506076Y-143859454D02*
X232506076Y-143573740D01*
X232506076Y-143573740D02*
X232458457Y-143478502D01*
X232458457Y-143478502D02*
X232410838Y-143430883D01*
X232410838Y-143430883D02*
X232315600Y-143383264D01*
X232315600Y-143383264D02*
X232172743Y-143383264D01*
X232172743Y-143383264D02*
X232077505Y-143430883D01*
X232077505Y-143430883D02*
X232029886Y-143478502D01*
X232029886Y-143478502D02*
X231982267Y-143573740D01*
X231982267Y-143573740D02*
X231982267Y-143859454D01*
X231982267Y-143859454D02*
X232029886Y-143954692D01*
X232029886Y-143954692D02*
X232077505Y-144002312D01*
X232077505Y-144002312D02*
X232172743Y-144049931D01*
X232172743Y-144049931D02*
X232315600Y-144049931D01*
X231553695Y-144049931D02*
X231553695Y-143383264D01*
X231553695Y-143573740D02*
X231506076Y-143478502D01*
X231506076Y-143478502D02*
X231458457Y-143430883D01*
X231458457Y-143430883D02*
X231363219Y-143383264D01*
X231363219Y-143383264D02*
X231267981Y-143383264D01*
X230506076Y-144049931D02*
X230506076Y-143049931D01*
X230506076Y-144002312D02*
X230601314Y-144049931D01*
X230601314Y-144049931D02*
X230791790Y-144049931D01*
X230791790Y-144049931D02*
X230887028Y-144002312D01*
X230887028Y-144002312D02*
X230934647Y-143954692D01*
X230934647Y-143954692D02*
X230982266Y-143859454D01*
X230982266Y-143859454D02*
X230982266Y-143573740D01*
X230982266Y-143573740D02*
X230934647Y-143478502D01*
X230934647Y-143478502D02*
X230887028Y-143430883D01*
X230887028Y-143430883D02*
X230791790Y-143383264D01*
X230791790Y-143383264D02*
X230601314Y-143383264D01*
X230601314Y-143383264D02*
X230506076Y-143430883D01*
X229267980Y-143049931D02*
X229267980Y-143859454D01*
X229267980Y-143859454D02*
X229220361Y-143954692D01*
X229220361Y-143954692D02*
X229172742Y-144002312D01*
X229172742Y-144002312D02*
X229077504Y-144049931D01*
X229077504Y-144049931D02*
X228887028Y-144049931D01*
X228887028Y-144049931D02*
X228791790Y-144002312D01*
X228791790Y-144002312D02*
X228744171Y-143954692D01*
X228744171Y-143954692D02*
X228696552Y-143859454D01*
X228696552Y-143859454D02*
X228696552Y-143049931D01*
X228220361Y-143383264D02*
X228220361Y-144049931D01*
X228220361Y-143478502D02*
X228172742Y-143430883D01*
X228172742Y-143430883D02*
X228077504Y-143383264D01*
X228077504Y-143383264D02*
X227934647Y-143383264D01*
X227934647Y-143383264D02*
X227839409Y-143430883D01*
X227839409Y-143430883D02*
X227791790Y-143526121D01*
X227791790Y-143526121D02*
X227791790Y-144049931D01*
X227315599Y-144049931D02*
X227315599Y-143383264D01*
X227315599Y-143049931D02*
X227363218Y-143097550D01*
X227363218Y-143097550D02*
X227315599Y-143145169D01*
X227315599Y-143145169D02*
X227267980Y-143097550D01*
X227267980Y-143097550D02*
X227315599Y-143049931D01*
X227315599Y-143049931D02*
X227315599Y-143145169D01*
X226934647Y-143383264D02*
X226696552Y-144049931D01*
X226696552Y-144049931D02*
X226458457Y-143383264D01*
X225696552Y-144002312D02*
X225791790Y-144049931D01*
X225791790Y-144049931D02*
X225982266Y-144049931D01*
X225982266Y-144049931D02*
X226077504Y-144002312D01*
X226077504Y-144002312D02*
X226125123Y-143907073D01*
X226125123Y-143907073D02*
X226125123Y-143526121D01*
X226125123Y-143526121D02*
X226077504Y-143430883D01*
X226077504Y-143430883D02*
X225982266Y-143383264D01*
X225982266Y-143383264D02*
X225791790Y-143383264D01*
X225791790Y-143383264D02*
X225696552Y-143430883D01*
X225696552Y-143430883D02*
X225648933Y-143526121D01*
X225648933Y-143526121D02*
X225648933Y-143621359D01*
X225648933Y-143621359D02*
X226125123Y-143716597D01*
X225220361Y-144049931D02*
X225220361Y-143383264D01*
X225220361Y-143573740D02*
X225172742Y-143478502D01*
X225172742Y-143478502D02*
X225125123Y-143430883D01*
X225125123Y-143430883D02*
X225029885Y-143383264D01*
X225029885Y-143383264D02*
X224934647Y-143383264D01*
X224648932Y-144002312D02*
X224553694Y-144049931D01*
X224553694Y-144049931D02*
X224363218Y-144049931D01*
X224363218Y-144049931D02*
X224267980Y-144002312D01*
X224267980Y-144002312D02*
X224220361Y-143907073D01*
X224220361Y-143907073D02*
X224220361Y-143859454D01*
X224220361Y-143859454D02*
X224267980Y-143764216D01*
X224267980Y-143764216D02*
X224363218Y-143716597D01*
X224363218Y-143716597D02*
X224506075Y-143716597D01*
X224506075Y-143716597D02*
X224601313Y-143668978D01*
X224601313Y-143668978D02*
X224648932Y-143573740D01*
X224648932Y-143573740D02*
X224648932Y-143526121D01*
X224648932Y-143526121D02*
X224601313Y-143430883D01*
X224601313Y-143430883D02*
X224506075Y-143383264D01*
X224506075Y-143383264D02*
X224363218Y-143383264D01*
X224363218Y-143383264D02*
X224267980Y-143430883D01*
X223791789Y-144049931D02*
X223791789Y-143383264D01*
X223791789Y-143049931D02*
X223839408Y-143097550D01*
X223839408Y-143097550D02*
X223791789Y-143145169D01*
X223791789Y-143145169D02*
X223744170Y-143097550D01*
X223744170Y-143097550D02*
X223791789Y-143049931D01*
X223791789Y-143049931D02*
X223791789Y-143145169D01*
X223458456Y-143383264D02*
X223077504Y-143383264D01*
X223315599Y-143049931D02*
X223315599Y-143907073D01*
X223315599Y-143907073D02*
X223267980Y-144002312D01*
X223267980Y-144002312D02*
X223172742Y-144049931D01*
X223172742Y-144049931D02*
X223077504Y-144049931D01*
X222839408Y-143383264D02*
X222601313Y-144049931D01*
X222363218Y-143383264D02*
X222601313Y-144049931D01*
X222601313Y-144049931D02*
X222696551Y-144288026D01*
X222696551Y-144288026D02*
X222744170Y-144335645D01*
X222744170Y-144335645D02*
X222839408Y-144383264D01*
X235791792Y-145659875D02*
X236125125Y-145183684D01*
X236363220Y-145659875D02*
X236363220Y-144659875D01*
X236363220Y-144659875D02*
X235982268Y-144659875D01*
X235982268Y-144659875D02*
X235887030Y-144707494D01*
X235887030Y-144707494D02*
X235839411Y-144755113D01*
X235839411Y-144755113D02*
X235791792Y-144850351D01*
X235791792Y-144850351D02*
X235791792Y-144993208D01*
X235791792Y-144993208D02*
X235839411Y-145088446D01*
X235839411Y-145088446D02*
X235887030Y-145136065D01*
X235887030Y-145136065D02*
X235982268Y-145183684D01*
X235982268Y-145183684D02*
X236363220Y-145183684D01*
X235220363Y-145659875D02*
X235315601Y-145612256D01*
X235315601Y-145612256D02*
X235363220Y-145564636D01*
X235363220Y-145564636D02*
X235410839Y-145469398D01*
X235410839Y-145469398D02*
X235410839Y-145183684D01*
X235410839Y-145183684D02*
X235363220Y-145088446D01*
X235363220Y-145088446D02*
X235315601Y-145040827D01*
X235315601Y-145040827D02*
X235220363Y-144993208D01*
X235220363Y-144993208D02*
X235077506Y-144993208D01*
X235077506Y-144993208D02*
X234982268Y-145040827D01*
X234982268Y-145040827D02*
X234934649Y-145088446D01*
X234934649Y-145088446D02*
X234887030Y-145183684D01*
X234887030Y-145183684D02*
X234887030Y-145469398D01*
X234887030Y-145469398D02*
X234934649Y-145564636D01*
X234934649Y-145564636D02*
X234982268Y-145612256D01*
X234982268Y-145612256D02*
X235077506Y-145659875D01*
X235077506Y-145659875D02*
X235220363Y-145659875D01*
X234458458Y-145659875D02*
X234458458Y-144659875D01*
X234458458Y-145040827D02*
X234363220Y-144993208D01*
X234363220Y-144993208D02*
X234172744Y-144993208D01*
X234172744Y-144993208D02*
X234077506Y-145040827D01*
X234077506Y-145040827D02*
X234029887Y-145088446D01*
X234029887Y-145088446D02*
X233982268Y-145183684D01*
X233982268Y-145183684D02*
X233982268Y-145469398D01*
X233982268Y-145469398D02*
X234029887Y-145564636D01*
X234029887Y-145564636D02*
X234077506Y-145612256D01*
X234077506Y-145612256D02*
X234172744Y-145659875D01*
X234172744Y-145659875D02*
X234363220Y-145659875D01*
X234363220Y-145659875D02*
X234458458Y-145612256D01*
X233410839Y-145659875D02*
X233506077Y-145612256D01*
X233506077Y-145612256D02*
X233553696Y-145564636D01*
X233553696Y-145564636D02*
X233601315Y-145469398D01*
X233601315Y-145469398D02*
X233601315Y-145183684D01*
X233601315Y-145183684D02*
X233553696Y-145088446D01*
X233553696Y-145088446D02*
X233506077Y-145040827D01*
X233506077Y-145040827D02*
X233410839Y-144993208D01*
X233410839Y-144993208D02*
X233267982Y-144993208D01*
X233267982Y-144993208D02*
X233172744Y-145040827D01*
X233172744Y-145040827D02*
X233125125Y-145088446D01*
X233125125Y-145088446D02*
X233077506Y-145183684D01*
X233077506Y-145183684D02*
X233077506Y-145469398D01*
X233077506Y-145469398D02*
X233125125Y-145564636D01*
X233125125Y-145564636D02*
X233172744Y-145612256D01*
X233172744Y-145612256D02*
X233267982Y-145659875D01*
X233267982Y-145659875D02*
X233410839Y-145659875D01*
X232791791Y-144993208D02*
X232410839Y-144993208D01*
X232648934Y-144659875D02*
X232648934Y-145517017D01*
X232648934Y-145517017D02*
X232601315Y-145612256D01*
X232601315Y-145612256D02*
X232506077Y-145659875D01*
X232506077Y-145659875D02*
X232410839Y-145659875D01*
X230744172Y-145564636D02*
X230791791Y-145612256D01*
X230791791Y-145612256D02*
X230934648Y-145659875D01*
X230934648Y-145659875D02*
X231029886Y-145659875D01*
X231029886Y-145659875D02*
X231172743Y-145612256D01*
X231172743Y-145612256D02*
X231267981Y-145517017D01*
X231267981Y-145517017D02*
X231315600Y-145421779D01*
X231315600Y-145421779D02*
X231363219Y-145231303D01*
X231363219Y-145231303D02*
X231363219Y-145088446D01*
X231363219Y-145088446D02*
X231315600Y-144897970D01*
X231315600Y-144897970D02*
X231267981Y-144802732D01*
X231267981Y-144802732D02*
X231172743Y-144707494D01*
X231172743Y-144707494D02*
X231029886Y-144659875D01*
X231029886Y-144659875D02*
X230934648Y-144659875D01*
X230934648Y-144659875D02*
X230791791Y-144707494D01*
X230791791Y-144707494D02*
X230744172Y-144755113D01*
X230172743Y-145659875D02*
X230267981Y-145612256D01*
X230267981Y-145612256D02*
X230315600Y-145564636D01*
X230315600Y-145564636D02*
X230363219Y-145469398D01*
X230363219Y-145469398D02*
X230363219Y-145183684D01*
X230363219Y-145183684D02*
X230315600Y-145088446D01*
X230315600Y-145088446D02*
X230267981Y-145040827D01*
X230267981Y-145040827D02*
X230172743Y-144993208D01*
X230172743Y-144993208D02*
X230029886Y-144993208D01*
X230029886Y-144993208D02*
X229934648Y-145040827D01*
X229934648Y-145040827D02*
X229887029Y-145088446D01*
X229887029Y-145088446D02*
X229839410Y-145183684D01*
X229839410Y-145183684D02*
X229839410Y-145469398D01*
X229839410Y-145469398D02*
X229887029Y-145564636D01*
X229887029Y-145564636D02*
X229934648Y-145612256D01*
X229934648Y-145612256D02*
X230029886Y-145659875D01*
X230029886Y-145659875D02*
X230172743Y-145659875D01*
X229410838Y-144993208D02*
X229410838Y-145659875D01*
X229410838Y-145088446D02*
X229363219Y-145040827D01*
X229363219Y-145040827D02*
X229267981Y-144993208D01*
X229267981Y-144993208D02*
X229125124Y-144993208D01*
X229125124Y-144993208D02*
X229029886Y-145040827D01*
X229029886Y-145040827D02*
X228982267Y-145136065D01*
X228982267Y-145136065D02*
X228982267Y-145659875D01*
X228648933Y-144993208D02*
X228267981Y-144993208D01*
X228506076Y-144659875D02*
X228506076Y-145517017D01*
X228506076Y-145517017D02*
X228458457Y-145612256D01*
X228458457Y-145612256D02*
X228363219Y-145659875D01*
X228363219Y-145659875D02*
X228267981Y-145659875D01*
X227934647Y-145659875D02*
X227934647Y-144993208D01*
X227934647Y-145183684D02*
X227887028Y-145088446D01*
X227887028Y-145088446D02*
X227839409Y-145040827D01*
X227839409Y-145040827D02*
X227744171Y-144993208D01*
X227744171Y-144993208D02*
X227648933Y-144993208D01*
X227172742Y-145659875D02*
X227267980Y-145612256D01*
X227267980Y-145612256D02*
X227315599Y-145564636D01*
X227315599Y-145564636D02*
X227363218Y-145469398D01*
X227363218Y-145469398D02*
X227363218Y-145183684D01*
X227363218Y-145183684D02*
X227315599Y-145088446D01*
X227315599Y-145088446D02*
X227267980Y-145040827D01*
X227267980Y-145040827D02*
X227172742Y-144993208D01*
X227172742Y-144993208D02*
X227029885Y-144993208D01*
X227029885Y-144993208D02*
X226934647Y-145040827D01*
X226934647Y-145040827D02*
X226887028Y-145088446D01*
X226887028Y-145088446D02*
X226839409Y-145183684D01*
X226839409Y-145183684D02*
X226839409Y-145469398D01*
X226839409Y-145469398D02*
X226887028Y-145564636D01*
X226887028Y-145564636D02*
X226934647Y-145612256D01*
X226934647Y-145612256D02*
X227029885Y-145659875D01*
X227029885Y-145659875D02*
X227172742Y-145659875D01*
X226267980Y-145659875D02*
X226363218Y-145612256D01*
X226363218Y-145612256D02*
X226410837Y-145517017D01*
X226410837Y-145517017D02*
X226410837Y-144659875D01*
X224791789Y-145136065D02*
X224648932Y-145183684D01*
X224648932Y-145183684D02*
X224601313Y-145231303D01*
X224601313Y-145231303D02*
X224553694Y-145326541D01*
X224553694Y-145326541D02*
X224553694Y-145469398D01*
X224553694Y-145469398D02*
X224601313Y-145564636D01*
X224601313Y-145564636D02*
X224648932Y-145612256D01*
X224648932Y-145612256D02*
X224744170Y-145659875D01*
X224744170Y-145659875D02*
X225125122Y-145659875D01*
X225125122Y-145659875D02*
X225125122Y-144659875D01*
X225125122Y-144659875D02*
X224791789Y-144659875D01*
X224791789Y-144659875D02*
X224696551Y-144707494D01*
X224696551Y-144707494D02*
X224648932Y-144755113D01*
X224648932Y-144755113D02*
X224601313Y-144850351D01*
X224601313Y-144850351D02*
X224601313Y-144945589D01*
X224601313Y-144945589D02*
X224648932Y-145040827D01*
X224648932Y-145040827D02*
X224696551Y-145088446D01*
X224696551Y-145088446D02*
X224791789Y-145136065D01*
X224791789Y-145136065D02*
X225125122Y-145136065D01*
X223982265Y-145659875D02*
X224077503Y-145612256D01*
X224077503Y-145612256D02*
X224125122Y-145564636D01*
X224125122Y-145564636D02*
X224172741Y-145469398D01*
X224172741Y-145469398D02*
X224172741Y-145183684D01*
X224172741Y-145183684D02*
X224125122Y-145088446D01*
X224125122Y-145088446D02*
X224077503Y-145040827D01*
X224077503Y-145040827D02*
X223982265Y-144993208D01*
X223982265Y-144993208D02*
X223839408Y-144993208D01*
X223839408Y-144993208D02*
X223744170Y-145040827D01*
X223744170Y-145040827D02*
X223696551Y-145088446D01*
X223696551Y-145088446D02*
X223648932Y-145183684D01*
X223648932Y-145183684D02*
X223648932Y-145469398D01*
X223648932Y-145469398D02*
X223696551Y-145564636D01*
X223696551Y-145564636D02*
X223744170Y-145612256D01*
X223744170Y-145612256D02*
X223839408Y-145659875D01*
X223839408Y-145659875D02*
X223982265Y-145659875D01*
X222791789Y-145659875D02*
X222791789Y-145136065D01*
X222791789Y-145136065D02*
X222839408Y-145040827D01*
X222839408Y-145040827D02*
X222934646Y-144993208D01*
X222934646Y-144993208D02*
X223125122Y-144993208D01*
X223125122Y-144993208D02*
X223220360Y-145040827D01*
X222791789Y-145612256D02*
X222887027Y-145659875D01*
X222887027Y-145659875D02*
X223125122Y-145659875D01*
X223125122Y-145659875D02*
X223220360Y-145612256D01*
X223220360Y-145612256D02*
X223267979Y-145517017D01*
X223267979Y-145517017D02*
X223267979Y-145421779D01*
X223267979Y-145421779D02*
X223220360Y-145326541D01*
X223220360Y-145326541D02*
X223125122Y-145278922D01*
X223125122Y-145278922D02*
X222887027Y-145278922D01*
X222887027Y-145278922D02*
X222791789Y-145231303D01*
X222315598Y-145659875D02*
X222315598Y-144993208D01*
X222315598Y-145183684D02*
X222267979Y-145088446D01*
X222267979Y-145088446D02*
X222220360Y-145040827D01*
X222220360Y-145040827D02*
X222125122Y-144993208D01*
X222125122Y-144993208D02*
X222029884Y-144993208D01*
X221267979Y-145659875D02*
X221267979Y-144659875D01*
X221267979Y-145612256D02*
X221363217Y-145659875D01*
X221363217Y-145659875D02*
X221553693Y-145659875D01*
X221553693Y-145659875D02*
X221648931Y-145612256D01*
X221648931Y-145612256D02*
X221696550Y-145564636D01*
X221696550Y-145564636D02*
X221744169Y-145469398D01*
X221744169Y-145469398D02*
X221744169Y-145183684D01*
X221744169Y-145183684D02*
X221696550Y-145088446D01*
X221696550Y-145088446D02*
X221648931Y-145040827D01*
X221648931Y-145040827D02*
X221553693Y-144993208D01*
X221553693Y-144993208D02*
X221363217Y-144993208D01*
X221363217Y-144993208D02*
X221267979Y-145040827D01*
X220744169Y-145612256D02*
X220744169Y-145659875D01*
X220744169Y-145659875D02*
X220791788Y-145755113D01*
X220791788Y-145755113D02*
X220839407Y-145802732D01*
X218982265Y-145659875D02*
X219315598Y-145183684D01*
X219553693Y-145659875D02*
X219553693Y-144659875D01*
X219553693Y-144659875D02*
X219172741Y-144659875D01*
X219172741Y-144659875D02*
X219077503Y-144707494D01*
X219077503Y-144707494D02*
X219029884Y-144755113D01*
X219029884Y-144755113D02*
X218982265Y-144850351D01*
X218982265Y-144850351D02*
X218982265Y-144993208D01*
X218982265Y-144993208D02*
X219029884Y-145088446D01*
X219029884Y-145088446D02*
X219077503Y-145136065D01*
X219077503Y-145136065D02*
X219172741Y-145183684D01*
X219172741Y-145183684D02*
X219553693Y-145183684D01*
X218172741Y-145612256D02*
X218267979Y-145659875D01*
X218267979Y-145659875D02*
X218458455Y-145659875D01*
X218458455Y-145659875D02*
X218553693Y-145612256D01*
X218553693Y-145612256D02*
X218601312Y-145517017D01*
X218601312Y-145517017D02*
X218601312Y-145136065D01*
X218601312Y-145136065D02*
X218553693Y-145040827D01*
X218553693Y-145040827D02*
X218458455Y-144993208D01*
X218458455Y-144993208D02*
X218267979Y-144993208D01*
X218267979Y-144993208D02*
X218172741Y-145040827D01*
X218172741Y-145040827D02*
X218125122Y-145136065D01*
X218125122Y-145136065D02*
X218125122Y-145231303D01*
X218125122Y-145231303D02*
X218601312Y-145326541D01*
X217791788Y-144993208D02*
X217553693Y-145659875D01*
X217553693Y-145659875D02*
X217315598Y-144993208D01*
X215982264Y-144659875D02*
X215887026Y-144659875D01*
X215887026Y-144659875D02*
X215791788Y-144707494D01*
X215791788Y-144707494D02*
X215744169Y-144755113D01*
X215744169Y-144755113D02*
X215696550Y-144850351D01*
X215696550Y-144850351D02*
X215648931Y-145040827D01*
X215648931Y-145040827D02*
X215648931Y-145278922D01*
X215648931Y-145278922D02*
X215696550Y-145469398D01*
X215696550Y-145469398D02*
X215744169Y-145564636D01*
X215744169Y-145564636D02*
X215791788Y-145612256D01*
X215791788Y-145612256D02*
X215887026Y-145659875D01*
X215887026Y-145659875D02*
X215982264Y-145659875D01*
X215982264Y-145659875D02*
X216077502Y-145612256D01*
X216077502Y-145612256D02*
X216125121Y-145564636D01*
X216125121Y-145564636D02*
X216172740Y-145469398D01*
X216172740Y-145469398D02*
X216220359Y-145278922D01*
X216220359Y-145278922D02*
X216220359Y-145040827D01*
X216220359Y-145040827D02*
X216172740Y-144850351D01*
X216172740Y-144850351D02*
X216125121Y-144755113D01*
X216125121Y-144755113D02*
X216077502Y-144707494D01*
X216077502Y-144707494D02*
X215982264Y-144659875D01*
X215220359Y-145564636D02*
X215172740Y-145612256D01*
X215172740Y-145612256D02*
X215220359Y-145659875D01*
X215220359Y-145659875D02*
X215267978Y-145612256D01*
X215267978Y-145612256D02*
X215220359Y-145564636D01*
X215220359Y-145564636D02*
X215220359Y-145659875D01*
X214839407Y-144659875D02*
X214220360Y-144659875D01*
X214220360Y-144659875D02*
X214553693Y-145040827D01*
X214553693Y-145040827D02*
X214410836Y-145040827D01*
X214410836Y-145040827D02*
X214315598Y-145088446D01*
X214315598Y-145088446D02*
X214267979Y-145136065D01*
X214267979Y-145136065D02*
X214220360Y-145231303D01*
X214220360Y-145231303D02*
X214220360Y-145469398D01*
X214220360Y-145469398D02*
X214267979Y-145564636D01*
X214267979Y-145564636D02*
X214315598Y-145612256D01*
X214315598Y-145612256D02*
X214410836Y-145659875D01*
X214410836Y-145659875D02*
X214696550Y-145659875D01*
X214696550Y-145659875D02*
X214791788Y-145612256D01*
X214791788Y-145612256D02*
X214839407Y-145564636D01*
X236410839Y-147222200D02*
X236267982Y-147269819D01*
X236267982Y-147269819D02*
X236029887Y-147269819D01*
X236029887Y-147269819D02*
X235934649Y-147222200D01*
X235934649Y-147222200D02*
X235887030Y-147174580D01*
X235887030Y-147174580D02*
X235839411Y-147079342D01*
X235839411Y-147079342D02*
X235839411Y-146984104D01*
X235839411Y-146984104D02*
X235887030Y-146888866D01*
X235887030Y-146888866D02*
X235934649Y-146841247D01*
X235934649Y-146841247D02*
X236029887Y-146793628D01*
X236029887Y-146793628D02*
X236220363Y-146746009D01*
X236220363Y-146746009D02*
X236315601Y-146698390D01*
X236315601Y-146698390D02*
X236363220Y-146650771D01*
X236363220Y-146650771D02*
X236410839Y-146555533D01*
X236410839Y-146555533D02*
X236410839Y-146460295D01*
X236410839Y-146460295D02*
X236363220Y-146365057D01*
X236363220Y-146365057D02*
X236315601Y-146317438D01*
X236315601Y-146317438D02*
X236220363Y-146269819D01*
X236220363Y-146269819D02*
X235982268Y-146269819D01*
X235982268Y-146269819D02*
X235839411Y-146317438D01*
X234982268Y-147222200D02*
X235077506Y-147269819D01*
X235077506Y-147269819D02*
X235267982Y-147269819D01*
X235267982Y-147269819D02*
X235363220Y-147222200D01*
X235363220Y-147222200D02*
X235410839Y-147174580D01*
X235410839Y-147174580D02*
X235458458Y-147079342D01*
X235458458Y-147079342D02*
X235458458Y-146793628D01*
X235458458Y-146793628D02*
X235410839Y-146698390D01*
X235410839Y-146698390D02*
X235363220Y-146650771D01*
X235363220Y-146650771D02*
X235267982Y-146603152D01*
X235267982Y-146603152D02*
X235077506Y-146603152D01*
X235077506Y-146603152D02*
X234982268Y-146650771D01*
X234553696Y-147269819D02*
X234553696Y-146269819D01*
X234125125Y-147269819D02*
X234125125Y-146746009D01*
X234125125Y-146746009D02*
X234172744Y-146650771D01*
X234172744Y-146650771D02*
X234267982Y-146603152D01*
X234267982Y-146603152D02*
X234410839Y-146603152D01*
X234410839Y-146603152D02*
X234506077Y-146650771D01*
X234506077Y-146650771D02*
X234553696Y-146698390D01*
X233267982Y-147222200D02*
X233363220Y-147269819D01*
X233363220Y-147269819D02*
X233553696Y-147269819D01*
X233553696Y-147269819D02*
X233648934Y-147222200D01*
X233648934Y-147222200D02*
X233696553Y-147126961D01*
X233696553Y-147126961D02*
X233696553Y-146746009D01*
X233696553Y-146746009D02*
X233648934Y-146650771D01*
X233648934Y-146650771D02*
X233553696Y-146603152D01*
X233553696Y-146603152D02*
X233363220Y-146603152D01*
X233363220Y-146603152D02*
X233267982Y-146650771D01*
X233267982Y-146650771D02*
X233220363Y-146746009D01*
X233220363Y-146746009D02*
X233220363Y-146841247D01*
X233220363Y-146841247D02*
X233696553Y-146936485D01*
X232791791Y-147269819D02*
X232791791Y-146603152D01*
X232791791Y-146698390D02*
X232744172Y-146650771D01*
X232744172Y-146650771D02*
X232648934Y-146603152D01*
X232648934Y-146603152D02*
X232506077Y-146603152D01*
X232506077Y-146603152D02*
X232410839Y-146650771D01*
X232410839Y-146650771D02*
X232363220Y-146746009D01*
X232363220Y-146746009D02*
X232363220Y-147269819D01*
X232363220Y-146746009D02*
X232315601Y-146650771D01*
X232315601Y-146650771D02*
X232220363Y-146603152D01*
X232220363Y-146603152D02*
X232077506Y-146603152D01*
X232077506Y-146603152D02*
X231982267Y-146650771D01*
X231982267Y-146650771D02*
X231934648Y-146746009D01*
X231934648Y-146746009D02*
X231934648Y-147269819D01*
X231029887Y-147269819D02*
X231029887Y-146746009D01*
X231029887Y-146746009D02*
X231077506Y-146650771D01*
X231077506Y-146650771D02*
X231172744Y-146603152D01*
X231172744Y-146603152D02*
X231363220Y-146603152D01*
X231363220Y-146603152D02*
X231458458Y-146650771D01*
X231029887Y-147222200D02*
X231125125Y-147269819D01*
X231125125Y-147269819D02*
X231363220Y-147269819D01*
X231363220Y-147269819D02*
X231458458Y-147222200D01*
X231458458Y-147222200D02*
X231506077Y-147126961D01*
X231506077Y-147126961D02*
X231506077Y-147031723D01*
X231506077Y-147031723D02*
X231458458Y-146936485D01*
X231458458Y-146936485D02*
X231363220Y-146888866D01*
X231363220Y-146888866D02*
X231125125Y-146888866D01*
X231125125Y-146888866D02*
X231029887Y-146841247D01*
X230696553Y-146603152D02*
X230315601Y-146603152D01*
X230553696Y-146269819D02*
X230553696Y-147126961D01*
X230553696Y-147126961D02*
X230506077Y-147222200D01*
X230506077Y-147222200D02*
X230410839Y-147269819D01*
X230410839Y-147269819D02*
X230315601Y-147269819D01*
X229982267Y-147269819D02*
X229982267Y-146603152D01*
X229982267Y-146269819D02*
X230029886Y-146317438D01*
X230029886Y-146317438D02*
X229982267Y-146365057D01*
X229982267Y-146365057D02*
X229934648Y-146317438D01*
X229934648Y-146317438D02*
X229982267Y-146269819D01*
X229982267Y-146269819D02*
X229982267Y-146365057D01*
X229077506Y-147222200D02*
X229172744Y-147269819D01*
X229172744Y-147269819D02*
X229363220Y-147269819D01*
X229363220Y-147269819D02*
X229458458Y-147222200D01*
X229458458Y-147222200D02*
X229506077Y-147174580D01*
X229506077Y-147174580D02*
X229553696Y-147079342D01*
X229553696Y-147079342D02*
X229553696Y-146793628D01*
X229553696Y-146793628D02*
X229506077Y-146698390D01*
X229506077Y-146698390D02*
X229458458Y-146650771D01*
X229458458Y-146650771D02*
X229363220Y-146603152D01*
X229363220Y-146603152D02*
X229172744Y-146603152D01*
X229172744Y-146603152D02*
X229077506Y-146650771D01*
X227887029Y-147269819D02*
X227887029Y-146269819D01*
X227887029Y-146269819D02*
X227648934Y-146269819D01*
X227648934Y-146269819D02*
X227506077Y-146317438D01*
X227506077Y-146317438D02*
X227410839Y-146412676D01*
X227410839Y-146412676D02*
X227363220Y-146507914D01*
X227363220Y-146507914D02*
X227315601Y-146698390D01*
X227315601Y-146698390D02*
X227315601Y-146841247D01*
X227315601Y-146841247D02*
X227363220Y-147031723D01*
X227363220Y-147031723D02*
X227410839Y-147126961D01*
X227410839Y-147126961D02*
X227506077Y-147222200D01*
X227506077Y-147222200D02*
X227648934Y-147269819D01*
X227648934Y-147269819D02*
X227887029Y-147269819D01*
X226506077Y-147222200D02*
X226601315Y-147269819D01*
X226601315Y-147269819D02*
X226791791Y-147269819D01*
X226791791Y-147269819D02*
X226887029Y-147222200D01*
X226887029Y-147222200D02*
X226934648Y-147126961D01*
X226934648Y-147126961D02*
X226934648Y-146746009D01*
X226934648Y-146746009D02*
X226887029Y-146650771D01*
X226887029Y-146650771D02*
X226791791Y-146603152D01*
X226791791Y-146603152D02*
X226601315Y-146603152D01*
X226601315Y-146603152D02*
X226506077Y-146650771D01*
X226506077Y-146650771D02*
X226458458Y-146746009D01*
X226458458Y-146746009D02*
X226458458Y-146841247D01*
X226458458Y-146841247D02*
X226934648Y-146936485D01*
X226172743Y-146603152D02*
X225791791Y-146603152D01*
X226029886Y-146269819D02*
X226029886Y-147126961D01*
X226029886Y-147126961D02*
X225982267Y-147222200D01*
X225982267Y-147222200D02*
X225887029Y-147269819D01*
X225887029Y-147269819D02*
X225791791Y-147269819D01*
X225029886Y-147269819D02*
X225029886Y-146746009D01*
X225029886Y-146746009D02*
X225077505Y-146650771D01*
X225077505Y-146650771D02*
X225172743Y-146603152D01*
X225172743Y-146603152D02*
X225363219Y-146603152D01*
X225363219Y-146603152D02*
X225458457Y-146650771D01*
X225029886Y-147222200D02*
X225125124Y-147269819D01*
X225125124Y-147269819D02*
X225363219Y-147269819D01*
X225363219Y-147269819D02*
X225458457Y-147222200D01*
X225458457Y-147222200D02*
X225506076Y-147126961D01*
X225506076Y-147126961D02*
X225506076Y-147031723D01*
X225506076Y-147031723D02*
X225458457Y-146936485D01*
X225458457Y-146936485D02*
X225363219Y-146888866D01*
X225363219Y-146888866D02*
X225125124Y-146888866D01*
X225125124Y-146888866D02*
X225029886Y-146841247D01*
X224553695Y-147269819D02*
X224553695Y-146603152D01*
X224553695Y-146269819D02*
X224601314Y-146317438D01*
X224601314Y-146317438D02*
X224553695Y-146365057D01*
X224553695Y-146365057D02*
X224506076Y-146317438D01*
X224506076Y-146317438D02*
X224553695Y-146269819D01*
X224553695Y-146269819D02*
X224553695Y-146365057D01*
X223934648Y-147269819D02*
X224029886Y-147222200D01*
X224029886Y-147222200D02*
X224077505Y-147126961D01*
X224077505Y-147126961D02*
X224077505Y-146269819D01*
X223601314Y-147222200D02*
X223506076Y-147269819D01*
X223506076Y-147269819D02*
X223315600Y-147269819D01*
X223315600Y-147269819D02*
X223220362Y-147222200D01*
X223220362Y-147222200D02*
X223172743Y-147126961D01*
X223172743Y-147126961D02*
X223172743Y-147079342D01*
X223172743Y-147079342D02*
X223220362Y-146984104D01*
X223220362Y-146984104D02*
X223315600Y-146936485D01*
X223315600Y-146936485D02*
X223458457Y-146936485D01*
X223458457Y-146936485D02*
X223553695Y-146888866D01*
X223553695Y-146888866D02*
X223601314Y-146793628D01*
X223601314Y-146793628D02*
X223601314Y-146746009D01*
X223601314Y-146746009D02*
X223553695Y-146650771D01*
X223553695Y-146650771D02*
X223458457Y-146603152D01*
X223458457Y-146603152D02*
X223315600Y-146603152D01*
X223315600Y-146603152D02*
X223220362Y-146650771D01*
X222744171Y-147174580D02*
X222696552Y-147222200D01*
X222696552Y-147222200D02*
X222744171Y-147269819D01*
X222744171Y-147269819D02*
X222791790Y-147222200D01*
X222791790Y-147222200D02*
X222744171Y-147174580D01*
X222744171Y-147174580D02*
X222744171Y-147269819D01*
X222744171Y-146650771D02*
X222696552Y-146698390D01*
X222696552Y-146698390D02*
X222744171Y-146746009D01*
X222744171Y-146746009D02*
X222791790Y-146698390D01*
X222791790Y-146698390D02*
X222744171Y-146650771D01*
X222744171Y-146650771D02*
X222744171Y-146746009D01*
X221506076Y-147269819D02*
X221506076Y-146269819D01*
X221077505Y-147269819D02*
X221077505Y-146746009D01*
X221077505Y-146746009D02*
X221125124Y-146650771D01*
X221125124Y-146650771D02*
X221220362Y-146603152D01*
X221220362Y-146603152D02*
X221363219Y-146603152D01*
X221363219Y-146603152D02*
X221458457Y-146650771D01*
X221458457Y-146650771D02*
X221506076Y-146698390D01*
X220744171Y-146603152D02*
X220363219Y-146603152D01*
X220601314Y-146269819D02*
X220601314Y-147126961D01*
X220601314Y-147126961D02*
X220553695Y-147222200D01*
X220553695Y-147222200D02*
X220458457Y-147269819D01*
X220458457Y-147269819D02*
X220363219Y-147269819D01*
X220172742Y-146603152D02*
X219791790Y-146603152D01*
X220029885Y-146269819D02*
X220029885Y-147126961D01*
X220029885Y-147126961D02*
X219982266Y-147222200D01*
X219982266Y-147222200D02*
X219887028Y-147269819D01*
X219887028Y-147269819D02*
X219791790Y-147269819D01*
X219458456Y-146603152D02*
X219458456Y-147603152D01*
X219458456Y-146650771D02*
X219363218Y-146603152D01*
X219363218Y-146603152D02*
X219172742Y-146603152D01*
X219172742Y-146603152D02*
X219077504Y-146650771D01*
X219077504Y-146650771D02*
X219029885Y-146698390D01*
X219029885Y-146698390D02*
X218982266Y-146793628D01*
X218982266Y-146793628D02*
X218982266Y-147079342D01*
X218982266Y-147079342D02*
X219029885Y-147174580D01*
X219029885Y-147174580D02*
X219077504Y-147222200D01*
X219077504Y-147222200D02*
X219172742Y-147269819D01*
X219172742Y-147269819D02*
X219363218Y-147269819D01*
X219363218Y-147269819D02*
X219458456Y-147222200D01*
X218601313Y-147222200D02*
X218506075Y-147269819D01*
X218506075Y-147269819D02*
X218315599Y-147269819D01*
X218315599Y-147269819D02*
X218220361Y-147222200D01*
X218220361Y-147222200D02*
X218172742Y-147126961D01*
X218172742Y-147126961D02*
X218172742Y-147079342D01*
X218172742Y-147079342D02*
X218220361Y-146984104D01*
X218220361Y-146984104D02*
X218315599Y-146936485D01*
X218315599Y-146936485D02*
X218458456Y-146936485D01*
X218458456Y-146936485D02*
X218553694Y-146888866D01*
X218553694Y-146888866D02*
X218601313Y-146793628D01*
X218601313Y-146793628D02*
X218601313Y-146746009D01*
X218601313Y-146746009D02*
X218553694Y-146650771D01*
X218553694Y-146650771D02*
X218458456Y-146603152D01*
X218458456Y-146603152D02*
X218315599Y-146603152D01*
X218315599Y-146603152D02*
X218220361Y-146650771D01*
X217744170Y-147174580D02*
X217696551Y-147222200D01*
X217696551Y-147222200D02*
X217744170Y-147269819D01*
X217744170Y-147269819D02*
X217791789Y-147222200D01*
X217791789Y-147222200D02*
X217744170Y-147174580D01*
X217744170Y-147174580D02*
X217744170Y-147269819D01*
X217744170Y-146650771D02*
X217696551Y-146698390D01*
X217696551Y-146698390D02*
X217744170Y-146746009D01*
X217744170Y-146746009D02*
X217791789Y-146698390D01*
X217791789Y-146698390D02*
X217744170Y-146650771D01*
X217744170Y-146650771D02*
X217744170Y-146746009D01*
X216553695Y-146222200D02*
X217410837Y-147507914D01*
X215506076Y-146222200D02*
X216363218Y-147507914D01*
X214744171Y-146603152D02*
X214744171Y-147412676D01*
X214744171Y-147412676D02*
X214791790Y-147507914D01*
X214791790Y-147507914D02*
X214839409Y-147555533D01*
X214839409Y-147555533D02*
X214934647Y-147603152D01*
X214934647Y-147603152D02*
X215077504Y-147603152D01*
X215077504Y-147603152D02*
X215172742Y-147555533D01*
X214744171Y-147222200D02*
X214839409Y-147269819D01*
X214839409Y-147269819D02*
X215029885Y-147269819D01*
X215029885Y-147269819D02*
X215125123Y-147222200D01*
X215125123Y-147222200D02*
X215172742Y-147174580D01*
X215172742Y-147174580D02*
X215220361Y-147079342D01*
X215220361Y-147079342D02*
X215220361Y-146793628D01*
X215220361Y-146793628D02*
X215172742Y-146698390D01*
X215172742Y-146698390D02*
X215125123Y-146650771D01*
X215125123Y-146650771D02*
X215029885Y-146603152D01*
X215029885Y-146603152D02*
X214839409Y-146603152D01*
X214839409Y-146603152D02*
X214744171Y-146650771D01*
X214267980Y-147269819D02*
X214267980Y-146603152D01*
X214267980Y-146269819D02*
X214315599Y-146317438D01*
X214315599Y-146317438D02*
X214267980Y-146365057D01*
X214267980Y-146365057D02*
X214220361Y-146317438D01*
X214220361Y-146317438D02*
X214267980Y-146269819D01*
X214267980Y-146269819D02*
X214267980Y-146365057D01*
X213934647Y-146603152D02*
X213553695Y-146603152D01*
X213791790Y-146269819D02*
X213791790Y-147126961D01*
X213791790Y-147126961D02*
X213744171Y-147222200D01*
X213744171Y-147222200D02*
X213648933Y-147269819D01*
X213648933Y-147269819D02*
X213553695Y-147269819D01*
X213220361Y-147269819D02*
X213220361Y-146269819D01*
X212791790Y-147269819D02*
X212791790Y-146746009D01*
X212791790Y-146746009D02*
X212839409Y-146650771D01*
X212839409Y-146650771D02*
X212934647Y-146603152D01*
X212934647Y-146603152D02*
X213077504Y-146603152D01*
X213077504Y-146603152D02*
X213172742Y-146650771D01*
X213172742Y-146650771D02*
X213220361Y-146698390D01*
X211887028Y-146603152D02*
X211887028Y-147269819D01*
X212315599Y-146603152D02*
X212315599Y-147126961D01*
X212315599Y-147126961D02*
X212267980Y-147222200D01*
X212267980Y-147222200D02*
X212172742Y-147269819D01*
X212172742Y-147269819D02*
X212029885Y-147269819D01*
X212029885Y-147269819D02*
X211934647Y-147222200D01*
X211934647Y-147222200D02*
X211887028Y-147174580D01*
X211410837Y-147269819D02*
X211410837Y-146269819D01*
X211410837Y-146650771D02*
X211315599Y-146603152D01*
X211315599Y-146603152D02*
X211125123Y-146603152D01*
X211125123Y-146603152D02*
X211029885Y-146650771D01*
X211029885Y-146650771D02*
X210982266Y-146698390D01*
X210982266Y-146698390D02*
X210934647Y-146793628D01*
X210934647Y-146793628D02*
X210934647Y-147079342D01*
X210934647Y-147079342D02*
X210982266Y-147174580D01*
X210982266Y-147174580D02*
X211029885Y-147222200D01*
X211029885Y-147222200D02*
X211125123Y-147269819D01*
X211125123Y-147269819D02*
X211315599Y-147269819D01*
X211315599Y-147269819D02*
X211410837Y-147222200D01*
X210506075Y-147174580D02*
X210458456Y-147222200D01*
X210458456Y-147222200D02*
X210506075Y-147269819D01*
X210506075Y-147269819D02*
X210553694Y-147222200D01*
X210553694Y-147222200D02*
X210506075Y-147174580D01*
X210506075Y-147174580D02*
X210506075Y-147269819D01*
X209601314Y-147222200D02*
X209696552Y-147269819D01*
X209696552Y-147269819D02*
X209887028Y-147269819D01*
X209887028Y-147269819D02*
X209982266Y-147222200D01*
X209982266Y-147222200D02*
X210029885Y-147174580D01*
X210029885Y-147174580D02*
X210077504Y-147079342D01*
X210077504Y-147079342D02*
X210077504Y-146793628D01*
X210077504Y-146793628D02*
X210029885Y-146698390D01*
X210029885Y-146698390D02*
X209982266Y-146650771D01*
X209982266Y-146650771D02*
X209887028Y-146603152D01*
X209887028Y-146603152D02*
X209696552Y-146603152D01*
X209696552Y-146603152D02*
X209601314Y-146650771D01*
X209029885Y-147269819D02*
X209125123Y-147222200D01*
X209125123Y-147222200D02*
X209172742Y-147174580D01*
X209172742Y-147174580D02*
X209220361Y-147079342D01*
X209220361Y-147079342D02*
X209220361Y-146793628D01*
X209220361Y-146793628D02*
X209172742Y-146698390D01*
X209172742Y-146698390D02*
X209125123Y-146650771D01*
X209125123Y-146650771D02*
X209029885Y-146603152D01*
X209029885Y-146603152D02*
X208887028Y-146603152D01*
X208887028Y-146603152D02*
X208791790Y-146650771D01*
X208791790Y-146650771D02*
X208744171Y-146698390D01*
X208744171Y-146698390D02*
X208696552Y-146793628D01*
X208696552Y-146793628D02*
X208696552Y-147079342D01*
X208696552Y-147079342D02*
X208744171Y-147174580D01*
X208744171Y-147174580D02*
X208791790Y-147222200D01*
X208791790Y-147222200D02*
X208887028Y-147269819D01*
X208887028Y-147269819D02*
X209029885Y-147269819D01*
X208267980Y-147269819D02*
X208267980Y-146603152D01*
X208267980Y-146698390D02*
X208220361Y-146650771D01*
X208220361Y-146650771D02*
X208125123Y-146603152D01*
X208125123Y-146603152D02*
X207982266Y-146603152D01*
X207982266Y-146603152D02*
X207887028Y-146650771D01*
X207887028Y-146650771D02*
X207839409Y-146746009D01*
X207839409Y-146746009D02*
X207839409Y-147269819D01*
X207839409Y-146746009D02*
X207791790Y-146650771D01*
X207791790Y-146650771D02*
X207696552Y-146603152D01*
X207696552Y-146603152D02*
X207553695Y-146603152D01*
X207553695Y-146603152D02*
X207458456Y-146650771D01*
X207458456Y-146650771D02*
X207410837Y-146746009D01*
X207410837Y-146746009D02*
X207410837Y-147269819D01*
X206220362Y-146222200D02*
X207077504Y-147507914D01*
X205934647Y-147222200D02*
X205839409Y-147269819D01*
X205839409Y-147269819D02*
X205648933Y-147269819D01*
X205648933Y-147269819D02*
X205553695Y-147222200D01*
X205553695Y-147222200D02*
X205506076Y-147126961D01*
X205506076Y-147126961D02*
X205506076Y-147079342D01*
X205506076Y-147079342D02*
X205553695Y-146984104D01*
X205553695Y-146984104D02*
X205648933Y-146936485D01*
X205648933Y-146936485D02*
X205791790Y-146936485D01*
X205791790Y-146936485D02*
X205887028Y-146888866D01*
X205887028Y-146888866D02*
X205934647Y-146793628D01*
X205934647Y-146793628D02*
X205934647Y-146746009D01*
X205934647Y-146746009D02*
X205887028Y-146650771D01*
X205887028Y-146650771D02*
X205791790Y-146603152D01*
X205791790Y-146603152D02*
X205648933Y-146603152D01*
X205648933Y-146603152D02*
X205553695Y-146650771D01*
X204648933Y-147269819D02*
X204648933Y-146746009D01*
X204648933Y-146746009D02*
X204696552Y-146650771D01*
X204696552Y-146650771D02*
X204791790Y-146603152D01*
X204791790Y-146603152D02*
X204982266Y-146603152D01*
X204982266Y-146603152D02*
X205077504Y-146650771D01*
X204648933Y-147222200D02*
X204744171Y-147269819D01*
X204744171Y-147269819D02*
X204982266Y-147269819D01*
X204982266Y-147269819D02*
X205077504Y-147222200D01*
X205077504Y-147222200D02*
X205125123Y-147126961D01*
X205125123Y-147126961D02*
X205125123Y-147031723D01*
X205125123Y-147031723D02*
X205077504Y-146936485D01*
X205077504Y-146936485D02*
X204982266Y-146888866D01*
X204982266Y-146888866D02*
X204744171Y-146888866D01*
X204744171Y-146888866D02*
X204648933Y-146841247D01*
X204315599Y-146603152D02*
X203934647Y-146603152D01*
X204172742Y-146269819D02*
X204172742Y-147126961D01*
X204172742Y-147126961D02*
X204125123Y-147222200D01*
X204125123Y-147222200D02*
X204029885Y-147269819D01*
X204029885Y-147269819D02*
X203934647Y-147269819D01*
X203458456Y-147269819D02*
X203553694Y-147222200D01*
X203553694Y-147222200D02*
X203601313Y-147174580D01*
X203601313Y-147174580D02*
X203648932Y-147079342D01*
X203648932Y-147079342D02*
X203648932Y-146793628D01*
X203648932Y-146793628D02*
X203601313Y-146698390D01*
X203601313Y-146698390D02*
X203553694Y-146650771D01*
X203553694Y-146650771D02*
X203458456Y-146603152D01*
X203458456Y-146603152D02*
X203315599Y-146603152D01*
X203315599Y-146603152D02*
X203220361Y-146650771D01*
X203220361Y-146650771D02*
X203172742Y-146698390D01*
X203172742Y-146698390D02*
X203125123Y-146793628D01*
X203125123Y-146793628D02*
X203125123Y-147079342D01*
X203125123Y-147079342D02*
X203172742Y-147174580D01*
X203172742Y-147174580D02*
X203220361Y-147222200D01*
X203220361Y-147222200D02*
X203315599Y-147269819D01*
X203315599Y-147269819D02*
X203458456Y-147269819D01*
X202696551Y-147269819D02*
X202696551Y-146603152D01*
X202696551Y-146698390D02*
X202648932Y-146650771D01*
X202648932Y-146650771D02*
X202553694Y-146603152D01*
X202553694Y-146603152D02*
X202410837Y-146603152D01*
X202410837Y-146603152D02*
X202315599Y-146650771D01*
X202315599Y-146650771D02*
X202267980Y-146746009D01*
X202267980Y-146746009D02*
X202267980Y-147269819D01*
X202267980Y-146746009D02*
X202220361Y-146650771D01*
X202220361Y-146650771D02*
X202125123Y-146603152D01*
X202125123Y-146603152D02*
X201982266Y-146603152D01*
X201982266Y-146603152D02*
X201887027Y-146650771D01*
X201887027Y-146650771D02*
X201839408Y-146746009D01*
X201839408Y-146746009D02*
X201839408Y-147269819D01*
X201363218Y-147269819D02*
X201363218Y-146603152D01*
X201363218Y-146698390D02*
X201315599Y-146650771D01*
X201315599Y-146650771D02*
X201220361Y-146603152D01*
X201220361Y-146603152D02*
X201077504Y-146603152D01*
X201077504Y-146603152D02*
X200982266Y-146650771D01*
X200982266Y-146650771D02*
X200934647Y-146746009D01*
X200934647Y-146746009D02*
X200934647Y-147269819D01*
X200934647Y-146746009D02*
X200887028Y-146650771D01*
X200887028Y-146650771D02*
X200791790Y-146603152D01*
X200791790Y-146603152D02*
X200648933Y-146603152D01*
X200648933Y-146603152D02*
X200553694Y-146650771D01*
X200553694Y-146650771D02*
X200506075Y-146746009D01*
X200506075Y-146746009D02*
X200506075Y-147269819D01*
X199506076Y-147269819D02*
X200077504Y-147269819D01*
X199791790Y-147269819D02*
X199791790Y-146269819D01*
X199791790Y-146269819D02*
X199887028Y-146412676D01*
X199887028Y-146412676D02*
X199982266Y-146507914D01*
X199982266Y-146507914D02*
X200077504Y-146555533D01*
X198363219Y-146222200D02*
X199220361Y-147507914D01*
X197458457Y-147269819D02*
X197791790Y-146793628D01*
X198029885Y-147269819D02*
X198029885Y-146269819D01*
X198029885Y-146269819D02*
X197648933Y-146269819D01*
X197648933Y-146269819D02*
X197553695Y-146317438D01*
X197553695Y-146317438D02*
X197506076Y-146365057D01*
X197506076Y-146365057D02*
X197458457Y-146460295D01*
X197458457Y-146460295D02*
X197458457Y-146603152D01*
X197458457Y-146603152D02*
X197506076Y-146698390D01*
X197506076Y-146698390D02*
X197553695Y-146746009D01*
X197553695Y-146746009D02*
X197648933Y-146793628D01*
X197648933Y-146793628D02*
X198029885Y-146793628D01*
X196887028Y-147269819D02*
X196982266Y-147222200D01*
X196982266Y-147222200D02*
X197029885Y-147174580D01*
X197029885Y-147174580D02*
X197077504Y-147079342D01*
X197077504Y-147079342D02*
X197077504Y-146793628D01*
X197077504Y-146793628D02*
X197029885Y-146698390D01*
X197029885Y-146698390D02*
X196982266Y-146650771D01*
X196982266Y-146650771D02*
X196887028Y-146603152D01*
X196887028Y-146603152D02*
X196744171Y-146603152D01*
X196744171Y-146603152D02*
X196648933Y-146650771D01*
X196648933Y-146650771D02*
X196601314Y-146698390D01*
X196601314Y-146698390D02*
X196553695Y-146793628D01*
X196553695Y-146793628D02*
X196553695Y-147079342D01*
X196553695Y-147079342D02*
X196601314Y-147174580D01*
X196601314Y-147174580D02*
X196648933Y-147222200D01*
X196648933Y-147222200D02*
X196744171Y-147269819D01*
X196744171Y-147269819D02*
X196887028Y-147269819D01*
X196125123Y-147269819D02*
X196125123Y-146269819D01*
X196125123Y-146650771D02*
X196029885Y-146603152D01*
X196029885Y-146603152D02*
X195839409Y-146603152D01*
X195839409Y-146603152D02*
X195744171Y-146650771D01*
X195744171Y-146650771D02*
X195696552Y-146698390D01*
X195696552Y-146698390D02*
X195648933Y-146793628D01*
X195648933Y-146793628D02*
X195648933Y-147079342D01*
X195648933Y-147079342D02*
X195696552Y-147174580D01*
X195696552Y-147174580D02*
X195744171Y-147222200D01*
X195744171Y-147222200D02*
X195839409Y-147269819D01*
X195839409Y-147269819D02*
X196029885Y-147269819D01*
X196029885Y-147269819D02*
X196125123Y-147222200D01*
X195077504Y-147269819D02*
X195172742Y-147222200D01*
X195172742Y-147222200D02*
X195220361Y-147174580D01*
X195220361Y-147174580D02*
X195267980Y-147079342D01*
X195267980Y-147079342D02*
X195267980Y-146793628D01*
X195267980Y-146793628D02*
X195220361Y-146698390D01*
X195220361Y-146698390D02*
X195172742Y-146650771D01*
X195172742Y-146650771D02*
X195077504Y-146603152D01*
X195077504Y-146603152D02*
X194934647Y-146603152D01*
X194934647Y-146603152D02*
X194839409Y-146650771D01*
X194839409Y-146650771D02*
X194791790Y-146698390D01*
X194791790Y-146698390D02*
X194744171Y-146793628D01*
X194744171Y-146793628D02*
X194744171Y-147079342D01*
X194744171Y-147079342D02*
X194791790Y-147174580D01*
X194791790Y-147174580D02*
X194839409Y-147222200D01*
X194839409Y-147222200D02*
X194934647Y-147269819D01*
X194934647Y-147269819D02*
X195077504Y-147269819D01*
X194458456Y-146603152D02*
X194077504Y-146603152D01*
X194315599Y-146269819D02*
X194315599Y-147126961D01*
X194315599Y-147126961D02*
X194267980Y-147222200D01*
X194267980Y-147222200D02*
X194172742Y-147269819D01*
X194172742Y-147269819D02*
X194077504Y-147269819D01*
X173872744Y-116069819D02*
X173777506Y-116069819D01*
X173777506Y-116069819D02*
X173682268Y-116117438D01*
X173682268Y-116117438D02*
X173634649Y-116165057D01*
X173634649Y-116165057D02*
X173587030Y-116260295D01*
X173587030Y-116260295D02*
X173539411Y-116450771D01*
X173539411Y-116450771D02*
X173539411Y-116688866D01*
X173539411Y-116688866D02*
X173587030Y-116879342D01*
X173587030Y-116879342D02*
X173634649Y-116974580D01*
X173634649Y-116974580D02*
X173682268Y-117022200D01*
X173682268Y-117022200D02*
X173777506Y-117069819D01*
X173777506Y-117069819D02*
X173872744Y-117069819D01*
X173872744Y-117069819D02*
X173967982Y-117022200D01*
X173967982Y-117022200D02*
X174015601Y-116974580D01*
X174015601Y-116974580D02*
X174063220Y-116879342D01*
X174063220Y-116879342D02*
X174110839Y-116688866D01*
X174110839Y-116688866D02*
X174110839Y-116450771D01*
X174110839Y-116450771D02*
X174063220Y-116260295D01*
X174063220Y-116260295D02*
X174015601Y-116165057D01*
X174015601Y-116165057D02*
X173967982Y-116117438D01*
X173967982Y-116117438D02*
X173872744Y-116069819D01*
X173110839Y-116974580D02*
X173063220Y-117022200D01*
X173063220Y-117022200D02*
X173110839Y-117069819D01*
X173110839Y-117069819D02*
X173158458Y-117022200D01*
X173158458Y-117022200D02*
X173110839Y-116974580D01*
X173110839Y-116974580D02*
X173110839Y-117069819D01*
X172110840Y-117069819D02*
X172682268Y-117069819D01*
X172396554Y-117069819D02*
X172396554Y-116069819D01*
X172396554Y-116069819D02*
X172491792Y-116212676D01*
X172491792Y-116212676D02*
X172587030Y-116307914D01*
X172587030Y-116307914D02*
X172682268Y-116355533D01*
X171110840Y-117069819D02*
X171444173Y-116593628D01*
X171682268Y-117069819D02*
X171682268Y-116069819D01*
X171682268Y-116069819D02*
X171301316Y-116069819D01*
X171301316Y-116069819D02*
X171206078Y-116117438D01*
X171206078Y-116117438D02*
X171158459Y-116165057D01*
X171158459Y-116165057D02*
X171110840Y-116260295D01*
X171110840Y-116260295D02*
X171110840Y-116403152D01*
X171110840Y-116403152D02*
X171158459Y-116498390D01*
X171158459Y-116498390D02*
X171206078Y-116546009D01*
X171206078Y-116546009D02*
X171301316Y-116593628D01*
X171301316Y-116593628D02*
X171682268Y-116593628D01*
X259272744Y-134669819D02*
X259177506Y-134669819D01*
X259177506Y-134669819D02*
X259082268Y-134717438D01*
X259082268Y-134717438D02*
X259034649Y-134765057D01*
X259034649Y-134765057D02*
X258987030Y-134860295D01*
X258987030Y-134860295D02*
X258939411Y-135050771D01*
X258939411Y-135050771D02*
X258939411Y-135288866D01*
X258939411Y-135288866D02*
X258987030Y-135479342D01*
X258987030Y-135479342D02*
X259034649Y-135574580D01*
X259034649Y-135574580D02*
X259082268Y-135622200D01*
X259082268Y-135622200D02*
X259177506Y-135669819D01*
X259177506Y-135669819D02*
X259272744Y-135669819D01*
X259272744Y-135669819D02*
X259367982Y-135622200D01*
X259367982Y-135622200D02*
X259415601Y-135574580D01*
X259415601Y-135574580D02*
X259463220Y-135479342D01*
X259463220Y-135479342D02*
X259510839Y-135288866D01*
X259510839Y-135288866D02*
X259510839Y-135050771D01*
X259510839Y-135050771D02*
X259463220Y-134860295D01*
X259463220Y-134860295D02*
X259415601Y-134765057D01*
X259415601Y-134765057D02*
X259367982Y-134717438D01*
X259367982Y-134717438D02*
X259272744Y-134669819D01*
X258510839Y-135574580D02*
X258463220Y-135622200D01*
X258463220Y-135622200D02*
X258510839Y-135669819D01*
X258510839Y-135669819D02*
X258558458Y-135622200D01*
X258558458Y-135622200D02*
X258510839Y-135574580D01*
X258510839Y-135574580D02*
X258510839Y-135669819D01*
X257510840Y-135669819D02*
X258082268Y-135669819D01*
X257796554Y-135669819D02*
X257796554Y-134669819D01*
X257796554Y-134669819D02*
X257891792Y-134812676D01*
X257891792Y-134812676D02*
X257987030Y-134907914D01*
X257987030Y-134907914D02*
X258082268Y-134955533D01*
X256510840Y-135669819D02*
X256844173Y-135193628D01*
X257082268Y-135669819D02*
X257082268Y-134669819D01*
X257082268Y-134669819D02*
X256701316Y-134669819D01*
X256701316Y-134669819D02*
X256606078Y-134717438D01*
X256606078Y-134717438D02*
X256558459Y-134765057D01*
X256558459Y-134765057D02*
X256510840Y-134860295D01*
X256510840Y-134860295D02*
X256510840Y-135003152D01*
X256510840Y-135003152D02*
X256558459Y-135098390D01*
X256558459Y-135098390D02*
X256606078Y-135146009D01*
X256606078Y-135146009D02*
X256701316Y-135193628D01*
X256701316Y-135193628D02*
X257082268Y-135193628D01*
X225213220Y-129449931D02*
X225213220Y-128449931D01*
X225213220Y-128926121D02*
X224641792Y-128926121D01*
X224641792Y-129449931D02*
X224641792Y-128449931D01*
X224022744Y-129449931D02*
X224117982Y-129402312D01*
X224117982Y-129402312D02*
X224165601Y-129354692D01*
X224165601Y-129354692D02*
X224213220Y-129259454D01*
X224213220Y-129259454D02*
X224213220Y-128973740D01*
X224213220Y-128973740D02*
X224165601Y-128878502D01*
X224165601Y-128878502D02*
X224117982Y-128830883D01*
X224117982Y-128830883D02*
X224022744Y-128783264D01*
X224022744Y-128783264D02*
X223879887Y-128783264D01*
X223879887Y-128783264D02*
X223784649Y-128830883D01*
X223784649Y-128830883D02*
X223737030Y-128878502D01*
X223737030Y-128878502D02*
X223689411Y-128973740D01*
X223689411Y-128973740D02*
X223689411Y-129259454D01*
X223689411Y-129259454D02*
X223737030Y-129354692D01*
X223737030Y-129354692D02*
X223784649Y-129402312D01*
X223784649Y-129402312D02*
X223879887Y-129449931D01*
X223879887Y-129449931D02*
X224022744Y-129449931D01*
X223117982Y-129449931D02*
X223213220Y-129402312D01*
X223213220Y-129402312D02*
X223260839Y-129307073D01*
X223260839Y-129307073D02*
X223260839Y-128449931D01*
X222356077Y-129402312D02*
X222451315Y-129449931D01*
X222451315Y-129449931D02*
X222641791Y-129449931D01*
X222641791Y-129449931D02*
X222737029Y-129402312D01*
X222737029Y-129402312D02*
X222784648Y-129307073D01*
X222784648Y-129307073D02*
X222784648Y-128926121D01*
X222784648Y-128926121D02*
X222737029Y-128830883D01*
X222737029Y-128830883D02*
X222641791Y-128783264D01*
X222641791Y-128783264D02*
X222451315Y-128783264D01*
X222451315Y-128783264D02*
X222356077Y-128830883D01*
X222356077Y-128830883D02*
X222308458Y-128926121D01*
X222308458Y-128926121D02*
X222308458Y-129021359D01*
X222308458Y-129021359D02*
X222784648Y-129116597D01*
X221165600Y-129402312D02*
X221022743Y-129449931D01*
X221022743Y-129449931D02*
X220784648Y-129449931D01*
X220784648Y-129449931D02*
X220689410Y-129402312D01*
X220689410Y-129402312D02*
X220641791Y-129354692D01*
X220641791Y-129354692D02*
X220594172Y-129259454D01*
X220594172Y-129259454D02*
X220594172Y-129164216D01*
X220594172Y-129164216D02*
X220641791Y-129068978D01*
X220641791Y-129068978D02*
X220689410Y-129021359D01*
X220689410Y-129021359D02*
X220784648Y-128973740D01*
X220784648Y-128973740D02*
X220975124Y-128926121D01*
X220975124Y-128926121D02*
X221070362Y-128878502D01*
X221070362Y-128878502D02*
X221117981Y-128830883D01*
X221117981Y-128830883D02*
X221165600Y-128735645D01*
X221165600Y-128735645D02*
X221165600Y-128640407D01*
X221165600Y-128640407D02*
X221117981Y-128545169D01*
X221117981Y-128545169D02*
X221070362Y-128497550D01*
X221070362Y-128497550D02*
X220975124Y-128449931D01*
X220975124Y-128449931D02*
X220737029Y-128449931D01*
X220737029Y-128449931D02*
X220594172Y-128497550D01*
X220165600Y-128783264D02*
X220165600Y-129783264D01*
X220165600Y-128830883D02*
X220070362Y-128783264D01*
X220070362Y-128783264D02*
X219879886Y-128783264D01*
X219879886Y-128783264D02*
X219784648Y-128830883D01*
X219784648Y-128830883D02*
X219737029Y-128878502D01*
X219737029Y-128878502D02*
X219689410Y-128973740D01*
X219689410Y-128973740D02*
X219689410Y-129259454D01*
X219689410Y-129259454D02*
X219737029Y-129354692D01*
X219737029Y-129354692D02*
X219784648Y-129402312D01*
X219784648Y-129402312D02*
X219879886Y-129449931D01*
X219879886Y-129449931D02*
X220070362Y-129449931D01*
X220070362Y-129449931D02*
X220165600Y-129402312D01*
X218832267Y-129449931D02*
X218832267Y-128926121D01*
X218832267Y-128926121D02*
X218879886Y-128830883D01*
X218879886Y-128830883D02*
X218975124Y-128783264D01*
X218975124Y-128783264D02*
X219165600Y-128783264D01*
X219165600Y-128783264D02*
X219260838Y-128830883D01*
X218832267Y-129402312D02*
X218927505Y-129449931D01*
X218927505Y-129449931D02*
X219165600Y-129449931D01*
X219165600Y-129449931D02*
X219260838Y-129402312D01*
X219260838Y-129402312D02*
X219308457Y-129307073D01*
X219308457Y-129307073D02*
X219308457Y-129211835D01*
X219308457Y-129211835D02*
X219260838Y-129116597D01*
X219260838Y-129116597D02*
X219165600Y-129068978D01*
X219165600Y-129068978D02*
X218927505Y-129068978D01*
X218927505Y-129068978D02*
X218832267Y-129021359D01*
X217927505Y-129402312D02*
X218022743Y-129449931D01*
X218022743Y-129449931D02*
X218213219Y-129449931D01*
X218213219Y-129449931D02*
X218308457Y-129402312D01*
X218308457Y-129402312D02*
X218356076Y-129354692D01*
X218356076Y-129354692D02*
X218403695Y-129259454D01*
X218403695Y-129259454D02*
X218403695Y-128973740D01*
X218403695Y-128973740D02*
X218356076Y-128878502D01*
X218356076Y-128878502D02*
X218308457Y-128830883D01*
X218308457Y-128830883D02*
X218213219Y-128783264D01*
X218213219Y-128783264D02*
X218022743Y-128783264D01*
X218022743Y-128783264D02*
X217927505Y-128830883D01*
X217498933Y-129449931D02*
X217498933Y-128783264D01*
X217498933Y-128449931D02*
X217546552Y-128497550D01*
X217546552Y-128497550D02*
X217498933Y-128545169D01*
X217498933Y-128545169D02*
X217451314Y-128497550D01*
X217451314Y-128497550D02*
X217498933Y-128449931D01*
X217498933Y-128449931D02*
X217498933Y-128545169D01*
X217022743Y-128783264D02*
X217022743Y-129449931D01*
X217022743Y-128878502D02*
X216975124Y-128830883D01*
X216975124Y-128830883D02*
X216879886Y-128783264D01*
X216879886Y-128783264D02*
X216737029Y-128783264D01*
X216737029Y-128783264D02*
X216641791Y-128830883D01*
X216641791Y-128830883D02*
X216594172Y-128926121D01*
X216594172Y-128926121D02*
X216594172Y-129449931D01*
X215689410Y-128783264D02*
X215689410Y-129592788D01*
X215689410Y-129592788D02*
X215737029Y-129688026D01*
X215737029Y-129688026D02*
X215784648Y-129735645D01*
X215784648Y-129735645D02*
X215879886Y-129783264D01*
X215879886Y-129783264D02*
X216022743Y-129783264D01*
X216022743Y-129783264D02*
X216117981Y-129735645D01*
X215689410Y-129402312D02*
X215784648Y-129449931D01*
X215784648Y-129449931D02*
X215975124Y-129449931D01*
X215975124Y-129449931D02*
X216070362Y-129402312D01*
X216070362Y-129402312D02*
X216117981Y-129354692D01*
X216117981Y-129354692D02*
X216165600Y-129259454D01*
X216165600Y-129259454D02*
X216165600Y-128973740D01*
X216165600Y-128973740D02*
X216117981Y-128878502D01*
X216117981Y-128878502D02*
X216070362Y-128830883D01*
X216070362Y-128830883D02*
X215975124Y-128783264D01*
X215975124Y-128783264D02*
X215784648Y-128783264D01*
X215784648Y-128783264D02*
X215689410Y-128830883D01*
X215213219Y-129354692D02*
X215165600Y-129402312D01*
X215165600Y-129402312D02*
X215213219Y-129449931D01*
X215213219Y-129449931D02*
X215260838Y-129402312D01*
X215260838Y-129402312D02*
X215213219Y-129354692D01*
X215213219Y-129354692D02*
X215213219Y-129449931D01*
X215213219Y-128830883D02*
X215165600Y-128878502D01*
X215165600Y-128878502D02*
X215213219Y-128926121D01*
X215213219Y-128926121D02*
X215260838Y-128878502D01*
X215260838Y-128878502D02*
X215213219Y-128830883D01*
X215213219Y-128830883D02*
X215213219Y-128926121D01*
X213927505Y-129449931D02*
X213737029Y-129449931D01*
X213737029Y-129449931D02*
X213641791Y-129402312D01*
X213641791Y-129402312D02*
X213594172Y-129354692D01*
X213594172Y-129354692D02*
X213498934Y-129211835D01*
X213498934Y-129211835D02*
X213451315Y-129021359D01*
X213451315Y-129021359D02*
X213451315Y-128640407D01*
X213451315Y-128640407D02*
X213498934Y-128545169D01*
X213498934Y-128545169D02*
X213546553Y-128497550D01*
X213546553Y-128497550D02*
X213641791Y-128449931D01*
X213641791Y-128449931D02*
X213832267Y-128449931D01*
X213832267Y-128449931D02*
X213927505Y-128497550D01*
X213927505Y-128497550D02*
X213975124Y-128545169D01*
X213975124Y-128545169D02*
X214022743Y-128640407D01*
X214022743Y-128640407D02*
X214022743Y-128878502D01*
X214022743Y-128878502D02*
X213975124Y-128973740D01*
X213975124Y-128973740D02*
X213927505Y-129021359D01*
X213927505Y-129021359D02*
X213832267Y-129068978D01*
X213832267Y-129068978D02*
X213641791Y-129068978D01*
X213641791Y-129068978D02*
X213546553Y-129021359D01*
X213546553Y-129021359D02*
X213498934Y-128973740D01*
X213498934Y-128973740D02*
X213451315Y-128878502D01*
X213070362Y-128545169D02*
X213022743Y-128497550D01*
X213022743Y-128497550D02*
X212927505Y-128449931D01*
X212927505Y-128449931D02*
X212689410Y-128449931D01*
X212689410Y-128449931D02*
X212594172Y-128497550D01*
X212594172Y-128497550D02*
X212546553Y-128545169D01*
X212546553Y-128545169D02*
X212498934Y-128640407D01*
X212498934Y-128640407D02*
X212498934Y-128735645D01*
X212498934Y-128735645D02*
X212546553Y-128878502D01*
X212546553Y-128878502D02*
X213117981Y-129449931D01*
X213117981Y-129449931D02*
X212498934Y-129449931D01*
X212070362Y-129354692D02*
X212022743Y-129402312D01*
X212022743Y-129402312D02*
X212070362Y-129449931D01*
X212070362Y-129449931D02*
X212117981Y-129402312D01*
X212117981Y-129402312D02*
X212070362Y-129354692D01*
X212070362Y-129354692D02*
X212070362Y-129449931D01*
X211117982Y-128449931D02*
X211594172Y-128449931D01*
X211594172Y-128449931D02*
X211641791Y-128926121D01*
X211641791Y-128926121D02*
X211594172Y-128878502D01*
X211594172Y-128878502D02*
X211498934Y-128830883D01*
X211498934Y-128830883D02*
X211260839Y-128830883D01*
X211260839Y-128830883D02*
X211165601Y-128878502D01*
X211165601Y-128878502D02*
X211117982Y-128926121D01*
X211117982Y-128926121D02*
X211070363Y-129021359D01*
X211070363Y-129021359D02*
X211070363Y-129259454D01*
X211070363Y-129259454D02*
X211117982Y-129354692D01*
X211117982Y-129354692D02*
X211165601Y-129402312D01*
X211165601Y-129402312D02*
X211260839Y-129449931D01*
X211260839Y-129449931D02*
X211498934Y-129449931D01*
X211498934Y-129449931D02*
X211594172Y-129402312D01*
X211594172Y-129402312D02*
X211641791Y-129354692D01*
X209879886Y-129449931D02*
X209879886Y-128783264D01*
X209879886Y-128878502D02*
X209832267Y-128830883D01*
X209832267Y-128830883D02*
X209737029Y-128783264D01*
X209737029Y-128783264D02*
X209594172Y-128783264D01*
X209594172Y-128783264D02*
X209498934Y-128830883D01*
X209498934Y-128830883D02*
X209451315Y-128926121D01*
X209451315Y-128926121D02*
X209451315Y-129449931D01*
X209451315Y-128926121D02*
X209403696Y-128830883D01*
X209403696Y-128830883D02*
X209308458Y-128783264D01*
X209308458Y-128783264D02*
X209165601Y-128783264D01*
X209165601Y-128783264D02*
X209070362Y-128830883D01*
X209070362Y-128830883D02*
X209022743Y-128926121D01*
X209022743Y-128926121D02*
X209022743Y-129449931D01*
X208546553Y-129449931D02*
X208546553Y-128783264D01*
X208546553Y-128878502D02*
X208498934Y-128830883D01*
X208498934Y-128830883D02*
X208403696Y-128783264D01*
X208403696Y-128783264D02*
X208260839Y-128783264D01*
X208260839Y-128783264D02*
X208165601Y-128830883D01*
X208165601Y-128830883D02*
X208117982Y-128926121D01*
X208117982Y-128926121D02*
X208117982Y-129449931D01*
X208117982Y-128926121D02*
X208070363Y-128830883D01*
X208070363Y-128830883D02*
X207975125Y-128783264D01*
X207975125Y-128783264D02*
X207832268Y-128783264D01*
X207832268Y-128783264D02*
X207737029Y-128830883D01*
X207737029Y-128830883D02*
X207689410Y-128926121D01*
X207689410Y-128926121D02*
X207689410Y-129449931D01*
X206546553Y-129449931D02*
X206022744Y-128783264D01*
X206546553Y-128783264D02*
X206022744Y-129449931D01*
X204975124Y-128449931D02*
X204308458Y-128449931D01*
X204308458Y-128449931D02*
X204737029Y-129449931D01*
X203784648Y-128878502D02*
X203879886Y-128830883D01*
X203879886Y-128830883D02*
X203927505Y-128783264D01*
X203927505Y-128783264D02*
X203975124Y-128688026D01*
X203975124Y-128688026D02*
X203975124Y-128640407D01*
X203975124Y-128640407D02*
X203927505Y-128545169D01*
X203927505Y-128545169D02*
X203879886Y-128497550D01*
X203879886Y-128497550D02*
X203784648Y-128449931D01*
X203784648Y-128449931D02*
X203594172Y-128449931D01*
X203594172Y-128449931D02*
X203498934Y-128497550D01*
X203498934Y-128497550D02*
X203451315Y-128545169D01*
X203451315Y-128545169D02*
X203403696Y-128640407D01*
X203403696Y-128640407D02*
X203403696Y-128688026D01*
X203403696Y-128688026D02*
X203451315Y-128783264D01*
X203451315Y-128783264D02*
X203498934Y-128830883D01*
X203498934Y-128830883D02*
X203594172Y-128878502D01*
X203594172Y-128878502D02*
X203784648Y-128878502D01*
X203784648Y-128878502D02*
X203879886Y-128926121D01*
X203879886Y-128926121D02*
X203927505Y-128973740D01*
X203927505Y-128973740D02*
X203975124Y-129068978D01*
X203975124Y-129068978D02*
X203975124Y-129259454D01*
X203975124Y-129259454D02*
X203927505Y-129354692D01*
X203927505Y-129354692D02*
X203879886Y-129402312D01*
X203879886Y-129402312D02*
X203784648Y-129449931D01*
X203784648Y-129449931D02*
X203594172Y-129449931D01*
X203594172Y-129449931D02*
X203498934Y-129402312D01*
X203498934Y-129402312D02*
X203451315Y-129354692D01*
X203451315Y-129354692D02*
X203403696Y-129259454D01*
X203403696Y-129259454D02*
X203403696Y-129068978D01*
X203403696Y-129068978D02*
X203451315Y-128973740D01*
X203451315Y-128973740D02*
X203498934Y-128926121D01*
X203498934Y-128926121D02*
X203594172Y-128878502D01*
X202975124Y-129354692D02*
X202927505Y-129402312D01*
X202927505Y-129402312D02*
X202975124Y-129449931D01*
X202975124Y-129449931D02*
X203022743Y-129402312D01*
X203022743Y-129402312D02*
X202975124Y-129354692D01*
X202975124Y-129354692D02*
X202975124Y-129449931D01*
X202022744Y-128449931D02*
X202498934Y-128449931D01*
X202498934Y-128449931D02*
X202546553Y-128926121D01*
X202546553Y-128926121D02*
X202498934Y-128878502D01*
X202498934Y-128878502D02*
X202403696Y-128830883D01*
X202403696Y-128830883D02*
X202165601Y-128830883D01*
X202165601Y-128830883D02*
X202070363Y-128878502D01*
X202070363Y-128878502D02*
X202022744Y-128926121D01*
X202022744Y-128926121D02*
X201975125Y-129021359D01*
X201975125Y-129021359D02*
X201975125Y-129259454D01*
X201975125Y-129259454D02*
X202022744Y-129354692D01*
X202022744Y-129354692D02*
X202070363Y-129402312D01*
X202070363Y-129402312D02*
X202165601Y-129449931D01*
X202165601Y-129449931D02*
X202403696Y-129449931D01*
X202403696Y-129449931D02*
X202498934Y-129402312D01*
X202498934Y-129402312D02*
X202546553Y-129354692D01*
X200784648Y-129449931D02*
X200784648Y-128783264D01*
X200784648Y-128878502D02*
X200737029Y-128830883D01*
X200737029Y-128830883D02*
X200641791Y-128783264D01*
X200641791Y-128783264D02*
X200498934Y-128783264D01*
X200498934Y-128783264D02*
X200403696Y-128830883D01*
X200403696Y-128830883D02*
X200356077Y-128926121D01*
X200356077Y-128926121D02*
X200356077Y-129449931D01*
X200356077Y-128926121D02*
X200308458Y-128830883D01*
X200308458Y-128830883D02*
X200213220Y-128783264D01*
X200213220Y-128783264D02*
X200070363Y-128783264D01*
X200070363Y-128783264D02*
X199975124Y-128830883D01*
X199975124Y-128830883D02*
X199927505Y-128926121D01*
X199927505Y-128926121D02*
X199927505Y-129449931D01*
X199451315Y-129449931D02*
X199451315Y-128783264D01*
X199451315Y-128878502D02*
X199403696Y-128830883D01*
X199403696Y-128830883D02*
X199308458Y-128783264D01*
X199308458Y-128783264D02*
X199165601Y-128783264D01*
X199165601Y-128783264D02*
X199070363Y-128830883D01*
X199070363Y-128830883D02*
X199022744Y-128926121D01*
X199022744Y-128926121D02*
X199022744Y-129449931D01*
X199022744Y-128926121D02*
X198975125Y-128830883D01*
X198975125Y-128830883D02*
X198879887Y-128783264D01*
X198879887Y-128783264D02*
X198737030Y-128783264D01*
X198737030Y-128783264D02*
X198641791Y-128830883D01*
X198641791Y-128830883D02*
X198594172Y-128926121D01*
X198594172Y-128926121D02*
X198594172Y-129449931D01*
X224879887Y-130536065D02*
X224737030Y-130583684D01*
X224737030Y-130583684D02*
X224689411Y-130631303D01*
X224689411Y-130631303D02*
X224641792Y-130726541D01*
X224641792Y-130726541D02*
X224641792Y-130869398D01*
X224641792Y-130869398D02*
X224689411Y-130964636D01*
X224689411Y-130964636D02*
X224737030Y-131012256D01*
X224737030Y-131012256D02*
X224832268Y-131059875D01*
X224832268Y-131059875D02*
X225213220Y-131059875D01*
X225213220Y-131059875D02*
X225213220Y-130059875D01*
X225213220Y-130059875D02*
X224879887Y-130059875D01*
X224879887Y-130059875D02*
X224784649Y-130107494D01*
X224784649Y-130107494D02*
X224737030Y-130155113D01*
X224737030Y-130155113D02*
X224689411Y-130250351D01*
X224689411Y-130250351D02*
X224689411Y-130345589D01*
X224689411Y-130345589D02*
X224737030Y-130440827D01*
X224737030Y-130440827D02*
X224784649Y-130488446D01*
X224784649Y-130488446D02*
X224879887Y-130536065D01*
X224879887Y-130536065D02*
X225213220Y-130536065D01*
X224070363Y-131059875D02*
X224165601Y-131012256D01*
X224165601Y-131012256D02*
X224213220Y-130964636D01*
X224213220Y-130964636D02*
X224260839Y-130869398D01*
X224260839Y-130869398D02*
X224260839Y-130583684D01*
X224260839Y-130583684D02*
X224213220Y-130488446D01*
X224213220Y-130488446D02*
X224165601Y-130440827D01*
X224165601Y-130440827D02*
X224070363Y-130393208D01*
X224070363Y-130393208D02*
X223927506Y-130393208D01*
X223927506Y-130393208D02*
X223832268Y-130440827D01*
X223832268Y-130440827D02*
X223784649Y-130488446D01*
X223784649Y-130488446D02*
X223737030Y-130583684D01*
X223737030Y-130583684D02*
X223737030Y-130869398D01*
X223737030Y-130869398D02*
X223784649Y-130964636D01*
X223784649Y-130964636D02*
X223832268Y-131012256D01*
X223832268Y-131012256D02*
X223927506Y-131059875D01*
X223927506Y-131059875D02*
X224070363Y-131059875D01*
X222879887Y-131059875D02*
X222879887Y-130536065D01*
X222879887Y-130536065D02*
X222927506Y-130440827D01*
X222927506Y-130440827D02*
X223022744Y-130393208D01*
X223022744Y-130393208D02*
X223213220Y-130393208D01*
X223213220Y-130393208D02*
X223308458Y-130440827D01*
X222879887Y-131012256D02*
X222975125Y-131059875D01*
X222975125Y-131059875D02*
X223213220Y-131059875D01*
X223213220Y-131059875D02*
X223308458Y-131012256D01*
X223308458Y-131012256D02*
X223356077Y-130917017D01*
X223356077Y-130917017D02*
X223356077Y-130821779D01*
X223356077Y-130821779D02*
X223308458Y-130726541D01*
X223308458Y-130726541D02*
X223213220Y-130678922D01*
X223213220Y-130678922D02*
X222975125Y-130678922D01*
X222975125Y-130678922D02*
X222879887Y-130631303D01*
X222403696Y-131059875D02*
X222403696Y-130393208D01*
X222403696Y-130583684D02*
X222356077Y-130488446D01*
X222356077Y-130488446D02*
X222308458Y-130440827D01*
X222308458Y-130440827D02*
X222213220Y-130393208D01*
X222213220Y-130393208D02*
X222117982Y-130393208D01*
X221356077Y-131059875D02*
X221356077Y-130059875D01*
X221356077Y-131012256D02*
X221451315Y-131059875D01*
X221451315Y-131059875D02*
X221641791Y-131059875D01*
X221641791Y-131059875D02*
X221737029Y-131012256D01*
X221737029Y-131012256D02*
X221784648Y-130964636D01*
X221784648Y-130964636D02*
X221832267Y-130869398D01*
X221832267Y-130869398D02*
X221832267Y-130583684D01*
X221832267Y-130583684D02*
X221784648Y-130488446D01*
X221784648Y-130488446D02*
X221737029Y-130440827D01*
X221737029Y-130440827D02*
X221641791Y-130393208D01*
X221641791Y-130393208D02*
X221451315Y-130393208D01*
X221451315Y-130393208D02*
X221356077Y-130440827D01*
X220165600Y-131012256D02*
X220022743Y-131059875D01*
X220022743Y-131059875D02*
X219784648Y-131059875D01*
X219784648Y-131059875D02*
X219689410Y-131012256D01*
X219689410Y-131012256D02*
X219641791Y-130964636D01*
X219641791Y-130964636D02*
X219594172Y-130869398D01*
X219594172Y-130869398D02*
X219594172Y-130774160D01*
X219594172Y-130774160D02*
X219641791Y-130678922D01*
X219641791Y-130678922D02*
X219689410Y-130631303D01*
X219689410Y-130631303D02*
X219784648Y-130583684D01*
X219784648Y-130583684D02*
X219975124Y-130536065D01*
X219975124Y-130536065D02*
X220070362Y-130488446D01*
X220070362Y-130488446D02*
X220117981Y-130440827D01*
X220117981Y-130440827D02*
X220165600Y-130345589D01*
X220165600Y-130345589D02*
X220165600Y-130250351D01*
X220165600Y-130250351D02*
X220117981Y-130155113D01*
X220117981Y-130155113D02*
X220070362Y-130107494D01*
X220070362Y-130107494D02*
X219975124Y-130059875D01*
X219975124Y-130059875D02*
X219737029Y-130059875D01*
X219737029Y-130059875D02*
X219594172Y-130107494D01*
X219165600Y-131059875D02*
X219165600Y-130393208D01*
X219165600Y-130059875D02*
X219213219Y-130107494D01*
X219213219Y-130107494D02*
X219165600Y-130155113D01*
X219165600Y-130155113D02*
X219117981Y-130107494D01*
X219117981Y-130107494D02*
X219165600Y-130059875D01*
X219165600Y-130059875D02*
X219165600Y-130155113D01*
X218784648Y-130393208D02*
X218260839Y-130393208D01*
X218260839Y-130393208D02*
X218784648Y-131059875D01*
X218784648Y-131059875D02*
X218260839Y-131059875D01*
X217498934Y-131012256D02*
X217594172Y-131059875D01*
X217594172Y-131059875D02*
X217784648Y-131059875D01*
X217784648Y-131059875D02*
X217879886Y-131012256D01*
X217879886Y-131012256D02*
X217927505Y-130917017D01*
X217927505Y-130917017D02*
X217927505Y-130536065D01*
X217927505Y-130536065D02*
X217879886Y-130440827D01*
X217879886Y-130440827D02*
X217784648Y-130393208D01*
X217784648Y-130393208D02*
X217594172Y-130393208D01*
X217594172Y-130393208D02*
X217498934Y-130440827D01*
X217498934Y-130440827D02*
X217451315Y-130536065D01*
X217451315Y-130536065D02*
X217451315Y-130631303D01*
X217451315Y-130631303D02*
X217927505Y-130726541D01*
X217022743Y-130964636D02*
X216975124Y-131012256D01*
X216975124Y-131012256D02*
X217022743Y-131059875D01*
X217022743Y-131059875D02*
X217070362Y-131012256D01*
X217070362Y-131012256D02*
X217022743Y-130964636D01*
X217022743Y-130964636D02*
X217022743Y-131059875D01*
X217022743Y-130440827D02*
X216975124Y-130488446D01*
X216975124Y-130488446D02*
X217022743Y-130536065D01*
X217022743Y-130536065D02*
X217070362Y-130488446D01*
X217070362Y-130488446D02*
X217022743Y-130440827D01*
X217022743Y-130440827D02*
X217022743Y-130536065D01*
X215260839Y-131059875D02*
X215832267Y-131059875D01*
X215546553Y-131059875D02*
X215546553Y-130059875D01*
X215546553Y-130059875D02*
X215641791Y-130202732D01*
X215641791Y-130202732D02*
X215737029Y-130297970D01*
X215737029Y-130297970D02*
X215832267Y-130345589D01*
X214641791Y-130059875D02*
X214546553Y-130059875D01*
X214546553Y-130059875D02*
X214451315Y-130107494D01*
X214451315Y-130107494D02*
X214403696Y-130155113D01*
X214403696Y-130155113D02*
X214356077Y-130250351D01*
X214356077Y-130250351D02*
X214308458Y-130440827D01*
X214308458Y-130440827D02*
X214308458Y-130678922D01*
X214308458Y-130678922D02*
X214356077Y-130869398D01*
X214356077Y-130869398D02*
X214403696Y-130964636D01*
X214403696Y-130964636D02*
X214451315Y-131012256D01*
X214451315Y-131012256D02*
X214546553Y-131059875D01*
X214546553Y-131059875D02*
X214641791Y-131059875D01*
X214641791Y-131059875D02*
X214737029Y-131012256D01*
X214737029Y-131012256D02*
X214784648Y-130964636D01*
X214784648Y-130964636D02*
X214832267Y-130869398D01*
X214832267Y-130869398D02*
X214879886Y-130678922D01*
X214879886Y-130678922D02*
X214879886Y-130440827D01*
X214879886Y-130440827D02*
X214832267Y-130250351D01*
X214832267Y-130250351D02*
X214784648Y-130155113D01*
X214784648Y-130155113D02*
X214737029Y-130107494D01*
X214737029Y-130107494D02*
X214641791Y-130059875D01*
X213689410Y-130059875D02*
X213594172Y-130059875D01*
X213594172Y-130059875D02*
X213498934Y-130107494D01*
X213498934Y-130107494D02*
X213451315Y-130155113D01*
X213451315Y-130155113D02*
X213403696Y-130250351D01*
X213403696Y-130250351D02*
X213356077Y-130440827D01*
X213356077Y-130440827D02*
X213356077Y-130678922D01*
X213356077Y-130678922D02*
X213403696Y-130869398D01*
X213403696Y-130869398D02*
X213451315Y-130964636D01*
X213451315Y-130964636D02*
X213498934Y-131012256D01*
X213498934Y-131012256D02*
X213594172Y-131059875D01*
X213594172Y-131059875D02*
X213689410Y-131059875D01*
X213689410Y-131059875D02*
X213784648Y-131012256D01*
X213784648Y-131012256D02*
X213832267Y-130964636D01*
X213832267Y-130964636D02*
X213879886Y-130869398D01*
X213879886Y-130869398D02*
X213927505Y-130678922D01*
X213927505Y-130678922D02*
X213927505Y-130440827D01*
X213927505Y-130440827D02*
X213879886Y-130250351D01*
X213879886Y-130250351D02*
X213832267Y-130155113D01*
X213832267Y-130155113D02*
X213784648Y-130107494D01*
X213784648Y-130107494D02*
X213689410Y-130059875D01*
X212165600Y-131059875D02*
X212165600Y-130393208D01*
X212165600Y-130488446D02*
X212117981Y-130440827D01*
X212117981Y-130440827D02*
X212022743Y-130393208D01*
X212022743Y-130393208D02*
X211879886Y-130393208D01*
X211879886Y-130393208D02*
X211784648Y-130440827D01*
X211784648Y-130440827D02*
X211737029Y-130536065D01*
X211737029Y-130536065D02*
X211737029Y-131059875D01*
X211737029Y-130536065D02*
X211689410Y-130440827D01*
X211689410Y-130440827D02*
X211594172Y-130393208D01*
X211594172Y-130393208D02*
X211451315Y-130393208D01*
X211451315Y-130393208D02*
X211356076Y-130440827D01*
X211356076Y-130440827D02*
X211308457Y-130536065D01*
X211308457Y-130536065D02*
X211308457Y-131059875D01*
X210832267Y-131059875D02*
X210832267Y-130393208D01*
X210832267Y-130488446D02*
X210784648Y-130440827D01*
X210784648Y-130440827D02*
X210689410Y-130393208D01*
X210689410Y-130393208D02*
X210546553Y-130393208D01*
X210546553Y-130393208D02*
X210451315Y-130440827D01*
X210451315Y-130440827D02*
X210403696Y-130536065D01*
X210403696Y-130536065D02*
X210403696Y-131059875D01*
X210403696Y-130536065D02*
X210356077Y-130440827D01*
X210356077Y-130440827D02*
X210260839Y-130393208D01*
X210260839Y-130393208D02*
X210117982Y-130393208D01*
X210117982Y-130393208D02*
X210022743Y-130440827D01*
X210022743Y-130440827D02*
X209975124Y-130536065D01*
X209975124Y-130536065D02*
X209975124Y-131059875D01*
X208832267Y-131059875D02*
X208308458Y-130393208D01*
X208832267Y-130393208D02*
X208308458Y-131059875D01*
X207022743Y-130488446D02*
X207117981Y-130440827D01*
X207117981Y-130440827D02*
X207165600Y-130393208D01*
X207165600Y-130393208D02*
X207213219Y-130297970D01*
X207213219Y-130297970D02*
X207213219Y-130250351D01*
X207213219Y-130250351D02*
X207165600Y-130155113D01*
X207165600Y-130155113D02*
X207117981Y-130107494D01*
X207117981Y-130107494D02*
X207022743Y-130059875D01*
X207022743Y-130059875D02*
X206832267Y-130059875D01*
X206832267Y-130059875D02*
X206737029Y-130107494D01*
X206737029Y-130107494D02*
X206689410Y-130155113D01*
X206689410Y-130155113D02*
X206641791Y-130250351D01*
X206641791Y-130250351D02*
X206641791Y-130297970D01*
X206641791Y-130297970D02*
X206689410Y-130393208D01*
X206689410Y-130393208D02*
X206737029Y-130440827D01*
X206737029Y-130440827D02*
X206832267Y-130488446D01*
X206832267Y-130488446D02*
X207022743Y-130488446D01*
X207022743Y-130488446D02*
X207117981Y-130536065D01*
X207117981Y-130536065D02*
X207165600Y-130583684D01*
X207165600Y-130583684D02*
X207213219Y-130678922D01*
X207213219Y-130678922D02*
X207213219Y-130869398D01*
X207213219Y-130869398D02*
X207165600Y-130964636D01*
X207165600Y-130964636D02*
X207117981Y-131012256D01*
X207117981Y-131012256D02*
X207022743Y-131059875D01*
X207022743Y-131059875D02*
X206832267Y-131059875D01*
X206832267Y-131059875D02*
X206737029Y-131012256D01*
X206737029Y-131012256D02*
X206689410Y-130964636D01*
X206689410Y-130964636D02*
X206641791Y-130869398D01*
X206641791Y-130869398D02*
X206641791Y-130678922D01*
X206641791Y-130678922D02*
X206689410Y-130583684D01*
X206689410Y-130583684D02*
X206737029Y-130536065D01*
X206737029Y-130536065D02*
X206832267Y-130488446D01*
X205784648Y-130059875D02*
X205975124Y-130059875D01*
X205975124Y-130059875D02*
X206070362Y-130107494D01*
X206070362Y-130107494D02*
X206117981Y-130155113D01*
X206117981Y-130155113D02*
X206213219Y-130297970D01*
X206213219Y-130297970D02*
X206260838Y-130488446D01*
X206260838Y-130488446D02*
X206260838Y-130869398D01*
X206260838Y-130869398D02*
X206213219Y-130964636D01*
X206213219Y-130964636D02*
X206165600Y-131012256D01*
X206165600Y-131012256D02*
X206070362Y-131059875D01*
X206070362Y-131059875D02*
X205879886Y-131059875D01*
X205879886Y-131059875D02*
X205784648Y-131012256D01*
X205784648Y-131012256D02*
X205737029Y-130964636D01*
X205737029Y-130964636D02*
X205689410Y-130869398D01*
X205689410Y-130869398D02*
X205689410Y-130631303D01*
X205689410Y-130631303D02*
X205737029Y-130536065D01*
X205737029Y-130536065D02*
X205784648Y-130488446D01*
X205784648Y-130488446D02*
X205879886Y-130440827D01*
X205879886Y-130440827D02*
X206070362Y-130440827D01*
X206070362Y-130440827D02*
X206165600Y-130488446D01*
X206165600Y-130488446D02*
X206213219Y-130536065D01*
X206213219Y-130536065D02*
X206260838Y-130631303D01*
X205260838Y-130964636D02*
X205213219Y-131012256D01*
X205213219Y-131012256D02*
X205260838Y-131059875D01*
X205260838Y-131059875D02*
X205308457Y-131012256D01*
X205308457Y-131012256D02*
X205260838Y-130964636D01*
X205260838Y-130964636D02*
X205260838Y-131059875D01*
X204308458Y-130059875D02*
X204784648Y-130059875D01*
X204784648Y-130059875D02*
X204832267Y-130536065D01*
X204832267Y-130536065D02*
X204784648Y-130488446D01*
X204784648Y-130488446D02*
X204689410Y-130440827D01*
X204689410Y-130440827D02*
X204451315Y-130440827D01*
X204451315Y-130440827D02*
X204356077Y-130488446D01*
X204356077Y-130488446D02*
X204308458Y-130536065D01*
X204308458Y-130536065D02*
X204260839Y-130631303D01*
X204260839Y-130631303D02*
X204260839Y-130869398D01*
X204260839Y-130869398D02*
X204308458Y-130964636D01*
X204308458Y-130964636D02*
X204356077Y-131012256D01*
X204356077Y-131012256D02*
X204451315Y-131059875D01*
X204451315Y-131059875D02*
X204689410Y-131059875D01*
X204689410Y-131059875D02*
X204784648Y-131012256D01*
X204784648Y-131012256D02*
X204832267Y-130964636D01*
X203070362Y-131059875D02*
X203070362Y-130393208D01*
X203070362Y-130488446D02*
X203022743Y-130440827D01*
X203022743Y-130440827D02*
X202927505Y-130393208D01*
X202927505Y-130393208D02*
X202784648Y-130393208D01*
X202784648Y-130393208D02*
X202689410Y-130440827D01*
X202689410Y-130440827D02*
X202641791Y-130536065D01*
X202641791Y-130536065D02*
X202641791Y-131059875D01*
X202641791Y-130536065D02*
X202594172Y-130440827D01*
X202594172Y-130440827D02*
X202498934Y-130393208D01*
X202498934Y-130393208D02*
X202356077Y-130393208D01*
X202356077Y-130393208D02*
X202260838Y-130440827D01*
X202260838Y-130440827D02*
X202213219Y-130536065D01*
X202213219Y-130536065D02*
X202213219Y-131059875D01*
X201737029Y-131059875D02*
X201737029Y-130393208D01*
X201737029Y-130488446D02*
X201689410Y-130440827D01*
X201689410Y-130440827D02*
X201594172Y-130393208D01*
X201594172Y-130393208D02*
X201451315Y-130393208D01*
X201451315Y-130393208D02*
X201356077Y-130440827D01*
X201356077Y-130440827D02*
X201308458Y-130536065D01*
X201308458Y-130536065D02*
X201308458Y-131059875D01*
X201308458Y-130536065D02*
X201260839Y-130440827D01*
X201260839Y-130440827D02*
X201165601Y-130393208D01*
X201165601Y-130393208D02*
X201022744Y-130393208D01*
X201022744Y-130393208D02*
X200927505Y-130440827D01*
X200927505Y-130440827D02*
X200879886Y-130536065D01*
X200879886Y-130536065D02*
X200879886Y-131059875D01*
X225213220Y-132669819D02*
X225213220Y-131669819D01*
X225213220Y-132146009D02*
X224641792Y-132146009D01*
X224641792Y-132669819D02*
X224641792Y-131669819D01*
X224022744Y-132669819D02*
X224117982Y-132622200D01*
X224117982Y-132622200D02*
X224165601Y-132574580D01*
X224165601Y-132574580D02*
X224213220Y-132479342D01*
X224213220Y-132479342D02*
X224213220Y-132193628D01*
X224213220Y-132193628D02*
X224165601Y-132098390D01*
X224165601Y-132098390D02*
X224117982Y-132050771D01*
X224117982Y-132050771D02*
X224022744Y-132003152D01*
X224022744Y-132003152D02*
X223879887Y-132003152D01*
X223879887Y-132003152D02*
X223784649Y-132050771D01*
X223784649Y-132050771D02*
X223737030Y-132098390D01*
X223737030Y-132098390D02*
X223689411Y-132193628D01*
X223689411Y-132193628D02*
X223689411Y-132479342D01*
X223689411Y-132479342D02*
X223737030Y-132574580D01*
X223737030Y-132574580D02*
X223784649Y-132622200D01*
X223784649Y-132622200D02*
X223879887Y-132669819D01*
X223879887Y-132669819D02*
X224022744Y-132669819D01*
X223117982Y-132669819D02*
X223213220Y-132622200D01*
X223213220Y-132622200D02*
X223260839Y-132526961D01*
X223260839Y-132526961D02*
X223260839Y-131669819D01*
X222356077Y-132622200D02*
X222451315Y-132669819D01*
X222451315Y-132669819D02*
X222641791Y-132669819D01*
X222641791Y-132669819D02*
X222737029Y-132622200D01*
X222737029Y-132622200D02*
X222784648Y-132526961D01*
X222784648Y-132526961D02*
X222784648Y-132146009D01*
X222784648Y-132146009D02*
X222737029Y-132050771D01*
X222737029Y-132050771D02*
X222641791Y-132003152D01*
X222641791Y-132003152D02*
X222451315Y-132003152D01*
X222451315Y-132003152D02*
X222356077Y-132050771D01*
X222356077Y-132050771D02*
X222308458Y-132146009D01*
X222308458Y-132146009D02*
X222308458Y-132241247D01*
X222308458Y-132241247D02*
X222784648Y-132336485D01*
X221165600Y-132622200D02*
X221022743Y-132669819D01*
X221022743Y-132669819D02*
X220784648Y-132669819D01*
X220784648Y-132669819D02*
X220689410Y-132622200D01*
X220689410Y-132622200D02*
X220641791Y-132574580D01*
X220641791Y-132574580D02*
X220594172Y-132479342D01*
X220594172Y-132479342D02*
X220594172Y-132384104D01*
X220594172Y-132384104D02*
X220641791Y-132288866D01*
X220641791Y-132288866D02*
X220689410Y-132241247D01*
X220689410Y-132241247D02*
X220784648Y-132193628D01*
X220784648Y-132193628D02*
X220975124Y-132146009D01*
X220975124Y-132146009D02*
X221070362Y-132098390D01*
X221070362Y-132098390D02*
X221117981Y-132050771D01*
X221117981Y-132050771D02*
X221165600Y-131955533D01*
X221165600Y-131955533D02*
X221165600Y-131860295D01*
X221165600Y-131860295D02*
X221117981Y-131765057D01*
X221117981Y-131765057D02*
X221070362Y-131717438D01*
X221070362Y-131717438D02*
X220975124Y-131669819D01*
X220975124Y-131669819D02*
X220737029Y-131669819D01*
X220737029Y-131669819D02*
X220594172Y-131717438D01*
X220165600Y-132669819D02*
X220165600Y-132003152D01*
X220165600Y-131669819D02*
X220213219Y-131717438D01*
X220213219Y-131717438D02*
X220165600Y-131765057D01*
X220165600Y-131765057D02*
X220117981Y-131717438D01*
X220117981Y-131717438D02*
X220165600Y-131669819D01*
X220165600Y-131669819D02*
X220165600Y-131765057D01*
X219784648Y-132003152D02*
X219260839Y-132003152D01*
X219260839Y-132003152D02*
X219784648Y-132669819D01*
X219784648Y-132669819D02*
X219260839Y-132669819D01*
X218498934Y-132622200D02*
X218594172Y-132669819D01*
X218594172Y-132669819D02*
X218784648Y-132669819D01*
X218784648Y-132669819D02*
X218879886Y-132622200D01*
X218879886Y-132622200D02*
X218927505Y-132526961D01*
X218927505Y-132526961D02*
X218927505Y-132146009D01*
X218927505Y-132146009D02*
X218879886Y-132050771D01*
X218879886Y-132050771D02*
X218784648Y-132003152D01*
X218784648Y-132003152D02*
X218594172Y-132003152D01*
X218594172Y-132003152D02*
X218498934Y-132050771D01*
X218498934Y-132050771D02*
X218451315Y-132146009D01*
X218451315Y-132146009D02*
X218451315Y-132241247D01*
X218451315Y-132241247D02*
X218927505Y-132336485D01*
X218022743Y-132574580D02*
X217975124Y-132622200D01*
X217975124Y-132622200D02*
X218022743Y-132669819D01*
X218022743Y-132669819D02*
X218070362Y-132622200D01*
X218070362Y-132622200D02*
X218022743Y-132574580D01*
X218022743Y-132574580D02*
X218022743Y-132669819D01*
X218022743Y-132050771D02*
X217975124Y-132098390D01*
X217975124Y-132098390D02*
X218022743Y-132146009D01*
X218022743Y-132146009D02*
X218070362Y-132098390D01*
X218070362Y-132098390D02*
X218022743Y-132050771D01*
X218022743Y-132050771D02*
X218022743Y-132146009D01*
X216784648Y-132669819D02*
X216784648Y-131669819D01*
X216784648Y-131669819D02*
X216451315Y-132384104D01*
X216451315Y-132384104D02*
X216117982Y-131669819D01*
X216117982Y-131669819D02*
X216117982Y-132669819D01*
X215737029Y-131669819D02*
X215117982Y-131669819D01*
X215117982Y-131669819D02*
X215451315Y-132050771D01*
X215451315Y-132050771D02*
X215308458Y-132050771D01*
X215308458Y-132050771D02*
X215213220Y-132098390D01*
X215213220Y-132098390D02*
X215165601Y-132146009D01*
X215165601Y-132146009D02*
X215117982Y-132241247D01*
X215117982Y-132241247D02*
X215117982Y-132479342D01*
X215117982Y-132479342D02*
X215165601Y-132574580D01*
X215165601Y-132574580D02*
X215213220Y-132622200D01*
X215213220Y-132622200D02*
X215308458Y-132669819D01*
X215308458Y-132669819D02*
X215594172Y-132669819D01*
X215594172Y-132669819D02*
X215689410Y-132622200D01*
X215689410Y-132622200D02*
X215737029Y-132574580D01*
X264472744Y-134769819D02*
X264377506Y-134769819D01*
X264377506Y-134769819D02*
X264282268Y-134817438D01*
X264282268Y-134817438D02*
X264234649Y-134865057D01*
X264234649Y-134865057D02*
X264187030Y-134960295D01*
X264187030Y-134960295D02*
X264139411Y-135150771D01*
X264139411Y-135150771D02*
X264139411Y-135388866D01*
X264139411Y-135388866D02*
X264187030Y-135579342D01*
X264187030Y-135579342D02*
X264234649Y-135674580D01*
X264234649Y-135674580D02*
X264282268Y-135722200D01*
X264282268Y-135722200D02*
X264377506Y-135769819D01*
X264377506Y-135769819D02*
X264472744Y-135769819D01*
X264472744Y-135769819D02*
X264567982Y-135722200D01*
X264567982Y-135722200D02*
X264615601Y-135674580D01*
X264615601Y-135674580D02*
X264663220Y-135579342D01*
X264663220Y-135579342D02*
X264710839Y-135388866D01*
X264710839Y-135388866D02*
X264710839Y-135150771D01*
X264710839Y-135150771D02*
X264663220Y-134960295D01*
X264663220Y-134960295D02*
X264615601Y-134865057D01*
X264615601Y-134865057D02*
X264567982Y-134817438D01*
X264567982Y-134817438D02*
X264472744Y-134769819D01*
X263710839Y-135674580D02*
X263663220Y-135722200D01*
X263663220Y-135722200D02*
X263710839Y-135769819D01*
X263710839Y-135769819D02*
X263758458Y-135722200D01*
X263758458Y-135722200D02*
X263710839Y-135674580D01*
X263710839Y-135674580D02*
X263710839Y-135769819D01*
X263044173Y-134769819D02*
X262948935Y-134769819D01*
X262948935Y-134769819D02*
X262853697Y-134817438D01*
X262853697Y-134817438D02*
X262806078Y-134865057D01*
X262806078Y-134865057D02*
X262758459Y-134960295D01*
X262758459Y-134960295D02*
X262710840Y-135150771D01*
X262710840Y-135150771D02*
X262710840Y-135388866D01*
X262710840Y-135388866D02*
X262758459Y-135579342D01*
X262758459Y-135579342D02*
X262806078Y-135674580D01*
X262806078Y-135674580D02*
X262853697Y-135722200D01*
X262853697Y-135722200D02*
X262948935Y-135769819D01*
X262948935Y-135769819D02*
X263044173Y-135769819D01*
X263044173Y-135769819D02*
X263139411Y-135722200D01*
X263139411Y-135722200D02*
X263187030Y-135674580D01*
X263187030Y-135674580D02*
X263234649Y-135579342D01*
X263234649Y-135579342D02*
X263282268Y-135388866D01*
X263282268Y-135388866D02*
X263282268Y-135150771D01*
X263282268Y-135150771D02*
X263234649Y-134960295D01*
X263234649Y-134960295D02*
X263187030Y-134865057D01*
X263187030Y-134865057D02*
X263139411Y-134817438D01*
X263139411Y-134817438D02*
X263044173Y-134769819D01*
X261806078Y-134769819D02*
X262282268Y-134769819D01*
X262282268Y-134769819D02*
X262329887Y-135246009D01*
X262329887Y-135246009D02*
X262282268Y-135198390D01*
X262282268Y-135198390D02*
X262187030Y-135150771D01*
X262187030Y-135150771D02*
X261948935Y-135150771D01*
X261948935Y-135150771D02*
X261853697Y-135198390D01*
X261853697Y-135198390D02*
X261806078Y-135246009D01*
X261806078Y-135246009D02*
X261758459Y-135341247D01*
X261758459Y-135341247D02*
X261758459Y-135579342D01*
X261758459Y-135579342D02*
X261806078Y-135674580D01*
X261806078Y-135674580D02*
X261853697Y-135722200D01*
X261853697Y-135722200D02*
X261948935Y-135769819D01*
X261948935Y-135769819D02*
X262187030Y-135769819D01*
X262187030Y-135769819D02*
X262282268Y-135722200D01*
X262282268Y-135722200D02*
X262329887Y-135674580D01*
X260758459Y-135769819D02*
X261091792Y-135293628D01*
X261329887Y-135769819D02*
X261329887Y-134769819D01*
X261329887Y-134769819D02*
X260948935Y-134769819D01*
X260948935Y-134769819D02*
X260853697Y-134817438D01*
X260853697Y-134817438D02*
X260806078Y-134865057D01*
X260806078Y-134865057D02*
X260758459Y-134960295D01*
X260758459Y-134960295D02*
X260758459Y-135103152D01*
X260758459Y-135103152D02*
X260806078Y-135198390D01*
X260806078Y-135198390D02*
X260853697Y-135246009D01*
X260853697Y-135246009D02*
X260948935Y-135293628D01*
X260948935Y-135293628D02*
X261329887Y-135293628D01*
X169772744Y-116069819D02*
X169677506Y-116069819D01*
X169677506Y-116069819D02*
X169582268Y-116117438D01*
X169582268Y-116117438D02*
X169534649Y-116165057D01*
X169534649Y-116165057D02*
X169487030Y-116260295D01*
X169487030Y-116260295D02*
X169439411Y-116450771D01*
X169439411Y-116450771D02*
X169439411Y-116688866D01*
X169439411Y-116688866D02*
X169487030Y-116879342D01*
X169487030Y-116879342D02*
X169534649Y-116974580D01*
X169534649Y-116974580D02*
X169582268Y-117022200D01*
X169582268Y-117022200D02*
X169677506Y-117069819D01*
X169677506Y-117069819D02*
X169772744Y-117069819D01*
X169772744Y-117069819D02*
X169867982Y-117022200D01*
X169867982Y-117022200D02*
X169915601Y-116974580D01*
X169915601Y-116974580D02*
X169963220Y-116879342D01*
X169963220Y-116879342D02*
X170010839Y-116688866D01*
X170010839Y-116688866D02*
X170010839Y-116450771D01*
X170010839Y-116450771D02*
X169963220Y-116260295D01*
X169963220Y-116260295D02*
X169915601Y-116165057D01*
X169915601Y-116165057D02*
X169867982Y-116117438D01*
X169867982Y-116117438D02*
X169772744Y-116069819D01*
X169010839Y-116974580D02*
X168963220Y-117022200D01*
X168963220Y-117022200D02*
X169010839Y-117069819D01*
X169010839Y-117069819D02*
X169058458Y-117022200D01*
X169058458Y-117022200D02*
X169010839Y-116974580D01*
X169010839Y-116974580D02*
X169010839Y-117069819D01*
X168344173Y-116069819D02*
X168248935Y-116069819D01*
X168248935Y-116069819D02*
X168153697Y-116117438D01*
X168153697Y-116117438D02*
X168106078Y-116165057D01*
X168106078Y-116165057D02*
X168058459Y-116260295D01*
X168058459Y-116260295D02*
X168010840Y-116450771D01*
X168010840Y-116450771D02*
X168010840Y-116688866D01*
X168010840Y-116688866D02*
X168058459Y-116879342D01*
X168058459Y-116879342D02*
X168106078Y-116974580D01*
X168106078Y-116974580D02*
X168153697Y-117022200D01*
X168153697Y-117022200D02*
X168248935Y-117069819D01*
X168248935Y-117069819D02*
X168344173Y-117069819D01*
X168344173Y-117069819D02*
X168439411Y-117022200D01*
X168439411Y-117022200D02*
X168487030Y-116974580D01*
X168487030Y-116974580D02*
X168534649Y-116879342D01*
X168534649Y-116879342D02*
X168582268Y-116688866D01*
X168582268Y-116688866D02*
X168582268Y-116450771D01*
X168582268Y-116450771D02*
X168534649Y-116260295D01*
X168534649Y-116260295D02*
X168487030Y-116165057D01*
X168487030Y-116165057D02*
X168439411Y-116117438D01*
X168439411Y-116117438D02*
X168344173Y-116069819D01*
X167106078Y-116069819D02*
X167582268Y-116069819D01*
X167582268Y-116069819D02*
X167629887Y-116546009D01*
X167629887Y-116546009D02*
X167582268Y-116498390D01*
X167582268Y-116498390D02*
X167487030Y-116450771D01*
X167487030Y-116450771D02*
X167248935Y-116450771D01*
X167248935Y-116450771D02*
X167153697Y-116498390D01*
X167153697Y-116498390D02*
X167106078Y-116546009D01*
X167106078Y-116546009D02*
X167058459Y-116641247D01*
X167058459Y-116641247D02*
X167058459Y-116879342D01*
X167058459Y-116879342D02*
X167106078Y-116974580D01*
X167106078Y-116974580D02*
X167153697Y-117022200D01*
X167153697Y-117022200D02*
X167248935Y-117069819D01*
X167248935Y-117069819D02*
X167487030Y-117069819D01*
X167487030Y-117069819D02*
X167582268Y-117022200D01*
X167582268Y-117022200D02*
X167629887Y-116974580D01*
X166058459Y-117069819D02*
X166391792Y-116593628D01*
X166629887Y-117069819D02*
X166629887Y-116069819D01*
X166629887Y-116069819D02*
X166248935Y-116069819D01*
X166248935Y-116069819D02*
X166153697Y-116117438D01*
X166153697Y-116117438D02*
X166106078Y-116165057D01*
X166106078Y-116165057D02*
X166058459Y-116260295D01*
X166058459Y-116260295D02*
X166058459Y-116403152D01*
X166058459Y-116403152D02*
X166106078Y-116498390D01*
X166106078Y-116498390D02*
X166153697Y-116546009D01*
X166153697Y-116546009D02*
X166248935Y-116593628D01*
X166248935Y-116593628D02*
X166629887Y-116593628D01*
X260455357Y-139979819D02*
X260788690Y-139503628D01*
X261026785Y-139979819D02*
X261026785Y-138979819D01*
X261026785Y-138979819D02*
X260645833Y-138979819D01*
X260645833Y-138979819D02*
X260550595Y-139027438D01*
X260550595Y-139027438D02*
X260502976Y-139075057D01*
X260502976Y-139075057D02*
X260455357Y-139170295D01*
X260455357Y-139170295D02*
X260455357Y-139313152D01*
X260455357Y-139313152D02*
X260502976Y-139408390D01*
X260502976Y-139408390D02*
X260550595Y-139456009D01*
X260550595Y-139456009D02*
X260645833Y-139503628D01*
X260645833Y-139503628D02*
X261026785Y-139503628D01*
X259598214Y-139313152D02*
X259598214Y-139979819D01*
X259836309Y-138932200D02*
X260074404Y-139646485D01*
X260074404Y-139646485D02*
X259455357Y-139646485D01*
X259026785Y-139979819D02*
X258836309Y-139979819D01*
X258836309Y-139979819D02*
X258741071Y-139932200D01*
X258741071Y-139932200D02*
X258693452Y-139884580D01*
X258693452Y-139884580D02*
X258598214Y-139741723D01*
X258598214Y-139741723D02*
X258550595Y-139551247D01*
X258550595Y-139551247D02*
X258550595Y-139170295D01*
X258550595Y-139170295D02*
X258598214Y-139075057D01*
X258598214Y-139075057D02*
X258645833Y-139027438D01*
X258645833Y-139027438D02*
X258741071Y-138979819D01*
X258741071Y-138979819D02*
X258931547Y-138979819D01*
X258931547Y-138979819D02*
X259026785Y-139027438D01*
X259026785Y-139027438D02*
X259074404Y-139075057D01*
X259074404Y-139075057D02*
X259122023Y-139170295D01*
X259122023Y-139170295D02*
X259122023Y-139408390D01*
X259122023Y-139408390D02*
X259074404Y-139503628D01*
X259074404Y-139503628D02*
X259026785Y-139551247D01*
X259026785Y-139551247D02*
X258931547Y-139598866D01*
X258931547Y-139598866D02*
X258741071Y-139598866D01*
X258741071Y-139598866D02*
X258645833Y-139551247D01*
X258645833Y-139551247D02*
X258598214Y-139503628D01*
X258598214Y-139503628D02*
X258550595Y-139408390D01*
X174955357Y-112779819D02*
X175288690Y-112303628D01*
X175526785Y-112779819D02*
X175526785Y-111779819D01*
X175526785Y-111779819D02*
X175145833Y-111779819D01*
X175145833Y-111779819D02*
X175050595Y-111827438D01*
X175050595Y-111827438D02*
X175002976Y-111875057D01*
X175002976Y-111875057D02*
X174955357Y-111970295D01*
X174955357Y-111970295D02*
X174955357Y-112113152D01*
X174955357Y-112113152D02*
X175002976Y-112208390D01*
X175002976Y-112208390D02*
X175050595Y-112256009D01*
X175050595Y-112256009D02*
X175145833Y-112303628D01*
X175145833Y-112303628D02*
X175526785Y-112303628D01*
X174574404Y-111875057D02*
X174526785Y-111827438D01*
X174526785Y-111827438D02*
X174431547Y-111779819D01*
X174431547Y-111779819D02*
X174193452Y-111779819D01*
X174193452Y-111779819D02*
X174098214Y-111827438D01*
X174098214Y-111827438D02*
X174050595Y-111875057D01*
X174050595Y-111875057D02*
X174002976Y-111970295D01*
X174002976Y-111970295D02*
X174002976Y-112065533D01*
X174002976Y-112065533D02*
X174050595Y-112208390D01*
X174050595Y-112208390D02*
X174622023Y-112779819D01*
X174622023Y-112779819D02*
X174002976Y-112779819D01*
X173145833Y-111779819D02*
X173336309Y-111779819D01*
X173336309Y-111779819D02*
X173431547Y-111827438D01*
X173431547Y-111827438D02*
X173479166Y-111875057D01*
X173479166Y-111875057D02*
X173574404Y-112017914D01*
X173574404Y-112017914D02*
X173622023Y-112208390D01*
X173622023Y-112208390D02*
X173622023Y-112589342D01*
X173622023Y-112589342D02*
X173574404Y-112684580D01*
X173574404Y-112684580D02*
X173526785Y-112732200D01*
X173526785Y-112732200D02*
X173431547Y-112779819D01*
X173431547Y-112779819D02*
X173241071Y-112779819D01*
X173241071Y-112779819D02*
X173145833Y-112732200D01*
X173145833Y-112732200D02*
X173098214Y-112684580D01*
X173098214Y-112684580D02*
X173050595Y-112589342D01*
X173050595Y-112589342D02*
X173050595Y-112351247D01*
X173050595Y-112351247D02*
X173098214Y-112256009D01*
X173098214Y-112256009D02*
X173145833Y-112208390D01*
X173145833Y-112208390D02*
X173241071Y-112160771D01*
X173241071Y-112160771D02*
X173431547Y-112160771D01*
X173431547Y-112160771D02*
X173526785Y-112208390D01*
X173526785Y-112208390D02*
X173574404Y-112256009D01*
X173574404Y-112256009D02*
X173622023Y-112351247D01*
X257292857Y-139954819D02*
X257626190Y-139478628D01*
X257864285Y-139954819D02*
X257864285Y-138954819D01*
X257864285Y-138954819D02*
X257483333Y-138954819D01*
X257483333Y-138954819D02*
X257388095Y-139002438D01*
X257388095Y-139002438D02*
X257340476Y-139050057D01*
X257340476Y-139050057D02*
X257292857Y-139145295D01*
X257292857Y-139145295D02*
X257292857Y-139288152D01*
X257292857Y-139288152D02*
X257340476Y-139383390D01*
X257340476Y-139383390D02*
X257388095Y-139431009D01*
X257388095Y-139431009D02*
X257483333Y-139478628D01*
X257483333Y-139478628D02*
X257864285Y-139478628D01*
X256959523Y-138954819D02*
X256340476Y-138954819D01*
X256340476Y-138954819D02*
X256673809Y-139335771D01*
X256673809Y-139335771D02*
X256530952Y-139335771D01*
X256530952Y-139335771D02*
X256435714Y-139383390D01*
X256435714Y-139383390D02*
X256388095Y-139431009D01*
X256388095Y-139431009D02*
X256340476Y-139526247D01*
X256340476Y-139526247D02*
X256340476Y-139764342D01*
X256340476Y-139764342D02*
X256388095Y-139859580D01*
X256388095Y-139859580D02*
X256435714Y-139907200D01*
X256435714Y-139907200D02*
X256530952Y-139954819D01*
X256530952Y-139954819D02*
X256816666Y-139954819D01*
X256816666Y-139954819D02*
X256911904Y-139907200D01*
X256911904Y-139907200D02*
X256959523Y-139859580D01*
X255483333Y-138954819D02*
X255673809Y-138954819D01*
X255673809Y-138954819D02*
X255769047Y-139002438D01*
X255769047Y-139002438D02*
X255816666Y-139050057D01*
X255816666Y-139050057D02*
X255911904Y-139192914D01*
X255911904Y-139192914D02*
X255959523Y-139383390D01*
X255959523Y-139383390D02*
X255959523Y-139764342D01*
X255959523Y-139764342D02*
X255911904Y-139859580D01*
X255911904Y-139859580D02*
X255864285Y-139907200D01*
X255864285Y-139907200D02*
X255769047Y-139954819D01*
X255769047Y-139954819D02*
X255578571Y-139954819D01*
X255578571Y-139954819D02*
X255483333Y-139907200D01*
X255483333Y-139907200D02*
X255435714Y-139859580D01*
X255435714Y-139859580D02*
X255388095Y-139764342D01*
X255388095Y-139764342D02*
X255388095Y-139526247D01*
X255388095Y-139526247D02*
X255435714Y-139431009D01*
X255435714Y-139431009D02*
X255483333Y-139383390D01*
X255483333Y-139383390D02*
X255578571Y-139335771D01*
X255578571Y-139335771D02*
X255769047Y-139335771D01*
X255769047Y-139335771D02*
X255864285Y-139383390D01*
X255864285Y-139383390D02*
X255911904Y-139431009D01*
X255911904Y-139431009D02*
X255959523Y-139526247D01*
X171517857Y-112779819D02*
X171851190Y-112303628D01*
X172089285Y-112779819D02*
X172089285Y-111779819D01*
X172089285Y-111779819D02*
X171708333Y-111779819D01*
X171708333Y-111779819D02*
X171613095Y-111827438D01*
X171613095Y-111827438D02*
X171565476Y-111875057D01*
X171565476Y-111875057D02*
X171517857Y-111970295D01*
X171517857Y-111970295D02*
X171517857Y-112113152D01*
X171517857Y-112113152D02*
X171565476Y-112208390D01*
X171565476Y-112208390D02*
X171613095Y-112256009D01*
X171613095Y-112256009D02*
X171708333Y-112303628D01*
X171708333Y-112303628D02*
X172089285Y-112303628D01*
X170660714Y-112113152D02*
X170660714Y-112779819D01*
X170898809Y-111732200D02*
X171136904Y-112446485D01*
X171136904Y-112446485D02*
X170517857Y-112446485D01*
X170232142Y-111779819D02*
X169565476Y-111779819D01*
X169565476Y-111779819D02*
X169994047Y-112779819D01*
X168217857Y-112829819D02*
X168551190Y-112353628D01*
X168789285Y-112829819D02*
X168789285Y-111829819D01*
X168789285Y-111829819D02*
X168408333Y-111829819D01*
X168408333Y-111829819D02*
X168313095Y-111877438D01*
X168313095Y-111877438D02*
X168265476Y-111925057D01*
X168265476Y-111925057D02*
X168217857Y-112020295D01*
X168217857Y-112020295D02*
X168217857Y-112163152D01*
X168217857Y-112163152D02*
X168265476Y-112258390D01*
X168265476Y-112258390D02*
X168313095Y-112306009D01*
X168313095Y-112306009D02*
X168408333Y-112353628D01*
X168408333Y-112353628D02*
X168789285Y-112353628D01*
X167360714Y-112163152D02*
X167360714Y-112829819D01*
X167598809Y-111782200D02*
X167836904Y-112496485D01*
X167836904Y-112496485D02*
X167217857Y-112496485D01*
X166694047Y-112258390D02*
X166789285Y-112210771D01*
X166789285Y-112210771D02*
X166836904Y-112163152D01*
X166836904Y-112163152D02*
X166884523Y-112067914D01*
X166884523Y-112067914D02*
X166884523Y-112020295D01*
X166884523Y-112020295D02*
X166836904Y-111925057D01*
X166836904Y-111925057D02*
X166789285Y-111877438D01*
X166789285Y-111877438D02*
X166694047Y-111829819D01*
X166694047Y-111829819D02*
X166503571Y-111829819D01*
X166503571Y-111829819D02*
X166408333Y-111877438D01*
X166408333Y-111877438D02*
X166360714Y-111925057D01*
X166360714Y-111925057D02*
X166313095Y-112020295D01*
X166313095Y-112020295D02*
X166313095Y-112067914D01*
X166313095Y-112067914D02*
X166360714Y-112163152D01*
X166360714Y-112163152D02*
X166408333Y-112210771D01*
X166408333Y-112210771D02*
X166503571Y-112258390D01*
X166503571Y-112258390D02*
X166694047Y-112258390D01*
X166694047Y-112258390D02*
X166789285Y-112306009D01*
X166789285Y-112306009D02*
X166836904Y-112353628D01*
X166836904Y-112353628D02*
X166884523Y-112448866D01*
X166884523Y-112448866D02*
X166884523Y-112639342D01*
X166884523Y-112639342D02*
X166836904Y-112734580D01*
X166836904Y-112734580D02*
X166789285Y-112782200D01*
X166789285Y-112782200D02*
X166694047Y-112829819D01*
X166694047Y-112829819D02*
X166503571Y-112829819D01*
X166503571Y-112829819D02*
X166408333Y-112782200D01*
X166408333Y-112782200D02*
X166360714Y-112734580D01*
X166360714Y-112734580D02*
X166313095Y-112639342D01*
X166313095Y-112639342D02*
X166313095Y-112448866D01*
X166313095Y-112448866D02*
X166360714Y-112353628D01*
X166360714Y-112353628D02*
X166408333Y-112306009D01*
X166408333Y-112306009D02*
X166503571Y-112258390D01*
X264005357Y-139979819D02*
X264338690Y-139503628D01*
X264576785Y-139979819D02*
X264576785Y-138979819D01*
X264576785Y-138979819D02*
X264195833Y-138979819D01*
X264195833Y-138979819D02*
X264100595Y-139027438D01*
X264100595Y-139027438D02*
X264052976Y-139075057D01*
X264052976Y-139075057D02*
X264005357Y-139170295D01*
X264005357Y-139170295D02*
X264005357Y-139313152D01*
X264005357Y-139313152D02*
X264052976Y-139408390D01*
X264052976Y-139408390D02*
X264100595Y-139456009D01*
X264100595Y-139456009D02*
X264195833Y-139503628D01*
X264195833Y-139503628D02*
X264576785Y-139503628D01*
X263100595Y-138979819D02*
X263576785Y-138979819D01*
X263576785Y-138979819D02*
X263624404Y-139456009D01*
X263624404Y-139456009D02*
X263576785Y-139408390D01*
X263576785Y-139408390D02*
X263481547Y-139360771D01*
X263481547Y-139360771D02*
X263243452Y-139360771D01*
X263243452Y-139360771D02*
X263148214Y-139408390D01*
X263148214Y-139408390D02*
X263100595Y-139456009D01*
X263100595Y-139456009D02*
X263052976Y-139551247D01*
X263052976Y-139551247D02*
X263052976Y-139789342D01*
X263052976Y-139789342D02*
X263100595Y-139884580D01*
X263100595Y-139884580D02*
X263148214Y-139932200D01*
X263148214Y-139932200D02*
X263243452Y-139979819D01*
X263243452Y-139979819D02*
X263481547Y-139979819D01*
X263481547Y-139979819D02*
X263576785Y-139932200D01*
X263576785Y-139932200D02*
X263624404Y-139884580D01*
X262433928Y-138979819D02*
X262338690Y-138979819D01*
X262338690Y-138979819D02*
X262243452Y-139027438D01*
X262243452Y-139027438D02*
X262195833Y-139075057D01*
X262195833Y-139075057D02*
X262148214Y-139170295D01*
X262148214Y-139170295D02*
X262100595Y-139360771D01*
X262100595Y-139360771D02*
X262100595Y-139598866D01*
X262100595Y-139598866D02*
X262148214Y-139789342D01*
X262148214Y-139789342D02*
X262195833Y-139884580D01*
X262195833Y-139884580D02*
X262243452Y-139932200D01*
X262243452Y-139932200D02*
X262338690Y-139979819D01*
X262338690Y-139979819D02*
X262433928Y-139979819D01*
X262433928Y-139979819D02*
X262529166Y-139932200D01*
X262529166Y-139932200D02*
X262576785Y-139884580D01*
X262576785Y-139884580D02*
X262624404Y-139789342D01*
X262624404Y-139789342D02*
X262672023Y-139598866D01*
X262672023Y-139598866D02*
X262672023Y-139360771D01*
X262672023Y-139360771D02*
X262624404Y-139170295D01*
X262624404Y-139170295D02*
X262576785Y-139075057D01*
X262576785Y-139075057D02*
X262529166Y-139027438D01*
X262529166Y-139027438D02*
X262433928Y-138979819D01*
D11*
%TO.C,SW8*%
X189441000Y-98399000D02*
G75*
G02*
X188679000Y-98399000I-381000J0D01*
G01*
X188679000Y-98399000D02*
G75*
G02*
X189441000Y-98399000I381000J0D01*
G01*
%TO.C,J15*%
X175931000Y-166351000D02*
G75*
G02*
X175169000Y-166351000I-381000J0D01*
G01*
X175169000Y-166351000D02*
G75*
G02*
X175931000Y-166351000I381000J0D01*
G01*
%TO.C,J14*%
X183154800Y-166391000D02*
G75*
G02*
X182392800Y-166391000I-381000J0D01*
G01*
X182392800Y-166391000D02*
G75*
G02*
X183154800Y-166391000I381000J0D01*
G01*
%TO.C,D8*%
X212372000Y-108276200D02*
G75*
G02*
X211610000Y-108276200I-381000J0D01*
G01*
X211610000Y-108276200D02*
G75*
G02*
X212372000Y-108276200I381000J0D01*
G01*
%TO.C,SW6*%
X231991128Y-166252200D02*
G75*
G02*
X231229128Y-166252200I-381000J0D01*
G01*
X231229128Y-166252200D02*
G75*
G02*
X231991128Y-166252200I381000J0D01*
G01*
%TO.C,SW10*%
X177891000Y-98399000D02*
G75*
G02*
X177129000Y-98399000I-381000J0D01*
G01*
X177129000Y-98399000D02*
G75*
G02*
X177891000Y-98399000I381000J0D01*
G01*
%TO.C,SW4*%
X239871128Y-166276000D02*
G75*
G02*
X239109128Y-166276000I-381000J0D01*
G01*
X239109128Y-166276000D02*
G75*
G02*
X239871128Y-166276000I381000J0D01*
G01*
%TO.C,SW5*%
X247611128Y-166276000D02*
G75*
G02*
X246849128Y-166276000I-381000J0D01*
G01*
X246849128Y-166276000D02*
G75*
G02*
X247611128Y-166276000I381000J0D01*
G01*
D12*
%TO.C,SW1*%
X192427001Y-128369998D02*
G75*
G02*
X192173001Y-128369998I-127000J0D01*
G01*
X192173001Y-128369998D02*
G75*
G02*
X192427001Y-128369998I127000J0D01*
G01*
D11*
%TO.C,SW3*%
X221790000Y-103087200D02*
G75*
G02*
X221028000Y-103087200I-381000J0D01*
G01*
X221028000Y-103087200D02*
G75*
G02*
X221790000Y-103087200I381000J0D01*
G01*
%TO.C,J13*%
X229454800Y-159141000D02*
G75*
G02*
X228692800Y-159141000I-381000J0D01*
G01*
X228692800Y-159141000D02*
G75*
G02*
X229454800Y-159141000I381000J0D01*
G01*
%TO.C,SW9*%
X183691000Y-98399000D02*
G75*
G02*
X182929000Y-98399000I-381000J0D01*
G01*
X182929000Y-98399000D02*
G75*
G02*
X183691000Y-98399000I381000J0D01*
G01*
%TO.C,J6*%
X235881000Y-99100000D02*
G75*
G02*
X235119000Y-99100000I-381000J0D01*
G01*
X235119000Y-99100000D02*
G75*
G02*
X235881000Y-99100000I381000J0D01*
G01*
%TO.C,SW7*%
X195381000Y-98399000D02*
G75*
G02*
X194619000Y-98399000I-381000J0D01*
G01*
X194619000Y-98399000D02*
G75*
G02*
X195381000Y-98399000I381000J0D01*
G01*
%TO.C,J24*%
X167580000Y-104000000D02*
G75*
G02*
X166818000Y-104000000I-381000J0D01*
G01*
X166818000Y-104000000D02*
G75*
G02*
X167580000Y-104000000I381000J0D01*
G01*
%TO.C,J5*%
X250481000Y-99099999D02*
G75*
G02*
X249719000Y-99099999I-381000J0D01*
G01*
X249719000Y-99099999D02*
G75*
G02*
X250481000Y-99099999I381000J0D01*
G01*
D13*
%TO.C,R49*%
X260267224Y-137602500D02*
X259757776Y-137602500D01*
X260267224Y-138647500D02*
X259757776Y-138647500D01*
%TO.C,R26*%
X173932776Y-113177500D02*
X174442224Y-113177500D01*
X173932776Y-114222500D02*
X174442224Y-114222500D01*
%TO.C,R36*%
X256904724Y-137602500D02*
X256395276Y-137602500D01*
X256904724Y-138647500D02*
X256395276Y-138647500D01*
%TO.C,R47*%
X170557776Y-113177500D02*
X171067224Y-113177500D01*
X170557776Y-114222500D02*
X171067224Y-114222500D01*
%TO.C,R48*%
X167182776Y-113177500D02*
X167692224Y-113177500D01*
X167182776Y-114222500D02*
X167692224Y-114222500D01*
%TO.C,R50*%
X263642224Y-137602500D02*
X263132776Y-137602500D01*
X263642224Y-138647500D02*
X263132776Y-138647500D01*
%TD*%
M02*
