%TF.GenerationSoftware,KiCad,Pcbnew,9.0.2*%
%TF.CreationDate,2025-08-06T09:53:29-07:00*%
%TF.ProjectId,IMU_Breakout,494d555f-4272-4656-916b-6f75742e6b69,0.2*%
%TF.SameCoordinates,Original*%
%TF.FileFunction,Legend,Bot*%
%TF.FilePolarity,Positive*%
%FSLAX46Y46*%
G04 Gerber Fmt 4.6, Leading zero omitted, Abs format (unit mm)*
G04 Created by KiCad (PCBNEW 9.0.2) date 2025-08-06 09:53:29*
%MOMM*%
%LPD*%
G01*
G04 APERTURE LIST*
%ADD10C,0.150000*%
%ADD11C,0.093750*%
%ADD12C,0.120000*%
G04 APERTURE END LIST*
D10*
X228210000Y-123680000D02*
X227510000Y-124280000D01*
X229710000Y-122240000D02*
X230910000Y-122240000D01*
X230310000Y-121540000D02*
X230310000Y-124340000D01*
X229710000Y-122240000D02*
X230310000Y-121540000D01*
X228210000Y-124880000D02*
X227510000Y-124280000D01*
X228210000Y-124880000D02*
X228210000Y-123680000D01*
X227510000Y-124280000D02*
X230310000Y-124280000D01*
X230910000Y-122240000D02*
X230310000Y-121540000D01*
X230610000Y-124620000D02*
X230000000Y-123980000D01*
X230030000Y-124650000D02*
X230630000Y-123960000D01*
D11*
X236895465Y-124967625D02*
X236788323Y-125003339D01*
X236788323Y-125003339D02*
X236609751Y-125003339D01*
X236609751Y-125003339D02*
X236538323Y-124967625D01*
X236538323Y-124967625D02*
X236502608Y-124931910D01*
X236502608Y-124931910D02*
X236466894Y-124860482D01*
X236466894Y-124860482D02*
X236466894Y-124789053D01*
X236466894Y-124789053D02*
X236502608Y-124717625D01*
X236502608Y-124717625D02*
X236538323Y-124681910D01*
X236538323Y-124681910D02*
X236609751Y-124646196D01*
X236609751Y-124646196D02*
X236752608Y-124610482D01*
X236752608Y-124610482D02*
X236824037Y-124574767D01*
X236824037Y-124574767D02*
X236859751Y-124539053D01*
X236859751Y-124539053D02*
X236895465Y-124467625D01*
X236895465Y-124467625D02*
X236895465Y-124396196D01*
X236895465Y-124396196D02*
X236859751Y-124324767D01*
X236859751Y-124324767D02*
X236824037Y-124289053D01*
X236824037Y-124289053D02*
X236752608Y-124253339D01*
X236752608Y-124253339D02*
X236574037Y-124253339D01*
X236574037Y-124253339D02*
X236466894Y-124289053D01*
X236145465Y-125003339D02*
X236145465Y-124253339D01*
X236145465Y-124253339D02*
X235966894Y-124253339D01*
X235966894Y-124253339D02*
X235859751Y-124289053D01*
X235859751Y-124289053D02*
X235788322Y-124360482D01*
X235788322Y-124360482D02*
X235752608Y-124431910D01*
X235752608Y-124431910D02*
X235716894Y-124574767D01*
X235716894Y-124574767D02*
X235716894Y-124681910D01*
X235716894Y-124681910D02*
X235752608Y-124824767D01*
X235752608Y-124824767D02*
X235788322Y-124896196D01*
X235788322Y-124896196D02*
X235859751Y-124967625D01*
X235859751Y-124967625D02*
X235966894Y-125003339D01*
X235966894Y-125003339D02*
X236145465Y-125003339D01*
X235395465Y-125003339D02*
X235395465Y-124253339D01*
X236859751Y-122503339D02*
X236859751Y-121753339D01*
X236502608Y-122503339D02*
X236502608Y-121753339D01*
X236502608Y-121753339D02*
X236074037Y-122503339D01*
X236074037Y-122503339D02*
X236074037Y-121753339D01*
X235824037Y-121753339D02*
X235395466Y-121753339D01*
X235609751Y-122503339D02*
X235609751Y-121753339D01*
X234752608Y-122503339D02*
X235181179Y-122503339D01*
X234966894Y-122503339D02*
X234966894Y-121753339D01*
X234966894Y-121753339D02*
X235038322Y-121860482D01*
X235038322Y-121860482D02*
X235109751Y-121931910D01*
X235109751Y-121931910D02*
X235181179Y-121967625D01*
X236566894Y-129289053D02*
X236638323Y-129253339D01*
X236638323Y-129253339D02*
X236745465Y-129253339D01*
X236745465Y-129253339D02*
X236852608Y-129289053D01*
X236852608Y-129289053D02*
X236924037Y-129360482D01*
X236924037Y-129360482D02*
X236959751Y-129431910D01*
X236959751Y-129431910D02*
X236995465Y-129574767D01*
X236995465Y-129574767D02*
X236995465Y-129681910D01*
X236995465Y-129681910D02*
X236959751Y-129824767D01*
X236959751Y-129824767D02*
X236924037Y-129896196D01*
X236924037Y-129896196D02*
X236852608Y-129967625D01*
X236852608Y-129967625D02*
X236745465Y-130003339D01*
X236745465Y-130003339D02*
X236674037Y-130003339D01*
X236674037Y-130003339D02*
X236566894Y-129967625D01*
X236566894Y-129967625D02*
X236531180Y-129931910D01*
X236531180Y-129931910D02*
X236531180Y-129681910D01*
X236531180Y-129681910D02*
X236674037Y-129681910D01*
X236209751Y-130003339D02*
X236209751Y-129253339D01*
X236209751Y-129253339D02*
X235781180Y-130003339D01*
X235781180Y-130003339D02*
X235781180Y-129253339D01*
X235424037Y-130003339D02*
X235424037Y-129253339D01*
X235424037Y-129253339D02*
X235245466Y-129253339D01*
X235245466Y-129253339D02*
X235138323Y-129289053D01*
X235138323Y-129289053D02*
X235066894Y-129360482D01*
X235066894Y-129360482D02*
X235031180Y-129431910D01*
X235031180Y-129431910D02*
X234995466Y-129574767D01*
X234995466Y-129574767D02*
X234995466Y-129681910D01*
X234995466Y-129681910D02*
X235031180Y-129824767D01*
X235031180Y-129824767D02*
X235066894Y-129896196D01*
X235066894Y-129896196D02*
X235138323Y-129967625D01*
X235138323Y-129967625D02*
X235245466Y-130003339D01*
X235245466Y-130003339D02*
X235424037Y-130003339D01*
D10*
X234953220Y-114319931D02*
X234953220Y-113319931D01*
X234953220Y-113796121D02*
X234381792Y-113796121D01*
X234381792Y-114319931D02*
X234381792Y-113319931D01*
X233762744Y-114319931D02*
X233857982Y-114272312D01*
X233857982Y-114272312D02*
X233905601Y-114224692D01*
X233905601Y-114224692D02*
X233953220Y-114129454D01*
X233953220Y-114129454D02*
X233953220Y-113843740D01*
X233953220Y-113843740D02*
X233905601Y-113748502D01*
X233905601Y-113748502D02*
X233857982Y-113700883D01*
X233857982Y-113700883D02*
X233762744Y-113653264D01*
X233762744Y-113653264D02*
X233619887Y-113653264D01*
X233619887Y-113653264D02*
X233524649Y-113700883D01*
X233524649Y-113700883D02*
X233477030Y-113748502D01*
X233477030Y-113748502D02*
X233429411Y-113843740D01*
X233429411Y-113843740D02*
X233429411Y-114129454D01*
X233429411Y-114129454D02*
X233477030Y-114224692D01*
X233477030Y-114224692D02*
X233524649Y-114272312D01*
X233524649Y-114272312D02*
X233619887Y-114319931D01*
X233619887Y-114319931D02*
X233762744Y-114319931D01*
X232857982Y-114319931D02*
X232953220Y-114272312D01*
X232953220Y-114272312D02*
X233000839Y-114177073D01*
X233000839Y-114177073D02*
X233000839Y-113319931D01*
X232096077Y-114272312D02*
X232191315Y-114319931D01*
X232191315Y-114319931D02*
X232381791Y-114319931D01*
X232381791Y-114319931D02*
X232477029Y-114272312D01*
X232477029Y-114272312D02*
X232524648Y-114177073D01*
X232524648Y-114177073D02*
X232524648Y-113796121D01*
X232524648Y-113796121D02*
X232477029Y-113700883D01*
X232477029Y-113700883D02*
X232381791Y-113653264D01*
X232381791Y-113653264D02*
X232191315Y-113653264D01*
X232191315Y-113653264D02*
X232096077Y-113700883D01*
X232096077Y-113700883D02*
X232048458Y-113796121D01*
X232048458Y-113796121D02*
X232048458Y-113891359D01*
X232048458Y-113891359D02*
X232524648Y-113986597D01*
X230905600Y-114272312D02*
X230810362Y-114319931D01*
X230810362Y-114319931D02*
X230619886Y-114319931D01*
X230619886Y-114319931D02*
X230524648Y-114272312D01*
X230524648Y-114272312D02*
X230477029Y-114177073D01*
X230477029Y-114177073D02*
X230477029Y-114129454D01*
X230477029Y-114129454D02*
X230524648Y-114034216D01*
X230524648Y-114034216D02*
X230619886Y-113986597D01*
X230619886Y-113986597D02*
X230762743Y-113986597D01*
X230762743Y-113986597D02*
X230857981Y-113938978D01*
X230857981Y-113938978D02*
X230905600Y-113843740D01*
X230905600Y-113843740D02*
X230905600Y-113796121D01*
X230905600Y-113796121D02*
X230857981Y-113700883D01*
X230857981Y-113700883D02*
X230762743Y-113653264D01*
X230762743Y-113653264D02*
X230619886Y-113653264D01*
X230619886Y-113653264D02*
X230524648Y-113700883D01*
X230048457Y-113653264D02*
X230048457Y-114653264D01*
X230048457Y-113700883D02*
X229953219Y-113653264D01*
X229953219Y-113653264D02*
X229762743Y-113653264D01*
X229762743Y-113653264D02*
X229667505Y-113700883D01*
X229667505Y-113700883D02*
X229619886Y-113748502D01*
X229619886Y-113748502D02*
X229572267Y-113843740D01*
X229572267Y-113843740D02*
X229572267Y-114129454D01*
X229572267Y-114129454D02*
X229619886Y-114224692D01*
X229619886Y-114224692D02*
X229667505Y-114272312D01*
X229667505Y-114272312D02*
X229762743Y-114319931D01*
X229762743Y-114319931D02*
X229953219Y-114319931D01*
X229953219Y-114319931D02*
X230048457Y-114272312D01*
X228715124Y-114319931D02*
X228715124Y-113796121D01*
X228715124Y-113796121D02*
X228762743Y-113700883D01*
X228762743Y-113700883D02*
X228857981Y-113653264D01*
X228857981Y-113653264D02*
X229048457Y-113653264D01*
X229048457Y-113653264D02*
X229143695Y-113700883D01*
X228715124Y-114272312D02*
X228810362Y-114319931D01*
X228810362Y-114319931D02*
X229048457Y-114319931D01*
X229048457Y-114319931D02*
X229143695Y-114272312D01*
X229143695Y-114272312D02*
X229191314Y-114177073D01*
X229191314Y-114177073D02*
X229191314Y-114081835D01*
X229191314Y-114081835D02*
X229143695Y-113986597D01*
X229143695Y-113986597D02*
X229048457Y-113938978D01*
X229048457Y-113938978D02*
X228810362Y-113938978D01*
X228810362Y-113938978D02*
X228715124Y-113891359D01*
X227810362Y-114272312D02*
X227905600Y-114319931D01*
X227905600Y-114319931D02*
X228096076Y-114319931D01*
X228096076Y-114319931D02*
X228191314Y-114272312D01*
X228191314Y-114272312D02*
X228238933Y-114224692D01*
X228238933Y-114224692D02*
X228286552Y-114129454D01*
X228286552Y-114129454D02*
X228286552Y-113843740D01*
X228286552Y-113843740D02*
X228238933Y-113748502D01*
X228238933Y-113748502D02*
X228191314Y-113700883D01*
X228191314Y-113700883D02*
X228096076Y-113653264D01*
X228096076Y-113653264D02*
X227905600Y-113653264D01*
X227905600Y-113653264D02*
X227810362Y-113700883D01*
X227381790Y-114319931D02*
X227381790Y-113653264D01*
X227381790Y-113319931D02*
X227429409Y-113367550D01*
X227429409Y-113367550D02*
X227381790Y-113415169D01*
X227381790Y-113415169D02*
X227334171Y-113367550D01*
X227334171Y-113367550D02*
X227381790Y-113319931D01*
X227381790Y-113319931D02*
X227381790Y-113415169D01*
X226905600Y-113653264D02*
X226905600Y-114319931D01*
X226905600Y-113748502D02*
X226857981Y-113700883D01*
X226857981Y-113700883D02*
X226762743Y-113653264D01*
X226762743Y-113653264D02*
X226619886Y-113653264D01*
X226619886Y-113653264D02*
X226524648Y-113700883D01*
X226524648Y-113700883D02*
X226477029Y-113796121D01*
X226477029Y-113796121D02*
X226477029Y-114319931D01*
X225572267Y-113653264D02*
X225572267Y-114462788D01*
X225572267Y-114462788D02*
X225619886Y-114558026D01*
X225619886Y-114558026D02*
X225667505Y-114605645D01*
X225667505Y-114605645D02*
X225762743Y-114653264D01*
X225762743Y-114653264D02*
X225905600Y-114653264D01*
X225905600Y-114653264D02*
X226000838Y-114605645D01*
X225572267Y-114272312D02*
X225667505Y-114319931D01*
X225667505Y-114319931D02*
X225857981Y-114319931D01*
X225857981Y-114319931D02*
X225953219Y-114272312D01*
X225953219Y-114272312D02*
X226000838Y-114224692D01*
X226000838Y-114224692D02*
X226048457Y-114129454D01*
X226048457Y-114129454D02*
X226048457Y-113843740D01*
X226048457Y-113843740D02*
X226000838Y-113748502D01*
X226000838Y-113748502D02*
X225953219Y-113700883D01*
X225953219Y-113700883D02*
X225857981Y-113653264D01*
X225857981Y-113653264D02*
X225667505Y-113653264D01*
X225667505Y-113653264D02*
X225572267Y-113700883D01*
X225096076Y-114224692D02*
X225048457Y-114272312D01*
X225048457Y-114272312D02*
X225096076Y-114319931D01*
X225096076Y-114319931D02*
X225143695Y-114272312D01*
X225143695Y-114272312D02*
X225096076Y-114224692D01*
X225096076Y-114224692D02*
X225096076Y-114319931D01*
X225096076Y-113700883D02*
X225048457Y-113748502D01*
X225048457Y-113748502D02*
X225096076Y-113796121D01*
X225096076Y-113796121D02*
X225143695Y-113748502D01*
X225143695Y-113748502D02*
X225096076Y-113700883D01*
X225096076Y-113700883D02*
X225096076Y-113796121D01*
X234429411Y-115929875D02*
X235000839Y-115929875D01*
X234715125Y-115929875D02*
X234715125Y-114929875D01*
X234715125Y-114929875D02*
X234810363Y-115072732D01*
X234810363Y-115072732D02*
X234905601Y-115167970D01*
X234905601Y-115167970D02*
X235000839Y-115215589D01*
X233953220Y-115929875D02*
X233762744Y-115929875D01*
X233762744Y-115929875D02*
X233667506Y-115882256D01*
X233667506Y-115882256D02*
X233619887Y-115834636D01*
X233619887Y-115834636D02*
X233524649Y-115691779D01*
X233524649Y-115691779D02*
X233477030Y-115501303D01*
X233477030Y-115501303D02*
X233477030Y-115120351D01*
X233477030Y-115120351D02*
X233524649Y-115025113D01*
X233524649Y-115025113D02*
X233572268Y-114977494D01*
X233572268Y-114977494D02*
X233667506Y-114929875D01*
X233667506Y-114929875D02*
X233857982Y-114929875D01*
X233857982Y-114929875D02*
X233953220Y-114977494D01*
X233953220Y-114977494D02*
X234000839Y-115025113D01*
X234000839Y-115025113D02*
X234048458Y-115120351D01*
X234048458Y-115120351D02*
X234048458Y-115358446D01*
X234048458Y-115358446D02*
X234000839Y-115453684D01*
X234000839Y-115453684D02*
X233953220Y-115501303D01*
X233953220Y-115501303D02*
X233857982Y-115548922D01*
X233857982Y-115548922D02*
X233667506Y-115548922D01*
X233667506Y-115548922D02*
X233572268Y-115501303D01*
X233572268Y-115501303D02*
X233524649Y-115453684D01*
X233524649Y-115453684D02*
X233477030Y-115358446D01*
X233048458Y-115834636D02*
X233000839Y-115882256D01*
X233000839Y-115882256D02*
X233048458Y-115929875D01*
X233048458Y-115929875D02*
X233096077Y-115882256D01*
X233096077Y-115882256D02*
X233048458Y-115834636D01*
X233048458Y-115834636D02*
X233048458Y-115929875D01*
X232048459Y-115929875D02*
X232619887Y-115929875D01*
X232334173Y-115929875D02*
X232334173Y-114929875D01*
X232334173Y-114929875D02*
X232429411Y-115072732D01*
X232429411Y-115072732D02*
X232524649Y-115167970D01*
X232524649Y-115167970D02*
X232619887Y-115215589D01*
X230857982Y-115929875D02*
X230857982Y-115263208D01*
X230857982Y-115358446D02*
X230810363Y-115310827D01*
X230810363Y-115310827D02*
X230715125Y-115263208D01*
X230715125Y-115263208D02*
X230572268Y-115263208D01*
X230572268Y-115263208D02*
X230477030Y-115310827D01*
X230477030Y-115310827D02*
X230429411Y-115406065D01*
X230429411Y-115406065D02*
X230429411Y-115929875D01*
X230429411Y-115406065D02*
X230381792Y-115310827D01*
X230381792Y-115310827D02*
X230286554Y-115263208D01*
X230286554Y-115263208D02*
X230143697Y-115263208D01*
X230143697Y-115263208D02*
X230048458Y-115310827D01*
X230048458Y-115310827D02*
X230000839Y-115406065D01*
X230000839Y-115406065D02*
X230000839Y-115929875D01*
X229524649Y-115929875D02*
X229524649Y-115263208D01*
X229524649Y-115358446D02*
X229477030Y-115310827D01*
X229477030Y-115310827D02*
X229381792Y-115263208D01*
X229381792Y-115263208D02*
X229238935Y-115263208D01*
X229238935Y-115263208D02*
X229143697Y-115310827D01*
X229143697Y-115310827D02*
X229096078Y-115406065D01*
X229096078Y-115406065D02*
X229096078Y-115929875D01*
X229096078Y-115406065D02*
X229048459Y-115310827D01*
X229048459Y-115310827D02*
X228953221Y-115263208D01*
X228953221Y-115263208D02*
X228810364Y-115263208D01*
X228810364Y-115263208D02*
X228715125Y-115310827D01*
X228715125Y-115310827D02*
X228667506Y-115406065D01*
X228667506Y-115406065D02*
X228667506Y-115929875D01*
X227524649Y-115929875D02*
X227000840Y-115263208D01*
X227524649Y-115263208D02*
X227000840Y-115929875D01*
X234429411Y-117539819D02*
X235000839Y-117539819D01*
X234715125Y-117539819D02*
X234715125Y-116539819D01*
X234715125Y-116539819D02*
X234810363Y-116682676D01*
X234810363Y-116682676D02*
X234905601Y-116777914D01*
X234905601Y-116777914D02*
X235000839Y-116825533D01*
X233572268Y-116539819D02*
X233762744Y-116539819D01*
X233762744Y-116539819D02*
X233857982Y-116587438D01*
X233857982Y-116587438D02*
X233905601Y-116635057D01*
X233905601Y-116635057D02*
X234000839Y-116777914D01*
X234000839Y-116777914D02*
X234048458Y-116968390D01*
X234048458Y-116968390D02*
X234048458Y-117349342D01*
X234048458Y-117349342D02*
X234000839Y-117444580D01*
X234000839Y-117444580D02*
X233953220Y-117492200D01*
X233953220Y-117492200D02*
X233857982Y-117539819D01*
X233857982Y-117539819D02*
X233667506Y-117539819D01*
X233667506Y-117539819D02*
X233572268Y-117492200D01*
X233572268Y-117492200D02*
X233524649Y-117444580D01*
X233524649Y-117444580D02*
X233477030Y-117349342D01*
X233477030Y-117349342D02*
X233477030Y-117111247D01*
X233477030Y-117111247D02*
X233524649Y-117016009D01*
X233524649Y-117016009D02*
X233572268Y-116968390D01*
X233572268Y-116968390D02*
X233667506Y-116920771D01*
X233667506Y-116920771D02*
X233857982Y-116920771D01*
X233857982Y-116920771D02*
X233953220Y-116968390D01*
X233953220Y-116968390D02*
X234000839Y-117016009D01*
X234000839Y-117016009D02*
X234048458Y-117111247D01*
X233048458Y-117444580D02*
X233000839Y-117492200D01*
X233000839Y-117492200D02*
X233048458Y-117539819D01*
X233048458Y-117539819D02*
X233096077Y-117492200D01*
X233096077Y-117492200D02*
X233048458Y-117444580D01*
X233048458Y-117444580D02*
X233048458Y-117539819D01*
X232667506Y-116539819D02*
X232048459Y-116539819D01*
X232048459Y-116539819D02*
X232381792Y-116920771D01*
X232381792Y-116920771D02*
X232238935Y-116920771D01*
X232238935Y-116920771D02*
X232143697Y-116968390D01*
X232143697Y-116968390D02*
X232096078Y-117016009D01*
X232096078Y-117016009D02*
X232048459Y-117111247D01*
X232048459Y-117111247D02*
X232048459Y-117349342D01*
X232048459Y-117349342D02*
X232096078Y-117444580D01*
X232096078Y-117444580D02*
X232143697Y-117492200D01*
X232143697Y-117492200D02*
X232238935Y-117539819D01*
X232238935Y-117539819D02*
X232524649Y-117539819D01*
X232524649Y-117539819D02*
X232619887Y-117492200D01*
X232619887Y-117492200D02*
X232667506Y-117444580D01*
X231667506Y-116635057D02*
X231619887Y-116587438D01*
X231619887Y-116587438D02*
X231524649Y-116539819D01*
X231524649Y-116539819D02*
X231286554Y-116539819D01*
X231286554Y-116539819D02*
X231191316Y-116587438D01*
X231191316Y-116587438D02*
X231143697Y-116635057D01*
X231143697Y-116635057D02*
X231096078Y-116730295D01*
X231096078Y-116730295D02*
X231096078Y-116825533D01*
X231096078Y-116825533D02*
X231143697Y-116968390D01*
X231143697Y-116968390D02*
X231715125Y-117539819D01*
X231715125Y-117539819D02*
X231096078Y-117539819D01*
X230191316Y-116539819D02*
X230667506Y-116539819D01*
X230667506Y-116539819D02*
X230715125Y-117016009D01*
X230715125Y-117016009D02*
X230667506Y-116968390D01*
X230667506Y-116968390D02*
X230572268Y-116920771D01*
X230572268Y-116920771D02*
X230334173Y-116920771D01*
X230334173Y-116920771D02*
X230238935Y-116968390D01*
X230238935Y-116968390D02*
X230191316Y-117016009D01*
X230191316Y-117016009D02*
X230143697Y-117111247D01*
X230143697Y-117111247D02*
X230143697Y-117349342D01*
X230143697Y-117349342D02*
X230191316Y-117444580D01*
X230191316Y-117444580D02*
X230238935Y-117492200D01*
X230238935Y-117492200D02*
X230334173Y-117539819D01*
X230334173Y-117539819D02*
X230572268Y-117539819D01*
X230572268Y-117539819D02*
X230667506Y-117492200D01*
X230667506Y-117492200D02*
X230715125Y-117444580D01*
X228953220Y-117539819D02*
X228953220Y-116873152D01*
X228953220Y-116968390D02*
X228905601Y-116920771D01*
X228905601Y-116920771D02*
X228810363Y-116873152D01*
X228810363Y-116873152D02*
X228667506Y-116873152D01*
X228667506Y-116873152D02*
X228572268Y-116920771D01*
X228572268Y-116920771D02*
X228524649Y-117016009D01*
X228524649Y-117016009D02*
X228524649Y-117539819D01*
X228524649Y-117016009D02*
X228477030Y-116920771D01*
X228477030Y-116920771D02*
X228381792Y-116873152D01*
X228381792Y-116873152D02*
X228238935Y-116873152D01*
X228238935Y-116873152D02*
X228143696Y-116920771D01*
X228143696Y-116920771D02*
X228096077Y-117016009D01*
X228096077Y-117016009D02*
X228096077Y-117539819D01*
X227619887Y-117539819D02*
X227619887Y-116873152D01*
X227619887Y-116968390D02*
X227572268Y-116920771D01*
X227572268Y-116920771D02*
X227477030Y-116873152D01*
X227477030Y-116873152D02*
X227334173Y-116873152D01*
X227334173Y-116873152D02*
X227238935Y-116920771D01*
X227238935Y-116920771D02*
X227191316Y-117016009D01*
X227191316Y-117016009D02*
X227191316Y-117539819D01*
X227191316Y-117016009D02*
X227143697Y-116920771D01*
X227143697Y-116920771D02*
X227048459Y-116873152D01*
X227048459Y-116873152D02*
X226905602Y-116873152D01*
X226905602Y-116873152D02*
X226810363Y-116920771D01*
X226810363Y-116920771D02*
X226762744Y-117016009D01*
X226762744Y-117016009D02*
X226762744Y-117539819D01*
D11*
X236895465Y-123767625D02*
X236788323Y-123803339D01*
X236788323Y-123803339D02*
X236609751Y-123803339D01*
X236609751Y-123803339D02*
X236538323Y-123767625D01*
X236538323Y-123767625D02*
X236502608Y-123731910D01*
X236502608Y-123731910D02*
X236466894Y-123660482D01*
X236466894Y-123660482D02*
X236466894Y-123589053D01*
X236466894Y-123589053D02*
X236502608Y-123517625D01*
X236502608Y-123517625D02*
X236538323Y-123481910D01*
X236538323Y-123481910D02*
X236609751Y-123446196D01*
X236609751Y-123446196D02*
X236752608Y-123410482D01*
X236752608Y-123410482D02*
X236824037Y-123374767D01*
X236824037Y-123374767D02*
X236859751Y-123339053D01*
X236859751Y-123339053D02*
X236895465Y-123267625D01*
X236895465Y-123267625D02*
X236895465Y-123196196D01*
X236895465Y-123196196D02*
X236859751Y-123124767D01*
X236859751Y-123124767D02*
X236824037Y-123089053D01*
X236824037Y-123089053D02*
X236752608Y-123053339D01*
X236752608Y-123053339D02*
X236574037Y-123053339D01*
X236574037Y-123053339D02*
X236466894Y-123089053D01*
X236145465Y-123803339D02*
X236145465Y-123053339D01*
X236145465Y-123053339D02*
X235966894Y-123053339D01*
X235966894Y-123053339D02*
X235859751Y-123089053D01*
X235859751Y-123089053D02*
X235788322Y-123160482D01*
X235788322Y-123160482D02*
X235752608Y-123231910D01*
X235752608Y-123231910D02*
X235716894Y-123374767D01*
X235716894Y-123374767D02*
X235716894Y-123481910D01*
X235716894Y-123481910D02*
X235752608Y-123624767D01*
X235752608Y-123624767D02*
X235788322Y-123696196D01*
X235788322Y-123696196D02*
X235859751Y-123767625D01*
X235859751Y-123767625D02*
X235966894Y-123803339D01*
X235966894Y-123803339D02*
X236145465Y-123803339D01*
X235252608Y-123053339D02*
X235109751Y-123053339D01*
X235109751Y-123053339D02*
X235038322Y-123089053D01*
X235038322Y-123089053D02*
X234966894Y-123160482D01*
X234966894Y-123160482D02*
X234931179Y-123303339D01*
X234931179Y-123303339D02*
X234931179Y-123553339D01*
X234931179Y-123553339D02*
X234966894Y-123696196D01*
X234966894Y-123696196D02*
X235038322Y-123767625D01*
X235038322Y-123767625D02*
X235109751Y-123803339D01*
X235109751Y-123803339D02*
X235252608Y-123803339D01*
X235252608Y-123803339D02*
X235324037Y-123767625D01*
X235324037Y-123767625D02*
X235395465Y-123696196D01*
X235395465Y-123696196D02*
X235431179Y-123553339D01*
X235431179Y-123553339D02*
X235431179Y-123303339D01*
X235431179Y-123303339D02*
X235395465Y-123160482D01*
X235395465Y-123160482D02*
X235324037Y-123089053D01*
X235324037Y-123089053D02*
X235252608Y-123053339D01*
X236895465Y-126267625D02*
X236788323Y-126303339D01*
X236788323Y-126303339D02*
X236609751Y-126303339D01*
X236609751Y-126303339D02*
X236538323Y-126267625D01*
X236538323Y-126267625D02*
X236502608Y-126231910D01*
X236502608Y-126231910D02*
X236466894Y-126160482D01*
X236466894Y-126160482D02*
X236466894Y-126089053D01*
X236466894Y-126089053D02*
X236502608Y-126017625D01*
X236502608Y-126017625D02*
X236538323Y-125981910D01*
X236538323Y-125981910D02*
X236609751Y-125946196D01*
X236609751Y-125946196D02*
X236752608Y-125910482D01*
X236752608Y-125910482D02*
X236824037Y-125874767D01*
X236824037Y-125874767D02*
X236859751Y-125839053D01*
X236859751Y-125839053D02*
X236895465Y-125767625D01*
X236895465Y-125767625D02*
X236895465Y-125696196D01*
X236895465Y-125696196D02*
X236859751Y-125624767D01*
X236859751Y-125624767D02*
X236824037Y-125589053D01*
X236824037Y-125589053D02*
X236752608Y-125553339D01*
X236752608Y-125553339D02*
X236574037Y-125553339D01*
X236574037Y-125553339D02*
X236466894Y-125589053D01*
X235716894Y-126231910D02*
X235752608Y-126267625D01*
X235752608Y-126267625D02*
X235859751Y-126303339D01*
X235859751Y-126303339D02*
X235931179Y-126303339D01*
X235931179Y-126303339D02*
X236038322Y-126267625D01*
X236038322Y-126267625D02*
X236109751Y-126196196D01*
X236109751Y-126196196D02*
X236145465Y-126124767D01*
X236145465Y-126124767D02*
X236181179Y-125981910D01*
X236181179Y-125981910D02*
X236181179Y-125874767D01*
X236181179Y-125874767D02*
X236145465Y-125731910D01*
X236145465Y-125731910D02*
X236109751Y-125660482D01*
X236109751Y-125660482D02*
X236038322Y-125589053D01*
X236038322Y-125589053D02*
X235931179Y-125553339D01*
X235931179Y-125553339D02*
X235859751Y-125553339D01*
X235859751Y-125553339D02*
X235752608Y-125589053D01*
X235752608Y-125589053D02*
X235716894Y-125624767D01*
X235395465Y-126303339D02*
X235395465Y-125553339D01*
X234966894Y-126303339D02*
X235288322Y-125874767D01*
X234966894Y-125553339D02*
X235395465Y-125981910D01*
D10*
X228084173Y-125985057D02*
X228084173Y-126937438D01*
X228750839Y-124937438D02*
X228084173Y-125985057D01*
X228084173Y-125985057D02*
X227417506Y-124937438D01*
D11*
X236431180Y-127431910D02*
X236466894Y-127467625D01*
X236466894Y-127467625D02*
X236574037Y-127503339D01*
X236574037Y-127503339D02*
X236645465Y-127503339D01*
X236645465Y-127503339D02*
X236752608Y-127467625D01*
X236752608Y-127467625D02*
X236824037Y-127396196D01*
X236824037Y-127396196D02*
X236859751Y-127324767D01*
X236859751Y-127324767D02*
X236895465Y-127181910D01*
X236895465Y-127181910D02*
X236895465Y-127074767D01*
X236895465Y-127074767D02*
X236859751Y-126931910D01*
X236859751Y-126931910D02*
X236824037Y-126860482D01*
X236824037Y-126860482D02*
X236752608Y-126789053D01*
X236752608Y-126789053D02*
X236645465Y-126753339D01*
X236645465Y-126753339D02*
X236574037Y-126753339D01*
X236574037Y-126753339D02*
X236466894Y-126789053D01*
X236466894Y-126789053D02*
X236431180Y-126824767D01*
X236145465Y-127467625D02*
X236038323Y-127503339D01*
X236038323Y-127503339D02*
X235859751Y-127503339D01*
X235859751Y-127503339D02*
X235788323Y-127467625D01*
X235788323Y-127467625D02*
X235752608Y-127431910D01*
X235752608Y-127431910D02*
X235716894Y-127360482D01*
X235716894Y-127360482D02*
X235716894Y-127289053D01*
X235716894Y-127289053D02*
X235752608Y-127217625D01*
X235752608Y-127217625D02*
X235788323Y-127181910D01*
X235788323Y-127181910D02*
X235859751Y-127146196D01*
X235859751Y-127146196D02*
X236002608Y-127110482D01*
X236002608Y-127110482D02*
X236074037Y-127074767D01*
X236074037Y-127074767D02*
X236109751Y-127039053D01*
X236109751Y-127039053D02*
X236145465Y-126967625D01*
X236145465Y-126967625D02*
X236145465Y-126896196D01*
X236145465Y-126896196D02*
X236109751Y-126824767D01*
X236109751Y-126824767D02*
X236074037Y-126789053D01*
X236074037Y-126789053D02*
X236002608Y-126753339D01*
X236002608Y-126753339D02*
X235824037Y-126753339D01*
X235824037Y-126753339D02*
X235716894Y-126789053D01*
X237031180Y-130553339D02*
X236566894Y-130553339D01*
X236566894Y-130553339D02*
X236816894Y-130839053D01*
X236816894Y-130839053D02*
X236709751Y-130839053D01*
X236709751Y-130839053D02*
X236638323Y-130874767D01*
X236638323Y-130874767D02*
X236602608Y-130910482D01*
X236602608Y-130910482D02*
X236566894Y-130981910D01*
X236566894Y-130981910D02*
X236566894Y-131160482D01*
X236566894Y-131160482D02*
X236602608Y-131231910D01*
X236602608Y-131231910D02*
X236638323Y-131267625D01*
X236638323Y-131267625D02*
X236709751Y-131303339D01*
X236709751Y-131303339D02*
X236924037Y-131303339D01*
X236924037Y-131303339D02*
X236995465Y-131267625D01*
X236995465Y-131267625D02*
X237031180Y-131231910D01*
X236352608Y-130553339D02*
X236102608Y-131303339D01*
X236102608Y-131303339D02*
X235852608Y-130553339D01*
X235674037Y-130553339D02*
X235209751Y-130553339D01*
X235209751Y-130553339D02*
X235459751Y-130839053D01*
X235459751Y-130839053D02*
X235352608Y-130839053D01*
X235352608Y-130839053D02*
X235281180Y-130874767D01*
X235281180Y-130874767D02*
X235245465Y-130910482D01*
X235245465Y-130910482D02*
X235209751Y-130981910D01*
X235209751Y-130981910D02*
X235209751Y-131160482D01*
X235209751Y-131160482D02*
X235245465Y-131231910D01*
X235245465Y-131231910D02*
X235281180Y-131267625D01*
X235281180Y-131267625D02*
X235352608Y-131303339D01*
X235352608Y-131303339D02*
X235566894Y-131303339D01*
X235566894Y-131303339D02*
X235638322Y-131267625D01*
X235638322Y-131267625D02*
X235674037Y-131231910D01*
D10*
X230725601Y-121162438D02*
X229677982Y-119829104D01*
X230725601Y-119829104D02*
X229677982Y-121162438D01*
X232529887Y-127946009D02*
X232387030Y-127993628D01*
X232387030Y-127993628D02*
X232339411Y-128041247D01*
X232339411Y-128041247D02*
X232291792Y-128136485D01*
X232291792Y-128136485D02*
X232291792Y-128279342D01*
X232291792Y-128279342D02*
X232339411Y-128374580D01*
X232339411Y-128374580D02*
X232387030Y-128422200D01*
X232387030Y-128422200D02*
X232482268Y-128469819D01*
X232482268Y-128469819D02*
X232863220Y-128469819D01*
X232863220Y-128469819D02*
X232863220Y-127469819D01*
X232863220Y-127469819D02*
X232529887Y-127469819D01*
X232529887Y-127469819D02*
X232434649Y-127517438D01*
X232434649Y-127517438D02*
X232387030Y-127565057D01*
X232387030Y-127565057D02*
X232339411Y-127660295D01*
X232339411Y-127660295D02*
X232339411Y-127755533D01*
X232339411Y-127755533D02*
X232387030Y-127850771D01*
X232387030Y-127850771D02*
X232434649Y-127898390D01*
X232434649Y-127898390D02*
X232529887Y-127946009D01*
X232529887Y-127946009D02*
X232863220Y-127946009D01*
X231672744Y-127469819D02*
X231482268Y-127469819D01*
X231482268Y-127469819D02*
X231387030Y-127517438D01*
X231387030Y-127517438D02*
X231291792Y-127612676D01*
X231291792Y-127612676D02*
X231244173Y-127803152D01*
X231244173Y-127803152D02*
X231244173Y-128136485D01*
X231244173Y-128136485D02*
X231291792Y-128326961D01*
X231291792Y-128326961D02*
X231387030Y-128422200D01*
X231387030Y-128422200D02*
X231482268Y-128469819D01*
X231482268Y-128469819D02*
X231672744Y-128469819D01*
X231672744Y-128469819D02*
X231767982Y-128422200D01*
X231767982Y-128422200D02*
X231863220Y-128326961D01*
X231863220Y-128326961D02*
X231910839Y-128136485D01*
X231910839Y-128136485D02*
X231910839Y-127803152D01*
X231910839Y-127803152D02*
X231863220Y-127612676D01*
X231863220Y-127612676D02*
X231767982Y-127517438D01*
X231767982Y-127517438D02*
X231672744Y-127469819D01*
X230958458Y-127469819D02*
X230387030Y-127469819D01*
X230672744Y-128469819D02*
X230672744Y-127469819D01*
X230196553Y-127469819D02*
X229625125Y-127469819D01*
X229910839Y-128469819D02*
X229910839Y-127469819D01*
X229101315Y-127469819D02*
X228910839Y-127469819D01*
X228910839Y-127469819D02*
X228815601Y-127517438D01*
X228815601Y-127517438D02*
X228720363Y-127612676D01*
X228720363Y-127612676D02*
X228672744Y-127803152D01*
X228672744Y-127803152D02*
X228672744Y-128136485D01*
X228672744Y-128136485D02*
X228720363Y-128326961D01*
X228720363Y-128326961D02*
X228815601Y-128422200D01*
X228815601Y-128422200D02*
X228910839Y-128469819D01*
X228910839Y-128469819D02*
X229101315Y-128469819D01*
X229101315Y-128469819D02*
X229196553Y-128422200D01*
X229196553Y-128422200D02*
X229291791Y-128326961D01*
X229291791Y-128326961D02*
X229339410Y-128136485D01*
X229339410Y-128136485D02*
X229339410Y-127803152D01*
X229339410Y-127803152D02*
X229291791Y-127612676D01*
X229291791Y-127612676D02*
X229196553Y-127517438D01*
X229196553Y-127517438D02*
X229101315Y-127469819D01*
X228244172Y-128469819D02*
X228244172Y-127469819D01*
X228244172Y-127469819D02*
X227910839Y-128184104D01*
X227910839Y-128184104D02*
X227577506Y-127469819D01*
X227577506Y-127469819D02*
X227577506Y-128469819D01*
D11*
X236859751Y-128803339D02*
X236859751Y-128053339D01*
X236502608Y-128803339D02*
X236502608Y-128053339D01*
X236502608Y-128053339D02*
X236074037Y-128803339D01*
X236074037Y-128803339D02*
X236074037Y-128053339D01*
X235824037Y-128053339D02*
X235395466Y-128053339D01*
X235609751Y-128803339D02*
X235609751Y-128053339D01*
X235181179Y-128124767D02*
X235145465Y-128089053D01*
X235145465Y-128089053D02*
X235074037Y-128053339D01*
X235074037Y-128053339D02*
X234895465Y-128053339D01*
X234895465Y-128053339D02*
X234824037Y-128089053D01*
X234824037Y-128089053D02*
X234788322Y-128124767D01*
X234788322Y-128124767D02*
X234752608Y-128196196D01*
X234752608Y-128196196D02*
X234752608Y-128267625D01*
X234752608Y-128267625D02*
X234788322Y-128374767D01*
X234788322Y-128374767D02*
X235216894Y-128803339D01*
X235216894Y-128803339D02*
X234752608Y-128803339D01*
D10*
X231957030Y-124548628D02*
X230957030Y-124548628D01*
X230957030Y-124548628D02*
X231957030Y-126048628D01*
X231957030Y-126048628D02*
X230957030Y-126048628D01*
X233469887Y-131386121D02*
X233327030Y-131433740D01*
X233327030Y-131433740D02*
X233279411Y-131481359D01*
X233279411Y-131481359D02*
X233231792Y-131576597D01*
X233231792Y-131576597D02*
X233231792Y-131719454D01*
X233231792Y-131719454D02*
X233279411Y-131814692D01*
X233279411Y-131814692D02*
X233327030Y-131862312D01*
X233327030Y-131862312D02*
X233422268Y-131909931D01*
X233422268Y-131909931D02*
X233803220Y-131909931D01*
X233803220Y-131909931D02*
X233803220Y-130909931D01*
X233803220Y-130909931D02*
X233469887Y-130909931D01*
X233469887Y-130909931D02*
X233374649Y-130957550D01*
X233374649Y-130957550D02*
X233327030Y-131005169D01*
X233327030Y-131005169D02*
X233279411Y-131100407D01*
X233279411Y-131100407D02*
X233279411Y-131195645D01*
X233279411Y-131195645D02*
X233327030Y-131290883D01*
X233327030Y-131290883D02*
X233374649Y-131338502D01*
X233374649Y-131338502D02*
X233469887Y-131386121D01*
X233469887Y-131386121D02*
X233803220Y-131386121D01*
X232660363Y-131909931D02*
X232755601Y-131862312D01*
X232755601Y-131862312D02*
X232803220Y-131814692D01*
X232803220Y-131814692D02*
X232850839Y-131719454D01*
X232850839Y-131719454D02*
X232850839Y-131433740D01*
X232850839Y-131433740D02*
X232803220Y-131338502D01*
X232803220Y-131338502D02*
X232755601Y-131290883D01*
X232755601Y-131290883D02*
X232660363Y-131243264D01*
X232660363Y-131243264D02*
X232517506Y-131243264D01*
X232517506Y-131243264D02*
X232422268Y-131290883D01*
X232422268Y-131290883D02*
X232374649Y-131338502D01*
X232374649Y-131338502D02*
X232327030Y-131433740D01*
X232327030Y-131433740D02*
X232327030Y-131719454D01*
X232327030Y-131719454D02*
X232374649Y-131814692D01*
X232374649Y-131814692D02*
X232422268Y-131862312D01*
X232422268Y-131862312D02*
X232517506Y-131909931D01*
X232517506Y-131909931D02*
X232660363Y-131909931D01*
X231469887Y-131909931D02*
X231469887Y-131386121D01*
X231469887Y-131386121D02*
X231517506Y-131290883D01*
X231517506Y-131290883D02*
X231612744Y-131243264D01*
X231612744Y-131243264D02*
X231803220Y-131243264D01*
X231803220Y-131243264D02*
X231898458Y-131290883D01*
X231469887Y-131862312D02*
X231565125Y-131909931D01*
X231565125Y-131909931D02*
X231803220Y-131909931D01*
X231803220Y-131909931D02*
X231898458Y-131862312D01*
X231898458Y-131862312D02*
X231946077Y-131767073D01*
X231946077Y-131767073D02*
X231946077Y-131671835D01*
X231946077Y-131671835D02*
X231898458Y-131576597D01*
X231898458Y-131576597D02*
X231803220Y-131528978D01*
X231803220Y-131528978D02*
X231565125Y-131528978D01*
X231565125Y-131528978D02*
X231469887Y-131481359D01*
X230993696Y-131909931D02*
X230993696Y-131243264D01*
X230993696Y-131433740D02*
X230946077Y-131338502D01*
X230946077Y-131338502D02*
X230898458Y-131290883D01*
X230898458Y-131290883D02*
X230803220Y-131243264D01*
X230803220Y-131243264D02*
X230707982Y-131243264D01*
X229946077Y-131909931D02*
X229946077Y-130909931D01*
X229946077Y-131862312D02*
X230041315Y-131909931D01*
X230041315Y-131909931D02*
X230231791Y-131909931D01*
X230231791Y-131909931D02*
X230327029Y-131862312D01*
X230327029Y-131862312D02*
X230374648Y-131814692D01*
X230374648Y-131814692D02*
X230422267Y-131719454D01*
X230422267Y-131719454D02*
X230422267Y-131433740D01*
X230422267Y-131433740D02*
X230374648Y-131338502D01*
X230374648Y-131338502D02*
X230327029Y-131290883D01*
X230327029Y-131290883D02*
X230231791Y-131243264D01*
X230231791Y-131243264D02*
X230041315Y-131243264D01*
X230041315Y-131243264D02*
X229946077Y-131290883D01*
X228755600Y-131862312D02*
X228612743Y-131909931D01*
X228612743Y-131909931D02*
X228374648Y-131909931D01*
X228374648Y-131909931D02*
X228279410Y-131862312D01*
X228279410Y-131862312D02*
X228231791Y-131814692D01*
X228231791Y-131814692D02*
X228184172Y-131719454D01*
X228184172Y-131719454D02*
X228184172Y-131624216D01*
X228184172Y-131624216D02*
X228231791Y-131528978D01*
X228231791Y-131528978D02*
X228279410Y-131481359D01*
X228279410Y-131481359D02*
X228374648Y-131433740D01*
X228374648Y-131433740D02*
X228565124Y-131386121D01*
X228565124Y-131386121D02*
X228660362Y-131338502D01*
X228660362Y-131338502D02*
X228707981Y-131290883D01*
X228707981Y-131290883D02*
X228755600Y-131195645D01*
X228755600Y-131195645D02*
X228755600Y-131100407D01*
X228755600Y-131100407D02*
X228707981Y-131005169D01*
X228707981Y-131005169D02*
X228660362Y-130957550D01*
X228660362Y-130957550D02*
X228565124Y-130909931D01*
X228565124Y-130909931D02*
X228327029Y-130909931D01*
X228327029Y-130909931D02*
X228184172Y-130957550D01*
X227755600Y-131909931D02*
X227755600Y-131243264D01*
X227755600Y-130909931D02*
X227803219Y-130957550D01*
X227803219Y-130957550D02*
X227755600Y-131005169D01*
X227755600Y-131005169D02*
X227707981Y-130957550D01*
X227707981Y-130957550D02*
X227755600Y-130909931D01*
X227755600Y-130909931D02*
X227755600Y-131005169D01*
X227374648Y-131243264D02*
X226850839Y-131243264D01*
X226850839Y-131243264D02*
X227374648Y-131909931D01*
X227374648Y-131909931D02*
X226850839Y-131909931D01*
X226088934Y-131862312D02*
X226184172Y-131909931D01*
X226184172Y-131909931D02*
X226374648Y-131909931D01*
X226374648Y-131909931D02*
X226469886Y-131862312D01*
X226469886Y-131862312D02*
X226517505Y-131767073D01*
X226517505Y-131767073D02*
X226517505Y-131386121D01*
X226517505Y-131386121D02*
X226469886Y-131290883D01*
X226469886Y-131290883D02*
X226374648Y-131243264D01*
X226374648Y-131243264D02*
X226184172Y-131243264D01*
X226184172Y-131243264D02*
X226088934Y-131290883D01*
X226088934Y-131290883D02*
X226041315Y-131386121D01*
X226041315Y-131386121D02*
X226041315Y-131481359D01*
X226041315Y-131481359D02*
X226517505Y-131576597D01*
X225612743Y-131814692D02*
X225565124Y-131862312D01*
X225565124Y-131862312D02*
X225612743Y-131909931D01*
X225612743Y-131909931D02*
X225660362Y-131862312D01*
X225660362Y-131862312D02*
X225612743Y-131814692D01*
X225612743Y-131814692D02*
X225612743Y-131909931D01*
X225612743Y-131290883D02*
X225565124Y-131338502D01*
X225565124Y-131338502D02*
X225612743Y-131386121D01*
X225612743Y-131386121D02*
X225660362Y-131338502D01*
X225660362Y-131338502D02*
X225612743Y-131290883D01*
X225612743Y-131290883D02*
X225612743Y-131386121D01*
X233850839Y-132615113D02*
X233803220Y-132567494D01*
X233803220Y-132567494D02*
X233707982Y-132519875D01*
X233707982Y-132519875D02*
X233469887Y-132519875D01*
X233469887Y-132519875D02*
X233374649Y-132567494D01*
X233374649Y-132567494D02*
X233327030Y-132615113D01*
X233327030Y-132615113D02*
X233279411Y-132710351D01*
X233279411Y-132710351D02*
X233279411Y-132805589D01*
X233279411Y-132805589D02*
X233327030Y-132948446D01*
X233327030Y-132948446D02*
X233898458Y-133519875D01*
X233898458Y-133519875D02*
X233279411Y-133519875D01*
X232422268Y-132519875D02*
X232612744Y-132519875D01*
X232612744Y-132519875D02*
X232707982Y-132567494D01*
X232707982Y-132567494D02*
X232755601Y-132615113D01*
X232755601Y-132615113D02*
X232850839Y-132757970D01*
X232850839Y-132757970D02*
X232898458Y-132948446D01*
X232898458Y-132948446D02*
X232898458Y-133329398D01*
X232898458Y-133329398D02*
X232850839Y-133424636D01*
X232850839Y-133424636D02*
X232803220Y-133472256D01*
X232803220Y-133472256D02*
X232707982Y-133519875D01*
X232707982Y-133519875D02*
X232517506Y-133519875D01*
X232517506Y-133519875D02*
X232422268Y-133472256D01*
X232422268Y-133472256D02*
X232374649Y-133424636D01*
X232374649Y-133424636D02*
X232327030Y-133329398D01*
X232327030Y-133329398D02*
X232327030Y-133091303D01*
X232327030Y-133091303D02*
X232374649Y-132996065D01*
X232374649Y-132996065D02*
X232422268Y-132948446D01*
X232422268Y-132948446D02*
X232517506Y-132900827D01*
X232517506Y-132900827D02*
X232707982Y-132900827D01*
X232707982Y-132900827D02*
X232803220Y-132948446D01*
X232803220Y-132948446D02*
X232850839Y-132996065D01*
X232850839Y-132996065D02*
X232898458Y-133091303D01*
X231898458Y-133424636D02*
X231850839Y-133472256D01*
X231850839Y-133472256D02*
X231898458Y-133519875D01*
X231898458Y-133519875D02*
X231946077Y-133472256D01*
X231946077Y-133472256D02*
X231898458Y-133424636D01*
X231898458Y-133424636D02*
X231898458Y-133519875D01*
X230946078Y-132519875D02*
X231422268Y-132519875D01*
X231422268Y-132519875D02*
X231469887Y-132996065D01*
X231469887Y-132996065D02*
X231422268Y-132948446D01*
X231422268Y-132948446D02*
X231327030Y-132900827D01*
X231327030Y-132900827D02*
X231088935Y-132900827D01*
X231088935Y-132900827D02*
X230993697Y-132948446D01*
X230993697Y-132948446D02*
X230946078Y-132996065D01*
X230946078Y-132996065D02*
X230898459Y-133091303D01*
X230898459Y-133091303D02*
X230898459Y-133329398D01*
X230898459Y-133329398D02*
X230946078Y-133424636D01*
X230946078Y-133424636D02*
X230993697Y-133472256D01*
X230993697Y-133472256D02*
X231088935Y-133519875D01*
X231088935Y-133519875D02*
X231327030Y-133519875D01*
X231327030Y-133519875D02*
X231422268Y-133472256D01*
X231422268Y-133472256D02*
X231469887Y-133424636D01*
X229707982Y-133519875D02*
X229707982Y-132853208D01*
X229707982Y-132948446D02*
X229660363Y-132900827D01*
X229660363Y-132900827D02*
X229565125Y-132853208D01*
X229565125Y-132853208D02*
X229422268Y-132853208D01*
X229422268Y-132853208D02*
X229327030Y-132900827D01*
X229327030Y-132900827D02*
X229279411Y-132996065D01*
X229279411Y-132996065D02*
X229279411Y-133519875D01*
X229279411Y-132996065D02*
X229231792Y-132900827D01*
X229231792Y-132900827D02*
X229136554Y-132853208D01*
X229136554Y-132853208D02*
X228993697Y-132853208D01*
X228993697Y-132853208D02*
X228898458Y-132900827D01*
X228898458Y-132900827D02*
X228850839Y-132996065D01*
X228850839Y-132996065D02*
X228850839Y-133519875D01*
X228374649Y-133519875D02*
X228374649Y-132853208D01*
X228374649Y-132948446D02*
X228327030Y-132900827D01*
X228327030Y-132900827D02*
X228231792Y-132853208D01*
X228231792Y-132853208D02*
X228088935Y-132853208D01*
X228088935Y-132853208D02*
X227993697Y-132900827D01*
X227993697Y-132900827D02*
X227946078Y-132996065D01*
X227946078Y-132996065D02*
X227946078Y-133519875D01*
X227946078Y-132996065D02*
X227898459Y-132900827D01*
X227898459Y-132900827D02*
X227803221Y-132853208D01*
X227803221Y-132853208D02*
X227660364Y-132853208D01*
X227660364Y-132853208D02*
X227565125Y-132900827D01*
X227565125Y-132900827D02*
X227517506Y-132996065D01*
X227517506Y-132996065D02*
X227517506Y-133519875D01*
X226374649Y-133519875D02*
X225850840Y-132853208D01*
X226374649Y-132853208D02*
X225850840Y-133519875D01*
X233850839Y-134225057D02*
X233803220Y-134177438D01*
X233803220Y-134177438D02*
X233707982Y-134129819D01*
X233707982Y-134129819D02*
X233469887Y-134129819D01*
X233469887Y-134129819D02*
X233374649Y-134177438D01*
X233374649Y-134177438D02*
X233327030Y-134225057D01*
X233327030Y-134225057D02*
X233279411Y-134320295D01*
X233279411Y-134320295D02*
X233279411Y-134415533D01*
X233279411Y-134415533D02*
X233327030Y-134558390D01*
X233327030Y-134558390D02*
X233898458Y-135129819D01*
X233898458Y-135129819D02*
X233279411Y-135129819D01*
X232946077Y-134129819D02*
X232327030Y-134129819D01*
X232327030Y-134129819D02*
X232660363Y-134510771D01*
X232660363Y-134510771D02*
X232517506Y-134510771D01*
X232517506Y-134510771D02*
X232422268Y-134558390D01*
X232422268Y-134558390D02*
X232374649Y-134606009D01*
X232374649Y-134606009D02*
X232327030Y-134701247D01*
X232327030Y-134701247D02*
X232327030Y-134939342D01*
X232327030Y-134939342D02*
X232374649Y-135034580D01*
X232374649Y-135034580D02*
X232422268Y-135082200D01*
X232422268Y-135082200D02*
X232517506Y-135129819D01*
X232517506Y-135129819D02*
X232803220Y-135129819D01*
X232803220Y-135129819D02*
X232898458Y-135082200D01*
X232898458Y-135082200D02*
X232946077Y-135034580D01*
X231898458Y-135034580D02*
X231850839Y-135082200D01*
X231850839Y-135082200D02*
X231898458Y-135129819D01*
X231898458Y-135129819D02*
X231946077Y-135082200D01*
X231946077Y-135082200D02*
X231898458Y-135034580D01*
X231898458Y-135034580D02*
X231898458Y-135129819D01*
X231279411Y-134558390D02*
X231374649Y-134510771D01*
X231374649Y-134510771D02*
X231422268Y-134463152D01*
X231422268Y-134463152D02*
X231469887Y-134367914D01*
X231469887Y-134367914D02*
X231469887Y-134320295D01*
X231469887Y-134320295D02*
X231422268Y-134225057D01*
X231422268Y-134225057D02*
X231374649Y-134177438D01*
X231374649Y-134177438D02*
X231279411Y-134129819D01*
X231279411Y-134129819D02*
X231088935Y-134129819D01*
X231088935Y-134129819D02*
X230993697Y-134177438D01*
X230993697Y-134177438D02*
X230946078Y-134225057D01*
X230946078Y-134225057D02*
X230898459Y-134320295D01*
X230898459Y-134320295D02*
X230898459Y-134367914D01*
X230898459Y-134367914D02*
X230946078Y-134463152D01*
X230946078Y-134463152D02*
X230993697Y-134510771D01*
X230993697Y-134510771D02*
X231088935Y-134558390D01*
X231088935Y-134558390D02*
X231279411Y-134558390D01*
X231279411Y-134558390D02*
X231374649Y-134606009D01*
X231374649Y-134606009D02*
X231422268Y-134653628D01*
X231422268Y-134653628D02*
X231469887Y-134748866D01*
X231469887Y-134748866D02*
X231469887Y-134939342D01*
X231469887Y-134939342D02*
X231422268Y-135034580D01*
X231422268Y-135034580D02*
X231374649Y-135082200D01*
X231374649Y-135082200D02*
X231279411Y-135129819D01*
X231279411Y-135129819D02*
X231088935Y-135129819D01*
X231088935Y-135129819D02*
X230993697Y-135082200D01*
X230993697Y-135082200D02*
X230946078Y-135034580D01*
X230946078Y-135034580D02*
X230898459Y-134939342D01*
X230898459Y-134939342D02*
X230898459Y-134748866D01*
X230898459Y-134748866D02*
X230946078Y-134653628D01*
X230946078Y-134653628D02*
X230993697Y-134606009D01*
X230993697Y-134606009D02*
X231088935Y-134558390D01*
X230565125Y-134129819D02*
X229898459Y-134129819D01*
X229898459Y-134129819D02*
X230327030Y-135129819D01*
X229041316Y-134129819D02*
X229517506Y-134129819D01*
X229517506Y-134129819D02*
X229565125Y-134606009D01*
X229565125Y-134606009D02*
X229517506Y-134558390D01*
X229517506Y-134558390D02*
X229422268Y-134510771D01*
X229422268Y-134510771D02*
X229184173Y-134510771D01*
X229184173Y-134510771D02*
X229088935Y-134558390D01*
X229088935Y-134558390D02*
X229041316Y-134606009D01*
X229041316Y-134606009D02*
X228993697Y-134701247D01*
X228993697Y-134701247D02*
X228993697Y-134939342D01*
X228993697Y-134939342D02*
X229041316Y-135034580D01*
X229041316Y-135034580D02*
X229088935Y-135082200D01*
X229088935Y-135082200D02*
X229184173Y-135129819D01*
X229184173Y-135129819D02*
X229422268Y-135129819D01*
X229422268Y-135129819D02*
X229517506Y-135082200D01*
X229517506Y-135082200D02*
X229565125Y-135034580D01*
X227803220Y-135129819D02*
X227803220Y-134463152D01*
X227803220Y-134558390D02*
X227755601Y-134510771D01*
X227755601Y-134510771D02*
X227660363Y-134463152D01*
X227660363Y-134463152D02*
X227517506Y-134463152D01*
X227517506Y-134463152D02*
X227422268Y-134510771D01*
X227422268Y-134510771D02*
X227374649Y-134606009D01*
X227374649Y-134606009D02*
X227374649Y-135129819D01*
X227374649Y-134606009D02*
X227327030Y-134510771D01*
X227327030Y-134510771D02*
X227231792Y-134463152D01*
X227231792Y-134463152D02*
X227088935Y-134463152D01*
X227088935Y-134463152D02*
X226993696Y-134510771D01*
X226993696Y-134510771D02*
X226946077Y-134606009D01*
X226946077Y-134606009D02*
X226946077Y-135129819D01*
X226469887Y-135129819D02*
X226469887Y-134463152D01*
X226469887Y-134558390D02*
X226422268Y-134510771D01*
X226422268Y-134510771D02*
X226327030Y-134463152D01*
X226327030Y-134463152D02*
X226184173Y-134463152D01*
X226184173Y-134463152D02*
X226088935Y-134510771D01*
X226088935Y-134510771D02*
X226041316Y-134606009D01*
X226041316Y-134606009D02*
X226041316Y-135129819D01*
X226041316Y-134606009D02*
X225993697Y-134510771D01*
X225993697Y-134510771D02*
X225898459Y-134463152D01*
X225898459Y-134463152D02*
X225755602Y-134463152D01*
X225755602Y-134463152D02*
X225660363Y-134510771D01*
X225660363Y-134510771D02*
X225612744Y-134606009D01*
X225612744Y-134606009D02*
X225612744Y-135129819D01*
X240733333Y-133254819D02*
X240733333Y-133969104D01*
X240733333Y-133969104D02*
X240780952Y-134111961D01*
X240780952Y-134111961D02*
X240876190Y-134207200D01*
X240876190Y-134207200D02*
X241019047Y-134254819D01*
X241019047Y-134254819D02*
X241114285Y-134254819D01*
X240352380Y-133254819D02*
X239733333Y-133254819D01*
X239733333Y-133254819D02*
X240066666Y-133635771D01*
X240066666Y-133635771D02*
X239923809Y-133635771D01*
X239923809Y-133635771D02*
X239828571Y-133683390D01*
X239828571Y-133683390D02*
X239780952Y-133731009D01*
X239780952Y-133731009D02*
X239733333Y-133826247D01*
X239733333Y-133826247D02*
X239733333Y-134064342D01*
X239733333Y-134064342D02*
X239780952Y-134159580D01*
X239780952Y-134159580D02*
X239828571Y-134207200D01*
X239828571Y-134207200D02*
X239923809Y-134254819D01*
X239923809Y-134254819D02*
X240209523Y-134254819D01*
X240209523Y-134254819D02*
X240304761Y-134207200D01*
X240304761Y-134207200D02*
X240352380Y-134159580D01*
D12*
%TO.C,J3*%
X237250000Y-121875000D02*
X237250000Y-121375000D01*
X237540000Y-120515000D02*
X243260000Y-120515000D01*
X237540000Y-121585000D02*
X237540000Y-120515000D01*
X237540000Y-131415000D02*
X237540000Y-132485000D01*
X237540000Y-132485000D02*
X243260000Y-132485000D01*
X237550000Y-121875000D02*
X237250000Y-121875000D01*
X237840000Y-121585000D02*
X237540000Y-121585000D01*
X237840000Y-126500000D02*
X237840000Y-121585000D01*
X237840000Y-126500000D02*
X237840000Y-131415000D01*
X237840000Y-131415000D02*
X237540000Y-131415000D01*
X243260000Y-120515000D02*
X243260000Y-126500000D01*
X243260000Y-132485000D02*
X243260000Y-126500000D01*
%TD*%
M02*
