%TF.GenerationSoftware,KiCad,Pcbnew,7.0.6*%
%TF.CreationDate,2024-03-10T14:23:31-07:00*%
%TF.ProjectId,IMU_Breakout,494d555f-4272-4656-916b-6f75742e6b69,rev?*%
%TF.SameCoordinates,Original*%
%TF.FileFunction,Legend,Top*%
%TF.FilePolarity,Positive*%
%FSLAX46Y46*%
G04 Gerber Fmt 4.6, Leading zero omitted, Abs format (unit mm)*
G04 Created by KiCad (PCBNEW 7.0.6) date 2024-03-10 14:23:31*
%MOMM*%
%LPD*%
G01*
G04 APERTURE LIST*
%ADD10C,0.150000*%
%ADD11C,0.120000*%
%ADD12C,0.152400*%
G04 APERTURE END LIST*
D10*
X231142969Y-116778628D02*
X232142969Y-116778628D01*
X232142969Y-116778628D02*
X231142969Y-118278628D01*
X231142969Y-118278628D02*
X232142969Y-118278628D01*
X230821542Y-117450000D02*
G75*
G03*
X230821542Y-117450000I-446542J0D01*
G01*
X229750000Y-115375000D02*
X230950000Y-115375000D01*
X228275000Y-118050000D02*
X228275000Y-116850000D01*
X230375000Y-117450000D02*
X227575000Y-117450000D01*
X230350000Y-114675000D02*
X230950000Y-115375000D01*
X227575000Y-117450000D02*
X228275000Y-118050000D01*
X230350000Y-114675000D02*
X229750000Y-115375000D01*
X230350000Y-117475000D02*
X230350000Y-114675000D01*
X227575000Y-117450000D02*
X228275000Y-116850000D01*
X221114160Y-120997200D02*
X221257017Y-121044819D01*
X221257017Y-121044819D02*
X221495112Y-121044819D01*
X221495112Y-121044819D02*
X221590350Y-120997200D01*
X221590350Y-120997200D02*
X221637969Y-120949580D01*
X221637969Y-120949580D02*
X221685588Y-120854342D01*
X221685588Y-120854342D02*
X221685588Y-120759104D01*
X221685588Y-120759104D02*
X221637969Y-120663866D01*
X221637969Y-120663866D02*
X221590350Y-120616247D01*
X221590350Y-120616247D02*
X221495112Y-120568628D01*
X221495112Y-120568628D02*
X221304636Y-120521009D01*
X221304636Y-120521009D02*
X221209398Y-120473390D01*
X221209398Y-120473390D02*
X221161779Y-120425771D01*
X221161779Y-120425771D02*
X221114160Y-120330533D01*
X221114160Y-120330533D02*
X221114160Y-120235295D01*
X221114160Y-120235295D02*
X221161779Y-120140057D01*
X221161779Y-120140057D02*
X221209398Y-120092438D01*
X221209398Y-120092438D02*
X221304636Y-120044819D01*
X221304636Y-120044819D02*
X221542731Y-120044819D01*
X221542731Y-120044819D02*
X221685588Y-120092438D01*
X222114160Y-121044819D02*
X222114160Y-120044819D01*
X222114160Y-120044819D02*
X222352255Y-120044819D01*
X222352255Y-120044819D02*
X222495112Y-120092438D01*
X222495112Y-120092438D02*
X222590350Y-120187676D01*
X222590350Y-120187676D02*
X222637969Y-120282914D01*
X222637969Y-120282914D02*
X222685588Y-120473390D01*
X222685588Y-120473390D02*
X222685588Y-120616247D01*
X222685588Y-120616247D02*
X222637969Y-120806723D01*
X222637969Y-120806723D02*
X222590350Y-120901961D01*
X222590350Y-120901961D02*
X222495112Y-120997200D01*
X222495112Y-120997200D02*
X222352255Y-121044819D01*
X222352255Y-121044819D02*
X222114160Y-121044819D01*
X223114160Y-121044819D02*
X223114160Y-120044819D01*
X237089160Y-126147200D02*
X237232017Y-126194819D01*
X237232017Y-126194819D02*
X237470112Y-126194819D01*
X237470112Y-126194819D02*
X237565350Y-126147200D01*
X237565350Y-126147200D02*
X237612969Y-126099580D01*
X237612969Y-126099580D02*
X237660588Y-126004342D01*
X237660588Y-126004342D02*
X237660588Y-125909104D01*
X237660588Y-125909104D02*
X237612969Y-125813866D01*
X237612969Y-125813866D02*
X237565350Y-125766247D01*
X237565350Y-125766247D02*
X237470112Y-125718628D01*
X237470112Y-125718628D02*
X237279636Y-125671009D01*
X237279636Y-125671009D02*
X237184398Y-125623390D01*
X237184398Y-125623390D02*
X237136779Y-125575771D01*
X237136779Y-125575771D02*
X237089160Y-125480533D01*
X237089160Y-125480533D02*
X237089160Y-125385295D01*
X237089160Y-125385295D02*
X237136779Y-125290057D01*
X237136779Y-125290057D02*
X237184398Y-125242438D01*
X237184398Y-125242438D02*
X237279636Y-125194819D01*
X237279636Y-125194819D02*
X237517731Y-125194819D01*
X237517731Y-125194819D02*
X237660588Y-125242438D01*
X238660588Y-126099580D02*
X238612969Y-126147200D01*
X238612969Y-126147200D02*
X238470112Y-126194819D01*
X238470112Y-126194819D02*
X238374874Y-126194819D01*
X238374874Y-126194819D02*
X238232017Y-126147200D01*
X238232017Y-126147200D02*
X238136779Y-126051961D01*
X238136779Y-126051961D02*
X238089160Y-125956723D01*
X238089160Y-125956723D02*
X238041541Y-125766247D01*
X238041541Y-125766247D02*
X238041541Y-125623390D01*
X238041541Y-125623390D02*
X238089160Y-125432914D01*
X238089160Y-125432914D02*
X238136779Y-125337676D01*
X238136779Y-125337676D02*
X238232017Y-125242438D01*
X238232017Y-125242438D02*
X238374874Y-125194819D01*
X238374874Y-125194819D02*
X238470112Y-125194819D01*
X238470112Y-125194819D02*
X238612969Y-125242438D01*
X238612969Y-125242438D02*
X238660588Y-125290057D01*
X239089160Y-126194819D02*
X239089160Y-125194819D01*
X239660588Y-126194819D02*
X239232017Y-125623390D01*
X239660588Y-125194819D02*
X239089160Y-125766247D01*
X226905826Y-117470057D02*
X226905826Y-118422438D01*
X226239160Y-116422438D02*
X226905826Y-117470057D01*
X226905826Y-117470057D02*
X227572493Y-116422438D01*
X220611779Y-123719819D02*
X220611779Y-122719819D01*
X221087969Y-123719819D02*
X221087969Y-122719819D01*
X221087969Y-122719819D02*
X221659397Y-123719819D01*
X221659397Y-123719819D02*
X221659397Y-122719819D01*
X221992731Y-122719819D02*
X222564159Y-122719819D01*
X222278445Y-123719819D02*
X222278445Y-122719819D01*
X223421302Y-123719819D02*
X222849874Y-123719819D01*
X223135588Y-123719819D02*
X223135588Y-122719819D01*
X223135588Y-122719819D02*
X223040350Y-122862676D01*
X223040350Y-122862676D02*
X222945112Y-122957914D01*
X222945112Y-122957914D02*
X222849874Y-123005533D01*
X237114160Y-120997200D02*
X237257017Y-121044819D01*
X237257017Y-121044819D02*
X237495112Y-121044819D01*
X237495112Y-121044819D02*
X237590350Y-120997200D01*
X237590350Y-120997200D02*
X237637969Y-120949580D01*
X237637969Y-120949580D02*
X237685588Y-120854342D01*
X237685588Y-120854342D02*
X237685588Y-120759104D01*
X237685588Y-120759104D02*
X237637969Y-120663866D01*
X237637969Y-120663866D02*
X237590350Y-120616247D01*
X237590350Y-120616247D02*
X237495112Y-120568628D01*
X237495112Y-120568628D02*
X237304636Y-120521009D01*
X237304636Y-120521009D02*
X237209398Y-120473390D01*
X237209398Y-120473390D02*
X237161779Y-120425771D01*
X237161779Y-120425771D02*
X237114160Y-120330533D01*
X237114160Y-120330533D02*
X237114160Y-120235295D01*
X237114160Y-120235295D02*
X237161779Y-120140057D01*
X237161779Y-120140057D02*
X237209398Y-120092438D01*
X237209398Y-120092438D02*
X237304636Y-120044819D01*
X237304636Y-120044819D02*
X237542731Y-120044819D01*
X237542731Y-120044819D02*
X237685588Y-120092438D01*
X238114160Y-121044819D02*
X238114160Y-120044819D01*
X238114160Y-120044819D02*
X238352255Y-120044819D01*
X238352255Y-120044819D02*
X238495112Y-120092438D01*
X238495112Y-120092438D02*
X238590350Y-120187676D01*
X238590350Y-120187676D02*
X238637969Y-120282914D01*
X238637969Y-120282914D02*
X238685588Y-120473390D01*
X238685588Y-120473390D02*
X238685588Y-120616247D01*
X238685588Y-120616247D02*
X238637969Y-120806723D01*
X238637969Y-120806723D02*
X238590350Y-120901961D01*
X238590350Y-120901961D02*
X238495112Y-120997200D01*
X238495112Y-120997200D02*
X238352255Y-121044819D01*
X238352255Y-121044819D02*
X238114160Y-121044819D01*
X239304636Y-120044819D02*
X239495112Y-120044819D01*
X239495112Y-120044819D02*
X239590350Y-120092438D01*
X239590350Y-120092438D02*
X239685588Y-120187676D01*
X239685588Y-120187676D02*
X239733207Y-120378152D01*
X239733207Y-120378152D02*
X239733207Y-120711485D01*
X239733207Y-120711485D02*
X239685588Y-120901961D01*
X239685588Y-120901961D02*
X239590350Y-120997200D01*
X239590350Y-120997200D02*
X239495112Y-121044819D01*
X239495112Y-121044819D02*
X239304636Y-121044819D01*
X239304636Y-121044819D02*
X239209398Y-120997200D01*
X239209398Y-120997200D02*
X239114160Y-120901961D01*
X239114160Y-120901961D02*
X239066541Y-120711485D01*
X239066541Y-120711485D02*
X239066541Y-120378152D01*
X239066541Y-120378152D02*
X239114160Y-120187676D01*
X239114160Y-120187676D02*
X239209398Y-120092438D01*
X239209398Y-120092438D02*
X239304636Y-120044819D01*
X221335588Y-127792438D02*
X221240350Y-127744819D01*
X221240350Y-127744819D02*
X221097493Y-127744819D01*
X221097493Y-127744819D02*
X220954636Y-127792438D01*
X220954636Y-127792438D02*
X220859398Y-127887676D01*
X220859398Y-127887676D02*
X220811779Y-127982914D01*
X220811779Y-127982914D02*
X220764160Y-128173390D01*
X220764160Y-128173390D02*
X220764160Y-128316247D01*
X220764160Y-128316247D02*
X220811779Y-128506723D01*
X220811779Y-128506723D02*
X220859398Y-128601961D01*
X220859398Y-128601961D02*
X220954636Y-128697200D01*
X220954636Y-128697200D02*
X221097493Y-128744819D01*
X221097493Y-128744819D02*
X221192731Y-128744819D01*
X221192731Y-128744819D02*
X221335588Y-128697200D01*
X221335588Y-128697200D02*
X221383207Y-128649580D01*
X221383207Y-128649580D02*
X221383207Y-128316247D01*
X221383207Y-128316247D02*
X221192731Y-128316247D01*
X221811779Y-128744819D02*
X221811779Y-127744819D01*
X221811779Y-127744819D02*
X222383207Y-128744819D01*
X222383207Y-128744819D02*
X222383207Y-127744819D01*
X222859398Y-128744819D02*
X222859398Y-127744819D01*
X222859398Y-127744819D02*
X223097493Y-127744819D01*
X223097493Y-127744819D02*
X223240350Y-127792438D01*
X223240350Y-127792438D02*
X223335588Y-127887676D01*
X223335588Y-127887676D02*
X223383207Y-127982914D01*
X223383207Y-127982914D02*
X223430826Y-128173390D01*
X223430826Y-128173390D02*
X223430826Y-128316247D01*
X223430826Y-128316247D02*
X223383207Y-128506723D01*
X223383207Y-128506723D02*
X223335588Y-128601961D01*
X223335588Y-128601961D02*
X223240350Y-128697200D01*
X223240350Y-128697200D02*
X223097493Y-128744819D01*
X223097493Y-128744819D02*
X222859398Y-128744819D01*
X220586779Y-126144819D02*
X220586779Y-125144819D01*
X221062969Y-126144819D02*
X221062969Y-125144819D01*
X221062969Y-125144819D02*
X221634397Y-126144819D01*
X221634397Y-126144819D02*
X221634397Y-125144819D01*
X221967731Y-125144819D02*
X222539159Y-125144819D01*
X222253445Y-126144819D02*
X222253445Y-125144819D01*
X222824874Y-125240057D02*
X222872493Y-125192438D01*
X222872493Y-125192438D02*
X222967731Y-125144819D01*
X222967731Y-125144819D02*
X223205826Y-125144819D01*
X223205826Y-125144819D02*
X223301064Y-125192438D01*
X223301064Y-125192438D02*
X223348683Y-125240057D01*
X223348683Y-125240057D02*
X223396302Y-125335295D01*
X223396302Y-125335295D02*
X223396302Y-125430533D01*
X223396302Y-125430533D02*
X223348683Y-125573390D01*
X223348683Y-125573390D02*
X222777255Y-126144819D01*
X222777255Y-126144819D02*
X223396302Y-126144819D01*
X229934398Y-114297438D02*
X230982017Y-112964104D01*
X229934398Y-112964104D02*
X230982017Y-114297438D01*
X237091541Y-127719819D02*
X237710588Y-127719819D01*
X237710588Y-127719819D02*
X237377255Y-128100771D01*
X237377255Y-128100771D02*
X237520112Y-128100771D01*
X237520112Y-128100771D02*
X237615350Y-128148390D01*
X237615350Y-128148390D02*
X237662969Y-128196009D01*
X237662969Y-128196009D02*
X237710588Y-128291247D01*
X237710588Y-128291247D02*
X237710588Y-128529342D01*
X237710588Y-128529342D02*
X237662969Y-128624580D01*
X237662969Y-128624580D02*
X237615350Y-128672200D01*
X237615350Y-128672200D02*
X237520112Y-128719819D01*
X237520112Y-128719819D02*
X237234398Y-128719819D01*
X237234398Y-128719819D02*
X237139160Y-128672200D01*
X237139160Y-128672200D02*
X237091541Y-128624580D01*
X237996303Y-127719819D02*
X238329636Y-128719819D01*
X238329636Y-128719819D02*
X238662969Y-127719819D01*
X238901065Y-127719819D02*
X239520112Y-127719819D01*
X239520112Y-127719819D02*
X239186779Y-128100771D01*
X239186779Y-128100771D02*
X239329636Y-128100771D01*
X239329636Y-128100771D02*
X239424874Y-128148390D01*
X239424874Y-128148390D02*
X239472493Y-128196009D01*
X239472493Y-128196009D02*
X239520112Y-128291247D01*
X239520112Y-128291247D02*
X239520112Y-128529342D01*
X239520112Y-128529342D02*
X239472493Y-128624580D01*
X239472493Y-128624580D02*
X239424874Y-128672200D01*
X239424874Y-128672200D02*
X239329636Y-128719819D01*
X239329636Y-128719819D02*
X239043922Y-128719819D01*
X239043922Y-128719819D02*
X238948684Y-128672200D01*
X238948684Y-128672200D02*
X238901065Y-128624580D01*
X227477381Y-132261009D02*
X227620238Y-132308628D01*
X227620238Y-132308628D02*
X227667857Y-132356247D01*
X227667857Y-132356247D02*
X227715476Y-132451485D01*
X227715476Y-132451485D02*
X227715476Y-132594342D01*
X227715476Y-132594342D02*
X227667857Y-132689580D01*
X227667857Y-132689580D02*
X227620238Y-132737200D01*
X227620238Y-132737200D02*
X227525000Y-132784819D01*
X227525000Y-132784819D02*
X227144048Y-132784819D01*
X227144048Y-132784819D02*
X227144048Y-131784819D01*
X227144048Y-131784819D02*
X227477381Y-131784819D01*
X227477381Y-131784819D02*
X227572619Y-131832438D01*
X227572619Y-131832438D02*
X227620238Y-131880057D01*
X227620238Y-131880057D02*
X227667857Y-131975295D01*
X227667857Y-131975295D02*
X227667857Y-132070533D01*
X227667857Y-132070533D02*
X227620238Y-132165771D01*
X227620238Y-132165771D02*
X227572619Y-132213390D01*
X227572619Y-132213390D02*
X227477381Y-132261009D01*
X227477381Y-132261009D02*
X227144048Y-132261009D01*
X228144048Y-132784819D02*
X228144048Y-131784819D01*
X228144048Y-131784819D02*
X228477381Y-132499104D01*
X228477381Y-132499104D02*
X228810714Y-131784819D01*
X228810714Y-131784819D02*
X228810714Y-132784819D01*
X229286905Y-132784819D02*
X229286905Y-131784819D01*
X229667857Y-131784819D02*
X230286904Y-131784819D01*
X230286904Y-131784819D02*
X229953571Y-132165771D01*
X229953571Y-132165771D02*
X230096428Y-132165771D01*
X230096428Y-132165771D02*
X230191666Y-132213390D01*
X230191666Y-132213390D02*
X230239285Y-132261009D01*
X230239285Y-132261009D02*
X230286904Y-132356247D01*
X230286904Y-132356247D02*
X230286904Y-132594342D01*
X230286904Y-132594342D02*
X230239285Y-132689580D01*
X230239285Y-132689580D02*
X230191666Y-132737200D01*
X230191666Y-132737200D02*
X230096428Y-132784819D01*
X230096428Y-132784819D02*
X229810714Y-132784819D01*
X229810714Y-132784819D02*
X229715476Y-132737200D01*
X229715476Y-132737200D02*
X229667857Y-132689580D01*
X230667857Y-131880057D02*
X230715476Y-131832438D01*
X230715476Y-131832438D02*
X230810714Y-131784819D01*
X230810714Y-131784819D02*
X231048809Y-131784819D01*
X231048809Y-131784819D02*
X231144047Y-131832438D01*
X231144047Y-131832438D02*
X231191666Y-131880057D01*
X231191666Y-131880057D02*
X231239285Y-131975295D01*
X231239285Y-131975295D02*
X231239285Y-132070533D01*
X231239285Y-132070533D02*
X231191666Y-132213390D01*
X231191666Y-132213390D02*
X230620238Y-132784819D01*
X230620238Y-132784819D02*
X231239285Y-132784819D01*
X231572619Y-131784819D02*
X232191666Y-131784819D01*
X232191666Y-131784819D02*
X231858333Y-132165771D01*
X231858333Y-132165771D02*
X232001190Y-132165771D01*
X232001190Y-132165771D02*
X232096428Y-132213390D01*
X232096428Y-132213390D02*
X232144047Y-132261009D01*
X232144047Y-132261009D02*
X232191666Y-132356247D01*
X232191666Y-132356247D02*
X232191666Y-132594342D01*
X232191666Y-132594342D02*
X232144047Y-132689580D01*
X232144047Y-132689580D02*
X232096428Y-132737200D01*
X232096428Y-132737200D02*
X232001190Y-132784819D01*
X232001190Y-132784819D02*
X231715476Y-132784819D01*
X231715476Y-132784819D02*
X231620238Y-132737200D01*
X231620238Y-132737200D02*
X231572619Y-132689580D01*
X226644047Y-133394819D02*
X226453571Y-133394819D01*
X226453571Y-133394819D02*
X226358333Y-133442438D01*
X226358333Y-133442438D02*
X226310714Y-133490057D01*
X226310714Y-133490057D02*
X226215476Y-133632914D01*
X226215476Y-133632914D02*
X226167857Y-133823390D01*
X226167857Y-133823390D02*
X226167857Y-134204342D01*
X226167857Y-134204342D02*
X226215476Y-134299580D01*
X226215476Y-134299580D02*
X226263095Y-134347200D01*
X226263095Y-134347200D02*
X226358333Y-134394819D01*
X226358333Y-134394819D02*
X226548809Y-134394819D01*
X226548809Y-134394819D02*
X226644047Y-134347200D01*
X226644047Y-134347200D02*
X226691666Y-134299580D01*
X226691666Y-134299580D02*
X226739285Y-134204342D01*
X226739285Y-134204342D02*
X226739285Y-133966247D01*
X226739285Y-133966247D02*
X226691666Y-133871009D01*
X226691666Y-133871009D02*
X226644047Y-133823390D01*
X226644047Y-133823390D02*
X226548809Y-133775771D01*
X226548809Y-133775771D02*
X226358333Y-133775771D01*
X226358333Y-133775771D02*
X226263095Y-133823390D01*
X226263095Y-133823390D02*
X226215476Y-133871009D01*
X226215476Y-133871009D02*
X226167857Y-133966247D01*
X227882143Y-134109104D02*
X228358333Y-134109104D01*
X227786905Y-134394819D02*
X228120238Y-133394819D01*
X228120238Y-133394819D02*
X228453571Y-134394819D01*
X228691667Y-134394819D02*
X229215476Y-133728152D01*
X228691667Y-133728152D02*
X229215476Y-134394819D01*
X229596429Y-134394819D02*
X229596429Y-133728152D01*
X229596429Y-133394819D02*
X229548810Y-133442438D01*
X229548810Y-133442438D02*
X229596429Y-133490057D01*
X229596429Y-133490057D02*
X229644048Y-133442438D01*
X229644048Y-133442438D02*
X229596429Y-133394819D01*
X229596429Y-133394819D02*
X229596429Y-133490057D01*
X230025000Y-134347200D02*
X230120238Y-134394819D01*
X230120238Y-134394819D02*
X230310714Y-134394819D01*
X230310714Y-134394819D02*
X230405952Y-134347200D01*
X230405952Y-134347200D02*
X230453571Y-134251961D01*
X230453571Y-134251961D02*
X230453571Y-134204342D01*
X230453571Y-134204342D02*
X230405952Y-134109104D01*
X230405952Y-134109104D02*
X230310714Y-134061485D01*
X230310714Y-134061485D02*
X230167857Y-134061485D01*
X230167857Y-134061485D02*
X230072619Y-134013866D01*
X230072619Y-134013866D02*
X230025000Y-133918628D01*
X230025000Y-133918628D02*
X230025000Y-133871009D01*
X230025000Y-133871009D02*
X230072619Y-133775771D01*
X230072619Y-133775771D02*
X230167857Y-133728152D01*
X230167857Y-133728152D02*
X230310714Y-133728152D01*
X230310714Y-133728152D02*
X230405952Y-133775771D01*
X231644048Y-134394819D02*
X231644048Y-133394819D01*
X232120238Y-134394819D02*
X232120238Y-133394819D01*
X232120238Y-133394819D02*
X232453571Y-134109104D01*
X232453571Y-134109104D02*
X232786904Y-133394819D01*
X232786904Y-133394819D02*
X232786904Y-134394819D01*
X233263095Y-133394819D02*
X233263095Y-134204342D01*
X233263095Y-134204342D02*
X233310714Y-134299580D01*
X233310714Y-134299580D02*
X233358333Y-134347200D01*
X233358333Y-134347200D02*
X233453571Y-134394819D01*
X233453571Y-134394819D02*
X233644047Y-134394819D01*
X233644047Y-134394819D02*
X233739285Y-134347200D01*
X233739285Y-134347200D02*
X233786904Y-134299580D01*
X233786904Y-134299580D02*
X233834523Y-134204342D01*
X233834523Y-134204342D02*
X233834523Y-133394819D01*
X237733207Y-123524580D02*
X237685588Y-123572200D01*
X237685588Y-123572200D02*
X237542731Y-123619819D01*
X237542731Y-123619819D02*
X237447493Y-123619819D01*
X237447493Y-123619819D02*
X237304636Y-123572200D01*
X237304636Y-123572200D02*
X237209398Y-123476961D01*
X237209398Y-123476961D02*
X237161779Y-123381723D01*
X237161779Y-123381723D02*
X237114160Y-123191247D01*
X237114160Y-123191247D02*
X237114160Y-123048390D01*
X237114160Y-123048390D02*
X237161779Y-122857914D01*
X237161779Y-122857914D02*
X237209398Y-122762676D01*
X237209398Y-122762676D02*
X237304636Y-122667438D01*
X237304636Y-122667438D02*
X237447493Y-122619819D01*
X237447493Y-122619819D02*
X237542731Y-122619819D01*
X237542731Y-122619819D02*
X237685588Y-122667438D01*
X237685588Y-122667438D02*
X237733207Y-122715057D01*
X238114160Y-123572200D02*
X238257017Y-123619819D01*
X238257017Y-123619819D02*
X238495112Y-123619819D01*
X238495112Y-123619819D02*
X238590350Y-123572200D01*
X238590350Y-123572200D02*
X238637969Y-123524580D01*
X238637969Y-123524580D02*
X238685588Y-123429342D01*
X238685588Y-123429342D02*
X238685588Y-123334104D01*
X238685588Y-123334104D02*
X238637969Y-123238866D01*
X238637969Y-123238866D02*
X238590350Y-123191247D01*
X238590350Y-123191247D02*
X238495112Y-123143628D01*
X238495112Y-123143628D02*
X238304636Y-123096009D01*
X238304636Y-123096009D02*
X238209398Y-123048390D01*
X238209398Y-123048390D02*
X238161779Y-123000771D01*
X238161779Y-123000771D02*
X238114160Y-122905533D01*
X238114160Y-122905533D02*
X238114160Y-122810295D01*
X238114160Y-122810295D02*
X238161779Y-122715057D01*
X238161779Y-122715057D02*
X238209398Y-122667438D01*
X238209398Y-122667438D02*
X238304636Y-122619819D01*
X238304636Y-122619819D02*
X238542731Y-122619819D01*
X238542731Y-122619819D02*
X238685588Y-122667438D01*
X232433333Y-131134580D02*
X232385714Y-131182200D01*
X232385714Y-131182200D02*
X232242857Y-131229819D01*
X232242857Y-131229819D02*
X232147619Y-131229819D01*
X232147619Y-131229819D02*
X232004762Y-131182200D01*
X232004762Y-131182200D02*
X231909524Y-131086961D01*
X231909524Y-131086961D02*
X231861905Y-130991723D01*
X231861905Y-130991723D02*
X231814286Y-130801247D01*
X231814286Y-130801247D02*
X231814286Y-130658390D01*
X231814286Y-130658390D02*
X231861905Y-130467914D01*
X231861905Y-130467914D02*
X231909524Y-130372676D01*
X231909524Y-130372676D02*
X232004762Y-130277438D01*
X232004762Y-130277438D02*
X232147619Y-130229819D01*
X232147619Y-130229819D02*
X232242857Y-130229819D01*
X232242857Y-130229819D02*
X232385714Y-130277438D01*
X232385714Y-130277438D02*
X232433333Y-130325057D01*
X233385714Y-131229819D02*
X232814286Y-131229819D01*
X233100000Y-131229819D02*
X233100000Y-130229819D01*
X233100000Y-130229819D02*
X233004762Y-130372676D01*
X233004762Y-130372676D02*
X232909524Y-130467914D01*
X232909524Y-130467914D02*
X232814286Y-130515533D01*
X228708333Y-129234580D02*
X228660714Y-129282200D01*
X228660714Y-129282200D02*
X228517857Y-129329819D01*
X228517857Y-129329819D02*
X228422619Y-129329819D01*
X228422619Y-129329819D02*
X228279762Y-129282200D01*
X228279762Y-129282200D02*
X228184524Y-129186961D01*
X228184524Y-129186961D02*
X228136905Y-129091723D01*
X228136905Y-129091723D02*
X228089286Y-128901247D01*
X228089286Y-128901247D02*
X228089286Y-128758390D01*
X228089286Y-128758390D02*
X228136905Y-128567914D01*
X228136905Y-128567914D02*
X228184524Y-128472676D01*
X228184524Y-128472676D02*
X228279762Y-128377438D01*
X228279762Y-128377438D02*
X228422619Y-128329819D01*
X228422619Y-128329819D02*
X228517857Y-128329819D01*
X228517857Y-128329819D02*
X228660714Y-128377438D01*
X228660714Y-128377438D02*
X228708333Y-128425057D01*
X229089286Y-128425057D02*
X229136905Y-128377438D01*
X229136905Y-128377438D02*
X229232143Y-128329819D01*
X229232143Y-128329819D02*
X229470238Y-128329819D01*
X229470238Y-128329819D02*
X229565476Y-128377438D01*
X229565476Y-128377438D02*
X229613095Y-128425057D01*
X229613095Y-128425057D02*
X229660714Y-128520295D01*
X229660714Y-128520295D02*
X229660714Y-128615533D01*
X229660714Y-128615533D02*
X229613095Y-128758390D01*
X229613095Y-128758390D02*
X229041667Y-129329819D01*
X229041667Y-129329819D02*
X229660714Y-129329819D01*
X229563095Y-123754819D02*
X229563095Y-124564342D01*
X229563095Y-124564342D02*
X229610714Y-124659580D01*
X229610714Y-124659580D02*
X229658333Y-124707200D01*
X229658333Y-124707200D02*
X229753571Y-124754819D01*
X229753571Y-124754819D02*
X229944047Y-124754819D01*
X229944047Y-124754819D02*
X230039285Y-124707200D01*
X230039285Y-124707200D02*
X230086904Y-124659580D01*
X230086904Y-124659580D02*
X230134523Y-124564342D01*
X230134523Y-124564342D02*
X230134523Y-123754819D01*
X231134523Y-124754819D02*
X230563095Y-124754819D01*
X230848809Y-124754819D02*
X230848809Y-123754819D01*
X230848809Y-123754819D02*
X230753571Y-123897676D01*
X230753571Y-123897676D02*
X230658333Y-123992914D01*
X230658333Y-123992914D02*
X230563095Y-124040533D01*
X228242200Y-122754819D02*
X228242200Y-122992914D01*
X228004105Y-122897676D02*
X228242200Y-122992914D01*
X228242200Y-122992914D02*
X228480295Y-122897676D01*
X228099343Y-123183390D02*
X228242200Y-122992914D01*
X228242200Y-122992914D02*
X228385057Y-123183390D01*
D11*
%TO.C,C1*%
X233285000Y-127813748D02*
X233285000Y-128336252D01*
X231815000Y-127813748D02*
X231815000Y-128336252D01*
%TO.C,C2*%
X228613748Y-126415000D02*
X229136252Y-126415000D01*
X228613748Y-127885000D02*
X229136252Y-127885000D01*
%TO.C,J2*%
X236730000Y-126905000D02*
X236730000Y-119225000D01*
X236730000Y-126905000D02*
X234070000Y-126905000D01*
X236730000Y-119225000D02*
X234070000Y-119225000D01*
X235400000Y-129505000D02*
X234070000Y-129505000D01*
X234070000Y-129505000D02*
X234070000Y-128175000D01*
X234070000Y-126905000D02*
X234070000Y-119225000D01*
%TO.C,J1*%
X223770000Y-121840000D02*
X223770000Y-129520000D01*
X223770000Y-121840000D02*
X226430000Y-121840000D01*
X223770000Y-129520000D02*
X226430000Y-129520000D01*
X225100000Y-119240000D02*
X226430000Y-119240000D01*
X226430000Y-119240000D02*
X226430000Y-120570000D01*
X226430000Y-121840000D02*
X226430000Y-129520000D01*
D12*
%TO.C,U1*%
X228699400Y-125620800D02*
X229360109Y-125620800D01*
X229360109Y-122979200D02*
X228699400Y-122979200D01*
X231289891Y-125620800D02*
X231950600Y-125620800D01*
X231950600Y-122979200D02*
X231289891Y-122979200D01*
G36*
X232280800Y-124240501D02*
G01*
X232026800Y-124240501D01*
X232026800Y-123859500D01*
X232280800Y-123859500D01*
X232280800Y-124240501D01*
G37*
%TD*%
M02*
