%TF.GenerationSoftware,KiCad,Pcbnew,7.0.6*%
%TF.CreationDate,2024-03-10T14:23:31-07:00*%
%TF.ProjectId,IMU_Breakout,494d555f-4272-4656-916b-6f75742e6b69,rev?*%
%TF.SameCoordinates,Original*%
%TF.FileFunction,Copper,L1,Top*%
%TF.FilePolarity,Positive*%
%FSLAX46Y46*%
G04 Gerber Fmt 4.6, Leading zero omitted, Abs format (unit mm)*
G04 Created by KiCad (PCBNEW 7.0.6) date 2024-03-10 14:23:31*
%MOMM*%
%LPD*%
G01*
G04 APERTURE LIST*
G04 Aperture macros list*
%AMRoundRect*
0 Rectangle with rounded corners*
0 $1 Rounding radius*
0 $2 $3 $4 $5 $6 $7 $8 $9 X,Y pos of 4 corners*
0 Add a 4 corners polygon primitive as box body*
4,1,4,$2,$3,$4,$5,$6,$7,$8,$9,$2,$3,0*
0 Add four circle primitives for the rounded corners*
1,1,$1+$1,$2,$3*
1,1,$1+$1,$4,$5*
1,1,$1+$1,$6,$7*
1,1,$1+$1,$8,$9*
0 Add four rect primitives between the rounded corners*
20,1,$1+$1,$2,$3,$4,$5,0*
20,1,$1+$1,$4,$5,$6,$7,0*
20,1,$1+$1,$6,$7,$8,$9,0*
20,1,$1+$1,$8,$9,$2,$3,0*%
G04 Aperture macros list end*
%TA.AperFunction,SMDPad,CuDef*%
%ADD10RoundRect,0.250000X-0.475000X0.337500X-0.475000X-0.337500X0.475000X-0.337500X0.475000X0.337500X0*%
%TD*%
%TA.AperFunction,SMDPad,CuDef*%
%ADD11RoundRect,0.250000X-0.337500X-0.475000X0.337500X-0.475000X0.337500X0.475000X-0.337500X0.475000X0*%
%TD*%
%TA.AperFunction,ComponentPad*%
%ADD12R,1.700000X1.700000*%
%TD*%
%TA.AperFunction,ComponentPad*%
%ADD13O,1.700000X1.700000*%
%TD*%
%TA.AperFunction,SMDPad,CuDef*%
%ADD14R,0.584200X0.304800*%
%TD*%
%TA.AperFunction,SMDPad,CuDef*%
%ADD15R,0.304800X0.584200*%
%TD*%
%TA.AperFunction,ViaPad*%
%ADD16C,0.800000*%
%TD*%
%TA.AperFunction,Conductor*%
%ADD17C,0.250000*%
%TD*%
G04 APERTURE END LIST*
D10*
%TO.P,C1,1*%
%TO.N,+3.3V*%
X232550000Y-127037500D03*
%TO.P,C1,2*%
%TO.N,GND*%
X232550000Y-129112500D03*
%TD*%
D11*
%TO.P,C2,1*%
%TO.N,+3.3V*%
X227837500Y-127150000D03*
%TO.P,C2,2*%
%TO.N,GND*%
X229912500Y-127150000D03*
%TD*%
D12*
%TO.P,J2,1,Pin_1*%
%TO.N,+3.3V*%
X235400000Y-128175000D03*
D13*
%TO.P,J2,2,Pin_2*%
%TO.N,Net-(J2-Pin_2)*%
X235400000Y-125635000D03*
%TO.P,J2,3,Pin_3*%
%TO.N,Net-(J2-Pin_3)*%
X235400000Y-123095000D03*
%TO.P,J2,4,Pin_4*%
%TO.N,Net-(J2-Pin_4)*%
X235400000Y-120555000D03*
%TD*%
D12*
%TO.P,J1,1,Pin_1*%
%TO.N,Net-(J1-Pin_1)*%
X225100000Y-120570000D03*
D13*
%TO.P,J1,2,Pin_2*%
%TO.N,Net-(J1-Pin_2)*%
X225100000Y-123110000D03*
%TO.P,J1,3,Pin_3*%
%TO.N,Net-(J1-Pin_3)*%
X225100000Y-125650000D03*
%TO.P,J1,4,Pin_4*%
%TO.N,GND*%
X225100000Y-128190000D03*
%TD*%
D14*
%TO.P,U1,1,SDO*%
%TO.N,Net-(J2-Pin_4)*%
X229169300Y-123549999D03*
%TO.P,U1,2,NC*%
%TO.N,unconnected-(U1-NC-Pad2)*%
X229169300Y-124050000D03*
%TO.P,U1,3,NC*%
%TO.N,unconnected-(U1-NC-Pad3)*%
X229169300Y-124550000D03*
%TO.P,U1,4,INT1*%
%TO.N,Net-(J1-Pin_2)*%
X229169300Y-125050001D03*
D15*
%TO.P,U1,5,VDDIO*%
%TO.N,+3.3V*%
X229825001Y-125214400D03*
%TO.P,U1,6,GNDIO*%
%TO.N,GND*%
X230325000Y-125214400D03*
%TO.P,U1,7,GND*%
X230824999Y-125214400D03*
D14*
%TO.P,U1,8,VDD*%
%TO.N,+3.3V*%
X231480700Y-125050001D03*
%TO.P,U1,9,INT2*%
%TO.N,Net-(J1-Pin_3)*%
X231480700Y-124550000D03*
%TO.P,U1,10,NC*%
%TO.N,unconnected-(U1-NC-Pad10)*%
X231480700Y-124050000D03*
%TO.P,U1,11,NC*%
%TO.N,unconnected-(U1-NC-Pad11)*%
X231480700Y-123549999D03*
D15*
%TO.P,U1,12,CSB*%
%TO.N,Net-(J2-Pin_3)*%
X230824999Y-123385600D03*
%TO.P,U1,13,SCX*%
%TO.N,Net-(J2-Pin_2)*%
X230325000Y-123385600D03*
%TO.P,U1,14,SDX*%
%TO.N,Net-(J1-Pin_1)*%
X229825001Y-123385600D03*
%TD*%
D16*
%TO.N,GND*%
X231175000Y-129150000D03*
X231150000Y-127485100D03*
%TO.N,Net-(J1-Pin_3)*%
X233325000Y-124950000D03*
%TO.N,Net-(J2-Pin_2)*%
X230650000Y-122325000D03*
%TO.N,Net-(J2-Pin_4)*%
X229105301Y-122150000D03*
%TD*%
D17*
%TO.N,GND*%
X230824999Y-125479200D02*
X230824999Y-125214400D01*
X231160000Y-125814201D02*
X230824999Y-125479200D01*
X231160000Y-127475100D02*
X231160000Y-125814201D01*
X231150000Y-127485100D02*
X231160000Y-127475100D01*
X230739900Y-127075000D02*
X230312500Y-127075000D01*
X231150000Y-127485100D02*
X230739900Y-127075000D01*
%TO.N,+3.3V*%
X232550000Y-127037500D02*
X232550000Y-125300000D01*
X229825001Y-125214400D02*
X229825001Y-125674999D01*
X229825001Y-125674999D02*
X229395200Y-126104800D01*
X233687500Y-128175000D02*
X235400000Y-128175000D01*
X228892300Y-128204800D02*
X235214800Y-128204800D01*
X228882700Y-126104800D02*
X227837500Y-127150000D01*
X232300001Y-125050001D02*
X231480700Y-125050001D01*
X232550000Y-127037500D02*
X233687500Y-128175000D01*
X229395200Y-126104800D02*
X228882700Y-126104800D01*
X227837500Y-127150000D02*
X228892300Y-128204800D01*
X232550000Y-125300000D02*
X232300001Y-125050001D01*
%TO.N,GND*%
X232550000Y-129112500D02*
X231212500Y-129112500D01*
X231212500Y-129112500D02*
X231175000Y-129150000D01*
X230325000Y-127062500D02*
X230325000Y-125214400D01*
%TO.N,Net-(J1-Pin_2)*%
X227040001Y-125050001D02*
X229169300Y-125050001D01*
X225100000Y-123110000D02*
X227040001Y-125050001D01*
%TO.N,Net-(J1-Pin_3)*%
X232825000Y-124550000D02*
X232925000Y-124550000D01*
X231480700Y-124550000D02*
X232825000Y-124550000D01*
X232925000Y-124550000D02*
X233325000Y-124950000D01*
%TO.N,Net-(J1-Pin_1)*%
X229295000Y-120570000D02*
X225100000Y-120570000D01*
X229825001Y-121100001D02*
X229295000Y-120570000D01*
X229825001Y-123385600D02*
X229825001Y-121100001D01*
%TO.N,Net-(J2-Pin_2)*%
X230650000Y-122325000D02*
X230325000Y-122650000D01*
X230325000Y-122650000D02*
X230325000Y-123385600D01*
%TO.N,Net-(J2-Pin_3)*%
X231320899Y-122750000D02*
X235055000Y-122750000D01*
X230824999Y-123245900D02*
X231320899Y-122750000D01*
%TO.N,Net-(J2-Pin_4)*%
X229169300Y-122956401D02*
X229169300Y-123549999D01*
X229105301Y-122150000D02*
X229105301Y-122892402D01*
X229105301Y-122892402D02*
X229169300Y-122956401D01*
%TD*%
M02*
