%TF.GenerationSoftware,KiCad,Pcbnew,9.0.2*%
%TF.CreationDate,2025-08-06T09:05:08-07:00*%
%TF.ProjectId,IMU_Breakout,494d555f-4272-4656-916b-6f75742e6b69,0.2*%
%TF.SameCoordinates,Original*%
%TF.FileFunction,Copper,L1,Top*%
%TF.FilePolarity,Positive*%
%FSLAX46Y46*%
G04 Gerber Fmt 4.6, Leading zero omitted, Abs format (unit mm)*
G04 Created by KiCad (PCBNEW 9.0.2) date 2025-08-06 09:05:08*
%MOMM*%
%LPD*%
G01*
G04 APERTURE LIST*
G04 Aperture macros list*
%AMRoundRect*
0 Rectangle with rounded corners*
0 $1 Rounding radius*
0 $2 $3 $4 $5 $6 $7 $8 $9 X,Y pos of 4 corners*
0 Add a 4 corners polygon primitive as box body*
4,1,4,$2,$3,$4,$5,$6,$7,$8,$9,$2,$3,0*
0 Add four circle primitives for the rounded corners*
1,1,$1+$1,$2,$3*
1,1,$1+$1,$4,$5*
1,1,$1+$1,$6,$7*
1,1,$1+$1,$8,$9*
0 Add four rect primitives between the rounded corners*
20,1,$1+$1,$2,$3,$4,$5,0*
20,1,$1+$1,$4,$5,$6,$7,0*
20,1,$1+$1,$6,$7,$8,$9,0*
20,1,$1+$1,$8,$9,$2,$3,0*%
G04 Aperture macros list end*
%TA.AperFunction,SMDPad,CuDef*%
%ADD10RoundRect,0.250000X-0.475000X0.337500X-0.475000X-0.337500X0.475000X-0.337500X0.475000X0.337500X0*%
%TD*%
%TA.AperFunction,ComponentPad*%
%ADD11RoundRect,0.200000X-0.450000X0.200000X-0.450000X-0.200000X0.450000X-0.200000X0.450000X0.200000X0*%
%TD*%
%TA.AperFunction,ComponentPad*%
%ADD12O,1.300000X0.800000*%
%TD*%
%TA.AperFunction,SMDPad,CuDef*%
%ADD13RoundRect,0.250000X-0.337500X-0.475000X0.337500X-0.475000X0.337500X0.475000X-0.337500X0.475000X0*%
%TD*%
%TA.AperFunction,SMDPad,CuDef*%
%ADD14R,0.584200X0.304800*%
%TD*%
%TA.AperFunction,SMDPad,CuDef*%
%ADD15R,0.304800X0.584200*%
%TD*%
%TA.AperFunction,ViaPad*%
%ADD16C,0.800000*%
%TD*%
%TA.AperFunction,Conductor*%
%ADD17C,0.250000*%
%TD*%
G04 APERTURE END LIST*
D10*
%TO.P,C1,1*%
%TO.N,+3.3V*%
X232550000Y-127037500D03*
%TO.P,C1,2*%
%TO.N,GND*%
X232550000Y-129112500D03*
%TD*%
D11*
%TO.P,J3,1,Pin_1*%
%TO.N,Net-(J3-Pin_1)*%
X238700000Y-122125000D03*
D12*
%TO.P,J3,2,Pin_2*%
%TO.N,Net-(J3-Pin_2)*%
X238700000Y-123375000D03*
%TO.P,J3,3,Pin_3*%
%TO.N,Net-(J3-Pin_3)*%
X238700000Y-124625000D03*
%TO.P,J3,4,Pin_4*%
%TO.N,Net-(J3-Pin_4)*%
X238700000Y-125875000D03*
%TO.P,J3,5,Pin_5*%
%TO.N,Net-(J3-Pin_5)*%
X238700000Y-127125000D03*
%TO.P,J3,6,Pin_6*%
%TO.N,Net-(J3-Pin_6)*%
X238700000Y-128375000D03*
%TO.P,J3,7,Pin_7*%
%TO.N,GND*%
X238700000Y-129625000D03*
%TO.P,J3,8,Pin_8*%
%TO.N,+3.3V*%
X238700000Y-130875000D03*
%TD*%
D13*
%TO.P,C2,1*%
%TO.N,+3.3V*%
X227837500Y-127150000D03*
%TO.P,C2,2*%
%TO.N,GND*%
X229912500Y-127150000D03*
%TD*%
D14*
%TO.P,U1,1,SDO*%
%TO.N,Net-(J3-Pin_2)*%
X229169300Y-123549999D03*
%TO.P,U1,2,NC*%
%TO.N,unconnected-(U1-NC-Pad2)*%
X229169300Y-124050000D03*
%TO.P,U1,3,NC*%
%TO.N,unconnected-(U1-NC-Pad3)*%
X229169300Y-124550000D03*
%TO.P,U1,4,INT1*%
%TO.N,Net-(J3-Pin_1)*%
X229169300Y-125050001D03*
D15*
%TO.P,U1,5,VDDIO*%
%TO.N,+3.3V*%
X229825001Y-125214400D03*
%TO.P,U1,6,GNDIO*%
%TO.N,GND*%
X230325000Y-125214400D03*
%TO.P,U1,7,GND*%
X230824999Y-125214400D03*
D14*
%TO.P,U1,8,VDD*%
%TO.N,+3.3V*%
X231480700Y-125050001D03*
%TO.P,U1,9,INT2*%
%TO.N,Net-(J3-Pin_6)*%
X231480700Y-124550000D03*
%TO.P,U1,10,NC*%
%TO.N,unconnected-(U1-NC-Pad10)*%
X231480700Y-124050000D03*
%TO.P,U1,11,NC*%
%TO.N,unconnected-(U1-NC-Pad11)*%
X231480700Y-123549999D03*
D15*
%TO.P,U1,12,CSB*%
%TO.N,Net-(J3-Pin_5)*%
X230824999Y-123385600D03*
%TO.P,U1,13,SCX*%
%TO.N,Net-(J3-Pin_4)*%
X230325000Y-123385600D03*
%TO.P,U1,14,SDX*%
%TO.N,Net-(J3-Pin_3)*%
X229825001Y-123385600D03*
%TD*%
D16*
%TO.N,GND*%
X234000000Y-129625000D03*
X231150000Y-127485100D03*
%TD*%
D17*
%TO.N,Net-(J3-Pin_1)*%
X228900000Y-120000000D02*
X235900000Y-120000000D01*
X228450001Y-125050001D02*
X227200000Y-123800000D01*
X227200000Y-121700000D02*
X228900000Y-120000000D01*
X235900000Y-120000000D02*
X238025000Y-122125000D01*
X238025000Y-122125000D02*
X238700000Y-122125000D01*
X229169300Y-125050001D02*
X228450001Y-125050001D01*
X227200000Y-123800000D02*
X227200000Y-121700000D01*
%TO.N,Net-(J3-Pin_2)*%
X238125000Y-123375000D02*
X238700000Y-123375000D01*
X235450000Y-120700000D02*
X238125000Y-123375000D01*
X229100000Y-120700000D02*
X235450000Y-120700000D01*
X227800000Y-122000000D02*
X229100000Y-120700000D01*
X228349999Y-123549999D02*
X227800000Y-123000000D01*
X229169300Y-123549999D02*
X228349999Y-123549999D01*
X227800000Y-123000000D02*
X227800000Y-122000000D01*
%TO.N,+3.3V*%
X236375000Y-130875000D02*
X238700000Y-130875000D01*
X233687500Y-128187500D02*
X236375000Y-130875000D01*
X233687500Y-128175000D02*
X233687500Y-128187500D01*
X228987500Y-126000000D02*
X227837500Y-127150000D01*
X229600000Y-126000000D02*
X228987500Y-126000000D01*
X229825001Y-125774999D02*
X229600000Y-126000000D01*
X229825001Y-125214400D02*
X229825001Y-125774999D01*
%TO.N,GND*%
X230824999Y-125924999D02*
X230824999Y-125214400D01*
X231160000Y-127475100D02*
X231160000Y-126260000D01*
X231160000Y-126260000D02*
X230824999Y-125924999D01*
X231150000Y-127485100D02*
X231160000Y-127475100D01*
%TO.N,Net-(J3-Pin_3)*%
X238125000Y-124625000D02*
X238700000Y-124625000D01*
X234800000Y-121300000D02*
X238125000Y-124625000D01*
X230700000Y-121300000D02*
X234800000Y-121300000D01*
X229825001Y-123385600D02*
X229825001Y-122174999D01*
X229825001Y-122174999D02*
X230700000Y-121300000D01*
%TO.N,Net-(J3-Pin_4)*%
X234100000Y-121900000D02*
X230900000Y-121900000D01*
X230325000Y-122475000D02*
X230325000Y-123385600D01*
X238075000Y-125875000D02*
X234100000Y-121900000D01*
X230900000Y-121900000D02*
X230325000Y-122475000D01*
X238700000Y-125875000D02*
X238075000Y-125875000D01*
%TO.N,Net-(J3-Pin_5)*%
X230824999Y-122775001D02*
X230824999Y-123385600D01*
X231100000Y-122500000D02*
X230824999Y-122775001D01*
X233300000Y-122500000D02*
X231100000Y-122500000D01*
X237900000Y-127100000D02*
X233300000Y-122500000D01*
X238675000Y-127100000D02*
X237900000Y-127100000D01*
%TO.N,Net-(J3-Pin_6)*%
X236875000Y-128375000D02*
X238700000Y-128375000D01*
X233050000Y-124550000D02*
X236875000Y-128375000D01*
X231480700Y-124550000D02*
X233050000Y-124550000D01*
%TO.N,GND*%
X233487500Y-129112500D02*
X234000000Y-129625000D01*
X232550000Y-129112500D02*
X233487500Y-129112500D01*
%TO.N,+3.3V*%
X233657700Y-128204800D02*
X233687500Y-128175000D01*
X228892300Y-128204800D02*
X233657700Y-128204800D01*
X232550000Y-127037500D02*
X232550000Y-125300000D01*
X232300001Y-125050001D02*
X231480700Y-125050001D01*
X232550000Y-127037500D02*
X233687500Y-128175000D01*
X227837500Y-127150000D02*
X228892300Y-128204800D01*
X232550000Y-125300000D02*
X232300001Y-125050001D01*
%TO.N,GND*%
X230739900Y-127075000D02*
X230312500Y-127075000D01*
X231150000Y-127485100D02*
X230739900Y-127075000D01*
X230325000Y-127062500D02*
X230325000Y-125214400D01*
%TD*%
M02*
