%TF.GenerationSoftware,KiCad,Pcbnew,9.0.2*%
%TF.CreationDate,2025-08-08T16:16:35-07:00*%
%TF.ProjectId,EnvironmentSensor2,456e7669-726f-46e6-9d65-6e7453656e73,0.1*%
%TF.SameCoordinates,Original*%
%TF.FileFunction,Legend,Top*%
%TF.FilePolarity,Positive*%
%FSLAX46Y46*%
G04 Gerber Fmt 4.6, Leading zero omitted, Abs format (unit mm)*
G04 Created by KiCad (PCBNEW 9.0.2) date 2025-08-08 16:16:35*
%MOMM*%
%LPD*%
G01*
G04 APERTURE LIST*
%ADD10C,0.100000*%
%ADD11C,0.150000*%
%ADD12C,0.120000*%
%ADD13C,0.127000*%
%ADD14C,0.200000*%
G04 APERTURE END LIST*
D10*
X221458800Y-132381830D02*
X221496895Y-132267544D01*
X221496895Y-132267544D02*
X221496895Y-132077068D01*
X221496895Y-132077068D02*
X221458800Y-132000877D01*
X221458800Y-132000877D02*
X221420704Y-131962782D01*
X221420704Y-131962782D02*
X221344514Y-131924687D01*
X221344514Y-131924687D02*
X221268323Y-131924687D01*
X221268323Y-131924687D02*
X221192133Y-131962782D01*
X221192133Y-131962782D02*
X221154038Y-132000877D01*
X221154038Y-132000877D02*
X221115942Y-132077068D01*
X221115942Y-132077068D02*
X221077847Y-132229449D01*
X221077847Y-132229449D02*
X221039752Y-132305639D01*
X221039752Y-132305639D02*
X221001657Y-132343734D01*
X221001657Y-132343734D02*
X220925466Y-132381830D01*
X220925466Y-132381830D02*
X220849276Y-132381830D01*
X220849276Y-132381830D02*
X220773085Y-132343734D01*
X220773085Y-132343734D02*
X220734990Y-132305639D01*
X220734990Y-132305639D02*
X220696895Y-132229449D01*
X220696895Y-132229449D02*
X220696895Y-132038972D01*
X220696895Y-132038972D02*
X220734990Y-131924687D01*
X220734990Y-131162782D02*
X220696895Y-131238972D01*
X220696895Y-131238972D02*
X220696895Y-131353258D01*
X220696895Y-131353258D02*
X220734990Y-131467544D01*
X220734990Y-131467544D02*
X220811180Y-131543734D01*
X220811180Y-131543734D02*
X220887371Y-131581829D01*
X220887371Y-131581829D02*
X221039752Y-131619925D01*
X221039752Y-131619925D02*
X221154038Y-131619925D01*
X221154038Y-131619925D02*
X221306419Y-131581829D01*
X221306419Y-131581829D02*
X221382609Y-131543734D01*
X221382609Y-131543734D02*
X221458800Y-131467544D01*
X221458800Y-131467544D02*
X221496895Y-131353258D01*
X221496895Y-131353258D02*
X221496895Y-131277067D01*
X221496895Y-131277067D02*
X221458800Y-131162782D01*
X221458800Y-131162782D02*
X221420704Y-131124686D01*
X221420704Y-131124686D02*
X221154038Y-131124686D01*
X221154038Y-131124686D02*
X221154038Y-131277067D01*
X221496895Y-130781829D02*
X220696895Y-130781829D01*
X220696895Y-130781829D02*
X220696895Y-130477067D01*
X220696895Y-130477067D02*
X220734990Y-130400877D01*
X220734990Y-130400877D02*
X220773085Y-130362782D01*
X220773085Y-130362782D02*
X220849276Y-130324686D01*
X220849276Y-130324686D02*
X220963561Y-130324686D01*
X220963561Y-130324686D02*
X221039752Y-130362782D01*
X221039752Y-130362782D02*
X221077847Y-130400877D01*
X221077847Y-130400877D02*
X221115942Y-130477067D01*
X221115942Y-130477067D02*
X221115942Y-130781829D01*
X220963561Y-129638972D02*
X221496895Y-129638972D01*
X220658800Y-129829448D02*
X221230228Y-130019925D01*
X221230228Y-130019925D02*
X221230228Y-129524686D01*
X221496895Y-128800877D02*
X221496895Y-129258020D01*
X221496895Y-129029448D02*
X220696895Y-129029448D01*
X220696895Y-129029448D02*
X220811180Y-129105639D01*
X220811180Y-129105639D02*
X220887371Y-129181829D01*
X220887371Y-129181829D02*
X220925466Y-129258020D01*
X213496895Y-128519925D02*
X213496895Y-128024687D01*
X213496895Y-128024687D02*
X213801657Y-128291353D01*
X213801657Y-128291353D02*
X213801657Y-128177068D01*
X213801657Y-128177068D02*
X213839752Y-128100877D01*
X213839752Y-128100877D02*
X213877847Y-128062782D01*
X213877847Y-128062782D02*
X213954038Y-128024687D01*
X213954038Y-128024687D02*
X214144514Y-128024687D01*
X214144514Y-128024687D02*
X214220704Y-128062782D01*
X214220704Y-128062782D02*
X214258800Y-128100877D01*
X214258800Y-128100877D02*
X214296895Y-128177068D01*
X214296895Y-128177068D02*
X214296895Y-128405639D01*
X214296895Y-128405639D02*
X214258800Y-128481830D01*
X214258800Y-128481830D02*
X214220704Y-128519925D01*
X213496895Y-127796115D02*
X214296895Y-127529448D01*
X214296895Y-127529448D02*
X213496895Y-127262782D01*
X213496895Y-127072306D02*
X213496895Y-126577068D01*
X213496895Y-126577068D02*
X213801657Y-126843734D01*
X213801657Y-126843734D02*
X213801657Y-126729449D01*
X213801657Y-126729449D02*
X213839752Y-126653258D01*
X213839752Y-126653258D02*
X213877847Y-126615163D01*
X213877847Y-126615163D02*
X213954038Y-126577068D01*
X213954038Y-126577068D02*
X214144514Y-126577068D01*
X214144514Y-126577068D02*
X214220704Y-126615163D01*
X214220704Y-126615163D02*
X214258800Y-126653258D01*
X214258800Y-126653258D02*
X214296895Y-126729449D01*
X214296895Y-126729449D02*
X214296895Y-126958020D01*
X214296895Y-126958020D02*
X214258800Y-127034211D01*
X214258800Y-127034211D02*
X214220704Y-127072306D01*
X211958800Y-128581830D02*
X211996895Y-128467544D01*
X211996895Y-128467544D02*
X211996895Y-128277068D01*
X211996895Y-128277068D02*
X211958800Y-128200877D01*
X211958800Y-128200877D02*
X211920704Y-128162782D01*
X211920704Y-128162782D02*
X211844514Y-128124687D01*
X211844514Y-128124687D02*
X211768323Y-128124687D01*
X211768323Y-128124687D02*
X211692133Y-128162782D01*
X211692133Y-128162782D02*
X211654038Y-128200877D01*
X211654038Y-128200877D02*
X211615942Y-128277068D01*
X211615942Y-128277068D02*
X211577847Y-128429449D01*
X211577847Y-128429449D02*
X211539752Y-128505639D01*
X211539752Y-128505639D02*
X211501657Y-128543734D01*
X211501657Y-128543734D02*
X211425466Y-128581830D01*
X211425466Y-128581830D02*
X211349276Y-128581830D01*
X211349276Y-128581830D02*
X211273085Y-128543734D01*
X211273085Y-128543734D02*
X211234990Y-128505639D01*
X211234990Y-128505639D02*
X211196895Y-128429449D01*
X211196895Y-128429449D02*
X211196895Y-128238972D01*
X211196895Y-128238972D02*
X211234990Y-128124687D01*
X211920704Y-127324686D02*
X211958800Y-127362782D01*
X211958800Y-127362782D02*
X211996895Y-127477067D01*
X211996895Y-127477067D02*
X211996895Y-127553258D01*
X211996895Y-127553258D02*
X211958800Y-127667544D01*
X211958800Y-127667544D02*
X211882609Y-127743734D01*
X211882609Y-127743734D02*
X211806419Y-127781829D01*
X211806419Y-127781829D02*
X211654038Y-127819925D01*
X211654038Y-127819925D02*
X211539752Y-127819925D01*
X211539752Y-127819925D02*
X211387371Y-127781829D01*
X211387371Y-127781829D02*
X211311180Y-127743734D01*
X211311180Y-127743734D02*
X211234990Y-127667544D01*
X211234990Y-127667544D02*
X211196895Y-127553258D01*
X211196895Y-127553258D02*
X211196895Y-127477067D01*
X211196895Y-127477067D02*
X211234990Y-127362782D01*
X211234990Y-127362782D02*
X211273085Y-127324686D01*
X211996895Y-126600877D02*
X211996895Y-126981829D01*
X211996895Y-126981829D02*
X211196895Y-126981829D01*
X219041200Y-129118169D02*
X219003104Y-129232455D01*
X219003104Y-129232455D02*
X219003104Y-129422931D01*
X219003104Y-129422931D02*
X219041200Y-129499122D01*
X219041200Y-129499122D02*
X219079295Y-129537217D01*
X219079295Y-129537217D02*
X219155485Y-129575312D01*
X219155485Y-129575312D02*
X219231676Y-129575312D01*
X219231676Y-129575312D02*
X219307866Y-129537217D01*
X219307866Y-129537217D02*
X219345961Y-129499122D01*
X219345961Y-129499122D02*
X219384057Y-129422931D01*
X219384057Y-129422931D02*
X219422152Y-129270550D01*
X219422152Y-129270550D02*
X219460247Y-129194360D01*
X219460247Y-129194360D02*
X219498342Y-129156265D01*
X219498342Y-129156265D02*
X219574533Y-129118169D01*
X219574533Y-129118169D02*
X219650723Y-129118169D01*
X219650723Y-129118169D02*
X219726914Y-129156265D01*
X219726914Y-129156265D02*
X219765009Y-129194360D01*
X219765009Y-129194360D02*
X219803104Y-129270550D01*
X219803104Y-129270550D02*
X219803104Y-129461027D01*
X219803104Y-129461027D02*
X219765009Y-129575312D01*
X219003104Y-129918170D02*
X219803104Y-129918170D01*
X219422152Y-129918170D02*
X219422152Y-130375313D01*
X219003104Y-130375313D02*
X219803104Y-130375313D01*
X219803104Y-130641979D02*
X219803104Y-131099122D01*
X219003104Y-130870550D02*
X219803104Y-130870550D01*
X219536438Y-131708646D02*
X219003104Y-131708646D01*
X219841200Y-131518170D02*
X219269771Y-131327693D01*
X219269771Y-131327693D02*
X219269771Y-131822932D01*
X219803104Y-132280075D02*
X219803104Y-132356265D01*
X219803104Y-132356265D02*
X219765009Y-132432456D01*
X219765009Y-132432456D02*
X219726914Y-132470551D01*
X219726914Y-132470551D02*
X219650723Y-132508646D01*
X219650723Y-132508646D02*
X219498342Y-132546741D01*
X219498342Y-132546741D02*
X219307866Y-132546741D01*
X219307866Y-132546741D02*
X219155485Y-132508646D01*
X219155485Y-132508646D02*
X219079295Y-132470551D01*
X219079295Y-132470551D02*
X219041200Y-132432456D01*
X219041200Y-132432456D02*
X219003104Y-132356265D01*
X219003104Y-132356265D02*
X219003104Y-132280075D01*
X219003104Y-132280075D02*
X219041200Y-132203884D01*
X219041200Y-132203884D02*
X219079295Y-132165789D01*
X219079295Y-132165789D02*
X219155485Y-132127694D01*
X219155485Y-132127694D02*
X219307866Y-132089598D01*
X219307866Y-132089598D02*
X219498342Y-132089598D01*
X219498342Y-132089598D02*
X219650723Y-132127694D01*
X219650723Y-132127694D02*
X219726914Y-132165789D01*
X219726914Y-132165789D02*
X219765009Y-132203884D01*
X219765009Y-132203884D02*
X219803104Y-132280075D01*
X212434990Y-128324687D02*
X212396895Y-128400877D01*
X212396895Y-128400877D02*
X212396895Y-128515163D01*
X212396895Y-128515163D02*
X212434990Y-128629449D01*
X212434990Y-128629449D02*
X212511180Y-128705639D01*
X212511180Y-128705639D02*
X212587371Y-128743734D01*
X212587371Y-128743734D02*
X212739752Y-128781830D01*
X212739752Y-128781830D02*
X212854038Y-128781830D01*
X212854038Y-128781830D02*
X213006419Y-128743734D01*
X213006419Y-128743734D02*
X213082609Y-128705639D01*
X213082609Y-128705639D02*
X213158800Y-128629449D01*
X213158800Y-128629449D02*
X213196895Y-128515163D01*
X213196895Y-128515163D02*
X213196895Y-128438972D01*
X213196895Y-128438972D02*
X213158800Y-128324687D01*
X213158800Y-128324687D02*
X213120704Y-128286591D01*
X213120704Y-128286591D02*
X212854038Y-128286591D01*
X212854038Y-128286591D02*
X212854038Y-128438972D01*
X213196895Y-127943734D02*
X212396895Y-127943734D01*
X212396895Y-127943734D02*
X213196895Y-127486591D01*
X213196895Y-127486591D02*
X212396895Y-127486591D01*
X213196895Y-127105639D02*
X212396895Y-127105639D01*
X212396895Y-127105639D02*
X212396895Y-126915163D01*
X212396895Y-126915163D02*
X212434990Y-126800877D01*
X212434990Y-126800877D02*
X212511180Y-126724687D01*
X212511180Y-126724687D02*
X212587371Y-126686592D01*
X212587371Y-126686592D02*
X212739752Y-126648496D01*
X212739752Y-126648496D02*
X212854038Y-126648496D01*
X212854038Y-126648496D02*
X213006419Y-126686592D01*
X213006419Y-126686592D02*
X213082609Y-126724687D01*
X213082609Y-126724687D02*
X213158800Y-126800877D01*
X213158800Y-126800877D02*
X213196895Y-126915163D01*
X213196895Y-126915163D02*
X213196895Y-127105639D01*
X210858800Y-128681830D02*
X210896895Y-128567544D01*
X210896895Y-128567544D02*
X210896895Y-128377068D01*
X210896895Y-128377068D02*
X210858800Y-128300877D01*
X210858800Y-128300877D02*
X210820704Y-128262782D01*
X210820704Y-128262782D02*
X210744514Y-128224687D01*
X210744514Y-128224687D02*
X210668323Y-128224687D01*
X210668323Y-128224687D02*
X210592133Y-128262782D01*
X210592133Y-128262782D02*
X210554038Y-128300877D01*
X210554038Y-128300877D02*
X210515942Y-128377068D01*
X210515942Y-128377068D02*
X210477847Y-128529449D01*
X210477847Y-128529449D02*
X210439752Y-128605639D01*
X210439752Y-128605639D02*
X210401657Y-128643734D01*
X210401657Y-128643734D02*
X210325466Y-128681830D01*
X210325466Y-128681830D02*
X210249276Y-128681830D01*
X210249276Y-128681830D02*
X210173085Y-128643734D01*
X210173085Y-128643734D02*
X210134990Y-128605639D01*
X210134990Y-128605639D02*
X210096895Y-128529449D01*
X210096895Y-128529449D02*
X210096895Y-128338972D01*
X210096895Y-128338972D02*
X210134990Y-128224687D01*
X210896895Y-127881829D02*
X210096895Y-127881829D01*
X210096895Y-127881829D02*
X210096895Y-127691353D01*
X210096895Y-127691353D02*
X210134990Y-127577067D01*
X210134990Y-127577067D02*
X210211180Y-127500877D01*
X210211180Y-127500877D02*
X210287371Y-127462782D01*
X210287371Y-127462782D02*
X210439752Y-127424686D01*
X210439752Y-127424686D02*
X210554038Y-127424686D01*
X210554038Y-127424686D02*
X210706419Y-127462782D01*
X210706419Y-127462782D02*
X210782609Y-127500877D01*
X210782609Y-127500877D02*
X210858800Y-127577067D01*
X210858800Y-127577067D02*
X210896895Y-127691353D01*
X210896895Y-127691353D02*
X210896895Y-127881829D01*
X210668323Y-127119925D02*
X210668323Y-126738972D01*
X210896895Y-127196115D02*
X210096895Y-126929448D01*
X210096895Y-126929448D02*
X210896895Y-126662782D01*
D11*
X209766666Y-121454819D02*
X209766666Y-122169104D01*
X209766666Y-122169104D02*
X209719047Y-122311961D01*
X209719047Y-122311961D02*
X209623809Y-122407200D01*
X209623809Y-122407200D02*
X209480952Y-122454819D01*
X209480952Y-122454819D02*
X209385714Y-122454819D01*
X210766666Y-122454819D02*
X210195238Y-122454819D01*
X210480952Y-122454819D02*
X210480952Y-121454819D01*
X210480952Y-121454819D02*
X210385714Y-121597676D01*
X210385714Y-121597676D02*
X210290476Y-121692914D01*
X210290476Y-121692914D02*
X210195238Y-121740533D01*
X224433333Y-134159580D02*
X224385714Y-134207200D01*
X224385714Y-134207200D02*
X224242857Y-134254819D01*
X224242857Y-134254819D02*
X224147619Y-134254819D01*
X224147619Y-134254819D02*
X224004762Y-134207200D01*
X224004762Y-134207200D02*
X223909524Y-134111961D01*
X223909524Y-134111961D02*
X223861905Y-134016723D01*
X223861905Y-134016723D02*
X223814286Y-133826247D01*
X223814286Y-133826247D02*
X223814286Y-133683390D01*
X223814286Y-133683390D02*
X223861905Y-133492914D01*
X223861905Y-133492914D02*
X223909524Y-133397676D01*
X223909524Y-133397676D02*
X224004762Y-133302438D01*
X224004762Y-133302438D02*
X224147619Y-133254819D01*
X224147619Y-133254819D02*
X224242857Y-133254819D01*
X224242857Y-133254819D02*
X224385714Y-133302438D01*
X224385714Y-133302438D02*
X224433333Y-133350057D01*
X224814286Y-133350057D02*
X224861905Y-133302438D01*
X224861905Y-133302438D02*
X224957143Y-133254819D01*
X224957143Y-133254819D02*
X225195238Y-133254819D01*
X225195238Y-133254819D02*
X225290476Y-133302438D01*
X225290476Y-133302438D02*
X225338095Y-133350057D01*
X225338095Y-133350057D02*
X225385714Y-133445295D01*
X225385714Y-133445295D02*
X225385714Y-133540533D01*
X225385714Y-133540533D02*
X225338095Y-133683390D01*
X225338095Y-133683390D02*
X224766667Y-134254819D01*
X224766667Y-134254819D02*
X225385714Y-134254819D01*
X220933333Y-122254819D02*
X220600000Y-121778628D01*
X220361905Y-122254819D02*
X220361905Y-121254819D01*
X220361905Y-121254819D02*
X220742857Y-121254819D01*
X220742857Y-121254819D02*
X220838095Y-121302438D01*
X220838095Y-121302438D02*
X220885714Y-121350057D01*
X220885714Y-121350057D02*
X220933333Y-121445295D01*
X220933333Y-121445295D02*
X220933333Y-121588152D01*
X220933333Y-121588152D02*
X220885714Y-121683390D01*
X220885714Y-121683390D02*
X220838095Y-121731009D01*
X220838095Y-121731009D02*
X220742857Y-121778628D01*
X220742857Y-121778628D02*
X220361905Y-121778628D01*
X221266667Y-121254819D02*
X221885714Y-121254819D01*
X221885714Y-121254819D02*
X221552381Y-121635771D01*
X221552381Y-121635771D02*
X221695238Y-121635771D01*
X221695238Y-121635771D02*
X221790476Y-121683390D01*
X221790476Y-121683390D02*
X221838095Y-121731009D01*
X221838095Y-121731009D02*
X221885714Y-121826247D01*
X221885714Y-121826247D02*
X221885714Y-122064342D01*
X221885714Y-122064342D02*
X221838095Y-122159580D01*
X221838095Y-122159580D02*
X221790476Y-122207200D01*
X221790476Y-122207200D02*
X221695238Y-122254819D01*
X221695238Y-122254819D02*
X221409524Y-122254819D01*
X221409524Y-122254819D02*
X221314286Y-122207200D01*
X221314286Y-122207200D02*
X221266667Y-122159580D01*
X216538095Y-128854819D02*
X216538095Y-129664342D01*
X216538095Y-129664342D02*
X216585714Y-129759580D01*
X216585714Y-129759580D02*
X216633333Y-129807200D01*
X216633333Y-129807200D02*
X216728571Y-129854819D01*
X216728571Y-129854819D02*
X216919047Y-129854819D01*
X216919047Y-129854819D02*
X217014285Y-129807200D01*
X217014285Y-129807200D02*
X217061904Y-129759580D01*
X217061904Y-129759580D02*
X217109523Y-129664342D01*
X217109523Y-129664342D02*
X217109523Y-128854819D01*
X217538095Y-128950057D02*
X217585714Y-128902438D01*
X217585714Y-128902438D02*
X217680952Y-128854819D01*
X217680952Y-128854819D02*
X217919047Y-128854819D01*
X217919047Y-128854819D02*
X218014285Y-128902438D01*
X218014285Y-128902438D02*
X218061904Y-128950057D01*
X218061904Y-128950057D02*
X218109523Y-129045295D01*
X218109523Y-129045295D02*
X218109523Y-129140533D01*
X218109523Y-129140533D02*
X218061904Y-129283390D01*
X218061904Y-129283390D02*
X217490476Y-129854819D01*
X217490476Y-129854819D02*
X218109523Y-129854819D01*
X217333333Y-126354819D02*
X217000000Y-125878628D01*
X216761905Y-126354819D02*
X216761905Y-125354819D01*
X216761905Y-125354819D02*
X217142857Y-125354819D01*
X217142857Y-125354819D02*
X217238095Y-125402438D01*
X217238095Y-125402438D02*
X217285714Y-125450057D01*
X217285714Y-125450057D02*
X217333333Y-125545295D01*
X217333333Y-125545295D02*
X217333333Y-125688152D01*
X217333333Y-125688152D02*
X217285714Y-125783390D01*
X217285714Y-125783390D02*
X217238095Y-125831009D01*
X217238095Y-125831009D02*
X217142857Y-125878628D01*
X217142857Y-125878628D02*
X216761905Y-125878628D01*
X218285714Y-126354819D02*
X217714286Y-126354819D01*
X218000000Y-126354819D02*
X218000000Y-125354819D01*
X218000000Y-125354819D02*
X217904762Y-125497676D01*
X217904762Y-125497676D02*
X217809524Y-125592914D01*
X217809524Y-125592914D02*
X217714286Y-125640533D01*
X221638095Y-127804819D02*
X221638095Y-128614342D01*
X221638095Y-128614342D02*
X221685714Y-128709580D01*
X221685714Y-128709580D02*
X221733333Y-128757200D01*
X221733333Y-128757200D02*
X221828571Y-128804819D01*
X221828571Y-128804819D02*
X222019047Y-128804819D01*
X222019047Y-128804819D02*
X222114285Y-128757200D01*
X222114285Y-128757200D02*
X222161904Y-128709580D01*
X222161904Y-128709580D02*
X222209523Y-128614342D01*
X222209523Y-128614342D02*
X222209523Y-127804819D01*
X223209523Y-128804819D02*
X222638095Y-128804819D01*
X222923809Y-128804819D02*
X222923809Y-127804819D01*
X222923809Y-127804819D02*
X222828571Y-127947676D01*
X222828571Y-127947676D02*
X222733333Y-128042914D01*
X222733333Y-128042914D02*
X222638095Y-128090533D01*
X225633333Y-128359580D02*
X225585714Y-128407200D01*
X225585714Y-128407200D02*
X225442857Y-128454819D01*
X225442857Y-128454819D02*
X225347619Y-128454819D01*
X225347619Y-128454819D02*
X225204762Y-128407200D01*
X225204762Y-128407200D02*
X225109524Y-128311961D01*
X225109524Y-128311961D02*
X225061905Y-128216723D01*
X225061905Y-128216723D02*
X225014286Y-128026247D01*
X225014286Y-128026247D02*
X225014286Y-127883390D01*
X225014286Y-127883390D02*
X225061905Y-127692914D01*
X225061905Y-127692914D02*
X225109524Y-127597676D01*
X225109524Y-127597676D02*
X225204762Y-127502438D01*
X225204762Y-127502438D02*
X225347619Y-127454819D01*
X225347619Y-127454819D02*
X225442857Y-127454819D01*
X225442857Y-127454819D02*
X225585714Y-127502438D01*
X225585714Y-127502438D02*
X225633333Y-127550057D01*
X225966667Y-127454819D02*
X226585714Y-127454819D01*
X226585714Y-127454819D02*
X226252381Y-127835771D01*
X226252381Y-127835771D02*
X226395238Y-127835771D01*
X226395238Y-127835771D02*
X226490476Y-127883390D01*
X226490476Y-127883390D02*
X226538095Y-127931009D01*
X226538095Y-127931009D02*
X226585714Y-128026247D01*
X226585714Y-128026247D02*
X226585714Y-128264342D01*
X226585714Y-128264342D02*
X226538095Y-128359580D01*
X226538095Y-128359580D02*
X226490476Y-128407200D01*
X226490476Y-128407200D02*
X226395238Y-128454819D01*
X226395238Y-128454819D02*
X226109524Y-128454819D01*
X226109524Y-128454819D02*
X226014286Y-128407200D01*
X226014286Y-128407200D02*
X225966667Y-128359580D01*
X214533333Y-134159580D02*
X214485714Y-134207200D01*
X214485714Y-134207200D02*
X214342857Y-134254819D01*
X214342857Y-134254819D02*
X214247619Y-134254819D01*
X214247619Y-134254819D02*
X214104762Y-134207200D01*
X214104762Y-134207200D02*
X214009524Y-134111961D01*
X214009524Y-134111961D02*
X213961905Y-134016723D01*
X213961905Y-134016723D02*
X213914286Y-133826247D01*
X213914286Y-133826247D02*
X213914286Y-133683390D01*
X213914286Y-133683390D02*
X213961905Y-133492914D01*
X213961905Y-133492914D02*
X214009524Y-133397676D01*
X214009524Y-133397676D02*
X214104762Y-133302438D01*
X214104762Y-133302438D02*
X214247619Y-133254819D01*
X214247619Y-133254819D02*
X214342857Y-133254819D01*
X214342857Y-133254819D02*
X214485714Y-133302438D01*
X214485714Y-133302438D02*
X214533333Y-133350057D01*
X215485714Y-134254819D02*
X214914286Y-134254819D01*
X215200000Y-134254819D02*
X215200000Y-133254819D01*
X215200000Y-133254819D02*
X215104762Y-133397676D01*
X215104762Y-133397676D02*
X215009524Y-133492914D01*
X215009524Y-133492914D02*
X214914286Y-133540533D01*
X220933333Y-124454819D02*
X220600000Y-123978628D01*
X220361905Y-124454819D02*
X220361905Y-123454819D01*
X220361905Y-123454819D02*
X220742857Y-123454819D01*
X220742857Y-123454819D02*
X220838095Y-123502438D01*
X220838095Y-123502438D02*
X220885714Y-123550057D01*
X220885714Y-123550057D02*
X220933333Y-123645295D01*
X220933333Y-123645295D02*
X220933333Y-123788152D01*
X220933333Y-123788152D02*
X220885714Y-123883390D01*
X220885714Y-123883390D02*
X220838095Y-123931009D01*
X220838095Y-123931009D02*
X220742857Y-123978628D01*
X220742857Y-123978628D02*
X220361905Y-123978628D01*
X221314286Y-123550057D02*
X221361905Y-123502438D01*
X221361905Y-123502438D02*
X221457143Y-123454819D01*
X221457143Y-123454819D02*
X221695238Y-123454819D01*
X221695238Y-123454819D02*
X221790476Y-123502438D01*
X221790476Y-123502438D02*
X221838095Y-123550057D01*
X221838095Y-123550057D02*
X221885714Y-123645295D01*
X221885714Y-123645295D02*
X221885714Y-123740533D01*
X221885714Y-123740533D02*
X221838095Y-123883390D01*
X221838095Y-123883390D02*
X221266667Y-124454819D01*
X221266667Y-124454819D02*
X221885714Y-124454819D01*
D12*
%TO.C,J1*%
X208915000Y-121040000D02*
X212400000Y-121040000D01*
X208915000Y-126760000D02*
X208915000Y-121040000D01*
X209985000Y-126460000D02*
X209985000Y-126760000D01*
X209985000Y-126760000D02*
X208915000Y-126760000D01*
X212400000Y-126460000D02*
X209985000Y-126460000D01*
X212400000Y-126460000D02*
X214815000Y-126460000D01*
X214525000Y-126750000D02*
X214525000Y-127050000D01*
X214525000Y-127050000D02*
X215025000Y-127050000D01*
X214815000Y-126460000D02*
X214815000Y-126760000D01*
X214815000Y-126760000D02*
X215885000Y-126760000D01*
X215885000Y-121040000D02*
X212400000Y-121040000D01*
X215885000Y-126760000D02*
X215885000Y-121040000D01*
%TO.C,C2*%
X221961252Y-132865000D02*
X221438748Y-132865000D01*
X221961252Y-134335000D02*
X221438748Y-134335000D01*
%TO.C,R3*%
X218527064Y-121065000D02*
X218072936Y-121065000D01*
X218527064Y-122535000D02*
X218072936Y-122535000D01*
D10*
%TO.C,U2*%
X217150000Y-130500000D02*
X217150000Y-131900000D01*
X218650000Y-130500000D02*
X218650000Y-131900000D01*
X218750000Y-130200000D02*
G75*
G02*
X218650000Y-130200000I-50000J0D01*
G01*
X218650000Y-130200000D02*
G75*
G02*
X218750000Y-130200000I50000J0D01*
G01*
D12*
%TO.C,R1*%
X218565000Y-126972936D02*
X218565000Y-127427064D01*
X220035000Y-126972936D02*
X220035000Y-127427064D01*
D13*
%TO.C,U1*%
X221880000Y-131920000D02*
X221880000Y-129480000D01*
X224520000Y-129480000D02*
X224520000Y-131920000D01*
D14*
X224670000Y-128710000D02*
G75*
G02*
X224470000Y-128710000I-100000J0D01*
G01*
X224470000Y-128710000D02*
G75*
G02*
X224670000Y-128710000I100000J0D01*
G01*
D12*
%TO.C,C3*%
X225065000Y-130238748D02*
X225065000Y-130761252D01*
X226535000Y-130238748D02*
X226535000Y-130761252D01*
%TO.C,C1*%
X217338748Y-132865000D02*
X217861252Y-132865000D01*
X217338748Y-134335000D02*
X217861252Y-134335000D01*
%TO.C,R2*%
X218527064Y-123265000D02*
X218072936Y-123265000D01*
X218527064Y-124735000D02*
X218072936Y-124735000D01*
%TD*%
M02*
