%TF.GenerationSoftware,KiCad,Pcbnew,9.0.2*%
%TF.CreationDate,2025-08-08T16:16:35-07:00*%
%TF.ProjectId,EnvironmentSensor2,456e7669-726f-46e6-9d65-6e7453656e73,0.1*%
%TF.SameCoordinates,Original*%
%TF.FileFunction,Copper,L1,Top*%
%TF.FilePolarity,Positive*%
%FSLAX46Y46*%
G04 Gerber Fmt 4.6, Leading zero omitted, Abs format (unit mm)*
G04 Created by KiCad (PCBNEW 9.0.2) date 2025-08-08 16:16:35*
%MOMM*%
%LPD*%
G01*
G04 APERTURE LIST*
G04 Aperture macros list*
%AMRoundRect*
0 Rectangle with rounded corners*
0 $1 Rounding radius*
0 $2 $3 $4 $5 $6 $7 $8 $9 X,Y pos of 4 corners*
0 Add a 4 corners polygon primitive as box body*
4,1,4,$2,$3,$4,$5,$6,$7,$8,$9,$2,$3,0*
0 Add four circle primitives for the rounded corners*
1,1,$1+$1,$2,$3*
1,1,$1+$1,$4,$5*
1,1,$1+$1,$6,$7*
1,1,$1+$1,$8,$9*
0 Add four rect primitives between the rounded corners*
20,1,$1+$1,$2,$3,$4,$5,0*
20,1,$1+$1,$4,$5,$6,$7,0*
20,1,$1+$1,$6,$7,$8,$9,0*
20,1,$1+$1,$8,$9,$2,$3,0*%
%AMFreePoly0*
4,1,14,0.628536,0.853536,0.630000,0.850000,0.630000,-0.850000,0.628536,-0.853536,0.625000,-0.855000,-0.625000,-0.855000,-0.628536,-0.853536,-0.630000,-0.850000,-0.630000,0.550000,-0.628536,0.553536,-0.328536,0.853536,-0.325000,0.855000,0.625000,0.855000,0.628536,0.853536,0.628536,0.853536,$1*%
G04 Aperture macros list end*
%TA.AperFunction,ComponentPad*%
%ADD10RoundRect,0.200000X0.200000X0.450000X-0.200000X0.450000X-0.200000X-0.450000X0.200000X-0.450000X0*%
%TD*%
%TA.AperFunction,ComponentPad*%
%ADD11O,0.800000X1.300000*%
%TD*%
%TA.AperFunction,SMDPad,CuDef*%
%ADD12RoundRect,0.250000X0.337500X0.475000X-0.337500X0.475000X-0.337500X-0.475000X0.337500X-0.475000X0*%
%TD*%
%TA.AperFunction,SMDPad,CuDef*%
%ADD13RoundRect,0.250000X0.350000X0.450000X-0.350000X0.450000X-0.350000X-0.450000X0.350000X-0.450000X0*%
%TD*%
%TA.AperFunction,SMDPad,CuDef*%
%ADD14R,0.300000X0.500000*%
%TD*%
%TA.AperFunction,SMDPad,CuDef*%
%ADD15RoundRect,0.250000X-0.450000X0.350000X-0.450000X-0.350000X0.450000X-0.350000X0.450000X0.350000X0*%
%TD*%
%TA.AperFunction,SMDPad,CuDef*%
%ADD16R,0.400000X0.550000*%
%TD*%
%TA.AperFunction,SMDPad,CuDef*%
%ADD17FreePoly0,270.000000*%
%TD*%
%TA.AperFunction,SMDPad,CuDef*%
%ADD18RoundRect,0.250000X-0.475000X0.337500X-0.475000X-0.337500X0.475000X-0.337500X0.475000X0.337500X0*%
%TD*%
%TA.AperFunction,SMDPad,CuDef*%
%ADD19RoundRect,0.250000X-0.337500X-0.475000X0.337500X-0.475000X0.337500X0.475000X-0.337500X0.475000X0*%
%TD*%
%TA.AperFunction,ViaPad*%
%ADD20C,0.800000*%
%TD*%
%TA.AperFunction,Conductor*%
%ADD21C,0.250000*%
%TD*%
G04 APERTURE END LIST*
D10*
%TO.P,J1,1,Pin_1*%
%TO.N,+3V3*%
X214275000Y-125600000D03*
D11*
%TO.P,J1,2,Pin_2*%
%TO.N,GND*%
X213025000Y-125600000D03*
%TO.P,J1,3,Pin_3*%
%TO.N,Net-(J1-Pin_3)*%
X211775000Y-125600000D03*
%TO.P,J1,4,Pin_4*%
%TO.N,Net-(J1-Pin_4)*%
X210525000Y-125600000D03*
%TD*%
D12*
%TO.P,C2,1*%
%TO.N,+3V3*%
X222737500Y-133600000D03*
%TO.P,C2,2*%
%TO.N,GND*%
X220662500Y-133600000D03*
%TD*%
D13*
%TO.P,R3,1*%
%TO.N,+3V3*%
X219300000Y-121800000D03*
%TO.P,R3,2*%
%TO.N,Net-(J1-Pin_4)*%
X217300000Y-121800000D03*
%TD*%
D14*
%TO.P,U2,1,SDA*%
%TO.N,Net-(J1-Pin_4)*%
X218300000Y-130500000D03*
%TO.P,U2,2,SCL*%
%TO.N,Net-(J1-Pin_3)*%
X217500000Y-130500000D03*
%TO.P,U2,3,VDD*%
%TO.N,+3V3*%
X217500000Y-131900000D03*
%TO.P,U2,4,VSS*%
%TO.N,GND*%
X218300000Y-131900000D03*
%TD*%
D15*
%TO.P,R1,1*%
%TO.N,+3V3*%
X219300000Y-126200000D03*
%TO.P,R1,2*%
%TO.N,Net-(U1-VDD)*%
X219300000Y-128200000D03*
%TD*%
D16*
%TO.P,U1,1,VDD*%
%TO.N,Net-(U1-VDD)*%
X224000000Y-129550000D03*
%TO.P,U1,2,VSS*%
%TO.N,GND*%
X223200000Y-129550000D03*
%TO.P,U1,3,SDA*%
%TO.N,Net-(J1-Pin_4)*%
X222400000Y-129550000D03*
%TO.P,U1,4,N/A*%
%TO.N,GND*%
X222400000Y-131850000D03*
%TO.P,U1,5,VDDH*%
%TO.N,+3V3*%
X223200000Y-131850000D03*
%TO.P,U1,6,SCL*%
%TO.N,Net-(J1-Pin_3)*%
X224000000Y-131850000D03*
D17*
%TO.P,U1,7,EXP*%
%TO.N,GND*%
X223200000Y-130700000D03*
%TD*%
D18*
%TO.P,C3,1*%
%TO.N,Net-(U1-VDD)*%
X225800000Y-129462500D03*
%TO.P,C3,2*%
%TO.N,GND*%
X225800000Y-131537500D03*
%TD*%
D19*
%TO.P,C1,1*%
%TO.N,+3V3*%
X216562500Y-133600000D03*
%TO.P,C1,2*%
%TO.N,GND*%
X218637500Y-133600000D03*
%TD*%
D13*
%TO.P,R2,1*%
%TO.N,+3V3*%
X219300000Y-124000000D03*
%TO.P,R2,2*%
%TO.N,Net-(J1-Pin_3)*%
X217300000Y-124000000D03*
%TD*%
D20*
%TO.N,+3V3*%
X216000000Y-129800000D03*
X220300000Y-131800000D03*
%TO.N,GND*%
X219400000Y-130600000D03*
%TO.N,Net-(J1-Pin_4)*%
X217837347Y-129162653D03*
%TO.N,Net-(J1-Pin_3)*%
X224000000Y-133100000D03*
X217112653Y-126387347D03*
%TD*%
D21*
%TO.N,+3V3*%
X218300000Y-126200000D02*
X217700000Y-125600000D01*
X222737500Y-133600000D02*
X220937500Y-131800000D01*
X223200000Y-133137500D02*
X223200000Y-131850000D01*
X217500000Y-132700000D02*
X217500000Y-131900000D01*
X217700000Y-125600000D02*
X214275000Y-125600000D01*
X219300000Y-121800000D02*
X219300000Y-124000000D01*
X219300000Y-124000000D02*
X217700000Y-125600000D01*
X220937500Y-131800000D02*
X220300000Y-131800000D01*
X216000000Y-129800000D02*
X214275000Y-128075000D01*
X216600000Y-133600000D02*
X217500000Y-132700000D01*
X219300000Y-126200000D02*
X218300000Y-126200000D01*
X216100000Y-129900000D02*
X216100000Y-133137500D01*
X216000000Y-129800000D02*
X216100000Y-129900000D01*
X214275000Y-128075000D02*
X214275000Y-125600000D01*
%TO.N,GND*%
X222400000Y-131500000D02*
X223200000Y-130700000D01*
X223200000Y-129550000D02*
X223200000Y-130700000D01*
X220662500Y-133262500D02*
X219500000Y-132100000D01*
X222400000Y-131850000D02*
X222400000Y-131500000D01*
X219500000Y-132100000D02*
X219500000Y-130700000D01*
X218637500Y-133600000D02*
X218637500Y-132837500D01*
X224962500Y-130700000D02*
X223200000Y-130700000D01*
X225800000Y-131537500D02*
X224962500Y-130700000D01*
X218637500Y-132837500D02*
X218300000Y-132500000D01*
X223200000Y-130700000D02*
X219500000Y-130700000D01*
X218300000Y-132500000D02*
X218300000Y-131900000D01*
X218637500Y-133162500D02*
X219500000Y-132300000D01*
X219500000Y-132300000D02*
X219500000Y-132100000D01*
X219500000Y-130700000D02*
X219400000Y-130600000D01*
%TO.N,Net-(U1-VDD)*%
X224937500Y-128600000D02*
X225800000Y-129462500D01*
X224000000Y-129550000D02*
X224000000Y-129000000D01*
X220700000Y-128200000D02*
X219300000Y-128200000D01*
X224000000Y-129000000D02*
X223600000Y-128600000D01*
X221100000Y-128600000D02*
X223600000Y-128600000D01*
X220700000Y-128200000D02*
X221100000Y-128600000D01*
X223600000Y-128600000D02*
X224937500Y-128600000D01*
%TO.N,Net-(J1-Pin_4)*%
X217837347Y-129237347D02*
X218150000Y-129550000D01*
X218300000Y-129550000D02*
X218300000Y-130500000D01*
X217300000Y-121800000D02*
X213925000Y-121800000D01*
X222400000Y-129550000D02*
X218300000Y-129550000D01*
X218150000Y-129550000D02*
X218300000Y-129550000D01*
X213925000Y-121800000D02*
X210525000Y-125200000D01*
X217837347Y-129162653D02*
X217837347Y-129237347D01*
%TO.N,Net-(J1-Pin_3)*%
X217300000Y-124000000D02*
X212975000Y-124000000D01*
X224000000Y-133100000D02*
X224000000Y-131850000D01*
X217500000Y-130100000D02*
X217500000Y-130500000D01*
X217100000Y-126400000D02*
X217100000Y-129700000D01*
X217100000Y-129700000D02*
X217500000Y-130100000D01*
X217112653Y-126387347D02*
X217100000Y-126400000D01*
X212975000Y-124000000D02*
X211775000Y-125200000D01*
%TD*%
M02*
