999
"DXF R12 Output" (www.mydxf.blogspot.com)
 0 
SECTION
 2 
HEADER
 9 
$ACADVER
 1 
AC1009
 9 
$EXTMIN
 10 
 0 
 20 
 0 
 9 
$EXTMAX
 10 
 8.5 
 20 
 11 
 0 
ENDSEC
 0 
SECTION
 2 
ENTITIES
0
LINE
8
Layer 1
10
0.793749
20
610.393749
11
-0.793749
21
608.806251
0
LINE
8
Layer 1
10
0.000000
20
610.922915
11
0.000000
21
608.277085
0
LINE
8
Layer 1
10
2.116664
20
608.541668
11
1.058332
21
607.483336
0
LINE
8
Layer 1
10
1.587498
20
609.070834
11
0.529166
21
608.012502
0
LINE
8
Layer 1
10
1.058332
20
609.600000
11
0.000000
21
608.541668
0
LINE
8
0
10
345.122727
20
415.080899
11
341.947731
21
415.080899
0
LINE
8
0
10
341.947731
20
415.080899
11
341.947731
21
421.430891
0
LINE
8
0
10
341.947731
20
421.430891
11
345.122727
21
421.430891
0
LINE
8
0
10
345.122727
20
421.430891
11
345.122727
21
415.080899
0
LINE
8
0
10
345.122727
20
453.180851
11
341.947731
21
453.180851
0
LINE
8
0
10
341.947731
20
453.180851
11
341.947731
21
459.530853
0
LINE
8
0
10
341.947731
20
459.530853
11
345.122727
21
459.530853
0
LINE
8
0
10
345.122727
20
459.530853
11
345.122727
21
453.180851
0
LINE
8
0
10
345.122727
20
402.380915
11
341.947731
21
402.380915
0
LINE
8
0
10
341.947731
20
402.380915
11
341.947731
21
408.730907
0
LINE
8
0
10
341.947731
20
408.730907
11
345.122727
21
408.730907
0
LINE
8
0
10
345.122727
20
408.730907
11
345.122727
21
402.380915
0
LINE
8
0
10
345.122727
20
427.780883
11
341.947731
21
427.780883
0
LINE
8
0
10
341.947731
20
427.780883
11
341.947731
21
434.130875
0
LINE
8
0
10
341.947731
20
434.130875
11
345.122727
21
434.130875
0
LINE
8
0
10
345.122727
20
434.130875
11
345.122727
21
427.780883
0
LINE
8
0
10
345.122727
20
440.480867
11
341.947731
21
440.480867
0
LINE
8
0
10
341.947731
20
440.480867
11
341.947731
21
446.830859
0
LINE
8
0
10
341.947731
20
446.830859
11
345.122727
21
446.830859
0
LINE
8
0
10
345.122727
20
446.830859
11
345.122727
21
440.480867
0
LINE
8
0
10
345.122727
20
389.680931
11
341.947731
21
389.680931
0
LINE
8
0
10
341.947731
20
389.680931
11
341.947731
21
396.030923
0
LINE
8
0
10
341.947731
20
396.030923
11
345.122727
21
396.030923
0
LINE
8
0
10
345.122727
20
396.030923
11
345.122727
21
389.680931
0
LINE
8
0
10
105.248030
20
273.956092
11
25.248131
21
273.956092
0
LINE
8
0
10
25.248131
20
273.956092
11
25.248131
21
303.956047
0
LINE
8
0
10
25.248131
20
303.956047
11
105.248030
21
303.956047
0
LINE
8
0
10
105.248030
20
303.956047
11
105.248030
21
273.956092
0
LINE
8
0
10
105.248030
20
575.255708
11
105.248030
21
545.255745
0
LINE
8
0
10
105.248030
20
545.255745
11
25.248131
21
545.255745
0
LINE
8
0
10
25.248131
20
545.255745
11
25.248131
21
575.255708
0
LINE
8
0
10
25.248131
20
575.255708
11
105.248030
21
575.255708
0
LINE
8
0
10
12.548147
20
576.205707
11
12.548147
21
273.006106
0
LINE
8
0
10
12.548147
20
273.006106
11
12.672437
21
270.495632
0
LINE
8
0
10
12.672437
20
270.495632
11
13.040710
21
268.027679
0
LINE
8
0
10
13.040710
20
268.027679
11
13.646065
21
265.618903
0
LINE
8
0
10
13.646065
20
265.618903
11
14.481604
21
263.285959
0
LINE
8
0
10
14.481604
20
263.285959
11
15.540429
21
261.045503
0
LINE
8
0
10
15.540429
20
261.045503
11
16.815640
21
258.914191
0
LINE
8
0
10
16.815640
20
258.914191
11
18.300338
21
256.908677
0
LINE
8
0
10
18.300338
20
256.908677
11
19.987625
21
255.045616
0
LINE
8
0
10
19.987625
20
255.045616
11
21.850686
21
253.358329
0
LINE
8
0
10
21.850686
20
253.358329
11
23.856200
21
251.873631
0
LINE
8
0
10
23.856200
20
251.873631
11
25.987513
21
250.598420
0
LINE
8
0
10
25.987513
20
250.598420
11
28.227968
21
249.539595
0
LINE
8
0
10
28.227968
20
249.539595
11
30.560912
21
248.704056
0
LINE
8
0
10
30.560912
20
248.704056
11
32.969688
21
248.098701
0
LINE
8
0
10
32.969688
20
248.098701
11
35.437641
21
247.730429
0
LINE
8
0
10
35.437641
20
247.730429
11
37.948116
21
247.606138
0
LINE
8
0
10
37.948116
20
247.606138
11
189.547928
21
247.606138
0
LINE
8
0
10
189.547928
20
247.606138
11
198.654196
21
247.839274
0
LINE
8
0
10
198.654196
20
247.839274
11
207.640830
21
248.525385
0
LINE
8
0
10
207.640830
20
248.525385
11
216.496715
21
249.653354
0
LINE
8
0
10
216.496715
20
249.653354
11
225.210739
21
251.212066
0
LINE
8
0
10
225.210739
20
251.212066
11
233.771791
21
253.190405
0
LINE
8
0
10
233.771791
20
253.190405
11
242.168756
21
255.577255
0
LINE
8
0
10
242.168756
20
255.577255
11
250.390524
21
258.361498
0
LINE
8
0
10
250.390524
20
258.361498
11
258.425980
21
261.532020
0
LINE
8
0
10
258.425980
20
261.532020
11
266.264013
21
265.077704
0
LINE
8
0
10
266.264013
20
265.077704
11
273.893509
21
268.987433
0
LINE
8
0
10
273.893509
20
268.987433
11
281.303357
21
273.250092
0
LINE
8
0
10
281.303357
20
273.250092
11
288.482443
21
277.854564
0
LINE
8
0
10
288.482443
20
277.854564
11
295.419655
21
282.789733
0
LINE
8
0
10
295.419655
20
282.789733
11
302.103881
21
288.044484
0
LINE
8
0
10
302.103881
20
288.044484
11
308.524007
21
293.607699
0
LINE
8
0
10
308.524007
20
293.607699
11
314.668922
21
299.468263
0
LINE
8
0
10
314.668922
20
299.468263
11
320.527512
21
305.615060
0
LINE
8
0
10
320.527512
20
305.615060
11
326.088665
21
312.036972
0
LINE
8
0
10
326.088665
20
312.036972
11
331.341269
21
318.722885
0
LINE
8
0
10
331.341269
20
318.722885
11
336.274210
21
325.661682
0
LINE
8
0
10
336.274210
20
325.661682
11
340.876376
21
332.842247
0
LINE
8
0
10
340.876376
20
332.842247
11
345.136655
21
340.253463
0
LINE
8
0
10
345.136655
20
340.253463
11
349.043934
21
347.884215
0
LINE
8
0
10
349.043934
20
347.884215
11
352.587100
21
355.723386
0
LINE
8
0
10
352.587100
20
355.723386
11
355.755041
21
363.759860
0
LINE
8
0
10
355.755041
20
363.759860
11
358.536644
21
371.982521
0
LINE
8
0
10
358.536644
20
371.982521
11
360.920797
21
380.380253
0
LINE
8
0
10
360.920797
20
380.380253
11
362.896386
21
388.941939
0
LINE
8
0
10
362.896386
20
388.941939
11
364.452300
21
397.656464
0
LINE
8
0
10
364.452300
20
397.656464
11
365.577425
21
406.512711
0
LINE
8
0
10
365.577425
20
406.512711
11
366.260650
21
415.499564
0
LINE
8
0
10
366.260650
20
415.499564
11
366.490861
21
424.605907
0
LINE
8
0
10
366.490861
20
424.605907
11
366.260650
21
433.712250
0
LINE
8
0
10
366.260650
20
433.712250
11
365.577425
21
442.699103
0
LINE
8
0
10
365.577425
20
442.699103
11
364.452300
21
451.555350
0
LINE
8
0
10
364.452300
20
451.555350
11
362.896386
21
460.269874
0
LINE
8
0
10
362.896386
20
460.269874
11
360.920797
21
468.831561
0
LINE
8
0
10
360.920797
20
468.831561
11
358.536644
21
477.229293
0
LINE
8
0
10
358.536644
20
477.229293
11
355.755041
21
485.451954
0
LINE
8
0
10
355.755041
20
485.451954
11
352.587100
21
493.488428
0
LINE
8
0
10
352.587100
20
493.488428
11
349.043934
21
501.327599
0
LINE
8
0
10
349.043934
20
501.327599
11
345.136655
21
508.958350
0
LINE
8
0
10
345.136655
20
508.958350
11
340.876376
21
516.369567
0
LINE
8
0
10
340.876376
20
516.369567
11
336.274210
21
523.550131
0
LINE
8
0
10
336.274210
20
523.550131
11
331.341269
21
530.488928
0
LINE
8
0
10
331.341269
20
530.488928
11
326.088665
21
537.174841
0
LINE
8
0
10
326.088665
20
537.174841
11
320.527512
21
543.596754
0
LINE
8
0
10
320.527512
20
543.596754
11
314.668922
21
549.743550
0
LINE
8
0
10
314.668922
20
549.743550
11
308.524007
21
555.604114
0
LINE
8
0
10
308.524007
20
555.604114
11
302.103881
21
561.167330
0
LINE
8
0
10
302.103881
20
561.167330
11
295.419655
21
566.422080
0
LINE
8
0
10
295.419655
20
566.422080
11
288.482443
21
571.357249
0
LINE
8
0
10
288.482443
20
571.357249
11
281.303357
21
575.961722
0
LINE
8
0
10
281.303357
20
575.961722
11
273.893509
21
580.224381
0
LINE
8
0
10
273.893509
20
580.224381
11
266.264013
21
584.134110
0
LINE
8
0
10
266.264013
20
584.134110
11
258.425980
21
587.679793
0
LINE
8
0
10
258.425980
20
587.679793
11
250.390524
21
590.850315
0
LINE
8
0
10
250.390524
20
590.850315
11
242.168756
21
593.634559
0
LINE
8
0
10
242.168756
20
593.634559
11
233.771791
21
596.021408
0
LINE
8
0
10
233.771791
20
596.021408
11
225.210739
21
597.999747
0
LINE
8
0
10
225.210739
20
597.999747
11
216.496715
21
599.558459
0
LINE
8
0
10
216.496715
20
599.558459
11
207.640830
21
600.686429
0
LINE
8
0
10
207.640830
20
600.686429
11
198.654196
21
601.372540
0
LINE
8
0
10
198.654196
20
601.372540
11
189.547928
21
601.605675
0
LINE
8
0
10
189.547928
20
601.605675
11
37.948116
21
601.605675
0
LINE
8
0
10
37.948116
20
601.605675
11
35.437641
21
601.481385
0
LINE
8
0
10
35.437641
20
601.481385
11
32.969688
21
601.113113
0
LINE
8
0
10
32.969688
20
601.113113
11
30.560912
21
600.507757
0
LINE
8
0
10
30.560912
20
600.507757
11
28.227968
21
599.672218
0
LINE
8
0
10
28.227968
20
599.672218
11
25.987513
21
598.613394
0
LINE
8
0
10
25.987513
20
598.613394
11
23.856200
21
597.338183
0
LINE
8
0
10
23.856200
20
597.338183
11
21.850686
21
595.853484
0
LINE
8
0
10
21.850686
20
595.853484
11
19.987625
21
594.166197
0
LINE
8
0
10
19.987625
20
594.166197
11
18.300338
21
592.303137
0
LINE
8
0
10
18.300338
20
592.303137
11
16.815640
21
590.297623
0
LINE
8
0
10
16.815640
20
590.297623
11
15.540429
21
588.166310
0
LINE
8
0
10
15.540429
20
588.166310
11
14.481604
21
585.925854
0
LINE
8
0
10
14.481604
20
585.925854
11
13.646065
21
583.592911
0
LINE
8
0
10
13.646065
20
583.592911
11
13.040710
21
581.184135
0
LINE
8
0
10
13.040710
20
581.184135
11
12.672437
21
578.716182
0
LINE
8
0
10
12.672437
20
578.716182
11
12.548147
21
576.205707
0
LINE
8
0
10
12.548147
20
576.205707
11
12.548147
21
576.205707
0
LINE
8
0
10
113.348027
20
361.945965
11
114.198026
21
362.173722
0
LINE
8
0
10
114.198026
20
362.173722
11
114.820269
21
362.795964
0
LINE
8
0
10
114.820269
20
362.795964
11
115.048025
21
363.645964
0
LINE
8
0
10
115.048025
20
363.645964
11
114.820269
21
364.495963
0
LINE
8
0
10
114.820269
20
364.495963
11
114.198026
21
365.118206
0
LINE
8
0
10
114.198026
20
365.118206
11
113.348027
21
365.345962
0
LINE
8
0
10
113.348027
20
365.345962
11
112.498027
21
365.118206
0
LINE
8
0
10
112.498027
20
365.118206
11
111.875785
21
364.495963
0
LINE
8
0
10
111.875785
20
364.495963
11
111.648028
21
363.645964
0
LINE
8
0
10
111.648028
20
363.645964
11
111.875785
21
362.795964
0
LINE
8
0
10
111.875785
20
362.795964
11
112.498027
21
362.173722
0
LINE
8
0
10
112.498027
20
362.173722
11
113.348027
21
361.945965
0
LINE
8
0
10
113.348027
20
361.945965
11
113.348027
21
361.945965
0
LINE
8
0
10
151.447979
20
361.945965
11
152.297978
21
362.173722
0
LINE
8
0
10
152.297978
20
362.173722
11
152.920221
21
362.795964
0
LINE
8
0
10
152.920221
20
362.795964
11
153.147977
21
363.645964
0
LINE
8
0
10
153.147977
20
363.645964
11
152.920221
21
364.495963
0
LINE
8
0
10
152.920221
20
364.495963
11
152.297978
21
365.118206
0
LINE
8
0
10
152.297978
20
365.118206
11
151.447979
21
365.345962
0
LINE
8
0
10
151.447979
20
365.345962
11
150.597979
21
365.118206
0
LINE
8
0
10
150.597979
20
365.118206
11
149.975737
21
364.495963
0
LINE
8
0
10
149.975737
20
364.495963
11
149.747980
21
363.645964
0
LINE
8
0
10
149.747980
20
363.645964
11
149.975737
21
362.795964
0
LINE
8
0
10
149.975737
20
362.795964
11
150.597979
21
362.173722
0
LINE
8
0
10
150.597979
20
362.173722
11
151.447979
21
361.945965
0
LINE
8
0
10
151.447979
20
361.945965
11
151.447979
21
361.945965
0
LINE
8
0
10
138.747995
20
483.865822
11
139.597994
21
484.093579
0
LINE
8
0
10
139.597994
20
484.093579
11
140.220237
21
484.715821
0
LINE
8
0
10
140.220237
20
484.715821
11
140.447993
21
485.565821
0
LINE
8
0
10
140.447993
20
485.565821
11
140.220237
21
486.415820
0
LINE
8
0
10
140.220237
20
486.415820
11
139.597994
21
487.038063
0
LINE
8
0
10
139.597994
20
487.038063
11
138.747995
21
487.265819
0
LINE
8
0
10
138.747995
20
487.265819
11
137.897995
21
487.038063
0
LINE
8
0
10
137.897995
20
487.038063
11
137.275753
21
486.415820
0
LINE
8
0
10
137.275753
20
486.415820
11
137.047996
21
485.565821
0
LINE
8
0
10
137.047996
20
485.565821
11
137.275753
21
484.715821
0
LINE
8
0
10
137.275753
20
484.715821
11
137.897995
21
484.093579
0
LINE
8
0
10
137.897995
20
484.093579
11
138.747995
21
483.865822
0
LINE
8
0
10
138.747995
20
483.865822
11
138.747995
21
483.865822
0
LINE
8
0
10
176.847944
20
483.865822
11
177.697943
21
484.093579
0
LINE
8
0
10
177.697943
20
484.093579
11
178.320186
21
484.715821
0
LINE
8
0
10
178.320186
20
484.715821
11
178.547943
21
485.565821
0
LINE
8
0
10
178.547943
20
485.565821
11
178.320186
21
486.415820
0
LINE
8
0
10
178.320186
20
486.415820
11
177.697943
21
487.038063
0
LINE
8
0
10
177.697943
20
487.038063
11
176.847944
21
487.265819
0
LINE
8
0
10
176.847944
20
487.265819
11
175.997945
21
487.038063
0
LINE
8
0
10
175.997945
20
487.038063
11
175.375702
21
486.415820
0
LINE
8
0
10
175.375702
20
486.415820
11
175.147945
21
485.565821
0
LINE
8
0
10
175.147945
20
485.565821
11
175.375702
21
484.715821
0
LINE
8
0
10
175.375702
20
484.715821
11
175.997945
21
484.093579
0
LINE
8
0
10
175.997945
20
484.093579
11
176.847944
21
483.865822
0
LINE
8
0
10
176.847944
20
483.865822
11
176.847944
21
483.865822
0
LINE
8
0
10
328.447753
20
442.905876
11
329.297753
21
443.133632
0
LINE
8
0
10
329.297753
20
443.133632
11
329.919996
21
443.755875
0
LINE
8
0
10
329.919996
20
443.755875
11
330.147752
21
444.605875
0
LINE
8
0
10
330.147752
20
444.605875
11
329.919996
21
445.455874
0
LINE
8
0
10
329.919996
20
445.455874
11
329.297753
21
446.078117
0
LINE
8
0
10
329.297753
20
446.078117
11
328.447753
21
446.305873
0
LINE
8
0
10
328.447753
20
446.305873
11
327.597754
21
446.078117
0
LINE
8
0
10
327.597754
20
446.078117
11
326.975511
21
445.455874
0
LINE
8
0
10
326.975511
20
445.455874
11
326.747755
21
444.605875
0
LINE
8
0
10
326.747755
20
444.605875
11
326.975511
21
443.755875
0
LINE
8
0
10
326.975511
20
443.755875
11
327.597754
21
443.133632
0
LINE
8
0
10
327.597754
20
443.133632
11
328.447753
21
442.905876
0
LINE
8
0
10
328.447753
20
442.905876
11
328.447753
21
442.905876
0
LINE
8
0
10
328.447753
20
402.905927
11
329.297753
21
403.133683
0
LINE
8
0
10
329.297753
20
403.133683
11
329.919996
21
403.755926
0
LINE
8
0
10
329.919996
20
403.755926
11
330.147752
21
404.605926
0
LINE
8
0
10
330.147752
20
404.605926
11
329.919996
21
405.455925
0
LINE
8
0
10
329.919996
20
405.455925
11
329.297753
21
406.078168
0
LINE
8
0
10
329.297753
20
406.078168
11
328.447753
21
406.305924
0
LINE
8
0
10
328.447753
20
406.305924
11
327.597754
21
406.078168
0
LINE
8
0
10
327.597754
20
406.078168
11
326.975511
21
405.455925
0
LINE
8
0
10
326.975511
20
405.455925
11
326.747755
21
404.605926
0
LINE
8
0
10
326.747755
20
404.605926
11
326.975511
21
403.755926
0
LINE
8
0
10
326.975511
20
403.755926
11
327.597754
21
403.133683
0
LINE
8
0
10
327.597754
20
403.133683
11
328.447753
21
402.905927
0
LINE
8
0
10
328.447753
20
402.905927
11
328.447753
21
402.905927
0
LINE
8
0
10
278.447811
20
476.605831
11
279.109096
21
476.739811
0
LINE
8
0
10
279.109096
20
476.739811
11
279.649024
21
477.104223
0
LINE
8
0
10
279.649024
20
477.104223
11
280.013009
21
477.644438
0
LINE
8
0
10
280.013009
20
477.644438
11
280.146467
21
478.305828
0
LINE
8
0
10
280.146467
20
478.305828
11
280.013009
21
478.967219
0
LINE
8
0
10
280.013009
20
478.967219
11
279.649024
21
479.507434
0
LINE
8
0
10
279.649024
20
479.507434
11
279.109096
21
479.871846
0
LINE
8
0
10
279.109096
20
479.871846
11
278.447811
21
480.005826
0
LINE
8
0
10
278.447811
20
480.005826
11
277.786525
21
479.871846
0
LINE
8
0
10
277.786525
20
479.871846
11
277.246598
21
479.507434
0
LINE
8
0
10
277.246598
20
479.507434
11
276.882612
21
478.967219
0
LINE
8
0
10
276.882612
20
478.967219
11
276.749154
21
478.305828
0
LINE
8
0
10
276.749154
20
478.305828
11
276.882612
21
477.644438
0
LINE
8
0
10
276.882612
20
477.644438
11
277.246598
21
477.104223
0
LINE
8
0
10
277.246598
20
477.104223
11
277.786525
21
476.739811
0
LINE
8
0
10
277.786525
20
476.739811
11
278.447811
21
476.605831
0
LINE
8
0
10
278.447811
20
476.605831
11
278.447811
21
476.605831
0
LINE
8
0
10
199.947918
20
384.105955
11
200.797918
21
384.333712
0
LINE
8
0
10
200.797918
20
384.333712
11
201.420160
21
384.955955
0
LINE
8
0
10
201.420160
20
384.955955
11
201.647917
21
385.805954
0
LINE
8
0
10
201.647917
20
385.805954
11
201.420160
21
386.655953
0
LINE
8
0
10
201.420160
20
386.655953
11
200.797918
21
387.278196
0
LINE
8
0
10
200.797918
20
387.278196
11
199.947918
21
387.505953
0
LINE
8
0
10
199.947918
20
387.505953
11
199.097919
21
387.278196
0
LINE
8
0
10
199.097919
20
387.278196
11
198.475676
21
386.655953
0
LINE
8
0
10
198.475676
20
386.655953
11
198.247920
21
385.805954
0
LINE
8
0
10
198.247920
20
385.805954
11
198.475676
21
384.955955
0
LINE
8
0
10
198.475676
20
384.955955
11
199.097919
21
384.333712
0
LINE
8
0
10
199.097919
20
384.333712
11
199.947918
21
384.105955
0
LINE
8
0
10
199.947918
20
384.105955
11
199.947918
21
384.105955
0
LINE
8
0
10
199.947918
20
476.605831
11
200.609204
21
476.739811
0
LINE
8
0
10
200.609204
20
476.739811
11
201.149131
21
477.104223
0
LINE
8
0
10
201.149131
20
477.104223
11
201.513117
21
477.644438
0
LINE
8
0
10
201.513117
20
477.644438
11
201.646575
21
478.305828
0
LINE
8
0
10
201.646575
20
478.305828
11
201.513117
21
478.967219
0
LINE
8
0
10
201.513117
20
478.967219
11
201.149131
21
479.507434
0
LINE
8
0
10
201.149131
20
479.507434
11
200.609204
21
479.871846
0
LINE
8
0
10
200.609204
20
479.871846
11
199.947918
21
480.005826
0
LINE
8
0
10
199.947918
20
480.005826
11
199.286633
21
479.871846
0
LINE
8
0
10
199.286633
20
479.871846
11
198.746706
21
479.507434
0
LINE
8
0
10
198.746706
20
479.507434
11
198.382720
21
478.967219
0
LINE
8
0
10
198.382720
20
478.967219
11
198.249262
21
478.305828
0
LINE
8
0
10
198.249262
20
478.305828
11
198.382720
21
477.644438
0
LINE
8
0
10
198.382720
20
477.644438
11
198.746706
21
477.104223
0
LINE
8
0
10
198.746706
20
477.104223
11
199.286633
21
476.739811
0
LINE
8
0
10
199.286633
20
476.739811
11
199.947918
21
476.605831
0
LINE
8
0
10
199.947918
20
476.605831
11
199.947918
21
476.605831
0
LINE
8
0
10
278.447811
20
384.105955
11
279.297810
21
384.333712
0
LINE
8
0
10
279.297810
20
384.333712
11
279.920053
21
384.955955
0
LINE
8
0
10
279.920053
20
384.955955
11
280.147809
21
385.805954
0
LINE
8
0
10
280.147809
20
385.805954
11
279.920053
21
386.655953
0
LINE
8
0
10
279.920053
20
386.655953
11
279.297810
21
387.278196
0
LINE
8
0
10
279.297810
20
387.278196
11
278.447811
21
387.505953
0
LINE
8
0
10
278.447811
20
387.505953
11
277.597811
21
387.278196
0
LINE
8
0
10
277.597811
20
387.278196
11
276.975569
21
386.655953
0
LINE
8
0
10
276.975569
20
386.655953
11
276.747812
21
385.805954
0
LINE
8
0
10
276.747812
20
385.805954
11
276.975569
21
384.955955
0
LINE
8
0
10
276.975569
20
384.955955
11
277.597811
21
384.333712
0
LINE
8
0
10
277.597811
20
384.333712
11
278.447811
21
384.105955
0
LINE
8
0
10
278.447811
20
384.105955
11
278.447811
21
384.105955
0
LINE
8
0
10
51.798798
20
394.604344
11
52.648797
21
394.832101
0
LINE
8
0
10
52.648797
20
394.832101
11
53.271040
21
395.454344
0
LINE
8
0
10
53.271040
20
395.454344
11
53.498796
21
396.304343
0
LINE
8
0
10
53.498796
20
396.304343
11
53.271040
21
397.154342
0
LINE
8
0
10
53.271040
20
397.154342
11
52.648797
21
397.776585
0
LINE
8
0
10
52.648797
20
397.776585
11
51.798798
21
398.004342
0
LINE
8
0
10
51.798798
20
398.004342
11
50.948798
21
397.776585
0
LINE
8
0
10
50.948798
20
397.776585
11
50.326556
21
397.154342
0
LINE
8
0
10
50.326556
20
397.154342
11
50.098799
21
396.304343
0
LINE
8
0
10
50.098799
20
396.304343
11
50.326556
21
395.454344
0
LINE
8
0
10
50.326556
20
395.454344
11
50.948798
21
394.832101
0
LINE
8
0
10
50.948798
20
394.832101
11
51.798798
21
394.604344
0
LINE
8
0
10
51.798798
20
394.604344
11
51.798798
21
394.604344
0
LINE
8
0
10
78.697364
20
451.207458
11
79.547363
21
451.435215
0
LINE
8
0
10
79.547363
20
451.435215
11
80.169606
21
452.057458
0
LINE
8
0
10
80.169606
20
452.057458
11
80.397362
21
452.907457
0
LINE
8
0
10
80.397362
20
452.907457
11
80.169606
21
453.757457
0
LINE
8
0
10
80.169606
20
453.757457
11
79.547363
21
454.379699
0
LINE
8
0
10
79.547363
20
454.379699
11
78.697364
21
454.607456
0
LINE
8
0
10
78.697364
20
454.607456
11
77.847364
21
454.379699
0
LINE
8
0
10
77.847364
20
454.379699
11
77.225122
21
453.757457
0
LINE
8
0
10
77.225122
20
453.757457
11
76.997365
21
452.907457
0
LINE
8
0
10
76.997365
20
452.907457
11
77.225122
21
452.057458
0
LINE
8
0
10
77.225122
20
452.057458
11
77.847364
21
451.435215
0
LINE
8
0
10
77.847364
20
451.435215
11
78.697364
21
451.207458
0
LINE
8
0
10
78.697364
20
451.207458
11
78.697364
21
451.207458
0
LINE
8
0
10
78.697364
20
493.015811
11
79.358649
21
493.149791
0
LINE
8
0
10
79.358649
20
493.149791
11
79.898577
21
493.514203
0
LINE
8
0
10
79.898577
20
493.514203
11
80.262562
21
494.054418
0
LINE
8
0
10
80.262562
20
494.054418
11
80.396020
21
494.715808
0
LINE
8
0
10
80.396020
20
494.715808
11
80.262562
21
495.377199
0
LINE
8
0
10
80.262562
20
495.377199
11
79.898577
21
495.917414
0
LINE
8
0
10
79.898577
20
495.917414
11
79.358649
21
496.281826
0
LINE
8
0
10
79.358649
20
496.281826
11
78.697364
21
496.415806
0
LINE
8
0
10
78.697364
20
496.415806
11
78.036079
21
496.281826
0
LINE
8
0
10
78.036079
20
496.281826
11
77.496151
21
495.917414
0
LINE
8
0
10
77.496151
20
495.917414
11
77.132166
21
495.377199
0
LINE
8
0
10
77.132166
20
495.377199
11
76.998707
21
494.715808
0
LINE
8
0
10
76.998707
20
494.715808
11
77.132166
21
494.054418
0
LINE
8
0
10
77.132166
20
494.054418
11
77.496151
21
493.514203
0
LINE
8
0
10
77.496151
20
493.514203
11
78.036079
21
493.149791
0
LINE
8
0
10
78.036079
20
493.149791
11
78.697364
21
493.015811
0
LINE
8
0
10
78.697364
20
493.015811
11
78.697364
21
493.015811
0
LINE
8
0
10
78.697364
20
352.795997
11
79.359080
21
352.929591
0
LINE
8
0
10
79.359080
20
352.929591
11
79.899444
21
353.293915
0
LINE
8
0
10
79.899444
20
353.293915
11
80.263768
21
353.834279
0
LINE
8
0
10
80.263768
20
353.834279
11
80.397362
21
354.495996
0
LINE
8
0
10
80.397362
20
354.495996
11
80.263768
21
355.157712
0
LINE
8
0
10
80.263768
20
355.157712
11
79.899444
21
355.698076
0
LINE
8
0
10
79.899444
20
355.698076
11
79.359080
21
356.062400
0
LINE
8
0
10
79.359080
20
356.062400
11
78.697364
21
356.195994
0
LINE
8
0
10
78.697364
20
356.195994
11
78.035648
21
356.062400
0
LINE
8
0
10
78.035648
20
356.062400
11
77.495283
21
355.698076
0
LINE
8
0
10
77.495283
20
355.698076
11
77.130960
21
355.157712
0
LINE
8
0
10
77.130960
20
355.157712
11
76.997365
21
354.495996
0
LINE
8
0
10
76.997365
20
354.495996
11
77.130960
21
353.834279
0
LINE
8
0
10
77.130960
20
353.834279
11
77.495283
21
353.293915
0
LINE
8
0
10
77.495283
20
353.293915
11
78.035648
21
352.929591
0
LINE
8
0
10
78.035648
20
352.929591
11
78.697364
21
352.795997
0
LINE
8
0
10
78.697364
20
352.795997
11
78.697364
21
352.795997
0
LINE
8
0
10
78.697364
20
394.604344
11
79.547363
21
394.832101
0
LINE
8
0
10
79.547363
20
394.832101
11
80.169606
21
395.454344
0
LINE
8
0
10
80.169606
20
395.454344
11
80.397362
21
396.304343
0
LINE
8
0
10
80.397362
20
396.304343
11
80.169606
21
397.154342
0
LINE
8
0
10
80.169606
20
397.154342
11
79.547363
21
397.776585
0
LINE
8
0
10
79.547363
20
397.776585
11
78.697364
21
398.004342
0
LINE
8
0
10
78.697364
20
398.004342
11
77.847364
21
397.776585
0
LINE
8
0
10
77.847364
20
397.776585
11
77.225122
21
397.154342
0
LINE
8
0
10
77.225122
20
397.154342
11
76.997365
21
396.304343
0
LINE
8
0
10
76.997365
20
396.304343
11
77.225122
21
395.454344
0
LINE
8
0
10
77.225122
20
395.454344
11
77.847364
21
394.832101
0
LINE
8
0
10
77.847364
20
394.832101
11
78.697364
21
394.604344
0
LINE
8
0
10
78.697364
20
394.604344
11
78.697364
21
394.604344
0
LINE
8
0
10
51.798798
20
451.207458
11
52.648797
21
451.435215
0
LINE
8
0
10
52.648797
20
451.435215
11
53.271040
21
452.057458
0
LINE
8
0
10
53.271040
20
452.057458
11
53.498796
21
452.907457
0
LINE
8
0
10
53.498796
20
452.907457
11
53.271040
21
453.757457
0
LINE
8
0
10
53.271040
20
453.757457
11
52.648797
21
454.379699
0
LINE
8
0
10
52.648797
20
454.379699
11
51.798798
21
454.607456
0
LINE
8
0
10
51.798798
20
454.607456
11
50.948798
21
454.379699
0
LINE
8
0
10
50.948798
20
454.379699
11
50.326556
21
453.757457
0
LINE
8
0
10
50.326556
20
453.757457
11
50.098799
21
452.907457
0
LINE
8
0
10
50.098799
20
452.907457
11
50.326556
21
452.057458
0
LINE
8
0
10
50.326556
20
452.057458
11
50.948798
21
451.435215
0
LINE
8
0
10
50.948798
20
451.435215
11
51.798798
21
451.207458
0
LINE
8
0
10
51.798798
20
451.207458
11
51.798798
21
451.207458
0
LINE
8
0
10
51.798798
20
493.015811
11
52.460083
21
493.149791
0
LINE
8
0
10
52.460083
20
493.149791
11
53.000011
21
493.514203
0
LINE
8
0
10
53.000011
20
493.514203
11
53.363996
21
494.054418
0
LINE
8
0
10
53.363996
20
494.054418
11
53.497454
21
494.715808
0
LINE
8
0
10
53.497454
20
494.715808
11
53.363996
21
495.377199
0
LINE
8
0
10
53.363996
20
495.377199
11
53.000011
21
495.917414
0
LINE
8
0
10
53.000011
20
495.917414
11
52.460083
21
496.281826
0
LINE
8
0
10
52.460083
20
496.281826
11
51.798798
21
496.415806
0
LINE
8
0
10
51.798798
20
496.415806
11
51.137512
21
496.281826
0
LINE
8
0
10
51.137512
20
496.281826
11
50.597585
21
495.917414
0
LINE
8
0
10
50.597585
20
495.917414
11
50.233599
21
495.377199
0
LINE
8
0
10
50.233599
20
495.377199
11
50.100141
21
494.715808
0
LINE
8
0
10
50.100141
20
494.715808
11
50.233599
21
494.054418
0
LINE
8
0
10
50.233599
20
494.054418
11
50.597585
21
493.514203
0
LINE
8
0
10
50.597585
20
493.514203
11
51.137512
21
493.149791
0
LINE
8
0
10
51.137512
20
493.149791
11
51.798798
21
493.015811
0
LINE
8
0
10
51.798798
20
493.015811
11
51.798798
21
493.015811
0
LINE
8
0
10
51.798798
20
352.795997
11
52.460514
21
352.929591
0
LINE
8
0
10
52.460514
20
352.929591
11
53.000878
21
353.293915
0
LINE
8
0
10
53.000878
20
353.293915
11
53.365202
21
353.834279
0
LINE
8
0
10
53.365202
20
353.834279
11
53.498796
21
354.495996
0
LINE
8
0
10
53.498796
20
354.495996
11
53.365202
21
355.157712
0
LINE
8
0
10
53.365202
20
355.157712
11
53.000878
21
355.698076
0
LINE
8
0
10
53.000878
20
355.698076
11
52.460514
21
356.062400
0
LINE
8
0
10
52.460514
20
356.062400
11
51.798798
21
356.195994
0
LINE
8
0
10
51.798798
20
356.195994
11
51.137082
21
356.062400
0
LINE
8
0
10
51.137082
20
356.062400
11
50.596717
21
355.698076
0
LINE
8
0
10
50.596717
20
355.698076
11
50.232394
21
355.157712
0
LINE
8
0
10
50.232394
20
355.157712
11
50.098799
21
354.495996
0
LINE
8
0
10
50.098799
20
354.495996
11
50.232394
21
353.834279
0
LINE
8
0
10
50.232394
20
353.834279
11
50.596717
21
353.293915
0
LINE
8
0
10
50.596717
20
353.293915
11
51.137082
21
352.929591
0
LINE
8
0
10
51.137082
20
352.929591
11
51.798798
21
352.795997
0
LINE
8
0
10
51.798798
20
352.795997
11
51.798798
21
352.795997
0
LINE
8
0
10
39.848113
20
265.906101
11
40.698112
21
266.133858
0
LINE
8
0
10
40.698112
20
266.133858
11
41.320355
21
266.756100
0
LINE
8
0
10
41.320355
20
266.756100
11
41.548111
21
267.606100
0
LINE
8
0
10
41.548111
20
267.606100
11
41.320355
21
268.456099
0
LINE
8
0
10
41.320355
20
268.456099
11
40.698112
21
269.078342
0
LINE
8
0
10
40.698112
20
269.078342
11
39.848113
21
269.306098
0
LINE
8
0
10
39.848113
20
269.306098
11
38.998113
21
269.078342
0
LINE
8
0
10
38.998113
20
269.078342
11
38.375871
21
268.456099
0
LINE
8
0
10
38.375871
20
268.456099
11
38.148114
21
267.606100
0
LINE
8
0
10
38.148114
20
267.606100
11
38.375871
21
266.756100
0
LINE
8
0
10
38.375871
20
266.756100
11
38.998113
21
266.133858
0
LINE
8
0
10
38.998113
20
266.133858
11
39.848113
21
265.906101
0
LINE
8
0
10
39.848113
20
265.906101
11
39.848113
21
265.906101
0
LINE
8
0
10
90.648049
20
579.905702
11
91.309392
21
580.039630
0
LINE
8
0
10
91.309392
20
580.039630
11
91.849378
21
580.404030
0
LINE
8
0
10
91.849378
20
580.404030
11
92.213408
21
580.944265
0
LINE
8
0
10
92.213408
20
580.944265
11
92.346885
21
581.605699
0
LINE
8
0
10
92.346885
20
581.605699
11
92.213408
21
582.267134
0
LINE
8
0
10
92.213408
20
582.267134
11
91.849378
21
582.807369
0
LINE
8
0
10
91.849378
20
582.807369
11
91.309392
21
583.171768
0
LINE
8
0
10
91.309392
20
583.171768
11
90.648049
21
583.305697
0
LINE
8
0
10
90.648049
20
583.305697
11
89.986706
21
583.171768
0
LINE
8
0
10
89.986706
20
583.171768
11
89.446720
21
582.807369
0
LINE
8
0
10
89.446720
20
582.807369
11
89.082689
21
582.267134
0
LINE
8
0
10
89.082689
20
582.267134
11
88.949212
21
581.605699
0
LINE
8
0
10
88.949212
20
581.605699
11
89.082689
21
580.944265
0
LINE
8
0
10
89.082689
20
580.944265
11
89.446720
21
580.404030
0
LINE
8
0
10
89.446720
20
580.404030
11
89.986706
21
580.039630
0
LINE
8
0
10
89.986706
20
580.039630
11
90.648049
21
579.905702
0
LINE
8
0
10
90.648049
20
579.905702
11
90.648049
21
579.905702
0
LINE
8
0
10
90.648049
20
537.205755
11
91.498048
21
537.433511
0
LINE
8
0
10
91.498048
20
537.433511
11
92.120291
21
538.055754
0
LINE
8
0
10
92.120291
20
538.055754
11
92.348047
21
538.905753
0
LINE
8
0
10
92.348047
20
538.905753
11
92.120291
21
539.755753
0
LINE
8
0
10
92.120291
20
539.755753
11
91.498048
21
540.377995
0
LINE
8
0
10
91.498048
20
540.377995
11
90.648049
21
540.605752
0
LINE
8
0
10
90.648049
20
540.605752
11
89.798049
21
540.377995
0
LINE
8
0
10
89.798049
20
540.377995
11
89.175807
21
539.755753
0
LINE
8
0
10
89.175807
20
539.755753
11
88.948050
21
538.905753
0
LINE
8
0
10
88.948050
20
538.905753
11
89.175807
21
538.055754
0
LINE
8
0
10
89.175807
20
538.055754
11
89.798049
21
537.433511
0
LINE
8
0
10
89.798049
20
537.433511
11
90.648049
21
537.205755
0
LINE
8
0
10
90.648049
20
537.205755
11
90.648049
21
537.205755
0
LINE
8
0
10
90.648049
20
308.606040
11
91.498048
21
308.833797
0
LINE
8
0
10
91.498048
20
308.833797
11
92.120291
21
309.456039
0
LINE
8
0
10
92.120291
20
309.456039
11
92.348047
21
310.306039
0
LINE
8
0
10
92.348047
20
310.306039
11
92.120291
21
311.156038
0
LINE
8
0
10
92.120291
20
311.156038
11
91.498048
21
311.778281
0
LINE
8
0
10
91.498048
20
311.778281
11
90.648049
21
312.006037
0
LINE
8
0
10
90.648049
20
312.006037
11
89.798049
21
311.778281
0
LINE
8
0
10
89.798049
20
311.778281
11
89.175807
21
311.156038
0
LINE
8
0
10
89.175807
20
311.156038
11
88.948050
21
310.306039
0
LINE
8
0
10
88.948050
20
310.306039
11
89.175807
21
309.456039
0
LINE
8
0
10
89.175807
20
309.456039
11
89.798049
21
308.833797
0
LINE
8
0
10
89.798049
20
308.833797
11
90.648049
21
308.606040
0
LINE
8
0
10
90.648049
20
308.606040
11
90.648049
21
308.606040
0
LINE
8
0
10
90.648049
20
265.906101
11
91.498048
21
266.133858
0
LINE
8
0
10
91.498048
20
266.133858
11
92.120291
21
266.756100
0
LINE
8
0
10
92.120291
20
266.756100
11
92.348047
21
267.606100
0
LINE
8
0
10
92.348047
20
267.606100
11
92.120291
21
268.456099
0
LINE
8
0
10
92.120291
20
268.456099
11
91.498048
21
269.078342
0
LINE
8
0
10
91.498048
20
269.078342
11
90.648049
21
269.306098
0
LINE
8
0
10
90.648049
20
269.306098
11
89.798049
21
269.078342
0
LINE
8
0
10
89.798049
20
269.078342
11
89.175807
21
268.456099
0
LINE
8
0
10
89.175807
20
268.456099
11
88.948050
21
267.606100
0
LINE
8
0
10
88.948050
20
267.606100
11
89.175807
21
266.756100
0
LINE
8
0
10
89.175807
20
266.756100
11
89.798049
21
266.133858
0
LINE
8
0
10
89.798049
20
266.133858
11
90.648049
21
265.906101
0
LINE
8
0
10
90.648049
20
265.906101
11
90.648049
21
265.906101
0
LINE
8
0
10
39.848113
20
579.905702
11
40.509456
21
580.039630
0
LINE
8
0
10
40.509456
20
580.039630
11
41.049442
21
580.404030
0
LINE
8
0
10
41.049442
20
580.404030
11
41.413472
21
580.944265
0
LINE
8
0
10
41.413472
20
580.944265
11
41.546949
21
581.605699
0
LINE
8
0
10
41.546949
20
581.605699
11
41.413472
21
582.267134
0
LINE
8
0
10
41.413472
20
582.267134
11
41.049442
21
582.807369
0
LINE
8
0
10
41.049442
20
582.807369
11
40.509456
21
583.171768
0
LINE
8
0
10
40.509456
20
583.171768
11
39.848113
21
583.305697
0
LINE
8
0
10
39.848113
20
583.305697
11
39.186770
21
583.171768
0
LINE
8
0
10
39.186770
20
583.171768
11
38.646784
21
582.807369
0
LINE
8
0
10
38.646784
20
582.807369
11
38.282753
21
582.267134
0
LINE
8
0
10
38.282753
20
582.267134
11
38.149276
21
581.605699
0
LINE
8
0
10
38.149276
20
581.605699
11
38.282753
21
580.944265
0
LINE
8
0
10
38.282753
20
580.944265
11
38.646784
21
580.404030
0
LINE
8
0
10
38.646784
20
580.404030
11
39.186770
21
580.039630
0
LINE
8
0
10
39.186770
20
580.039630
11
39.848113
21
579.905702
0
LINE
8
0
10
39.848113
20
579.905702
11
39.848113
21
579.905702
0
LINE
8
0
10
39.848113
20
537.205755
11
40.698112
21
537.433511
0
LINE
8
0
10
40.698112
20
537.433511
11
41.320355
21
538.055754
0
LINE
8
0
10
41.320355
20
538.055754
11
41.548111
21
538.905753
0
LINE
8
0
10
41.548111
20
538.905753
11
41.320355
21
539.755753
0
LINE
8
0
10
41.320355
20
539.755753
11
40.698112
21
540.377995
0
LINE
8
0
10
40.698112
20
540.377995
11
39.848113
21
540.605752
0
LINE
8
0
10
39.848113
20
540.605752
11
38.998113
21
540.377995
0
LINE
8
0
10
38.998113
20
540.377995
11
38.375871
21
539.755753
0
LINE
8
0
10
38.375871
20
539.755753
11
38.148114
21
538.905753
0
LINE
8
0
10
38.148114
20
538.905753
11
38.375871
21
538.055754
0
LINE
8
0
10
38.375871
20
538.055754
11
38.998113
21
537.433511
0
LINE
8
0
10
38.998113
20
537.433511
11
39.848113
21
537.205755
0
LINE
8
0
10
39.848113
20
537.205755
11
39.848113
21
537.205755
0
LINE
8
0
10
39.848113
20
308.606040
11
40.698112
21
308.833797
0
LINE
8
0
10
40.698112
20
308.833797
11
41.320355
21
309.456039
0
LINE
8
0
10
41.320355
20
309.456039
11
41.548111
21
310.306039
0
LINE
8
0
10
41.548111
20
310.306039
11
41.320355
21
311.156038
0
LINE
8
0
10
41.320355
20
311.156038
11
40.698112
21
311.778281
0
LINE
8
0
10
40.698112
20
311.778281
11
39.848113
21
312.006037
0
LINE
8
0
10
39.848113
20
312.006037
11
38.998113
21
311.778281
0
LINE
8
0
10
38.998113
20
311.778281
11
38.375871
21
311.156038
0
LINE
8
0
10
38.375871
20
311.156038
11
38.148114
21
310.306039
0
LINE
8
0
10
38.148114
20
310.306039
11
38.375871
21
309.456039
0
LINE
8
0
10
38.375871
20
309.456039
11
38.998113
21
308.833797
0
LINE
8
0
10
38.998113
20
308.833797
11
39.848113
21
308.606040
0
LINE
8
0
10
39.848113
20
308.606040
11
39.848113
21
308.606040
0
LINE
8
0
10
291.147795
20
321.306024
11
291.997794
21
321.533781
0
LINE
8
0
10
291.997794
20
321.533781
11
292.620037
21
322.156023
0
LINE
8
0
10
292.620037
20
322.156023
11
292.847793
21
323.006023
0
LINE
8
0
10
292.847793
20
323.006023
11
292.620037
21
323.856022
0
LINE
8
0
10
292.620037
20
323.856022
11
291.997794
21
324.478265
0
LINE
8
0
10
291.997794
20
324.478265
11
291.147795
21
324.706021
0
LINE
8
0
10
291.147795
20
324.706021
11
290.297795
21
324.478265
0
LINE
8
0
10
290.297795
20
324.478265
11
289.675553
21
323.856022
0
LINE
8
0
10
289.675553
20
323.856022
11
289.447796
21
323.006023
0
LINE
8
0
10
289.447796
20
323.006023
11
289.675553
21
322.156023
0
LINE
8
0
10
289.675553
20
322.156023
11
290.297795
21
321.533781
0
LINE
8
0
10
290.297795
20
321.533781
11
291.147795
21
321.306024
0
LINE
8
0
10
291.147795
20
321.306024
11
291.147795
21
321.306024
0
LINE
8
0
10
291.147795
20
524.505771
11
291.997794
21
524.733527
0
LINE
8
0
10
291.997794
20
524.733527
11
292.620037
21
525.355770
0
LINE
8
0
10
292.620037
20
525.355770
11
292.847793
21
526.205769
0
LINE
8
0
10
292.847793
20
526.205769
11
292.620037
21
527.055769
0
LINE
8
0
10
292.620037
20
527.055769
11
291.997794
21
527.678011
0
LINE
8
0
10
291.997794
20
527.678011
11
291.147795
21
527.905768
0
LINE
8
0
10
291.147795
20
527.905768
11
290.297795
21
527.678011
0
LINE
8
0
10
290.297795
20
527.678011
11
289.675553
21
527.055769
0
LINE
8
0
10
289.675553
20
527.055769
11
289.447796
21
526.205769
0
LINE
8
0
10
289.447796
20
526.205769
11
289.675553
21
525.355770
0
LINE
8
0
10
289.675553
20
525.355770
11
290.297795
21
524.733527
0
LINE
8
0
10
290.297795
20
524.733527
11
291.147795
21
524.505771
0
LINE
8
0
10
291.147795
20
524.505771
11
291.147795
21
524.505771
0
LINE
8
0
10
87.948059
20
321.306024
11
88.798058
21
321.533781
0
LINE
8
0
10
88.798058
20
321.533781
11
89.420301
21
322.156023
0
LINE
8
0
10
89.420301
20
322.156023
11
89.648057
21
323.006023
0
LINE
8
0
10
89.648057
20
323.006023
11
89.420301
21
323.856022
0
LINE
8
0
10
89.420301
20
323.856022
11
88.798058
21
324.478265
0
LINE
8
0
10
88.798058
20
324.478265
11
87.948059
21
324.706021
0
LINE
8
0
10
87.948059
20
324.706021
11
87.098059
21
324.478265
0
LINE
8
0
10
87.098059
20
324.478265
11
86.475817
21
323.856022
0
LINE
8
0
10
86.475817
20
323.856022
11
86.248060
21
323.006023
0
LINE
8
0
10
86.248060
20
323.006023
11
86.475817
21
322.156023
0
LINE
8
0
10
86.475817
20
322.156023
11
87.098059
21
321.533781
0
LINE
8
0
10
87.098059
20
321.533781
11
87.948059
21
321.306024
0
LINE
8
0
10
87.948059
20
321.306024
11
87.948059
21
321.306024
0
LINE
8
0
10
87.948059
20
524.505771
11
88.798058
21
524.733527
0
LINE
8
0
10
88.798058
20
524.733527
11
89.420301
21
525.355770
0
LINE
8
0
10
89.420301
20
525.355770
11
89.648057
21
526.205769
0
LINE
8
0
10
89.648057
20
526.205769
11
89.420301
21
527.055769
0
LINE
8
0
10
89.420301
20
527.055769
11
88.798058
21
527.678011
0
LINE
8
0
10
88.798058
20
527.678011
11
87.948059
21
527.905768
0
LINE
8
0
10
87.948059
20
527.905768
11
87.098059
21
527.678011
0
LINE
8
0
10
87.098059
20
527.678011
11
86.475817
21
527.055769
0
LINE
8
0
10
86.475817
20
527.055769
11
86.248060
21
526.205769
0
LINE
8
0
10
86.248060
20
526.205769
11
86.475817
21
525.355770
0
LINE
8
0
10
86.475817
20
525.355770
11
87.098059
21
524.733527
0
LINE
8
0
10
87.098059
20
524.733527
11
87.948059
21
524.505771
0
LINE
8
0
10
87.948059
20
524.505771
11
87.948059
21
524.505771
 0 
ENDSEC
 0 
EOF