%TF.GenerationSoftware,KiCad,Pcbnew,7.0.6*%
%TF.CreationDate,2023-11-30T14:11:31-08:00*%
%TF.ProjectId,ReflectiveSensor,5265666c-6563-4746-9976-6553656e736f,rev?*%
%TF.SameCoordinates,Original*%
%TF.FileFunction,Legend,Top*%
%TF.FilePolarity,Positive*%
%FSLAX46Y46*%
G04 Gerber Fmt 4.6, Leading zero omitted, Abs format (unit mm)*
G04 Created by KiCad (PCBNEW 7.0.6) date 2023-11-30 14:11:31*
%MOMM*%
%LPD*%
G01*
G04 APERTURE LIST*
%ADD10C,0.150000*%
%ADD11C,0.152400*%
%ADD12C,0.120000*%
G04 APERTURE END LIST*
D10*
X359342438Y-196239411D02*
X359294819Y-196334649D01*
X359294819Y-196334649D02*
X359294819Y-196477506D01*
X359294819Y-196477506D02*
X359342438Y-196620363D01*
X359342438Y-196620363D02*
X359437676Y-196715601D01*
X359437676Y-196715601D02*
X359532914Y-196763220D01*
X359532914Y-196763220D02*
X359723390Y-196810839D01*
X359723390Y-196810839D02*
X359866247Y-196810839D01*
X359866247Y-196810839D02*
X360056723Y-196763220D01*
X360056723Y-196763220D02*
X360151961Y-196715601D01*
X360151961Y-196715601D02*
X360247200Y-196620363D01*
X360247200Y-196620363D02*
X360294819Y-196477506D01*
X360294819Y-196477506D02*
X360294819Y-196382268D01*
X360294819Y-196382268D02*
X360247200Y-196239411D01*
X360247200Y-196239411D02*
X360199580Y-196191792D01*
X360199580Y-196191792D02*
X359866247Y-196191792D01*
X359866247Y-196191792D02*
X359866247Y-196382268D01*
X352947200Y-201910839D02*
X352994819Y-201767982D01*
X352994819Y-201767982D02*
X352994819Y-201529887D01*
X352994819Y-201529887D02*
X352947200Y-201434649D01*
X352947200Y-201434649D02*
X352899580Y-201387030D01*
X352899580Y-201387030D02*
X352804342Y-201339411D01*
X352804342Y-201339411D02*
X352709104Y-201339411D01*
X352709104Y-201339411D02*
X352613866Y-201387030D01*
X352613866Y-201387030D02*
X352566247Y-201434649D01*
X352566247Y-201434649D02*
X352518628Y-201529887D01*
X352518628Y-201529887D02*
X352471009Y-201720363D01*
X352471009Y-201720363D02*
X352423390Y-201815601D01*
X352423390Y-201815601D02*
X352375771Y-201863220D01*
X352375771Y-201863220D02*
X352280533Y-201910839D01*
X352280533Y-201910839D02*
X352185295Y-201910839D01*
X352185295Y-201910839D02*
X352090057Y-201863220D01*
X352090057Y-201863220D02*
X352042438Y-201815601D01*
X352042438Y-201815601D02*
X351994819Y-201720363D01*
X351994819Y-201720363D02*
X351994819Y-201482268D01*
X351994819Y-201482268D02*
X352042438Y-201339411D01*
X352044819Y-196756077D02*
X353044819Y-196422744D01*
X353044819Y-196422744D02*
X352044819Y-196089411D01*
X359244819Y-201908458D02*
X360244819Y-201241792D01*
X359244819Y-201241792D02*
X360244819Y-201908458D01*
X348679819Y-199823094D02*
X347679819Y-199823094D01*
X348679819Y-199251666D02*
X348108390Y-199680237D01*
X347679819Y-199251666D02*
X348251247Y-199823094D01*
X348679819Y-198299285D02*
X348679819Y-198870713D01*
X348679819Y-198584999D02*
X347679819Y-198584999D01*
X347679819Y-198584999D02*
X347822676Y-198680237D01*
X347822676Y-198680237D02*
X347917914Y-198775475D01*
X347917914Y-198775475D02*
X347965533Y-198870713D01*
X344629819Y-201299999D02*
X344867914Y-201299999D01*
X344772676Y-201538094D02*
X344867914Y-201299999D01*
X344867914Y-201299999D02*
X344772676Y-201061904D01*
X345058390Y-201442856D02*
X344867914Y-201299999D01*
X344867914Y-201299999D02*
X345058390Y-201157142D01*
D11*
%TO.C,K1*%
X346650200Y-201015400D02*
X349799800Y-201015400D01*
X349799800Y-201015400D02*
X349799800Y-200647941D01*
X346650200Y-200647941D02*
X346650200Y-201015400D01*
X349799800Y-199322061D02*
X349799800Y-198847939D01*
X346650200Y-198847939D02*
X346650200Y-199322061D01*
X349799800Y-197522059D02*
X349799800Y-197154600D01*
X346650200Y-197154600D02*
X346650200Y-197522059D01*
X349799800Y-197154600D02*
X346650200Y-197154600D01*
D12*
%TO.C,J1*%
X353405000Y-196480000D02*
X354735000Y-196480000D01*
X353405000Y-197810000D02*
X353405000Y-196480000D01*
X353405000Y-199080000D02*
X353405000Y-201680000D01*
X353405000Y-199080000D02*
X356005000Y-199080000D01*
X353405000Y-201680000D02*
X358605000Y-201680000D01*
X356005000Y-196480000D02*
X358605000Y-196480000D01*
X356005000Y-199080000D02*
X356005000Y-196480000D01*
X358605000Y-196480000D02*
X358605000Y-201680000D01*
%TD*%
M02*
