%TF.GenerationSoftware,KiCad,Pcbnew,7.0.6*%
%TF.CreationDate,2023-11-30T14:11:31-08:00*%
%TF.ProjectId,ReflectiveSensor,5265666c-6563-4746-9976-6553656e736f,rev?*%
%TF.SameCoordinates,Original*%
%TF.FileFunction,Legend,Bot*%
%TF.FilePolarity,Positive*%
%FSLAX46Y46*%
G04 Gerber Fmt 4.6, Leading zero omitted, Abs format (unit mm)*
G04 Created by KiCad (PCBNEW 7.0.6) date 2023-11-30 14:11:31*
%MOMM*%
%LPD*%
G01*
G04 APERTURE LIST*
%ADD10C,0.150000*%
%ADD11C,0.120000*%
G04 APERTURE END LIST*
D10*
X349041666Y-199604819D02*
X349374999Y-199128628D01*
X349613094Y-199604819D02*
X349613094Y-198604819D01*
X349613094Y-198604819D02*
X349232142Y-198604819D01*
X349232142Y-198604819D02*
X349136904Y-198652438D01*
X349136904Y-198652438D02*
X349089285Y-198700057D01*
X349089285Y-198700057D02*
X349041666Y-198795295D01*
X349041666Y-198795295D02*
X349041666Y-198938152D01*
X349041666Y-198938152D02*
X349089285Y-199033390D01*
X349089285Y-199033390D02*
X349136904Y-199081009D01*
X349136904Y-199081009D02*
X349232142Y-199128628D01*
X349232142Y-199128628D02*
X349613094Y-199128628D01*
X348660713Y-198700057D02*
X348613094Y-198652438D01*
X348613094Y-198652438D02*
X348517856Y-198604819D01*
X348517856Y-198604819D02*
X348279761Y-198604819D01*
X348279761Y-198604819D02*
X348184523Y-198652438D01*
X348184523Y-198652438D02*
X348136904Y-198700057D01*
X348136904Y-198700057D02*
X348089285Y-198795295D01*
X348089285Y-198795295D02*
X348089285Y-198890533D01*
X348089285Y-198890533D02*
X348136904Y-199033390D01*
X348136904Y-199033390D02*
X348708332Y-199604819D01*
X348708332Y-199604819D02*
X348089285Y-199604819D01*
X350291666Y-201909580D02*
X350339285Y-201957200D01*
X350339285Y-201957200D02*
X350482142Y-202004819D01*
X350482142Y-202004819D02*
X350577380Y-202004819D01*
X350577380Y-202004819D02*
X350720237Y-201957200D01*
X350720237Y-201957200D02*
X350815475Y-201861961D01*
X350815475Y-201861961D02*
X350863094Y-201766723D01*
X350863094Y-201766723D02*
X350910713Y-201576247D01*
X350910713Y-201576247D02*
X350910713Y-201433390D01*
X350910713Y-201433390D02*
X350863094Y-201242914D01*
X350863094Y-201242914D02*
X350815475Y-201147676D01*
X350815475Y-201147676D02*
X350720237Y-201052438D01*
X350720237Y-201052438D02*
X350577380Y-201004819D01*
X350577380Y-201004819D02*
X350482142Y-201004819D01*
X350482142Y-201004819D02*
X350339285Y-201052438D01*
X350339285Y-201052438D02*
X350291666Y-201100057D01*
X349339285Y-202004819D02*
X349910713Y-202004819D01*
X349624999Y-202004819D02*
X349624999Y-201004819D01*
X349624999Y-201004819D02*
X349720237Y-201147676D01*
X349720237Y-201147676D02*
X349815475Y-201242914D01*
X349815475Y-201242914D02*
X349910713Y-201290533D01*
X347241666Y-200854819D02*
X347574999Y-200378628D01*
X347813094Y-200854819D02*
X347813094Y-199854819D01*
X347813094Y-199854819D02*
X347432142Y-199854819D01*
X347432142Y-199854819D02*
X347336904Y-199902438D01*
X347336904Y-199902438D02*
X347289285Y-199950057D01*
X347289285Y-199950057D02*
X347241666Y-200045295D01*
X347241666Y-200045295D02*
X347241666Y-200188152D01*
X347241666Y-200188152D02*
X347289285Y-200283390D01*
X347289285Y-200283390D02*
X347336904Y-200331009D01*
X347336904Y-200331009D02*
X347432142Y-200378628D01*
X347432142Y-200378628D02*
X347813094Y-200378628D01*
X346289285Y-200854819D02*
X346860713Y-200854819D01*
X346574999Y-200854819D02*
X346574999Y-199854819D01*
X346574999Y-199854819D02*
X346670237Y-199997676D01*
X346670237Y-199997676D02*
X346765475Y-200092914D01*
X346765475Y-200092914D02*
X346860713Y-200140533D01*
D11*
%TO.C,R2*%
X349102064Y-198385000D02*
X348647936Y-198385000D01*
X349102064Y-196915000D02*
X348647936Y-196915000D01*
%TO.C,C1*%
X352560000Y-199938748D02*
X352560000Y-200461252D01*
X351090000Y-199938748D02*
X351090000Y-200461252D01*
%TO.C,R1*%
X344940000Y-199277064D02*
X344940000Y-198822936D01*
X346410000Y-199277064D02*
X346410000Y-198822936D01*
%TD*%
M02*
