%TF.GenerationSoftware,KiCad,Pcbnew,7.0.6*%
%TF.CreationDate,2023-11-30T14:11:27-08:00*%
%TF.ProjectId,ReflectiveSensor,5265666c-6563-4746-9976-6553656e736f,rev?*%
%TF.SameCoordinates,Original*%
%TF.FileFunction,Drillmap*%
%TF.FilePolarity,Positive*%
%FSLAX45Y45*%
G04 Gerber Fmt 4.5, Leading zero omitted, Abs format (unit mm)*
G04 Created by KiCad (PCBNEW 7.0.6) date 2023-11-30 14:11:27*
%MOMM*%
%LPD*%
G01*
G04 APERTURE LIST*
%ADD10C,0.100000*%
%ADD11C,0.200000*%
%ADD12C,0.220000*%
G04 APERTURE END LIST*
D10*
X33847500Y-20035000D02*
G75*
G03*
X34047500Y-20235000I200000J0D01*
G01*
X36297500Y-20235000D02*
G75*
G03*
X36497500Y-20035000I0J200000D01*
G01*
X36297500Y-20235000D02*
X34047500Y-20235000D01*
X34047500Y-19585000D02*
G75*
G03*
X33847500Y-19785000I0J-200000D01*
G01*
X33847500Y-20035000D02*
X33847500Y-19785000D01*
X36497500Y-19785000D02*
G75*
G03*
X36297500Y-19585000I-200000J0D01*
G01*
X36497500Y-19785000D02*
X36497500Y-20035000D01*
X34047500Y-19585000D02*
X36297500Y-19585000D01*
D11*
D12*
X34052500Y-19800000D02*
X34272500Y-20020000D01*
X34272500Y-19800000D02*
X34052500Y-20020000D01*
X36077500Y-19797500D02*
X36297500Y-20017500D01*
X36297500Y-19797500D02*
X36077500Y-20017500D01*
D11*
X34103277Y-20551484D02*
X34103277Y-20351484D01*
X34103277Y-20351484D02*
X34150896Y-20351484D01*
X34150896Y-20351484D02*
X34179467Y-20361008D01*
X34179467Y-20361008D02*
X34198515Y-20380055D01*
X34198515Y-20380055D02*
X34208039Y-20399103D01*
X34208039Y-20399103D02*
X34217563Y-20437198D01*
X34217563Y-20437198D02*
X34217563Y-20465770D01*
X34217563Y-20465770D02*
X34208039Y-20503865D01*
X34208039Y-20503865D02*
X34198515Y-20522912D01*
X34198515Y-20522912D02*
X34179467Y-20541960D01*
X34179467Y-20541960D02*
X34150896Y-20551484D01*
X34150896Y-20551484D02*
X34103277Y-20551484D01*
X34303277Y-20551484D02*
X34303277Y-20418150D01*
X34303277Y-20456246D02*
X34312801Y-20437198D01*
X34312801Y-20437198D02*
X34322324Y-20427674D01*
X34322324Y-20427674D02*
X34341372Y-20418150D01*
X34341372Y-20418150D02*
X34360420Y-20418150D01*
X34427086Y-20551484D02*
X34427086Y-20418150D01*
X34427086Y-20351484D02*
X34417563Y-20361008D01*
X34417563Y-20361008D02*
X34427086Y-20370531D01*
X34427086Y-20370531D02*
X34436610Y-20361008D01*
X34436610Y-20361008D02*
X34427086Y-20351484D01*
X34427086Y-20351484D02*
X34427086Y-20370531D01*
X34550896Y-20551484D02*
X34531848Y-20541960D01*
X34531848Y-20541960D02*
X34522324Y-20522912D01*
X34522324Y-20522912D02*
X34522324Y-20351484D01*
X34655658Y-20551484D02*
X34636610Y-20541960D01*
X34636610Y-20541960D02*
X34627086Y-20522912D01*
X34627086Y-20522912D02*
X34627086Y-20351484D01*
X34884229Y-20551484D02*
X34884229Y-20351484D01*
X34884229Y-20351484D02*
X34950896Y-20494341D01*
X34950896Y-20494341D02*
X35017563Y-20351484D01*
X35017563Y-20351484D02*
X35017563Y-20551484D01*
X35198515Y-20551484D02*
X35198515Y-20446722D01*
X35198515Y-20446722D02*
X35188991Y-20427674D01*
X35188991Y-20427674D02*
X35169944Y-20418150D01*
X35169944Y-20418150D02*
X35131848Y-20418150D01*
X35131848Y-20418150D02*
X35112801Y-20427674D01*
X35198515Y-20541960D02*
X35179467Y-20551484D01*
X35179467Y-20551484D02*
X35131848Y-20551484D01*
X35131848Y-20551484D02*
X35112801Y-20541960D01*
X35112801Y-20541960D02*
X35103277Y-20522912D01*
X35103277Y-20522912D02*
X35103277Y-20503865D01*
X35103277Y-20503865D02*
X35112801Y-20484817D01*
X35112801Y-20484817D02*
X35131848Y-20475293D01*
X35131848Y-20475293D02*
X35179467Y-20475293D01*
X35179467Y-20475293D02*
X35198515Y-20465770D01*
X35293753Y-20418150D02*
X35293753Y-20618150D01*
X35293753Y-20427674D02*
X35312801Y-20418150D01*
X35312801Y-20418150D02*
X35350896Y-20418150D01*
X35350896Y-20418150D02*
X35369944Y-20427674D01*
X35369944Y-20427674D02*
X35379467Y-20437198D01*
X35379467Y-20437198D02*
X35388991Y-20456246D01*
X35388991Y-20456246D02*
X35388991Y-20513389D01*
X35388991Y-20513389D02*
X35379467Y-20532436D01*
X35379467Y-20532436D02*
X35369944Y-20541960D01*
X35369944Y-20541960D02*
X35350896Y-20551484D01*
X35350896Y-20551484D02*
X35312801Y-20551484D01*
X35312801Y-20551484D02*
X35293753Y-20541960D01*
X35474705Y-20532436D02*
X35484229Y-20541960D01*
X35484229Y-20541960D02*
X35474705Y-20551484D01*
X35474705Y-20551484D02*
X35465182Y-20541960D01*
X35465182Y-20541960D02*
X35474705Y-20532436D01*
X35474705Y-20532436D02*
X35474705Y-20551484D01*
X35474705Y-20427674D02*
X35484229Y-20437198D01*
X35484229Y-20437198D02*
X35474705Y-20446722D01*
X35474705Y-20446722D02*
X35465182Y-20437198D01*
X35465182Y-20437198D02*
X35474705Y-20427674D01*
X35474705Y-20427674D02*
X35474705Y-20446722D01*
X33642500Y-20780000D02*
X33842500Y-20980000D01*
X33842500Y-20780000D02*
X33642500Y-20980000D01*
X34093753Y-20790531D02*
X34103277Y-20781008D01*
X34103277Y-20781008D02*
X34122324Y-20771484D01*
X34122324Y-20771484D02*
X34169944Y-20771484D01*
X34169944Y-20771484D02*
X34188991Y-20781008D01*
X34188991Y-20781008D02*
X34198515Y-20790531D01*
X34198515Y-20790531D02*
X34208039Y-20809579D01*
X34208039Y-20809579D02*
X34208039Y-20828627D01*
X34208039Y-20828627D02*
X34198515Y-20857198D01*
X34198515Y-20857198D02*
X34084229Y-20971484D01*
X34084229Y-20971484D02*
X34208039Y-20971484D01*
X34293753Y-20952436D02*
X34303277Y-20961960D01*
X34303277Y-20961960D02*
X34293753Y-20971484D01*
X34293753Y-20971484D02*
X34284229Y-20961960D01*
X34284229Y-20961960D02*
X34293753Y-20952436D01*
X34293753Y-20952436D02*
X34293753Y-20971484D01*
X34379467Y-20790531D02*
X34388991Y-20781008D01*
X34388991Y-20781008D02*
X34408039Y-20771484D01*
X34408039Y-20771484D02*
X34455658Y-20771484D01*
X34455658Y-20771484D02*
X34474705Y-20781008D01*
X34474705Y-20781008D02*
X34484229Y-20790531D01*
X34484229Y-20790531D02*
X34493753Y-20809579D01*
X34493753Y-20809579D02*
X34493753Y-20828627D01*
X34493753Y-20828627D02*
X34484229Y-20857198D01*
X34484229Y-20857198D02*
X34369944Y-20971484D01*
X34369944Y-20971484D02*
X34493753Y-20971484D01*
X34617563Y-20771484D02*
X34636610Y-20771484D01*
X34636610Y-20771484D02*
X34655658Y-20781008D01*
X34655658Y-20781008D02*
X34665182Y-20790531D01*
X34665182Y-20790531D02*
X34674705Y-20809579D01*
X34674705Y-20809579D02*
X34684229Y-20847674D01*
X34684229Y-20847674D02*
X34684229Y-20895293D01*
X34684229Y-20895293D02*
X34674705Y-20933389D01*
X34674705Y-20933389D02*
X34665182Y-20952436D01*
X34665182Y-20952436D02*
X34655658Y-20961960D01*
X34655658Y-20961960D02*
X34636610Y-20971484D01*
X34636610Y-20971484D02*
X34617563Y-20971484D01*
X34617563Y-20971484D02*
X34598515Y-20961960D01*
X34598515Y-20961960D02*
X34588991Y-20952436D01*
X34588991Y-20952436D02*
X34579467Y-20933389D01*
X34579467Y-20933389D02*
X34569944Y-20895293D01*
X34569944Y-20895293D02*
X34569944Y-20847674D01*
X34569944Y-20847674D02*
X34579467Y-20809579D01*
X34579467Y-20809579D02*
X34588991Y-20790531D01*
X34588991Y-20790531D02*
X34598515Y-20781008D01*
X34598515Y-20781008D02*
X34617563Y-20771484D01*
X34808039Y-20771484D02*
X34827086Y-20771484D01*
X34827086Y-20771484D02*
X34846134Y-20781008D01*
X34846134Y-20781008D02*
X34855658Y-20790531D01*
X34855658Y-20790531D02*
X34865182Y-20809579D01*
X34865182Y-20809579D02*
X34874705Y-20847674D01*
X34874705Y-20847674D02*
X34874705Y-20895293D01*
X34874705Y-20895293D02*
X34865182Y-20933389D01*
X34865182Y-20933389D02*
X34855658Y-20952436D01*
X34855658Y-20952436D02*
X34846134Y-20961960D01*
X34846134Y-20961960D02*
X34827086Y-20971484D01*
X34827086Y-20971484D02*
X34808039Y-20971484D01*
X34808039Y-20971484D02*
X34788991Y-20961960D01*
X34788991Y-20961960D02*
X34779467Y-20952436D01*
X34779467Y-20952436D02*
X34769944Y-20933389D01*
X34769944Y-20933389D02*
X34760420Y-20895293D01*
X34760420Y-20895293D02*
X34760420Y-20847674D01*
X34760420Y-20847674D02*
X34769944Y-20809579D01*
X34769944Y-20809579D02*
X34779467Y-20790531D01*
X34779467Y-20790531D02*
X34788991Y-20781008D01*
X34788991Y-20781008D02*
X34808039Y-20771484D01*
X34960420Y-20971484D02*
X34960420Y-20838150D01*
X34960420Y-20857198D02*
X34969944Y-20847674D01*
X34969944Y-20847674D02*
X34988991Y-20838150D01*
X34988991Y-20838150D02*
X35017563Y-20838150D01*
X35017563Y-20838150D02*
X35036610Y-20847674D01*
X35036610Y-20847674D02*
X35046134Y-20866722D01*
X35046134Y-20866722D02*
X35046134Y-20971484D01*
X35046134Y-20866722D02*
X35055658Y-20847674D01*
X35055658Y-20847674D02*
X35074705Y-20838150D01*
X35074705Y-20838150D02*
X35103277Y-20838150D01*
X35103277Y-20838150D02*
X35122325Y-20847674D01*
X35122325Y-20847674D02*
X35131848Y-20866722D01*
X35131848Y-20866722D02*
X35131848Y-20971484D01*
X35227086Y-20971484D02*
X35227086Y-20838150D01*
X35227086Y-20857198D02*
X35236610Y-20847674D01*
X35236610Y-20847674D02*
X35255658Y-20838150D01*
X35255658Y-20838150D02*
X35284229Y-20838150D01*
X35284229Y-20838150D02*
X35303277Y-20847674D01*
X35303277Y-20847674D02*
X35312801Y-20866722D01*
X35312801Y-20866722D02*
X35312801Y-20971484D01*
X35312801Y-20866722D02*
X35322325Y-20847674D01*
X35322325Y-20847674D02*
X35341372Y-20838150D01*
X35341372Y-20838150D02*
X35369944Y-20838150D01*
X35369944Y-20838150D02*
X35388991Y-20847674D01*
X35388991Y-20847674D02*
X35398515Y-20866722D01*
X35398515Y-20866722D02*
X35398515Y-20971484D01*
X35788991Y-20761960D02*
X35617563Y-21019103D01*
X36046134Y-20771484D02*
X36065182Y-20771484D01*
X36065182Y-20771484D02*
X36084229Y-20781008D01*
X36084229Y-20781008D02*
X36093753Y-20790531D01*
X36093753Y-20790531D02*
X36103277Y-20809579D01*
X36103277Y-20809579D02*
X36112801Y-20847674D01*
X36112801Y-20847674D02*
X36112801Y-20895293D01*
X36112801Y-20895293D02*
X36103277Y-20933389D01*
X36103277Y-20933389D02*
X36093753Y-20952436D01*
X36093753Y-20952436D02*
X36084229Y-20961960D01*
X36084229Y-20961960D02*
X36065182Y-20971484D01*
X36065182Y-20971484D02*
X36046134Y-20971484D01*
X36046134Y-20971484D02*
X36027087Y-20961960D01*
X36027087Y-20961960D02*
X36017563Y-20952436D01*
X36017563Y-20952436D02*
X36008039Y-20933389D01*
X36008039Y-20933389D02*
X35998515Y-20895293D01*
X35998515Y-20895293D02*
X35998515Y-20847674D01*
X35998515Y-20847674D02*
X36008039Y-20809579D01*
X36008039Y-20809579D02*
X36017563Y-20790531D01*
X36017563Y-20790531D02*
X36027087Y-20781008D01*
X36027087Y-20781008D02*
X36046134Y-20771484D01*
X36198515Y-20952436D02*
X36208039Y-20961960D01*
X36208039Y-20961960D02*
X36198515Y-20971484D01*
X36198515Y-20971484D02*
X36188991Y-20961960D01*
X36188991Y-20961960D02*
X36198515Y-20952436D01*
X36198515Y-20952436D02*
X36198515Y-20971484D01*
X36331848Y-20771484D02*
X36350896Y-20771484D01*
X36350896Y-20771484D02*
X36369944Y-20781008D01*
X36369944Y-20781008D02*
X36379468Y-20790531D01*
X36379468Y-20790531D02*
X36388991Y-20809579D01*
X36388991Y-20809579D02*
X36398515Y-20847674D01*
X36398515Y-20847674D02*
X36398515Y-20895293D01*
X36398515Y-20895293D02*
X36388991Y-20933389D01*
X36388991Y-20933389D02*
X36379468Y-20952436D01*
X36379468Y-20952436D02*
X36369944Y-20961960D01*
X36369944Y-20961960D02*
X36350896Y-20971484D01*
X36350896Y-20971484D02*
X36331848Y-20971484D01*
X36331848Y-20971484D02*
X36312801Y-20961960D01*
X36312801Y-20961960D02*
X36303277Y-20952436D01*
X36303277Y-20952436D02*
X36293753Y-20933389D01*
X36293753Y-20933389D02*
X36284229Y-20895293D01*
X36284229Y-20895293D02*
X36284229Y-20847674D01*
X36284229Y-20847674D02*
X36293753Y-20809579D01*
X36293753Y-20809579D02*
X36303277Y-20790531D01*
X36303277Y-20790531D02*
X36312801Y-20781008D01*
X36312801Y-20781008D02*
X36331848Y-20771484D01*
X36512801Y-20857198D02*
X36493753Y-20847674D01*
X36493753Y-20847674D02*
X36484229Y-20838150D01*
X36484229Y-20838150D02*
X36474706Y-20819103D01*
X36474706Y-20819103D02*
X36474706Y-20809579D01*
X36474706Y-20809579D02*
X36484229Y-20790531D01*
X36484229Y-20790531D02*
X36493753Y-20781008D01*
X36493753Y-20781008D02*
X36512801Y-20771484D01*
X36512801Y-20771484D02*
X36550896Y-20771484D01*
X36550896Y-20771484D02*
X36569944Y-20781008D01*
X36569944Y-20781008D02*
X36579468Y-20790531D01*
X36579468Y-20790531D02*
X36588991Y-20809579D01*
X36588991Y-20809579D02*
X36588991Y-20819103D01*
X36588991Y-20819103D02*
X36579468Y-20838150D01*
X36579468Y-20838150D02*
X36569944Y-20847674D01*
X36569944Y-20847674D02*
X36550896Y-20857198D01*
X36550896Y-20857198D02*
X36512801Y-20857198D01*
X36512801Y-20857198D02*
X36493753Y-20866722D01*
X36493753Y-20866722D02*
X36484229Y-20876246D01*
X36484229Y-20876246D02*
X36474706Y-20895293D01*
X36474706Y-20895293D02*
X36474706Y-20933389D01*
X36474706Y-20933389D02*
X36484229Y-20952436D01*
X36484229Y-20952436D02*
X36493753Y-20961960D01*
X36493753Y-20961960D02*
X36512801Y-20971484D01*
X36512801Y-20971484D02*
X36550896Y-20971484D01*
X36550896Y-20971484D02*
X36569944Y-20961960D01*
X36569944Y-20961960D02*
X36579468Y-20952436D01*
X36579468Y-20952436D02*
X36588991Y-20933389D01*
X36588991Y-20933389D02*
X36588991Y-20895293D01*
X36588991Y-20895293D02*
X36579468Y-20876246D01*
X36579468Y-20876246D02*
X36569944Y-20866722D01*
X36569944Y-20866722D02*
X36550896Y-20857198D01*
X36760420Y-20771484D02*
X36722325Y-20771484D01*
X36722325Y-20771484D02*
X36703277Y-20781008D01*
X36703277Y-20781008D02*
X36693753Y-20790531D01*
X36693753Y-20790531D02*
X36674706Y-20819103D01*
X36674706Y-20819103D02*
X36665182Y-20857198D01*
X36665182Y-20857198D02*
X36665182Y-20933389D01*
X36665182Y-20933389D02*
X36674706Y-20952436D01*
X36674706Y-20952436D02*
X36684229Y-20961960D01*
X36684229Y-20961960D02*
X36703277Y-20971484D01*
X36703277Y-20971484D02*
X36741372Y-20971484D01*
X36741372Y-20971484D02*
X36760420Y-20961960D01*
X36760420Y-20961960D02*
X36769944Y-20952436D01*
X36769944Y-20952436D02*
X36779468Y-20933389D01*
X36779468Y-20933389D02*
X36779468Y-20885770D01*
X36779468Y-20885770D02*
X36769944Y-20866722D01*
X36769944Y-20866722D02*
X36760420Y-20857198D01*
X36760420Y-20857198D02*
X36741372Y-20847674D01*
X36741372Y-20847674D02*
X36703277Y-20847674D01*
X36703277Y-20847674D02*
X36684229Y-20857198D01*
X36684229Y-20857198D02*
X36674706Y-20866722D01*
X36674706Y-20866722D02*
X36665182Y-20885770D01*
X36950896Y-20771484D02*
X36912801Y-20771484D01*
X36912801Y-20771484D02*
X36893753Y-20781008D01*
X36893753Y-20781008D02*
X36884229Y-20790531D01*
X36884229Y-20790531D02*
X36865182Y-20819103D01*
X36865182Y-20819103D02*
X36855658Y-20857198D01*
X36855658Y-20857198D02*
X36855658Y-20933389D01*
X36855658Y-20933389D02*
X36865182Y-20952436D01*
X36865182Y-20952436D02*
X36874706Y-20961960D01*
X36874706Y-20961960D02*
X36893753Y-20971484D01*
X36893753Y-20971484D02*
X36931849Y-20971484D01*
X36931849Y-20971484D02*
X36950896Y-20961960D01*
X36950896Y-20961960D02*
X36960420Y-20952436D01*
X36960420Y-20952436D02*
X36969944Y-20933389D01*
X36969944Y-20933389D02*
X36969944Y-20885770D01*
X36969944Y-20885770D02*
X36960420Y-20866722D01*
X36960420Y-20866722D02*
X36950896Y-20857198D01*
X36950896Y-20857198D02*
X36931849Y-20847674D01*
X36931849Y-20847674D02*
X36893753Y-20847674D01*
X36893753Y-20847674D02*
X36874706Y-20857198D01*
X36874706Y-20857198D02*
X36865182Y-20866722D01*
X36865182Y-20866722D02*
X36855658Y-20885770D01*
X37046134Y-20771484D02*
X37046134Y-20809579D01*
X37122325Y-20771484D02*
X37122325Y-20809579D01*
X37417563Y-21047674D02*
X37408039Y-21038150D01*
X37408039Y-21038150D02*
X37388991Y-21009579D01*
X37388991Y-21009579D02*
X37379468Y-20990531D01*
X37379468Y-20990531D02*
X37369944Y-20961960D01*
X37369944Y-20961960D02*
X37360420Y-20914341D01*
X37360420Y-20914341D02*
X37360420Y-20876246D01*
X37360420Y-20876246D02*
X37369944Y-20828627D01*
X37369944Y-20828627D02*
X37379468Y-20800055D01*
X37379468Y-20800055D02*
X37388991Y-20781008D01*
X37388991Y-20781008D02*
X37408039Y-20752436D01*
X37408039Y-20752436D02*
X37417563Y-20742912D01*
X37484230Y-20790531D02*
X37493753Y-20781008D01*
X37493753Y-20781008D02*
X37512801Y-20771484D01*
X37512801Y-20771484D02*
X37560420Y-20771484D01*
X37560420Y-20771484D02*
X37579468Y-20781008D01*
X37579468Y-20781008D02*
X37588991Y-20790531D01*
X37588991Y-20790531D02*
X37598515Y-20809579D01*
X37598515Y-20809579D02*
X37598515Y-20828627D01*
X37598515Y-20828627D02*
X37588991Y-20857198D01*
X37588991Y-20857198D02*
X37474706Y-20971484D01*
X37474706Y-20971484D02*
X37598515Y-20971484D01*
X37836611Y-20971484D02*
X37836611Y-20771484D01*
X37922325Y-20971484D02*
X37922325Y-20866722D01*
X37922325Y-20866722D02*
X37912801Y-20847674D01*
X37912801Y-20847674D02*
X37893753Y-20838150D01*
X37893753Y-20838150D02*
X37865182Y-20838150D01*
X37865182Y-20838150D02*
X37846134Y-20847674D01*
X37846134Y-20847674D02*
X37836611Y-20857198D01*
X38046134Y-20971484D02*
X38027087Y-20961960D01*
X38027087Y-20961960D02*
X38017563Y-20952436D01*
X38017563Y-20952436D02*
X38008039Y-20933389D01*
X38008039Y-20933389D02*
X38008039Y-20876246D01*
X38008039Y-20876246D02*
X38017563Y-20857198D01*
X38017563Y-20857198D02*
X38027087Y-20847674D01*
X38027087Y-20847674D02*
X38046134Y-20838150D01*
X38046134Y-20838150D02*
X38074706Y-20838150D01*
X38074706Y-20838150D02*
X38093753Y-20847674D01*
X38093753Y-20847674D02*
X38103277Y-20857198D01*
X38103277Y-20857198D02*
X38112801Y-20876246D01*
X38112801Y-20876246D02*
X38112801Y-20933389D01*
X38112801Y-20933389D02*
X38103277Y-20952436D01*
X38103277Y-20952436D02*
X38093753Y-20961960D01*
X38093753Y-20961960D02*
X38074706Y-20971484D01*
X38074706Y-20971484D02*
X38046134Y-20971484D01*
X38227087Y-20971484D02*
X38208039Y-20961960D01*
X38208039Y-20961960D02*
X38198515Y-20942912D01*
X38198515Y-20942912D02*
X38198515Y-20771484D01*
X38379468Y-20961960D02*
X38360420Y-20971484D01*
X38360420Y-20971484D02*
X38322325Y-20971484D01*
X38322325Y-20971484D02*
X38303277Y-20961960D01*
X38303277Y-20961960D02*
X38293753Y-20942912D01*
X38293753Y-20942912D02*
X38293753Y-20866722D01*
X38293753Y-20866722D02*
X38303277Y-20847674D01*
X38303277Y-20847674D02*
X38322325Y-20838150D01*
X38322325Y-20838150D02*
X38360420Y-20838150D01*
X38360420Y-20838150D02*
X38379468Y-20847674D01*
X38379468Y-20847674D02*
X38388992Y-20866722D01*
X38388992Y-20866722D02*
X38388992Y-20885770D01*
X38388992Y-20885770D02*
X38293753Y-20904817D01*
X38465182Y-20961960D02*
X38484230Y-20971484D01*
X38484230Y-20971484D02*
X38522325Y-20971484D01*
X38522325Y-20971484D02*
X38541373Y-20961960D01*
X38541373Y-20961960D02*
X38550896Y-20942912D01*
X38550896Y-20942912D02*
X38550896Y-20933389D01*
X38550896Y-20933389D02*
X38541373Y-20914341D01*
X38541373Y-20914341D02*
X38522325Y-20904817D01*
X38522325Y-20904817D02*
X38493753Y-20904817D01*
X38493753Y-20904817D02*
X38474706Y-20895293D01*
X38474706Y-20895293D02*
X38465182Y-20876246D01*
X38465182Y-20876246D02*
X38465182Y-20866722D01*
X38465182Y-20866722D02*
X38474706Y-20847674D01*
X38474706Y-20847674D02*
X38493753Y-20838150D01*
X38493753Y-20838150D02*
X38522325Y-20838150D01*
X38522325Y-20838150D02*
X38541373Y-20847674D01*
X38617563Y-21047674D02*
X38627087Y-21038150D01*
X38627087Y-21038150D02*
X38646134Y-21009579D01*
X38646134Y-21009579D02*
X38655658Y-20990531D01*
X38655658Y-20990531D02*
X38665182Y-20961960D01*
X38665182Y-20961960D02*
X38674706Y-20914341D01*
X38674706Y-20914341D02*
X38674706Y-20876246D01*
X38674706Y-20876246D02*
X38665182Y-20828627D01*
X38665182Y-20828627D02*
X38655658Y-20800055D01*
X38655658Y-20800055D02*
X38646134Y-20781008D01*
X38646134Y-20781008D02*
X38627087Y-20752436D01*
X38627087Y-20752436D02*
X38617563Y-20742912D01*
X38979468Y-21047674D02*
X38969944Y-21038150D01*
X38969944Y-21038150D02*
X38950896Y-21009579D01*
X38950896Y-21009579D02*
X38941373Y-20990531D01*
X38941373Y-20990531D02*
X38931849Y-20961960D01*
X38931849Y-20961960D02*
X38922325Y-20914341D01*
X38922325Y-20914341D02*
X38922325Y-20876246D01*
X38922325Y-20876246D02*
X38931849Y-20828627D01*
X38931849Y-20828627D02*
X38941373Y-20800055D01*
X38941373Y-20800055D02*
X38950896Y-20781008D01*
X38950896Y-20781008D02*
X38969944Y-20752436D01*
X38969944Y-20752436D02*
X38979468Y-20742912D01*
X39055658Y-20838150D02*
X39055658Y-20971484D01*
X39055658Y-20857198D02*
X39065182Y-20847674D01*
X39065182Y-20847674D02*
X39084230Y-20838150D01*
X39084230Y-20838150D02*
X39112801Y-20838150D01*
X39112801Y-20838150D02*
X39131849Y-20847674D01*
X39131849Y-20847674D02*
X39141373Y-20866722D01*
X39141373Y-20866722D02*
X39141373Y-20971484D01*
X39265182Y-20971484D02*
X39246134Y-20961960D01*
X39246134Y-20961960D02*
X39236611Y-20952436D01*
X39236611Y-20952436D02*
X39227087Y-20933389D01*
X39227087Y-20933389D02*
X39227087Y-20876246D01*
X39227087Y-20876246D02*
X39236611Y-20857198D01*
X39236611Y-20857198D02*
X39246134Y-20847674D01*
X39246134Y-20847674D02*
X39265182Y-20838150D01*
X39265182Y-20838150D02*
X39293754Y-20838150D01*
X39293754Y-20838150D02*
X39312801Y-20847674D01*
X39312801Y-20847674D02*
X39322325Y-20857198D01*
X39322325Y-20857198D02*
X39331849Y-20876246D01*
X39331849Y-20876246D02*
X39331849Y-20933389D01*
X39331849Y-20933389D02*
X39322325Y-20952436D01*
X39322325Y-20952436D02*
X39312801Y-20961960D01*
X39312801Y-20961960D02*
X39293754Y-20971484D01*
X39293754Y-20971484D02*
X39265182Y-20971484D01*
X39388992Y-20838150D02*
X39465182Y-20838150D01*
X39417563Y-20771484D02*
X39417563Y-20942912D01*
X39417563Y-20942912D02*
X39427087Y-20961960D01*
X39427087Y-20961960D02*
X39446134Y-20971484D01*
X39446134Y-20971484D02*
X39465182Y-20971484D01*
X39684230Y-20838150D02*
X39684230Y-21038150D01*
X39684230Y-20847674D02*
X39703277Y-20838150D01*
X39703277Y-20838150D02*
X39741373Y-20838150D01*
X39741373Y-20838150D02*
X39760420Y-20847674D01*
X39760420Y-20847674D02*
X39769944Y-20857198D01*
X39769944Y-20857198D02*
X39779468Y-20876246D01*
X39779468Y-20876246D02*
X39779468Y-20933389D01*
X39779468Y-20933389D02*
X39769944Y-20952436D01*
X39769944Y-20952436D02*
X39760420Y-20961960D01*
X39760420Y-20961960D02*
X39741373Y-20971484D01*
X39741373Y-20971484D02*
X39703277Y-20971484D01*
X39703277Y-20971484D02*
X39684230Y-20961960D01*
X39893754Y-20971484D02*
X39874706Y-20961960D01*
X39874706Y-20961960D02*
X39865182Y-20942912D01*
X39865182Y-20942912D02*
X39865182Y-20771484D01*
X40055658Y-20971484D02*
X40055658Y-20866722D01*
X40055658Y-20866722D02*
X40046135Y-20847674D01*
X40046135Y-20847674D02*
X40027087Y-20838150D01*
X40027087Y-20838150D02*
X39988992Y-20838150D01*
X39988992Y-20838150D02*
X39969944Y-20847674D01*
X40055658Y-20961960D02*
X40036611Y-20971484D01*
X40036611Y-20971484D02*
X39988992Y-20971484D01*
X39988992Y-20971484D02*
X39969944Y-20961960D01*
X39969944Y-20961960D02*
X39960420Y-20942912D01*
X39960420Y-20942912D02*
X39960420Y-20923865D01*
X39960420Y-20923865D02*
X39969944Y-20904817D01*
X39969944Y-20904817D02*
X39988992Y-20895293D01*
X39988992Y-20895293D02*
X40036611Y-20895293D01*
X40036611Y-20895293D02*
X40055658Y-20885770D01*
X40122325Y-20838150D02*
X40198515Y-20838150D01*
X40150896Y-20771484D02*
X40150896Y-20942912D01*
X40150896Y-20942912D02*
X40160420Y-20961960D01*
X40160420Y-20961960D02*
X40179468Y-20971484D01*
X40179468Y-20971484D02*
X40198515Y-20971484D01*
X40341373Y-20961960D02*
X40322325Y-20971484D01*
X40322325Y-20971484D02*
X40284230Y-20971484D01*
X40284230Y-20971484D02*
X40265182Y-20961960D01*
X40265182Y-20961960D02*
X40255658Y-20942912D01*
X40255658Y-20942912D02*
X40255658Y-20866722D01*
X40255658Y-20866722D02*
X40265182Y-20847674D01*
X40265182Y-20847674D02*
X40284230Y-20838150D01*
X40284230Y-20838150D02*
X40322325Y-20838150D01*
X40322325Y-20838150D02*
X40341373Y-20847674D01*
X40341373Y-20847674D02*
X40350896Y-20866722D01*
X40350896Y-20866722D02*
X40350896Y-20885770D01*
X40350896Y-20885770D02*
X40255658Y-20904817D01*
X40522325Y-20971484D02*
X40522325Y-20771484D01*
X40522325Y-20961960D02*
X40503277Y-20971484D01*
X40503277Y-20971484D02*
X40465182Y-20971484D01*
X40465182Y-20971484D02*
X40446135Y-20961960D01*
X40446135Y-20961960D02*
X40436611Y-20952436D01*
X40436611Y-20952436D02*
X40427087Y-20933389D01*
X40427087Y-20933389D02*
X40427087Y-20876246D01*
X40427087Y-20876246D02*
X40436611Y-20857198D01*
X40436611Y-20857198D02*
X40446135Y-20847674D01*
X40446135Y-20847674D02*
X40465182Y-20838150D01*
X40465182Y-20838150D02*
X40503277Y-20838150D01*
X40503277Y-20838150D02*
X40522325Y-20847674D01*
X40598516Y-21047674D02*
X40608039Y-21038150D01*
X40608039Y-21038150D02*
X40627087Y-21009579D01*
X40627087Y-21009579D02*
X40636611Y-20990531D01*
X40636611Y-20990531D02*
X40646135Y-20961960D01*
X40646135Y-20961960D02*
X40655658Y-20914341D01*
X40655658Y-20914341D02*
X40655658Y-20876246D01*
X40655658Y-20876246D02*
X40646135Y-20828627D01*
X40646135Y-20828627D02*
X40636611Y-20800055D01*
X40636611Y-20800055D02*
X40627087Y-20781008D01*
X40627087Y-20781008D02*
X40608039Y-20752436D01*
X40608039Y-20752436D02*
X40598516Y-20742912D01*
M02*
