%TF.GenerationSoftware,KiCad,Pcbnew,7.0.6*%
%TF.CreationDate,2023-11-25T11:09:49-07:00*%
%TF.ProjectId,ReflectiveSensor,5265666c-6563-4746-9976-6553656e736f,rev?*%
%TF.SameCoordinates,Original*%
%TF.FileFunction,Drillmap*%
%TF.FilePolarity,Positive*%
%FSLAX45Y45*%
G04 Gerber Fmt 4.5, Leading zero omitted, Abs format (unit mm)*
G04 Created by KiCad (PCBNEW 7.0.6) date 2023-11-25 11:09:49*
%MOMM*%
%LPD*%
G01*
G04 APERTURE LIST*
%ADD10C,0.100000*%
%ADD11C,0.200000*%
%ADD12C,0.040000*%
G04 APERTURE END LIST*
D10*
X20250000Y-7700000D02*
X22255000Y-7700000D01*
X22255000Y-8335000D01*
X20250000Y-8335000D01*
X20250000Y-7700000D01*
D11*
D12*
X20355000Y-8215000D02*
X20395000Y-8255000D01*
X20395000Y-8215000D02*
X20355000Y-8255000D01*
X20980000Y-7905000D02*
X21020000Y-7945000D01*
X21020000Y-7905000D02*
X20980000Y-7945000D01*
D10*
X21331000Y-7891000D02*
G75*
G03*
X21331000Y-7891000I-50000J0D01*
G01*
X21331000Y-8145000D02*
G75*
G03*
X21331000Y-8145000I-50000J0D01*
G01*
X21585000Y-7891000D02*
G75*
G03*
X21585000Y-7891000I-50000J0D01*
G01*
X21585000Y-8145000D02*
G75*
G03*
X21585000Y-8145000I-50000J0D01*
G01*
D11*
X20505777Y-8651484D02*
X20505777Y-8451484D01*
X20505777Y-8451484D02*
X20553396Y-8451484D01*
X20553396Y-8451484D02*
X20581967Y-8461008D01*
X20581967Y-8461008D02*
X20601015Y-8480055D01*
X20601015Y-8480055D02*
X20610539Y-8499103D01*
X20610539Y-8499103D02*
X20620063Y-8537198D01*
X20620063Y-8537198D02*
X20620063Y-8565770D01*
X20620063Y-8565770D02*
X20610539Y-8603865D01*
X20610539Y-8603865D02*
X20601015Y-8622912D01*
X20601015Y-8622912D02*
X20581967Y-8641960D01*
X20581967Y-8641960D02*
X20553396Y-8651484D01*
X20553396Y-8651484D02*
X20505777Y-8651484D01*
X20705777Y-8651484D02*
X20705777Y-8518150D01*
X20705777Y-8556246D02*
X20715301Y-8537198D01*
X20715301Y-8537198D02*
X20724824Y-8527674D01*
X20724824Y-8527674D02*
X20743872Y-8518150D01*
X20743872Y-8518150D02*
X20762920Y-8518150D01*
X20829586Y-8651484D02*
X20829586Y-8518150D01*
X20829586Y-8451484D02*
X20820063Y-8461008D01*
X20820063Y-8461008D02*
X20829586Y-8470531D01*
X20829586Y-8470531D02*
X20839110Y-8461008D01*
X20839110Y-8461008D02*
X20829586Y-8451484D01*
X20829586Y-8451484D02*
X20829586Y-8470531D01*
X20953396Y-8651484D02*
X20934348Y-8641960D01*
X20934348Y-8641960D02*
X20924824Y-8622912D01*
X20924824Y-8622912D02*
X20924824Y-8451484D01*
X21058158Y-8651484D02*
X21039110Y-8641960D01*
X21039110Y-8641960D02*
X21029586Y-8622912D01*
X21029586Y-8622912D02*
X21029586Y-8451484D01*
X21286729Y-8651484D02*
X21286729Y-8451484D01*
X21286729Y-8451484D02*
X21353396Y-8594341D01*
X21353396Y-8594341D02*
X21420063Y-8451484D01*
X21420063Y-8451484D02*
X21420063Y-8651484D01*
X21601015Y-8651484D02*
X21601015Y-8546722D01*
X21601015Y-8546722D02*
X21591491Y-8527674D01*
X21591491Y-8527674D02*
X21572444Y-8518150D01*
X21572444Y-8518150D02*
X21534348Y-8518150D01*
X21534348Y-8518150D02*
X21515301Y-8527674D01*
X21601015Y-8641960D02*
X21581967Y-8651484D01*
X21581967Y-8651484D02*
X21534348Y-8651484D01*
X21534348Y-8651484D02*
X21515301Y-8641960D01*
X21515301Y-8641960D02*
X21505777Y-8622912D01*
X21505777Y-8622912D02*
X21505777Y-8603865D01*
X21505777Y-8603865D02*
X21515301Y-8584817D01*
X21515301Y-8584817D02*
X21534348Y-8575293D01*
X21534348Y-8575293D02*
X21581967Y-8575293D01*
X21581967Y-8575293D02*
X21601015Y-8565770D01*
X21696253Y-8518150D02*
X21696253Y-8718150D01*
X21696253Y-8527674D02*
X21715301Y-8518150D01*
X21715301Y-8518150D02*
X21753396Y-8518150D01*
X21753396Y-8518150D02*
X21772444Y-8527674D01*
X21772444Y-8527674D02*
X21781967Y-8537198D01*
X21781967Y-8537198D02*
X21791491Y-8556246D01*
X21791491Y-8556246D02*
X21791491Y-8613389D01*
X21791491Y-8613389D02*
X21781967Y-8632436D01*
X21781967Y-8632436D02*
X21772444Y-8641960D01*
X21772444Y-8641960D02*
X21753396Y-8651484D01*
X21753396Y-8651484D02*
X21715301Y-8651484D01*
X21715301Y-8651484D02*
X21696253Y-8641960D01*
X21877205Y-8632436D02*
X21886729Y-8641960D01*
X21886729Y-8641960D02*
X21877205Y-8651484D01*
X21877205Y-8651484D02*
X21867682Y-8641960D01*
X21867682Y-8641960D02*
X21877205Y-8632436D01*
X21877205Y-8632436D02*
X21877205Y-8651484D01*
X21877205Y-8527674D02*
X21886729Y-8537198D01*
X21886729Y-8537198D02*
X21877205Y-8546722D01*
X21877205Y-8546722D02*
X21867682Y-8537198D01*
X21867682Y-8537198D02*
X21877205Y-8527674D01*
X21877205Y-8527674D02*
X21877205Y-8546722D01*
D12*
X20205000Y-8960000D02*
X20245000Y-9000000D01*
X20245000Y-8960000D02*
X20205000Y-9000000D01*
D11*
X20543872Y-8871484D02*
X20562920Y-8871484D01*
X20562920Y-8871484D02*
X20581967Y-8881008D01*
X20581967Y-8881008D02*
X20591491Y-8890531D01*
X20591491Y-8890531D02*
X20601015Y-8909579D01*
X20601015Y-8909579D02*
X20610539Y-8947674D01*
X20610539Y-8947674D02*
X20610539Y-8995293D01*
X20610539Y-8995293D02*
X20601015Y-9033389D01*
X20601015Y-9033389D02*
X20591491Y-9052436D01*
X20591491Y-9052436D02*
X20581967Y-9061960D01*
X20581967Y-9061960D02*
X20562920Y-9071484D01*
X20562920Y-9071484D02*
X20543872Y-9071484D01*
X20543872Y-9071484D02*
X20524824Y-9061960D01*
X20524824Y-9061960D02*
X20515301Y-9052436D01*
X20515301Y-9052436D02*
X20505777Y-9033389D01*
X20505777Y-9033389D02*
X20496253Y-8995293D01*
X20496253Y-8995293D02*
X20496253Y-8947674D01*
X20496253Y-8947674D02*
X20505777Y-8909579D01*
X20505777Y-8909579D02*
X20515301Y-8890531D01*
X20515301Y-8890531D02*
X20524824Y-8881008D01*
X20524824Y-8881008D02*
X20543872Y-8871484D01*
X20696253Y-9052436D02*
X20705777Y-9061960D01*
X20705777Y-9061960D02*
X20696253Y-9071484D01*
X20696253Y-9071484D02*
X20686729Y-9061960D01*
X20686729Y-9061960D02*
X20696253Y-9052436D01*
X20696253Y-9052436D02*
X20696253Y-9071484D01*
X20877205Y-8938150D02*
X20877205Y-9071484D01*
X20829586Y-8861960D02*
X20781967Y-9004817D01*
X20781967Y-9004817D02*
X20905777Y-9004817D01*
X21020063Y-8871484D02*
X21039110Y-8871484D01*
X21039110Y-8871484D02*
X21058158Y-8881008D01*
X21058158Y-8881008D02*
X21067682Y-8890531D01*
X21067682Y-8890531D02*
X21077205Y-8909579D01*
X21077205Y-8909579D02*
X21086729Y-8947674D01*
X21086729Y-8947674D02*
X21086729Y-8995293D01*
X21086729Y-8995293D02*
X21077205Y-9033389D01*
X21077205Y-9033389D02*
X21067682Y-9052436D01*
X21067682Y-9052436D02*
X21058158Y-9061960D01*
X21058158Y-9061960D02*
X21039110Y-9071484D01*
X21039110Y-9071484D02*
X21020063Y-9071484D01*
X21020063Y-9071484D02*
X21001015Y-9061960D01*
X21001015Y-9061960D02*
X20991491Y-9052436D01*
X20991491Y-9052436D02*
X20981967Y-9033389D01*
X20981967Y-9033389D02*
X20972444Y-8995293D01*
X20972444Y-8995293D02*
X20972444Y-8947674D01*
X20972444Y-8947674D02*
X20981967Y-8909579D01*
X20981967Y-8909579D02*
X20991491Y-8890531D01*
X20991491Y-8890531D02*
X21001015Y-8881008D01*
X21001015Y-8881008D02*
X21020063Y-8871484D01*
X21210539Y-8871484D02*
X21229586Y-8871484D01*
X21229586Y-8871484D02*
X21248634Y-8881008D01*
X21248634Y-8881008D02*
X21258158Y-8890531D01*
X21258158Y-8890531D02*
X21267682Y-8909579D01*
X21267682Y-8909579D02*
X21277205Y-8947674D01*
X21277205Y-8947674D02*
X21277205Y-8995293D01*
X21277205Y-8995293D02*
X21267682Y-9033389D01*
X21267682Y-9033389D02*
X21258158Y-9052436D01*
X21258158Y-9052436D02*
X21248634Y-9061960D01*
X21248634Y-9061960D02*
X21229586Y-9071484D01*
X21229586Y-9071484D02*
X21210539Y-9071484D01*
X21210539Y-9071484D02*
X21191491Y-9061960D01*
X21191491Y-9061960D02*
X21181967Y-9052436D01*
X21181967Y-9052436D02*
X21172444Y-9033389D01*
X21172444Y-9033389D02*
X21162920Y-8995293D01*
X21162920Y-8995293D02*
X21162920Y-8947674D01*
X21162920Y-8947674D02*
X21172444Y-8909579D01*
X21172444Y-8909579D02*
X21181967Y-8890531D01*
X21181967Y-8890531D02*
X21191491Y-8881008D01*
X21191491Y-8881008D02*
X21210539Y-8871484D01*
X21362920Y-9071484D02*
X21362920Y-8938150D01*
X21362920Y-8957198D02*
X21372444Y-8947674D01*
X21372444Y-8947674D02*
X21391491Y-8938150D01*
X21391491Y-8938150D02*
X21420063Y-8938150D01*
X21420063Y-8938150D02*
X21439110Y-8947674D01*
X21439110Y-8947674D02*
X21448634Y-8966722D01*
X21448634Y-8966722D02*
X21448634Y-9071484D01*
X21448634Y-8966722D02*
X21458158Y-8947674D01*
X21458158Y-8947674D02*
X21477205Y-8938150D01*
X21477205Y-8938150D02*
X21505777Y-8938150D01*
X21505777Y-8938150D02*
X21524825Y-8947674D01*
X21524825Y-8947674D02*
X21534348Y-8966722D01*
X21534348Y-8966722D02*
X21534348Y-9071484D01*
X21629586Y-9071484D02*
X21629586Y-8938150D01*
X21629586Y-8957198D02*
X21639110Y-8947674D01*
X21639110Y-8947674D02*
X21658158Y-8938150D01*
X21658158Y-8938150D02*
X21686729Y-8938150D01*
X21686729Y-8938150D02*
X21705777Y-8947674D01*
X21705777Y-8947674D02*
X21715301Y-8966722D01*
X21715301Y-8966722D02*
X21715301Y-9071484D01*
X21715301Y-8966722D02*
X21724825Y-8947674D01*
X21724825Y-8947674D02*
X21743872Y-8938150D01*
X21743872Y-8938150D02*
X21772444Y-8938150D01*
X21772444Y-8938150D02*
X21791491Y-8947674D01*
X21791491Y-8947674D02*
X21801015Y-8966722D01*
X21801015Y-8966722D02*
X21801015Y-9071484D01*
X22191491Y-8861960D02*
X22020063Y-9119103D01*
X22448634Y-8871484D02*
X22467682Y-8871484D01*
X22467682Y-8871484D02*
X22486729Y-8881008D01*
X22486729Y-8881008D02*
X22496253Y-8890531D01*
X22496253Y-8890531D02*
X22505777Y-8909579D01*
X22505777Y-8909579D02*
X22515301Y-8947674D01*
X22515301Y-8947674D02*
X22515301Y-8995293D01*
X22515301Y-8995293D02*
X22505777Y-9033389D01*
X22505777Y-9033389D02*
X22496253Y-9052436D01*
X22496253Y-9052436D02*
X22486729Y-9061960D01*
X22486729Y-9061960D02*
X22467682Y-9071484D01*
X22467682Y-9071484D02*
X22448634Y-9071484D01*
X22448634Y-9071484D02*
X22429586Y-9061960D01*
X22429586Y-9061960D02*
X22420063Y-9052436D01*
X22420063Y-9052436D02*
X22410539Y-9033389D01*
X22410539Y-9033389D02*
X22401015Y-8995293D01*
X22401015Y-8995293D02*
X22401015Y-8947674D01*
X22401015Y-8947674D02*
X22410539Y-8909579D01*
X22410539Y-8909579D02*
X22420063Y-8890531D01*
X22420063Y-8890531D02*
X22429586Y-8881008D01*
X22429586Y-8881008D02*
X22448634Y-8871484D01*
X22601015Y-9052436D02*
X22610539Y-9061960D01*
X22610539Y-9061960D02*
X22601015Y-9071484D01*
X22601015Y-9071484D02*
X22591491Y-9061960D01*
X22591491Y-9061960D02*
X22601015Y-9052436D01*
X22601015Y-9052436D02*
X22601015Y-9071484D01*
X22734348Y-8871484D02*
X22753396Y-8871484D01*
X22753396Y-8871484D02*
X22772444Y-8881008D01*
X22772444Y-8881008D02*
X22781967Y-8890531D01*
X22781967Y-8890531D02*
X22791491Y-8909579D01*
X22791491Y-8909579D02*
X22801015Y-8947674D01*
X22801015Y-8947674D02*
X22801015Y-8995293D01*
X22801015Y-8995293D02*
X22791491Y-9033389D01*
X22791491Y-9033389D02*
X22781967Y-9052436D01*
X22781967Y-9052436D02*
X22772444Y-9061960D01*
X22772444Y-9061960D02*
X22753396Y-9071484D01*
X22753396Y-9071484D02*
X22734348Y-9071484D01*
X22734348Y-9071484D02*
X22715301Y-9061960D01*
X22715301Y-9061960D02*
X22705777Y-9052436D01*
X22705777Y-9052436D02*
X22696253Y-9033389D01*
X22696253Y-9033389D02*
X22686729Y-8995293D01*
X22686729Y-8995293D02*
X22686729Y-8947674D01*
X22686729Y-8947674D02*
X22696253Y-8909579D01*
X22696253Y-8909579D02*
X22705777Y-8890531D01*
X22705777Y-8890531D02*
X22715301Y-8881008D01*
X22715301Y-8881008D02*
X22734348Y-8871484D01*
X22991491Y-9071484D02*
X22877206Y-9071484D01*
X22934348Y-9071484D02*
X22934348Y-8871484D01*
X22934348Y-8871484D02*
X22915301Y-8900055D01*
X22915301Y-8900055D02*
X22896253Y-8919103D01*
X22896253Y-8919103D02*
X22877206Y-8928627D01*
X23172444Y-8871484D02*
X23077206Y-8871484D01*
X23077206Y-8871484D02*
X23067682Y-8966722D01*
X23067682Y-8966722D02*
X23077206Y-8957198D01*
X23077206Y-8957198D02*
X23096253Y-8947674D01*
X23096253Y-8947674D02*
X23143872Y-8947674D01*
X23143872Y-8947674D02*
X23162920Y-8957198D01*
X23162920Y-8957198D02*
X23172444Y-8966722D01*
X23172444Y-8966722D02*
X23181967Y-8985770D01*
X23181967Y-8985770D02*
X23181967Y-9033389D01*
X23181967Y-9033389D02*
X23172444Y-9052436D01*
X23172444Y-9052436D02*
X23162920Y-9061960D01*
X23162920Y-9061960D02*
X23143872Y-9071484D01*
X23143872Y-9071484D02*
X23096253Y-9071484D01*
X23096253Y-9071484D02*
X23077206Y-9061960D01*
X23077206Y-9061960D02*
X23067682Y-9052436D01*
X23248634Y-8871484D02*
X23381967Y-8871484D01*
X23381967Y-8871484D02*
X23296253Y-9071484D01*
X23448634Y-8871484D02*
X23448634Y-8909579D01*
X23524825Y-8871484D02*
X23524825Y-8909579D01*
X23820063Y-9147674D02*
X23810539Y-9138150D01*
X23810539Y-9138150D02*
X23791491Y-9109579D01*
X23791491Y-9109579D02*
X23781968Y-9090531D01*
X23781968Y-9090531D02*
X23772444Y-9061960D01*
X23772444Y-9061960D02*
X23762920Y-9014341D01*
X23762920Y-9014341D02*
X23762920Y-8976246D01*
X23762920Y-8976246D02*
X23772444Y-8928627D01*
X23772444Y-8928627D02*
X23781968Y-8900055D01*
X23781968Y-8900055D02*
X23791491Y-8881008D01*
X23791491Y-8881008D02*
X23810539Y-8852436D01*
X23810539Y-8852436D02*
X23820063Y-8842912D01*
X23886729Y-8890531D02*
X23896253Y-8881008D01*
X23896253Y-8881008D02*
X23915301Y-8871484D01*
X23915301Y-8871484D02*
X23962920Y-8871484D01*
X23962920Y-8871484D02*
X23981968Y-8881008D01*
X23981968Y-8881008D02*
X23991491Y-8890531D01*
X23991491Y-8890531D02*
X24001015Y-8909579D01*
X24001015Y-8909579D02*
X24001015Y-8928627D01*
X24001015Y-8928627D02*
X23991491Y-8957198D01*
X23991491Y-8957198D02*
X23877206Y-9071484D01*
X23877206Y-9071484D02*
X24001015Y-9071484D01*
X24239110Y-9071484D02*
X24239110Y-8871484D01*
X24324825Y-9071484D02*
X24324825Y-8966722D01*
X24324825Y-8966722D02*
X24315301Y-8947674D01*
X24315301Y-8947674D02*
X24296253Y-8938150D01*
X24296253Y-8938150D02*
X24267682Y-8938150D01*
X24267682Y-8938150D02*
X24248634Y-8947674D01*
X24248634Y-8947674D02*
X24239110Y-8957198D01*
X24448634Y-9071484D02*
X24429587Y-9061960D01*
X24429587Y-9061960D02*
X24420063Y-9052436D01*
X24420063Y-9052436D02*
X24410539Y-9033389D01*
X24410539Y-9033389D02*
X24410539Y-8976246D01*
X24410539Y-8976246D02*
X24420063Y-8957198D01*
X24420063Y-8957198D02*
X24429587Y-8947674D01*
X24429587Y-8947674D02*
X24448634Y-8938150D01*
X24448634Y-8938150D02*
X24477206Y-8938150D01*
X24477206Y-8938150D02*
X24496253Y-8947674D01*
X24496253Y-8947674D02*
X24505777Y-8957198D01*
X24505777Y-8957198D02*
X24515301Y-8976246D01*
X24515301Y-8976246D02*
X24515301Y-9033389D01*
X24515301Y-9033389D02*
X24505777Y-9052436D01*
X24505777Y-9052436D02*
X24496253Y-9061960D01*
X24496253Y-9061960D02*
X24477206Y-9071484D01*
X24477206Y-9071484D02*
X24448634Y-9071484D01*
X24629587Y-9071484D02*
X24610539Y-9061960D01*
X24610539Y-9061960D02*
X24601015Y-9042912D01*
X24601015Y-9042912D02*
X24601015Y-8871484D01*
X24781968Y-9061960D02*
X24762920Y-9071484D01*
X24762920Y-9071484D02*
X24724825Y-9071484D01*
X24724825Y-9071484D02*
X24705777Y-9061960D01*
X24705777Y-9061960D02*
X24696253Y-9042912D01*
X24696253Y-9042912D02*
X24696253Y-8966722D01*
X24696253Y-8966722D02*
X24705777Y-8947674D01*
X24705777Y-8947674D02*
X24724825Y-8938150D01*
X24724825Y-8938150D02*
X24762920Y-8938150D01*
X24762920Y-8938150D02*
X24781968Y-8947674D01*
X24781968Y-8947674D02*
X24791491Y-8966722D01*
X24791491Y-8966722D02*
X24791491Y-8985770D01*
X24791491Y-8985770D02*
X24696253Y-9004817D01*
X24867682Y-9061960D02*
X24886730Y-9071484D01*
X24886730Y-9071484D02*
X24924825Y-9071484D01*
X24924825Y-9071484D02*
X24943872Y-9061960D01*
X24943872Y-9061960D02*
X24953396Y-9042912D01*
X24953396Y-9042912D02*
X24953396Y-9033389D01*
X24953396Y-9033389D02*
X24943872Y-9014341D01*
X24943872Y-9014341D02*
X24924825Y-9004817D01*
X24924825Y-9004817D02*
X24896253Y-9004817D01*
X24896253Y-9004817D02*
X24877206Y-8995293D01*
X24877206Y-8995293D02*
X24867682Y-8976246D01*
X24867682Y-8976246D02*
X24867682Y-8966722D01*
X24867682Y-8966722D02*
X24877206Y-8947674D01*
X24877206Y-8947674D02*
X24896253Y-8938150D01*
X24896253Y-8938150D02*
X24924825Y-8938150D01*
X24924825Y-8938150D02*
X24943872Y-8947674D01*
X25020063Y-9147674D02*
X25029587Y-9138150D01*
X25029587Y-9138150D02*
X25048634Y-9109579D01*
X25048634Y-9109579D02*
X25058158Y-9090531D01*
X25058158Y-9090531D02*
X25067682Y-9061960D01*
X25067682Y-9061960D02*
X25077206Y-9014341D01*
X25077206Y-9014341D02*
X25077206Y-8976246D01*
X25077206Y-8976246D02*
X25067682Y-8928627D01*
X25067682Y-8928627D02*
X25058158Y-8900055D01*
X25058158Y-8900055D02*
X25048634Y-8881008D01*
X25048634Y-8881008D02*
X25029587Y-8852436D01*
X25029587Y-8852436D02*
X25020063Y-8842912D01*
D10*
X20245000Y-9244000D02*
G75*
G03*
X20245000Y-9244000I-50000J0D01*
G01*
D11*
X20610539Y-9335484D02*
X20496253Y-9335484D01*
X20553396Y-9335484D02*
X20553396Y-9135484D01*
X20553396Y-9135484D02*
X20534348Y-9164055D01*
X20534348Y-9164055D02*
X20515301Y-9183103D01*
X20515301Y-9183103D02*
X20496253Y-9192627D01*
X20696253Y-9316436D02*
X20705777Y-9325960D01*
X20705777Y-9325960D02*
X20696253Y-9335484D01*
X20696253Y-9335484D02*
X20686729Y-9325960D01*
X20686729Y-9325960D02*
X20696253Y-9316436D01*
X20696253Y-9316436D02*
X20696253Y-9335484D01*
X20829586Y-9135484D02*
X20848634Y-9135484D01*
X20848634Y-9135484D02*
X20867682Y-9145008D01*
X20867682Y-9145008D02*
X20877205Y-9154531D01*
X20877205Y-9154531D02*
X20886729Y-9173579D01*
X20886729Y-9173579D02*
X20896253Y-9211674D01*
X20896253Y-9211674D02*
X20896253Y-9259293D01*
X20896253Y-9259293D02*
X20886729Y-9297389D01*
X20886729Y-9297389D02*
X20877205Y-9316436D01*
X20877205Y-9316436D02*
X20867682Y-9325960D01*
X20867682Y-9325960D02*
X20848634Y-9335484D01*
X20848634Y-9335484D02*
X20829586Y-9335484D01*
X20829586Y-9335484D02*
X20810539Y-9325960D01*
X20810539Y-9325960D02*
X20801015Y-9316436D01*
X20801015Y-9316436D02*
X20791491Y-9297389D01*
X20791491Y-9297389D02*
X20781967Y-9259293D01*
X20781967Y-9259293D02*
X20781967Y-9211674D01*
X20781967Y-9211674D02*
X20791491Y-9173579D01*
X20791491Y-9173579D02*
X20801015Y-9154531D01*
X20801015Y-9154531D02*
X20810539Y-9145008D01*
X20810539Y-9145008D02*
X20829586Y-9135484D01*
X21020063Y-9135484D02*
X21039110Y-9135484D01*
X21039110Y-9135484D02*
X21058158Y-9145008D01*
X21058158Y-9145008D02*
X21067682Y-9154531D01*
X21067682Y-9154531D02*
X21077205Y-9173579D01*
X21077205Y-9173579D02*
X21086729Y-9211674D01*
X21086729Y-9211674D02*
X21086729Y-9259293D01*
X21086729Y-9259293D02*
X21077205Y-9297389D01*
X21077205Y-9297389D02*
X21067682Y-9316436D01*
X21067682Y-9316436D02*
X21058158Y-9325960D01*
X21058158Y-9325960D02*
X21039110Y-9335484D01*
X21039110Y-9335484D02*
X21020063Y-9335484D01*
X21020063Y-9335484D02*
X21001015Y-9325960D01*
X21001015Y-9325960D02*
X20991491Y-9316436D01*
X20991491Y-9316436D02*
X20981967Y-9297389D01*
X20981967Y-9297389D02*
X20972444Y-9259293D01*
X20972444Y-9259293D02*
X20972444Y-9211674D01*
X20972444Y-9211674D02*
X20981967Y-9173579D01*
X20981967Y-9173579D02*
X20991491Y-9154531D01*
X20991491Y-9154531D02*
X21001015Y-9145008D01*
X21001015Y-9145008D02*
X21020063Y-9135484D01*
X21210539Y-9135484D02*
X21229586Y-9135484D01*
X21229586Y-9135484D02*
X21248634Y-9145008D01*
X21248634Y-9145008D02*
X21258158Y-9154531D01*
X21258158Y-9154531D02*
X21267682Y-9173579D01*
X21267682Y-9173579D02*
X21277205Y-9211674D01*
X21277205Y-9211674D02*
X21277205Y-9259293D01*
X21277205Y-9259293D02*
X21267682Y-9297389D01*
X21267682Y-9297389D02*
X21258158Y-9316436D01*
X21258158Y-9316436D02*
X21248634Y-9325960D01*
X21248634Y-9325960D02*
X21229586Y-9335484D01*
X21229586Y-9335484D02*
X21210539Y-9335484D01*
X21210539Y-9335484D02*
X21191491Y-9325960D01*
X21191491Y-9325960D02*
X21181967Y-9316436D01*
X21181967Y-9316436D02*
X21172444Y-9297389D01*
X21172444Y-9297389D02*
X21162920Y-9259293D01*
X21162920Y-9259293D02*
X21162920Y-9211674D01*
X21162920Y-9211674D02*
X21172444Y-9173579D01*
X21172444Y-9173579D02*
X21181967Y-9154531D01*
X21181967Y-9154531D02*
X21191491Y-9145008D01*
X21191491Y-9145008D02*
X21210539Y-9135484D01*
X21362920Y-9335484D02*
X21362920Y-9202150D01*
X21362920Y-9221198D02*
X21372444Y-9211674D01*
X21372444Y-9211674D02*
X21391491Y-9202150D01*
X21391491Y-9202150D02*
X21420063Y-9202150D01*
X21420063Y-9202150D02*
X21439110Y-9211674D01*
X21439110Y-9211674D02*
X21448634Y-9230722D01*
X21448634Y-9230722D02*
X21448634Y-9335484D01*
X21448634Y-9230722D02*
X21458158Y-9211674D01*
X21458158Y-9211674D02*
X21477205Y-9202150D01*
X21477205Y-9202150D02*
X21505777Y-9202150D01*
X21505777Y-9202150D02*
X21524825Y-9211674D01*
X21524825Y-9211674D02*
X21534348Y-9230722D01*
X21534348Y-9230722D02*
X21534348Y-9335484D01*
X21629586Y-9335484D02*
X21629586Y-9202150D01*
X21629586Y-9221198D02*
X21639110Y-9211674D01*
X21639110Y-9211674D02*
X21658158Y-9202150D01*
X21658158Y-9202150D02*
X21686729Y-9202150D01*
X21686729Y-9202150D02*
X21705777Y-9211674D01*
X21705777Y-9211674D02*
X21715301Y-9230722D01*
X21715301Y-9230722D02*
X21715301Y-9335484D01*
X21715301Y-9230722D02*
X21724825Y-9211674D01*
X21724825Y-9211674D02*
X21743872Y-9202150D01*
X21743872Y-9202150D02*
X21772444Y-9202150D01*
X21772444Y-9202150D02*
X21791491Y-9211674D01*
X21791491Y-9211674D02*
X21801015Y-9230722D01*
X21801015Y-9230722D02*
X21801015Y-9335484D01*
X22191491Y-9125960D02*
X22020063Y-9383103D01*
X22448634Y-9135484D02*
X22467682Y-9135484D01*
X22467682Y-9135484D02*
X22486729Y-9145008D01*
X22486729Y-9145008D02*
X22496253Y-9154531D01*
X22496253Y-9154531D02*
X22505777Y-9173579D01*
X22505777Y-9173579D02*
X22515301Y-9211674D01*
X22515301Y-9211674D02*
X22515301Y-9259293D01*
X22515301Y-9259293D02*
X22505777Y-9297389D01*
X22505777Y-9297389D02*
X22496253Y-9316436D01*
X22496253Y-9316436D02*
X22486729Y-9325960D01*
X22486729Y-9325960D02*
X22467682Y-9335484D01*
X22467682Y-9335484D02*
X22448634Y-9335484D01*
X22448634Y-9335484D02*
X22429586Y-9325960D01*
X22429586Y-9325960D02*
X22420063Y-9316436D01*
X22420063Y-9316436D02*
X22410539Y-9297389D01*
X22410539Y-9297389D02*
X22401015Y-9259293D01*
X22401015Y-9259293D02*
X22401015Y-9211674D01*
X22401015Y-9211674D02*
X22410539Y-9173579D01*
X22410539Y-9173579D02*
X22420063Y-9154531D01*
X22420063Y-9154531D02*
X22429586Y-9145008D01*
X22429586Y-9145008D02*
X22448634Y-9135484D01*
X22601015Y-9316436D02*
X22610539Y-9325960D01*
X22610539Y-9325960D02*
X22601015Y-9335484D01*
X22601015Y-9335484D02*
X22591491Y-9325960D01*
X22591491Y-9325960D02*
X22601015Y-9316436D01*
X22601015Y-9316436D02*
X22601015Y-9335484D01*
X22734348Y-9135484D02*
X22753396Y-9135484D01*
X22753396Y-9135484D02*
X22772444Y-9145008D01*
X22772444Y-9145008D02*
X22781967Y-9154531D01*
X22781967Y-9154531D02*
X22791491Y-9173579D01*
X22791491Y-9173579D02*
X22801015Y-9211674D01*
X22801015Y-9211674D02*
X22801015Y-9259293D01*
X22801015Y-9259293D02*
X22791491Y-9297389D01*
X22791491Y-9297389D02*
X22781967Y-9316436D01*
X22781967Y-9316436D02*
X22772444Y-9325960D01*
X22772444Y-9325960D02*
X22753396Y-9335484D01*
X22753396Y-9335484D02*
X22734348Y-9335484D01*
X22734348Y-9335484D02*
X22715301Y-9325960D01*
X22715301Y-9325960D02*
X22705777Y-9316436D01*
X22705777Y-9316436D02*
X22696253Y-9297389D01*
X22696253Y-9297389D02*
X22686729Y-9259293D01*
X22686729Y-9259293D02*
X22686729Y-9211674D01*
X22686729Y-9211674D02*
X22696253Y-9173579D01*
X22696253Y-9173579D02*
X22705777Y-9154531D01*
X22705777Y-9154531D02*
X22715301Y-9145008D01*
X22715301Y-9145008D02*
X22734348Y-9135484D01*
X22867682Y-9135484D02*
X22991491Y-9135484D01*
X22991491Y-9135484D02*
X22924825Y-9211674D01*
X22924825Y-9211674D02*
X22953396Y-9211674D01*
X22953396Y-9211674D02*
X22972444Y-9221198D01*
X22972444Y-9221198D02*
X22981967Y-9230722D01*
X22981967Y-9230722D02*
X22991491Y-9249770D01*
X22991491Y-9249770D02*
X22991491Y-9297389D01*
X22991491Y-9297389D02*
X22981967Y-9316436D01*
X22981967Y-9316436D02*
X22972444Y-9325960D01*
X22972444Y-9325960D02*
X22953396Y-9335484D01*
X22953396Y-9335484D02*
X22896253Y-9335484D01*
X22896253Y-9335484D02*
X22877206Y-9325960D01*
X22877206Y-9325960D02*
X22867682Y-9316436D01*
X23086729Y-9335484D02*
X23124825Y-9335484D01*
X23124825Y-9335484D02*
X23143872Y-9325960D01*
X23143872Y-9325960D02*
X23153396Y-9316436D01*
X23153396Y-9316436D02*
X23172444Y-9287865D01*
X23172444Y-9287865D02*
X23181967Y-9249770D01*
X23181967Y-9249770D02*
X23181967Y-9173579D01*
X23181967Y-9173579D02*
X23172444Y-9154531D01*
X23172444Y-9154531D02*
X23162920Y-9145008D01*
X23162920Y-9145008D02*
X23143872Y-9135484D01*
X23143872Y-9135484D02*
X23105777Y-9135484D01*
X23105777Y-9135484D02*
X23086729Y-9145008D01*
X23086729Y-9145008D02*
X23077206Y-9154531D01*
X23077206Y-9154531D02*
X23067682Y-9173579D01*
X23067682Y-9173579D02*
X23067682Y-9221198D01*
X23067682Y-9221198D02*
X23077206Y-9240246D01*
X23077206Y-9240246D02*
X23086729Y-9249770D01*
X23086729Y-9249770D02*
X23105777Y-9259293D01*
X23105777Y-9259293D02*
X23143872Y-9259293D01*
X23143872Y-9259293D02*
X23162920Y-9249770D01*
X23162920Y-9249770D02*
X23172444Y-9240246D01*
X23172444Y-9240246D02*
X23181967Y-9221198D01*
X23353396Y-9202150D02*
X23353396Y-9335484D01*
X23305777Y-9125960D02*
X23258158Y-9268817D01*
X23258158Y-9268817D02*
X23381967Y-9268817D01*
X23448634Y-9135484D02*
X23448634Y-9173579D01*
X23524825Y-9135484D02*
X23524825Y-9173579D01*
X23820063Y-9411674D02*
X23810539Y-9402150D01*
X23810539Y-9402150D02*
X23791491Y-9373579D01*
X23791491Y-9373579D02*
X23781968Y-9354531D01*
X23781968Y-9354531D02*
X23772444Y-9325960D01*
X23772444Y-9325960D02*
X23762920Y-9278341D01*
X23762920Y-9278341D02*
X23762920Y-9240246D01*
X23762920Y-9240246D02*
X23772444Y-9192627D01*
X23772444Y-9192627D02*
X23781968Y-9164055D01*
X23781968Y-9164055D02*
X23791491Y-9145008D01*
X23791491Y-9145008D02*
X23810539Y-9116436D01*
X23810539Y-9116436D02*
X23820063Y-9106912D01*
X23981968Y-9202150D02*
X23981968Y-9335484D01*
X23934348Y-9125960D02*
X23886729Y-9268817D01*
X23886729Y-9268817D02*
X24010539Y-9268817D01*
X24239110Y-9335484D02*
X24239110Y-9135484D01*
X24324825Y-9335484D02*
X24324825Y-9230722D01*
X24324825Y-9230722D02*
X24315301Y-9211674D01*
X24315301Y-9211674D02*
X24296253Y-9202150D01*
X24296253Y-9202150D02*
X24267682Y-9202150D01*
X24267682Y-9202150D02*
X24248634Y-9211674D01*
X24248634Y-9211674D02*
X24239110Y-9221198D01*
X24448634Y-9335484D02*
X24429587Y-9325960D01*
X24429587Y-9325960D02*
X24420063Y-9316436D01*
X24420063Y-9316436D02*
X24410539Y-9297389D01*
X24410539Y-9297389D02*
X24410539Y-9240246D01*
X24410539Y-9240246D02*
X24420063Y-9221198D01*
X24420063Y-9221198D02*
X24429587Y-9211674D01*
X24429587Y-9211674D02*
X24448634Y-9202150D01*
X24448634Y-9202150D02*
X24477206Y-9202150D01*
X24477206Y-9202150D02*
X24496253Y-9211674D01*
X24496253Y-9211674D02*
X24505777Y-9221198D01*
X24505777Y-9221198D02*
X24515301Y-9240246D01*
X24515301Y-9240246D02*
X24515301Y-9297389D01*
X24515301Y-9297389D02*
X24505777Y-9316436D01*
X24505777Y-9316436D02*
X24496253Y-9325960D01*
X24496253Y-9325960D02*
X24477206Y-9335484D01*
X24477206Y-9335484D02*
X24448634Y-9335484D01*
X24629587Y-9335484D02*
X24610539Y-9325960D01*
X24610539Y-9325960D02*
X24601015Y-9306912D01*
X24601015Y-9306912D02*
X24601015Y-9135484D01*
X24781968Y-9325960D02*
X24762920Y-9335484D01*
X24762920Y-9335484D02*
X24724825Y-9335484D01*
X24724825Y-9335484D02*
X24705777Y-9325960D01*
X24705777Y-9325960D02*
X24696253Y-9306912D01*
X24696253Y-9306912D02*
X24696253Y-9230722D01*
X24696253Y-9230722D02*
X24705777Y-9211674D01*
X24705777Y-9211674D02*
X24724825Y-9202150D01*
X24724825Y-9202150D02*
X24762920Y-9202150D01*
X24762920Y-9202150D02*
X24781968Y-9211674D01*
X24781968Y-9211674D02*
X24791491Y-9230722D01*
X24791491Y-9230722D02*
X24791491Y-9249770D01*
X24791491Y-9249770D02*
X24696253Y-9268817D01*
X24867682Y-9325960D02*
X24886730Y-9335484D01*
X24886730Y-9335484D02*
X24924825Y-9335484D01*
X24924825Y-9335484D02*
X24943872Y-9325960D01*
X24943872Y-9325960D02*
X24953396Y-9306912D01*
X24953396Y-9306912D02*
X24953396Y-9297389D01*
X24953396Y-9297389D02*
X24943872Y-9278341D01*
X24943872Y-9278341D02*
X24924825Y-9268817D01*
X24924825Y-9268817D02*
X24896253Y-9268817D01*
X24896253Y-9268817D02*
X24877206Y-9259293D01*
X24877206Y-9259293D02*
X24867682Y-9240246D01*
X24867682Y-9240246D02*
X24867682Y-9230722D01*
X24867682Y-9230722D02*
X24877206Y-9211674D01*
X24877206Y-9211674D02*
X24896253Y-9202150D01*
X24896253Y-9202150D02*
X24924825Y-9202150D01*
X24924825Y-9202150D02*
X24943872Y-9211674D01*
X25020063Y-9411674D02*
X25029587Y-9402150D01*
X25029587Y-9402150D02*
X25048634Y-9373579D01*
X25048634Y-9373579D02*
X25058158Y-9354531D01*
X25058158Y-9354531D02*
X25067682Y-9325960D01*
X25067682Y-9325960D02*
X25077206Y-9278341D01*
X25077206Y-9278341D02*
X25077206Y-9240246D01*
X25077206Y-9240246D02*
X25067682Y-9192627D01*
X25067682Y-9192627D02*
X25058158Y-9164055D01*
X25058158Y-9164055D02*
X25048634Y-9145008D01*
X25048634Y-9145008D02*
X25029587Y-9116436D01*
X25029587Y-9116436D02*
X25020063Y-9106912D01*
M02*
