%TF.GenerationSoftware,KiCad,Pcbnew,7.0.6*%
%TF.CreationDate,2023-11-25T11:30:19-07:00*%
%TF.ProjectId,ReflectiveSensor,5265666c-6563-4746-9976-6553656e736f,rev?*%
%TF.SameCoordinates,Original*%
%TF.FileFunction,Drillmap*%
%TF.FilePolarity,Positive*%
%FSLAX45Y45*%
G04 Gerber Fmt 4.5, Leading zero omitted, Abs format (unit mm)*
G04 Created by KiCad (PCBNEW 7.0.6) date 2023-11-25 11:30:19*
%MOMM*%
%LPD*%
G01*
G04 APERTURE LIST*
%ADD10C,0.100000*%
%ADD11C,0.200000*%
%ADD12C,0.040000*%
G04 APERTURE END LIST*
D10*
X34567500Y-19590000D02*
G75*
G03*
X34367500Y-19790000I0J-200000D01*
G01*
X34367500Y-20025000D02*
G75*
G03*
X34567500Y-20225000I200000J0D01*
G01*
X34367500Y-20025000D02*
X34367500Y-19790000D01*
X36492500Y-19790000D02*
G75*
G03*
X36292500Y-19590000I-200000J0D01*
G01*
X34567500Y-19590000D02*
X36292500Y-19590000D01*
X36292500Y-20225000D02*
G75*
G03*
X36492500Y-20025000I0J200000D01*
G01*
X36292500Y-20225000D02*
X34567500Y-20225000D01*
X36492500Y-19790000D02*
X36492500Y-20025000D01*
D11*
D12*
X34547500Y-20105000D02*
X34587500Y-20145000D01*
X34587500Y-20105000D02*
X34547500Y-20145000D01*
X35147500Y-19715950D02*
X35187500Y-19755950D01*
X35187500Y-19715950D02*
X35147500Y-19755950D01*
D10*
X35523500Y-19781000D02*
G75*
G03*
X35523500Y-19781000I-50000J0D01*
G01*
X35523500Y-20035000D02*
G75*
G03*
X35523500Y-20035000I-50000J0D01*
G01*
X35777500Y-19781000D02*
G75*
G03*
X35777500Y-19781000I-50000J0D01*
G01*
X35777500Y-20035000D02*
G75*
G03*
X35777500Y-20035000I-50000J0D01*
G01*
D11*
X34623277Y-20541484D02*
X34623277Y-20341484D01*
X34623277Y-20341484D02*
X34670896Y-20341484D01*
X34670896Y-20341484D02*
X34699467Y-20351008D01*
X34699467Y-20351008D02*
X34718515Y-20370055D01*
X34718515Y-20370055D02*
X34728039Y-20389103D01*
X34728039Y-20389103D02*
X34737563Y-20427198D01*
X34737563Y-20427198D02*
X34737563Y-20455770D01*
X34737563Y-20455770D02*
X34728039Y-20493865D01*
X34728039Y-20493865D02*
X34718515Y-20512912D01*
X34718515Y-20512912D02*
X34699467Y-20531960D01*
X34699467Y-20531960D02*
X34670896Y-20541484D01*
X34670896Y-20541484D02*
X34623277Y-20541484D01*
X34823277Y-20541484D02*
X34823277Y-20408150D01*
X34823277Y-20446246D02*
X34832801Y-20427198D01*
X34832801Y-20427198D02*
X34842324Y-20417674D01*
X34842324Y-20417674D02*
X34861372Y-20408150D01*
X34861372Y-20408150D02*
X34880420Y-20408150D01*
X34947086Y-20541484D02*
X34947086Y-20408150D01*
X34947086Y-20341484D02*
X34937563Y-20351008D01*
X34937563Y-20351008D02*
X34947086Y-20360531D01*
X34947086Y-20360531D02*
X34956610Y-20351008D01*
X34956610Y-20351008D02*
X34947086Y-20341484D01*
X34947086Y-20341484D02*
X34947086Y-20360531D01*
X35070896Y-20541484D02*
X35051848Y-20531960D01*
X35051848Y-20531960D02*
X35042324Y-20512912D01*
X35042324Y-20512912D02*
X35042324Y-20341484D01*
X35175658Y-20541484D02*
X35156610Y-20531960D01*
X35156610Y-20531960D02*
X35147086Y-20512912D01*
X35147086Y-20512912D02*
X35147086Y-20341484D01*
X35404229Y-20541484D02*
X35404229Y-20341484D01*
X35404229Y-20341484D02*
X35470896Y-20484341D01*
X35470896Y-20484341D02*
X35537563Y-20341484D01*
X35537563Y-20341484D02*
X35537563Y-20541484D01*
X35718515Y-20541484D02*
X35718515Y-20436722D01*
X35718515Y-20436722D02*
X35708991Y-20417674D01*
X35708991Y-20417674D02*
X35689944Y-20408150D01*
X35689944Y-20408150D02*
X35651848Y-20408150D01*
X35651848Y-20408150D02*
X35632801Y-20417674D01*
X35718515Y-20531960D02*
X35699467Y-20541484D01*
X35699467Y-20541484D02*
X35651848Y-20541484D01*
X35651848Y-20541484D02*
X35632801Y-20531960D01*
X35632801Y-20531960D02*
X35623277Y-20512912D01*
X35623277Y-20512912D02*
X35623277Y-20493865D01*
X35623277Y-20493865D02*
X35632801Y-20474817D01*
X35632801Y-20474817D02*
X35651848Y-20465293D01*
X35651848Y-20465293D02*
X35699467Y-20465293D01*
X35699467Y-20465293D02*
X35718515Y-20455770D01*
X35813753Y-20408150D02*
X35813753Y-20608150D01*
X35813753Y-20417674D02*
X35832801Y-20408150D01*
X35832801Y-20408150D02*
X35870896Y-20408150D01*
X35870896Y-20408150D02*
X35889944Y-20417674D01*
X35889944Y-20417674D02*
X35899467Y-20427198D01*
X35899467Y-20427198D02*
X35908991Y-20446246D01*
X35908991Y-20446246D02*
X35908991Y-20503389D01*
X35908991Y-20503389D02*
X35899467Y-20522436D01*
X35899467Y-20522436D02*
X35889944Y-20531960D01*
X35889944Y-20531960D02*
X35870896Y-20541484D01*
X35870896Y-20541484D02*
X35832801Y-20541484D01*
X35832801Y-20541484D02*
X35813753Y-20531960D01*
X35994705Y-20522436D02*
X36004229Y-20531960D01*
X36004229Y-20531960D02*
X35994705Y-20541484D01*
X35994705Y-20541484D02*
X35985182Y-20531960D01*
X35985182Y-20531960D02*
X35994705Y-20522436D01*
X35994705Y-20522436D02*
X35994705Y-20541484D01*
X35994705Y-20417674D02*
X36004229Y-20427198D01*
X36004229Y-20427198D02*
X35994705Y-20436722D01*
X35994705Y-20436722D02*
X35985182Y-20427198D01*
X35985182Y-20427198D02*
X35994705Y-20417674D01*
X35994705Y-20417674D02*
X35994705Y-20436722D01*
D12*
X34322500Y-20850000D02*
X34362500Y-20890000D01*
X34362500Y-20850000D02*
X34322500Y-20890000D01*
D11*
X34661372Y-20761484D02*
X34680420Y-20761484D01*
X34680420Y-20761484D02*
X34699467Y-20771008D01*
X34699467Y-20771008D02*
X34708991Y-20780531D01*
X34708991Y-20780531D02*
X34718515Y-20799579D01*
X34718515Y-20799579D02*
X34728039Y-20837674D01*
X34728039Y-20837674D02*
X34728039Y-20885293D01*
X34728039Y-20885293D02*
X34718515Y-20923389D01*
X34718515Y-20923389D02*
X34708991Y-20942436D01*
X34708991Y-20942436D02*
X34699467Y-20951960D01*
X34699467Y-20951960D02*
X34680420Y-20961484D01*
X34680420Y-20961484D02*
X34661372Y-20961484D01*
X34661372Y-20961484D02*
X34642324Y-20951960D01*
X34642324Y-20951960D02*
X34632801Y-20942436D01*
X34632801Y-20942436D02*
X34623277Y-20923389D01*
X34623277Y-20923389D02*
X34613753Y-20885293D01*
X34613753Y-20885293D02*
X34613753Y-20837674D01*
X34613753Y-20837674D02*
X34623277Y-20799579D01*
X34623277Y-20799579D02*
X34632801Y-20780531D01*
X34632801Y-20780531D02*
X34642324Y-20771008D01*
X34642324Y-20771008D02*
X34661372Y-20761484D01*
X34813753Y-20942436D02*
X34823277Y-20951960D01*
X34823277Y-20951960D02*
X34813753Y-20961484D01*
X34813753Y-20961484D02*
X34804229Y-20951960D01*
X34804229Y-20951960D02*
X34813753Y-20942436D01*
X34813753Y-20942436D02*
X34813753Y-20961484D01*
X34994705Y-20828150D02*
X34994705Y-20961484D01*
X34947086Y-20751960D02*
X34899467Y-20894817D01*
X34899467Y-20894817D02*
X35023277Y-20894817D01*
X35137563Y-20761484D02*
X35156610Y-20761484D01*
X35156610Y-20761484D02*
X35175658Y-20771008D01*
X35175658Y-20771008D02*
X35185182Y-20780531D01*
X35185182Y-20780531D02*
X35194705Y-20799579D01*
X35194705Y-20799579D02*
X35204229Y-20837674D01*
X35204229Y-20837674D02*
X35204229Y-20885293D01*
X35204229Y-20885293D02*
X35194705Y-20923389D01*
X35194705Y-20923389D02*
X35185182Y-20942436D01*
X35185182Y-20942436D02*
X35175658Y-20951960D01*
X35175658Y-20951960D02*
X35156610Y-20961484D01*
X35156610Y-20961484D02*
X35137563Y-20961484D01*
X35137563Y-20961484D02*
X35118515Y-20951960D01*
X35118515Y-20951960D02*
X35108991Y-20942436D01*
X35108991Y-20942436D02*
X35099467Y-20923389D01*
X35099467Y-20923389D02*
X35089944Y-20885293D01*
X35089944Y-20885293D02*
X35089944Y-20837674D01*
X35089944Y-20837674D02*
X35099467Y-20799579D01*
X35099467Y-20799579D02*
X35108991Y-20780531D01*
X35108991Y-20780531D02*
X35118515Y-20771008D01*
X35118515Y-20771008D02*
X35137563Y-20761484D01*
X35328039Y-20761484D02*
X35347086Y-20761484D01*
X35347086Y-20761484D02*
X35366134Y-20771008D01*
X35366134Y-20771008D02*
X35375658Y-20780531D01*
X35375658Y-20780531D02*
X35385182Y-20799579D01*
X35385182Y-20799579D02*
X35394705Y-20837674D01*
X35394705Y-20837674D02*
X35394705Y-20885293D01*
X35394705Y-20885293D02*
X35385182Y-20923389D01*
X35385182Y-20923389D02*
X35375658Y-20942436D01*
X35375658Y-20942436D02*
X35366134Y-20951960D01*
X35366134Y-20951960D02*
X35347086Y-20961484D01*
X35347086Y-20961484D02*
X35328039Y-20961484D01*
X35328039Y-20961484D02*
X35308991Y-20951960D01*
X35308991Y-20951960D02*
X35299467Y-20942436D01*
X35299467Y-20942436D02*
X35289944Y-20923389D01*
X35289944Y-20923389D02*
X35280420Y-20885293D01*
X35280420Y-20885293D02*
X35280420Y-20837674D01*
X35280420Y-20837674D02*
X35289944Y-20799579D01*
X35289944Y-20799579D02*
X35299467Y-20780531D01*
X35299467Y-20780531D02*
X35308991Y-20771008D01*
X35308991Y-20771008D02*
X35328039Y-20761484D01*
X35480420Y-20961484D02*
X35480420Y-20828150D01*
X35480420Y-20847198D02*
X35489944Y-20837674D01*
X35489944Y-20837674D02*
X35508991Y-20828150D01*
X35508991Y-20828150D02*
X35537563Y-20828150D01*
X35537563Y-20828150D02*
X35556610Y-20837674D01*
X35556610Y-20837674D02*
X35566134Y-20856722D01*
X35566134Y-20856722D02*
X35566134Y-20961484D01*
X35566134Y-20856722D02*
X35575658Y-20837674D01*
X35575658Y-20837674D02*
X35594705Y-20828150D01*
X35594705Y-20828150D02*
X35623277Y-20828150D01*
X35623277Y-20828150D02*
X35642325Y-20837674D01*
X35642325Y-20837674D02*
X35651848Y-20856722D01*
X35651848Y-20856722D02*
X35651848Y-20961484D01*
X35747086Y-20961484D02*
X35747086Y-20828150D01*
X35747086Y-20847198D02*
X35756610Y-20837674D01*
X35756610Y-20837674D02*
X35775658Y-20828150D01*
X35775658Y-20828150D02*
X35804229Y-20828150D01*
X35804229Y-20828150D02*
X35823277Y-20837674D01*
X35823277Y-20837674D02*
X35832801Y-20856722D01*
X35832801Y-20856722D02*
X35832801Y-20961484D01*
X35832801Y-20856722D02*
X35842325Y-20837674D01*
X35842325Y-20837674D02*
X35861372Y-20828150D01*
X35861372Y-20828150D02*
X35889944Y-20828150D01*
X35889944Y-20828150D02*
X35908991Y-20837674D01*
X35908991Y-20837674D02*
X35918515Y-20856722D01*
X35918515Y-20856722D02*
X35918515Y-20961484D01*
X36308991Y-20751960D02*
X36137563Y-21009103D01*
X36566134Y-20761484D02*
X36585182Y-20761484D01*
X36585182Y-20761484D02*
X36604229Y-20771008D01*
X36604229Y-20771008D02*
X36613753Y-20780531D01*
X36613753Y-20780531D02*
X36623277Y-20799579D01*
X36623277Y-20799579D02*
X36632801Y-20837674D01*
X36632801Y-20837674D02*
X36632801Y-20885293D01*
X36632801Y-20885293D02*
X36623277Y-20923389D01*
X36623277Y-20923389D02*
X36613753Y-20942436D01*
X36613753Y-20942436D02*
X36604229Y-20951960D01*
X36604229Y-20951960D02*
X36585182Y-20961484D01*
X36585182Y-20961484D02*
X36566134Y-20961484D01*
X36566134Y-20961484D02*
X36547087Y-20951960D01*
X36547087Y-20951960D02*
X36537563Y-20942436D01*
X36537563Y-20942436D02*
X36528039Y-20923389D01*
X36528039Y-20923389D02*
X36518515Y-20885293D01*
X36518515Y-20885293D02*
X36518515Y-20837674D01*
X36518515Y-20837674D02*
X36528039Y-20799579D01*
X36528039Y-20799579D02*
X36537563Y-20780531D01*
X36537563Y-20780531D02*
X36547087Y-20771008D01*
X36547087Y-20771008D02*
X36566134Y-20761484D01*
X36718515Y-20942436D02*
X36728039Y-20951960D01*
X36728039Y-20951960D02*
X36718515Y-20961484D01*
X36718515Y-20961484D02*
X36708991Y-20951960D01*
X36708991Y-20951960D02*
X36718515Y-20942436D01*
X36718515Y-20942436D02*
X36718515Y-20961484D01*
X36851848Y-20761484D02*
X36870896Y-20761484D01*
X36870896Y-20761484D02*
X36889944Y-20771008D01*
X36889944Y-20771008D02*
X36899468Y-20780531D01*
X36899468Y-20780531D02*
X36908991Y-20799579D01*
X36908991Y-20799579D02*
X36918515Y-20837674D01*
X36918515Y-20837674D02*
X36918515Y-20885293D01*
X36918515Y-20885293D02*
X36908991Y-20923389D01*
X36908991Y-20923389D02*
X36899468Y-20942436D01*
X36899468Y-20942436D02*
X36889944Y-20951960D01*
X36889944Y-20951960D02*
X36870896Y-20961484D01*
X36870896Y-20961484D02*
X36851848Y-20961484D01*
X36851848Y-20961484D02*
X36832801Y-20951960D01*
X36832801Y-20951960D02*
X36823277Y-20942436D01*
X36823277Y-20942436D02*
X36813753Y-20923389D01*
X36813753Y-20923389D02*
X36804229Y-20885293D01*
X36804229Y-20885293D02*
X36804229Y-20837674D01*
X36804229Y-20837674D02*
X36813753Y-20799579D01*
X36813753Y-20799579D02*
X36823277Y-20780531D01*
X36823277Y-20780531D02*
X36832801Y-20771008D01*
X36832801Y-20771008D02*
X36851848Y-20761484D01*
X37108991Y-20961484D02*
X36994706Y-20961484D01*
X37051848Y-20961484D02*
X37051848Y-20761484D01*
X37051848Y-20761484D02*
X37032801Y-20790055D01*
X37032801Y-20790055D02*
X37013753Y-20809103D01*
X37013753Y-20809103D02*
X36994706Y-20818627D01*
X37289944Y-20761484D02*
X37194706Y-20761484D01*
X37194706Y-20761484D02*
X37185182Y-20856722D01*
X37185182Y-20856722D02*
X37194706Y-20847198D01*
X37194706Y-20847198D02*
X37213753Y-20837674D01*
X37213753Y-20837674D02*
X37261372Y-20837674D01*
X37261372Y-20837674D02*
X37280420Y-20847198D01*
X37280420Y-20847198D02*
X37289944Y-20856722D01*
X37289944Y-20856722D02*
X37299468Y-20875770D01*
X37299468Y-20875770D02*
X37299468Y-20923389D01*
X37299468Y-20923389D02*
X37289944Y-20942436D01*
X37289944Y-20942436D02*
X37280420Y-20951960D01*
X37280420Y-20951960D02*
X37261372Y-20961484D01*
X37261372Y-20961484D02*
X37213753Y-20961484D01*
X37213753Y-20961484D02*
X37194706Y-20951960D01*
X37194706Y-20951960D02*
X37185182Y-20942436D01*
X37366134Y-20761484D02*
X37499468Y-20761484D01*
X37499468Y-20761484D02*
X37413753Y-20961484D01*
X37566134Y-20761484D02*
X37566134Y-20799579D01*
X37642325Y-20761484D02*
X37642325Y-20799579D01*
X37937563Y-21037674D02*
X37928039Y-21028150D01*
X37928039Y-21028150D02*
X37908991Y-20999579D01*
X37908991Y-20999579D02*
X37899468Y-20980531D01*
X37899468Y-20980531D02*
X37889944Y-20951960D01*
X37889944Y-20951960D02*
X37880420Y-20904341D01*
X37880420Y-20904341D02*
X37880420Y-20866246D01*
X37880420Y-20866246D02*
X37889944Y-20818627D01*
X37889944Y-20818627D02*
X37899468Y-20790055D01*
X37899468Y-20790055D02*
X37908991Y-20771008D01*
X37908991Y-20771008D02*
X37928039Y-20742436D01*
X37928039Y-20742436D02*
X37937563Y-20732912D01*
X38004230Y-20780531D02*
X38013753Y-20771008D01*
X38013753Y-20771008D02*
X38032801Y-20761484D01*
X38032801Y-20761484D02*
X38080420Y-20761484D01*
X38080420Y-20761484D02*
X38099468Y-20771008D01*
X38099468Y-20771008D02*
X38108991Y-20780531D01*
X38108991Y-20780531D02*
X38118515Y-20799579D01*
X38118515Y-20799579D02*
X38118515Y-20818627D01*
X38118515Y-20818627D02*
X38108991Y-20847198D01*
X38108991Y-20847198D02*
X37994706Y-20961484D01*
X37994706Y-20961484D02*
X38118515Y-20961484D01*
X38356611Y-20961484D02*
X38356611Y-20761484D01*
X38442325Y-20961484D02*
X38442325Y-20856722D01*
X38442325Y-20856722D02*
X38432801Y-20837674D01*
X38432801Y-20837674D02*
X38413753Y-20828150D01*
X38413753Y-20828150D02*
X38385182Y-20828150D01*
X38385182Y-20828150D02*
X38366134Y-20837674D01*
X38366134Y-20837674D02*
X38356611Y-20847198D01*
X38566134Y-20961484D02*
X38547087Y-20951960D01*
X38547087Y-20951960D02*
X38537563Y-20942436D01*
X38537563Y-20942436D02*
X38528039Y-20923389D01*
X38528039Y-20923389D02*
X38528039Y-20866246D01*
X38528039Y-20866246D02*
X38537563Y-20847198D01*
X38537563Y-20847198D02*
X38547087Y-20837674D01*
X38547087Y-20837674D02*
X38566134Y-20828150D01*
X38566134Y-20828150D02*
X38594706Y-20828150D01*
X38594706Y-20828150D02*
X38613753Y-20837674D01*
X38613753Y-20837674D02*
X38623277Y-20847198D01*
X38623277Y-20847198D02*
X38632801Y-20866246D01*
X38632801Y-20866246D02*
X38632801Y-20923389D01*
X38632801Y-20923389D02*
X38623277Y-20942436D01*
X38623277Y-20942436D02*
X38613753Y-20951960D01*
X38613753Y-20951960D02*
X38594706Y-20961484D01*
X38594706Y-20961484D02*
X38566134Y-20961484D01*
X38747087Y-20961484D02*
X38728039Y-20951960D01*
X38728039Y-20951960D02*
X38718515Y-20932912D01*
X38718515Y-20932912D02*
X38718515Y-20761484D01*
X38899468Y-20951960D02*
X38880420Y-20961484D01*
X38880420Y-20961484D02*
X38842325Y-20961484D01*
X38842325Y-20961484D02*
X38823277Y-20951960D01*
X38823277Y-20951960D02*
X38813753Y-20932912D01*
X38813753Y-20932912D02*
X38813753Y-20856722D01*
X38813753Y-20856722D02*
X38823277Y-20837674D01*
X38823277Y-20837674D02*
X38842325Y-20828150D01*
X38842325Y-20828150D02*
X38880420Y-20828150D01*
X38880420Y-20828150D02*
X38899468Y-20837674D01*
X38899468Y-20837674D02*
X38908992Y-20856722D01*
X38908992Y-20856722D02*
X38908992Y-20875770D01*
X38908992Y-20875770D02*
X38813753Y-20894817D01*
X38985182Y-20951960D02*
X39004230Y-20961484D01*
X39004230Y-20961484D02*
X39042325Y-20961484D01*
X39042325Y-20961484D02*
X39061373Y-20951960D01*
X39061373Y-20951960D02*
X39070896Y-20932912D01*
X39070896Y-20932912D02*
X39070896Y-20923389D01*
X39070896Y-20923389D02*
X39061373Y-20904341D01*
X39061373Y-20904341D02*
X39042325Y-20894817D01*
X39042325Y-20894817D02*
X39013753Y-20894817D01*
X39013753Y-20894817D02*
X38994706Y-20885293D01*
X38994706Y-20885293D02*
X38985182Y-20866246D01*
X38985182Y-20866246D02*
X38985182Y-20856722D01*
X38985182Y-20856722D02*
X38994706Y-20837674D01*
X38994706Y-20837674D02*
X39013753Y-20828150D01*
X39013753Y-20828150D02*
X39042325Y-20828150D01*
X39042325Y-20828150D02*
X39061373Y-20837674D01*
X39137563Y-21037674D02*
X39147087Y-21028150D01*
X39147087Y-21028150D02*
X39166134Y-20999579D01*
X39166134Y-20999579D02*
X39175658Y-20980531D01*
X39175658Y-20980531D02*
X39185182Y-20951960D01*
X39185182Y-20951960D02*
X39194706Y-20904341D01*
X39194706Y-20904341D02*
X39194706Y-20866246D01*
X39194706Y-20866246D02*
X39185182Y-20818627D01*
X39185182Y-20818627D02*
X39175658Y-20790055D01*
X39175658Y-20790055D02*
X39166134Y-20771008D01*
X39166134Y-20771008D02*
X39147087Y-20742436D01*
X39147087Y-20742436D02*
X39137563Y-20732912D01*
D10*
X34362500Y-21134000D02*
G75*
G03*
X34362500Y-21134000I-50000J0D01*
G01*
D11*
X34728039Y-21225484D02*
X34613753Y-21225484D01*
X34670896Y-21225484D02*
X34670896Y-21025484D01*
X34670896Y-21025484D02*
X34651848Y-21054055D01*
X34651848Y-21054055D02*
X34632801Y-21073103D01*
X34632801Y-21073103D02*
X34613753Y-21082627D01*
X34813753Y-21206436D02*
X34823277Y-21215960D01*
X34823277Y-21215960D02*
X34813753Y-21225484D01*
X34813753Y-21225484D02*
X34804229Y-21215960D01*
X34804229Y-21215960D02*
X34813753Y-21206436D01*
X34813753Y-21206436D02*
X34813753Y-21225484D01*
X34947086Y-21025484D02*
X34966134Y-21025484D01*
X34966134Y-21025484D02*
X34985182Y-21035008D01*
X34985182Y-21035008D02*
X34994705Y-21044531D01*
X34994705Y-21044531D02*
X35004229Y-21063579D01*
X35004229Y-21063579D02*
X35013753Y-21101674D01*
X35013753Y-21101674D02*
X35013753Y-21149293D01*
X35013753Y-21149293D02*
X35004229Y-21187389D01*
X35004229Y-21187389D02*
X34994705Y-21206436D01*
X34994705Y-21206436D02*
X34985182Y-21215960D01*
X34985182Y-21215960D02*
X34966134Y-21225484D01*
X34966134Y-21225484D02*
X34947086Y-21225484D01*
X34947086Y-21225484D02*
X34928039Y-21215960D01*
X34928039Y-21215960D02*
X34918515Y-21206436D01*
X34918515Y-21206436D02*
X34908991Y-21187389D01*
X34908991Y-21187389D02*
X34899467Y-21149293D01*
X34899467Y-21149293D02*
X34899467Y-21101674D01*
X34899467Y-21101674D02*
X34908991Y-21063579D01*
X34908991Y-21063579D02*
X34918515Y-21044531D01*
X34918515Y-21044531D02*
X34928039Y-21035008D01*
X34928039Y-21035008D02*
X34947086Y-21025484D01*
X35137563Y-21025484D02*
X35156610Y-21025484D01*
X35156610Y-21025484D02*
X35175658Y-21035008D01*
X35175658Y-21035008D02*
X35185182Y-21044531D01*
X35185182Y-21044531D02*
X35194705Y-21063579D01*
X35194705Y-21063579D02*
X35204229Y-21101674D01*
X35204229Y-21101674D02*
X35204229Y-21149293D01*
X35204229Y-21149293D02*
X35194705Y-21187389D01*
X35194705Y-21187389D02*
X35185182Y-21206436D01*
X35185182Y-21206436D02*
X35175658Y-21215960D01*
X35175658Y-21215960D02*
X35156610Y-21225484D01*
X35156610Y-21225484D02*
X35137563Y-21225484D01*
X35137563Y-21225484D02*
X35118515Y-21215960D01*
X35118515Y-21215960D02*
X35108991Y-21206436D01*
X35108991Y-21206436D02*
X35099467Y-21187389D01*
X35099467Y-21187389D02*
X35089944Y-21149293D01*
X35089944Y-21149293D02*
X35089944Y-21101674D01*
X35089944Y-21101674D02*
X35099467Y-21063579D01*
X35099467Y-21063579D02*
X35108991Y-21044531D01*
X35108991Y-21044531D02*
X35118515Y-21035008D01*
X35118515Y-21035008D02*
X35137563Y-21025484D01*
X35328039Y-21025484D02*
X35347086Y-21025484D01*
X35347086Y-21025484D02*
X35366134Y-21035008D01*
X35366134Y-21035008D02*
X35375658Y-21044531D01*
X35375658Y-21044531D02*
X35385182Y-21063579D01*
X35385182Y-21063579D02*
X35394705Y-21101674D01*
X35394705Y-21101674D02*
X35394705Y-21149293D01*
X35394705Y-21149293D02*
X35385182Y-21187389D01*
X35385182Y-21187389D02*
X35375658Y-21206436D01*
X35375658Y-21206436D02*
X35366134Y-21215960D01*
X35366134Y-21215960D02*
X35347086Y-21225484D01*
X35347086Y-21225484D02*
X35328039Y-21225484D01*
X35328039Y-21225484D02*
X35308991Y-21215960D01*
X35308991Y-21215960D02*
X35299467Y-21206436D01*
X35299467Y-21206436D02*
X35289944Y-21187389D01*
X35289944Y-21187389D02*
X35280420Y-21149293D01*
X35280420Y-21149293D02*
X35280420Y-21101674D01*
X35280420Y-21101674D02*
X35289944Y-21063579D01*
X35289944Y-21063579D02*
X35299467Y-21044531D01*
X35299467Y-21044531D02*
X35308991Y-21035008D01*
X35308991Y-21035008D02*
X35328039Y-21025484D01*
X35480420Y-21225484D02*
X35480420Y-21092150D01*
X35480420Y-21111198D02*
X35489944Y-21101674D01*
X35489944Y-21101674D02*
X35508991Y-21092150D01*
X35508991Y-21092150D02*
X35537563Y-21092150D01*
X35537563Y-21092150D02*
X35556610Y-21101674D01*
X35556610Y-21101674D02*
X35566134Y-21120722D01*
X35566134Y-21120722D02*
X35566134Y-21225484D01*
X35566134Y-21120722D02*
X35575658Y-21101674D01*
X35575658Y-21101674D02*
X35594705Y-21092150D01*
X35594705Y-21092150D02*
X35623277Y-21092150D01*
X35623277Y-21092150D02*
X35642325Y-21101674D01*
X35642325Y-21101674D02*
X35651848Y-21120722D01*
X35651848Y-21120722D02*
X35651848Y-21225484D01*
X35747086Y-21225484D02*
X35747086Y-21092150D01*
X35747086Y-21111198D02*
X35756610Y-21101674D01*
X35756610Y-21101674D02*
X35775658Y-21092150D01*
X35775658Y-21092150D02*
X35804229Y-21092150D01*
X35804229Y-21092150D02*
X35823277Y-21101674D01*
X35823277Y-21101674D02*
X35832801Y-21120722D01*
X35832801Y-21120722D02*
X35832801Y-21225484D01*
X35832801Y-21120722D02*
X35842325Y-21101674D01*
X35842325Y-21101674D02*
X35861372Y-21092150D01*
X35861372Y-21092150D02*
X35889944Y-21092150D01*
X35889944Y-21092150D02*
X35908991Y-21101674D01*
X35908991Y-21101674D02*
X35918515Y-21120722D01*
X35918515Y-21120722D02*
X35918515Y-21225484D01*
X36308991Y-21015960D02*
X36137563Y-21273103D01*
X36566134Y-21025484D02*
X36585182Y-21025484D01*
X36585182Y-21025484D02*
X36604229Y-21035008D01*
X36604229Y-21035008D02*
X36613753Y-21044531D01*
X36613753Y-21044531D02*
X36623277Y-21063579D01*
X36623277Y-21063579D02*
X36632801Y-21101674D01*
X36632801Y-21101674D02*
X36632801Y-21149293D01*
X36632801Y-21149293D02*
X36623277Y-21187389D01*
X36623277Y-21187389D02*
X36613753Y-21206436D01*
X36613753Y-21206436D02*
X36604229Y-21215960D01*
X36604229Y-21215960D02*
X36585182Y-21225484D01*
X36585182Y-21225484D02*
X36566134Y-21225484D01*
X36566134Y-21225484D02*
X36547087Y-21215960D01*
X36547087Y-21215960D02*
X36537563Y-21206436D01*
X36537563Y-21206436D02*
X36528039Y-21187389D01*
X36528039Y-21187389D02*
X36518515Y-21149293D01*
X36518515Y-21149293D02*
X36518515Y-21101674D01*
X36518515Y-21101674D02*
X36528039Y-21063579D01*
X36528039Y-21063579D02*
X36537563Y-21044531D01*
X36537563Y-21044531D02*
X36547087Y-21035008D01*
X36547087Y-21035008D02*
X36566134Y-21025484D01*
X36718515Y-21206436D02*
X36728039Y-21215960D01*
X36728039Y-21215960D02*
X36718515Y-21225484D01*
X36718515Y-21225484D02*
X36708991Y-21215960D01*
X36708991Y-21215960D02*
X36718515Y-21206436D01*
X36718515Y-21206436D02*
X36718515Y-21225484D01*
X36851848Y-21025484D02*
X36870896Y-21025484D01*
X36870896Y-21025484D02*
X36889944Y-21035008D01*
X36889944Y-21035008D02*
X36899468Y-21044531D01*
X36899468Y-21044531D02*
X36908991Y-21063579D01*
X36908991Y-21063579D02*
X36918515Y-21101674D01*
X36918515Y-21101674D02*
X36918515Y-21149293D01*
X36918515Y-21149293D02*
X36908991Y-21187389D01*
X36908991Y-21187389D02*
X36899468Y-21206436D01*
X36899468Y-21206436D02*
X36889944Y-21215960D01*
X36889944Y-21215960D02*
X36870896Y-21225484D01*
X36870896Y-21225484D02*
X36851848Y-21225484D01*
X36851848Y-21225484D02*
X36832801Y-21215960D01*
X36832801Y-21215960D02*
X36823277Y-21206436D01*
X36823277Y-21206436D02*
X36813753Y-21187389D01*
X36813753Y-21187389D02*
X36804229Y-21149293D01*
X36804229Y-21149293D02*
X36804229Y-21101674D01*
X36804229Y-21101674D02*
X36813753Y-21063579D01*
X36813753Y-21063579D02*
X36823277Y-21044531D01*
X36823277Y-21044531D02*
X36832801Y-21035008D01*
X36832801Y-21035008D02*
X36851848Y-21025484D01*
X36985182Y-21025484D02*
X37108991Y-21025484D01*
X37108991Y-21025484D02*
X37042325Y-21101674D01*
X37042325Y-21101674D02*
X37070896Y-21101674D01*
X37070896Y-21101674D02*
X37089944Y-21111198D01*
X37089944Y-21111198D02*
X37099468Y-21120722D01*
X37099468Y-21120722D02*
X37108991Y-21139770D01*
X37108991Y-21139770D02*
X37108991Y-21187389D01*
X37108991Y-21187389D02*
X37099468Y-21206436D01*
X37099468Y-21206436D02*
X37089944Y-21215960D01*
X37089944Y-21215960D02*
X37070896Y-21225484D01*
X37070896Y-21225484D02*
X37013753Y-21225484D01*
X37013753Y-21225484D02*
X36994706Y-21215960D01*
X36994706Y-21215960D02*
X36985182Y-21206436D01*
X37204229Y-21225484D02*
X37242325Y-21225484D01*
X37242325Y-21225484D02*
X37261372Y-21215960D01*
X37261372Y-21215960D02*
X37270896Y-21206436D01*
X37270896Y-21206436D02*
X37289944Y-21177865D01*
X37289944Y-21177865D02*
X37299468Y-21139770D01*
X37299468Y-21139770D02*
X37299468Y-21063579D01*
X37299468Y-21063579D02*
X37289944Y-21044531D01*
X37289944Y-21044531D02*
X37280420Y-21035008D01*
X37280420Y-21035008D02*
X37261372Y-21025484D01*
X37261372Y-21025484D02*
X37223277Y-21025484D01*
X37223277Y-21025484D02*
X37204229Y-21035008D01*
X37204229Y-21035008D02*
X37194706Y-21044531D01*
X37194706Y-21044531D02*
X37185182Y-21063579D01*
X37185182Y-21063579D02*
X37185182Y-21111198D01*
X37185182Y-21111198D02*
X37194706Y-21130246D01*
X37194706Y-21130246D02*
X37204229Y-21139770D01*
X37204229Y-21139770D02*
X37223277Y-21149293D01*
X37223277Y-21149293D02*
X37261372Y-21149293D01*
X37261372Y-21149293D02*
X37280420Y-21139770D01*
X37280420Y-21139770D02*
X37289944Y-21130246D01*
X37289944Y-21130246D02*
X37299468Y-21111198D01*
X37470896Y-21092150D02*
X37470896Y-21225484D01*
X37423277Y-21015960D02*
X37375658Y-21158817D01*
X37375658Y-21158817D02*
X37499468Y-21158817D01*
X37566134Y-21025484D02*
X37566134Y-21063579D01*
X37642325Y-21025484D02*
X37642325Y-21063579D01*
X37937563Y-21301674D02*
X37928039Y-21292150D01*
X37928039Y-21292150D02*
X37908991Y-21263579D01*
X37908991Y-21263579D02*
X37899468Y-21244531D01*
X37899468Y-21244531D02*
X37889944Y-21215960D01*
X37889944Y-21215960D02*
X37880420Y-21168341D01*
X37880420Y-21168341D02*
X37880420Y-21130246D01*
X37880420Y-21130246D02*
X37889944Y-21082627D01*
X37889944Y-21082627D02*
X37899468Y-21054055D01*
X37899468Y-21054055D02*
X37908991Y-21035008D01*
X37908991Y-21035008D02*
X37928039Y-21006436D01*
X37928039Y-21006436D02*
X37937563Y-20996912D01*
X38099468Y-21092150D02*
X38099468Y-21225484D01*
X38051849Y-21015960D02*
X38004230Y-21158817D01*
X38004230Y-21158817D02*
X38128039Y-21158817D01*
X38356611Y-21225484D02*
X38356611Y-21025484D01*
X38442325Y-21225484D02*
X38442325Y-21120722D01*
X38442325Y-21120722D02*
X38432801Y-21101674D01*
X38432801Y-21101674D02*
X38413753Y-21092150D01*
X38413753Y-21092150D02*
X38385182Y-21092150D01*
X38385182Y-21092150D02*
X38366134Y-21101674D01*
X38366134Y-21101674D02*
X38356611Y-21111198D01*
X38566134Y-21225484D02*
X38547087Y-21215960D01*
X38547087Y-21215960D02*
X38537563Y-21206436D01*
X38537563Y-21206436D02*
X38528039Y-21187389D01*
X38528039Y-21187389D02*
X38528039Y-21130246D01*
X38528039Y-21130246D02*
X38537563Y-21111198D01*
X38537563Y-21111198D02*
X38547087Y-21101674D01*
X38547087Y-21101674D02*
X38566134Y-21092150D01*
X38566134Y-21092150D02*
X38594706Y-21092150D01*
X38594706Y-21092150D02*
X38613753Y-21101674D01*
X38613753Y-21101674D02*
X38623277Y-21111198D01*
X38623277Y-21111198D02*
X38632801Y-21130246D01*
X38632801Y-21130246D02*
X38632801Y-21187389D01*
X38632801Y-21187389D02*
X38623277Y-21206436D01*
X38623277Y-21206436D02*
X38613753Y-21215960D01*
X38613753Y-21215960D02*
X38594706Y-21225484D01*
X38594706Y-21225484D02*
X38566134Y-21225484D01*
X38747087Y-21225484D02*
X38728039Y-21215960D01*
X38728039Y-21215960D02*
X38718515Y-21196912D01*
X38718515Y-21196912D02*
X38718515Y-21025484D01*
X38899468Y-21215960D02*
X38880420Y-21225484D01*
X38880420Y-21225484D02*
X38842325Y-21225484D01*
X38842325Y-21225484D02*
X38823277Y-21215960D01*
X38823277Y-21215960D02*
X38813753Y-21196912D01*
X38813753Y-21196912D02*
X38813753Y-21120722D01*
X38813753Y-21120722D02*
X38823277Y-21101674D01*
X38823277Y-21101674D02*
X38842325Y-21092150D01*
X38842325Y-21092150D02*
X38880420Y-21092150D01*
X38880420Y-21092150D02*
X38899468Y-21101674D01*
X38899468Y-21101674D02*
X38908992Y-21120722D01*
X38908992Y-21120722D02*
X38908992Y-21139770D01*
X38908992Y-21139770D02*
X38813753Y-21158817D01*
X38985182Y-21215960D02*
X39004230Y-21225484D01*
X39004230Y-21225484D02*
X39042325Y-21225484D01*
X39042325Y-21225484D02*
X39061373Y-21215960D01*
X39061373Y-21215960D02*
X39070896Y-21196912D01*
X39070896Y-21196912D02*
X39070896Y-21187389D01*
X39070896Y-21187389D02*
X39061373Y-21168341D01*
X39061373Y-21168341D02*
X39042325Y-21158817D01*
X39042325Y-21158817D02*
X39013753Y-21158817D01*
X39013753Y-21158817D02*
X38994706Y-21149293D01*
X38994706Y-21149293D02*
X38985182Y-21130246D01*
X38985182Y-21130246D02*
X38985182Y-21120722D01*
X38985182Y-21120722D02*
X38994706Y-21101674D01*
X38994706Y-21101674D02*
X39013753Y-21092150D01*
X39013753Y-21092150D02*
X39042325Y-21092150D01*
X39042325Y-21092150D02*
X39061373Y-21101674D01*
X39137563Y-21301674D02*
X39147087Y-21292150D01*
X39147087Y-21292150D02*
X39166134Y-21263579D01*
X39166134Y-21263579D02*
X39175658Y-21244531D01*
X39175658Y-21244531D02*
X39185182Y-21215960D01*
X39185182Y-21215960D02*
X39194706Y-21168341D01*
X39194706Y-21168341D02*
X39194706Y-21130246D01*
X39194706Y-21130246D02*
X39185182Y-21082627D01*
X39185182Y-21082627D02*
X39175658Y-21054055D01*
X39175658Y-21054055D02*
X39166134Y-21035008D01*
X39166134Y-21035008D02*
X39147087Y-21006436D01*
X39147087Y-21006436D02*
X39137563Y-20996912D01*
M02*
