%TF.GenerationSoftware,KiCad,Pcbnew,7.0.6*%
%TF.CreationDate,2023-11-25T11:09:51-07:00*%
%TF.ProjectId,ReflectiveSensor,5265666c-6563-4746-9976-6553656e736f,rev?*%
%TF.SameCoordinates,Original*%
%TF.FileFunction,Legend,Top*%
%TF.FilePolarity,Positive*%
%FSLAX46Y46*%
G04 Gerber Fmt 4.6, Leading zero omitted, Abs format (unit mm)*
G04 Created by KiCad (PCBNEW 7.0.6) date 2023-11-25 11:09:51*
%MOMM*%
%LPD*%
G01*
G04 APERTURE LIST*
%ADD10C,0.150000*%
%ADD11C,0.152400*%
%ADD12C,0.120000*%
G04 APERTURE END LIST*
D10*
X206754819Y-80923094D02*
X205754819Y-80923094D01*
X206754819Y-80351666D02*
X206183390Y-80780237D01*
X205754819Y-80351666D02*
X206326247Y-80923094D01*
X206754819Y-79399285D02*
X206754819Y-79970713D01*
X206754819Y-79684999D02*
X205754819Y-79684999D01*
X205754819Y-79684999D02*
X205897676Y-79780237D01*
X205897676Y-79780237D02*
X205992914Y-79875475D01*
X205992914Y-79875475D02*
X206040533Y-79970713D01*
X202704819Y-82399999D02*
X202942914Y-82399999D01*
X202847676Y-82638094D02*
X202942914Y-82399999D01*
X202942914Y-82399999D02*
X202847676Y-82161904D01*
X203133390Y-82542856D02*
X202942914Y-82399999D01*
X202942914Y-82399999D02*
X203133390Y-82257142D01*
D11*
%TO.C,K1*%
X207874800Y-78254600D02*
X204725200Y-78254600D01*
X204725200Y-78254600D02*
X204725200Y-78622059D01*
X207874800Y-78622059D02*
X207874800Y-78254600D01*
X204725200Y-79947939D02*
X204725200Y-80422061D01*
X207874800Y-80422061D02*
X207874800Y-79947939D01*
X204725200Y-81747941D02*
X204725200Y-82115400D01*
X207874800Y-82115400D02*
X207874800Y-81747941D01*
X204725200Y-82115400D02*
X207874800Y-82115400D01*
D12*
%TO.C,J1*%
X211480000Y-80180000D02*
X211480000Y-82780000D01*
X211480000Y-80180000D02*
X214080000Y-80180000D01*
X214080000Y-77580000D02*
X216680000Y-77580000D01*
X214080000Y-80180000D02*
X214080000Y-77580000D01*
X211480000Y-77580000D02*
X212810000Y-77580000D01*
X211480000Y-82780000D02*
X216680000Y-82780000D01*
X216680000Y-77580000D02*
X216680000Y-82780000D01*
X211480000Y-78910000D02*
X211480000Y-77580000D01*
%TD*%
M02*
