%TF.GenerationSoftware,KiCad,Pcbnew,9.0.7*%
%TF.CreationDate,2026-02-25T13:17:41-08:00*%
%TF.ProjectId,CO_Sensor,434f5f53-656e-4736-9f72-2e6b69636164,0.1*%
%TF.SameCoordinates,Original*%
%TF.FileFunction,Legend,Bot*%
%TF.FilePolarity,Positive*%
%FSLAX46Y46*%
G04 Gerber Fmt 4.6, Leading zero omitted, Abs format (unit mm)*
G04 Created by KiCad (PCBNEW 9.0.7) date 2026-02-25 13:17:41*
%MOMM*%
%LPD*%
G01*
G04 APERTURE LIST*
%ADD10C,0.100000*%
%ADD11C,0.150000*%
G04 APERTURE END LIST*
D10*
X230323810Y-131008940D02*
X230704762Y-131008940D01*
X230704762Y-131008940D02*
X230704762Y-130208940D01*
X229752381Y-130970845D02*
X229828572Y-131008940D01*
X229828572Y-131008940D02*
X229980953Y-131008940D01*
X229980953Y-131008940D02*
X230057143Y-130970845D01*
X230057143Y-130970845D02*
X230095239Y-130894654D01*
X230095239Y-130894654D02*
X230095239Y-130589892D01*
X230095239Y-130589892D02*
X230057143Y-130513702D01*
X230057143Y-130513702D02*
X229980953Y-130475606D01*
X229980953Y-130475606D02*
X229828572Y-130475606D01*
X229828572Y-130475606D02*
X229752381Y-130513702D01*
X229752381Y-130513702D02*
X229714286Y-130589892D01*
X229714286Y-130589892D02*
X229714286Y-130666083D01*
X229714286Y-130666083D02*
X230095239Y-130742273D01*
X229028572Y-131008940D02*
X229028572Y-130589892D01*
X229028572Y-130589892D02*
X229066667Y-130513702D01*
X229066667Y-130513702D02*
X229142858Y-130475606D01*
X229142858Y-130475606D02*
X229295239Y-130475606D01*
X229295239Y-130475606D02*
X229371429Y-130513702D01*
X229028572Y-130970845D02*
X229104763Y-131008940D01*
X229104763Y-131008940D02*
X229295239Y-131008940D01*
X229295239Y-131008940D02*
X229371429Y-130970845D01*
X229371429Y-130970845D02*
X229409525Y-130894654D01*
X229409525Y-130894654D02*
X229409525Y-130818464D01*
X229409525Y-130818464D02*
X229371429Y-130742273D01*
X229371429Y-130742273D02*
X229295239Y-130704178D01*
X229295239Y-130704178D02*
X229104763Y-130704178D01*
X229104763Y-130704178D02*
X229028572Y-130666083D01*
X228723810Y-130475606D02*
X228533334Y-131008940D01*
X228533334Y-131008940D02*
X228342857Y-130475606D01*
X227733333Y-130970845D02*
X227809524Y-131008940D01*
X227809524Y-131008940D02*
X227961905Y-131008940D01*
X227961905Y-131008940D02*
X228038095Y-130970845D01*
X228038095Y-130970845D02*
X228076191Y-130894654D01*
X228076191Y-130894654D02*
X228076191Y-130589892D01*
X228076191Y-130589892D02*
X228038095Y-130513702D01*
X228038095Y-130513702D02*
X227961905Y-130475606D01*
X227961905Y-130475606D02*
X227809524Y-130475606D01*
X227809524Y-130475606D02*
X227733333Y-130513702D01*
X227733333Y-130513702D02*
X227695238Y-130589892D01*
X227695238Y-130589892D02*
X227695238Y-130666083D01*
X227695238Y-130666083D02*
X228076191Y-130742273D01*
X226323810Y-131008940D02*
X226780953Y-131008940D01*
X226552381Y-131008940D02*
X226552381Y-130208940D01*
X226552381Y-130208940D02*
X226628572Y-130323225D01*
X226628572Y-130323225D02*
X226704762Y-130399416D01*
X226704762Y-130399416D02*
X226780953Y-130437511D01*
X225980952Y-130932749D02*
X225942857Y-130970845D01*
X225942857Y-130970845D02*
X225980952Y-131008940D01*
X225980952Y-131008940D02*
X226019048Y-130970845D01*
X226019048Y-130970845D02*
X225980952Y-130932749D01*
X225980952Y-130932749D02*
X225980952Y-131008940D01*
X225219048Y-130208940D02*
X225600000Y-130208940D01*
X225600000Y-130208940D02*
X225638096Y-130589892D01*
X225638096Y-130589892D02*
X225600000Y-130551797D01*
X225600000Y-130551797D02*
X225523810Y-130513702D01*
X225523810Y-130513702D02*
X225333334Y-130513702D01*
X225333334Y-130513702D02*
X225257143Y-130551797D01*
X225257143Y-130551797D02*
X225219048Y-130589892D01*
X225219048Y-130589892D02*
X225180953Y-130666083D01*
X225180953Y-130666083D02*
X225180953Y-130856559D01*
X225180953Y-130856559D02*
X225219048Y-130932749D01*
X225219048Y-130932749D02*
X225257143Y-130970845D01*
X225257143Y-130970845D02*
X225333334Y-131008940D01*
X225333334Y-131008940D02*
X225523810Y-131008940D01*
X225523810Y-131008940D02*
X225600000Y-130970845D01*
X225600000Y-130970845D02*
X225638096Y-130932749D01*
X224838095Y-131008940D02*
X224838095Y-130475606D01*
X224838095Y-130551797D02*
X224800000Y-130513702D01*
X224800000Y-130513702D02*
X224723810Y-130475606D01*
X224723810Y-130475606D02*
X224609524Y-130475606D01*
X224609524Y-130475606D02*
X224533333Y-130513702D01*
X224533333Y-130513702D02*
X224495238Y-130589892D01*
X224495238Y-130589892D02*
X224495238Y-131008940D01*
X224495238Y-130589892D02*
X224457143Y-130513702D01*
X224457143Y-130513702D02*
X224380952Y-130475606D01*
X224380952Y-130475606D02*
X224266667Y-130475606D01*
X224266667Y-130475606D02*
X224190476Y-130513702D01*
X224190476Y-130513702D02*
X224152381Y-130589892D01*
X224152381Y-130589892D02*
X224152381Y-131008940D01*
X223771428Y-131008940D02*
X223771428Y-130475606D01*
X223771428Y-130551797D02*
X223733333Y-130513702D01*
X223733333Y-130513702D02*
X223657143Y-130475606D01*
X223657143Y-130475606D02*
X223542857Y-130475606D01*
X223542857Y-130475606D02*
X223466666Y-130513702D01*
X223466666Y-130513702D02*
X223428571Y-130589892D01*
X223428571Y-130589892D02*
X223428571Y-131008940D01*
X223428571Y-130589892D02*
X223390476Y-130513702D01*
X223390476Y-130513702D02*
X223314285Y-130475606D01*
X223314285Y-130475606D02*
X223200000Y-130475606D01*
X223200000Y-130475606D02*
X223123809Y-130513702D01*
X223123809Y-130513702D02*
X223085714Y-130589892D01*
X223085714Y-130589892D02*
X223085714Y-131008940D01*
X221752380Y-130475606D02*
X221752380Y-131123225D01*
X221752380Y-131123225D02*
X221790475Y-131199416D01*
X221790475Y-131199416D02*
X221828571Y-131237511D01*
X221828571Y-131237511D02*
X221904761Y-131275606D01*
X221904761Y-131275606D02*
X222019047Y-131275606D01*
X222019047Y-131275606D02*
X222095237Y-131237511D01*
X221752380Y-130970845D02*
X221828571Y-131008940D01*
X221828571Y-131008940D02*
X221980952Y-131008940D01*
X221980952Y-131008940D02*
X222057142Y-130970845D01*
X222057142Y-130970845D02*
X222095237Y-130932749D01*
X222095237Y-130932749D02*
X222133333Y-130856559D01*
X222133333Y-130856559D02*
X222133333Y-130627987D01*
X222133333Y-130627987D02*
X222095237Y-130551797D01*
X222095237Y-130551797D02*
X222057142Y-130513702D01*
X222057142Y-130513702D02*
X221980952Y-130475606D01*
X221980952Y-130475606D02*
X221828571Y-130475606D01*
X221828571Y-130475606D02*
X221752380Y-130513702D01*
X221028570Y-131008940D02*
X221028570Y-130589892D01*
X221028570Y-130589892D02*
X221066665Y-130513702D01*
X221066665Y-130513702D02*
X221142856Y-130475606D01*
X221142856Y-130475606D02*
X221295237Y-130475606D01*
X221295237Y-130475606D02*
X221371427Y-130513702D01*
X221028570Y-130970845D02*
X221104761Y-131008940D01*
X221104761Y-131008940D02*
X221295237Y-131008940D01*
X221295237Y-131008940D02*
X221371427Y-130970845D01*
X221371427Y-130970845D02*
X221409523Y-130894654D01*
X221409523Y-130894654D02*
X221409523Y-130818464D01*
X221409523Y-130818464D02*
X221371427Y-130742273D01*
X221371427Y-130742273D02*
X221295237Y-130704178D01*
X221295237Y-130704178D02*
X221104761Y-130704178D01*
X221104761Y-130704178D02*
X221028570Y-130666083D01*
X220647617Y-130475606D02*
X220647617Y-131275606D01*
X220647617Y-130513702D02*
X220571427Y-130475606D01*
X220571427Y-130475606D02*
X220419046Y-130475606D01*
X220419046Y-130475606D02*
X220342855Y-130513702D01*
X220342855Y-130513702D02*
X220304760Y-130551797D01*
X220304760Y-130551797D02*
X220266665Y-130627987D01*
X220266665Y-130627987D02*
X220266665Y-130856559D01*
X220266665Y-130856559D02*
X220304760Y-130932749D01*
X220304760Y-130932749D02*
X220342855Y-130970845D01*
X220342855Y-130970845D02*
X220419046Y-131008940D01*
X220419046Y-131008940D02*
X220571427Y-131008940D01*
X220571427Y-131008940D02*
X220647617Y-130970845D01*
X232571429Y-132296895D02*
X232571429Y-131496895D01*
X232571429Y-131801657D02*
X232495239Y-131763561D01*
X232495239Y-131763561D02*
X232342858Y-131763561D01*
X232342858Y-131763561D02*
X232266667Y-131801657D01*
X232266667Y-131801657D02*
X232228572Y-131839752D01*
X232228572Y-131839752D02*
X232190477Y-131915942D01*
X232190477Y-131915942D02*
X232190477Y-132144514D01*
X232190477Y-132144514D02*
X232228572Y-132220704D01*
X232228572Y-132220704D02*
X232266667Y-132258800D01*
X232266667Y-132258800D02*
X232342858Y-132296895D01*
X232342858Y-132296895D02*
X232495239Y-132296895D01*
X232495239Y-132296895D02*
X232571429Y-132258800D01*
X231542857Y-132258800D02*
X231619048Y-132296895D01*
X231619048Y-132296895D02*
X231771429Y-132296895D01*
X231771429Y-132296895D02*
X231847619Y-132258800D01*
X231847619Y-132258800D02*
X231885715Y-132182609D01*
X231885715Y-132182609D02*
X231885715Y-131877847D01*
X231885715Y-131877847D02*
X231847619Y-131801657D01*
X231847619Y-131801657D02*
X231771429Y-131763561D01*
X231771429Y-131763561D02*
X231619048Y-131763561D01*
X231619048Y-131763561D02*
X231542857Y-131801657D01*
X231542857Y-131801657D02*
X231504762Y-131877847D01*
X231504762Y-131877847D02*
X231504762Y-131954038D01*
X231504762Y-131954038D02*
X231885715Y-132030228D01*
X231276191Y-131763561D02*
X230971429Y-131763561D01*
X231161905Y-131496895D02*
X231161905Y-132182609D01*
X231161905Y-132182609D02*
X231123810Y-132258800D01*
X231123810Y-132258800D02*
X231047620Y-132296895D01*
X231047620Y-132296895D02*
X230971429Y-132296895D01*
X230780953Y-131763561D02*
X230628572Y-132296895D01*
X230628572Y-132296895D02*
X230476191Y-131915942D01*
X230476191Y-131915942D02*
X230323810Y-132296895D01*
X230323810Y-132296895D02*
X230171429Y-131763561D01*
X229561905Y-132258800D02*
X229638096Y-132296895D01*
X229638096Y-132296895D02*
X229790477Y-132296895D01*
X229790477Y-132296895D02*
X229866667Y-132258800D01*
X229866667Y-132258800D02*
X229904763Y-132182609D01*
X229904763Y-132182609D02*
X229904763Y-131877847D01*
X229904763Y-131877847D02*
X229866667Y-131801657D01*
X229866667Y-131801657D02*
X229790477Y-131763561D01*
X229790477Y-131763561D02*
X229638096Y-131763561D01*
X229638096Y-131763561D02*
X229561905Y-131801657D01*
X229561905Y-131801657D02*
X229523810Y-131877847D01*
X229523810Y-131877847D02*
X229523810Y-131954038D01*
X229523810Y-131954038D02*
X229904763Y-132030228D01*
X228876191Y-132258800D02*
X228952382Y-132296895D01*
X228952382Y-132296895D02*
X229104763Y-132296895D01*
X229104763Y-132296895D02*
X229180953Y-132258800D01*
X229180953Y-132258800D02*
X229219049Y-132182609D01*
X229219049Y-132182609D02*
X229219049Y-131877847D01*
X229219049Y-131877847D02*
X229180953Y-131801657D01*
X229180953Y-131801657D02*
X229104763Y-131763561D01*
X229104763Y-131763561D02*
X228952382Y-131763561D01*
X228952382Y-131763561D02*
X228876191Y-131801657D01*
X228876191Y-131801657D02*
X228838096Y-131877847D01*
X228838096Y-131877847D02*
X228838096Y-131954038D01*
X228838096Y-131954038D02*
X229219049Y-132030228D01*
X228495239Y-131763561D02*
X228495239Y-132296895D01*
X228495239Y-131839752D02*
X228457144Y-131801657D01*
X228457144Y-131801657D02*
X228380954Y-131763561D01*
X228380954Y-131763561D02*
X228266668Y-131763561D01*
X228266668Y-131763561D02*
X228190477Y-131801657D01*
X228190477Y-131801657D02*
X228152382Y-131877847D01*
X228152382Y-131877847D02*
X228152382Y-132296895D01*
X227200001Y-132258800D02*
X227123810Y-132296895D01*
X227123810Y-132296895D02*
X226971429Y-132296895D01*
X226971429Y-132296895D02*
X226895239Y-132258800D01*
X226895239Y-132258800D02*
X226857143Y-132182609D01*
X226857143Y-132182609D02*
X226857143Y-132144514D01*
X226857143Y-132144514D02*
X226895239Y-132068323D01*
X226895239Y-132068323D02*
X226971429Y-132030228D01*
X226971429Y-132030228D02*
X227085715Y-132030228D01*
X227085715Y-132030228D02*
X227161905Y-131992133D01*
X227161905Y-131992133D02*
X227200001Y-131915942D01*
X227200001Y-131915942D02*
X227200001Y-131877847D01*
X227200001Y-131877847D02*
X227161905Y-131801657D01*
X227161905Y-131801657D02*
X227085715Y-131763561D01*
X227085715Y-131763561D02*
X226971429Y-131763561D01*
X226971429Y-131763561D02*
X226895239Y-131801657D01*
X226209524Y-132258800D02*
X226285715Y-132296895D01*
X226285715Y-132296895D02*
X226438096Y-132296895D01*
X226438096Y-132296895D02*
X226514286Y-132258800D01*
X226514286Y-132258800D02*
X226552382Y-132182609D01*
X226552382Y-132182609D02*
X226552382Y-131877847D01*
X226552382Y-131877847D02*
X226514286Y-131801657D01*
X226514286Y-131801657D02*
X226438096Y-131763561D01*
X226438096Y-131763561D02*
X226285715Y-131763561D01*
X226285715Y-131763561D02*
X226209524Y-131801657D01*
X226209524Y-131801657D02*
X226171429Y-131877847D01*
X226171429Y-131877847D02*
X226171429Y-131954038D01*
X226171429Y-131954038D02*
X226552382Y-132030228D01*
X225828572Y-131763561D02*
X225828572Y-132296895D01*
X225828572Y-131839752D02*
X225790477Y-131801657D01*
X225790477Y-131801657D02*
X225714287Y-131763561D01*
X225714287Y-131763561D02*
X225600001Y-131763561D01*
X225600001Y-131763561D02*
X225523810Y-131801657D01*
X225523810Y-131801657D02*
X225485715Y-131877847D01*
X225485715Y-131877847D02*
X225485715Y-132296895D01*
X225142858Y-132258800D02*
X225066667Y-132296895D01*
X225066667Y-132296895D02*
X224914286Y-132296895D01*
X224914286Y-132296895D02*
X224838096Y-132258800D01*
X224838096Y-132258800D02*
X224800000Y-132182609D01*
X224800000Y-132182609D02*
X224800000Y-132144514D01*
X224800000Y-132144514D02*
X224838096Y-132068323D01*
X224838096Y-132068323D02*
X224914286Y-132030228D01*
X224914286Y-132030228D02*
X225028572Y-132030228D01*
X225028572Y-132030228D02*
X225104762Y-131992133D01*
X225104762Y-131992133D02*
X225142858Y-131915942D01*
X225142858Y-131915942D02*
X225142858Y-131877847D01*
X225142858Y-131877847D02*
X225104762Y-131801657D01*
X225104762Y-131801657D02*
X225028572Y-131763561D01*
X225028572Y-131763561D02*
X224914286Y-131763561D01*
X224914286Y-131763561D02*
X224838096Y-131801657D01*
X224342858Y-132296895D02*
X224419048Y-132258800D01*
X224419048Y-132258800D02*
X224457143Y-132220704D01*
X224457143Y-132220704D02*
X224495239Y-132144514D01*
X224495239Y-132144514D02*
X224495239Y-131915942D01*
X224495239Y-131915942D02*
X224457143Y-131839752D01*
X224457143Y-131839752D02*
X224419048Y-131801657D01*
X224419048Y-131801657D02*
X224342858Y-131763561D01*
X224342858Y-131763561D02*
X224228572Y-131763561D01*
X224228572Y-131763561D02*
X224152381Y-131801657D01*
X224152381Y-131801657D02*
X224114286Y-131839752D01*
X224114286Y-131839752D02*
X224076191Y-131915942D01*
X224076191Y-131915942D02*
X224076191Y-132144514D01*
X224076191Y-132144514D02*
X224114286Y-132220704D01*
X224114286Y-132220704D02*
X224152381Y-132258800D01*
X224152381Y-132258800D02*
X224228572Y-132296895D01*
X224228572Y-132296895D02*
X224342858Y-132296895D01*
X223733333Y-132296895D02*
X223733333Y-131763561D01*
X223733333Y-131915942D02*
X223695238Y-131839752D01*
X223695238Y-131839752D02*
X223657143Y-131801657D01*
X223657143Y-131801657D02*
X223580952Y-131763561D01*
X223580952Y-131763561D02*
X223504762Y-131763561D01*
X222285714Y-132296895D02*
X222285714Y-131877847D01*
X222285714Y-131877847D02*
X222323809Y-131801657D01*
X222323809Y-131801657D02*
X222400000Y-131763561D01*
X222400000Y-131763561D02*
X222552381Y-131763561D01*
X222552381Y-131763561D02*
X222628571Y-131801657D01*
X222285714Y-132258800D02*
X222361905Y-132296895D01*
X222361905Y-132296895D02*
X222552381Y-132296895D01*
X222552381Y-132296895D02*
X222628571Y-132258800D01*
X222628571Y-132258800D02*
X222666667Y-132182609D01*
X222666667Y-132182609D02*
X222666667Y-132106419D01*
X222666667Y-132106419D02*
X222628571Y-132030228D01*
X222628571Y-132030228D02*
X222552381Y-131992133D01*
X222552381Y-131992133D02*
X222361905Y-131992133D01*
X222361905Y-131992133D02*
X222285714Y-131954038D01*
X221904761Y-131763561D02*
X221904761Y-132296895D01*
X221904761Y-131839752D02*
X221866666Y-131801657D01*
X221866666Y-131801657D02*
X221790476Y-131763561D01*
X221790476Y-131763561D02*
X221676190Y-131763561D01*
X221676190Y-131763561D02*
X221599999Y-131801657D01*
X221599999Y-131801657D02*
X221561904Y-131877847D01*
X221561904Y-131877847D02*
X221561904Y-132296895D01*
X220838094Y-132296895D02*
X220838094Y-131496895D01*
X220838094Y-132258800D02*
X220914285Y-132296895D01*
X220914285Y-132296895D02*
X221066666Y-132296895D01*
X221066666Y-132296895D02*
X221142856Y-132258800D01*
X221142856Y-132258800D02*
X221180951Y-132220704D01*
X221180951Y-132220704D02*
X221219047Y-132144514D01*
X221219047Y-132144514D02*
X221219047Y-131915942D01*
X221219047Y-131915942D02*
X221180951Y-131839752D01*
X221180951Y-131839752D02*
X221142856Y-131801657D01*
X221142856Y-131801657D02*
X221066666Y-131763561D01*
X221066666Y-131763561D02*
X220914285Y-131763561D01*
X220914285Y-131763561D02*
X220838094Y-131801657D01*
X219847617Y-132296895D02*
X219847617Y-131496895D01*
X219847617Y-131496895D02*
X219542855Y-131496895D01*
X219542855Y-131496895D02*
X219466665Y-131534990D01*
X219466665Y-131534990D02*
X219428570Y-131573085D01*
X219428570Y-131573085D02*
X219390474Y-131649276D01*
X219390474Y-131649276D02*
X219390474Y-131763561D01*
X219390474Y-131763561D02*
X219428570Y-131839752D01*
X219428570Y-131839752D02*
X219466665Y-131877847D01*
X219466665Y-131877847D02*
X219542855Y-131915942D01*
X219542855Y-131915942D02*
X219847617Y-131915942D01*
X218590474Y-132220704D02*
X218628570Y-132258800D01*
X218628570Y-132258800D02*
X218742855Y-132296895D01*
X218742855Y-132296895D02*
X218819046Y-132296895D01*
X218819046Y-132296895D02*
X218933332Y-132258800D01*
X218933332Y-132258800D02*
X219009522Y-132182609D01*
X219009522Y-132182609D02*
X219047617Y-132106419D01*
X219047617Y-132106419D02*
X219085713Y-131954038D01*
X219085713Y-131954038D02*
X219085713Y-131839752D01*
X219085713Y-131839752D02*
X219047617Y-131687371D01*
X219047617Y-131687371D02*
X219009522Y-131611180D01*
X219009522Y-131611180D02*
X218933332Y-131534990D01*
X218933332Y-131534990D02*
X218819046Y-131496895D01*
X218819046Y-131496895D02*
X218742855Y-131496895D01*
X218742855Y-131496895D02*
X218628570Y-131534990D01*
X218628570Y-131534990D02*
X218590474Y-131573085D01*
X217980951Y-131877847D02*
X217866665Y-131915942D01*
X217866665Y-131915942D02*
X217828570Y-131954038D01*
X217828570Y-131954038D02*
X217790474Y-132030228D01*
X217790474Y-132030228D02*
X217790474Y-132144514D01*
X217790474Y-132144514D02*
X217828570Y-132220704D01*
X217828570Y-132220704D02*
X217866665Y-132258800D01*
X217866665Y-132258800D02*
X217942855Y-132296895D01*
X217942855Y-132296895D02*
X218247617Y-132296895D01*
X218247617Y-132296895D02*
X218247617Y-131496895D01*
X218247617Y-131496895D02*
X217980951Y-131496895D01*
X217980951Y-131496895D02*
X217904760Y-131534990D01*
X217904760Y-131534990D02*
X217866665Y-131573085D01*
X217866665Y-131573085D02*
X217828570Y-131649276D01*
X217828570Y-131649276D02*
X217828570Y-131725466D01*
X217828570Y-131725466D02*
X217866665Y-131801657D01*
X217866665Y-131801657D02*
X217904760Y-131839752D01*
X217904760Y-131839752D02*
X217980951Y-131877847D01*
X217980951Y-131877847D02*
X218247617Y-131877847D01*
D11*
X223863220Y-140959875D02*
X223863220Y-139959875D01*
X223863220Y-139959875D02*
X223529887Y-140674160D01*
X223529887Y-140674160D02*
X223196554Y-139959875D01*
X223196554Y-139959875D02*
X223196554Y-140959875D01*
X222291792Y-140959875D02*
X222291792Y-140436065D01*
X222291792Y-140436065D02*
X222339411Y-140340827D01*
X222339411Y-140340827D02*
X222434649Y-140293208D01*
X222434649Y-140293208D02*
X222625125Y-140293208D01*
X222625125Y-140293208D02*
X222720363Y-140340827D01*
X222291792Y-140912256D02*
X222387030Y-140959875D01*
X222387030Y-140959875D02*
X222625125Y-140959875D01*
X222625125Y-140959875D02*
X222720363Y-140912256D01*
X222720363Y-140912256D02*
X222767982Y-140817017D01*
X222767982Y-140817017D02*
X222767982Y-140721779D01*
X222767982Y-140721779D02*
X222720363Y-140626541D01*
X222720363Y-140626541D02*
X222625125Y-140578922D01*
X222625125Y-140578922D02*
X222387030Y-140578922D01*
X222387030Y-140578922D02*
X222291792Y-140531303D01*
X221958458Y-140293208D02*
X221577506Y-140293208D01*
X221815601Y-139959875D02*
X221815601Y-140817017D01*
X221815601Y-140817017D02*
X221767982Y-140912256D01*
X221767982Y-140912256D02*
X221672744Y-140959875D01*
X221672744Y-140959875D02*
X221577506Y-140959875D01*
X221387029Y-140293208D02*
X221006077Y-140293208D01*
X221244172Y-139959875D02*
X221244172Y-140817017D01*
X221244172Y-140817017D02*
X221196553Y-140912256D01*
X221196553Y-140912256D02*
X221101315Y-140959875D01*
X221101315Y-140959875D02*
X221006077Y-140959875D01*
X220672743Y-140959875D02*
X220672743Y-139959875D01*
X220244172Y-140959875D02*
X220244172Y-140436065D01*
X220244172Y-140436065D02*
X220291791Y-140340827D01*
X220291791Y-140340827D02*
X220387029Y-140293208D01*
X220387029Y-140293208D02*
X220529886Y-140293208D01*
X220529886Y-140293208D02*
X220625124Y-140340827D01*
X220625124Y-140340827D02*
X220672743Y-140388446D01*
X219387029Y-140912256D02*
X219482267Y-140959875D01*
X219482267Y-140959875D02*
X219672743Y-140959875D01*
X219672743Y-140959875D02*
X219767981Y-140912256D01*
X219767981Y-140912256D02*
X219815600Y-140817017D01*
X219815600Y-140817017D02*
X219815600Y-140436065D01*
X219815600Y-140436065D02*
X219767981Y-140340827D01*
X219767981Y-140340827D02*
X219672743Y-140293208D01*
X219672743Y-140293208D02*
X219482267Y-140293208D01*
X219482267Y-140293208D02*
X219387029Y-140340827D01*
X219387029Y-140340827D02*
X219339410Y-140436065D01*
X219339410Y-140436065D02*
X219339410Y-140531303D01*
X219339410Y-140531303D02*
X219815600Y-140626541D01*
X219006076Y-140293208D02*
X218815600Y-140959875D01*
X218815600Y-140959875D02*
X218625124Y-140483684D01*
X218625124Y-140483684D02*
X218434648Y-140959875D01*
X218434648Y-140959875D02*
X218244172Y-140293208D01*
X217148933Y-140912256D02*
X217006076Y-140959875D01*
X217006076Y-140959875D02*
X216767981Y-140959875D01*
X216767981Y-140959875D02*
X216672743Y-140912256D01*
X216672743Y-140912256D02*
X216625124Y-140864636D01*
X216625124Y-140864636D02*
X216577505Y-140769398D01*
X216577505Y-140769398D02*
X216577505Y-140674160D01*
X216577505Y-140674160D02*
X216625124Y-140578922D01*
X216625124Y-140578922D02*
X216672743Y-140531303D01*
X216672743Y-140531303D02*
X216767981Y-140483684D01*
X216767981Y-140483684D02*
X216958457Y-140436065D01*
X216958457Y-140436065D02*
X217053695Y-140388446D01*
X217053695Y-140388446D02*
X217101314Y-140340827D01*
X217101314Y-140340827D02*
X217148933Y-140245589D01*
X217148933Y-140245589D02*
X217148933Y-140150351D01*
X217148933Y-140150351D02*
X217101314Y-140055113D01*
X217101314Y-140055113D02*
X217053695Y-140007494D01*
X217053695Y-140007494D02*
X216958457Y-139959875D01*
X216958457Y-139959875D02*
X216720362Y-139959875D01*
X216720362Y-139959875D02*
X216577505Y-140007494D01*
X215720362Y-140959875D02*
X215720362Y-140436065D01*
X215720362Y-140436065D02*
X215767981Y-140340827D01*
X215767981Y-140340827D02*
X215863219Y-140293208D01*
X215863219Y-140293208D02*
X216053695Y-140293208D01*
X216053695Y-140293208D02*
X216148933Y-140340827D01*
X215720362Y-140912256D02*
X215815600Y-140959875D01*
X215815600Y-140959875D02*
X216053695Y-140959875D01*
X216053695Y-140959875D02*
X216148933Y-140912256D01*
X216148933Y-140912256D02*
X216196552Y-140817017D01*
X216196552Y-140817017D02*
X216196552Y-140721779D01*
X216196552Y-140721779D02*
X216148933Y-140626541D01*
X216148933Y-140626541D02*
X216053695Y-140578922D01*
X216053695Y-140578922D02*
X215815600Y-140578922D01*
X215815600Y-140578922D02*
X215720362Y-140531303D01*
X215387028Y-140293208D02*
X215006076Y-140293208D01*
X215244171Y-139959875D02*
X215244171Y-140817017D01*
X215244171Y-140817017D02*
X215196552Y-140912256D01*
X215196552Y-140912256D02*
X215101314Y-140959875D01*
X215101314Y-140959875D02*
X215006076Y-140959875D01*
X214529885Y-140959875D02*
X214625123Y-140912256D01*
X214625123Y-140912256D02*
X214672742Y-140864636D01*
X214672742Y-140864636D02*
X214720361Y-140769398D01*
X214720361Y-140769398D02*
X214720361Y-140483684D01*
X214720361Y-140483684D02*
X214672742Y-140388446D01*
X214672742Y-140388446D02*
X214625123Y-140340827D01*
X214625123Y-140340827D02*
X214529885Y-140293208D01*
X214529885Y-140293208D02*
X214387028Y-140293208D01*
X214387028Y-140293208D02*
X214291790Y-140340827D01*
X214291790Y-140340827D02*
X214244171Y-140388446D01*
X214244171Y-140388446D02*
X214196552Y-140483684D01*
X214196552Y-140483684D02*
X214196552Y-140769398D01*
X214196552Y-140769398D02*
X214244171Y-140864636D01*
X214244171Y-140864636D02*
X214291790Y-140912256D01*
X214291790Y-140912256D02*
X214387028Y-140959875D01*
X214387028Y-140959875D02*
X214529885Y-140959875D01*
X223672744Y-141569819D02*
X223577506Y-141569819D01*
X223577506Y-141569819D02*
X223482268Y-141617438D01*
X223482268Y-141617438D02*
X223434649Y-141665057D01*
X223434649Y-141665057D02*
X223387030Y-141760295D01*
X223387030Y-141760295D02*
X223339411Y-141950771D01*
X223339411Y-141950771D02*
X223339411Y-142188866D01*
X223339411Y-142188866D02*
X223387030Y-142379342D01*
X223387030Y-142379342D02*
X223434649Y-142474580D01*
X223434649Y-142474580D02*
X223482268Y-142522200D01*
X223482268Y-142522200D02*
X223577506Y-142569819D01*
X223577506Y-142569819D02*
X223672744Y-142569819D01*
X223672744Y-142569819D02*
X223767982Y-142522200D01*
X223767982Y-142522200D02*
X223815601Y-142474580D01*
X223815601Y-142474580D02*
X223863220Y-142379342D01*
X223863220Y-142379342D02*
X223910839Y-142188866D01*
X223910839Y-142188866D02*
X223910839Y-141950771D01*
X223910839Y-141950771D02*
X223863220Y-141760295D01*
X223863220Y-141760295D02*
X223815601Y-141665057D01*
X223815601Y-141665057D02*
X223767982Y-141617438D01*
X223767982Y-141617438D02*
X223672744Y-141569819D01*
X222958458Y-141665057D02*
X222910839Y-141617438D01*
X222910839Y-141617438D02*
X222815601Y-141569819D01*
X222815601Y-141569819D02*
X222577506Y-141569819D01*
X222577506Y-141569819D02*
X222482268Y-141617438D01*
X222482268Y-141617438D02*
X222434649Y-141665057D01*
X222434649Y-141665057D02*
X222387030Y-141760295D01*
X222387030Y-141760295D02*
X222387030Y-141855533D01*
X222387030Y-141855533D02*
X222434649Y-141998390D01*
X222434649Y-141998390D02*
X223006077Y-142569819D01*
X223006077Y-142569819D02*
X222387030Y-142569819D01*
X221244173Y-141522200D02*
X222101315Y-142807914D01*
X220958458Y-141665057D02*
X220910839Y-141617438D01*
X220910839Y-141617438D02*
X220815601Y-141569819D01*
X220815601Y-141569819D02*
X220577506Y-141569819D01*
X220577506Y-141569819D02*
X220482268Y-141617438D01*
X220482268Y-141617438D02*
X220434649Y-141665057D01*
X220434649Y-141665057D02*
X220387030Y-141760295D01*
X220387030Y-141760295D02*
X220387030Y-141855533D01*
X220387030Y-141855533D02*
X220434649Y-141998390D01*
X220434649Y-141998390D02*
X221006077Y-142569819D01*
X221006077Y-142569819D02*
X220387030Y-142569819D01*
X219482268Y-141569819D02*
X219958458Y-141569819D01*
X219958458Y-141569819D02*
X220006077Y-142046009D01*
X220006077Y-142046009D02*
X219958458Y-141998390D01*
X219958458Y-141998390D02*
X219863220Y-141950771D01*
X219863220Y-141950771D02*
X219625125Y-141950771D01*
X219625125Y-141950771D02*
X219529887Y-141998390D01*
X219529887Y-141998390D02*
X219482268Y-142046009D01*
X219482268Y-142046009D02*
X219434649Y-142141247D01*
X219434649Y-142141247D02*
X219434649Y-142379342D01*
X219434649Y-142379342D02*
X219482268Y-142474580D01*
X219482268Y-142474580D02*
X219529887Y-142522200D01*
X219529887Y-142522200D02*
X219625125Y-142569819D01*
X219625125Y-142569819D02*
X219863220Y-142569819D01*
X219863220Y-142569819D02*
X219958458Y-142522200D01*
X219958458Y-142522200D02*
X220006077Y-142474580D01*
X218291792Y-141522200D02*
X219148934Y-142807914D01*
X218006077Y-141665057D02*
X217958458Y-141617438D01*
X217958458Y-141617438D02*
X217863220Y-141569819D01*
X217863220Y-141569819D02*
X217625125Y-141569819D01*
X217625125Y-141569819D02*
X217529887Y-141617438D01*
X217529887Y-141617438D02*
X217482268Y-141665057D01*
X217482268Y-141665057D02*
X217434649Y-141760295D01*
X217434649Y-141760295D02*
X217434649Y-141855533D01*
X217434649Y-141855533D02*
X217482268Y-141998390D01*
X217482268Y-141998390D02*
X218053696Y-142569819D01*
X218053696Y-142569819D02*
X217434649Y-142569819D01*
X216815601Y-141569819D02*
X216720363Y-141569819D01*
X216720363Y-141569819D02*
X216625125Y-141617438D01*
X216625125Y-141617438D02*
X216577506Y-141665057D01*
X216577506Y-141665057D02*
X216529887Y-141760295D01*
X216529887Y-141760295D02*
X216482268Y-141950771D01*
X216482268Y-141950771D02*
X216482268Y-142188866D01*
X216482268Y-142188866D02*
X216529887Y-142379342D01*
X216529887Y-142379342D02*
X216577506Y-142474580D01*
X216577506Y-142474580D02*
X216625125Y-142522200D01*
X216625125Y-142522200D02*
X216720363Y-142569819D01*
X216720363Y-142569819D02*
X216815601Y-142569819D01*
X216815601Y-142569819D02*
X216910839Y-142522200D01*
X216910839Y-142522200D02*
X216958458Y-142474580D01*
X216958458Y-142474580D02*
X217006077Y-142379342D01*
X217006077Y-142379342D02*
X217053696Y-142188866D01*
X217053696Y-142188866D02*
X217053696Y-141950771D01*
X217053696Y-141950771D02*
X217006077Y-141760295D01*
X217006077Y-141760295D02*
X216958458Y-141665057D01*
X216958458Y-141665057D02*
X216910839Y-141617438D01*
X216910839Y-141617438D02*
X216815601Y-141569819D01*
X216101315Y-141665057D02*
X216053696Y-141617438D01*
X216053696Y-141617438D02*
X215958458Y-141569819D01*
X215958458Y-141569819D02*
X215720363Y-141569819D01*
X215720363Y-141569819D02*
X215625125Y-141617438D01*
X215625125Y-141617438D02*
X215577506Y-141665057D01*
X215577506Y-141665057D02*
X215529887Y-141760295D01*
X215529887Y-141760295D02*
X215529887Y-141855533D01*
X215529887Y-141855533D02*
X215577506Y-141998390D01*
X215577506Y-141998390D02*
X216148934Y-142569819D01*
X216148934Y-142569819D02*
X215529887Y-142569819D01*
X214672744Y-141569819D02*
X214863220Y-141569819D01*
X214863220Y-141569819D02*
X214958458Y-141617438D01*
X214958458Y-141617438D02*
X215006077Y-141665057D01*
X215006077Y-141665057D02*
X215101315Y-141807914D01*
X215101315Y-141807914D02*
X215148934Y-141998390D01*
X215148934Y-141998390D02*
X215148934Y-142379342D01*
X215148934Y-142379342D02*
X215101315Y-142474580D01*
X215101315Y-142474580D02*
X215053696Y-142522200D01*
X215053696Y-142522200D02*
X214958458Y-142569819D01*
X214958458Y-142569819D02*
X214767982Y-142569819D01*
X214767982Y-142569819D02*
X214672744Y-142522200D01*
X214672744Y-142522200D02*
X214625125Y-142474580D01*
X214625125Y-142474580D02*
X214577506Y-142379342D01*
X214577506Y-142379342D02*
X214577506Y-142141247D01*
X214577506Y-142141247D02*
X214625125Y-142046009D01*
X214625125Y-142046009D02*
X214672744Y-141998390D01*
X214672744Y-141998390D02*
X214767982Y-141950771D01*
X214767982Y-141950771D02*
X214958458Y-141950771D01*
X214958458Y-141950771D02*
X215053696Y-141998390D01*
X215053696Y-141998390D02*
X215101315Y-142046009D01*
X215101315Y-142046009D02*
X215148934Y-142141247D01*
D10*
X229281830Y-126285130D02*
X229243734Y-126247035D01*
X229243734Y-126247035D02*
X229167544Y-126208940D01*
X229167544Y-126208940D02*
X228977068Y-126208940D01*
X228977068Y-126208940D02*
X228900877Y-126247035D01*
X228900877Y-126247035D02*
X228862782Y-126285130D01*
X228862782Y-126285130D02*
X228824687Y-126361321D01*
X228824687Y-126361321D02*
X228824687Y-126437511D01*
X228824687Y-126437511D02*
X228862782Y-126551797D01*
X228862782Y-126551797D02*
X229319925Y-127008940D01*
X229319925Y-127008940D02*
X228824687Y-127008940D01*
X228329448Y-126208940D02*
X228253258Y-126208940D01*
X228253258Y-126208940D02*
X228177067Y-126247035D01*
X228177067Y-126247035D02*
X228138972Y-126285130D01*
X228138972Y-126285130D02*
X228100877Y-126361321D01*
X228100877Y-126361321D02*
X228062782Y-126513702D01*
X228062782Y-126513702D02*
X228062782Y-126704178D01*
X228062782Y-126704178D02*
X228100877Y-126856559D01*
X228100877Y-126856559D02*
X228138972Y-126932749D01*
X228138972Y-126932749D02*
X228177067Y-126970845D01*
X228177067Y-126970845D02*
X228253258Y-127008940D01*
X228253258Y-127008940D02*
X228329448Y-127008940D01*
X228329448Y-127008940D02*
X228405639Y-126970845D01*
X228405639Y-126970845D02*
X228443734Y-126932749D01*
X228443734Y-126932749D02*
X228481829Y-126856559D01*
X228481829Y-126856559D02*
X228519925Y-126704178D01*
X228519925Y-126704178D02*
X228519925Y-126513702D01*
X228519925Y-126513702D02*
X228481829Y-126361321D01*
X228481829Y-126361321D02*
X228443734Y-126285130D01*
X228443734Y-126285130D02*
X228405639Y-126247035D01*
X228405639Y-126247035D02*
X228329448Y-126208940D01*
X227796115Y-127008940D02*
X227377067Y-126475606D01*
X227796115Y-126475606D02*
X227377067Y-127008940D01*
X227110401Y-126285130D02*
X227072305Y-126247035D01*
X227072305Y-126247035D02*
X226996115Y-126208940D01*
X226996115Y-126208940D02*
X226805639Y-126208940D01*
X226805639Y-126208940D02*
X226729448Y-126247035D01*
X226729448Y-126247035D02*
X226691353Y-126285130D01*
X226691353Y-126285130D02*
X226653258Y-126361321D01*
X226653258Y-126361321D02*
X226653258Y-126437511D01*
X226653258Y-126437511D02*
X226691353Y-126551797D01*
X226691353Y-126551797D02*
X227148496Y-127008940D01*
X227148496Y-127008940D02*
X226653258Y-127008940D01*
X226348496Y-126285130D02*
X226310400Y-126247035D01*
X226310400Y-126247035D02*
X226234210Y-126208940D01*
X226234210Y-126208940D02*
X226043734Y-126208940D01*
X226043734Y-126208940D02*
X225967543Y-126247035D01*
X225967543Y-126247035D02*
X225929448Y-126285130D01*
X225929448Y-126285130D02*
X225891353Y-126361321D01*
X225891353Y-126361321D02*
X225891353Y-126437511D01*
X225891353Y-126437511D02*
X225929448Y-126551797D01*
X225929448Y-126551797D02*
X226386591Y-127008940D01*
X226386591Y-127008940D02*
X225891353Y-127008940D01*
X224938971Y-127008940D02*
X224938971Y-126475606D01*
X224938971Y-126551797D02*
X224900876Y-126513702D01*
X224900876Y-126513702D02*
X224824686Y-126475606D01*
X224824686Y-126475606D02*
X224710400Y-126475606D01*
X224710400Y-126475606D02*
X224634209Y-126513702D01*
X224634209Y-126513702D02*
X224596114Y-126589892D01*
X224596114Y-126589892D02*
X224596114Y-127008940D01*
X224596114Y-126589892D02*
X224558019Y-126513702D01*
X224558019Y-126513702D02*
X224481828Y-126475606D01*
X224481828Y-126475606D02*
X224367543Y-126475606D01*
X224367543Y-126475606D02*
X224291352Y-126513702D01*
X224291352Y-126513702D02*
X224253257Y-126589892D01*
X224253257Y-126589892D02*
X224253257Y-127008940D01*
X223872304Y-127008940D02*
X223872304Y-126475606D01*
X223872304Y-126551797D02*
X223834209Y-126513702D01*
X223834209Y-126513702D02*
X223758019Y-126475606D01*
X223758019Y-126475606D02*
X223643733Y-126475606D01*
X223643733Y-126475606D02*
X223567542Y-126513702D01*
X223567542Y-126513702D02*
X223529447Y-126589892D01*
X223529447Y-126589892D02*
X223529447Y-127008940D01*
X223529447Y-126589892D02*
X223491352Y-126513702D01*
X223491352Y-126513702D02*
X223415161Y-126475606D01*
X223415161Y-126475606D02*
X223300876Y-126475606D01*
X223300876Y-126475606D02*
X223224685Y-126513702D01*
X223224685Y-126513702D02*
X223186590Y-126589892D01*
X223186590Y-126589892D02*
X223186590Y-127008940D01*
X222196113Y-127008940D02*
X222196113Y-126208940D01*
X221853256Y-127008940D02*
X221853256Y-126589892D01*
X221853256Y-126589892D02*
X221891351Y-126513702D01*
X221891351Y-126513702D02*
X221967542Y-126475606D01*
X221967542Y-126475606D02*
X222081828Y-126475606D01*
X222081828Y-126475606D02*
X222158018Y-126513702D01*
X222158018Y-126513702D02*
X222196113Y-126551797D01*
X221358018Y-127008940D02*
X221434208Y-126970845D01*
X221434208Y-126970845D02*
X221472303Y-126932749D01*
X221472303Y-126932749D02*
X221510399Y-126856559D01*
X221510399Y-126856559D02*
X221510399Y-126627987D01*
X221510399Y-126627987D02*
X221472303Y-126551797D01*
X221472303Y-126551797D02*
X221434208Y-126513702D01*
X221434208Y-126513702D02*
X221358018Y-126475606D01*
X221358018Y-126475606D02*
X221243732Y-126475606D01*
X221243732Y-126475606D02*
X221167541Y-126513702D01*
X221167541Y-126513702D02*
X221129446Y-126551797D01*
X221129446Y-126551797D02*
X221091351Y-126627987D01*
X221091351Y-126627987D02*
X221091351Y-126856559D01*
X221091351Y-126856559D02*
X221129446Y-126932749D01*
X221129446Y-126932749D02*
X221167541Y-126970845D01*
X221167541Y-126970845D02*
X221243732Y-127008940D01*
X221243732Y-127008940D02*
X221358018Y-127008940D01*
X220634208Y-127008940D02*
X220710398Y-126970845D01*
X220710398Y-126970845D02*
X220748493Y-126894654D01*
X220748493Y-126894654D02*
X220748493Y-126208940D01*
X220024683Y-126970845D02*
X220100874Y-127008940D01*
X220100874Y-127008940D02*
X220253255Y-127008940D01*
X220253255Y-127008940D02*
X220329445Y-126970845D01*
X220329445Y-126970845D02*
X220367541Y-126894654D01*
X220367541Y-126894654D02*
X220367541Y-126589892D01*
X220367541Y-126589892D02*
X220329445Y-126513702D01*
X220329445Y-126513702D02*
X220253255Y-126475606D01*
X220253255Y-126475606D02*
X220100874Y-126475606D01*
X220100874Y-126475606D02*
X220024683Y-126513702D01*
X220024683Y-126513702D02*
X219986588Y-126589892D01*
X219986588Y-126589892D02*
X219986588Y-126666083D01*
X219986588Y-126666083D02*
X220367541Y-126742273D01*
X219072303Y-126970845D02*
X218996112Y-127008940D01*
X218996112Y-127008940D02*
X218843731Y-127008940D01*
X218843731Y-127008940D02*
X218767541Y-126970845D01*
X218767541Y-126970845D02*
X218729445Y-126894654D01*
X218729445Y-126894654D02*
X218729445Y-126856559D01*
X218729445Y-126856559D02*
X218767541Y-126780368D01*
X218767541Y-126780368D02*
X218843731Y-126742273D01*
X218843731Y-126742273D02*
X218958017Y-126742273D01*
X218958017Y-126742273D02*
X219034207Y-126704178D01*
X219034207Y-126704178D02*
X219072303Y-126627987D01*
X219072303Y-126627987D02*
X219072303Y-126589892D01*
X219072303Y-126589892D02*
X219034207Y-126513702D01*
X219034207Y-126513702D02*
X218958017Y-126475606D01*
X218958017Y-126475606D02*
X218843731Y-126475606D01*
X218843731Y-126475606D02*
X218767541Y-126513702D01*
X218386588Y-126475606D02*
X218386588Y-127275606D01*
X218386588Y-126513702D02*
X218310398Y-126475606D01*
X218310398Y-126475606D02*
X218158017Y-126475606D01*
X218158017Y-126475606D02*
X218081826Y-126513702D01*
X218081826Y-126513702D02*
X218043731Y-126551797D01*
X218043731Y-126551797D02*
X218005636Y-126627987D01*
X218005636Y-126627987D02*
X218005636Y-126856559D01*
X218005636Y-126856559D02*
X218043731Y-126932749D01*
X218043731Y-126932749D02*
X218081826Y-126970845D01*
X218081826Y-126970845D02*
X218158017Y-127008940D01*
X218158017Y-127008940D02*
X218310398Y-127008940D01*
X218310398Y-127008940D02*
X218386588Y-126970845D01*
X217319921Y-127008940D02*
X217319921Y-126589892D01*
X217319921Y-126589892D02*
X217358016Y-126513702D01*
X217358016Y-126513702D02*
X217434207Y-126475606D01*
X217434207Y-126475606D02*
X217586588Y-126475606D01*
X217586588Y-126475606D02*
X217662778Y-126513702D01*
X217319921Y-126970845D02*
X217396112Y-127008940D01*
X217396112Y-127008940D02*
X217586588Y-127008940D01*
X217586588Y-127008940D02*
X217662778Y-126970845D01*
X217662778Y-126970845D02*
X217700874Y-126894654D01*
X217700874Y-126894654D02*
X217700874Y-126818464D01*
X217700874Y-126818464D02*
X217662778Y-126742273D01*
X217662778Y-126742273D02*
X217586588Y-126704178D01*
X217586588Y-126704178D02*
X217396112Y-126704178D01*
X217396112Y-126704178D02*
X217319921Y-126666083D01*
X216596111Y-126970845D02*
X216672302Y-127008940D01*
X216672302Y-127008940D02*
X216824683Y-127008940D01*
X216824683Y-127008940D02*
X216900873Y-126970845D01*
X216900873Y-126970845D02*
X216938968Y-126932749D01*
X216938968Y-126932749D02*
X216977064Y-126856559D01*
X216977064Y-126856559D02*
X216977064Y-126627987D01*
X216977064Y-126627987D02*
X216938968Y-126551797D01*
X216938968Y-126551797D02*
X216900873Y-126513702D01*
X216900873Y-126513702D02*
X216824683Y-126475606D01*
X216824683Y-126475606D02*
X216672302Y-126475606D01*
X216672302Y-126475606D02*
X216596111Y-126513702D01*
X216253254Y-127008940D02*
X216253254Y-126475606D01*
X216253254Y-126208940D02*
X216291350Y-126247035D01*
X216291350Y-126247035D02*
X216253254Y-126285130D01*
X216253254Y-126285130D02*
X216215159Y-126247035D01*
X216215159Y-126247035D02*
X216253254Y-126208940D01*
X216253254Y-126208940D02*
X216253254Y-126285130D01*
X215872302Y-126475606D02*
X215872302Y-127008940D01*
X215872302Y-126551797D02*
X215834207Y-126513702D01*
X215834207Y-126513702D02*
X215758017Y-126475606D01*
X215758017Y-126475606D02*
X215643731Y-126475606D01*
X215643731Y-126475606D02*
X215567540Y-126513702D01*
X215567540Y-126513702D02*
X215529445Y-126589892D01*
X215529445Y-126589892D02*
X215529445Y-127008940D01*
X214805635Y-126475606D02*
X214805635Y-127123225D01*
X214805635Y-127123225D02*
X214843730Y-127199416D01*
X214843730Y-127199416D02*
X214881826Y-127237511D01*
X214881826Y-127237511D02*
X214958016Y-127275606D01*
X214958016Y-127275606D02*
X215072302Y-127275606D01*
X215072302Y-127275606D02*
X215148492Y-127237511D01*
X214805635Y-126970845D02*
X214881826Y-127008940D01*
X214881826Y-127008940D02*
X215034207Y-127008940D01*
X215034207Y-127008940D02*
X215110397Y-126970845D01*
X215110397Y-126970845D02*
X215148492Y-126932749D01*
X215148492Y-126932749D02*
X215186588Y-126856559D01*
X215186588Y-126856559D02*
X215186588Y-126627987D01*
X215186588Y-126627987D02*
X215148492Y-126551797D01*
X215148492Y-126551797D02*
X215110397Y-126513702D01*
X215110397Y-126513702D02*
X215034207Y-126475606D01*
X215034207Y-126475606D02*
X214881826Y-126475606D01*
X214881826Y-126475606D02*
X214805635Y-126513702D01*
X229281830Y-127573085D02*
X229243734Y-127534990D01*
X229243734Y-127534990D02*
X229167544Y-127496895D01*
X229167544Y-127496895D02*
X228977068Y-127496895D01*
X228977068Y-127496895D02*
X228900877Y-127534990D01*
X228900877Y-127534990D02*
X228862782Y-127573085D01*
X228862782Y-127573085D02*
X228824687Y-127649276D01*
X228824687Y-127649276D02*
X228824687Y-127725466D01*
X228824687Y-127725466D02*
X228862782Y-127839752D01*
X228862782Y-127839752D02*
X229319925Y-128296895D01*
X229319925Y-128296895D02*
X228824687Y-128296895D01*
X228558020Y-127496895D02*
X228024686Y-127496895D01*
X228024686Y-127496895D02*
X228367544Y-128296895D01*
X227719924Y-128220704D02*
X227681829Y-128258800D01*
X227681829Y-128258800D02*
X227719924Y-128296895D01*
X227719924Y-128296895D02*
X227758020Y-128258800D01*
X227758020Y-128258800D02*
X227719924Y-128220704D01*
X227719924Y-128220704D02*
X227719924Y-128296895D01*
X227415163Y-127496895D02*
X226919925Y-127496895D01*
X226919925Y-127496895D02*
X227186591Y-127801657D01*
X227186591Y-127801657D02*
X227072306Y-127801657D01*
X227072306Y-127801657D02*
X226996115Y-127839752D01*
X226996115Y-127839752D02*
X226958020Y-127877847D01*
X226958020Y-127877847D02*
X226919925Y-127954038D01*
X226919925Y-127954038D02*
X226919925Y-128144514D01*
X226919925Y-128144514D02*
X226958020Y-128220704D01*
X226958020Y-128220704D02*
X226996115Y-128258800D01*
X226996115Y-128258800D02*
X227072306Y-128296895D01*
X227072306Y-128296895D02*
X227300877Y-128296895D01*
X227300877Y-128296895D02*
X227377068Y-128258800D01*
X227377068Y-128258800D02*
X227415163Y-128220704D01*
X226653258Y-128296895D02*
X226234210Y-127763561D01*
X226653258Y-127763561D02*
X226234210Y-128296895D01*
X225967544Y-127573085D02*
X225929448Y-127534990D01*
X225929448Y-127534990D02*
X225853258Y-127496895D01*
X225853258Y-127496895D02*
X225662782Y-127496895D01*
X225662782Y-127496895D02*
X225586591Y-127534990D01*
X225586591Y-127534990D02*
X225548496Y-127573085D01*
X225548496Y-127573085D02*
X225510401Y-127649276D01*
X225510401Y-127649276D02*
X225510401Y-127725466D01*
X225510401Y-127725466D02*
X225548496Y-127839752D01*
X225548496Y-127839752D02*
X226005639Y-128296895D01*
X226005639Y-128296895D02*
X225510401Y-128296895D01*
X225129448Y-128296895D02*
X224977067Y-128296895D01*
X224977067Y-128296895D02*
X224900877Y-128258800D01*
X224900877Y-128258800D02*
X224862781Y-128220704D01*
X224862781Y-128220704D02*
X224786591Y-128106419D01*
X224786591Y-128106419D02*
X224748496Y-127954038D01*
X224748496Y-127954038D02*
X224748496Y-127649276D01*
X224748496Y-127649276D02*
X224786591Y-127573085D01*
X224786591Y-127573085D02*
X224824686Y-127534990D01*
X224824686Y-127534990D02*
X224900877Y-127496895D01*
X224900877Y-127496895D02*
X225053258Y-127496895D01*
X225053258Y-127496895D02*
X225129448Y-127534990D01*
X225129448Y-127534990D02*
X225167543Y-127573085D01*
X225167543Y-127573085D02*
X225205639Y-127649276D01*
X225205639Y-127649276D02*
X225205639Y-127839752D01*
X225205639Y-127839752D02*
X225167543Y-127915942D01*
X225167543Y-127915942D02*
X225129448Y-127954038D01*
X225129448Y-127954038D02*
X225053258Y-127992133D01*
X225053258Y-127992133D02*
X224900877Y-127992133D01*
X224900877Y-127992133D02*
X224824686Y-127954038D01*
X224824686Y-127954038D02*
X224786591Y-127915942D01*
X224786591Y-127915942D02*
X224748496Y-127839752D01*
X224405638Y-128220704D02*
X224367543Y-128258800D01*
X224367543Y-128258800D02*
X224405638Y-128296895D01*
X224405638Y-128296895D02*
X224443734Y-128258800D01*
X224443734Y-128258800D02*
X224405638Y-128220704D01*
X224405638Y-128220704D02*
X224405638Y-128296895D01*
X223681829Y-127763561D02*
X223681829Y-128296895D01*
X223872305Y-127458800D02*
X224062782Y-128030228D01*
X224062782Y-128030228D02*
X223567543Y-128030228D01*
X222653257Y-128296895D02*
X222653257Y-127763561D01*
X222653257Y-127839752D02*
X222615162Y-127801657D01*
X222615162Y-127801657D02*
X222538972Y-127763561D01*
X222538972Y-127763561D02*
X222424686Y-127763561D01*
X222424686Y-127763561D02*
X222348495Y-127801657D01*
X222348495Y-127801657D02*
X222310400Y-127877847D01*
X222310400Y-127877847D02*
X222310400Y-128296895D01*
X222310400Y-127877847D02*
X222272305Y-127801657D01*
X222272305Y-127801657D02*
X222196114Y-127763561D01*
X222196114Y-127763561D02*
X222081829Y-127763561D01*
X222081829Y-127763561D02*
X222005638Y-127801657D01*
X222005638Y-127801657D02*
X221967543Y-127877847D01*
X221967543Y-127877847D02*
X221967543Y-128296895D01*
X221586590Y-128296895D02*
X221586590Y-127763561D01*
X221586590Y-127839752D02*
X221548495Y-127801657D01*
X221548495Y-127801657D02*
X221472305Y-127763561D01*
X221472305Y-127763561D02*
X221358019Y-127763561D01*
X221358019Y-127763561D02*
X221281828Y-127801657D01*
X221281828Y-127801657D02*
X221243733Y-127877847D01*
X221243733Y-127877847D02*
X221243733Y-128296895D01*
X221243733Y-127877847D02*
X221205638Y-127801657D01*
X221205638Y-127801657D02*
X221129447Y-127763561D01*
X221129447Y-127763561D02*
X221015162Y-127763561D01*
X221015162Y-127763561D02*
X220938971Y-127801657D01*
X220938971Y-127801657D02*
X220900876Y-127877847D01*
X220900876Y-127877847D02*
X220900876Y-128296895D01*
X219910399Y-128296895D02*
X219910399Y-127496895D01*
X219910399Y-127801657D02*
X219834209Y-127763561D01*
X219834209Y-127763561D02*
X219681828Y-127763561D01*
X219681828Y-127763561D02*
X219605637Y-127801657D01*
X219605637Y-127801657D02*
X219567542Y-127839752D01*
X219567542Y-127839752D02*
X219529447Y-127915942D01*
X219529447Y-127915942D02*
X219529447Y-128144514D01*
X219529447Y-128144514D02*
X219567542Y-128220704D01*
X219567542Y-128220704D02*
X219605637Y-128258800D01*
X219605637Y-128258800D02*
X219681828Y-128296895D01*
X219681828Y-128296895D02*
X219834209Y-128296895D01*
X219834209Y-128296895D02*
X219910399Y-128258800D01*
X219072304Y-128296895D02*
X219148494Y-128258800D01*
X219148494Y-128258800D02*
X219186589Y-128220704D01*
X219186589Y-128220704D02*
X219224685Y-128144514D01*
X219224685Y-128144514D02*
X219224685Y-127915942D01*
X219224685Y-127915942D02*
X219186589Y-127839752D01*
X219186589Y-127839752D02*
X219148494Y-127801657D01*
X219148494Y-127801657D02*
X219072304Y-127763561D01*
X219072304Y-127763561D02*
X218958018Y-127763561D01*
X218958018Y-127763561D02*
X218881827Y-127801657D01*
X218881827Y-127801657D02*
X218843732Y-127839752D01*
X218843732Y-127839752D02*
X218805637Y-127915942D01*
X218805637Y-127915942D02*
X218805637Y-128144514D01*
X218805637Y-128144514D02*
X218843732Y-128220704D01*
X218843732Y-128220704D02*
X218881827Y-128258800D01*
X218881827Y-128258800D02*
X218958018Y-128296895D01*
X218958018Y-128296895D02*
X219072304Y-128296895D01*
X218119922Y-128296895D02*
X218119922Y-127877847D01*
X218119922Y-127877847D02*
X218158017Y-127801657D01*
X218158017Y-127801657D02*
X218234208Y-127763561D01*
X218234208Y-127763561D02*
X218386589Y-127763561D01*
X218386589Y-127763561D02*
X218462779Y-127801657D01*
X218119922Y-128258800D02*
X218196113Y-128296895D01*
X218196113Y-128296895D02*
X218386589Y-128296895D01*
X218386589Y-128296895D02*
X218462779Y-128258800D01*
X218462779Y-128258800D02*
X218500875Y-128182609D01*
X218500875Y-128182609D02*
X218500875Y-128106419D01*
X218500875Y-128106419D02*
X218462779Y-128030228D01*
X218462779Y-128030228D02*
X218386589Y-127992133D01*
X218386589Y-127992133D02*
X218196113Y-127992133D01*
X218196113Y-127992133D02*
X218119922Y-127954038D01*
X217738969Y-128296895D02*
X217738969Y-127763561D01*
X217738969Y-127915942D02*
X217700874Y-127839752D01*
X217700874Y-127839752D02*
X217662779Y-127801657D01*
X217662779Y-127801657D02*
X217586588Y-127763561D01*
X217586588Y-127763561D02*
X217510398Y-127763561D01*
X216900874Y-128296895D02*
X216900874Y-127496895D01*
X216900874Y-128258800D02*
X216977065Y-128296895D01*
X216977065Y-128296895D02*
X217129446Y-128296895D01*
X217129446Y-128296895D02*
X217205636Y-128258800D01*
X217205636Y-128258800D02*
X217243731Y-128220704D01*
X217243731Y-128220704D02*
X217281827Y-128144514D01*
X217281827Y-128144514D02*
X217281827Y-127915942D01*
X217281827Y-127915942D02*
X217243731Y-127839752D01*
X217243731Y-127839752D02*
X217205636Y-127801657D01*
X217205636Y-127801657D02*
X217129446Y-127763561D01*
X217129446Y-127763561D02*
X216977065Y-127763561D01*
X216977065Y-127763561D02*
X216900874Y-127801657D01*
X215948493Y-128258800D02*
X215872302Y-128296895D01*
X215872302Y-128296895D02*
X215719921Y-128296895D01*
X215719921Y-128296895D02*
X215643731Y-128258800D01*
X215643731Y-128258800D02*
X215605635Y-128182609D01*
X215605635Y-128182609D02*
X215605635Y-128144514D01*
X215605635Y-128144514D02*
X215643731Y-128068323D01*
X215643731Y-128068323D02*
X215719921Y-128030228D01*
X215719921Y-128030228D02*
X215834207Y-128030228D01*
X215834207Y-128030228D02*
X215910397Y-127992133D01*
X215910397Y-127992133D02*
X215948493Y-127915942D01*
X215948493Y-127915942D02*
X215948493Y-127877847D01*
X215948493Y-127877847D02*
X215910397Y-127801657D01*
X215910397Y-127801657D02*
X215834207Y-127763561D01*
X215834207Y-127763561D02*
X215719921Y-127763561D01*
X215719921Y-127763561D02*
X215643731Y-127801657D01*
X215262778Y-128296895D02*
X215262778Y-127763561D01*
X215262778Y-127496895D02*
X215300874Y-127534990D01*
X215300874Y-127534990D02*
X215262778Y-127573085D01*
X215262778Y-127573085D02*
X215224683Y-127534990D01*
X215224683Y-127534990D02*
X215262778Y-127496895D01*
X215262778Y-127496895D02*
X215262778Y-127573085D01*
X214958017Y-127763561D02*
X214538969Y-127763561D01*
X214538969Y-127763561D02*
X214958017Y-128296895D01*
X214958017Y-128296895D02*
X214538969Y-128296895D01*
X213929445Y-128258800D02*
X214005636Y-128296895D01*
X214005636Y-128296895D02*
X214158017Y-128296895D01*
X214158017Y-128296895D02*
X214234207Y-128258800D01*
X214234207Y-128258800D02*
X214272303Y-128182609D01*
X214272303Y-128182609D02*
X214272303Y-127877847D01*
X214272303Y-127877847D02*
X214234207Y-127801657D01*
X214234207Y-127801657D02*
X214158017Y-127763561D01*
X214158017Y-127763561D02*
X214005636Y-127763561D01*
X214005636Y-127763561D02*
X213929445Y-127801657D01*
X213929445Y-127801657D02*
X213891350Y-127877847D01*
X213891350Y-127877847D02*
X213891350Y-127954038D01*
X213891350Y-127954038D02*
X214272303Y-128030228D01*
M02*
