%TF.GenerationSoftware,KiCad,Pcbnew,9.0.7*%
%TF.CreationDate,2026-02-25T13:17:41-08:00*%
%TF.ProjectId,CO_Sensor,434f5f53-656e-4736-9f72-2e6b69636164,0.1*%
%TF.SameCoordinates,Original*%
%TF.FileFunction,Legend,Top*%
%TF.FilePolarity,Positive*%
%FSLAX46Y46*%
G04 Gerber Fmt 4.6, Leading zero omitted, Abs format (unit mm)*
G04 Created by KiCad (PCBNEW 9.0.7) date 2026-02-25 13:17:41*
%MOMM*%
%LPD*%
G01*
G04 APERTURE LIST*
%ADD10C,0.150000*%
%ADD11C,0.100000*%
%ADD12C,0.093750*%
%ADD13C,0.152400*%
%ADD14C,0.120000*%
G04 APERTURE END LIST*
D10*
X208393922Y-140969819D02*
X208727255Y-141969819D01*
X208727255Y-141969819D02*
X209060588Y-140969819D01*
X209584398Y-140969819D02*
X209679636Y-140969819D01*
X209679636Y-140969819D02*
X209774874Y-141017438D01*
X209774874Y-141017438D02*
X209822493Y-141065057D01*
X209822493Y-141065057D02*
X209870112Y-141160295D01*
X209870112Y-141160295D02*
X209917731Y-141350771D01*
X209917731Y-141350771D02*
X209917731Y-141588866D01*
X209917731Y-141588866D02*
X209870112Y-141779342D01*
X209870112Y-141779342D02*
X209822493Y-141874580D01*
X209822493Y-141874580D02*
X209774874Y-141922200D01*
X209774874Y-141922200D02*
X209679636Y-141969819D01*
X209679636Y-141969819D02*
X209584398Y-141969819D01*
X209584398Y-141969819D02*
X209489160Y-141922200D01*
X209489160Y-141922200D02*
X209441541Y-141874580D01*
X209441541Y-141874580D02*
X209393922Y-141779342D01*
X209393922Y-141779342D02*
X209346303Y-141588866D01*
X209346303Y-141588866D02*
X209346303Y-141350771D01*
X209346303Y-141350771D02*
X209393922Y-141160295D01*
X209393922Y-141160295D02*
X209441541Y-141065057D01*
X209441541Y-141065057D02*
X209489160Y-141017438D01*
X209489160Y-141017438D02*
X209584398Y-140969819D01*
X210346303Y-141874580D02*
X210393922Y-141922200D01*
X210393922Y-141922200D02*
X210346303Y-141969819D01*
X210346303Y-141969819D02*
X210298684Y-141922200D01*
X210298684Y-141922200D02*
X210346303Y-141874580D01*
X210346303Y-141874580D02*
X210346303Y-141969819D01*
X211346302Y-141969819D02*
X210774874Y-141969819D01*
X211060588Y-141969819D02*
X211060588Y-140969819D01*
X211060588Y-140969819D02*
X210965350Y-141112676D01*
X210965350Y-141112676D02*
X210870112Y-141207914D01*
X210870112Y-141207914D02*
X210774874Y-141255533D01*
D11*
X207903104Y-129941979D02*
X207103104Y-130208646D01*
X207103104Y-130208646D02*
X207903104Y-130475312D01*
X207103104Y-130856264D02*
X207141200Y-130780074D01*
X207141200Y-130780074D02*
X207179295Y-130741979D01*
X207179295Y-130741979D02*
X207255485Y-130703883D01*
X207255485Y-130703883D02*
X207484057Y-130703883D01*
X207484057Y-130703883D02*
X207560247Y-130741979D01*
X207560247Y-130741979D02*
X207598342Y-130780074D01*
X207598342Y-130780074D02*
X207636438Y-130856264D01*
X207636438Y-130856264D02*
X207636438Y-130970550D01*
X207636438Y-130970550D02*
X207598342Y-131046741D01*
X207598342Y-131046741D02*
X207560247Y-131084836D01*
X207560247Y-131084836D02*
X207484057Y-131122931D01*
X207484057Y-131122931D02*
X207255485Y-131122931D01*
X207255485Y-131122931D02*
X207179295Y-131084836D01*
X207179295Y-131084836D02*
X207141200Y-131046741D01*
X207141200Y-131046741D02*
X207103104Y-130970550D01*
X207103104Y-130970550D02*
X207103104Y-130856264D01*
X207636438Y-131808646D02*
X207103104Y-131808646D01*
X207636438Y-131465789D02*
X207217390Y-131465789D01*
X207217390Y-131465789D02*
X207141200Y-131503884D01*
X207141200Y-131503884D02*
X207103104Y-131580074D01*
X207103104Y-131580074D02*
X207103104Y-131694360D01*
X207103104Y-131694360D02*
X207141200Y-131770551D01*
X207141200Y-131770551D02*
X207179295Y-131808646D01*
X207636438Y-132075313D02*
X207636438Y-132380075D01*
X207903104Y-132189599D02*
X207217390Y-132189599D01*
X207217390Y-132189599D02*
X207141200Y-132227694D01*
X207141200Y-132227694D02*
X207103104Y-132303884D01*
X207103104Y-132303884D02*
X207103104Y-132380075D01*
D12*
X207864684Y-136071200D02*
X207902779Y-135995010D01*
X207902779Y-135995010D02*
X207902779Y-135880724D01*
X207902779Y-135880724D02*
X207864684Y-135766438D01*
X207864684Y-135766438D02*
X207788494Y-135690248D01*
X207788494Y-135690248D02*
X207712303Y-135652153D01*
X207712303Y-135652153D02*
X207559922Y-135614057D01*
X207559922Y-135614057D02*
X207445636Y-135614057D01*
X207445636Y-135614057D02*
X207293255Y-135652153D01*
X207293255Y-135652153D02*
X207217065Y-135690248D01*
X207217065Y-135690248D02*
X207140875Y-135766438D01*
X207140875Y-135766438D02*
X207102779Y-135880724D01*
X207102779Y-135880724D02*
X207102779Y-135956915D01*
X207102779Y-135956915D02*
X207140875Y-136071200D01*
X207140875Y-136071200D02*
X207178970Y-136109296D01*
X207178970Y-136109296D02*
X207445636Y-136109296D01*
X207445636Y-136109296D02*
X207445636Y-135956915D01*
X207102779Y-136452153D02*
X207902779Y-136452153D01*
X207902779Y-136452153D02*
X207102779Y-136909296D01*
X207102779Y-136909296D02*
X207902779Y-136909296D01*
X207102779Y-137290248D02*
X207902779Y-137290248D01*
X207902779Y-137290248D02*
X207902779Y-137480724D01*
X207902779Y-137480724D02*
X207864684Y-137595010D01*
X207864684Y-137595010D02*
X207788494Y-137671200D01*
X207788494Y-137671200D02*
X207712303Y-137709295D01*
X207712303Y-137709295D02*
X207559922Y-137747391D01*
X207559922Y-137747391D02*
X207445636Y-137747391D01*
X207445636Y-137747391D02*
X207293255Y-137709295D01*
X207293255Y-137709295D02*
X207217065Y-137671200D01*
X207217065Y-137671200D02*
X207140875Y-137595010D01*
X207140875Y-137595010D02*
X207102779Y-137480724D01*
X207102779Y-137480724D02*
X207102779Y-137290248D01*
D11*
X207903104Y-132980074D02*
X207903104Y-133475312D01*
X207903104Y-133475312D02*
X207598342Y-133208646D01*
X207598342Y-133208646D02*
X207598342Y-133322931D01*
X207598342Y-133322931D02*
X207560247Y-133399122D01*
X207560247Y-133399122D02*
X207522152Y-133437217D01*
X207522152Y-133437217D02*
X207445961Y-133475312D01*
X207445961Y-133475312D02*
X207255485Y-133475312D01*
X207255485Y-133475312D02*
X207179295Y-133437217D01*
X207179295Y-133437217D02*
X207141200Y-133399122D01*
X207141200Y-133399122D02*
X207103104Y-133322931D01*
X207103104Y-133322931D02*
X207103104Y-133094360D01*
X207103104Y-133094360D02*
X207141200Y-133018169D01*
X207141200Y-133018169D02*
X207179295Y-132980074D01*
X207903104Y-133703884D02*
X207103104Y-133970551D01*
X207103104Y-133970551D02*
X207903104Y-134237217D01*
X207903104Y-134427693D02*
X207903104Y-134922931D01*
X207903104Y-134922931D02*
X207598342Y-134656265D01*
X207598342Y-134656265D02*
X207598342Y-134770550D01*
X207598342Y-134770550D02*
X207560247Y-134846741D01*
X207560247Y-134846741D02*
X207522152Y-134884836D01*
X207522152Y-134884836D02*
X207445961Y-134922931D01*
X207445961Y-134922931D02*
X207255485Y-134922931D01*
X207255485Y-134922931D02*
X207179295Y-134884836D01*
X207179295Y-134884836D02*
X207141200Y-134846741D01*
X207141200Y-134846741D02*
X207103104Y-134770550D01*
X207103104Y-134770550D02*
X207103104Y-134541979D01*
X207103104Y-134541979D02*
X207141200Y-134465788D01*
X207141200Y-134465788D02*
X207179295Y-134427693D01*
D10*
X217957143Y-140736065D02*
X218290476Y-140736065D01*
X218433333Y-141259875D02*
X217957143Y-141259875D01*
X217957143Y-141259875D02*
X217957143Y-140259875D01*
X217957143Y-140259875D02*
X218433333Y-140259875D01*
X218861905Y-141259875D02*
X218861905Y-140259875D01*
X218861905Y-140259875D02*
X219433333Y-141259875D01*
X219433333Y-141259875D02*
X219433333Y-140259875D01*
X219861905Y-141212256D02*
X220004762Y-141259875D01*
X220004762Y-141259875D02*
X220242857Y-141259875D01*
X220242857Y-141259875D02*
X220338095Y-141212256D01*
X220338095Y-141212256D02*
X220385714Y-141164636D01*
X220385714Y-141164636D02*
X220433333Y-141069398D01*
X220433333Y-141069398D02*
X220433333Y-140974160D01*
X220433333Y-140974160D02*
X220385714Y-140878922D01*
X220385714Y-140878922D02*
X220338095Y-140831303D01*
X220338095Y-140831303D02*
X220242857Y-140783684D01*
X220242857Y-140783684D02*
X220052381Y-140736065D01*
X220052381Y-140736065D02*
X219957143Y-140688446D01*
X219957143Y-140688446D02*
X219909524Y-140640827D01*
X219909524Y-140640827D02*
X219861905Y-140545589D01*
X219861905Y-140545589D02*
X219861905Y-140450351D01*
X219861905Y-140450351D02*
X219909524Y-140355113D01*
X219909524Y-140355113D02*
X219957143Y-140307494D01*
X219957143Y-140307494D02*
X220052381Y-140259875D01*
X220052381Y-140259875D02*
X220290476Y-140259875D01*
X220290476Y-140259875D02*
X220433333Y-140307494D01*
X221385714Y-141259875D02*
X220814286Y-141259875D01*
X221100000Y-141259875D02*
X221100000Y-140259875D01*
X221100000Y-140259875D02*
X221004762Y-140402732D01*
X221004762Y-140402732D02*
X220909524Y-140497970D01*
X220909524Y-140497970D02*
X220814286Y-140545589D01*
X221719048Y-140259875D02*
X222338095Y-140259875D01*
X222338095Y-140259875D02*
X222004762Y-140640827D01*
X222004762Y-140640827D02*
X222147619Y-140640827D01*
X222147619Y-140640827D02*
X222242857Y-140688446D01*
X222242857Y-140688446D02*
X222290476Y-140736065D01*
X222290476Y-140736065D02*
X222338095Y-140831303D01*
X222338095Y-140831303D02*
X222338095Y-141069398D01*
X222338095Y-141069398D02*
X222290476Y-141164636D01*
X222290476Y-141164636D02*
X222242857Y-141212256D01*
X222242857Y-141212256D02*
X222147619Y-141259875D01*
X222147619Y-141259875D02*
X221861905Y-141259875D01*
X221861905Y-141259875D02*
X221766667Y-141212256D01*
X221766667Y-141212256D02*
X221719048Y-141164636D01*
X222957143Y-140259875D02*
X223052381Y-140259875D01*
X223052381Y-140259875D02*
X223147619Y-140307494D01*
X223147619Y-140307494D02*
X223195238Y-140355113D01*
X223195238Y-140355113D02*
X223242857Y-140450351D01*
X223242857Y-140450351D02*
X223290476Y-140640827D01*
X223290476Y-140640827D02*
X223290476Y-140878922D01*
X223290476Y-140878922D02*
X223242857Y-141069398D01*
X223242857Y-141069398D02*
X223195238Y-141164636D01*
X223195238Y-141164636D02*
X223147619Y-141212256D01*
X223147619Y-141212256D02*
X223052381Y-141259875D01*
X223052381Y-141259875D02*
X222957143Y-141259875D01*
X222957143Y-141259875D02*
X222861905Y-141212256D01*
X222861905Y-141212256D02*
X222814286Y-141164636D01*
X222814286Y-141164636D02*
X222766667Y-141069398D01*
X222766667Y-141069398D02*
X222719048Y-140878922D01*
X222719048Y-140878922D02*
X222719048Y-140640827D01*
X222719048Y-140640827D02*
X222766667Y-140450351D01*
X222766667Y-140450351D02*
X222814286Y-140355113D01*
X222814286Y-140355113D02*
X222861905Y-140307494D01*
X222861905Y-140307494D02*
X222957143Y-140259875D01*
X217480951Y-142774580D02*
X217433332Y-142822200D01*
X217433332Y-142822200D02*
X217290475Y-142869819D01*
X217290475Y-142869819D02*
X217195237Y-142869819D01*
X217195237Y-142869819D02*
X217052380Y-142822200D01*
X217052380Y-142822200D02*
X216957142Y-142726961D01*
X216957142Y-142726961D02*
X216909523Y-142631723D01*
X216909523Y-142631723D02*
X216861904Y-142441247D01*
X216861904Y-142441247D02*
X216861904Y-142298390D01*
X216861904Y-142298390D02*
X216909523Y-142107914D01*
X216909523Y-142107914D02*
X216957142Y-142012676D01*
X216957142Y-142012676D02*
X217052380Y-141917438D01*
X217052380Y-141917438D02*
X217195237Y-141869819D01*
X217195237Y-141869819D02*
X217290475Y-141869819D01*
X217290475Y-141869819D02*
X217433332Y-141917438D01*
X217433332Y-141917438D02*
X217480951Y-141965057D01*
X218099999Y-141869819D02*
X218290475Y-141869819D01*
X218290475Y-141869819D02*
X218385713Y-141917438D01*
X218385713Y-141917438D02*
X218480951Y-142012676D01*
X218480951Y-142012676D02*
X218528570Y-142203152D01*
X218528570Y-142203152D02*
X218528570Y-142536485D01*
X218528570Y-142536485D02*
X218480951Y-142726961D01*
X218480951Y-142726961D02*
X218385713Y-142822200D01*
X218385713Y-142822200D02*
X218290475Y-142869819D01*
X218290475Y-142869819D02*
X218099999Y-142869819D01*
X218099999Y-142869819D02*
X218004761Y-142822200D01*
X218004761Y-142822200D02*
X217909523Y-142726961D01*
X217909523Y-142726961D02*
X217861904Y-142536485D01*
X217861904Y-142536485D02*
X217861904Y-142203152D01*
X217861904Y-142203152D02*
X217909523Y-142012676D01*
X217909523Y-142012676D02*
X218004761Y-141917438D01*
X218004761Y-141917438D02*
X218099999Y-141869819D01*
X219671428Y-142822200D02*
X219814285Y-142869819D01*
X219814285Y-142869819D02*
X220052380Y-142869819D01*
X220052380Y-142869819D02*
X220147618Y-142822200D01*
X220147618Y-142822200D02*
X220195237Y-142774580D01*
X220195237Y-142774580D02*
X220242856Y-142679342D01*
X220242856Y-142679342D02*
X220242856Y-142584104D01*
X220242856Y-142584104D02*
X220195237Y-142488866D01*
X220195237Y-142488866D02*
X220147618Y-142441247D01*
X220147618Y-142441247D02*
X220052380Y-142393628D01*
X220052380Y-142393628D02*
X219861904Y-142346009D01*
X219861904Y-142346009D02*
X219766666Y-142298390D01*
X219766666Y-142298390D02*
X219719047Y-142250771D01*
X219719047Y-142250771D02*
X219671428Y-142155533D01*
X219671428Y-142155533D02*
X219671428Y-142060295D01*
X219671428Y-142060295D02*
X219719047Y-141965057D01*
X219719047Y-141965057D02*
X219766666Y-141917438D01*
X219766666Y-141917438D02*
X219861904Y-141869819D01*
X219861904Y-141869819D02*
X220099999Y-141869819D01*
X220099999Y-141869819D02*
X220242856Y-141917438D01*
X221052380Y-142822200D02*
X220957142Y-142869819D01*
X220957142Y-142869819D02*
X220766666Y-142869819D01*
X220766666Y-142869819D02*
X220671428Y-142822200D01*
X220671428Y-142822200D02*
X220623809Y-142726961D01*
X220623809Y-142726961D02*
X220623809Y-142346009D01*
X220623809Y-142346009D02*
X220671428Y-142250771D01*
X220671428Y-142250771D02*
X220766666Y-142203152D01*
X220766666Y-142203152D02*
X220957142Y-142203152D01*
X220957142Y-142203152D02*
X221052380Y-142250771D01*
X221052380Y-142250771D02*
X221099999Y-142346009D01*
X221099999Y-142346009D02*
X221099999Y-142441247D01*
X221099999Y-142441247D02*
X220623809Y-142536485D01*
X221528571Y-142203152D02*
X221528571Y-142869819D01*
X221528571Y-142298390D02*
X221576190Y-142250771D01*
X221576190Y-142250771D02*
X221671428Y-142203152D01*
X221671428Y-142203152D02*
X221814285Y-142203152D01*
X221814285Y-142203152D02*
X221909523Y-142250771D01*
X221909523Y-142250771D02*
X221957142Y-142346009D01*
X221957142Y-142346009D02*
X221957142Y-142869819D01*
X222385714Y-142822200D02*
X222480952Y-142869819D01*
X222480952Y-142869819D02*
X222671428Y-142869819D01*
X222671428Y-142869819D02*
X222766666Y-142822200D01*
X222766666Y-142822200D02*
X222814285Y-142726961D01*
X222814285Y-142726961D02*
X222814285Y-142679342D01*
X222814285Y-142679342D02*
X222766666Y-142584104D01*
X222766666Y-142584104D02*
X222671428Y-142536485D01*
X222671428Y-142536485D02*
X222528571Y-142536485D01*
X222528571Y-142536485D02*
X222433333Y-142488866D01*
X222433333Y-142488866D02*
X222385714Y-142393628D01*
X222385714Y-142393628D02*
X222385714Y-142346009D01*
X222385714Y-142346009D02*
X222433333Y-142250771D01*
X222433333Y-142250771D02*
X222528571Y-142203152D01*
X222528571Y-142203152D02*
X222671428Y-142203152D01*
X222671428Y-142203152D02*
X222766666Y-142250771D01*
X223385714Y-142869819D02*
X223290476Y-142822200D01*
X223290476Y-142822200D02*
X223242857Y-142774580D01*
X223242857Y-142774580D02*
X223195238Y-142679342D01*
X223195238Y-142679342D02*
X223195238Y-142393628D01*
X223195238Y-142393628D02*
X223242857Y-142298390D01*
X223242857Y-142298390D02*
X223290476Y-142250771D01*
X223290476Y-142250771D02*
X223385714Y-142203152D01*
X223385714Y-142203152D02*
X223528571Y-142203152D01*
X223528571Y-142203152D02*
X223623809Y-142250771D01*
X223623809Y-142250771D02*
X223671428Y-142298390D01*
X223671428Y-142298390D02*
X223719047Y-142393628D01*
X223719047Y-142393628D02*
X223719047Y-142679342D01*
X223719047Y-142679342D02*
X223671428Y-142774580D01*
X223671428Y-142774580D02*
X223623809Y-142822200D01*
X223623809Y-142822200D02*
X223528571Y-142869819D01*
X223528571Y-142869819D02*
X223385714Y-142869819D01*
X224147619Y-142869819D02*
X224147619Y-142203152D01*
X224147619Y-142393628D02*
X224195238Y-142298390D01*
X224195238Y-142298390D02*
X224242857Y-142250771D01*
X224242857Y-142250771D02*
X224338095Y-142203152D01*
X224338095Y-142203152D02*
X224433333Y-142203152D01*
X214863095Y-125054819D02*
X214863095Y-125864342D01*
X214863095Y-125864342D02*
X214910714Y-125959580D01*
X214910714Y-125959580D02*
X214958333Y-126007200D01*
X214958333Y-126007200D02*
X215053571Y-126054819D01*
X215053571Y-126054819D02*
X215244047Y-126054819D01*
X215244047Y-126054819D02*
X215339285Y-126007200D01*
X215339285Y-126007200D02*
X215386904Y-125959580D01*
X215386904Y-125959580D02*
X215434523Y-125864342D01*
X215434523Y-125864342D02*
X215434523Y-125054819D01*
X215863095Y-125150057D02*
X215910714Y-125102438D01*
X215910714Y-125102438D02*
X216005952Y-125054819D01*
X216005952Y-125054819D02*
X216244047Y-125054819D01*
X216244047Y-125054819D02*
X216339285Y-125102438D01*
X216339285Y-125102438D02*
X216386904Y-125150057D01*
X216386904Y-125150057D02*
X216434523Y-125245295D01*
X216434523Y-125245295D02*
X216434523Y-125340533D01*
X216434523Y-125340533D02*
X216386904Y-125483390D01*
X216386904Y-125483390D02*
X215815476Y-126054819D01*
X215815476Y-126054819D02*
X216434523Y-126054819D01*
X217629619Y-122985049D02*
X217867714Y-122985049D01*
X217772476Y-123223144D02*
X217867714Y-122985049D01*
X217867714Y-122985049D02*
X217772476Y-122746954D01*
X218058190Y-123127906D02*
X217867714Y-122985049D01*
X217867714Y-122985049D02*
X218058190Y-122842192D01*
X218719980Y-122985050D02*
X218481885Y-122985050D01*
X218577123Y-122746955D02*
X218481885Y-122985050D01*
X218481885Y-122985050D02*
X218577123Y-123223145D01*
X218291409Y-122842193D02*
X218481885Y-122985050D01*
X218481885Y-122985050D02*
X218291409Y-123127907D01*
X218133333Y-117354819D02*
X217800000Y-116878628D01*
X217561905Y-117354819D02*
X217561905Y-116354819D01*
X217561905Y-116354819D02*
X217942857Y-116354819D01*
X217942857Y-116354819D02*
X218038095Y-116402438D01*
X218038095Y-116402438D02*
X218085714Y-116450057D01*
X218085714Y-116450057D02*
X218133333Y-116545295D01*
X218133333Y-116545295D02*
X218133333Y-116688152D01*
X218133333Y-116688152D02*
X218085714Y-116783390D01*
X218085714Y-116783390D02*
X218038095Y-116831009D01*
X218038095Y-116831009D02*
X217942857Y-116878628D01*
X217942857Y-116878628D02*
X217561905Y-116878628D01*
X218466667Y-116354819D02*
X219085714Y-116354819D01*
X219085714Y-116354819D02*
X218752381Y-116735771D01*
X218752381Y-116735771D02*
X218895238Y-116735771D01*
X218895238Y-116735771D02*
X218990476Y-116783390D01*
X218990476Y-116783390D02*
X219038095Y-116831009D01*
X219038095Y-116831009D02*
X219085714Y-116926247D01*
X219085714Y-116926247D02*
X219085714Y-117164342D01*
X219085714Y-117164342D02*
X219038095Y-117259580D01*
X219038095Y-117259580D02*
X218990476Y-117307200D01*
X218990476Y-117307200D02*
X218895238Y-117354819D01*
X218895238Y-117354819D02*
X218609524Y-117354819D01*
X218609524Y-117354819D02*
X218514286Y-117307200D01*
X218514286Y-117307200D02*
X218466667Y-117259580D01*
D11*
X225861995Y-127388819D02*
X225861995Y-128198342D01*
X225861995Y-128198342D02*
X225909614Y-128293580D01*
X225909614Y-128293580D02*
X225957233Y-128341200D01*
X225957233Y-128341200D02*
X226052471Y-128388819D01*
X226052471Y-128388819D02*
X226242947Y-128388819D01*
X226242947Y-128388819D02*
X226338185Y-128341200D01*
X226338185Y-128341200D02*
X226385804Y-128293580D01*
X226385804Y-128293580D02*
X226433423Y-128198342D01*
X226433423Y-128198342D02*
X226433423Y-127388819D01*
X227433423Y-128388819D02*
X226861995Y-128388819D01*
X227147709Y-128388819D02*
X227147709Y-127388819D01*
X227147709Y-127388819D02*
X227052471Y-127531676D01*
X227052471Y-127531676D02*
X226957233Y-127626914D01*
X226957233Y-127626914D02*
X226861995Y-127674533D01*
X224272546Y-131513819D02*
X224510641Y-132513819D01*
X224510641Y-132513819D02*
X224701117Y-131799533D01*
X224701117Y-131799533D02*
X224891593Y-132513819D01*
X224891593Y-132513819D02*
X225129689Y-131513819D01*
X225653498Y-132513819D02*
X225558260Y-132466200D01*
X225558260Y-132466200D02*
X225510641Y-132418580D01*
X225510641Y-132418580D02*
X225463022Y-132323342D01*
X225463022Y-132323342D02*
X225463022Y-132037628D01*
X225463022Y-132037628D02*
X225510641Y-131942390D01*
X225510641Y-131942390D02*
X225558260Y-131894771D01*
X225558260Y-131894771D02*
X225653498Y-131847152D01*
X225653498Y-131847152D02*
X225796355Y-131847152D01*
X225796355Y-131847152D02*
X225891593Y-131894771D01*
X225891593Y-131894771D02*
X225939212Y-131942390D01*
X225939212Y-131942390D02*
X225986831Y-132037628D01*
X225986831Y-132037628D02*
X225986831Y-132323342D01*
X225986831Y-132323342D02*
X225939212Y-132418580D01*
X225939212Y-132418580D02*
X225891593Y-132466200D01*
X225891593Y-132466200D02*
X225796355Y-132513819D01*
X225796355Y-132513819D02*
X225653498Y-132513819D01*
X226415403Y-132513819D02*
X226415403Y-131847152D01*
X226415403Y-132037628D02*
X226463022Y-131942390D01*
X226463022Y-131942390D02*
X226510641Y-131894771D01*
X226510641Y-131894771D02*
X226605879Y-131847152D01*
X226605879Y-131847152D02*
X226701117Y-131847152D01*
X227034451Y-132513819D02*
X227034451Y-131513819D01*
X227129689Y-132132866D02*
X227415403Y-132513819D01*
X227415403Y-131847152D02*
X227034451Y-132228104D01*
X227843975Y-132513819D02*
X227843975Y-131847152D01*
X227843975Y-131513819D02*
X227796356Y-131561438D01*
X227796356Y-131561438D02*
X227843975Y-131609057D01*
X227843975Y-131609057D02*
X227891594Y-131561438D01*
X227891594Y-131561438D02*
X227843975Y-131513819D01*
X227843975Y-131513819D02*
X227843975Y-131609057D01*
X228320165Y-131847152D02*
X228320165Y-132513819D01*
X228320165Y-131942390D02*
X228367784Y-131894771D01*
X228367784Y-131894771D02*
X228463022Y-131847152D01*
X228463022Y-131847152D02*
X228605879Y-131847152D01*
X228605879Y-131847152D02*
X228701117Y-131894771D01*
X228701117Y-131894771D02*
X228748736Y-131990009D01*
X228748736Y-131990009D02*
X228748736Y-132513819D01*
X229653498Y-131847152D02*
X229653498Y-132656676D01*
X229653498Y-132656676D02*
X229605879Y-132751914D01*
X229605879Y-132751914D02*
X229558260Y-132799533D01*
X229558260Y-132799533D02*
X229463022Y-132847152D01*
X229463022Y-132847152D02*
X229320165Y-132847152D01*
X229320165Y-132847152D02*
X229224927Y-132799533D01*
X229653498Y-132466200D02*
X229558260Y-132513819D01*
X229558260Y-132513819D02*
X229367784Y-132513819D01*
X229367784Y-132513819D02*
X229272546Y-132466200D01*
X229272546Y-132466200D02*
X229224927Y-132418580D01*
X229224927Y-132418580D02*
X229177308Y-132323342D01*
X229177308Y-132323342D02*
X229177308Y-132037628D01*
X229177308Y-132037628D02*
X229224927Y-131942390D01*
X229224927Y-131942390D02*
X229272546Y-131894771D01*
X229272546Y-131894771D02*
X229367784Y-131847152D01*
X229367784Y-131847152D02*
X229558260Y-131847152D01*
X229558260Y-131847152D02*
X229653498Y-131894771D01*
X224639212Y-125888580D02*
X224591593Y-125936200D01*
X224591593Y-125936200D02*
X224448736Y-125983819D01*
X224448736Y-125983819D02*
X224353498Y-125983819D01*
X224353498Y-125983819D02*
X224210641Y-125936200D01*
X224210641Y-125936200D02*
X224115403Y-125840961D01*
X224115403Y-125840961D02*
X224067784Y-125745723D01*
X224067784Y-125745723D02*
X224020165Y-125555247D01*
X224020165Y-125555247D02*
X224020165Y-125412390D01*
X224020165Y-125412390D02*
X224067784Y-125221914D01*
X224067784Y-125221914D02*
X224115403Y-125126676D01*
X224115403Y-125126676D02*
X224210641Y-125031438D01*
X224210641Y-125031438D02*
X224353498Y-124983819D01*
X224353498Y-124983819D02*
X224448736Y-124983819D01*
X224448736Y-124983819D02*
X224591593Y-125031438D01*
X224591593Y-125031438D02*
X224639212Y-125079057D01*
X225210641Y-125983819D02*
X225115403Y-125936200D01*
X225115403Y-125936200D02*
X225067784Y-125888580D01*
X225067784Y-125888580D02*
X225020165Y-125793342D01*
X225020165Y-125793342D02*
X225020165Y-125507628D01*
X225020165Y-125507628D02*
X225067784Y-125412390D01*
X225067784Y-125412390D02*
X225115403Y-125364771D01*
X225115403Y-125364771D02*
X225210641Y-125317152D01*
X225210641Y-125317152D02*
X225353498Y-125317152D01*
X225353498Y-125317152D02*
X225448736Y-125364771D01*
X225448736Y-125364771D02*
X225496355Y-125412390D01*
X225496355Y-125412390D02*
X225543974Y-125507628D01*
X225543974Y-125507628D02*
X225543974Y-125793342D01*
X225543974Y-125793342D02*
X225496355Y-125888580D01*
X225496355Y-125888580D02*
X225448736Y-125936200D01*
X225448736Y-125936200D02*
X225353498Y-125983819D01*
X225353498Y-125983819D02*
X225210641Y-125983819D01*
X226401117Y-125317152D02*
X226401117Y-125983819D01*
X225972546Y-125317152D02*
X225972546Y-125840961D01*
X225972546Y-125840961D02*
X226020165Y-125936200D01*
X226020165Y-125936200D02*
X226115403Y-125983819D01*
X226115403Y-125983819D02*
X226258260Y-125983819D01*
X226258260Y-125983819D02*
X226353498Y-125936200D01*
X226353498Y-125936200D02*
X226401117Y-125888580D01*
X226877308Y-125317152D02*
X226877308Y-125983819D01*
X226877308Y-125412390D02*
X226924927Y-125364771D01*
X226924927Y-125364771D02*
X227020165Y-125317152D01*
X227020165Y-125317152D02*
X227163022Y-125317152D01*
X227163022Y-125317152D02*
X227258260Y-125364771D01*
X227258260Y-125364771D02*
X227305879Y-125460009D01*
X227305879Y-125460009D02*
X227305879Y-125983819D01*
X227639213Y-125317152D02*
X228020165Y-125317152D01*
X227782070Y-124983819D02*
X227782070Y-125840961D01*
X227782070Y-125840961D02*
X227829689Y-125936200D01*
X227829689Y-125936200D02*
X227924927Y-125983819D01*
X227924927Y-125983819D02*
X228020165Y-125983819D01*
X228734451Y-125936200D02*
X228639213Y-125983819D01*
X228639213Y-125983819D02*
X228448737Y-125983819D01*
X228448737Y-125983819D02*
X228353499Y-125936200D01*
X228353499Y-125936200D02*
X228305880Y-125840961D01*
X228305880Y-125840961D02*
X228305880Y-125460009D01*
X228305880Y-125460009D02*
X228353499Y-125364771D01*
X228353499Y-125364771D02*
X228448737Y-125317152D01*
X228448737Y-125317152D02*
X228639213Y-125317152D01*
X228639213Y-125317152D02*
X228734451Y-125364771D01*
X228734451Y-125364771D02*
X228782070Y-125460009D01*
X228782070Y-125460009D02*
X228782070Y-125555247D01*
X228782070Y-125555247D02*
X228305880Y-125650485D01*
X229210642Y-125983819D02*
X229210642Y-125317152D01*
X229210642Y-125507628D02*
X229258261Y-125412390D01*
X229258261Y-125412390D02*
X229305880Y-125364771D01*
X229305880Y-125364771D02*
X229401118Y-125317152D01*
X229401118Y-125317152D02*
X229496356Y-125317152D01*
D10*
X218633333Y-130754819D02*
X218300000Y-130278628D01*
X218061905Y-130754819D02*
X218061905Y-129754819D01*
X218061905Y-129754819D02*
X218442857Y-129754819D01*
X218442857Y-129754819D02*
X218538095Y-129802438D01*
X218538095Y-129802438D02*
X218585714Y-129850057D01*
X218585714Y-129850057D02*
X218633333Y-129945295D01*
X218633333Y-129945295D02*
X218633333Y-130088152D01*
X218633333Y-130088152D02*
X218585714Y-130183390D01*
X218585714Y-130183390D02*
X218538095Y-130231009D01*
X218538095Y-130231009D02*
X218442857Y-130278628D01*
X218442857Y-130278628D02*
X218061905Y-130278628D01*
X219014286Y-129850057D02*
X219061905Y-129802438D01*
X219061905Y-129802438D02*
X219157143Y-129754819D01*
X219157143Y-129754819D02*
X219395238Y-129754819D01*
X219395238Y-129754819D02*
X219490476Y-129802438D01*
X219490476Y-129802438D02*
X219538095Y-129850057D01*
X219538095Y-129850057D02*
X219585714Y-129945295D01*
X219585714Y-129945295D02*
X219585714Y-130040533D01*
X219585714Y-130040533D02*
X219538095Y-130183390D01*
X219538095Y-130183390D02*
X218966667Y-130754819D01*
X218966667Y-130754819D02*
X219585714Y-130754819D01*
X218833333Y-124359580D02*
X218785714Y-124407200D01*
X218785714Y-124407200D02*
X218642857Y-124454819D01*
X218642857Y-124454819D02*
X218547619Y-124454819D01*
X218547619Y-124454819D02*
X218404762Y-124407200D01*
X218404762Y-124407200D02*
X218309524Y-124311961D01*
X218309524Y-124311961D02*
X218261905Y-124216723D01*
X218261905Y-124216723D02*
X218214286Y-124026247D01*
X218214286Y-124026247D02*
X218214286Y-123883390D01*
X218214286Y-123883390D02*
X218261905Y-123692914D01*
X218261905Y-123692914D02*
X218309524Y-123597676D01*
X218309524Y-123597676D02*
X218404762Y-123502438D01*
X218404762Y-123502438D02*
X218547619Y-123454819D01*
X218547619Y-123454819D02*
X218642857Y-123454819D01*
X218642857Y-123454819D02*
X218785714Y-123502438D01*
X218785714Y-123502438D02*
X218833333Y-123550057D01*
X219785714Y-124454819D02*
X219214286Y-124454819D01*
X219500000Y-124454819D02*
X219500000Y-123454819D01*
X219500000Y-123454819D02*
X219404762Y-123597676D01*
X219404762Y-123597676D02*
X219309524Y-123692914D01*
X219309524Y-123692914D02*
X219214286Y-123740533D01*
X214733333Y-134559580D02*
X214685714Y-134607200D01*
X214685714Y-134607200D02*
X214542857Y-134654819D01*
X214542857Y-134654819D02*
X214447619Y-134654819D01*
X214447619Y-134654819D02*
X214304762Y-134607200D01*
X214304762Y-134607200D02*
X214209524Y-134511961D01*
X214209524Y-134511961D02*
X214161905Y-134416723D01*
X214161905Y-134416723D02*
X214114286Y-134226247D01*
X214114286Y-134226247D02*
X214114286Y-134083390D01*
X214114286Y-134083390D02*
X214161905Y-133892914D01*
X214161905Y-133892914D02*
X214209524Y-133797676D01*
X214209524Y-133797676D02*
X214304762Y-133702438D01*
X214304762Y-133702438D02*
X214447619Y-133654819D01*
X214447619Y-133654819D02*
X214542857Y-133654819D01*
X214542857Y-133654819D02*
X214685714Y-133702438D01*
X214685714Y-133702438D02*
X214733333Y-133750057D01*
X215066667Y-133654819D02*
X215685714Y-133654819D01*
X215685714Y-133654819D02*
X215352381Y-134035771D01*
X215352381Y-134035771D02*
X215495238Y-134035771D01*
X215495238Y-134035771D02*
X215590476Y-134083390D01*
X215590476Y-134083390D02*
X215638095Y-134131009D01*
X215638095Y-134131009D02*
X215685714Y-134226247D01*
X215685714Y-134226247D02*
X215685714Y-134464342D01*
X215685714Y-134464342D02*
X215638095Y-134559580D01*
X215638095Y-134559580D02*
X215590476Y-134607200D01*
X215590476Y-134607200D02*
X215495238Y-134654819D01*
X215495238Y-134654819D02*
X215209524Y-134654819D01*
X215209524Y-134654819D02*
X215114286Y-134607200D01*
X215114286Y-134607200D02*
X215066667Y-134559580D01*
X211233333Y-126959580D02*
X211185714Y-127007200D01*
X211185714Y-127007200D02*
X211042857Y-127054819D01*
X211042857Y-127054819D02*
X210947619Y-127054819D01*
X210947619Y-127054819D02*
X210804762Y-127007200D01*
X210804762Y-127007200D02*
X210709524Y-126911961D01*
X210709524Y-126911961D02*
X210661905Y-126816723D01*
X210661905Y-126816723D02*
X210614286Y-126626247D01*
X210614286Y-126626247D02*
X210614286Y-126483390D01*
X210614286Y-126483390D02*
X210661905Y-126292914D01*
X210661905Y-126292914D02*
X210709524Y-126197676D01*
X210709524Y-126197676D02*
X210804762Y-126102438D01*
X210804762Y-126102438D02*
X210947619Y-126054819D01*
X210947619Y-126054819D02*
X211042857Y-126054819D01*
X211042857Y-126054819D02*
X211185714Y-126102438D01*
X211185714Y-126102438D02*
X211233333Y-126150057D01*
X211614286Y-126150057D02*
X211661905Y-126102438D01*
X211661905Y-126102438D02*
X211757143Y-126054819D01*
X211757143Y-126054819D02*
X211995238Y-126054819D01*
X211995238Y-126054819D02*
X212090476Y-126102438D01*
X212090476Y-126102438D02*
X212138095Y-126150057D01*
X212138095Y-126150057D02*
X212185714Y-126245295D01*
X212185714Y-126245295D02*
X212185714Y-126340533D01*
X212185714Y-126340533D02*
X212138095Y-126483390D01*
X212138095Y-126483390D02*
X211566667Y-127054819D01*
X211566667Y-127054819D02*
X212185714Y-127054819D01*
X218838095Y-138654819D02*
X218838095Y-139464342D01*
X218838095Y-139464342D02*
X218885714Y-139559580D01*
X218885714Y-139559580D02*
X218933333Y-139607200D01*
X218933333Y-139607200D02*
X219028571Y-139654819D01*
X219028571Y-139654819D02*
X219219047Y-139654819D01*
X219219047Y-139654819D02*
X219314285Y-139607200D01*
X219314285Y-139607200D02*
X219361904Y-139559580D01*
X219361904Y-139559580D02*
X219409523Y-139464342D01*
X219409523Y-139464342D02*
X219409523Y-138654819D01*
X219790476Y-138654819D02*
X220409523Y-138654819D01*
X220409523Y-138654819D02*
X220076190Y-139035771D01*
X220076190Y-139035771D02*
X220219047Y-139035771D01*
X220219047Y-139035771D02*
X220314285Y-139083390D01*
X220314285Y-139083390D02*
X220361904Y-139131009D01*
X220361904Y-139131009D02*
X220409523Y-139226247D01*
X220409523Y-139226247D02*
X220409523Y-139464342D01*
X220409523Y-139464342D02*
X220361904Y-139559580D01*
X220361904Y-139559580D02*
X220314285Y-139607200D01*
X220314285Y-139607200D02*
X220219047Y-139654819D01*
X220219047Y-139654819D02*
X219933333Y-139654819D01*
X219933333Y-139654819D02*
X219838095Y-139607200D01*
X219838095Y-139607200D02*
X219790476Y-139559580D01*
X215433333Y-119154819D02*
X215100000Y-118678628D01*
X214861905Y-119154819D02*
X214861905Y-118154819D01*
X214861905Y-118154819D02*
X215242857Y-118154819D01*
X215242857Y-118154819D02*
X215338095Y-118202438D01*
X215338095Y-118202438D02*
X215385714Y-118250057D01*
X215385714Y-118250057D02*
X215433333Y-118345295D01*
X215433333Y-118345295D02*
X215433333Y-118488152D01*
X215433333Y-118488152D02*
X215385714Y-118583390D01*
X215385714Y-118583390D02*
X215338095Y-118631009D01*
X215338095Y-118631009D02*
X215242857Y-118678628D01*
X215242857Y-118678628D02*
X214861905Y-118678628D01*
X216290476Y-118488152D02*
X216290476Y-119154819D01*
X216052381Y-118107200D02*
X215814286Y-118821485D01*
X215814286Y-118821485D02*
X216433333Y-118821485D01*
X211558333Y-124366580D02*
X211510714Y-124414200D01*
X211510714Y-124414200D02*
X211367857Y-124461819D01*
X211367857Y-124461819D02*
X211272619Y-124461819D01*
X211272619Y-124461819D02*
X211129762Y-124414200D01*
X211129762Y-124414200D02*
X211034524Y-124318961D01*
X211034524Y-124318961D02*
X210986905Y-124223723D01*
X210986905Y-124223723D02*
X210939286Y-124033247D01*
X210939286Y-124033247D02*
X210939286Y-123890390D01*
X210939286Y-123890390D02*
X210986905Y-123699914D01*
X210986905Y-123699914D02*
X211034524Y-123604676D01*
X211034524Y-123604676D02*
X211129762Y-123509438D01*
X211129762Y-123509438D02*
X211272619Y-123461819D01*
X211272619Y-123461819D02*
X211367857Y-123461819D01*
X211367857Y-123461819D02*
X211510714Y-123509438D01*
X211510714Y-123509438D02*
X211558333Y-123557057D01*
X212415476Y-123795152D02*
X212415476Y-124461819D01*
X212177381Y-123414200D02*
X211939286Y-124128485D01*
X211939286Y-124128485D02*
X212558333Y-124128485D01*
X213433333Y-136754819D02*
X213100000Y-136278628D01*
X212861905Y-136754819D02*
X212861905Y-135754819D01*
X212861905Y-135754819D02*
X213242857Y-135754819D01*
X213242857Y-135754819D02*
X213338095Y-135802438D01*
X213338095Y-135802438D02*
X213385714Y-135850057D01*
X213385714Y-135850057D02*
X213433333Y-135945295D01*
X213433333Y-135945295D02*
X213433333Y-136088152D01*
X213433333Y-136088152D02*
X213385714Y-136183390D01*
X213385714Y-136183390D02*
X213338095Y-136231009D01*
X213338095Y-136231009D02*
X213242857Y-136278628D01*
X213242857Y-136278628D02*
X212861905Y-136278628D01*
X214385714Y-136754819D02*
X213814286Y-136754819D01*
X214100000Y-136754819D02*
X214100000Y-135754819D01*
X214100000Y-135754819D02*
X214004762Y-135897676D01*
X214004762Y-135897676D02*
X213909524Y-135992914D01*
X213909524Y-135992914D02*
X213814286Y-136040533D01*
X209466666Y-138254819D02*
X209466666Y-138969104D01*
X209466666Y-138969104D02*
X209419047Y-139111961D01*
X209419047Y-139111961D02*
X209323809Y-139207200D01*
X209323809Y-139207200D02*
X209180952Y-139254819D01*
X209180952Y-139254819D02*
X209085714Y-139254819D01*
X210466666Y-139254819D02*
X209895238Y-139254819D01*
X210180952Y-139254819D02*
X210180952Y-138254819D01*
X210180952Y-138254819D02*
X210085714Y-138397676D01*
X210085714Y-138397676D02*
X209990476Y-138492914D01*
X209990476Y-138492914D02*
X209895238Y-138540533D01*
X212933333Y-133454819D02*
X212600000Y-132978628D01*
X212361905Y-133454819D02*
X212361905Y-132454819D01*
X212361905Y-132454819D02*
X212742857Y-132454819D01*
X212742857Y-132454819D02*
X212838095Y-132502438D01*
X212838095Y-132502438D02*
X212885714Y-132550057D01*
X212885714Y-132550057D02*
X212933333Y-132645295D01*
X212933333Y-132645295D02*
X212933333Y-132788152D01*
X212933333Y-132788152D02*
X212885714Y-132883390D01*
X212885714Y-132883390D02*
X212838095Y-132931009D01*
X212838095Y-132931009D02*
X212742857Y-132978628D01*
X212742857Y-132978628D02*
X212361905Y-132978628D01*
X213838095Y-132454819D02*
X213361905Y-132454819D01*
X213361905Y-132454819D02*
X213314286Y-132931009D01*
X213314286Y-132931009D02*
X213361905Y-132883390D01*
X213361905Y-132883390D02*
X213457143Y-132835771D01*
X213457143Y-132835771D02*
X213695238Y-132835771D01*
X213695238Y-132835771D02*
X213790476Y-132883390D01*
X213790476Y-132883390D02*
X213838095Y-132931009D01*
X213838095Y-132931009D02*
X213885714Y-133026247D01*
X213885714Y-133026247D02*
X213885714Y-133264342D01*
X213885714Y-133264342D02*
X213838095Y-133359580D01*
X213838095Y-133359580D02*
X213790476Y-133407200D01*
X213790476Y-133407200D02*
X213695238Y-133454819D01*
X213695238Y-133454819D02*
X213457143Y-133454819D01*
X213457143Y-133454819D02*
X213361905Y-133407200D01*
X213361905Y-133407200D02*
X213314286Y-133359580D01*
D13*
%TO.C,U2*%
X213948600Y-123893100D02*
X213948600Y-127245900D01*
X217301400Y-127245900D02*
X217301400Y-123893100D01*
D14*
%TO.C,R3*%
X217465000Y-119627064D02*
X217465000Y-119172936D01*
X218935000Y-119627064D02*
X218935000Y-119172936D01*
D11*
%TO.C,U1*%
X222433900Y-126111400D02*
X222433900Y-123421400D01*
X222433900Y-126111400D02*
X230733900Y-126111400D01*
X230733900Y-126111400D02*
X230733900Y-123421400D01*
X233023900Y-129431400D02*
G75*
G02*
X220223900Y-129431400I-6400000J0D01*
G01*
X220223900Y-129431400D02*
G75*
G02*
X233023900Y-129431400I6400000J0D01*
G01*
D14*
%TO.C,R2*%
X218065000Y-132989564D02*
X218065000Y-132535436D01*
X219535000Y-132989564D02*
X219535000Y-132535436D01*
%TO.C,C1*%
X218065000Y-127461252D02*
X218065000Y-126938748D01*
X219535000Y-127461252D02*
X219535000Y-126938748D01*
%TO.C,C3*%
X216065000Y-133023752D02*
X216065000Y-132501248D01*
X217535000Y-133023752D02*
X217535000Y-132501248D01*
%TO.C,C2*%
X211138748Y-127465000D02*
X211661252Y-127465000D01*
X211138748Y-128935000D02*
X211661252Y-128935000D01*
D13*
%TO.C,U3*%
X216104500Y-136374500D02*
X216104500Y-138025500D01*
X216104500Y-138025500D02*
X217117960Y-138025500D01*
X218070460Y-136374500D02*
X217440540Y-136374500D01*
X218393040Y-138025500D02*
X219406500Y-138025500D01*
X219406500Y-138025500D02*
X219406500Y-136374500D01*
X220676500Y-135879200D02*
G75*
G02*
X220422500Y-135879200I-127000J0D01*
G01*
X220422500Y-135879200D02*
G75*
G02*
X220676500Y-135879200I127000J0D01*
G01*
D14*
%TO.C,R4*%
X215072936Y-119565000D02*
X215527064Y-119565000D01*
X215072936Y-121035000D02*
X215527064Y-121035000D01*
%TO.C,C4*%
X211526248Y-121572000D02*
X212048752Y-121572000D01*
X211526248Y-123042000D02*
X212048752Y-123042000D01*
%TO.C,R1*%
X213827064Y-137165000D02*
X213372936Y-137165000D01*
X213827064Y-138635000D02*
X213372936Y-138635000D01*
%TO.C,J1*%
X208420000Y-129840000D02*
X209800000Y-129840000D01*
X208420000Y-131220000D02*
X208420000Y-129840000D01*
X208420000Y-132490000D02*
X208420000Y-137680000D01*
X208420000Y-132490000D02*
X211180000Y-132490000D01*
X208420000Y-137680000D02*
X211180000Y-137680000D01*
X211180000Y-132490000D02*
X211180000Y-137680000D01*
%TO.C,R5*%
X213572936Y-130565000D02*
X214027064Y-130565000D01*
X213572936Y-132035000D02*
X214027064Y-132035000D01*
%TD*%
M02*
