%TF.GenerationSoftware,KiCad,Pcbnew,9.0.2*%
%TF.CreationDate,2025-06-03T12:39:49-07:00*%
%TF.ProjectId,MainBoard,4d61696e-426f-4617-9264-2e6b69636164,0.3*%
%TF.SameCoordinates,Original*%
%TF.FileFunction,Copper,L1,Top*%
%TF.FilePolarity,Positive*%
%FSLAX46Y46*%
G04 Gerber Fmt 4.6, Leading zero omitted, Abs format (unit mm)*
G04 Created by KiCad (PCBNEW 9.0.2) date 2025-06-03 12:39:49*
%MOMM*%
%LPD*%
G01*
G04 APERTURE LIST*
G04 Aperture macros list*
%AMRoundRect*
0 Rectangle with rounded corners*
0 $1 Rounding radius*
0 $2 $3 $4 $5 $6 $7 $8 $9 X,Y pos of 4 corners*
0 Add a 4 corners polygon primitive as box body*
4,1,4,$2,$3,$4,$5,$6,$7,$8,$9,$2,$3,0*
0 Add four circle primitives for the rounded corners*
1,1,$1+$1,$2,$3*
1,1,$1+$1,$4,$5*
1,1,$1+$1,$6,$7*
1,1,$1+$1,$8,$9*
0 Add four rect primitives between the rounded corners*
20,1,$1+$1,$2,$3,$4,$5,0*
20,1,$1+$1,$4,$5,$6,$7,0*
20,1,$1+$1,$6,$7,$8,$9,0*
20,1,$1+$1,$8,$9,$2,$3,0*%
G04 Aperture macros list end*
%TA.AperFunction,SMDPad,CuDef*%
%ADD10RoundRect,0.250000X0.450000X-0.325000X0.450000X0.325000X-0.450000X0.325000X-0.450000X-0.325000X0*%
%TD*%
%TA.AperFunction,ComponentPad*%
%ADD11C,1.524000*%
%TD*%
%TA.AperFunction,SMDPad,CuDef*%
%ADD12RoundRect,0.250000X-0.475000X0.337500X-0.475000X-0.337500X0.475000X-0.337500X0.475000X0.337500X0*%
%TD*%
%TA.AperFunction,SMDPad,CuDef*%
%ADD13RoundRect,0.250000X0.450000X-0.350000X0.450000X0.350000X-0.450000X0.350000X-0.450000X-0.350000X0*%
%TD*%
%TA.AperFunction,SMDPad,CuDef*%
%ADD14RoundRect,0.250000X0.337500X0.475000X-0.337500X0.475000X-0.337500X-0.475000X0.337500X-0.475000X0*%
%TD*%
%TA.AperFunction,SMDPad,CuDef*%
%ADD15RoundRect,0.250000X0.475000X-0.337500X0.475000X0.337500X-0.475000X0.337500X-0.475000X-0.337500X0*%
%TD*%
%TA.AperFunction,SMDPad,CuDef*%
%ADD16RoundRect,0.250000X-0.350000X-0.450000X0.350000X-0.450000X0.350000X0.450000X-0.350000X0.450000X0*%
%TD*%
%TA.AperFunction,ComponentPad*%
%ADD17RoundRect,0.250000X-0.845000X0.620000X-0.845000X-0.620000X0.845000X-0.620000X0.845000X0.620000X0*%
%TD*%
%TA.AperFunction,ComponentPad*%
%ADD18O,2.190000X1.740000*%
%TD*%
%TA.AperFunction,ComponentPad*%
%ADD19C,1.574800*%
%TD*%
%TA.AperFunction,ComponentPad*%
%ADD20RoundRect,0.250000X0.845000X-0.620000X0.845000X0.620000X-0.845000X0.620000X-0.845000X-0.620000X0*%
%TD*%
%TA.AperFunction,ComponentPad*%
%ADD21R,1.700000X1.700000*%
%TD*%
%TA.AperFunction,ComponentPad*%
%ADD22O,1.700000X1.700000*%
%TD*%
%TA.AperFunction,SMDPad,CuDef*%
%ADD23R,0.650000X0.400000*%
%TD*%
%TA.AperFunction,SMDPad,CuDef*%
%ADD24RoundRect,0.250000X-0.450000X0.350000X-0.450000X-0.350000X0.450000X-0.350000X0.450000X0.350000X0*%
%TD*%
%TA.AperFunction,SMDPad,CuDef*%
%ADD25RoundRect,0.250000X0.350000X0.450000X-0.350000X0.450000X-0.350000X-0.450000X0.350000X-0.450000X0*%
%TD*%
%TA.AperFunction,SMDPad,CuDef*%
%ADD26R,1.599999X0.449999*%
%TD*%
%TA.AperFunction,ComponentPad*%
%ADD27C,0.600000*%
%TD*%
%TA.AperFunction,SMDPad,CuDef*%
%ADD28R,3.099999X5.180000*%
%TD*%
%TA.AperFunction,SMDPad,CuDef*%
%ADD29RoundRect,0.090000X0.865000X0.210000X-0.865000X0.210000X-0.865000X-0.210000X0.865000X-0.210000X0*%
%TD*%
%TA.AperFunction,ComponentPad*%
%ADD30R,1.295400X1.295400*%
%TD*%
%TA.AperFunction,ComponentPad*%
%ADD31C,1.295400*%
%TD*%
%TA.AperFunction,ComponentPad*%
%ADD32C,2.000000*%
%TD*%
%TA.AperFunction,SMDPad,CuDef*%
%ADD33RoundRect,0.250000X-0.450000X0.325000X-0.450000X-0.325000X0.450000X-0.325000X0.450000X0.325000X0*%
%TD*%
%TA.AperFunction,ComponentPad*%
%ADD34RoundRect,0.250000X-0.620000X-0.845000X0.620000X-0.845000X0.620000X0.845000X-0.620000X0.845000X0*%
%TD*%
%TA.AperFunction,ComponentPad*%
%ADD35O,1.740000X2.190000*%
%TD*%
%TA.AperFunction,SMDPad,CuDef*%
%ADD36R,1.562100X0.279400*%
%TD*%
%TA.AperFunction,SMDPad,CuDef*%
%ADD37R,0.279400X1.562100*%
%TD*%
%TA.AperFunction,SMDPad,CuDef*%
%ADD38R,1.600200X3.810000*%
%TD*%
%TA.AperFunction,SMDPad,CuDef*%
%ADD39R,2.066000X0.901600*%
%TD*%
%TA.AperFunction,SMDPad,CuDef*%
%ADD40R,2.066000X3.201599*%
%TD*%
%TA.AperFunction,SMDPad,CuDef*%
%ADD41R,1.663700X0.533400*%
%TD*%
%TA.AperFunction,SMDPad,CuDef*%
%ADD42R,1.350000X0.400000*%
%TD*%
%TA.AperFunction,SMDPad,CuDef*%
%ADD43R,1.400000X1.600000*%
%TD*%
%TA.AperFunction,SMDPad,CuDef*%
%ADD44R,1.900000X1.900000*%
%TD*%
%TA.AperFunction,ComponentPad*%
%ADD45O,1.800000X0.900000*%
%TD*%
%TA.AperFunction,ComponentPad*%
%ADD46C,1.507998*%
%TD*%
%TA.AperFunction,ComponentPad*%
%ADD47C,2.209800*%
%TD*%
%TA.AperFunction,SMDPad,CuDef*%
%ADD48RoundRect,0.250000X-0.337500X-0.475000X0.337500X-0.475000X0.337500X0.475000X-0.337500X0.475000X0*%
%TD*%
%TA.AperFunction,ComponentPad*%
%ADD49R,1.600000X1.600000*%
%TD*%
%TA.AperFunction,ComponentPad*%
%ADD50C,1.600000*%
%TD*%
%TA.AperFunction,SMDPad,CuDef*%
%ADD51R,0.400000X1.350000*%
%TD*%
%TA.AperFunction,SMDPad,CuDef*%
%ADD52R,1.600000X1.400000*%
%TD*%
%TA.AperFunction,ComponentPad*%
%ADD53O,0.900000X1.800000*%
%TD*%
%TA.AperFunction,ComponentPad*%
%ADD54C,1.980000*%
%TD*%
%TA.AperFunction,SMDPad,CuDef*%
%ADD55R,1.397000X1.803400*%
%TD*%
%TA.AperFunction,SMDPad,CuDef*%
%ADD56R,1.905000X1.397000*%
%TD*%
%TA.AperFunction,SMDPad,CuDef*%
%ADD57R,2.006600X0.812800*%
%TD*%
%TA.AperFunction,ViaPad*%
%ADD58C,0.800000*%
%TD*%
%TA.AperFunction,Conductor*%
%ADD59C,0.250000*%
%TD*%
%TA.AperFunction,Conductor*%
%ADD60C,0.500000*%
%TD*%
G04 APERTURE END LIST*
D10*
%TO.P,D5,1,K*%
%TO.N,Net-(D5-K)*%
X215400000Y-165400000D03*
%TO.P,D5,2,A*%
%TO.N,Net-(D5-A)*%
X215400000Y-163350000D03*
%TD*%
D11*
%TO.P,SW8,1,A*%
%TO.N,+3.3V*%
X189060000Y-100300000D03*
%TO.P,SW8,2,B*%
%TO.N,/Bump2*%
X191600000Y-100300000D03*
%TD*%
D12*
%TO.P,C10,1*%
%TO.N,GND*%
X207700000Y-146662500D03*
%TO.P,C10,2*%
%TO.N,+3.3V*%
X207700000Y-148737500D03*
%TD*%
D13*
%TO.P,R29,1*%
%TO.N,Net-(R28-Pad2)*%
X253500000Y-132500000D03*
%TO.P,R29,2*%
%TO.N,GND*%
X253500000Y-130500000D03*
%TD*%
D14*
%TO.P,C13,1*%
%TO.N,+3.3V*%
X203337500Y-100200000D03*
%TO.P,C13,2*%
%TO.N,GND*%
X201262500Y-100200000D03*
%TD*%
%TO.P,C3,1*%
%TO.N,GND*%
X200400000Y-139550000D03*
%TO.P,C3,2*%
%TO.N,+3.3V*%
X198325000Y-139550000D03*
%TD*%
D12*
%TO.P,C36,1*%
%TO.N,GND*%
X208900000Y-151925000D03*
%TO.P,C36,2*%
%TO.N,+3.3V*%
X208900000Y-154000000D03*
%TD*%
%TO.P,C28,1*%
%TO.N,+3.3V*%
X257050000Y-120887500D03*
%TO.P,C28,2*%
%TO.N,GND*%
X257050000Y-122962500D03*
%TD*%
D15*
%TO.P,C7,1*%
%TO.N,GND*%
X216600000Y-118537500D03*
%TO.P,C7,2*%
%TO.N,+3.3V*%
X216600000Y-116462500D03*
%TD*%
D12*
%TO.P,C6,1*%
%TO.N,+3.3V*%
X211500000Y-116462500D03*
%TO.P,C6,2*%
%TO.N,GND*%
X211500000Y-118537500D03*
%TD*%
D16*
%TO.P,R33,1*%
%TO.N,+3.3V*%
X241800000Y-144300000D03*
%TO.P,R33,2*%
%TO.N,Net-(U13-I3)*%
X243800000Y-144300000D03*
%TD*%
D17*
%TO.P,U11,1,PhaseA*%
%TO.N,/IC1*%
X261925000Y-115570000D03*
D18*
%TO.P,U11,2,PhaseB*%
%TO.N,/IC2*%
X261925000Y-118110000D03*
%TO.P,U11,3,Vcc*%
%TO.N,+3.3V*%
X261925000Y-120650000D03*
%TO.P,U11,4,GND*%
%TO.N,GND*%
X261925000Y-123190000D03*
%TO.P,U11,5,M+*%
%TO.N,Net-(U11-M+)*%
X261925000Y-125730000D03*
%TO.P,U11,6,M-*%
%TO.N,Net-(U11-M-)*%
X261925000Y-128270000D03*
%TD*%
D19*
%TO.P,J15,1,Pin_1*%
%TO.N,+3.3V*%
X177450000Y-166350000D03*
%TO.P,J15,2,Pin_2*%
%TO.N,GND*%
X177450000Y-163810000D03*
%TO.P,J15,3,Pin_3*%
%TO.N,/Refl3*%
X177450000Y-161270000D03*
%TD*%
D20*
%TO.P,U12,1,PhaseA*%
%TO.N,/IC3*%
X169100000Y-135890000D03*
D18*
%TO.P,U12,2,PhaseB*%
%TO.N,/IC4*%
X169100000Y-133350000D03*
%TO.P,U12,3,Vcc*%
%TO.N,+3.3V*%
X169100000Y-130810000D03*
%TO.P,U12,4,GND*%
%TO.N,GND*%
X169100000Y-128270000D03*
%TO.P,U12,5,M+*%
%TO.N,Net-(U12-M+)*%
X169100000Y-125730000D03*
%TO.P,U12,6,M-*%
%TO.N,Net-(U12-M-)*%
X169100000Y-123190000D03*
%TD*%
D21*
%TO.P,J1,1,Pin_1*%
%TO.N,Net-(J1-Pin_1)*%
X167850000Y-140300000D03*
D22*
%TO.P,J1,2,Pin_2*%
%TO.N,+3.3V*%
X167850000Y-142840000D03*
%TO.P,J1,3,Pin_3*%
%TO.N,GND*%
X167850000Y-145380000D03*
%TO.P,J1,4,Pin_4*%
%TO.N,Net-(J1-Pin_4)*%
X167850000Y-147920000D03*
%TO.P,J1,5,Pin_5*%
%TO.N,Net-(J1-Pin_5)*%
X167850000Y-150460000D03*
%TO.P,J1,6,Pin_6*%
%TO.N,unconnected-(J1-Pin_6-Pad6)*%
X167850000Y-153000000D03*
%TD*%
D12*
%TO.P,C32,1*%
%TO.N,Vdrive*%
X243100000Y-125262500D03*
%TO.P,C32,2*%
%TO.N,GND*%
X243100000Y-127337500D03*
%TD*%
D21*
%TO.P,J18,1,Pin_1*%
%TO.N,/SDA2*%
X253360000Y-163300000D03*
D22*
%TO.P,J18,2,Pin_2*%
%TO.N,GND*%
X255900000Y-163300000D03*
%TO.P,J18,3,Pin_3*%
%TO.N,/SCL2*%
X253360000Y-165840000D03*
%TO.P,J18,4,Pin_4*%
%TO.N,GND*%
X255900000Y-165840000D03*
%TD*%
D23*
%TO.P,U6,1,S1*%
%TO.N,GND*%
X218000000Y-157800000D03*
%TO.P,U6,2,G1*%
%TO.N,/LED3*%
X218000000Y-157150000D03*
%TO.P,U6,3,D2*%
%TO.N,Net-(D4-K)*%
X218000000Y-156500000D03*
%TO.P,U6,4,S2*%
%TO.N,GND*%
X216100000Y-156500000D03*
%TO.P,U6,5,G2*%
%TO.N,/LED4*%
X216100000Y-157150000D03*
%TO.P,U6,6,D1*%
%TO.N,Net-(D5-K)*%
X216100000Y-157800000D03*
%TD*%
D13*
%TO.P,R12,1*%
%TO.N,/Switch2*%
X242100128Y-166875000D03*
%TO.P,R12,2*%
%TO.N,GND*%
X242100128Y-164875000D03*
%TD*%
D19*
%TO.P,J14,1,Pin_1*%
%TO.N,+3.3V*%
X184673800Y-166390000D03*
%TO.P,J14,2,Pin_2*%
%TO.N,GND*%
X184673800Y-163850000D03*
%TO.P,J14,3,Pin_3*%
%TO.N,/Refl2*%
X184673800Y-161310000D03*
%TD*%
%TO.P,D8,1,A1*%
%TO.N,Net-(D8-A1)*%
X211990000Y-106376200D03*
%TO.P,D8,2,K*%
%TO.N,GND*%
X209450000Y-106376200D03*
%TO.P,D8,3,A2*%
%TO.N,Net-(D8-A2)*%
X206910000Y-106376200D03*
%TD*%
D21*
%TO.P,J3,1,Pin_1*%
%TO.N,+5V*%
X200300000Y-84360000D03*
D22*
%TO.P,J3,2,Pin_2*%
%TO.N,GND*%
X200300000Y-86900000D03*
%TO.P,J3,3,Pin_3*%
%TO.N,+5V*%
X197760000Y-84360000D03*
%TO.P,J3,4,Pin_4*%
%TO.N,GND*%
X197760000Y-86900000D03*
%TO.P,J3,5,Pin_5*%
%TO.N,+5V*%
X195220000Y-84360000D03*
%TO.P,J3,6,Pin_6*%
%TO.N,GND*%
X195220000Y-86900000D03*
%TO.P,J3,7,Pin_7*%
%TO.N,+5V*%
X192680000Y-84360000D03*
%TO.P,J3,8,Pin_8*%
%TO.N,GND*%
X192680000Y-86900000D03*
%TO.P,J3,9,Pin_9*%
%TO.N,+5V*%
X190140000Y-84360000D03*
%TO.P,J3,10,Pin_10*%
%TO.N,GND*%
X190140000Y-86900000D03*
%TD*%
D12*
%TO.P,C31,1*%
%TO.N,Vdrive*%
X256131250Y-140762500D03*
%TO.P,C31,2*%
%TO.N,GND*%
X256131250Y-142837500D03*
%TD*%
D15*
%TO.P,C23,1*%
%TO.N,Vdrive*%
X174500000Y-110437500D03*
%TO.P,C23,2*%
%TO.N,GND*%
X174500000Y-108362500D03*
%TD*%
D24*
%TO.P,R28,1*%
%TO.N,Net-(U13-V3P3OUT)*%
X251400000Y-130500000D03*
%TO.P,R28,2*%
%TO.N,Net-(R28-Pad2)*%
X251400000Y-132500000D03*
%TD*%
D15*
%TO.P,C9,1*%
%TO.N,+3.3V*%
X215250000Y-147637500D03*
%TO.P,C9,2*%
%TO.N,GND*%
X215250000Y-145562500D03*
%TD*%
D25*
%TO.P,R40,1*%
%TO.N,/Bump4*%
X184000000Y-104900000D03*
%TO.P,R40,2*%
%TO.N,GND*%
X182000000Y-104900000D03*
%TD*%
D26*
%TO.P,U10,1,CP1*%
%TO.N,Net-(U10-CP1)*%
X177650001Y-108674999D03*
%TO.P,U10,2,CP2*%
%TO.N,Net-(U10-CP2)*%
X177650001Y-109325000D03*
%TO.P,U10,3,VCP*%
%TO.N,Net-(U10-VCP)*%
X177650001Y-109974999D03*
%TO.P,U10,4,VM*%
%TO.N,Vdrive*%
X177650001Y-110625000D03*
%TO.P,U10,5,OUT1*%
%TO.N,Net-(U12-M+)*%
X177650001Y-111274998D03*
%TO.P,U10,6,ISEN*%
%TO.N,/MotorCurrent1*%
X177650001Y-111925000D03*
%TO.P,U10,7,OUT2*%
%TO.N,Net-(U12-M-)*%
X177650001Y-112574998D03*
%TO.P,U10,8,OUT2*%
X177650001Y-113225000D03*
%TO.P,U10,9,ISEN*%
%TO.N,/MotorCurrent1*%
X177650001Y-113874998D03*
%TO.P,U10,10,OUT1*%
%TO.N,Net-(U12-M+)*%
X177650001Y-114525000D03*
%TO.P,U10,11,VM*%
%TO.N,Vdrive*%
X177650001Y-115174998D03*
%TO.P,U10,12,VREF*%
%TO.N,Net-(R18-Pad2)*%
X177650001Y-115824999D03*
%TO.P,U10,13,VREF*%
X177650001Y-116474998D03*
%TO.P,U10,14,GND*%
%TO.N,GND*%
X177650001Y-117124999D03*
%TO.P,U10,15,V3P3OUT*%
%TO.N,Net-(U10-V3P3OUT)*%
X183750002Y-117124999D03*
%TO.P,U10,16,RESET_N*%
%TO.N,+3.3V*%
X183750002Y-116474998D03*
%TO.P,U10,17,SLEEP_N*%
X183750002Y-115824999D03*
%TO.P,U10,18,FAULT_N*%
%TO.N,/Fault1*%
X183750002Y-115174998D03*
%TO.P,U10,19,DECAY*%
%TO.N,unconnected-(U10-DECAY-Pad19)*%
X183750002Y-114525000D03*
%TO.P,U10,20,IN2*%
%TO.N,/Dir2*%
X183750002Y-113874998D03*
%TO.P,U10,21,IN1*%
%TO.N,/OC2*%
X183750002Y-113225000D03*
%TO.P,U10,22,NC*%
%TO.N,unconnected-(U10-NC-Pad22)*%
X183750002Y-112574998D03*
%TO.P,U10,23,I0*%
%TO.N,Net-(U10-I0)*%
X183750002Y-111925000D03*
%TO.P,U10,24,I1*%
%TO.N,Net-(U10-I1)*%
X183750002Y-111274998D03*
%TO.P,U10,25,I2*%
%TO.N,Net-(U10-I2)*%
X183750002Y-110625000D03*
%TO.P,U10,26,I3*%
%TO.N,Net-(U10-I3)*%
X183750002Y-109974999D03*
%TO.P,U10,27,I4*%
%TO.N,Net-(U10-I4)*%
X183750002Y-109325000D03*
%TO.P,U10,28,GND*%
%TO.N,GND*%
X183750002Y-108674999D03*
D27*
%TO.P,U10,29,PAD*%
X179600000Y-111799999D03*
X179600000Y-112899999D03*
X179600000Y-113999999D03*
X179600000Y-115100000D03*
X179620000Y-110779999D03*
X180700000Y-110779999D03*
D28*
X180700000Y-112899999D03*
D27*
X180700000Y-115100000D03*
X180700003Y-111799999D03*
X180700003Y-112899999D03*
X180700003Y-113999999D03*
X181760000Y-110779999D03*
X181800000Y-111799999D03*
X181800000Y-112899999D03*
X181800000Y-113999999D03*
X181800000Y-115100000D03*
%TD*%
D24*
%TO.P,R5,1*%
%TO.N,+3.3V*%
X208400000Y-159500000D03*
%TO.P,R5,2*%
%TO.N,Net-(D3-A)*%
X208400000Y-161500000D03*
%TD*%
D21*
%TO.P,J21,1,Pin_1*%
%TO.N,/RH15*%
X233010000Y-118650000D03*
D22*
%TO.P,J21,2,Pin_2*%
%TO.N,/RH14*%
X233010000Y-116110000D03*
%TO.P,J21,3,Pin_3*%
%TO.N,/RH13*%
X235550000Y-118650000D03*
%TO.P,J21,4,Pin_4*%
%TO.N,/RH12*%
X235550000Y-116110000D03*
%TO.P,J21,5,Pin_5*%
%TO.N,GND*%
X238090000Y-118650000D03*
%TO.P,J21,6,Pin_6*%
X238090000Y-116110000D03*
%TD*%
D10*
%TO.P,D2,1,K*%
%TO.N,Net-(D2-K)*%
X211900000Y-165400000D03*
%TO.P,D2,2,A*%
%TO.N,Net-(D2-A)*%
X211900000Y-163350000D03*
%TD*%
D29*
%TO.P,U9,1,VDD*%
%TO.N,+3.3V*%
X260700000Y-107470000D03*
%TO.P,U9,2,GP0*%
%TO.N,Net-(D10-K)*%
X260700000Y-106200000D03*
%TO.P,U9,3,GP1*%
%TO.N,Net-(D9-K)*%
X260700000Y-104930000D03*
%TO.P,U9,4,~{RST}*%
%TO.N,/USB_RST*%
X260700000Y-103660000D03*
%TO.P,U9,5,URX*%
%TO.N,/U1TX*%
X260700000Y-102390000D03*
%TO.P,U9,6,UTX*%
%TO.N,/U1RX*%
X260700000Y-101120000D03*
%TO.P,U9,7,GP2*%
%TO.N,unconnected-(U9-GP2-Pad7)*%
X260700000Y-99850000D03*
%TO.P,U9,8,GP3*%
%TO.N,unconnected-(U9-GP3-Pad8)*%
X255780000Y-99850000D03*
%TO.P,U9,9,SDA*%
%TO.N,unconnected-(U9-SDA-Pad9)*%
X255780000Y-101120000D03*
%TO.P,U9,10,SCL*%
%TO.N,unconnected-(U9-SCL-Pad10)*%
X255780000Y-102390000D03*
%TO.P,U9,11,VUSB*%
%TO.N,+3.3V*%
X255780000Y-103660000D03*
%TO.P,U9,12,D-*%
%TO.N,Net-(J9-D-)*%
X255780000Y-104930000D03*
%TO.P,U9,13,D+*%
%TO.N,Net-(J9-D+)*%
X255780000Y-106200000D03*
%TO.P,U9,14,VSS*%
%TO.N,GND*%
X255780000Y-107470000D03*
%TD*%
D15*
%TO.P,C8,1*%
%TO.N,+3.3V*%
X220700000Y-149168750D03*
%TO.P,C8,2*%
%TO.N,GND*%
X220700000Y-147093750D03*
%TD*%
D24*
%TO.P,R35,1*%
%TO.N,Vdrive*%
X260331250Y-140800000D03*
%TO.P,R35,2*%
%TO.N,Net-(U13-VCP)*%
X260331250Y-142800000D03*
%TD*%
D25*
%TO.P,R22,1*%
%TO.N,+3.3V*%
X188850000Y-109550000D03*
%TO.P,R22,2*%
%TO.N,Net-(U10-I2)*%
X186850000Y-109550000D03*
%TD*%
D21*
%TO.P,J19,1,Pin_1*%
%TO.N,/SCK4*%
X237510000Y-126560000D03*
D22*
%TO.P,J19,2,Pin_2*%
%TO.N,/SDI4*%
X240050000Y-126560000D03*
%TO.P,J19,3,Pin_3*%
%TO.N,/SS4\u002A*%
X237510000Y-129100000D03*
%TO.P,J19,4,Pin_4*%
%TO.N,/SDO4*%
X240050000Y-129100000D03*
%TO.P,J19,5,Pin_5*%
%TO.N,GND*%
X237510000Y-131640000D03*
%TO.P,J19,6,Pin_6*%
X240050000Y-131640000D03*
%TD*%
D30*
%TO.P,SW2,1,A*%
%TO.N,Net-(J4-VBUS)*%
X211550000Y-86049999D03*
D31*
%TO.P,SW2,2,B*%
%TO.N,+5V*%
X211550000Y-88050000D03*
%TO.P,SW2,3,C*%
%TO.N,unconnected-(SW2-C-Pad3)*%
X211550000Y-90050001D03*
D32*
%TO.P,SW2,4*%
%TO.N,N/C*%
X211550000Y-83949999D03*
%TO.P,SW2,5*%
X211550000Y-92150000D03*
%TD*%
D10*
%TO.P,D3,1,K*%
%TO.N,Net-(D3-K)*%
X208400000Y-165400000D03*
%TO.P,D3,2,A*%
%TO.N,Net-(D3-A)*%
X208400000Y-163350000D03*
%TD*%
D24*
%TO.P,R6,1*%
%TO.N,+3.3V*%
X218900000Y-159500000D03*
%TO.P,R6,2*%
%TO.N,Net-(D4-A)*%
X218900000Y-161500000D03*
%TD*%
D26*
%TO.P,U13,1,CP1*%
%TO.N,Net-(U13-CP1)*%
X253349999Y-143224999D03*
%TO.P,U13,2,CP2*%
%TO.N,Net-(U13-CP2)*%
X253349999Y-142574998D03*
%TO.P,U13,3,VCP*%
%TO.N,Net-(U13-VCP)*%
X253349999Y-141924999D03*
%TO.P,U13,4,VM*%
%TO.N,Vdrive*%
X253349999Y-141274998D03*
%TO.P,U13,5,OUT1*%
%TO.N,Net-(U11-M+)*%
X253349999Y-140625000D03*
%TO.P,U13,6,ISEN*%
%TO.N,/MotorCurrent2*%
X253349999Y-139974998D03*
%TO.P,U13,7,OUT2*%
%TO.N,Net-(U11-M-)*%
X253349999Y-139325000D03*
%TO.P,U13,8,OUT2*%
X253349999Y-138674998D03*
%TO.P,U13,9,ISEN*%
%TO.N,/MotorCurrent2*%
X253349999Y-138025000D03*
%TO.P,U13,10,OUT1*%
%TO.N,Net-(U11-M+)*%
X253349999Y-137374998D03*
%TO.P,U13,11,VM*%
%TO.N,Vdrive*%
X253349999Y-136725000D03*
%TO.P,U13,12,VREF*%
%TO.N,Net-(R28-Pad2)*%
X253349999Y-136074999D03*
%TO.P,U13,13,VREF*%
X253349999Y-135425000D03*
%TO.P,U13,14,GND*%
%TO.N,GND*%
X253349999Y-134774999D03*
%TO.P,U13,15,V3P3OUT*%
%TO.N,Net-(U13-V3P3OUT)*%
X247249998Y-134774999D03*
%TO.P,U13,16,RESET_N*%
%TO.N,+3.3V*%
X247249998Y-135425000D03*
%TO.P,U13,17,SLEEP_N*%
X247249998Y-136074999D03*
%TO.P,U13,18,FAULT_N*%
%TO.N,/Fault2*%
X247249998Y-136725000D03*
%TO.P,U13,19,DECAY*%
%TO.N,unconnected-(U13-DECAY-Pad19)*%
X247249998Y-137374998D03*
%TO.P,U13,20,IN2*%
%TO.N,/Dir1*%
X247249998Y-138025000D03*
%TO.P,U13,21,IN1*%
%TO.N,/OC1*%
X247249998Y-138674998D03*
%TO.P,U13,22,NC*%
%TO.N,unconnected-(U13-NC-Pad22)*%
X247249998Y-139325000D03*
%TO.P,U13,23,I0*%
%TO.N,Net-(U13-I0)*%
X247249998Y-139974998D03*
%TO.P,U13,24,I1*%
%TO.N,Net-(U13-I1)*%
X247249998Y-140625000D03*
%TO.P,U13,25,I2*%
%TO.N,Net-(U13-I2)*%
X247249998Y-141274998D03*
%TO.P,U13,26,I3*%
%TO.N,Net-(U13-I3)*%
X247249998Y-141924999D03*
%TO.P,U13,27,I4*%
%TO.N,Net-(U13-I4)*%
X247249998Y-142574998D03*
%TO.P,U13,28,GND*%
%TO.N,GND*%
X247249998Y-143224999D03*
D27*
%TO.P,U13,29,PAD*%
X251400000Y-140099999D03*
X251400000Y-138999999D03*
X251400000Y-137899999D03*
X251400000Y-136799998D03*
X251380000Y-141119999D03*
X250300000Y-141119999D03*
D28*
X250300000Y-138999999D03*
D27*
X250300000Y-136799998D03*
X250299997Y-140099999D03*
X250299997Y-138999999D03*
X250299997Y-137899999D03*
X249240000Y-141119999D03*
X249200000Y-140099999D03*
X249200000Y-138999999D03*
X249200000Y-137899999D03*
X249200000Y-136799998D03*
%TD*%
D33*
%TO.P,D1,1,K*%
%TO.N,GND*%
X205200000Y-83475000D03*
%TO.P,D1,2,A*%
%TO.N,Net-(D1-A)*%
X205200000Y-85525000D03*
%TD*%
D12*
%TO.P,C29,1*%
%TO.N,Net-(U13-CP1)*%
X248000000Y-145462500D03*
%TO.P,C29,2*%
%TO.N,Net-(U13-CP2)*%
X248000000Y-147537500D03*
%TD*%
D23*
%TO.P,U7,1,S1*%
%TO.N,GND*%
X225000000Y-157800000D03*
%TO.P,U7,2,G1*%
%TO.N,/LED5*%
X225000000Y-157150000D03*
%TO.P,U7,3,D2*%
%TO.N,Net-(D6-K)*%
X225000000Y-156500000D03*
%TO.P,U7,4,S2*%
%TO.N,GND*%
X223100000Y-156500000D03*
%TO.P,U7,5,G2*%
%TO.N,/LED6*%
X223100000Y-157150000D03*
%TO.P,U7,6,D1*%
%TO.N,Net-(D7-K)*%
X223100000Y-157800000D03*
%TD*%
D16*
%TO.P,R30,1*%
%TO.N,+3.3V*%
X241800000Y-138300000D03*
%TO.P,R30,2*%
%TO.N,Net-(U13-I0)*%
X243800000Y-138300000D03*
%TD*%
D24*
%TO.P,R1,1*%
%TO.N,Net-(C1-Pad1)*%
X194500000Y-130200000D03*
%TO.P,R1,2*%
%TO.N,+3.3V*%
X194500000Y-132200000D03*
%TD*%
D13*
%TO.P,R25,1*%
%TO.N,Vdrive*%
X170200000Y-110400000D03*
%TO.P,R25,2*%
%TO.N,Net-(U10-VCP)*%
X170200000Y-108400000D03*
%TD*%
D34*
%TO.P,J20,1,Pin_1*%
%TO.N,/SCK2*%
X172055000Y-142450000D03*
D35*
%TO.P,J20,2,Pin_2*%
%TO.N,/SS2\u002A*%
X174595000Y-142450000D03*
%TO.P,J20,3,Pin_3*%
%TO.N,/SDO2*%
X177135000Y-142450000D03*
%TO.P,J20,4,Pin_4*%
%TO.N,/SDI2*%
X179675000Y-142450000D03*
%TO.P,J20,5,Pin_5*%
%TO.N,GND*%
X182215000Y-142450000D03*
%TO.P,J20,6,Pin_6*%
X184755000Y-142450000D03*
%TD*%
D21*
%TO.P,J8,1,Pin_1*%
%TO.N,/SCK3*%
X201160000Y-158430000D03*
D22*
%TO.P,J8,2,Pin_2*%
%TO.N,/SDO3*%
X203700000Y-158430000D03*
%TO.P,J8,3,Pin_3*%
%TO.N,/SS3\u002A*%
X201160000Y-160970000D03*
%TO.P,J8,4,Pin_4*%
%TO.N,/SDI3*%
X203700000Y-160970000D03*
%TO.P,J8,5,Pin_5*%
%TO.N,GND*%
X201160000Y-163510000D03*
%TO.P,J8,6,Pin_6*%
X203700000Y-163510000D03*
%TO.P,J8,7,Pin_7*%
%TO.N,/U4RX*%
X201160000Y-166050000D03*
%TO.P,J8,8,Pin_8*%
%TO.N,/U4TX*%
X203700000Y-166050000D03*
%TD*%
D21*
%TO.P,J2,1,Pin_1*%
%TO.N,Net-(J2-Pin_1)*%
X185140000Y-84060000D03*
D22*
%TO.P,J2,2,Pin_2*%
%TO.N,GND*%
X185140000Y-86600000D03*
%TO.P,J2,3,Pin_3*%
%TO.N,Net-(J2-Pin_1)*%
X182600000Y-84060000D03*
%TO.P,J2,4,Pin_4*%
%TO.N,GND*%
X182600000Y-86600000D03*
%TO.P,J2,5,Pin_5*%
%TO.N,Net-(J2-Pin_1)*%
X180060000Y-84060000D03*
%TO.P,J2,6,Pin_6*%
%TO.N,GND*%
X180060000Y-86600000D03*
%TO.P,J2,7,Pin_7*%
%TO.N,Net-(J2-Pin_1)*%
X177520000Y-84060000D03*
%TO.P,J2,8,Pin_8*%
%TO.N,GND*%
X177520000Y-86600000D03*
%TO.P,J2,9,Pin_9*%
%TO.N,Net-(J2-Pin_1)*%
X174980000Y-84060000D03*
%TO.P,J2,10,Pin_10*%
%TO.N,GND*%
X174980000Y-86600000D03*
%TD*%
D16*
%TO.P,R32,1*%
%TO.N,+3.3V*%
X241800000Y-142300000D03*
%TO.P,R32,2*%
%TO.N,Net-(U13-I2)*%
X243800000Y-142300000D03*
%TD*%
%TO.P,R16,1*%
%TO.N,+3.3V*%
X255400000Y-93500000D03*
%TO.P,R16,2*%
%TO.N,Net-(D10-A)*%
X257400000Y-93500000D03*
%TD*%
D24*
%TO.P,R7,1*%
%TO.N,+3.3V*%
X215400000Y-159500000D03*
%TO.P,R7,2*%
%TO.N,Net-(D5-A)*%
X215400000Y-161500000D03*
%TD*%
D21*
%TO.P,J23,1,Pin_1*%
%TO.N,/U5TX*%
X171660000Y-152150000D03*
D22*
%TO.P,J23,2,Pin_2*%
%TO.N,/U5RX*%
X174200000Y-152150000D03*
%TO.P,J23,3,Pin_3*%
%TO.N,/U6TX*%
X171660000Y-154690000D03*
%TO.P,J23,4,Pin_4*%
%TO.N,/U6RX*%
X174200000Y-154690000D03*
%TO.P,J23,5,Pin_5*%
%TO.N,GND*%
X171660000Y-157230000D03*
%TO.P,J23,6,Pin_6*%
X174200000Y-157230000D03*
%TD*%
D33*
%TO.P,D10,1,K*%
%TO.N,Net-(D10-K)*%
X264400000Y-107475000D03*
%TO.P,D10,2,A*%
%TO.N,Net-(D10-A)*%
X264400000Y-109525000D03*
%TD*%
D11*
%TO.P,SW6,1,1*%
%TO.N,+3.3V*%
X231610128Y-164351200D03*
%TO.P,SW6,2,2*%
%TO.N,/Switch1*%
X229070128Y-164351200D03*
%TD*%
D36*
%TO.P,U1,1,AN23/RG15*%
%TO.N,/Bump1*%
X204624050Y-123250000D03*
%TO.P,U1,2,EBIA5/AN34/PMA5/RA5*%
%TO.N,/Bump2*%
X204624050Y-123749999D03*
%TO.P,U1,3,EBID5/AN17/RPE5/PMD5/RE5*%
%TO.N,/Bump3*%
X204624050Y-124250000D03*
%TO.P,U1,4,EBID6/AN16/PMD6/RE6*%
%TO.N,/Bump4*%
X204624050Y-124749999D03*
%TO.P,U1,5,EBID7/AN15/PMD7/RE7*%
%TO.N,/RE7*%
X204624050Y-125250001D03*
%TO.P,U1,6,EBIA6/AN22/RPC1/PMA6/RC1*%
%TO.N,/IC3*%
X204624050Y-125750000D03*
%TO.P,U1,7,AN35/ETXD0/RJ8*%
%TO.N,/RJ8*%
X204624050Y-126249999D03*
%TO.P,U1,8,AN36/ETXD1/RJ9*%
%TO.N,/MotorCurrent1*%
X204624050Y-126750000D03*
%TO.P,U1,9,EBIBS0/RJ12*%
%TO.N,/Fault1*%
X204624050Y-127249999D03*
%TO.P,U1,10,EBIBS1/RJ10*%
%TO.N,unconnected-(U1A-EBIBS1{slash}RJ10-Pad10)*%
X204624050Y-127750001D03*
%TO.P,U1,11,EBIA12/AN21/RPC2/PMA12/RC2*%
%TO.N,/U2TX*%
X204624050Y-128250000D03*
%TO.P,U1,12,EBIWE/AN20/RPC3/PMWR/RC3*%
%TO.N,/U6TX*%
X204624050Y-128749999D03*
%TO.P,U1,13,EBIOE/AN19/RPC4/PMRD/RC4*%
%TO.N,/IC4*%
X204624050Y-129250000D03*
%TO.P,U1,14,AN14/C1IND/RPG6/SCK2/RG6*%
%TO.N,/SCK2*%
X204624050Y-129749999D03*
%TO.P,U1,15,AN13/C1INC/RPG7/SDA4/RG7*%
%TO.N,/SDI2*%
X204624050Y-130250001D03*
%TO.P,U1,16,AN12/C2IND/RPG8/SCL4/RG8*%
%TO.N,/SDO2*%
X204624050Y-130750000D03*
%TO.P,U1,17,VSS*%
%TO.N,GND*%
X204624050Y-131249999D03*
%TO.P,U1,18,VDD*%
%TO.N,+3.3V*%
X204624050Y-131750000D03*
%TO.P,U1,19,EBIA16/RK0*%
%TO.N,unconnected-(U1A-EBIA16{slash}RK0-Pad19)*%
X204624050Y-132250000D03*
%TO.P,U1,20,MCLR*%
%TO.N,Net-(J1-Pin_1)*%
X204624050Y-132749998D03*
%TO.P,U1,21,EBIA2/AN11/C2INC/RPG9/PMA2/RG9*%
%TO.N,/SS2\u002A*%
X204624050Y-133250000D03*
%TO.P,U1,22,TMS/AN24/RA0*%
%TO.N,unconnected-(U1A-TMS{slash}AN24{slash}RA0-Pad22)*%
X204624050Y-133749999D03*
%TO.P,U1,23,AN25/RPE8/RE8*%
%TO.N,/SDI6*%
X204624050Y-134250001D03*
%TO.P,U1,24,AN26/RPE9/RE9*%
%TO.N,/SDO6*%
X204624050Y-134750000D03*
%TO.P,U1,25,AN45/C1INA/RPB5/RB5*%
%TO.N,/U5RX*%
X204624050Y-135249999D03*
%TO.P,U1,26,AN4/C1INB/RB4*%
%TO.N,/Refl3*%
X204624050Y-135750000D03*
%TO.P,U1,27,AN37/ERXCLK/EREFCLK/RJ11*%
%TO.N,/Refl2*%
X204624050Y-136249999D03*
%TO.P,U1,28,EBIA13/PMA13/RJ13*%
%TO.N,/RJ13*%
X204624050Y-136750001D03*
%TO.P,U1,29,EBIA11/PMA11/RJ14*%
%TO.N,/RJ14*%
X204624050Y-137250000D03*
%TO.P,U1,30,EBIA0/PMA0/RJ15*%
%TO.N,/RJ15*%
X204624050Y-137749999D03*
%TO.P,U1,31,AN3/C2INA/RPB3/RB3*%
%TO.N,/U5TX*%
X204624050Y-138250000D03*
%TO.P,U1,32,VSS*%
%TO.N,GND*%
X204624050Y-138749999D03*
%TO.P,U1,33,VDD*%
%TO.N,+3.3V*%
X204624050Y-139250001D03*
%TO.P,U1,34,AN2/C2INB/RPB2/RB2*%
%TO.N,/U6RX*%
X204624050Y-139750000D03*
%TO.P,U1,35,PGEC1/AN1/RPB1/RB1*%
%TO.N,Net-(J1-Pin_5)*%
X204624050Y-140249999D03*
%TO.P,U1,36,PGED1/AN0/RPB0/RB0*%
%TO.N,Net-(J1-Pin_4)*%
X204624050Y-140750000D03*
D37*
%TO.P,U1,37,PGEC2/AN46/RPB6/RB6*%
%TO.N,/U4RX*%
X206650000Y-142775950D03*
%TO.P,U1,38,PGED2/AN47/RPB7/RB7*%
%TO.N,/U4TX*%
X207149999Y-142775950D03*
%TO.P,U1,39,VREF-/CVREF-/AN27/RA9*%
%TO.N,/RA9*%
X207650000Y-142775950D03*
%TO.P,U1,40,VREF+/CVREF+/AN28/RA10*%
%TO.N,/RA10*%
X208149999Y-142775950D03*
%TO.P,U1,41,AVDD*%
%TO.N,+3.3V*%
X208650001Y-142775950D03*
%TO.P,U1,42,AVSS*%
%TO.N,GND*%
X209150000Y-142775950D03*
%TO.P,U1,43,AN38/ETXD2/RH0*%
%TO.N,/RH0*%
X209649999Y-142775950D03*
%TO.P,U1,44,AN39/ETXD3/RH1*%
%TO.N,/RH1*%
X210150000Y-142775950D03*
%TO.P,U1,45,EBIRP/RH2*%
%TO.N,/RH2*%
X210649999Y-142775950D03*
%TO.P,U1,46,RH3*%
%TO.N,/RH3*%
X211150001Y-142775950D03*
%TO.P,U1,47,EBIA10/AN48/RPB8/PMA10/RB8*%
%TO.N,/RB8*%
X211650000Y-142775950D03*
%TO.P,U1,48,EBIA7/AN49/RPB9/PMA7/RB9*%
%TO.N,/SDI3*%
X212149999Y-142775950D03*
%TO.P,U1,49,CVREFOUT/AN5/RPB10/RB10*%
%TO.N,/SDO3*%
X212650000Y-142775950D03*
%TO.P,U1,50,AN6/RB11*%
%TO.N,/Refl1*%
X213149999Y-142775950D03*
%TO.P,U1,51,EBIA1/PMA1/RK1*%
%TO.N,/RK1*%
X213650001Y-142775950D03*
%TO.P,U1,52,EBIA3/PMA3/RK2*%
%TO.N,/RK2*%
X214150000Y-142775950D03*
%TO.P,U1,53,EBIA17/RK3*%
%TO.N,/RK3*%
X214649999Y-142775950D03*
%TO.P,U1,54,VSS*%
%TO.N,GND*%
X215150000Y-142775950D03*
%TO.P,U1,55,VDD*%
%TO.N,+3.3V*%
X215650000Y-142775950D03*
%TO.P,U1,56,TCK/AN29/RA1*%
%TO.N,/MotorCurrent2*%
X216150001Y-142775950D03*
%TO.P,U1,57,TDI/AN30/RPF13/SCK5/RF13*%
%TO.N,/SCK5*%
X216650000Y-142775950D03*
%TO.P,U1,58,TDO/AN31/RPF12/RF12*%
%TO.N,/SS5\u002A*%
X217149999Y-142775950D03*
%TO.P,U1,59,AN7/RB12*%
%TO.N,/Write Protect\u002A*%
X217650001Y-142775950D03*
%TO.P,U1,60,AN8/RB13*%
%TO.N,/Hold\u002A*%
X218150000Y-142775950D03*
%TO.P,U1,61,AN9/RPB14/SCK3/RB14*%
%TO.N,/SCK3*%
X218650001Y-142775950D03*
%TO.P,U1,62,AN10/RPB15/OCFB/RB15*%
%TO.N,/SS3\u002A*%
X219150000Y-142775950D03*
%TO.P,U1,63,VSS*%
%TO.N,GND*%
X219649999Y-142775950D03*
%TO.P,U1,64,VDD*%
%TO.N,+3.3V*%
X220150001Y-142775950D03*
%TO.P,U1,65,AN40/ERXERR/RH4*%
%TO.N,/LED2*%
X220650000Y-142775950D03*
%TO.P,U1,66,AN41/ERXD1/RH5*%
%TO.N,/LED1*%
X221150001Y-142775950D03*
%TO.P,U1,67,AN42/ERXD2/RH6*%
%TO.N,/LED4*%
X221650000Y-142775950D03*
%TO.P,U1,68,EBIA4/PMA4/RH7*%
%TO.N,/LED3*%
X222149999Y-142775950D03*
%TO.P,U1,69,AN32/RPD14/RD14*%
%TO.N,/SS6\u002A*%
X222650001Y-142775950D03*
%TO.P,U1,70,AN33/RPD15/SCK6/RD15*%
%TO.N,/SCK6*%
X223150000Y-142775950D03*
%TO.P,U1,71,OSC1/CLKI/RC12*%
%TO.N,/LED6*%
X223650001Y-142775950D03*
%TO.P,U1,72,OSC2/CLKO/RC15*%
%TO.N,/LED5*%
X224150000Y-142775950D03*
D36*
%TO.P,U1,73,VBUS*%
%TO.N,unconnected-(U1B-VBUS-Pad73)*%
X226175950Y-140750000D03*
%TO.P,U1,74,VUSB3V3*%
%TO.N,GND*%
X226175950Y-140250001D03*
%TO.P,U1,75,VSS*%
X226175950Y-139750000D03*
%TO.P,U1,76,D-*%
%TO.N,unconnected-(U1B-D--Pad76)*%
X226175950Y-139250001D03*
%TO.P,U1,77,D+*%
%TO.N,unconnected-(U1B-D+-Pad77)*%
X226175950Y-138749999D03*
%TO.P,U1,78,RPF3/USBID/RF3*%
%TO.N,unconnected-(U1B-RPF3{slash}USBID{slash}RF3-Pad78)*%
X226175950Y-138250000D03*
%TO.P,U1,79,SDA3/RPF2/RF2*%
%TO.N,/OC1*%
X226175950Y-137750001D03*
%TO.P,U1,80,SCL3/RPF8/RF8*%
%TO.N,/Dir1*%
X226175950Y-137250000D03*
%TO.P,U1,81,ERXD0/RH8*%
%TO.N,/IC2*%
X226175950Y-136750001D03*
%TO.P,U1,82,ERXD3/RH9*%
%TO.N,/Switch1*%
X226175950Y-136249999D03*
%TO.P,U1,83,ECOL/RH10*%
%TO.N,/Switch2*%
X226175950Y-135750000D03*
%TO.P,U1,84,EBIRDY2/RH11*%
%TO.N,/Switch3*%
X226175950Y-135250001D03*
%TO.P,U1,85,SCL2/RA2*%
%TO.N,/SCL2*%
X226175950Y-134750000D03*
%TO.P,U1,86,EBIRDY1/SDA2/RA3*%
%TO.N,/SDA2*%
X226175950Y-134250001D03*
%TO.P,U1,87,EBIA14/PMCS1/PMA14/RA4*%
%TO.N,/Fault2*%
X226175950Y-133749999D03*
%TO.P,U1,88,VDD*%
%TO.N,+3.3V*%
X226175950Y-133250000D03*
%TO.P,U1,89,VSS*%
%TO.N,GND*%
X226175950Y-132750001D03*
%TO.P,U1,90,EBIA9/RPF4/SDA5/PMA9/RF4*%
%TO.N,/U1RX*%
X226175950Y-132250000D03*
%TO.P,U1,91,EBIA8/RPF5/SCL5/PMA8/RF5*%
%TO.N,/U1TX*%
X226175950Y-131750000D03*
%TO.P,U1,92,EBIA18/RK4*%
%TO.N,/USB_RST*%
X226175950Y-131249999D03*
%TO.P,U1,93,EBIA19/RK5*%
%TO.N,unconnected-(U1B-EBIA19{slash}RK5-Pad93)*%
X226175950Y-130750000D03*
%TO.P,U1,94,EBIA20/RK6*%
%TO.N,unconnected-(U1B-EBIA20{slash}RK6-Pad94)*%
X226175950Y-130250001D03*
%TO.P,U1,95,RPA14/SCL1/RA14*%
%TO.N,unconnected-(U1B-RPA14{slash}SCL1{slash}RA14-Pad95)*%
X226175950Y-129749999D03*
%TO.P,U1,96,RPA15/SDA1/RA15*%
%TO.N,/SDO4*%
X226175950Y-129250000D03*
%TO.P,U1,97,EBIA15/RPD9/PMCS2/PMA15/RD9*%
%TO.N,/SS4\u002A*%
X226175950Y-128749999D03*
%TO.P,U1,98,RPD10/SCK4/RD10*%
%TO.N,/SCK4*%
X226175950Y-128250000D03*
%TO.P,U1,99,EMDC/RPD11/RD11*%
%TO.N,/SDI4*%
X226175950Y-127750001D03*
%TO.P,U1,100,ECRS/RH12*%
%TO.N,/RH12*%
X226175950Y-127249999D03*
%TO.P,U1,101,ERXDV/ECRSDV/RH13*%
%TO.N,/RH13*%
X226175950Y-126750000D03*
%TO.P,U1,102,RH14*%
%TO.N,/RH14*%
X226175950Y-126249999D03*
%TO.P,U1,103,EBIA23/RH15*%
%TO.N,/RH15*%
X226175950Y-125750000D03*
%TO.P,U1,104,RPD0/RTCC/INT0/RD0*%
%TO.N,/IC1*%
X226175950Y-125250001D03*
%TO.P,U1,105,SOSCI/RPC13/RC13*%
%TO.N,unconnected-(U1B-SOSCI{slash}RPC13{slash}RC13-Pad105)*%
X226175950Y-124749999D03*
%TO.P,U1,106,SOSCO/RPC14/T1CK/RC14*%
%TO.N,unconnected-(U1B-SOSCO{slash}RPC14{slash}T1CK{slash}RC14-Pad106)*%
X226175950Y-124250000D03*
%TO.P,U1,107,VDD*%
%TO.N,+3.3V*%
X226175950Y-123749999D03*
%TO.P,U1,108,VSS*%
%TO.N,GND*%
X226175950Y-123250000D03*
D37*
%TO.P,U1,109,RPD1/SCK1/RD1*%
%TO.N,/SCK1*%
X224150000Y-121224050D03*
%TO.P,U1,110,EBID14/RPD2/PMD14/RD2*%
%TO.N,/SDI1*%
X223650001Y-121224050D03*
%TO.P,U1,111,EBID15/RPD3/PMD15/RD3*%
%TO.N,/SDO1*%
X223150000Y-121224050D03*
%TO.P,U1,112,EBID12/RPD12/PMD12/RD12*%
%TO.N,/IMU_INT1*%
X222650001Y-121224050D03*
%TO.P,U1,113,EBID13/PMD13/RD13*%
%TO.N,/IMU_INT2*%
X222149999Y-121224050D03*
%TO.P,U1,114,ETXERR/RJ0*%
%TO.N,unconnected-(U1B-ETXERR{slash}RJ0-Pad114)*%
X221650000Y-121224050D03*
%TO.P,U1,115,EMDIO/RJ1*%
%TO.N,unconnected-(U1B-EMDIO{slash}RJ1-Pad115)*%
X221150001Y-121224050D03*
%TO.P,U1,116,EBIRDY3/RJ2*%
%TO.N,unconnected-(U1B-EBIRDY3{slash}RJ2-Pad116)*%
X220650000Y-121224050D03*
%TO.P,U1,117,EBIA22/RJ3*%
%TO.N,/Dir2*%
X220150001Y-121224050D03*
%TO.P,U1,118,SQICS0/RPD4/RD4*%
%TO.N,/SS1\u002A*%
X219649999Y-121224050D03*
%TO.P,U1,119,SQICS1/RPD5/RD5*%
%TO.N,/OC2*%
X219150000Y-121224050D03*
%TO.P,U1,120,ETXEN/RPD6/RD6*%
%TO.N,/U3TX*%
X218650001Y-121224050D03*
%TO.P,U1,121,ETXCLK/RPD7/RD7*%
%TO.N,/U3RX*%
X218150000Y-121224050D03*
%TO.P,U1,122,VDD*%
%TO.N,+3.3V*%
X217650001Y-121224050D03*
%TO.P,U1,123,VSS*%
%TO.N,GND*%
X217149999Y-121224050D03*
%TO.P,U1,124,EBID11/RPF0/PMD11/RF0*%
%TO.N,unconnected-(U1B-EBID11{slash}RPF0{slash}PMD11{slash}RF0-Pad124)*%
X216650000Y-121224050D03*
%TO.P,U1,125,EBID10/RPF1/PMD10/RF1*%
%TO.N,unconnected-(U1B-EBID10{slash}RPF1{slash}PMD10{slash}RF1-Pad125)*%
X216150001Y-121224050D03*
%TO.P,U1,126,EBIA21/RK7*%
%TO.N,unconnected-(U1B-EBIA21{slash}RK7-Pad126)*%
X215650000Y-121224050D03*
%TO.P,U1,127,EBID9/RPG1/PMD9/RG1*%
%TO.N,/SDI5*%
X215150000Y-121224050D03*
%TO.P,U1,128,EBID8/RPG0/PMD8/RG0*%
%TO.N,/SDO5*%
X214649999Y-121224050D03*
%TO.P,U1,129,TRCLK/SQICLK/RA6*%
%TO.N,unconnected-(U1B-TRCLK{slash}SQICLK{slash}RA6-Pad129)*%
X214150000Y-121224050D03*
%TO.P,U1,130,TRD3/SQID3/RA7*%
%TO.N,unconnected-(U1B-TRD3{slash}SQID3{slash}RA7-Pad130)*%
X213650001Y-121224050D03*
%TO.P,U1,131,EBICS0/RJ4*%
%TO.N,/Status_Yellow*%
X213149999Y-121224050D03*
%TO.P,U1,132,EBICS1/RJ5*%
%TO.N,/Status_Green*%
X212650000Y-121224050D03*
%TO.P,U1,133,EBICS2/RJ6*%
%TO.N,unconnected-(U1B-EBICS2{slash}RJ6-Pad133)*%
X212149999Y-121224050D03*
%TO.P,U1,134,EBICS3/RJ7*%
%TO.N,unconnected-(U1B-EBICS3{slash}RJ7-Pad134)*%
X211650000Y-121224050D03*
%TO.P,U1,135,EBID0/PMD0/RE0*%
%TO.N,unconnected-(U1B-EBID0{slash}PMD0{slash}RE0-Pad135)*%
X211150001Y-121224050D03*
%TO.P,U1,136,VSS*%
%TO.N,GND*%
X210649999Y-121224050D03*
%TO.P,U1,137,VDD*%
%TO.N,+3.3V*%
X210150000Y-121224050D03*
%TO.P,U1,138,EBID1/PMD1/RE1*%
%TO.N,/RE1*%
X209649999Y-121224050D03*
%TO.P,U1,139,TRD2/SQID2/RG14*%
%TO.N,/RG14*%
X209150000Y-121224050D03*
%TO.P,U1,140,TRD1/SQID1/RG12*%
%TO.N,/RG12*%
X208650001Y-121224050D03*
%TO.P,U1,141,TRD0/SQID0/RG13*%
%TO.N,/GPS_INT*%
X208149999Y-121224050D03*
%TO.P,U1,142,EBID2/PMD2/RE2*%
%TO.N,/GPS_Reset*%
X207650000Y-121224050D03*
%TO.P,U1,143,EBID3/RPE3/PMD3/RE3*%
%TO.N,/U2RX*%
X207149999Y-121224050D03*
%TO.P,U1,144,EBID4/AN18/PMD4/RE4*%
%TO.N,/RE4*%
X206650000Y-121224050D03*
%TD*%
D16*
%TO.P,R31,1*%
%TO.N,+3.3V*%
X241800000Y-140300000D03*
%TO.P,R31,2*%
%TO.N,Net-(U13-I1)*%
X243800000Y-140300000D03*
%TD*%
D24*
%TO.P,R17,1*%
%TO.N,/Fault1*%
X184800000Y-119400000D03*
%TO.P,R17,2*%
%TO.N,Net-(U10-V3P3OUT)*%
X184800000Y-121400000D03*
%TD*%
D23*
%TO.P,U5,1,S1*%
%TO.N,GND*%
X211100000Y-157800000D03*
%TO.P,U5,2,G1*%
%TO.N,/LED1*%
X211100000Y-157150000D03*
%TO.P,U5,3,D2*%
%TO.N,Net-(D2-K)*%
X211100000Y-156500000D03*
%TO.P,U5,4,S2*%
%TO.N,GND*%
X209200000Y-156500000D03*
%TO.P,U5,5,G2*%
%TO.N,/LED2*%
X209200000Y-157150000D03*
%TO.P,U5,6,D1*%
%TO.N,Net-(D3-K)*%
X209200000Y-157800000D03*
%TD*%
D38*
%TO.P,C33,1*%
%TO.N,Vdrive*%
X249400000Y-124800000D03*
%TO.P,C33,2*%
%TO.N,GND*%
X249400000Y-117891200D03*
%TD*%
D25*
%TO.P,R37,1*%
%TO.N,/Bump1*%
X196500000Y-105000000D03*
%TO.P,R37,2*%
%TO.N,GND*%
X194500000Y-105000000D03*
%TD*%
D39*
%TO.P,U2,1,VIN*%
%TO.N,+5V*%
X205624200Y-95800000D03*
%TO.P,U2,2,GND*%
%TO.N,GND*%
X205624200Y-98100000D03*
%TO.P,U2,3,VOUT*%
%TO.N,+3.3V*%
X205624200Y-100400000D03*
D40*
%TO.P,U2,4,GND*%
%TO.N,GND*%
X211775800Y-98100000D03*
%TD*%
D41*
%TO.P,U15,1,\u002AS*%
%TO.N,/SS5\u002A*%
X217025750Y-154005000D03*
%TO.P,U15,2,Q*%
%TO.N,/SDI5*%
X217025750Y-152735000D03*
%TO.P,U15,3,\u002AW*%
%TO.N,/Write Protect\u002A*%
X217025750Y-151465000D03*
%TO.P,U15,4,VSS*%
%TO.N,GND*%
X217025750Y-150195000D03*
%TO.P,U15,5,D*%
%TO.N,/SDO5*%
X211374250Y-150195000D03*
%TO.P,U15,6,C*%
%TO.N,/SCK5*%
X211374250Y-151465000D03*
%TO.P,U15,7,\u002AHOLD*%
%TO.N,/Hold\u002A*%
X211374250Y-152735000D03*
%TO.P,U15,8,VCC*%
%TO.N,+3.3V*%
X211374250Y-154005000D03*
%TD*%
D42*
%TO.P,J9,1,VBUS*%
%TO.N,unconnected-(J9-VBUS-Pad1)*%
X261225000Y-95700000D03*
%TO.P,J9,2,D-*%
%TO.N,Net-(J9-D-)*%
X261225000Y-95050000D03*
%TO.P,J9,3,D+*%
%TO.N,Net-(J9-D+)*%
X261225000Y-94400000D03*
%TO.P,J9,4,ID*%
%TO.N,unconnected-(J9-ID-Pad4)*%
X261225000Y-93750000D03*
%TO.P,J9,5,GND*%
%TO.N,GND*%
X261225000Y-93100000D03*
D43*
%TO.P,J9,S1*%
%TO.N,N/C*%
X261450000Y-97600000D03*
%TO.P,J9,S2*%
X261450000Y-91200000D03*
D44*
%TO.P,J9,S3*%
X263900000Y-93200000D03*
%TO.P,J9,S4*%
X263900000Y-95600000D03*
D45*
%TO.P,J9,S5*%
X263900000Y-97700000D03*
%TO.P,J9,S6*%
X263900000Y-91100000D03*
%TD*%
D14*
%TO.P,C4,1*%
%TO.N,GND*%
X201137500Y-131650000D03*
%TO.P,C4,2*%
%TO.N,+3.3V*%
X199062500Y-131650000D03*
%TD*%
D13*
%TO.P,R39,1*%
%TO.N,/Bump3*%
X188650000Y-93950000D03*
%TO.P,R39,2*%
%TO.N,GND*%
X188650000Y-91950000D03*
%TD*%
%TO.P,R13,1*%
%TO.N,/Switch3*%
X249840128Y-166975000D03*
%TO.P,R13,2*%
%TO.N,GND*%
X249840128Y-164975000D03*
%TD*%
%TO.P,R38,1*%
%TO.N,/Bump2*%
X190900000Y-93950000D03*
%TO.P,R38,2*%
%TO.N,GND*%
X190900000Y-91950000D03*
%TD*%
D15*
%TO.P,C22,1*%
%TO.N,Vdrive*%
X172400000Y-110437500D03*
%TO.P,C22,2*%
%TO.N,Net-(U10-VCP)*%
X172400000Y-108362500D03*
%TD*%
D10*
%TO.P,D4,1,K*%
%TO.N,Net-(D4-K)*%
X218900000Y-165400000D03*
%TO.P,D4,2,A*%
%TO.N,Net-(D4-A)*%
X218900000Y-163350000D03*
%TD*%
D11*
%TO.P,SW10,1,A*%
%TO.N,+3.3V*%
X177510000Y-100300000D03*
%TO.P,SW10,2,B*%
%TO.N,/Bump4*%
X180050000Y-100300000D03*
%TD*%
%TO.P,SW4,1,1*%
%TO.N,+3.3V*%
X239490128Y-164375000D03*
%TO.P,SW4,2,2*%
%TO.N,/Switch2*%
X236950128Y-164375000D03*
%TD*%
%TO.P,SW5,1,1*%
%TO.N,+3.3V*%
X247230128Y-164375000D03*
%TO.P,SW5,2,2*%
%TO.N,/Switch3*%
X244690128Y-164375000D03*
%TD*%
D21*
%TO.P,J25,1,Pin_1*%
%TO.N,/RE4*%
X201250000Y-116275000D03*
D22*
%TO.P,J25,2,Pin_2*%
%TO.N,/RE1*%
X203790000Y-116275000D03*
%TO.P,J25,3,Pin_3*%
%TO.N,/RG12*%
X201250000Y-118815000D03*
%TO.P,J25,4,Pin_4*%
%TO.N,/RG14*%
X203790000Y-118815000D03*
%TD*%
D13*
%TO.P,R14,1*%
%TO.N,/Switch1*%
X234310128Y-166851200D03*
%TO.P,R14,2*%
%TO.N,GND*%
X234310128Y-164851200D03*
%TD*%
D12*
%TO.P,C20,1*%
%TO.N,Net-(U10-V3P3OUT)*%
X182600000Y-119362500D03*
%TO.P,C20,2*%
%TO.N,GND*%
X182600000Y-121437500D03*
%TD*%
D46*
%TO.P,SW1,1*%
%TO.N,GND*%
X192300001Y-127099998D03*
%TO.P,SW1,2*%
%TO.N,N/C*%
X192300001Y-133600000D03*
%TO.P,SW1,3*%
X187800000Y-127099998D03*
%TO.P,SW1,4*%
%TO.N,Net-(C1-Pad1)*%
X187800000Y-133600000D03*
%TD*%
D21*
%TO.P,J26,1,Pin_1*%
%TO.N,+3.3V*%
X222460000Y-110400000D03*
D22*
%TO.P,J26,2,Pin_2*%
%TO.N,GND*%
X225000000Y-110400000D03*
%TO.P,J26,3,Pin_3*%
%TO.N,/IMU_INT2*%
X222460000Y-112940000D03*
%TO.P,J26,4,Pin_4*%
%TO.N,/SCK1*%
X225000000Y-112940000D03*
%TO.P,J26,5,Pin_5*%
%TO.N,/IMU_INT1*%
X222460000Y-115480000D03*
%TO.P,J26,6,Pin_6*%
%TO.N,/SS1\u002A*%
X225000000Y-115480000D03*
%TO.P,J26,7,Pin_7*%
%TO.N,/SDO1*%
X222460000Y-118020000D03*
%TO.P,J26,8,Pin_8*%
%TO.N,/SDI1*%
X225000000Y-118020000D03*
%TD*%
D13*
%TO.P,R3,1*%
%TO.N,+3.3V*%
X207800000Y-88300000D03*
%TO.P,R3,2*%
%TO.N,Net-(D1-A)*%
X207800000Y-86300000D03*
%TD*%
D15*
%TO.P,C24,1*%
%TO.N,Vdrive*%
X186900000Y-124937500D03*
%TO.P,C24,2*%
%TO.N,GND*%
X186900000Y-122862500D03*
%TD*%
D25*
%TO.P,R20,1*%
%TO.N,+3.3V*%
X188850000Y-113550000D03*
%TO.P,R20,2*%
%TO.N,Net-(U10-I0)*%
X186850000Y-113550000D03*
%TD*%
D14*
%TO.P,C5,1*%
%TO.N,+3.3V*%
X229137500Y-121400000D03*
%TO.P,C5,2*%
%TO.N,GND*%
X227062500Y-121400000D03*
%TD*%
D13*
%TO.P,R27,1*%
%TO.N,/Fault2*%
X244200000Y-132600000D03*
%TO.P,R27,2*%
%TO.N,Net-(U13-V3P3OUT)*%
X244200000Y-130600000D03*
%TD*%
D23*
%TO.P,U8,1,S1*%
%TO.N,Net-(U8-S1)*%
X214450000Y-107650000D03*
%TO.P,U8,2,G1*%
%TO.N,/Status_Green*%
X214450000Y-108300000D03*
%TO.P,U8,3,D2*%
%TO.N,+3.3V*%
X214450000Y-108950000D03*
%TO.P,U8,4,S2*%
%TO.N,Net-(U8-S2)*%
X216350000Y-108950000D03*
%TO.P,U8,5,G2*%
%TO.N,/Status_Yellow*%
X216350000Y-108300000D03*
%TO.P,U8,6,D1*%
%TO.N,+3.3V*%
X216350000Y-107650000D03*
%TD*%
D47*
%TO.P,SW3,1,1*%
%TO.N,+5V*%
X219500000Y-103087200D03*
%TO.P,SW3,2,2*%
%TO.N,Net-(J4-VBUS)*%
X219500000Y-99124800D03*
%TO.P,SW3,3,3*%
%TO.N,Vdrive*%
X219500000Y-95162400D03*
%TO.P,SW3,4,4*%
%TO.N,Net-(F1-Pad1)*%
X219500000Y-91200000D03*
%TD*%
D13*
%TO.P,R18,1*%
%TO.N,Net-(U10-V3P3OUT)*%
X179400000Y-121300000D03*
%TO.P,R18,2*%
%TO.N,Net-(R18-Pad2)*%
X179400000Y-119300000D03*
%TD*%
D10*
%TO.P,D6,1,K*%
%TO.N,Net-(D6-K)*%
X225800000Y-165400000D03*
%TO.P,D6,2,A*%
%TO.N,Net-(D6-A)*%
X225800000Y-163350000D03*
%TD*%
D48*
%TO.P,C1,1*%
%TO.N,Net-(C1-Pad1)*%
X194462500Y-128200000D03*
%TO.P,C1,2*%
%TO.N,GND*%
X196537500Y-128200000D03*
%TD*%
D49*
%TO.P,C15,1*%
%TO.N,+5V*%
X204305113Y-91700000D03*
D50*
%TO.P,C15,2*%
%TO.N,GND*%
X201805113Y-91700000D03*
%TD*%
D48*
%TO.P,C14,1*%
%TO.N,Net-(J2-Pin_1)*%
X182962500Y-91000000D03*
%TO.P,C14,2*%
%TO.N,GND*%
X185037500Y-91000000D03*
%TD*%
D10*
%TO.P,D7,1,K*%
%TO.N,Net-(D7-K)*%
X222300000Y-165400000D03*
%TO.P,D7,2,A*%
%TO.N,Net-(D7-A)*%
X222300000Y-163350000D03*
%TD*%
D24*
%TO.P,R4,1*%
%TO.N,+3.3V*%
X211900000Y-159500000D03*
%TO.P,R4,2*%
%TO.N,Net-(D2-A)*%
X211900000Y-161500000D03*
%TD*%
D16*
%TO.P,R11,1*%
%TO.N,Net-(D8-A2)*%
X206410000Y-110876200D03*
%TO.P,R11,2*%
%TO.N,Net-(U8-S2)*%
X208410000Y-110876200D03*
%TD*%
D15*
%TO.P,C30,1*%
%TO.N,Net-(U13-VCP)*%
X258231250Y-142837500D03*
%TO.P,C30,2*%
%TO.N,Vdrive*%
X258231250Y-140762500D03*
%TD*%
D13*
%TO.P,R2,1*%
%TO.N,Net-(J1-Pin_1)*%
X196500000Y-132200000D03*
%TO.P,R2,2*%
%TO.N,Net-(C1-Pad1)*%
X196500000Y-130200000D03*
%TD*%
D51*
%TO.P,J4,1,VBUS*%
%TO.N,Net-(J4-VBUS)*%
X220400000Y-86475000D03*
%TO.P,J4,2,D-*%
%TO.N,unconnected-(J4-D--Pad2)*%
X219750000Y-86475000D03*
%TO.P,J4,3,D+*%
%TO.N,unconnected-(J4-D+-Pad3)*%
X219100000Y-86475000D03*
%TO.P,J4,4,ID*%
%TO.N,unconnected-(J4-ID-Pad4)*%
X218450000Y-86475000D03*
%TO.P,J4,5,GND*%
%TO.N,GND*%
X217800000Y-86475000D03*
D52*
%TO.P,J4,S1*%
%TO.N,N/C*%
X222300000Y-86250000D03*
%TO.P,J4,S2*%
X215900000Y-86250000D03*
D44*
%TO.P,J4,S3*%
X217900000Y-83800000D03*
%TO.P,J4,S4*%
X220300000Y-83800000D03*
D53*
%TO.P,J4,S5*%
X222400000Y-83800000D03*
%TO.P,J4,S6*%
X215800000Y-83800000D03*
%TD*%
D39*
%TO.P,U3,1,VIN*%
%TO.N,+5V*%
X180575800Y-94628500D03*
%TO.P,U3,2,GND*%
%TO.N,GND*%
X180575800Y-92328500D03*
%TO.P,U3,3,VOUT*%
%TO.N,Net-(J2-Pin_1)*%
X180575800Y-90028500D03*
D40*
%TO.P,U3,4,GND*%
%TO.N,GND*%
X174424200Y-92328500D03*
%TD*%
D48*
%TO.P,C12,1*%
%TO.N,+5V*%
X183062500Y-94400000D03*
%TO.P,C12,2*%
%TO.N,GND*%
X185137500Y-94400000D03*
%TD*%
D54*
%TO.P,F1,1*%
%TO.N,Net-(F1-Pad1)*%
X228350000Y-109400000D03*
%TO.P,F1,2*%
%TO.N,Net-(J5-Pin_1)*%
X250850000Y-109400000D03*
%TD*%
D16*
%TO.P,R34,1*%
%TO.N,+3.3V*%
X241800000Y-146400000D03*
%TO.P,R34,2*%
%TO.N,Net-(U13-I4)*%
X243800000Y-146400000D03*
%TD*%
D24*
%TO.P,R8,1*%
%TO.N,+3.3V*%
X225800000Y-159500000D03*
%TO.P,R8,2*%
%TO.N,Net-(D6-A)*%
X225800000Y-161500000D03*
%TD*%
D19*
%TO.P,J13,1,Pin_1*%
%TO.N,+3.3V*%
X230973800Y-159140000D03*
%TO.P,J13,2,Pin_2*%
%TO.N,GND*%
X230973800Y-156600000D03*
%TO.P,J13,3,Pin_3*%
%TO.N,/Refl1*%
X230973800Y-154060000D03*
%TD*%
D11*
%TO.P,SW9,1,A*%
%TO.N,+3.3V*%
X183310000Y-100300000D03*
%TO.P,SW9,2,B*%
%TO.N,/Bump3*%
X185850000Y-100300000D03*
%TD*%
D15*
%TO.P,C35,1*%
%TO.N,GND*%
X247800000Y-155837500D03*
%TO.P,C35,2*%
%TO.N,+3.3V*%
X247800000Y-153762500D03*
%TD*%
D14*
%TO.P,C19,1*%
%TO.N,+3.3V*%
X261137500Y-109400000D03*
%TO.P,C19,2*%
%TO.N,GND*%
X259062500Y-109400000D03*
%TD*%
D47*
%TO.P,J6,1,Pin_1*%
%TO.N,Net-(J5-Pin_2)*%
X235500000Y-101000000D03*
%TO.P,J6,2,Pin_2*%
%TO.N,GND*%
X229150000Y-91500001D03*
%TD*%
D11*
%TO.P,SW7,1,A*%
%TO.N,+3.3V*%
X195000000Y-100300000D03*
%TO.P,SW7,2,B*%
%TO.N,/Bump1*%
X197540000Y-100300000D03*
%TD*%
D15*
%TO.P,C27,1*%
%TO.N,+3.3V*%
X174150000Y-130707500D03*
%TO.P,C27,2*%
%TO.N,GND*%
X174150000Y-128632500D03*
%TD*%
D16*
%TO.P,R15,1*%
%TO.N,+3.3V*%
X255400000Y-91400000D03*
%TO.P,R15,2*%
%TO.N,Net-(D9-A)*%
X257400000Y-91400000D03*
%TD*%
D14*
%TO.P,C21,1*%
%TO.N,Net-(U10-CP1)*%
X178675000Y-106300000D03*
%TO.P,C21,2*%
%TO.N,Net-(U10-CP2)*%
X176600000Y-106300000D03*
%TD*%
D25*
%TO.P,R10,1*%
%TO.N,Net-(D8-A1)*%
X212210000Y-110876200D03*
%TO.P,R10,2*%
%TO.N,Net-(U8-S1)*%
X210210000Y-110876200D03*
%TD*%
D10*
%TO.P,D9,1,K*%
%TO.N,Net-(D9-K)*%
X264400000Y-103025000D03*
%TO.P,D9,2,A*%
%TO.N,Net-(D9-A)*%
X264400000Y-100975000D03*
%TD*%
D25*
%TO.P,R23,1*%
%TO.N,+3.3V*%
X188850000Y-107550000D03*
%TO.P,R23,2*%
%TO.N,Net-(U10-I3)*%
X186850000Y-107550000D03*
%TD*%
D19*
%TO.P,J24,1,Pin_1*%
%TO.N,/U2TX*%
X169100000Y-104000000D03*
%TO.P,J24,2,Pin_2*%
%TO.N,/U2RX*%
X169100000Y-101460000D03*
%TO.P,J24,3,Pin_3*%
%TO.N,/GPS_Reset*%
X169100000Y-98920000D03*
%TO.P,J24,4,Pin_4*%
%TO.N,/GPS_INT*%
X169100000Y-96380000D03*
%TD*%
D14*
%TO.P,C2,1*%
%TO.N,+3.3V*%
X232087500Y-132250000D03*
%TO.P,C2,2*%
%TO.N,GND*%
X230012500Y-132250000D03*
%TD*%
D25*
%TO.P,R24,1*%
%TO.N,+3.3V*%
X188850000Y-105550000D03*
%TO.P,R24,2*%
%TO.N,Net-(U10-I4)*%
X186850000Y-105550000D03*
%TD*%
D24*
%TO.P,R9,1*%
%TO.N,+3.3V*%
X222300000Y-159500000D03*
%TO.P,R9,2*%
%TO.N,Net-(D7-A)*%
X222300000Y-161500000D03*
%TD*%
D25*
%TO.P,R21,1*%
%TO.N,+3.3V*%
X188850000Y-111550000D03*
%TO.P,R21,2*%
%TO.N,Net-(U10-I1)*%
X186850000Y-111550000D03*
%TD*%
D24*
%TO.P,R19,1*%
%TO.N,Net-(R18-Pad2)*%
X177200000Y-119300000D03*
%TO.P,R19,2*%
%TO.N,GND*%
X177200000Y-121300000D03*
%TD*%
D21*
%TO.P,J7,1,Pin_1*%
%TO.N,/RA9*%
X190250000Y-155740000D03*
D22*
%TO.P,J7,2,Pin_2*%
%TO.N,/RA10*%
X192790000Y-155740000D03*
%TO.P,J7,3,Pin_3*%
%TO.N,/RH0*%
X190250000Y-158280000D03*
%TO.P,J7,4,Pin_4*%
%TO.N,/RH1*%
X192790000Y-158280000D03*
%TO.P,J7,5,Pin_5*%
%TO.N,/RH2*%
X190250000Y-160820000D03*
%TO.P,J7,6,Pin_6*%
%TO.N,/RH3*%
X192790000Y-160820000D03*
%TO.P,J7,7,Pin_7*%
%TO.N,/RB8*%
X190250000Y-163360000D03*
%TO.P,J7,8,Pin_8*%
%TO.N,/RK1*%
X192790000Y-163360000D03*
%TO.P,J7,9,Pin_9*%
%TO.N,/RK2*%
X190250000Y-165900000D03*
%TO.P,J7,10,Pin_10*%
%TO.N,/RK3*%
X192790000Y-165900000D03*
%TD*%
D38*
%TO.P,C25,1*%
%TO.N,Vdrive*%
X181000000Y-127240900D03*
%TO.P,C25,2*%
%TO.N,GND*%
X181000000Y-134149700D03*
%TD*%
D55*
%TO.P,J17,9,CARD_DETECT*%
%TO.N,unconnected-(J17-CARD_DETECT-Pad9)*%
X249878399Y-157350000D03*
%TO.P,J17,10,CARD_DETECT*%
%TO.N,unconnected-(J17-CARD_DETECT-Pad10)*%
X249878399Y-151649999D03*
D56*
%TO.P,J17,11,GROUND*%
%TO.N,GND*%
X263028401Y-158950000D03*
%TO.P,J17,12,GROUND*%
X264028401Y-145799998D03*
D57*
%TO.P,J17,P1,DAT2*%
%TO.N,unconnected-(J17-DAT2-PadP1)*%
X260428401Y-150459999D03*
%TO.P,J17,P2,CD/DAT3*%
%TO.N,/SS6\u002A*%
X260028402Y-151560073D03*
%TO.P,J17,P3,CMD*%
%TO.N,/SDO6*%
X260428401Y-152659999D03*
%TO.P,J17,P4,VDD*%
%TO.N,+3.3V*%
X260628401Y-153760000D03*
%TO.P,J17,P5,CLK*%
%TO.N,/SCK6*%
X260428401Y-154860000D03*
%TO.P,J17,P6,VSS*%
%TO.N,GND*%
X260628401Y-155960000D03*
%TO.P,J17,P7,DAT0*%
%TO.N,/SDI6*%
X260428401Y-157060001D03*
%TO.P,J17,P8,DAT1*%
%TO.N,unconnected-(J17-DAT1-PadP8)*%
X260428401Y-158160001D03*
%TD*%
D14*
%TO.P,C11,1*%
%TO.N,+5V*%
X203437500Y-95800000D03*
%TO.P,C11,2*%
%TO.N,GND*%
X201362500Y-95800000D03*
%TD*%
D21*
%TO.P,J16,1,Pin_1*%
%TO.N,/RE7*%
X191210000Y-117510000D03*
D22*
%TO.P,J16,2,Pin_2*%
%TO.N,/RJ8*%
X193750000Y-117510000D03*
%TO.P,J16,3,Pin_3*%
%TO.N,/RJ13*%
X191210000Y-120050000D03*
%TO.P,J16,4,Pin_4*%
%TO.N,/RJ14*%
X193750000Y-120050000D03*
%TO.P,J16,5,Pin_5*%
%TO.N,/RJ15*%
X191210000Y-122590000D03*
%TO.P,J16,6,Pin_6*%
%TO.N,GND*%
X193750000Y-122590000D03*
%TD*%
D15*
%TO.P,C26,1*%
%TO.N,Net-(U13-V3P3OUT)*%
X246300000Y-132600000D03*
%TO.P,C26,2*%
%TO.N,GND*%
X246300000Y-130525000D03*
%TD*%
D47*
%TO.P,J5,1,Pin_1*%
%TO.N,Net-(J5-Pin_1)*%
X250100000Y-100999999D03*
%TO.P,J5,2,Pin_2*%
%TO.N,Net-(J5-Pin_2)*%
X243750000Y-91500000D03*
%TD*%
D21*
%TO.P,J22,1,Pin_1*%
%TO.N,/U3TX*%
X198050000Y-90650000D03*
D22*
%TO.P,J22,2,Pin_2*%
%TO.N,GND*%
X198050000Y-93190000D03*
%TO.P,J22,3,Pin_3*%
%TO.N,/U3RX*%
X195510000Y-90650000D03*
%TO.P,J22,4,Pin_4*%
%TO.N,GND*%
X195510000Y-93190000D03*
%TD*%
D58*
%TO.N,GND*%
X247500000Y-116000000D03*
X183050000Y-136400000D03*
X208200000Y-156500000D03*
X202310556Y-131798056D03*
X216925501Y-119600000D03*
X259900000Y-93150000D03*
X215100000Y-156500000D03*
X176100000Y-117650000D03*
X215258526Y-144491472D03*
X220400333Y-145999667D03*
X212100000Y-100500000D03*
X213900000Y-97900000D03*
X197859787Y-128309787D03*
X187000000Y-121600000D03*
X247800000Y-157000000D03*
X225994063Y-157486643D03*
X222100000Y-156500000D03*
X217700000Y-149250000D03*
X253500000Y-129300000D03*
X192950000Y-104750000D03*
X257050000Y-143825500D03*
X251400000Y-115600000D03*
X247700000Y-130600000D03*
X180400000Y-104900000D03*
X244500000Y-127300000D03*
X186400000Y-94400000D03*
X181034787Y-137084787D03*
X172600000Y-92400000D03*
X249790128Y-163575000D03*
X166525000Y-112500000D03*
X189575000Y-90550000D03*
X174750000Y-107150000D03*
X218100000Y-87900000D03*
X191950000Y-90800000D03*
X246300000Y-144900000D03*
X263950000Y-144450000D03*
X201562500Y-139850000D03*
X241990128Y-163525000D03*
X217000000Y-88000000D03*
X263050000Y-160500000D03*
X253400000Y-134000000D03*
X183750000Y-107450000D03*
X204100000Y-97500000D03*
X178050000Y-122450000D03*
X206600000Y-83475000D03*
X174400000Y-90100000D03*
X181600000Y-122450000D03*
X207500000Y-151950000D03*
X174400000Y-94600000D03*
X257800000Y-109400000D03*
X186300000Y-91000000D03*
X219000000Y-157800000D03*
X211300000Y-119700000D03*
X178900000Y-136250000D03*
X264700000Y-139425000D03*
X182300000Y-92600000D03*
X228776944Y-132276944D03*
X253600000Y-107530000D03*
X200100000Y-95800000D03*
X200100000Y-100100000D03*
X212100000Y-95700000D03*
X228050000Y-140000000D03*
X208426944Y-145326944D03*
X212100000Y-157800000D03*
X234340128Y-163475000D03*
X227336051Y-122636051D03*
%TO.N,+3.3V*%
X194500000Y-133300000D03*
X245600000Y-135400000D03*
X216600000Y-115400000D03*
X213200000Y-159500000D03*
X240600000Y-146400000D03*
X240600000Y-142300000D03*
X240600000Y-144300000D03*
X190100000Y-111550000D03*
X214900000Y-158300000D03*
X240600000Y-138300000D03*
X207800000Y-89500000D03*
X190050000Y-107500000D03*
X230300000Y-121400000D03*
X203500000Y-98500000D03*
X190100000Y-113550000D03*
X205950000Y-148000000D03*
X205800000Y-101800000D03*
X208000000Y-158300000D03*
X185300000Y-116100000D03*
X240600000Y-140300000D03*
X214800356Y-148700351D03*
X190050000Y-109550000D03*
X255400000Y-95000000D03*
X220300000Y-159400000D03*
X190100000Y-105500000D03*
X197200000Y-140213420D03*
X254000000Y-103400000D03*
X203600000Y-101800000D03*
X246200000Y-153800000D03*
X227100000Y-159500000D03*
X220700000Y-150450000D03*
X214350000Y-110050000D03*
X261050354Y-110650353D03*
X207750000Y-153162500D03*
X197900000Y-131650000D03*
X211500000Y-115300000D03*
X221800000Y-158400000D03*
X255400000Y-90000000D03*
X215485556Y-106664444D03*
X233300000Y-132250000D03*
%TO.N,Net-(J1-Pin_1)*%
X191650000Y-136275000D03*
%TO.N,Net-(J1-Pin_4)*%
X198700000Y-144309814D03*
%TO.N,Net-(J1-Pin_5)*%
X199875000Y-143525000D03*
%TO.N,/RB8*%
X205500000Y-150500000D03*
%TO.N,/Refl1*%
X214000000Y-149450000D03*
%TO.N,/Refl2*%
X198499503Y-142700000D03*
X200200000Y-137775000D03*
%TO.N,/Refl3*%
X197550000Y-142700000D03*
X199100000Y-137775000D03*
%TO.N,/SDA2*%
X232389694Y-140018292D03*
X231653888Y-135796112D03*
%TO.N,/SCL2*%
X229926944Y-135023056D03*
X232250000Y-138700000D03*
%TO.N,/RH0*%
X209401731Y-145306046D03*
%TO.N,/RH1*%
X209439127Y-146514762D03*
%TO.N,/RJ13*%
X202657370Y-136624500D03*
%TO.N,/RH2*%
X209200000Y-147550000D03*
%TO.N,/RJ14*%
X201821956Y-137075764D03*
%TO.N,/RH3*%
X210450000Y-147600000D03*
%TO.N,/RJ15*%
X201239950Y-137825980D03*
%TO.N,/U2TX*%
X189250000Y-125800000D03*
%TO.N,Net-(D9-K)*%
X262200000Y-105000000D03*
X263800000Y-104400000D03*
%TO.N,/U2RX*%
X203166055Y-113933945D03*
X200200000Y-104250000D03*
X201800000Y-106050000D03*
%TO.N,/U3TX*%
X205150000Y-111900000D03*
X218100000Y-115800000D03*
%TO.N,/U3RX*%
X218100000Y-116900000D03*
X204202910Y-111967649D03*
%TO.N,/RA9*%
X204430444Y-147480444D03*
%TO.N,/RA10*%
X203280444Y-148630444D03*
%TO.N,/U6TX*%
X201450000Y-134250000D03*
X201510340Y-128575500D03*
%TO.N,/Switch1*%
X228165980Y-136525500D03*
X229350000Y-139250000D03*
%TO.N,/RG12*%
X208209423Y-119227463D03*
%TO.N,/RG14*%
X208900000Y-118575000D03*
%TO.N,/SCK3*%
X218724501Y-145550000D03*
%TO.N,/SDO3*%
X212650000Y-148000000D03*
X204300000Y-156400000D03*
%TO.N,/SS3\u002A*%
X218850000Y-146600000D03*
%TO.N,/RE1*%
X208325000Y-116350000D03*
%TO.N,/SCK4*%
X231450000Y-128200000D03*
%TO.N,/SDO4*%
X229650000Y-129700000D03*
%TO.N,/Switch2*%
X230300000Y-139250000D03*
X229200000Y-136525500D03*
%TO.N,/Switch3*%
X230300000Y-136350000D03*
X231249503Y-139250000D03*
%TO.N,/SS4\u002A*%
X230596809Y-129043540D03*
%TO.N,/SDI4*%
X232457370Y-127307370D03*
%TO.N,/SDO5*%
X211359787Y-149459786D03*
X213924500Y-119400000D03*
%TO.N,/SDI5*%
X215050000Y-119400000D03*
X210051906Y-150710761D03*
%TO.N,/SCK6*%
X232850000Y-149250000D03*
X225975500Y-149396660D03*
%TO.N,/SDO6*%
X231750000Y-145050000D03*
X226701000Y-143800000D03*
%TO.N,/SS6\u002A*%
X224612476Y-148987524D03*
X232700000Y-150350000D03*
%TO.N,/SDI6*%
X227375500Y-144974500D03*
X231324500Y-146200000D03*
%TO.N,/SCK2*%
X196674032Y-134197201D03*
X200400000Y-129675500D03*
%TO.N,/SDI2*%
X197699266Y-133672527D03*
X199300000Y-130274500D03*
%TO.N,/SDO2*%
X202900000Y-130924501D03*
X196775868Y-135532616D03*
%TO.N,/IC2*%
X233850000Y-136925500D03*
%TO.N,/IC3*%
X195767244Y-133915616D03*
X200700000Y-125150000D03*
%TO.N,/IC1*%
X230299527Y-125075500D03*
%TO.N,/Bump1*%
X199200000Y-111850000D03*
X199200000Y-114075000D03*
%TO.N,/Bump2*%
X197950000Y-111950000D03*
X198000000Y-114125000D03*
%TO.N,/Bump3*%
X196900000Y-114100000D03*
X196875000Y-111900000D03*
%TO.N,/Bump4*%
X195750000Y-111950000D03*
X195700000Y-114150000D03*
%TO.N,/LED2*%
X211600000Y-155700000D03*
X220719870Y-152769870D03*
%TO.N,/GPS_INT*%
X207175000Y-113824500D03*
X201700000Y-102850000D03*
X203950000Y-106400000D03*
%TO.N,/GPS_Reset*%
X200650000Y-103400000D03*
X206175000Y-113875000D03*
X202800000Y-105950000D03*
%TO.N,/Status_Yellow*%
X214250000Y-113824500D03*
X214250000Y-112025500D03*
%TO.N,/Status_Green*%
X213250000Y-113824500D03*
X213200000Y-112025500D03*
%TO.N,Vdrive*%
X188450000Y-124100000D03*
X243100000Y-122500000D03*
%TO.N,Net-(D9-A)*%
X263000000Y-100300000D03*
X258700000Y-91600000D03*
%TO.N,Net-(D10-K)*%
X262200500Y-106400000D03*
X263600000Y-106400000D03*
%TO.N,Net-(D10-A)*%
X256900000Y-95000000D03*
X263800000Y-110700000D03*
%TO.N,/MotorCurrent1*%
X176125000Y-112100500D03*
X176175000Y-113725500D03*
X190673056Y-124973056D03*
%TO.N,/MotorCurrent2*%
X254773435Y-138174498D03*
X254800000Y-140100000D03*
X226324500Y-145300000D03*
%TO.N,/Dir2*%
X220339194Y-119414695D03*
X215459674Y-113413562D03*
%TO.N,/RJ8*%
X202460933Y-125864821D03*
%TD*%
D59*
%TO.N,GND*%
X227800000Y-139750000D02*
X228050000Y-140000000D01*
X234310128Y-164851200D02*
X234310128Y-163505000D01*
X174012500Y-128770000D02*
X173512500Y-128270000D01*
X253500000Y-130500000D02*
X253500000Y-129300000D01*
X206024200Y-98000000D02*
X204600000Y-98000000D01*
X244462500Y-127337500D02*
X243400000Y-127337500D01*
X217700000Y-149250000D02*
X217025750Y-149924250D01*
X177200000Y-121600000D02*
X178050000Y-122450000D01*
X216925501Y-119600000D02*
X216600000Y-119274499D01*
X211500000Y-118437500D02*
X211500000Y-119500000D01*
X249400000Y-117600000D02*
X251400000Y-115600000D01*
X189575000Y-90975000D02*
X189575000Y-90550000D01*
X200400000Y-139550000D02*
X201262500Y-139550000D01*
D60*
X179151654Y-136250000D02*
X178900000Y-136250000D01*
D59*
X212175800Y-98000000D02*
X212175800Y-100424200D01*
X249840128Y-164975000D02*
X249840128Y-163625000D01*
X203734315Y-131249999D02*
X204624050Y-131249999D01*
X211500000Y-119500000D02*
X211300000Y-119700000D01*
X217149999Y-119824498D02*
X217149999Y-121224050D01*
X174424200Y-92400000D02*
X174424200Y-90124200D01*
X201462500Y-95900000D02*
X200200000Y-95900000D01*
X174424200Y-94575800D02*
X174400000Y-94600000D01*
X194500000Y-105000000D02*
X193200000Y-105000000D01*
X263950000Y-144450000D02*
X263950000Y-145721597D01*
X227336051Y-122236051D02*
X227336051Y-122636051D01*
X226175950Y-123250000D02*
X226950000Y-123250000D01*
X190900000Y-91850000D02*
X191950000Y-90800000D01*
X261750000Y-123150000D02*
X257237500Y-123150000D01*
X247200000Y-144000000D02*
X247200000Y-143274997D01*
X183750000Y-107450000D02*
X183750002Y-107450002D01*
X174424200Y-90124200D02*
X174400000Y-90100000D01*
X216100000Y-156500000D02*
X215100000Y-156500000D01*
X174424200Y-92400000D02*
X172600000Y-92400000D01*
X211100000Y-157800000D02*
X212100000Y-157800000D01*
X228050000Y-140000000D02*
X227799999Y-140250001D01*
D60*
X181000000Y-134149700D02*
X181000000Y-137050000D01*
D59*
X228803888Y-132250000D02*
X230012500Y-132250000D01*
X197859787Y-128309787D02*
X196647287Y-128309787D01*
X217800000Y-86525000D02*
X217800000Y-87600000D01*
X220700000Y-145911132D02*
X219649999Y-144861131D01*
X202310556Y-131798056D02*
X203186258Y-131798056D01*
X208900000Y-151925000D02*
X207525000Y-151925000D01*
X185100000Y-91000000D02*
X186300000Y-91000000D01*
X246300000Y-144900000D02*
X247200000Y-144000000D01*
X217200000Y-87075000D02*
X217775000Y-86500000D01*
X204600000Y-98000000D02*
X204100000Y-97500000D01*
X203186258Y-131798056D02*
X203734315Y-131249999D01*
X242100128Y-164875000D02*
X242100128Y-163635000D01*
X215300000Y-144532946D02*
X215258526Y-144491472D01*
X249400000Y-117816022D02*
X247583978Y-116000000D01*
X207700000Y-146053888D02*
X207700000Y-146662500D01*
X201562500Y-139850000D02*
X201951409Y-139850000D01*
X177650001Y-117124999D02*
X176625001Y-117124999D01*
X202310556Y-131798056D02*
X202162500Y-131650000D01*
X218000000Y-157800000D02*
X219000000Y-157800000D01*
X182100000Y-92400000D02*
X182300000Y-92600000D01*
X225000000Y-157800000D02*
X225680706Y-157800000D01*
X212175800Y-95775800D02*
X212100000Y-95700000D01*
X182000000Y-104900000D02*
X180400000Y-104900000D01*
X212175800Y-98000000D02*
X213800000Y-98000000D01*
X181000000Y-137050000D02*
X181034787Y-137084787D01*
X216925501Y-119600000D02*
X217149999Y-119824498D01*
X255700000Y-107530000D02*
X253600000Y-107530000D01*
X202162500Y-131650000D02*
X201137500Y-131650000D01*
X228303887Y-132750001D02*
X226175950Y-132750001D01*
X256131250Y-142906750D02*
X257050000Y-143825500D01*
X210649999Y-120153302D02*
X211103301Y-119700000D01*
X209200000Y-156500000D02*
X208200000Y-156500000D01*
X186900000Y-122862500D02*
X186900000Y-121700000D01*
X211103301Y-119700000D02*
X211300000Y-119700000D01*
X203051410Y-138749999D02*
X204624050Y-138749999D01*
X201462500Y-100100000D02*
X200100000Y-100100000D01*
X173512500Y-128270000D02*
X169750000Y-128270000D01*
X227336051Y-122863949D02*
X227336051Y-122636051D01*
X227799999Y-140250001D02*
X226175950Y-140250001D01*
X217200000Y-87800000D02*
X217200000Y-87075000D01*
X210649999Y-121224050D02*
X210649999Y-120153302D01*
X174500000Y-107400000D02*
X174750000Y-107150000D01*
X263028401Y-158950000D02*
X263028401Y-160478401D01*
X188650000Y-91900000D02*
X189575000Y-90975000D01*
X246300000Y-130525000D02*
X247625000Y-130525000D01*
X182600000Y-121450000D02*
X181600000Y-122450000D01*
X185100000Y-94400000D02*
X186400000Y-94400000D01*
X226950000Y-123250000D02*
X227336051Y-122863949D01*
X207525000Y-151925000D02*
X207500000Y-151950000D01*
X215150000Y-144382946D02*
X215258526Y-144491472D01*
X217800000Y-87600000D02*
X218100000Y-87900000D01*
X217025750Y-149924250D02*
X217025750Y-150195000D01*
X247583978Y-116000000D02*
X247500000Y-116000000D01*
X244500000Y-127300000D02*
X244462500Y-127337500D01*
X200200000Y-95900000D02*
X200100000Y-95800000D01*
X227062500Y-121962500D02*
X227336051Y-122236051D01*
X176625001Y-117124999D02*
X176100000Y-117650000D01*
X249840128Y-163625000D02*
X249790128Y-163575000D01*
X193200000Y-105000000D02*
X192950000Y-104750000D01*
X225680706Y-157800000D02*
X225994063Y-157486643D01*
X186900000Y-121700000D02*
X187000000Y-121600000D01*
X208426944Y-145326944D02*
X209150000Y-144603888D01*
X259950000Y-93100000D02*
X259900000Y-93150000D01*
X220700000Y-147093750D02*
X220700000Y-145911132D01*
X234310128Y-163505000D02*
X234340128Y-163475000D01*
X215300000Y-145562500D02*
X215300000Y-144532946D01*
X247800000Y-155837500D02*
X247800000Y-157000000D01*
X219649999Y-144861131D02*
X219649999Y-142775950D01*
X212175800Y-100424200D02*
X212100000Y-100500000D01*
X216600000Y-119274499D02*
X216600000Y-118437500D01*
D60*
X181000000Y-134401654D02*
X182998346Y-136400000D01*
D59*
X261225301Y-155960000D02*
X263028401Y-157763100D01*
X263028401Y-157763100D02*
X263028401Y-158950000D01*
X213800000Y-98000000D02*
X213900000Y-97900000D01*
X259062500Y-109400000D02*
X257800000Y-109400000D01*
X183750002Y-107450002D02*
X183750002Y-108674999D01*
X223100000Y-156500000D02*
X222100000Y-156500000D01*
X212175800Y-98000000D02*
X212175800Y-95775800D01*
X174500000Y-108362500D02*
X174500000Y-107400000D01*
X228776944Y-132276944D02*
X228803888Y-132250000D01*
X253400000Y-134000000D02*
X253400000Y-134724998D01*
X180575800Y-92400000D02*
X182100000Y-92400000D01*
D60*
X182998346Y-136400000D02*
X183050000Y-136400000D01*
D59*
X261225000Y-93100000D02*
X259950000Y-93100000D01*
X209150000Y-144603888D02*
X209150000Y-142775950D01*
X215150000Y-142775950D02*
X215150000Y-144382946D01*
X174424200Y-92400000D02*
X174424200Y-94575800D01*
X207700000Y-146053888D02*
X208426944Y-145326944D01*
X263028401Y-160478401D02*
X263050000Y-160500000D01*
D60*
X181000000Y-134401654D02*
X179151654Y-136250000D01*
D59*
X201951409Y-139850000D02*
X203051410Y-138749999D01*
X206600000Y-83475000D02*
X205300000Y-83475000D01*
X217000000Y-88000000D02*
X217200000Y-87800000D01*
X242100128Y-163635000D02*
X241990128Y-163525000D01*
X226175950Y-139750000D02*
X227800000Y-139750000D01*
X247625000Y-130525000D02*
X247700000Y-130600000D01*
X228776944Y-132276944D02*
X228303887Y-132750001D01*
%TO.N,+3.3V*%
X211500000Y-115300000D02*
X211500000Y-116811827D01*
X210150000Y-118161827D02*
X210150000Y-121224050D01*
X197863420Y-139550000D02*
X197200000Y-140213420D01*
X241800000Y-146400000D02*
X240600000Y-146400000D01*
X203800000Y-131750000D02*
X202850000Y-132700000D01*
D60*
X203537500Y-98537500D02*
X203500000Y-98500000D01*
D59*
X216450001Y-146487499D02*
X215300000Y-147637500D01*
X206487500Y-148537500D02*
X207550000Y-148537500D01*
X241800000Y-140300000D02*
X240600000Y-140300000D01*
X241800000Y-138300000D02*
X240600000Y-138300000D01*
X227246701Y-123749999D02*
X229137500Y-121859200D01*
D60*
X203600000Y-100162500D02*
X203600000Y-101800000D01*
D59*
X198325000Y-139550000D02*
X199325000Y-140550000D01*
X215250000Y-147637500D02*
X215250000Y-148250707D01*
X246237500Y-153762500D02*
X246200000Y-153800000D01*
X203117094Y-139250001D02*
X204624050Y-139250001D01*
X214450000Y-108950000D02*
X214450000Y-109950000D01*
X194500000Y-132200000D02*
X194500000Y-133300000D01*
X204624050Y-131750000D02*
X203800000Y-131750000D01*
X215400000Y-158800000D02*
X214900000Y-158300000D01*
X208400000Y-158700000D02*
X208000000Y-158300000D01*
X208650001Y-144149999D02*
X208650001Y-142775950D01*
X229137500Y-121400000D02*
X230300000Y-121400000D01*
X221700000Y-146345446D02*
X221700000Y-148168750D01*
X188850000Y-105550000D02*
X190050000Y-105550000D01*
X184925002Y-116474998D02*
X185300000Y-116100000D01*
X218900000Y-159475000D02*
X220225000Y-159475000D01*
X215650000Y-142775950D02*
X215650000Y-143929057D01*
X183750002Y-115824999D02*
X185024999Y-115824999D01*
X261137500Y-109400000D02*
X261137500Y-107907500D01*
X220150001Y-142775950D02*
X220150001Y-144795447D01*
X217650001Y-117412501D02*
X217650001Y-121224050D01*
X190000000Y-107550000D02*
X190050000Y-107500000D01*
X233300000Y-132250000D02*
X232087500Y-132250000D01*
X261050354Y-110650353D02*
X261050354Y-109487146D01*
X247249998Y-135425000D02*
X245625000Y-135425000D01*
X188850000Y-111550000D02*
X190100000Y-111550000D01*
X226175950Y-123749999D02*
X227246701Y-123749999D01*
X207800000Y-89500000D02*
X207800000Y-88600000D01*
X232087500Y-132250000D02*
X231087500Y-133250000D01*
X255400000Y-93500000D02*
X255400000Y-95000000D01*
X231087500Y-133250000D02*
X226175950Y-133250000D01*
X247249998Y-136074999D02*
X246274999Y-136074999D01*
X222300000Y-158900000D02*
X221800000Y-158400000D01*
X211500000Y-116811827D02*
X210150000Y-118161827D01*
X220225000Y-159475000D02*
X220300000Y-159400000D01*
X215250000Y-148250707D02*
X214800356Y-148700351D01*
X215400000Y-159375000D02*
X215400000Y-158800000D01*
X215650000Y-143929057D02*
X216450001Y-144729058D01*
D60*
X206024200Y-100300000D02*
X203737500Y-100300000D01*
D59*
X202850000Y-132700000D02*
X200112500Y-132700000D01*
X246274999Y-136074999D02*
X245600000Y-135400000D01*
X260628401Y-153760000D02*
X247802500Y-153760000D01*
X199325000Y-140550000D02*
X201817095Y-140550000D01*
X216350000Y-107650000D02*
X216350000Y-107528888D01*
X216600000Y-115400000D02*
X216600000Y-116362500D01*
X205950000Y-148000000D02*
X205950000Y-146850000D01*
D60*
X203537500Y-100100000D02*
X203537500Y-98537500D01*
D59*
X222300000Y-159475000D02*
X222300000Y-158900000D01*
X205950000Y-148000000D02*
X206487500Y-148537500D01*
X261137500Y-107907500D02*
X260700000Y-107470000D01*
X255780000Y-103660000D02*
X254260000Y-103660000D01*
X241800000Y-142300000D02*
X240600000Y-142300000D01*
D60*
X206024200Y-101575800D02*
X205800000Y-101800000D01*
X206024200Y-100300000D02*
X206024200Y-101575800D01*
D59*
X188850000Y-107550000D02*
X190000000Y-107550000D01*
X174150000Y-130707500D02*
X169852500Y-130707500D01*
X205950000Y-146850000D02*
X208650001Y-144149999D01*
X257137500Y-120975000D02*
X261385000Y-120975000D01*
X207750000Y-153162500D02*
X208587500Y-154000000D01*
X220150001Y-144795447D02*
X221700000Y-146345446D01*
X214450000Y-109950000D02*
X214350000Y-110050000D01*
X185024999Y-115824999D02*
X185300000Y-116100000D01*
X241800000Y-144300000D02*
X240600000Y-144300000D01*
X211374250Y-154005000D02*
X208905000Y-154005000D01*
X247800000Y-153762500D02*
X246237500Y-153762500D01*
X200112500Y-132700000D02*
X199062500Y-131650000D01*
X216350000Y-107528888D02*
X215485556Y-106664444D01*
X220700000Y-150450000D02*
X220700000Y-149168750D01*
X190050000Y-105550000D02*
X190100000Y-105500000D01*
X188850000Y-109550000D02*
X190050000Y-109550000D01*
X208400000Y-159500000D02*
X208400000Y-158700000D01*
X254260000Y-103660000D02*
X254000000Y-103400000D01*
X199062500Y-131650000D02*
X197900000Y-131650000D01*
X227100000Y-159500000D02*
X225825000Y-159500000D01*
X221700000Y-148168750D02*
X220700000Y-149168750D01*
X183750002Y-116474998D02*
X184925002Y-116474998D01*
X255400000Y-91400000D02*
X255400000Y-90000000D01*
X216450001Y-144729058D02*
X216450001Y-146487499D01*
X216600000Y-116362500D02*
X217650001Y-117412501D01*
X201817095Y-140550000D02*
X203117094Y-139250001D01*
X188850000Y-113550000D02*
X190100000Y-113550000D01*
X245625000Y-135425000D02*
X245600000Y-135400000D01*
X211900000Y-159500000D02*
X213200000Y-159500000D01*
%TO.N,Net-(J1-Pin_1)*%
X198200000Y-133100000D02*
X197300000Y-132200000D01*
X192950000Y-136275000D02*
X195092244Y-134132756D01*
X203015686Y-133100000D02*
X198200000Y-133100000D01*
X203365688Y-132749998D02*
X203015686Y-133100000D01*
X195092244Y-134132756D02*
X195092244Y-133636021D01*
X191650000Y-136275000D02*
X192950000Y-136275000D01*
X195092244Y-133636021D02*
X196500000Y-132228265D01*
X197300000Y-132200000D02*
X196500000Y-132200000D01*
X204624050Y-132749998D02*
X203365688Y-132749998D01*
%TO.N,Net-(J1-Pin_4)*%
X200090186Y-144309814D02*
X203650000Y-140750000D01*
X198700000Y-144309814D02*
X200090186Y-144309814D01*
X203650000Y-140750000D02*
X204624050Y-140750000D01*
%TO.N,Net-(J1-Pin_5)*%
X199875000Y-143525000D02*
X200175000Y-143525000D01*
X200175000Y-143525000D02*
X203450001Y-140249999D01*
X203450001Y-140249999D02*
X204624050Y-140249999D01*
%TO.N,+5V*%
X200500000Y-84300000D02*
X197960000Y-84300000D01*
X184075000Y-95450000D02*
X183025000Y-94400000D01*
X187300000Y-87340000D02*
X187300000Y-94900000D01*
D60*
X208100000Y-95700000D02*
X208950000Y-94850000D01*
D59*
X211550000Y-87950000D02*
X208200000Y-84600000D01*
D60*
X217800000Y-98800000D02*
X217800000Y-101387200D01*
D59*
X182725000Y-94700000D02*
X180575800Y-94700000D01*
X208200000Y-84600000D02*
X202300000Y-84600000D01*
D60*
X208950000Y-94850000D02*
X213850000Y-94850000D01*
X206024200Y-95700000D02*
X203737500Y-95700000D01*
X215250000Y-96250000D02*
X215250000Y-91450000D01*
X217000000Y-98000000D02*
X215250000Y-96250000D01*
X217800000Y-101387200D02*
X219500000Y-103087200D01*
D59*
X202300000Y-84600000D02*
X202300000Y-89694887D01*
X192880000Y-84300000D02*
X190340000Y-84300000D01*
D60*
X213850000Y-94850000D02*
X217000000Y-98000000D01*
X217000000Y-98000000D02*
X217800000Y-98800000D01*
D59*
X202300000Y-84600000D02*
X200800000Y-84600000D01*
X202300000Y-89694887D02*
X204305113Y-91700000D01*
X187300000Y-94900000D02*
X186750000Y-95450000D01*
D60*
X206024200Y-95700000D02*
X208100000Y-95700000D01*
D59*
X190340000Y-84300000D02*
X187300000Y-87340000D01*
X195420000Y-84300000D02*
X197960000Y-84300000D01*
X195420000Y-84300000D02*
X192880000Y-84300000D01*
X186750000Y-95450000D02*
X184075000Y-95450000D01*
D60*
X215250000Y-91450000D02*
X211850000Y-88050000D01*
D59*
%TO.N,/RB8*%
X211650000Y-147356009D02*
X211650000Y-142775950D01*
X209307009Y-149699000D02*
X211650000Y-147356009D01*
X205500000Y-150500000D02*
X206301000Y-149699000D01*
X206301000Y-149699000D02*
X209307009Y-149699000D01*
%TO.N,Net-(D2-K)*%
X211100000Y-156500000D02*
X210525000Y-156500000D01*
X210300000Y-156725000D02*
X210300000Y-163725000D01*
X210300000Y-163725000D02*
X211900000Y-165325000D01*
X210525000Y-156500000D02*
X210300000Y-156725000D01*
%TO.N,/Refl1*%
X213600000Y-144510432D02*
X213149999Y-144060431D01*
X213600000Y-149050000D02*
X213600000Y-144510432D01*
X214000000Y-149450000D02*
X213600000Y-149050000D01*
X213149999Y-144060431D02*
X213149999Y-142775950D01*
%TO.N,/Refl2*%
X184550000Y-153699486D02*
X194249486Y-144000000D01*
X202181871Y-135949500D02*
X203118128Y-135949500D01*
X200200000Y-137743125D02*
X201893126Y-136049999D01*
X198499503Y-142705092D02*
X198499503Y-142700000D01*
X200200000Y-137775000D02*
X200200000Y-137743125D01*
X202081372Y-136049999D02*
X202181871Y-135949500D01*
X203118128Y-135949500D02*
X203418627Y-136249999D01*
X194249486Y-144000000D02*
X197204595Y-144000000D01*
X197204595Y-144000000D02*
X198499503Y-142705092D01*
X201893126Y-136049999D02*
X202081372Y-136049999D01*
X184550000Y-161186200D02*
X184550000Y-153699486D01*
X203418627Y-136249999D02*
X204624050Y-136249999D01*
%TO.N,/Refl3*%
X201915687Y-135649999D02*
X202165686Y-135400000D01*
X203134314Y-135400000D02*
X203484314Y-135750000D01*
X203484314Y-135750000D02*
X204624050Y-135750000D01*
X177450000Y-160233800D02*
X177450000Y-161270000D01*
X196650000Y-143600000D02*
X194083800Y-143600000D01*
X194083800Y-143600000D02*
X177450000Y-160233800D01*
X199100000Y-137775000D02*
X199125000Y-137775000D01*
X197550000Y-142700000D02*
X196650000Y-143600000D01*
X199125000Y-137775000D02*
X201250001Y-135649999D01*
X202165686Y-135400000D02*
X203134314Y-135400000D01*
X201250001Y-135649999D02*
X201915687Y-135649999D01*
%TO.N,/SDA2*%
X226175950Y-134250001D02*
X230107777Y-134250001D01*
X232389694Y-140018292D02*
X230650000Y-141757986D01*
X235450000Y-156100000D02*
X245060000Y-156100000D01*
X230650000Y-151300000D02*
X235450000Y-156100000D01*
X245060000Y-156100000D02*
X252260000Y-163300000D01*
X230650000Y-141757986D02*
X230650000Y-151300000D01*
X252260000Y-163300000D02*
X253360000Y-163300000D01*
X230107777Y-134250001D02*
X231653888Y-135796112D01*
%TO.N,/SCL2*%
X230250000Y-141204098D02*
X232250000Y-139204098D01*
X253360000Y-165840000D02*
X244220000Y-156700000D01*
X229653888Y-134750000D02*
X226175950Y-134750000D01*
X230250000Y-151465685D02*
X230250000Y-141204098D01*
X229926944Y-135023056D02*
X229653888Y-134750000D01*
X244220000Y-156700000D02*
X235484314Y-156700000D01*
X232250000Y-139204098D02*
X232250000Y-138700000D01*
X235484314Y-156700000D02*
X230250000Y-151465685D01*
%TO.N,/RH0*%
X209649999Y-144669575D02*
X209649999Y-142775950D01*
X209401731Y-144917843D02*
X209649999Y-144669575D01*
X209401731Y-145306046D02*
X209401731Y-144917843D01*
%TO.N,/RH1*%
X209439127Y-146514762D02*
X210150000Y-145803889D01*
X210150000Y-145803889D02*
X210150000Y-142775950D01*
%TO.N,/RJ13*%
X202657370Y-136624500D02*
X202782871Y-136750001D01*
X202782871Y-136750001D02*
X204624050Y-136750001D01*
%TO.N,/RH2*%
X209358484Y-147550000D02*
X210649999Y-146258485D01*
X209200000Y-147550000D02*
X209358484Y-147550000D01*
X210649999Y-146258485D02*
X210649999Y-142775950D01*
%TO.N,/RJ14*%
X202220406Y-137299500D02*
X204574550Y-137299500D01*
X202020906Y-137100000D02*
X202220406Y-137299500D01*
X204574550Y-137299500D02*
X204624050Y-137250000D01*
X201846192Y-137100000D02*
X202020906Y-137100000D01*
X201821956Y-137075764D02*
X201846192Y-137100000D01*
%TO.N,/RH3*%
X211150001Y-146899999D02*
X211150001Y-142775950D01*
X210450000Y-147600000D02*
X211150001Y-146899999D01*
%TO.N,/RJ15*%
X203668001Y-137749999D02*
X204624050Y-137749999D01*
X203568000Y-137850000D02*
X203668001Y-137749999D01*
X201263970Y-137850000D02*
X203568000Y-137850000D01*
X201239950Y-137825980D02*
X201263970Y-137850000D01*
%TO.N,/RH12*%
X236700000Y-121400000D02*
X236700000Y-117260000D01*
X236700000Y-117260000D02*
X235550000Y-116110000D01*
X230850001Y-127249999D02*
X236700000Y-121400000D01*
X226175950Y-127249999D02*
X230850001Y-127249999D01*
%TO.N,/RK1*%
X199635000Y-148320200D02*
X199635000Y-156915000D01*
X213650001Y-142775950D02*
X213650001Y-141744900D01*
X213625001Y-141719900D02*
X206235300Y-141719900D01*
X199635000Y-156915000D02*
X193190000Y-163360000D01*
X206235300Y-141719900D02*
X199635000Y-148320200D01*
X213650001Y-141744900D02*
X213625001Y-141719900D01*
%TO.N,/RH13*%
X235550000Y-121984314D02*
X230784314Y-126750000D01*
X230784314Y-126750000D02*
X226175950Y-126750000D01*
X235550000Y-118650000D02*
X235550000Y-121984314D01*
%TO.N,Net-(D2-A)*%
X211900000Y-161500000D02*
X211900000Y-163275000D01*
%TO.N,Net-(D3-K)*%
X209500000Y-158800000D02*
X209500000Y-164225000D01*
X209200000Y-158500000D02*
X209500000Y-158800000D01*
X209200000Y-157800000D02*
X209200000Y-158500000D01*
X209500000Y-164225000D02*
X208400000Y-165325000D01*
%TO.N,Net-(D3-A)*%
X208400000Y-161500000D02*
X208400000Y-163275000D01*
%TO.N,Net-(D4-K)*%
X217425000Y-156500000D02*
X217200000Y-156725000D01*
X217200000Y-163600000D02*
X218900000Y-165300000D01*
X217200000Y-156725000D02*
X217200000Y-163600000D01*
X218000000Y-156500000D02*
X217425000Y-156500000D01*
%TO.N,Net-(D4-A)*%
X218900000Y-161475000D02*
X218900000Y-163250000D01*
%TO.N,Net-(D5-K)*%
X216200000Y-157900000D02*
X216100000Y-157800000D01*
X216200000Y-158600000D02*
X216200000Y-157900000D01*
X216500000Y-164200000D02*
X216500000Y-158900000D01*
X216500000Y-158900000D02*
X216200000Y-158600000D01*
X215400000Y-165300000D02*
X216500000Y-164200000D01*
%TO.N,/RK2*%
X214150000Y-142775950D02*
X214150000Y-141679213D01*
X193465000Y-162235000D02*
X192265000Y-162235000D01*
X199235000Y-148115000D02*
X199235000Y-156465000D01*
X206030100Y-141319900D02*
X199235000Y-148115000D01*
X190210000Y-165430000D02*
X191445000Y-164195000D01*
X192265000Y-162235000D02*
X191445000Y-163055000D01*
X214150000Y-141679213D02*
X213790687Y-141319900D01*
X213790687Y-141319900D02*
X206030100Y-141319900D01*
X191445000Y-163055000D02*
X191445000Y-164195000D01*
X199235000Y-156465000D02*
X193465000Y-162235000D01*
%TO.N,/U1RX*%
X227849293Y-132250000D02*
X226175950Y-132250000D01*
X260770759Y-111325353D02*
X260645406Y-111200000D01*
X247350000Y-114500000D02*
X230600000Y-131250000D01*
X262875000Y-101575000D02*
X262875000Y-109779595D01*
X260645406Y-111200000D02*
X255565686Y-111200000D01*
X230600000Y-131250000D02*
X228849293Y-131250000D01*
X262875000Y-109779595D02*
X261329242Y-111325353D01*
X260700000Y-101120000D02*
X262420000Y-101120000D01*
X262420000Y-101120000D02*
X262875000Y-101575000D01*
X255565686Y-111200000D02*
X252265685Y-114500000D01*
X252265685Y-114500000D02*
X247350000Y-114500000D01*
X228849293Y-131250000D02*
X227849293Y-132250000D01*
X261329242Y-111325353D02*
X260770759Y-111325353D01*
%TO.N,Net-(D8-A1)*%
X211990000Y-110656200D02*
X211990000Y-106376200D01*
%TO.N,Net-(D8-A2)*%
X206910000Y-106376200D02*
X206910000Y-110376200D01*
X206910000Y-110376200D02*
X206410000Y-110876200D01*
%TO.N,/RH14*%
X230718629Y-126249999D02*
X226175950Y-126249999D01*
X233010000Y-116110000D02*
X234135000Y-117235000D01*
X234135000Y-122833628D02*
X230718629Y-126249999D01*
X234135000Y-117235000D02*
X234135000Y-122833628D01*
%TO.N,/RK3*%
X198245686Y-144984314D02*
X189085000Y-154145000D01*
X214649999Y-142775950D02*
X214649999Y-141613527D01*
X189555000Y-167025000D02*
X191665000Y-167025000D01*
X213956372Y-140919900D02*
X205864414Y-140919900D01*
X191665000Y-167025000D02*
X192790000Y-165900000D01*
X214649999Y-141613527D02*
X213956372Y-140919900D01*
X189085000Y-154145000D02*
X189085000Y-166555000D01*
X205864414Y-140919900D02*
X201800000Y-144984314D01*
X201800000Y-144984314D02*
X198245686Y-144984314D01*
X189085000Y-166555000D02*
X189555000Y-167025000D01*
%TO.N,/RH15*%
X233010000Y-123392942D02*
X233010000Y-118650000D01*
X230652942Y-125750000D02*
X233010000Y-123392942D01*
X226175950Y-125750000D02*
X230652942Y-125750000D01*
%TO.N,/U1TX*%
X228104719Y-131425000D02*
X228109314Y-131425000D01*
X258400000Y-103300000D02*
X259310000Y-102390000D01*
X259310000Y-102390000D02*
X260700000Y-102390000D01*
X230434314Y-130850000D02*
X247000000Y-114284314D01*
X228683608Y-130850000D02*
X230434314Y-130850000D01*
X226175950Y-131750000D02*
X227779719Y-131750000D01*
X252100000Y-114100000D02*
X258400000Y-107800000D01*
X228109314Y-131425000D02*
X228109314Y-131424294D01*
X258400000Y-107800000D02*
X258400000Y-103300000D01*
X228109314Y-131424294D02*
X228683608Y-130850000D01*
X227779719Y-131750000D02*
X228104719Y-131425000D01*
X247000000Y-114284314D02*
X247000000Y-114100000D01*
X247000000Y-114100000D02*
X252100000Y-114100000D01*
%TO.N,/U2TX*%
X189250000Y-125800000D02*
X189498056Y-126048056D01*
X199100500Y-127900500D02*
X203133201Y-127900500D01*
X203133201Y-127900500D02*
X203482701Y-128250000D01*
X197248056Y-126048056D02*
X199100500Y-127900500D01*
X189498056Y-126048056D02*
X197248056Y-126048056D01*
X203482701Y-128250000D02*
X204624050Y-128250000D01*
%TO.N,Net-(D9-K)*%
X264400000Y-103025000D02*
X264400000Y-103800000D01*
X262200000Y-105000000D02*
X260770000Y-105000000D01*
X264400000Y-103800000D02*
X263800000Y-104400000D01*
%TO.N,/U2RX*%
X200200000Y-104450000D02*
X201800000Y-106050000D01*
X206712386Y-115062386D02*
X206712386Y-119815685D01*
X200200000Y-104250000D02*
X200200000Y-104450000D01*
X207149999Y-120253299D02*
X207149999Y-121224050D01*
X203166055Y-113933945D02*
X203558945Y-113933945D01*
X204175000Y-114550000D02*
X206200000Y-114550000D01*
X206712386Y-119815685D02*
X207149999Y-120253299D01*
X206200000Y-114550000D02*
X206712386Y-115062386D01*
X203558945Y-113933945D02*
X204175000Y-114550000D01*
%TO.N,/U3TX*%
X218775000Y-116475000D02*
X218775000Y-118893628D01*
X218775000Y-118893628D02*
X218650001Y-119018627D01*
X199175000Y-105925000D02*
X205150000Y-111900000D01*
X198050000Y-90650000D02*
X199175000Y-91775000D01*
X218650001Y-119018627D02*
X218650001Y-121224050D01*
X218100000Y-115800000D02*
X218775000Y-116475000D01*
X199175000Y-91775000D02*
X199175000Y-105925000D01*
%TO.N,/U3RX*%
X198775000Y-106539739D02*
X204202910Y-111967649D01*
X196635000Y-91775000D02*
X196635000Y-97928460D01*
X196635000Y-97928460D02*
X198775000Y-100068460D01*
X218100000Y-116900000D02*
X218150000Y-116950000D01*
X195510000Y-90650000D02*
X196635000Y-91775000D01*
X218150000Y-116950000D02*
X218150000Y-121224050D01*
X198775000Y-100068460D02*
X198775000Y-106539739D01*
%TO.N,/U4TX*%
X202575000Y-164925000D02*
X202575000Y-148381999D01*
X202575000Y-148381999D02*
X207149999Y-143807000D01*
X203700000Y-166050000D02*
X202575000Y-164925000D01*
X207149999Y-143807000D02*
X207149999Y-142775950D01*
%TO.N,/U4RX*%
X206650000Y-143741314D02*
X206650000Y-142775950D01*
X201160000Y-166050000D02*
X200035000Y-164925000D01*
X200035000Y-164925000D02*
X200035000Y-150356314D01*
X200035000Y-150356314D02*
X206650000Y-143741314D01*
%TO.N,/RA9*%
X204430444Y-147169556D02*
X204430444Y-147480444D01*
X207650000Y-142775950D02*
X207650000Y-143950000D01*
X207650000Y-143950000D02*
X204430444Y-147169556D01*
%TO.N,/RA10*%
X205150000Y-147715483D02*
X204235039Y-148630444D01*
X204235039Y-148630444D02*
X203280444Y-148630444D01*
X208149999Y-142775950D02*
X208149999Y-144015687D01*
X208149999Y-144015687D02*
X205150000Y-147015686D01*
X205150000Y-147015686D02*
X205150000Y-147715483D01*
%TO.N,/U5TX*%
X182755038Y-153565000D02*
X173075000Y-153565000D01*
X173075000Y-153565000D02*
X171660000Y-152150000D01*
X202985724Y-138250000D02*
X202685724Y-138550000D01*
X204624050Y-138250000D02*
X202985724Y-138250000D01*
X202685724Y-138550000D02*
X197770038Y-138550000D01*
X197770038Y-138550000D02*
X182755038Y-153565000D01*
%TO.N,/U5RX*%
X183604352Y-152150000D02*
X174200000Y-152150000D01*
X201750001Y-135249999D02*
X200504353Y-135249999D01*
X202050000Y-134950000D02*
X201750001Y-135249999D01*
X200504353Y-135249999D02*
X183604352Y-152150000D01*
X203250000Y-134950000D02*
X202050000Y-134950000D01*
X204624050Y-135249999D02*
X203549999Y-135249999D01*
X203549999Y-135249999D02*
X203250000Y-134950000D01*
%TO.N,/U6TX*%
X201684839Y-128749999D02*
X204624050Y-128749999D01*
X170535000Y-153565000D02*
X171660000Y-154690000D01*
X184163666Y-151025000D02*
X170535000Y-151025000D01*
X170535000Y-151025000D02*
X170535000Y-153565000D01*
X200850001Y-134849999D02*
X200338667Y-134849999D01*
X200338667Y-134849999D02*
X184163666Y-151025000D01*
X201510340Y-128575500D02*
X201684839Y-128749999D01*
X201450000Y-134250000D02*
X200850001Y-134849999D01*
%TO.N,/U6RX*%
X202100000Y-141000000D02*
X195885724Y-141000000D01*
X204624050Y-139750000D02*
X203350000Y-139750000D01*
X195885724Y-141000000D02*
X182195724Y-154690000D01*
X182195724Y-154690000D02*
X174200000Y-154690000D01*
X203350000Y-139750000D02*
X202100000Y-141000000D01*
%TO.N,/Write Protect\u002A*%
X217650001Y-147935966D02*
X217650001Y-142775950D01*
X215892984Y-150897384D02*
X215892984Y-149692983D01*
X215892984Y-149692983D02*
X217650001Y-147935966D01*
X216460600Y-151465000D02*
X215892984Y-150897384D01*
%TO.N,/Switch1*%
X229070128Y-164351200D02*
X228050000Y-163331072D01*
X227890479Y-136249999D02*
X226175950Y-136249999D01*
X228050000Y-163331072D02*
X228050000Y-140954595D01*
X229070128Y-164351200D02*
X231570128Y-166851200D01*
X228165980Y-136525500D02*
X227890479Y-136249999D01*
X229350000Y-139654595D02*
X229350000Y-139250000D01*
X231570128Y-166851200D02*
X234310128Y-166851200D01*
X228050000Y-140954595D02*
X229350000Y-139654595D01*
%TO.N,/RE4*%
X200053186Y-117481814D02*
X200053186Y-119219177D01*
X200053186Y-119219177D02*
X202058059Y-121224050D01*
X201250000Y-116285000D02*
X200053186Y-117481814D01*
X202058059Y-121224050D02*
X206650000Y-121224050D01*
%TO.N,/RG12*%
X208650001Y-119668041D02*
X208650001Y-121224050D01*
X208209423Y-119227463D02*
X208650001Y-119668041D01*
%TO.N,/RG14*%
X209150000Y-118825000D02*
X209150000Y-121224050D01*
X208900000Y-118575000D02*
X209150000Y-118825000D01*
%TO.N,/SCK3*%
X218650001Y-145475500D02*
X218650001Y-142775950D01*
X218724501Y-145550000D02*
X218650001Y-145475500D01*
%TO.N,/SDO3*%
X203700000Y-157000000D02*
X204300000Y-156400000D01*
X212650000Y-148000000D02*
X212650000Y-142775950D01*
X203700000Y-158430000D02*
X203700000Y-157000000D01*
%TO.N,/SS3\u002A*%
X219399501Y-145176319D02*
X219150000Y-144926818D01*
X219399501Y-146050499D02*
X219399501Y-145176319D01*
X218850000Y-146600000D02*
X219399501Y-146050499D01*
X219150000Y-144926818D02*
X219150000Y-142775950D01*
%TO.N,/SDI3*%
X209565686Y-150100000D02*
X207850000Y-150100000D01*
X212149999Y-147515687D02*
X209565686Y-150100000D01*
X205350000Y-152600000D02*
X205350000Y-159320000D01*
X205350000Y-159320000D02*
X203700000Y-160970000D01*
X212149999Y-142775950D02*
X212149999Y-147515687D01*
X207850000Y-150100000D02*
X205350000Y-152600000D01*
%TO.N,/RE1*%
X209649999Y-117674999D02*
X209649999Y-121224050D01*
X208325000Y-116350000D02*
X209649999Y-117674999D01*
%TO.N,/SCK4*%
X231450000Y-128200000D02*
X231400000Y-128250000D01*
X231400000Y-128250000D02*
X226175950Y-128250000D01*
%TO.N,/SDO4*%
X229250000Y-129300000D02*
X226225950Y-129300000D01*
X226225950Y-129300000D02*
X226175950Y-129250000D01*
X229650000Y-129700000D02*
X229250000Y-129300000D01*
%TO.N,/Switch2*%
X228650000Y-161100000D02*
X228650000Y-141000000D01*
X242100128Y-166875000D02*
X239450128Y-166875000D01*
X228650000Y-141000000D02*
X230300000Y-139350000D01*
X236950128Y-164375000D02*
X235375128Y-162800000D01*
X229200000Y-136525500D02*
X228424500Y-135750000D01*
X235375128Y-162800000D02*
X230350000Y-162800000D01*
X230300000Y-139350000D02*
X230300000Y-139250000D01*
X228424500Y-135750000D02*
X226175950Y-135750000D01*
X230350000Y-162800000D02*
X228650000Y-161100000D01*
X239450128Y-166875000D02*
X236950128Y-164375000D01*
%TO.N,/Switch3*%
X230300000Y-136350000D02*
X229200001Y-135250001D01*
X229475000Y-141029595D02*
X229475000Y-160409872D01*
X231249503Y-139250000D02*
X231249503Y-139255092D01*
X242615128Y-162300000D02*
X244690128Y-164375000D01*
X231365128Y-162300000D02*
X242615128Y-162300000D01*
X247290128Y-166975000D02*
X249840128Y-166975000D01*
X244690128Y-164375000D02*
X247290128Y-166975000D01*
X231249503Y-139255092D02*
X229475000Y-141029595D01*
X229475000Y-160409872D02*
X231365128Y-162300000D01*
X229200001Y-135250001D02*
X226175950Y-135250001D01*
%TO.N,/SS4\u002A*%
X230596809Y-129043540D02*
X230303268Y-128749999D01*
X230303268Y-128749999D02*
X226175950Y-128749999D01*
%TO.N,/SDI4*%
X230945404Y-127750001D02*
X226175950Y-127750001D01*
X231388035Y-127307370D02*
X230945404Y-127750001D01*
X232457370Y-127307370D02*
X231388035Y-127307370D01*
%TO.N,/SCK5*%
X216650000Y-142775950D02*
X216650000Y-143797685D01*
X216650000Y-143797685D02*
X216850001Y-143997686D01*
X212990302Y-151465000D02*
X211374250Y-151465000D01*
X216850001Y-147605301D02*
X212990302Y-151465000D01*
X216850001Y-143997686D02*
X216850001Y-147605301D01*
%TO.N,/SDO5*%
X214649999Y-120125499D02*
X214649999Y-121224050D01*
X211374250Y-149474249D02*
X211374250Y-150195000D01*
X211359787Y-149459786D02*
X211374250Y-149474249D01*
X213924500Y-119400000D02*
X214649999Y-120125499D01*
%TO.N,/SS5\u002A*%
X215492984Y-153792984D02*
X215705000Y-154005000D01*
X217250001Y-143832000D02*
X217250001Y-147770280D01*
X217149999Y-142775950D02*
X217149999Y-143731998D01*
X217250001Y-147770280D02*
X215492984Y-149527297D01*
X215705000Y-154005000D02*
X217025750Y-154005000D01*
X217149999Y-143731998D02*
X217250001Y-143832000D01*
X215492984Y-149527297D02*
X215492984Y-153792984D01*
%TO.N,/SDI5*%
X218132600Y-153276700D02*
X217590900Y-152735000D01*
X210593300Y-152193300D02*
X212567800Y-152193300D01*
X210051906Y-151498094D02*
X210050000Y-151500000D01*
X215050000Y-119400000D02*
X215150000Y-119500000D01*
X218053800Y-154625500D02*
X218132600Y-154546700D01*
X215150000Y-119500000D02*
X215150000Y-121224050D01*
X212567800Y-152193300D02*
X215000000Y-154625500D01*
X210051906Y-150710761D02*
X210051906Y-151498094D01*
X215000000Y-154625500D02*
X218053800Y-154625500D01*
X218132600Y-154546700D02*
X218132600Y-153276700D01*
X210050000Y-151500000D02*
X210050000Y-151650000D01*
X217025750Y-152735000D02*
X217820633Y-152735000D01*
X210050000Y-151650000D02*
X210593300Y-152193300D01*
%TO.N,/SCK6*%
X262150000Y-149400000D02*
X262950000Y-150200000D01*
X223150000Y-144401330D02*
X223150000Y-142775950D01*
X224150000Y-145401330D02*
X223150000Y-144401330D01*
X225975500Y-149396660D02*
X224150000Y-147571160D01*
X261681701Y-154860000D02*
X260428401Y-154860000D01*
X224150000Y-147571160D02*
X224150000Y-145401330D01*
X232850000Y-149250000D02*
X233000000Y-149400000D01*
X262950000Y-153591701D02*
X261681701Y-154860000D01*
X233000000Y-149400000D02*
X262150000Y-149400000D01*
X262950000Y-150200000D02*
X262950000Y-153591701D01*
%TO.N,/SDO6*%
X232000000Y-150604595D02*
X234295405Y-152900000D01*
X231750000Y-145050000D02*
X232000000Y-145300000D01*
X234295405Y-152900000D02*
X260188400Y-152900000D01*
X232000000Y-145300000D02*
X232000000Y-150604595D01*
X218234314Y-134750000D02*
X204624050Y-134750000D01*
X226701000Y-143216686D02*
X218234314Y-134750000D01*
X226701000Y-143800000D02*
X226701000Y-143216686D01*
%TO.N,/SS6\u002A*%
X222650001Y-144467017D02*
X222650001Y-142775950D01*
X232700000Y-150350000D02*
X256200000Y-150350000D01*
X257410073Y-151560073D02*
X260028402Y-151560073D01*
X224612476Y-148986976D02*
X223750000Y-148124500D01*
X223750000Y-148124500D02*
X223750000Y-145567016D01*
X224612476Y-148987524D02*
X224612476Y-148986976D01*
X223750000Y-145567016D02*
X222650001Y-144467017D01*
X256200000Y-150350000D02*
X257410073Y-151560073D01*
%TO.N,/SDI6*%
X227375500Y-144974500D02*
X227375500Y-143325500D01*
X231324500Y-146200000D02*
X231350000Y-146225500D01*
X242842843Y-153317157D02*
X248075686Y-158550000D01*
X250828599Y-158550000D02*
X252318598Y-157060001D01*
X227375500Y-143325500D02*
X218300001Y-134250001D01*
X248075686Y-158550000D02*
X250828599Y-158550000D01*
X252318598Y-157060001D02*
X260428401Y-157060001D01*
X218300001Y-134250001D02*
X204624050Y-134250001D01*
X231350000Y-146225500D02*
X231350000Y-150800000D01*
X231350000Y-150800000D02*
X233867157Y-153317157D01*
X233867157Y-153317157D02*
X242842843Y-153317157D01*
%TO.N,/IC4*%
X204624050Y-129250000D02*
X200929095Y-129250000D01*
X193369776Y-131075000D02*
X186644776Y-137800000D01*
X197167462Y-131075000D02*
X193369776Y-131075000D01*
X200679595Y-129000500D02*
X199241962Y-129000500D01*
X174300000Y-137800000D02*
X169850000Y-133350000D01*
X186644776Y-137800000D02*
X174300000Y-137800000D01*
X199241962Y-129000500D02*
X197167462Y-131075000D01*
X200929095Y-129250000D02*
X200679595Y-129000500D01*
%TO.N,/SCK2*%
X172055000Y-142789314D02*
X172055000Y-141320000D01*
X196674032Y-134680563D02*
X196674032Y-134197201D01*
X191384595Y-139970000D02*
X196674032Y-134680563D01*
X200474499Y-129749999D02*
X204624050Y-129749999D01*
X172055000Y-141320000D02*
X173405000Y-139970000D01*
X173405000Y-139970000D02*
X191384595Y-139970000D01*
X200400000Y-129675500D02*
X200474499Y-129749999D01*
%TO.N,/SDI2*%
X181080000Y-140770000D02*
X179675000Y-142175000D01*
X197699266Y-135792342D02*
X192721608Y-140770000D01*
X199300000Y-130274500D02*
X199376000Y-130350500D01*
X192721608Y-140770000D02*
X181080000Y-140770000D01*
X197699266Y-133672527D02*
X197699266Y-135792342D01*
X199376000Y-130350500D02*
X200679595Y-130350500D01*
X200679595Y-130350500D02*
X200780094Y-130250001D01*
X200780094Y-130250001D02*
X204624050Y-130250001D01*
%TO.N,/SDO2*%
X191938484Y-140370000D02*
X196775868Y-135532616D01*
X204624050Y-130750000D02*
X203074501Y-130750000D01*
X203074501Y-130750000D02*
X202900000Y-130924501D01*
X179215000Y-140370000D02*
X191938484Y-140370000D01*
X177135000Y-142450000D02*
X179215000Y-140370000D01*
%TO.N,/SS2\u002A*%
X189257294Y-144800000D02*
X200557294Y-133500000D01*
X200557294Y-133500000D02*
X203403299Y-133500000D01*
X203403299Y-133500000D02*
X203653299Y-133250000D01*
X203653299Y-133250000D02*
X204624050Y-133250000D01*
X175145000Y-143000000D02*
X176945000Y-144800000D01*
X176945000Y-144800000D02*
X189257294Y-144800000D01*
%TO.N,/OC1*%
X240000000Y-137100000D02*
X239100000Y-138000000D01*
X227396700Y-138000000D02*
X227146701Y-137750001D01*
X227146701Y-137750001D02*
X226175950Y-137750001D01*
X239100000Y-138000000D02*
X227396700Y-138000000D01*
X246024996Y-138674998D02*
X244449998Y-137100000D01*
X247249998Y-138674998D02*
X246024996Y-138674998D01*
X244449998Y-137100000D02*
X240000000Y-137100000D01*
%TO.N,/IC2*%
X233850000Y-136925500D02*
X233575500Y-137200000D01*
X227728072Y-137200000D02*
X227278073Y-136750001D01*
X227278073Y-136750001D02*
X226175950Y-136750001D01*
X233575500Y-137200000D02*
X227728072Y-137200000D01*
%TO.N,/IC3*%
X203300000Y-125750000D02*
X204624050Y-125750000D01*
X171060000Y-138200000D02*
X169250000Y-136390000D01*
X200700000Y-125150000D02*
X202700000Y-125150000D01*
X195767244Y-134632756D02*
X192200000Y-138200000D01*
X195767244Y-133915616D02*
X195767244Y-134632756D01*
X192200000Y-138200000D02*
X171060000Y-138200000D01*
X202700000Y-125150000D02*
X203300000Y-125750000D01*
%TO.N,/IC1*%
X230125026Y-125250001D02*
X226175950Y-125250001D01*
X230299527Y-125075500D02*
X230125026Y-125250001D01*
%TO.N,/SCK1*%
X226125000Y-114065000D02*
X225000000Y-112940000D01*
X224150000Y-121224050D02*
X225025950Y-121224050D01*
X225025950Y-121224050D02*
X226125000Y-120125000D01*
X226125000Y-120125000D02*
X226125000Y-114065000D01*
%TO.N,/SDI1*%
X223650001Y-119369999D02*
X225000000Y-118020000D01*
X223650001Y-121224050D02*
X223650001Y-119369999D01*
%TO.N,/SDO1*%
X223150000Y-118710000D02*
X222460000Y-118020000D01*
X223150000Y-121224050D02*
X223150000Y-118710000D01*
%TO.N,/SS1\u002A*%
X221925000Y-111675000D02*
X223075000Y-111675000D01*
X223075000Y-111675000D02*
X223775000Y-112375000D01*
X219649999Y-121224050D02*
X219649999Y-113950001D01*
X223775000Y-112375000D02*
X223775000Y-114255000D01*
X219649999Y-113950001D02*
X221925000Y-111675000D01*
X223775000Y-114255000D02*
X225000000Y-115480000D01*
%TO.N,/OC2*%
X191904595Y-112700000D02*
X216700000Y-112700000D01*
X219175000Y-115175000D02*
X219175000Y-121199050D01*
X185975002Y-114525000D02*
X190079595Y-114525000D01*
X184675002Y-113225000D02*
X185975002Y-114525000D01*
X219175000Y-121199050D02*
X219150000Y-121224050D01*
X216700000Y-112700000D02*
X219175000Y-115175000D01*
X190079595Y-114525000D02*
X191904595Y-112700000D01*
X183750002Y-113225000D02*
X184675002Y-113225000D01*
%TO.N,Net-(D5-A)*%
X215400000Y-161375000D02*
X215400000Y-163250000D01*
%TO.N,Net-(D6-A)*%
X225800000Y-161475000D02*
X225800000Y-163250000D01*
%TO.N,Net-(D7-A)*%
X222300000Y-161475000D02*
X222300000Y-163250000D01*
%TO.N,/Bump1*%
X196500000Y-105000000D02*
X197540000Y-105000000D01*
X199200000Y-110525500D02*
X197540000Y-108865500D01*
X199200000Y-114075000D02*
X199175000Y-114100000D01*
X203628428Y-123250000D02*
X204624050Y-123250000D01*
X199175000Y-119684314D02*
X202640686Y-123150000D01*
X203528428Y-123150000D02*
X203628428Y-123250000D01*
X197540000Y-100300000D02*
X197540000Y-104750000D01*
X197540000Y-108865500D02*
X197540000Y-104750000D01*
X197540000Y-105000000D02*
X197540000Y-104750000D01*
X199200000Y-111850000D02*
X199200000Y-110525500D01*
X202640686Y-123150000D02*
X203528428Y-123150000D01*
X199175000Y-114100000D02*
X199175000Y-119684314D01*
%TO.N,/Bump2*%
X203362743Y-123550000D02*
X203562742Y-123749999D01*
X197950000Y-111950000D02*
X197950000Y-110775500D01*
X198025000Y-119100000D02*
X202475000Y-123550000D01*
X191025000Y-99725000D02*
X191600000Y-100300000D01*
X197950000Y-110775500D02*
X191600000Y-104425500D01*
X198000000Y-114125000D02*
X198025000Y-114150000D01*
X191025000Y-94075000D02*
X191025000Y-99725000D01*
X198025000Y-114150000D02*
X198025000Y-119100000D01*
X191600000Y-104425500D02*
X191600000Y-100300000D01*
X203562742Y-123749999D02*
X204624050Y-123749999D01*
X202475000Y-123550000D02*
X203362743Y-123550000D01*
%TO.N,/Bump3*%
X186908814Y-100300000D02*
X185850000Y-100300000D01*
X185850000Y-98700000D02*
X185850000Y-100300000D01*
X196875000Y-114125000D02*
X196875000Y-118550000D01*
X203497058Y-124250000D02*
X204624050Y-124250000D01*
X202275000Y-123950000D02*
X203197058Y-123950000D01*
X196875000Y-118550000D02*
X202275000Y-123950000D01*
X203197058Y-123950000D02*
X203497058Y-124250000D01*
X196900000Y-114100000D02*
X196875000Y-114125000D01*
X188650000Y-95900000D02*
X185850000Y-98700000D01*
X188650000Y-93950000D02*
X188650000Y-95900000D01*
X196875000Y-110266186D02*
X186908814Y-100300000D01*
X196875000Y-111900000D02*
X196875000Y-110266186D01*
%TO.N,/Bump4*%
X184000000Y-104250000D02*
X180050000Y-100300000D01*
X196190686Y-118450000D02*
X202090686Y-124350000D01*
X195750000Y-110195405D02*
X195750000Y-111950000D01*
X196175000Y-118450000D02*
X196190686Y-118450000D01*
X203031372Y-124350000D02*
X203431371Y-124749999D01*
X195700000Y-114150000D02*
X195700000Y-117975000D01*
X195700000Y-117975000D02*
X196175000Y-118450000D01*
X184000000Y-104900000D02*
X184000000Y-104250000D01*
X203431371Y-124749999D02*
X204624050Y-124749999D01*
X202090686Y-124350000D02*
X203031372Y-124350000D01*
X190108031Y-104553436D02*
X195750000Y-110195405D01*
X190108031Y-104553436D02*
X184346564Y-104553436D01*
%TO.N,/LED1*%
X222550000Y-146064074D02*
X221150001Y-144664075D01*
X213120405Y-155825000D02*
X216968628Y-155825000D01*
X211795405Y-157150000D02*
X213120405Y-155825000D01*
X221150001Y-144664075D02*
X221150001Y-142775950D01*
X211100000Y-157150000D02*
X211795405Y-157150000D01*
X217168629Y-155625000D02*
X218818628Y-155625000D01*
X216968628Y-155825000D02*
X217168629Y-155625000D01*
X218818628Y-155625000D02*
X222550000Y-151893628D01*
X222550000Y-151893628D02*
X222550000Y-146064074D01*
%TO.N,/LED2*%
X209900000Y-156559314D02*
X210759315Y-155700000D01*
X209200000Y-157200000D02*
X209900000Y-157200000D01*
X222150000Y-146229760D02*
X220650000Y-144729760D01*
X222150000Y-151727942D02*
X222150000Y-146229760D01*
X221108072Y-152769870D02*
X222150000Y-151727942D01*
X220650000Y-144729760D02*
X220650000Y-142775950D01*
X210759315Y-155700000D02*
X211600000Y-155700000D01*
X220719870Y-152769870D02*
X221108072Y-152769870D01*
X209900000Y-157200000D02*
X209900000Y-156559314D01*
%TO.N,/LED3*%
X222149999Y-144532701D02*
X223350000Y-145732702D01*
X222149999Y-142775950D02*
X222149999Y-144532701D01*
X218425000Y-157150000D02*
X218000000Y-157150000D01*
X223350000Y-145732702D02*
X223350000Y-152225000D01*
X223350000Y-152225000D02*
X218425000Y-157150000D01*
%TO.N,/LED4*%
X222950000Y-145898388D02*
X221650000Y-144598388D01*
X222950000Y-152059314D02*
X222950000Y-145898388D01*
X216800000Y-157025000D02*
X216800000Y-156559314D01*
X217334314Y-156025000D02*
X218984314Y-156025000D01*
X216100000Y-157150000D02*
X216675000Y-157150000D01*
X218984314Y-156025000D02*
X222950000Y-152059314D01*
X221650000Y-144598388D02*
X221650000Y-142775950D01*
X216675000Y-157150000D02*
X216800000Y-157025000D01*
X216800000Y-156559314D02*
X217334314Y-156025000D01*
%TO.N,/LED5*%
X225376111Y-157150000D02*
X225000000Y-157150000D01*
X227050500Y-148951380D02*
X227050500Y-155475611D01*
X227050500Y-155475611D02*
X225376111Y-157150000D01*
X225250000Y-143100000D02*
X225250000Y-147150880D01*
X224150000Y-142775950D02*
X224925950Y-142775950D01*
X224925950Y-142775950D02*
X225250000Y-143100000D01*
X225250000Y-147150880D02*
X227050500Y-148951380D01*
%TO.N,/LED6*%
X226650500Y-153883814D02*
X223384314Y-157150000D01*
X226650500Y-149117065D02*
X226650500Y-153883814D01*
X223650001Y-143746701D02*
X224550000Y-144646700D01*
X224550000Y-144646700D02*
X224550000Y-147016565D01*
X224550000Y-147016565D02*
X226650500Y-149117065D01*
X223384314Y-157150000D02*
X223100000Y-157150000D01*
X223650001Y-142775950D02*
X223650001Y-143746701D01*
%TO.N,Net-(U8-S2)*%
X207972400Y-110438600D02*
X207972400Y-106351339D01*
X216950000Y-108925000D02*
X216925000Y-108950000D01*
X209423739Y-104900000D02*
X214675000Y-104900000D01*
X214675000Y-104900000D02*
X216950000Y-107175000D01*
X216950000Y-107175000D02*
X216950000Y-108925000D01*
X216925000Y-108950000D02*
X216350000Y-108950000D01*
X207972400Y-106351339D02*
X209423739Y-104900000D01*
%TO.N,Net-(U8-S1)*%
X214450000Y-107200000D02*
X214450000Y-107650000D01*
X210512400Y-110573800D02*
X210512400Y-106351339D01*
X210512400Y-106351339D02*
X211563739Y-105300000D01*
X211563739Y-105300000D02*
X212550000Y-105300000D01*
X212550000Y-105300000D02*
X214450000Y-107200000D01*
%TO.N,/IMU_INT1*%
X221335000Y-118877999D02*
X221335000Y-116605000D01*
X222650001Y-120193000D02*
X221335000Y-118877999D01*
X222650001Y-121224050D02*
X222650001Y-120193000D01*
X221335000Y-116605000D02*
X222460000Y-115480000D01*
%TO.N,/IMU_INT2*%
X222149999Y-121224050D02*
X222149999Y-120258684D01*
X220935000Y-114465000D02*
X222460000Y-112940000D01*
X222149999Y-120258684D02*
X220935000Y-119043684D01*
X220935000Y-119043684D02*
X220935000Y-114465000D01*
%TO.N,/GPS_INT*%
X203950000Y-105100000D02*
X203950000Y-106400000D01*
X207175000Y-113824500D02*
X207512386Y-114161886D01*
X208149999Y-120121927D02*
X208149999Y-121224050D01*
X207512386Y-119484314D02*
X208149999Y-120121927D01*
X201700000Y-102850000D02*
X203950000Y-105100000D01*
X207512386Y-114161886D02*
X207512386Y-119484314D01*
%TO.N,/GPS_Reset*%
X207112386Y-114812386D02*
X207112386Y-119650000D01*
X206175000Y-113875000D02*
X207112386Y-114812386D01*
X202800000Y-105550000D02*
X202800000Y-105950000D01*
X200650000Y-103400000D02*
X202800000Y-105550000D01*
X207650000Y-120187614D02*
X207650000Y-121224050D01*
X207112386Y-119650000D02*
X207650000Y-120187614D01*
%TO.N,/Status_Yellow*%
X213250000Y-120158685D02*
X213235301Y-120173384D01*
X213250000Y-114824500D02*
X213250000Y-120158685D01*
X215775000Y-108300000D02*
X216350000Y-108300000D01*
X214250000Y-112025500D02*
X215750000Y-110525500D01*
X214250000Y-113824500D02*
X213250000Y-114824500D01*
X215750000Y-108325000D02*
X215775000Y-108300000D01*
X213235301Y-121138748D02*
X213149999Y-121224050D01*
X215750000Y-110525500D02*
X215750000Y-108325000D01*
X213235301Y-120173384D02*
X213235301Y-121138748D01*
%TO.N,/Status_Green*%
X214450000Y-108300000D02*
X213875000Y-108300000D01*
X212850000Y-114224500D02*
X212850000Y-119993000D01*
X212650000Y-120193000D02*
X212650000Y-121224050D01*
X213200000Y-108975000D02*
X213200000Y-112025500D01*
X212850000Y-119993000D02*
X212650000Y-120193000D01*
X213250000Y-113824500D02*
X212850000Y-114224500D01*
X213875000Y-108300000D02*
X213200000Y-108975000D01*
D60*
%TO.N,Vdrive*%
X250000900Y-125051954D02*
X250000900Y-125652854D01*
X175934346Y-127000000D02*
X178550000Y-124384346D01*
X248652654Y-125799300D02*
X249400000Y-125051954D01*
X263425000Y-137300000D02*
X260331250Y-140393750D01*
X178330761Y-124150000D02*
X175300000Y-121119239D01*
X170200000Y-110400000D02*
X167137500Y-113462500D01*
X256131250Y-140762500D02*
X258231250Y-140762500D01*
X262676051Y-124460000D02*
X263425000Y-125208949D01*
X255618752Y-141274998D02*
X253349999Y-141274998D01*
X178550000Y-124384346D02*
X178550000Y-124150000D01*
X175300000Y-116319238D02*
X176444240Y-115174998D01*
X243100000Y-122500000D02*
X243100000Y-125262500D01*
X184887500Y-124937500D02*
X186900000Y-124937500D01*
X176444240Y-115174998D02*
X177650001Y-115174998D01*
X250000900Y-125652854D02*
X252848046Y-128500000D01*
X181000000Y-124150000D02*
X184100000Y-124150000D01*
X255050000Y-136199996D02*
X254524996Y-136725000D01*
X167150000Y-114514061D02*
X167150000Y-125801051D01*
X253831371Y-128500000D02*
X255050000Y-129718629D01*
X243636800Y-125799300D02*
X248652654Y-125799300D01*
X188450000Y-124100000D02*
X187612500Y-124937500D01*
X263425000Y-125208949D02*
X263425000Y-137300000D01*
X187612500Y-124937500D02*
X186900000Y-124937500D01*
X167137500Y-113462500D02*
X167137500Y-114501561D01*
X167137500Y-114501561D02*
X167150000Y-114514061D01*
X253831371Y-128500000D02*
X257656371Y-124675000D01*
X260331250Y-140800000D02*
X258268750Y-140800000D01*
X254524996Y-136725000D02*
X253349999Y-136725000D01*
X174500000Y-110437500D02*
X172400000Y-110437500D01*
X175300000Y-121119239D02*
X175300000Y-116319238D01*
X181000000Y-124150000D02*
X178550000Y-124150000D01*
X257794239Y-124675000D02*
X258009239Y-124460000D01*
X178550000Y-124150000D02*
X178330761Y-124150000D01*
X249400000Y-125051954D02*
X250000900Y-125051954D01*
X184100000Y-124150000D02*
X184887500Y-124937500D01*
X257656371Y-124675000D02*
X257794239Y-124675000D01*
X255050000Y-129718629D02*
X255050000Y-136199996D01*
X258009239Y-124460000D02*
X262676051Y-124460000D01*
X181000000Y-127240900D02*
X181000000Y-124150000D01*
X167150000Y-125801051D02*
X168348949Y-127000000D01*
X256131250Y-140762500D02*
X255618752Y-141274998D01*
X260331250Y-140393750D02*
X260331250Y-140800000D01*
X170200000Y-110400000D02*
X172362500Y-110400000D01*
X243100000Y-125262500D02*
X243636800Y-125799300D01*
X168348949Y-127000000D02*
X175934346Y-127000000D01*
X174687500Y-110625000D02*
X177650001Y-110625000D01*
X252848046Y-128500000D02*
X253831371Y-128500000D01*
D59*
%TO.N,Net-(D9-A)*%
X258500000Y-91400000D02*
X258700000Y-91600000D01*
X257400000Y-91400000D02*
X258500000Y-91400000D01*
X263000000Y-100300000D02*
X263725000Y-100300000D01*
X263725000Y-100300000D02*
X264400000Y-100975000D01*
%TO.N,Net-(D10-K)*%
X260700000Y-106200000D02*
X262000500Y-106200000D01*
X263600000Y-106675000D02*
X264400000Y-107475000D01*
X263600000Y-106400000D02*
X263600000Y-106675000D01*
X262000500Y-106200000D02*
X262200500Y-106400000D01*
%TO.N,Net-(D10-A)*%
X257400000Y-94500000D02*
X256900000Y-95000000D01*
X263800000Y-110125000D02*
X264400000Y-109525000D01*
X263800000Y-110700000D02*
X263800000Y-110125000D01*
X257400000Y-93500000D02*
X257400000Y-94500000D01*
%TO.N,/Hold\u002A*%
X218049501Y-145270405D02*
X218150000Y-145169906D01*
X218652942Y-155225000D02*
X219513971Y-154363971D01*
X218150000Y-145169906D02*
X218150000Y-142775950D01*
X212135000Y-152735000D02*
X214700000Y-155300000D01*
X218049501Y-146999501D02*
X218049501Y-145270405D01*
X219513971Y-154363971D02*
X219513971Y-148463971D01*
X210809100Y-152735000D02*
X212135000Y-152735000D01*
X217002944Y-155225000D02*
X218652942Y-155225000D01*
X216927944Y-155300000D02*
X217002944Y-155225000D01*
X214700000Y-155300000D02*
X216927944Y-155300000D01*
X219513971Y-148463971D02*
X218049501Y-146999501D01*
%TO.N,/USB_RST*%
X262300000Y-102398812D02*
X261701188Y-101800000D01*
X228514034Y-130450000D02*
X227714035Y-131249999D01*
X246600000Y-113934315D02*
X246600000Y-114118628D01*
X262300000Y-103200000D02*
X262300000Y-102398812D01*
X261701188Y-101800000D02*
X259300000Y-101800000D01*
X227714035Y-131249999D02*
X226175950Y-131249999D01*
X246600000Y-114118628D02*
X230268628Y-130450000D01*
X259300000Y-101800000D02*
X257900000Y-103200000D01*
X251600000Y-113700000D02*
X246834315Y-113700000D01*
X230268628Y-130450000D02*
X228514034Y-130450000D01*
X257900000Y-107400000D02*
X251600000Y-113700000D01*
X246834315Y-113700000D02*
X246600000Y-113934315D01*
X260700000Y-103660000D02*
X261840000Y-103660000D01*
X261840000Y-103660000D02*
X262300000Y-103200000D01*
X257900000Y-103200000D02*
X257900000Y-107400000D01*
D60*
%TO.N,Net-(U12-M+)*%
X177650001Y-114525000D02*
X176175000Y-114525000D01*
D59*
X178700000Y-114525000D02*
X177650001Y-114525000D01*
X178725000Y-114500000D02*
X178700000Y-114525000D01*
X178725000Y-111299998D02*
X178725000Y-114500000D01*
D60*
X171650000Y-119050000D02*
X171650000Y-123180000D01*
D59*
X177650001Y-111274998D02*
X178700000Y-111274998D01*
D60*
X176175000Y-114525000D02*
X171650000Y-119050000D01*
D59*
X178700000Y-111274998D02*
X178725000Y-111299998D01*
D60*
X171650000Y-123180000D02*
X169100000Y-125730000D01*
%TO.N,Net-(U12-M-)*%
X169175000Y-114750000D02*
X169175000Y-123115000D01*
X177650001Y-112900000D02*
X171025000Y-112900000D01*
X177650001Y-112900000D02*
X177650001Y-113225000D01*
X171025000Y-112900000D02*
X169175000Y-114750000D01*
X177650001Y-112574998D02*
X177650001Y-112900000D01*
D59*
%TO.N,Net-(U11-M+)*%
X252275000Y-140600000D02*
X252275000Y-137399998D01*
D60*
X258450000Y-129205000D02*
X261925000Y-125730000D01*
X254925002Y-137374998D02*
X258450000Y-133850000D01*
D59*
X252275000Y-137399998D02*
X252300000Y-137374998D01*
D60*
X253349999Y-137374998D02*
X254925002Y-137374998D01*
D59*
X253349999Y-140625000D02*
X252300000Y-140625000D01*
X252300000Y-140625000D02*
X252275000Y-140600000D01*
X252300000Y-137374998D02*
X253349999Y-137374998D01*
D60*
X258450000Y-133850000D02*
X258450000Y-129205000D01*
%TO.N,Net-(U11-M-)*%
X253349999Y-139325000D02*
X253349999Y-138674998D01*
X255500000Y-139000000D02*
X259098439Y-139000000D01*
X253349999Y-139325000D02*
X253649500Y-139025499D01*
X255474501Y-139025499D02*
X255500000Y-139000000D01*
X253649500Y-139025499D02*
X255474501Y-139025499D01*
X261850000Y-136248439D02*
X261850000Y-128345000D01*
X259098439Y-139000000D02*
X261850000Y-136248439D01*
D59*
%TO.N,/Fault1*%
X185800000Y-119400000D02*
X184800000Y-119400000D01*
X190393461Y-125648056D02*
X189150000Y-124404595D01*
X197452651Y-125648056D02*
X190393461Y-125648056D01*
X183750002Y-115174998D02*
X185329593Y-115174998D01*
X186000000Y-118200000D02*
X184800000Y-119400000D01*
X189150000Y-124404595D02*
X189150000Y-122750000D01*
X199054594Y-127249999D02*
X197452651Y-125648056D01*
X189150000Y-122750000D02*
X185800000Y-119400000D01*
X204624050Y-127249999D02*
X199054594Y-127249999D01*
X186000000Y-115845405D02*
X186000000Y-118200000D01*
X185329593Y-115174998D02*
X186000000Y-115845405D01*
%TO.N,Net-(R28-Pad2)*%
X252100000Y-133900000D02*
X252500000Y-133500000D01*
X252500000Y-132500000D02*
X251400000Y-132500000D01*
X253500000Y-132500000D02*
X252500000Y-132500000D01*
X253349999Y-135800000D02*
X252800002Y-135800000D01*
X253349999Y-135800000D02*
X253349999Y-136074999D01*
X252800002Y-135800000D02*
X252100000Y-135099998D01*
X253349999Y-135425000D02*
X253349999Y-135800000D01*
X252100000Y-135099998D02*
X252100000Y-133900000D01*
X252500000Y-133500000D02*
X252500000Y-132500000D01*
%TO.N,/MotorCurrent1*%
X176125000Y-112100500D02*
X176300500Y-111925000D01*
X176175000Y-113725500D02*
X176324498Y-113874998D01*
X199572702Y-125000000D02*
X201322702Y-126750000D01*
X190673056Y-124973056D02*
X190700000Y-125000000D01*
X176324498Y-113874998D02*
X177650001Y-113874998D01*
X190700000Y-125000000D02*
X199572702Y-125000000D01*
X201322702Y-126750000D02*
X204624050Y-126750000D01*
X176300500Y-111925000D02*
X177650001Y-111925000D01*
%TO.N,/Fault2*%
X244200000Y-134954595D02*
X244200000Y-132600000D01*
X247249998Y-136725000D02*
X245970405Y-136725000D01*
X226175950Y-133749999D02*
X243050001Y-133749999D01*
X245970405Y-136725000D02*
X244200000Y-134954595D01*
X243050001Y-133749999D02*
X244200000Y-132600000D01*
%TO.N,/MotorCurrent2*%
X226000000Y-143284315D02*
X226000000Y-144975500D01*
X216494901Y-141400000D02*
X224115685Y-141400000D01*
X216150001Y-142775950D02*
X216150001Y-141744900D01*
X224115685Y-141400000D02*
X226000000Y-143284315D01*
X254674998Y-139974998D02*
X253349999Y-139974998D01*
X226000000Y-144975500D02*
X226324500Y-145300000D01*
X216150001Y-141744900D02*
X216494901Y-141400000D01*
X254800000Y-140100000D02*
X254674998Y-139974998D01*
X254773435Y-138174498D02*
X254623937Y-138025000D01*
X254623937Y-138025000D02*
X253349999Y-138025000D01*
%TO.N,/Dir1*%
X239500000Y-136700000D02*
X238600000Y-137600000D01*
X227212386Y-137250000D02*
X226175950Y-137250000D01*
X246425000Y-138025000D02*
X245100000Y-136700000D01*
X247249998Y-138025000D02*
X246425000Y-138025000D01*
X227562386Y-137600000D02*
X227212386Y-137250000D01*
X245100000Y-136700000D02*
X239500000Y-136700000D01*
X238600000Y-137600000D02*
X227562386Y-137600000D01*
%TO.N,/Dir2*%
X215459674Y-113413562D02*
X215196112Y-113150000D01*
X190245281Y-114925000D02*
X185645281Y-114925000D01*
X220339194Y-119414695D02*
X220150001Y-119603888D01*
X184595279Y-113874998D02*
X183750002Y-113874998D01*
X220150001Y-119603888D02*
X220150001Y-121224050D01*
X215196112Y-113150000D02*
X192020281Y-113150000D01*
X192020281Y-113150000D02*
X190245281Y-114925000D01*
X185645281Y-114925000D02*
X184595279Y-113874998D01*
%TO.N,Net-(C1-Pad1)*%
X196700000Y-130200000D02*
X194500000Y-130200000D01*
X189700001Y-130200000D02*
X187800000Y-132100001D01*
X194500000Y-130200000D02*
X189700001Y-130200000D01*
X194462500Y-128200000D02*
X194462500Y-130162500D01*
X187800000Y-132100001D02*
X187800000Y-133600000D01*
%TO.N,Net-(U10-V3P3OUT)*%
X184637500Y-121400000D02*
X182600000Y-119362500D01*
X183750002Y-117124999D02*
X183750002Y-117499998D01*
X179400000Y-121300000D02*
X180662500Y-121300000D01*
X183750002Y-117499998D02*
X182600000Y-118650000D01*
X180662500Y-121300000D02*
X182600000Y-119362500D01*
X182600000Y-118650000D02*
X182600000Y-119362500D01*
%TO.N,Net-(U10-CP1)*%
X177650001Y-108674999D02*
X177650001Y-107324999D01*
X177650001Y-107324999D02*
X178675000Y-106300000D01*
%TO.N,Net-(U10-CP2)*%
X177650001Y-109325000D02*
X176600002Y-109325000D01*
X176200000Y-108924998D02*
X176200000Y-106700000D01*
X176600002Y-109325000D02*
X176200000Y-108924998D01*
%TO.N,Net-(U10-VCP)*%
X172400000Y-108362500D02*
X170237500Y-108362500D01*
X172400000Y-108362500D02*
X173612500Y-109575000D01*
X176684315Y-109974999D02*
X177650001Y-109974999D01*
X173612500Y-109575000D02*
X176284316Y-109575000D01*
X176284316Y-109575000D02*
X176684315Y-109974999D01*
%TO.N,Net-(U13-V3P3OUT)*%
X246300000Y-132600000D02*
X247249998Y-133549998D01*
X244200000Y-130600000D02*
X246200000Y-132600000D01*
X247249998Y-133650002D02*
X247249998Y-134774999D01*
X247249998Y-133549998D02*
X247249998Y-133650002D01*
X251400000Y-130500000D02*
X250400000Y-130500000D01*
X250400000Y-130500000D02*
X247249998Y-133650002D01*
%TO.N,Net-(U13-CP1)*%
X253349999Y-143224999D02*
X253349999Y-143899999D01*
X253349999Y-143899999D02*
X251787498Y-145462500D01*
X251787498Y-145462500D02*
X248000000Y-145462500D01*
%TO.N,Net-(U13-CP2)*%
X254399998Y-142574998D02*
X253349999Y-142574998D01*
X251262500Y-147537500D02*
X248000000Y-147537500D01*
X254800000Y-144000000D02*
X251262500Y-147537500D01*
X254800000Y-142975000D02*
X254399998Y-142574998D01*
X254800000Y-144000000D02*
X254800000Y-142975000D01*
%TO.N,Net-(U13-VCP)*%
X257318749Y-141924999D02*
X258231250Y-142837500D01*
X260331250Y-142800000D02*
X258268750Y-142800000D01*
X253349999Y-141924999D02*
X257318749Y-141924999D01*
%TO.N,Net-(D6-K)*%
X224600000Y-156500000D02*
X224350000Y-156750000D01*
X225000000Y-156500000D02*
X224600000Y-156500000D01*
X224350000Y-156750000D02*
X224350000Y-163850000D01*
X224350000Y-163850000D02*
X225800000Y-165300000D01*
%TO.N,Net-(J9-D-)*%
X254460000Y-104990000D02*
X253200000Y-103730000D01*
X253200000Y-103730000D02*
X253200000Y-100838812D01*
X253200000Y-100838812D02*
X258988812Y-95050000D01*
X255700000Y-104990000D02*
X254460000Y-104990000D01*
X258988812Y-95050000D02*
X261225000Y-95050000D01*
%TO.N,Net-(J9-D+)*%
X252600000Y-105130000D02*
X252600000Y-100600000D01*
X252600000Y-100600000D02*
X258800000Y-94400000D01*
X255700000Y-106260000D02*
X253730000Y-106260000D01*
X258800000Y-94400000D02*
X261225000Y-94400000D01*
X253730000Y-106260000D02*
X252600000Y-105130000D01*
%TO.N,Net-(R18-Pad2)*%
X177650001Y-115824999D02*
X177650001Y-116150000D01*
X179400000Y-117300000D02*
X179400000Y-119300000D01*
X177200000Y-119300000D02*
X179400000Y-119300000D01*
X177650001Y-116150000D02*
X177650001Y-116474998D01*
X178250000Y-116150000D02*
X179400000Y-117300000D01*
X177650001Y-116150000D02*
X178250000Y-116150000D01*
%TO.N,Net-(U10-I0)*%
X186850000Y-113550000D02*
X185225000Y-111925000D01*
X185225000Y-111925000D02*
X183750002Y-111925000D01*
%TO.N,Net-(U10-I1)*%
X186574998Y-111274998D02*
X183750002Y-111274998D01*
%TO.N,Net-(U10-I2)*%
X186850000Y-109550000D02*
X185775000Y-110625000D01*
X185775000Y-110625000D02*
X183750002Y-110625000D01*
%TO.N,Net-(U10-I3)*%
X184715688Y-109974999D02*
X183750002Y-109974999D01*
X186850000Y-107840687D02*
X184715688Y-109974999D01*
%TO.N,Net-(U10-I4)*%
X185200000Y-108925001D02*
X185200000Y-107550000D01*
X184800001Y-109325000D02*
X185200000Y-108925001D01*
X185200000Y-107550000D02*
X186850000Y-105900000D01*
X183750002Y-109325000D02*
X184800001Y-109325000D01*
%TO.N,Net-(U13-I0)*%
X245474998Y-139974998D02*
X243800000Y-138300000D01*
X247249998Y-139974998D02*
X245474998Y-139974998D01*
%TO.N,Net-(U13-I1)*%
X247249998Y-140625000D02*
X244125000Y-140625000D01*
%TO.N,Net-(U13-I2)*%
X244825002Y-141274998D02*
X243800000Y-142300000D01*
X247249998Y-141274998D02*
X244825002Y-141274998D01*
%TO.N,Net-(U13-I3)*%
X245920405Y-141924999D02*
X243800000Y-144045404D01*
X247249998Y-141924999D02*
X245920405Y-141924999D01*
%TO.N,Net-(U13-I4)*%
X247249998Y-142574998D02*
X246199999Y-142574998D01*
X244700000Y-145500000D02*
X243800000Y-146400000D01*
X244700000Y-144074997D02*
X244700000Y-145500000D01*
X246199999Y-142574998D02*
X244700000Y-144074997D01*
%TO.N,Net-(D7-K)*%
X222300000Y-165300000D02*
X222300000Y-164938173D01*
X223500000Y-163738173D02*
X223500000Y-158900000D01*
X223500000Y-158900000D02*
X223100000Y-158500000D01*
X222300000Y-164938173D02*
X223500000Y-163738173D01*
X223100000Y-158500000D02*
X223100000Y-157800000D01*
%TO.N,/RE7*%
X191210000Y-117510000D02*
X192550000Y-118850000D01*
X202865686Y-124750000D02*
X203365687Y-125250001D01*
X196025000Y-118850000D02*
X201925000Y-124750000D01*
X203365687Y-125250001D02*
X204624050Y-125250001D01*
X201925000Y-124750000D02*
X202865686Y-124750000D01*
X192550000Y-118850000D02*
X196025000Y-118850000D01*
%TO.N,/RJ8*%
X202846111Y-126249999D02*
X204624050Y-126249999D01*
X202460933Y-125864821D02*
X202846111Y-126249999D01*
D60*
%TO.N,Net-(J4-VBUS)*%
X220400000Y-88200000D02*
X219300000Y-89300000D01*
X218904900Y-89695100D02*
X218876650Y-89695100D01*
X220400000Y-88200000D02*
X218904900Y-89695100D01*
X219300000Y-89300000D02*
X215100001Y-89300000D01*
X217700000Y-97324800D02*
X219500000Y-99124800D01*
X217700000Y-90871750D02*
X217700000Y-97324800D01*
X220400000Y-86475000D02*
X220400000Y-88200000D01*
X215100001Y-89300000D02*
X211850000Y-86049999D01*
X218876650Y-89695100D02*
X217700000Y-90871750D01*
D59*
%TO.N,Net-(J2-Pin_1)*%
X178695000Y-85435000D02*
X177520000Y-84260000D01*
X182125000Y-90100000D02*
X183025000Y-91000000D01*
X176200000Y-87200000D02*
X179100000Y-90100000D01*
X180060000Y-84260000D02*
X182600000Y-84260000D01*
X177520000Y-84260000D02*
X180060000Y-84260000D01*
X183900000Y-85500000D02*
X185140000Y-84260000D01*
X176200000Y-85480000D02*
X176200000Y-87200000D01*
X178885000Y-87685000D02*
X178885000Y-85625000D01*
X182600000Y-84260000D02*
X185140000Y-84260000D01*
X181235000Y-85625000D02*
X182600000Y-84260000D01*
X180575800Y-89375800D02*
X178885000Y-87685000D01*
X180575800Y-90100000D02*
X182125000Y-90100000D01*
X180575800Y-90100000D02*
X181235000Y-89440800D01*
X178885000Y-85625000D02*
X178695000Y-85435000D01*
X180060000Y-84260000D02*
X178885000Y-85435000D01*
X179100000Y-90100000D02*
X180575800Y-90100000D01*
X181235000Y-89440800D02*
X181235000Y-85625000D01*
X177520000Y-84260000D02*
X174980000Y-84260000D01*
X183900000Y-87358000D02*
X183900000Y-85500000D01*
X180575800Y-90100000D02*
X180575800Y-89375800D01*
X181158000Y-90100000D02*
X183900000Y-87358000D01*
X174980000Y-84260000D02*
X176200000Y-85480000D01*
X178885000Y-85435000D02*
X178695000Y-85435000D01*
D60*
%TO.N,Net-(F1-Pad1)*%
X228350000Y-100050000D02*
X219500000Y-91200000D01*
X228350000Y-109400000D02*
X228350000Y-100050000D01*
D59*
%TO.N,Net-(D1-A)*%
X207500000Y-86300000D02*
X206075000Y-86300000D01*
X206075000Y-86300000D02*
X205300000Y-85525000D01*
%TD*%
M02*
