M48
; DRILL file {KiCad 9.0.2} date 2025-05-28T14:02:19-0700
; FORMAT={-:-/ absolute / inch / decimal}
; #@! TF.CreationDate,2025-05-28T14:02:19-07:00
; #@! TF.GenerationSoftware,Kicad,Pcbnew,9.0.2
; #@! TF.FileFunction,Plated,1,2,PTH
FMAT,2
INCH
; #@! TA.AperFunction,Plated,PTH,ViaDrill
T1C0.0157
; #@! TA.AperFunction,Plated,PTH,ComponentDrill
T2C0.0394
; #@! TA.AperFunction,Plated,PTH,ComponentDrill
T3C0.0394
; #@! TA.AperFunction,Plated,PTH,ComponentDrill
T4C0.0469
%
G90
G05
T1
X7.563Y-6.1654
X7.6496Y-6.063
X7.8039Y-6.0165
X7.811Y-5.5512
X7.8583Y-5.4724
X7.8661Y-6.0472
X7.9921Y-5.4823
X7.9921Y-5.6181
X7.9961Y-6.122
X8.0Y-6.0394
X8.0945Y-5.8858
X8.1457Y-5.9449
X8.1772Y-5.4843
X8.185Y-6.0354
X8.2165Y-6.0669
X8.2244Y-6.3601
X8.2677Y-5.3454
X8.3268Y-5.374
X8.3469Y-5.9752
X8.4685Y-5.5315
X8.5236Y-5.4213
X8.5669Y-5.6575
X8.5945Y-5.5709
X8.6102Y-6.0118
T2
X7.7756Y-5.6969
X7.7756Y-5.9528
X7.9528Y-5.6969
X7.9528Y-5.9528
T3
X7.7333Y-5.2833
X7.8333Y-5.2833
X7.9333Y-5.2833
X8.0333Y-5.2833
X8.1333Y-5.2833
T4
X7.4488Y-5.5394
X7.4488Y-5.6394
X7.4488Y-5.7394
X7.4488Y-5.8394
X7.4488Y-5.9394
X7.4488Y-6.0394
X7.6496Y-6.2756
X7.7496Y-6.2756
X7.8496Y-6.2756
X7.9496Y-6.2756
X8.0496Y-6.2756
X8.1496Y-6.2756
X8.2953Y-6.2756
X8.3953Y-6.2756
X8.4953Y-6.2756
X8.5953Y-6.2756
X8.6953Y-6.2756
X8.7953Y-6.2756
M30
