%TF.GenerationSoftware,KiCad,Pcbnew,9.0.2*%
%TF.CreationDate,2025-05-28T14:02:20-07:00*%
%TF.ProjectId,MCU_DSP,4d43555f-4453-4502-9e6b-696361645f70,2.0*%
%TF.SameCoordinates,Original*%
%TF.FileFunction,Copper,L2,Bot*%
%TF.FilePolarity,Positive*%
%FSLAX46Y46*%
G04 Gerber Fmt 4.6, Leading zero omitted, Abs format (unit mm)*
G04 Created by KiCad (PCBNEW 9.0.2) date 2025-05-28 14:02:20*
%MOMM*%
%LPD*%
G01*
G04 APERTURE LIST*
G04 Aperture macros list*
%AMRoundRect*
0 Rectangle with rounded corners*
0 $1 Rounding radius*
0 $2 $3 $4 $5 $6 $7 $8 $9 X,Y pos of 4 corners*
0 Add a 4 corners polygon primitive as box body*
4,1,4,$2,$3,$4,$5,$6,$7,$8,$9,$2,$3,0*
0 Add four circle primitives for the rounded corners*
1,1,$1+$1,$2,$3*
1,1,$1+$1,$4,$5*
1,1,$1+$1,$6,$7*
1,1,$1+$1,$8,$9*
0 Add four rect primitives between the rounded corners*
20,1,$1+$1,$2,$3,$4,$5,0*
20,1,$1+$1,$4,$5,$6,$7,0*
20,1,$1+$1,$6,$7,$8,$9,0*
20,1,$1+$1,$8,$9,$2,$3,0*%
G04 Aperture macros list end*
%TA.AperFunction,ComponentPad*%
%ADD10R,1.700000X1.700000*%
%TD*%
%TA.AperFunction,ComponentPad*%
%ADD11O,1.700000X1.700000*%
%TD*%
%TA.AperFunction,ComponentPad*%
%ADD12RoundRect,0.250000X0.845000X-0.620000X0.845000X0.620000X-0.845000X0.620000X-0.845000X-0.620000X0*%
%TD*%
%TA.AperFunction,ComponentPad*%
%ADD13O,2.190000X1.740000*%
%TD*%
%TA.AperFunction,ComponentPad*%
%ADD14RoundRect,0.250000X0.620000X0.845000X-0.620000X0.845000X-0.620000X-0.845000X0.620000X-0.845000X0*%
%TD*%
%TA.AperFunction,ComponentPad*%
%ADD15O,1.740000X2.190000*%
%TD*%
%TA.AperFunction,ComponentPad*%
%ADD16C,1.507998*%
%TD*%
%TA.AperFunction,SMDPad,CuDef*%
%ADD17RoundRect,0.250000X-0.350000X-0.450000X0.350000X-0.450000X0.350000X0.450000X-0.350000X0.450000X0*%
%TD*%
%TA.AperFunction,SMDPad,CuDef*%
%ADD18RoundRect,0.250000X0.350000X0.450000X-0.350000X0.450000X-0.350000X-0.450000X0.350000X-0.450000X0*%
%TD*%
%TA.AperFunction,SMDPad,CuDef*%
%ADD19RoundRect,0.250000X-0.450000X0.350000X-0.450000X-0.350000X0.450000X-0.350000X0.450000X0.350000X0*%
%TD*%
%TA.AperFunction,SMDPad,CuDef*%
%ADD20RoundRect,0.250000X-0.337500X-0.475000X0.337500X-0.475000X0.337500X0.475000X-0.337500X0.475000X0*%
%TD*%
%TA.AperFunction,ViaPad*%
%ADD21C,0.800000*%
%TD*%
%TA.AperFunction,Conductor*%
%ADD22C,0.250000*%
%TD*%
G04 APERTURE END LIST*
D10*
%TO.P,J1,1,Pin_1*%
%TO.N,Net-(IC1-PGC1{slash}OA1IN+_{slash}_AN4_{slash}_C1IN1+_{slash}_C1IN3-_{slash}_RPB2_{slash}_RB2)*%
X196425000Y-134195000D03*
D11*
%TO.P,J1,2,Pin_2*%
%TO.N,Net-(IC1-PGD1{slash}OA1IN-_{slash}_AN5_{slash}_CTCMP_{slash}_C1IN1-_{slash}_RTCC_{slash}_RPB3_{slash}_RB3)*%
X198965000Y-134195000D03*
%TO.P,J1,3,Pin_3*%
%TO.N,GND*%
X201505000Y-134195000D03*
%TO.P,J1,4,Pin_4*%
%TO.N,+3V3*%
X204045000Y-134195000D03*
%TO.P,J1,5,Pin_5*%
%TO.N,Net-(IC1-~{MCLR})*%
X206585000Y-134195000D03*
%TD*%
D12*
%TO.P,J2,1,Pin_1*%
%TO.N,GND*%
X189200000Y-153400000D03*
D13*
%TO.P,J2,2,Pin_2*%
%TO.N,Net-(IC1-AN15_{slash}_RPB7_{slash}_SCK1_{slash}_INT0_{slash}_RB7)*%
X189200000Y-150860000D03*
%TO.P,J2,3,Pin_3*%
%TO.N,+3V3*%
X189200000Y-148320000D03*
%TO.P,J2,4,Pin_4*%
%TO.N,Net-(IC1-OA2OUT_{slash}_AN0_{slash}_C2IN2-_{slash}_RPA0_{slash}_RA0)*%
X189200000Y-145780000D03*
%TO.P,J2,5,Pin_5*%
%TO.N,Net-(IC1-RPA7_{slash}_PWML4_{slash}_RA7)*%
X189200000Y-143240000D03*
%TO.P,J2,6,Pin_6*%
%TO.N,GND*%
X189200000Y-140700000D03*
%TD*%
D14*
%TO.P,J3,1,Pin_1*%
%TO.N,GND*%
X207000000Y-159400000D03*
D15*
%TO.P,J3,2,Pin_2*%
%TO.N,Net-(IC1-AN15_{slash}_RPB7_{slash}_SCK1_{slash}_INT0_{slash}_RB7)*%
X204460000Y-159400000D03*
%TO.P,J3,3,Pin_3*%
%TO.N,+3V3*%
X201920000Y-159400000D03*
%TO.P,J3,4,Pin_4*%
%TO.N,Net-(IC1-OA2OUT_{slash}_AN0_{slash}_C2IN2-_{slash}_RPA0_{slash}_RA0)*%
X199380000Y-159400000D03*
%TO.P,J3,5,Pin_5*%
%TO.N,Net-(IC1-RPA7_{slash}_PWML4_{slash}_RA7)*%
X196840000Y-159400000D03*
%TO.P,J3,6,Pin_6*%
%TO.N,+3V3*%
X194300000Y-159400000D03*
%TD*%
D16*
%TO.P,SW1,1,1*%
%TO.N,Net-(C6-Pad1)*%
X197499999Y-151200002D03*
%TO.P,SW1,2*%
%TO.N,N/C*%
X197499999Y-144700000D03*
%TO.P,SW1,3*%
X202000000Y-151200002D03*
%TO.P,SW1,4,4*%
%TO.N,GND*%
X202000000Y-144700000D03*
%TD*%
D14*
%TO.P,J5,1,Pin_1*%
%TO.N,+3V3*%
X223400000Y-159400000D03*
D15*
%TO.P,J5,2,Pin_2*%
%TO.N,GND*%
X220860000Y-159400000D03*
%TO.P,J5,3,Pin_3*%
%TO.N,Net-(IC1-PGC2{slash}RPB6_{slash}_SCL1_{slash}_RB6)*%
X218320000Y-159400000D03*
%TO.P,J5,4,Pin_4*%
%TO.N,Net-(IC1-PGD2{slash}_RPB5_{slash}_SDA1_{slash}_RB5)*%
X215780000Y-159400000D03*
%TO.P,J5,5,Pin_5*%
%TO.N,Net-(IC1-SOSCO_{slash}_RPB8_{slash}_T1CK_{slash}_RB8)*%
X213240000Y-159400000D03*
%TO.P,J5,6,Pin_6*%
%TO.N,Net-(IC1-RPD8_{slash}_RD8)*%
X210700000Y-159400000D03*
%TD*%
D17*
%TO.P,R3,1*%
%TO.N,Net-(IC1-OA2OUT_{slash}_AN0_{slash}_C2IN2-_{slash}_RPA0_{slash}_RA0)*%
X199300000Y-154900000D03*
%TO.P,R3,2*%
%TO.N,GND*%
X201300000Y-154900000D03*
%TD*%
D18*
%TO.P,R1,1*%
%TO.N,+3V3*%
X201100000Y-146900000D03*
%TO.P,R1,2*%
%TO.N,Net-(C6-Pad1)*%
X199100000Y-146900000D03*
%TD*%
D19*
%TO.P,R4,1*%
%TO.N,+3V3*%
X197000000Y-140000000D03*
%TO.P,R4,2*%
%TO.N,Net-(D1-A)*%
X197000000Y-142000000D03*
%TD*%
D17*
%TO.P,R2,1*%
%TO.N,Net-(C6-Pad1)*%
X199000000Y-142500000D03*
%TO.P,R2,2*%
%TO.N,Net-(IC1-~{MCLR})*%
X201000000Y-142500000D03*
%TD*%
D18*
%TO.P,R5,1*%
%TO.N,+3V3*%
X206400000Y-152700000D03*
%TO.P,R5,2*%
%TO.N,Net-(D2-A)*%
X204400000Y-152700000D03*
%TD*%
D20*
%TO.P,C6,1*%
%TO.N,Net-(C6-Pad1)*%
X199062500Y-149000000D03*
%TO.P,C6,2*%
%TO.N,GND*%
X201137500Y-149000000D03*
%TD*%
D21*
%TO.N,GND*%
X218300000Y-141500000D03*
X203100000Y-155500000D03*
X218700000Y-152700000D03*
X212010000Y-151770000D03*
X192100000Y-156600000D03*
X208700000Y-154100000D03*
X211500000Y-136500000D03*
%TO.N,+3V3*%
X198218750Y-152818750D03*
X210000000Y-135774000D03*
X199600000Y-139000000D03*
X194300000Y-154000000D03*
X208900000Y-161546000D03*
%TO.N,Net-(D1-K)*%
X207700000Y-139300000D03*
X216500000Y-137700000D03*
%TO.N,Net-(D1-A)*%
X198400000Y-141000000D03*
%TO.N,Net-(D2-K)*%
X215100000Y-140500000D03*
X207900000Y-153300000D03*
%TO.N,Net-(D2-A)*%
X203200000Y-153400000D03*
%TO.N,Net-(IC1-~{MCLR})*%
X203000000Y-139250000D03*
X203000000Y-142700000D03*
%TO.N,Net-(IC1-OA2OUT_{slash}_AN0_{slash}_C2IN2-_{slash}_RPA0_{slash}_RA0)*%
X199800000Y-153600000D03*
%TO.N,Net-(IC1-PGC1{slash}OA1IN+_{slash}_AN4_{slash}_C1IN1+_{slash}_C1IN3-_{slash}_RPB2_{slash}_RB2)*%
X205600000Y-149500000D03*
%TO.N,Net-(IC1-PGD1{slash}OA1IN-_{slash}_AN5_{slash}_CTCMP_{slash}_C1IN1-_{slash}_RTCC_{slash}_RPB3_{slash}_RB3)*%
X206900000Y-151000000D03*
%TO.N,Net-(IC1-AN15_{slash}_RPB7_{slash}_SCK1_{slash}_INT0_{slash}_RB7)*%
X217600000Y-143700000D03*
%TD*%
D22*
%TO.N,GND*%
X218700000Y-144162190D02*
X218700000Y-141900000D01*
X202753999Y-145453999D02*
X202000000Y-144700000D01*
X201137500Y-149000000D02*
X200600000Y-149537500D01*
X211030000Y-151770000D02*
X208700000Y-154100000D01*
X219439000Y-160821000D02*
X208421000Y-160821000D01*
X220860000Y-159400000D02*
X219439000Y-160821000D01*
X189200000Y-140700000D02*
X187300000Y-142600000D01*
X189200000Y-153400000D02*
X192100000Y-156300000D01*
X201300000Y-154900000D02*
X202500000Y-154900000D01*
X187300000Y-142600000D02*
X187300000Y-151500000D01*
X212010000Y-151770000D02*
X211030000Y-151770000D01*
X218751000Y-144213190D02*
X218700000Y-144162190D01*
X218700000Y-152700000D02*
X218700000Y-156300000D01*
X200600000Y-154200000D02*
X201300000Y-154900000D01*
X218700000Y-141900000D02*
X218300000Y-141500000D01*
X203810000Y-136500000D02*
X201505000Y-134195000D01*
X208421000Y-160821000D02*
X207000000Y-159400000D01*
X218751000Y-151886810D02*
X218751000Y-144213190D01*
X202753999Y-147383501D02*
X202753999Y-145453999D01*
X192100000Y-156300000D02*
X192100000Y-156600000D01*
X202500000Y-154900000D02*
X203100000Y-155500000D01*
X218700000Y-151937810D02*
X218751000Y-151886810D01*
X200600000Y-149537500D02*
X200600000Y-154200000D01*
X211500000Y-136500000D02*
X203810000Y-136500000D01*
X218700000Y-156300000D02*
X220860000Y-158460000D01*
X218700000Y-152700000D02*
X218700000Y-151937810D01*
X201137500Y-149000000D02*
X202753999Y-147383501D01*
X187300000Y-151500000D02*
X189200000Y-153400000D01*
%TO.N,+3V3*%
X221254000Y-161546000D02*
X223400000Y-159400000D01*
X210000000Y-135774000D02*
X216274000Y-135774000D01*
X223400000Y-142900000D02*
X223400000Y-159400000D01*
X216274000Y-135774000D02*
X223400000Y-142900000D01*
X201920000Y-159400000D02*
X204066000Y-161546000D01*
X195721000Y-160821000D02*
X200499000Y-160821000D01*
X200149000Y-147851000D02*
X200149000Y-150888500D01*
X200499000Y-160821000D02*
X201920000Y-159400000D01*
X200149000Y-150888500D02*
X198218750Y-152818750D01*
X194300000Y-154000000D02*
X194300000Y-159400000D01*
X189200000Y-148320000D02*
X194300000Y-153420000D01*
X195100000Y-140000000D02*
X197000000Y-140000000D01*
X197000000Y-140000000D02*
X198600000Y-140000000D01*
X194300000Y-159400000D02*
X195721000Y-160821000D01*
X194300000Y-153420000D02*
X194300000Y-154000000D01*
X206400000Y-154920000D02*
X201920000Y-159400000D01*
X204045000Y-134195000D02*
X205624000Y-135774000D01*
X198600000Y-140000000D02*
X199600000Y-139000000D01*
X204066000Y-161546000D02*
X221254000Y-161546000D01*
X206400000Y-152700000D02*
X206400000Y-154920000D01*
X205624000Y-135774000D02*
X210000000Y-135774000D01*
X201100000Y-146900000D02*
X200149000Y-147851000D01*
%TO.N,Net-(C6-Pad1)*%
X199062500Y-149637501D02*
X197499999Y-151200002D01*
X199100000Y-146900000D02*
X199100000Y-148962500D01*
X199062500Y-149000000D02*
X199062500Y-149637501D01*
X199000000Y-142500000D02*
X199000000Y-146800000D01*
%TO.N,Net-(D1-K)*%
X209300000Y-137700000D02*
X216500000Y-137700000D01*
X207700000Y-139300000D02*
X209300000Y-137700000D01*
%TO.N,Net-(D1-A)*%
X197400000Y-142000000D02*
X198400000Y-141000000D01*
%TO.N,Net-(D2-K)*%
X215100000Y-140500000D02*
X215100000Y-141319601D01*
X215100000Y-141319601D02*
X207900000Y-148519601D01*
X207900000Y-148519601D02*
X207900000Y-153300000D01*
%TO.N,Net-(D2-A)*%
X204400000Y-152700000D02*
X203900000Y-152700000D01*
X203900000Y-152700000D02*
X203200000Y-153400000D01*
%TO.N,Net-(IC1-~{MCLR})*%
X202800000Y-142500000D02*
X203000000Y-142700000D01*
X201000000Y-142500000D02*
X202800000Y-142500000D01*
X203000000Y-139250000D02*
X203000000Y-142700000D01*
%TO.N,Net-(IC1-OA2OUT_{slash}_AN0_{slash}_C2IN2-_{slash}_RPA0_{slash}_RA0)*%
X199300000Y-154900000D02*
X198320000Y-154900000D01*
X198320000Y-154900000D02*
X189200000Y-145780000D01*
X199380000Y-159400000D02*
X199380000Y-154980000D01*
X199300000Y-154100000D02*
X199800000Y-153600000D01*
X199300000Y-154900000D02*
X199300000Y-154100000D01*
%TO.N,Net-(IC1-PGC1{slash}OA1IN+_{slash}_AN4_{slash}_C1IN1+_{slash}_C1IN3-_{slash}_RPB2_{slash}_RB2)*%
X203900000Y-139123280D02*
X202476720Y-137700000D01*
X205600000Y-149500000D02*
X204800000Y-149500000D01*
X204800000Y-149500000D02*
X203900000Y-148600000D01*
X203900000Y-148600000D02*
X203900000Y-139123280D01*
X202476720Y-137700000D02*
X199930000Y-137700000D01*
X199930000Y-137700000D02*
X196425000Y-134195000D01*
%TO.N,Net-(IC1-PGD1{slash}OA1IN-_{slash}_AN5_{slash}_CTCMP_{slash}_C1IN1-_{slash}_RTCC_{slash}_RPB3_{slash}_RB3)*%
X206500000Y-150600000D02*
X206500000Y-139274720D01*
X204225280Y-137000000D02*
X201770000Y-137000000D01*
X206900000Y-151000000D02*
X206500000Y-150600000D01*
X201770000Y-137000000D02*
X198965000Y-134195000D01*
X206500000Y-139274720D02*
X204225280Y-137000000D01*
%TO.N,Net-(IC1-AN15_{slash}_RPB7_{slash}_SCK1_{slash}_INT0_{slash}_RB7)*%
X214600000Y-155400000D02*
X207600000Y-155400000D01*
X218300000Y-144400000D02*
X218300000Y-151700000D01*
X218300000Y-151700000D02*
X214600000Y-155400000D01*
X207600000Y-155400000D02*
X204460000Y-158540000D01*
X217600000Y-143700000D02*
X218300000Y-144400000D01*
%TD*%
M02*
