%TF.GenerationSoftware,KiCad,Pcbnew,9.0.2*%
%TF.CreationDate,2025-05-28T14:02:20-07:00*%
%TF.ProjectId,MCU_DSP,4d43555f-4453-4502-9e6b-696361645f70,2.0*%
%TF.SameCoordinates,Original*%
%TF.FileFunction,Copper,L1,Top*%
%TF.FilePolarity,Positive*%
%FSLAX46Y46*%
G04 Gerber Fmt 4.6, Leading zero omitted, Abs format (unit mm)*
G04 Created by KiCad (PCBNEW 9.0.2) date 2025-05-28 14:02:20*
%MOMM*%
%LPD*%
G01*
G04 APERTURE LIST*
G04 Aperture macros list*
%AMRoundRect*
0 Rectangle with rounded corners*
0 $1 Rounding radius*
0 $2 $3 $4 $5 $6 $7 $8 $9 X,Y pos of 4 corners*
0 Add a 4 corners polygon primitive as box body*
4,1,4,$2,$3,$4,$5,$6,$7,$8,$9,$2,$3,0*
0 Add four circle primitives for the rounded corners*
1,1,$1+$1,$2,$3*
1,1,$1+$1,$4,$5*
1,1,$1+$1,$6,$7*
1,1,$1+$1,$8,$9*
0 Add four rect primitives between the rounded corners*
20,1,$1+$1,$2,$3,$4,$5,0*
20,1,$1+$1,$4,$5,$6,$7,0*
20,1,$1+$1,$6,$7,$8,$9,0*
20,1,$1+$1,$8,$9,$2,$3,0*%
G04 Aperture macros list end*
%TA.AperFunction,ComponentPad*%
%ADD10R,1.700000X1.700000*%
%TD*%
%TA.AperFunction,ComponentPad*%
%ADD11O,1.700000X1.700000*%
%TD*%
%TA.AperFunction,SMDPad,CuDef*%
%ADD12R,1.549400X0.279400*%
%TD*%
%TA.AperFunction,SMDPad,CuDef*%
%ADD13R,0.279400X1.549400*%
%TD*%
%TA.AperFunction,ComponentPad*%
%ADD14RoundRect,0.250000X0.845000X-0.620000X0.845000X0.620000X-0.845000X0.620000X-0.845000X-0.620000X0*%
%TD*%
%TA.AperFunction,ComponentPad*%
%ADD15O,2.190000X1.740000*%
%TD*%
%TA.AperFunction,ComponentPad*%
%ADD16RoundRect,0.250000X0.620000X0.845000X-0.620000X0.845000X-0.620000X-0.845000X0.620000X-0.845000X0*%
%TD*%
%TA.AperFunction,ComponentPad*%
%ADD17O,1.740000X2.190000*%
%TD*%
%TA.AperFunction,SMDPad,CuDef*%
%ADD18RoundRect,0.250000X0.337500X0.475000X-0.337500X0.475000X-0.337500X-0.475000X0.337500X-0.475000X0*%
%TD*%
%TA.AperFunction,ComponentPad*%
%ADD19C,1.507998*%
%TD*%
%TA.AperFunction,SMDPad,CuDef*%
%ADD20RoundRect,0.250000X-0.475000X0.337500X-0.475000X-0.337500X0.475000X-0.337500X0.475000X0.337500X0*%
%TD*%
%TA.AperFunction,SMDPad,CuDef*%
%ADD21RoundRect,0.250000X0.325000X0.450000X-0.325000X0.450000X-0.325000X-0.450000X0.325000X-0.450000X0*%
%TD*%
%TA.AperFunction,SMDPad,CuDef*%
%ADD22RoundRect,0.250000X-0.450000X0.325000X-0.450000X-0.325000X0.450000X-0.325000X0.450000X0.325000X0*%
%TD*%
%TA.AperFunction,SMDPad,CuDef*%
%ADD23RoundRect,0.250000X0.475000X-0.337500X0.475000X0.337500X-0.475000X0.337500X-0.475000X-0.337500X0*%
%TD*%
%TA.AperFunction,SMDPad,CuDef*%
%ADD24R,0.650000X0.400000*%
%TD*%
%TA.AperFunction,ViaPad*%
%ADD25C,0.800000*%
%TD*%
%TA.AperFunction,Conductor*%
%ADD26C,0.250000*%
%TD*%
G04 APERTURE END LIST*
D10*
%TO.P,J1,1,Pin_1*%
%TO.N,Net-(IC1-PGC1{slash}OA1IN+_{slash}_AN4_{slash}_C1IN1+_{slash}_C1IN3-_{slash}_RPB2_{slash}_RB2)*%
X196425000Y-134195000D03*
D11*
%TO.P,J1,2,Pin_2*%
%TO.N,Net-(IC1-PGD1{slash}OA1IN-_{slash}_AN5_{slash}_CTCMP_{slash}_C1IN1-_{slash}_RTCC_{slash}_RPB3_{slash}_RB3)*%
X198965000Y-134195000D03*
%TO.P,J1,3,Pin_3*%
%TO.N,GND*%
X201505000Y-134195000D03*
%TO.P,J1,4,Pin_4*%
%TO.N,+3V3*%
X204045000Y-134195000D03*
%TO.P,J1,5,Pin_5*%
%TO.N,Net-(IC1-~{MCLR})*%
X206585000Y-134195000D03*
%TD*%
D12*
%TO.P,IC1,1,RPA7_/_PWML4_/_RA7*%
%TO.N,Net-(IC1-RPA7_{slash}_PWML4_{slash}_RA7)*%
X206994700Y-142474799D03*
%TO.P,IC1,2,RPB14_/_PWMH1_/_RB14*%
%TO.N,unconnected-(IC1-RPB14_{slash}_PWMH1_{slash}_RB14-Pad2)*%
X206994700Y-142974798D03*
%TO.P,IC1,3,RPB15_/_PWML1_/_RB15*%
%TO.N,unconnected-(IC1-RPB15_{slash}_PWML1_{slash}_RB15-Pad3)*%
X206994700Y-143474800D03*
%TO.P,IC1,4,~{MCLR}*%
%TO.N,Net-(IC1-~{MCLR})*%
X206994700Y-143974799D03*
%TO.P,IC1,5,VSS_1*%
%TO.N,GND*%
X206994700Y-144474798D03*
%TO.P,IC1,6,VDD_1*%
%TO.N,+3V3*%
X206994700Y-144974799D03*
%TO.P,IC1,7,AN11_/_C1IN4-_/_RPA12_/_FLT13_/_RA12*%
%TO.N,unconnected-(IC1-AN11_{slash}_C1IN4-_{slash}_RPA12_{slash}_FLT13_{slash}_RA12-Pad7)*%
X206994700Y-145474799D03*
%TO.P,IC1,8,AN10_/_C2IN4-_/_RPA11_/_FLT14_/_RA11*%
%TO.N,unconnected-(IC1-AN10_{slash}_C2IN4-_{slash}_RPA11_{slash}_FLT14_{slash}_RA11-Pad8)*%
X206994700Y-145974800D03*
%TO.P,IC1,9,OA2OUT_/_AN0_/_C2IN2-_/_RPA0_/_RA0*%
%TO.N,Net-(IC1-OA2OUT_{slash}_AN0_{slash}_C2IN2-_{slash}_RPA0_{slash}_RA0)*%
X206994700Y-146474799D03*
%TO.P,IC1,10,OA2IN+_/_AN1_/_C2IN1+_/_C2IN3-_/_RPA1_/_RA1*%
%TO.N,unconnected-(IC1-OA2IN+_{slash}_AN1_{slash}_C2IN1+_{slash}_C2IN3-_{slash}_RPA1_{slash}_RA1-Pad10)*%
X206994700Y-146974798D03*
%TO.P,IC1,11,PGD3/_VREF-_/_OA2IN-_/_AN2_/_C2IN1-_/_RPB0_/_CTED2_/_RB0*%
%TO.N,unconnected-(IC1-PGD3{slash}_VREF-_{slash}_OA2IN-_{slash}_AN2_{slash}_C2IN1-_{slash}_RPB0_{slash}_CTED2_{slash}_RB0-Pad11)*%
X206994700Y-147474800D03*
%TO.P,IC1,12,PGC3/OA1OUT_/_VREF+_/_AN3_/_C1IN2-_/_RPB1_/_CTED1_/_RB1*%
%TO.N,unconnected-(IC1-PGC3{slash}OA1OUT_{slash}_VREF+_{slash}_AN3_{slash}_C1IN2-_{slash}_RPB1_{slash}_CTED1_{slash}_RB1-Pad12)*%
X206994700Y-147974799D03*
D13*
%TO.P,IC1,13,PGC1/OA1IN+_/_AN4_/_C1IN1+_/_C1IN3-_/_RPB2_/_RB2*%
%TO.N,Net-(IC1-PGC1{slash}OA1IN+_{slash}_AN4_{slash}_C1IN1+_{slash}_C1IN3-_{slash}_RPB2_{slash}_RB2)*%
X208524600Y-149504699D03*
%TO.P,IC1,14,PGD1/OA1IN-_/_AN5_/_CTCMP_/_C1IN1-_/_RTCC_/_RPB3_/_RB3*%
%TO.N,Net-(IC1-PGD1{slash}OA1IN-_{slash}_AN5_{slash}_CTCMP_{slash}_C1IN1-_{slash}_RTCC_{slash}_RPB3_{slash}_RB3)*%
X209024599Y-149504699D03*
%TO.P,IC1,15,AVDD*%
%TO.N,+3V3*%
X209524601Y-149504699D03*
%TO.P,IC1,16,AVSS*%
%TO.N,GND*%
X210024600Y-149504699D03*
%TO.P,IC1,17,OA3OUT_/_AN6_/_C3IN2-_/_RPC0_/_RC0*%
%TO.N,unconnected-(IC1-OA3OUT_{slash}_AN6_{slash}_C3IN2-_{slash}_RPC0_{slash}_RC0-Pad17)*%
X210524599Y-149504699D03*
%TO.P,IC1,18,OA3IN-_/_AN7_/_C3IN1-_/_RPC1_/_RC1*%
%TO.N,unconnected-(IC1-OA3IN-_{slash}_AN7_{slash}_C3IN1-_{slash}_RPC1_{slash}_RC1-Pad18)*%
X211024600Y-149504699D03*
%TO.P,IC1,19,OA3IN+_/_AN8_/_C3IN1+_/_C3IN3-_/_RPC2_/_FLT3_/_RC2*%
%TO.N,unconnected-(IC1-OA3IN+_{slash}_AN8_{slash}_C3IN1+_{slash}_C3IN3-_{slash}_RPC2_{slash}_FLT3_{slash}_RC2-Pad19)*%
X211524600Y-149504699D03*
%TO.P,IC1,20,AN9_/_C3IN4-_/_FLT4_/_RC11*%
%TO.N,unconnected-(IC1-AN9_{slash}_C3IN4-_{slash}_FLT4_{slash}_RC11-Pad20)*%
X212024601Y-149504699D03*
%TO.P,IC1,21,VSS_2*%
%TO.N,GND*%
X212524600Y-149504699D03*
%TO.P,IC1,22,VDD_2*%
%TO.N,+3V3*%
X213024599Y-149504699D03*
%TO.P,IC1,23,DAC1/_AN12_/_RPA8_/_SDA2_/_RA8*%
%TO.N,unconnected-(IC1-DAC1{slash}_AN12_{slash}_RPA8_{slash}_SDA2_{slash}_RA8-Pad23)*%
X213524601Y-149504699D03*
%TO.P,IC1,24,TDI_/_FLT15_/_RPB4_/_SCL2_/_RB4*%
%TO.N,unconnected-(IC1-TDI_{slash}_FLT15_{slash}_RPB4_{slash}_SCL2_{slash}_RB4-Pad24)*%
X214024600Y-149504699D03*
D12*
%TO.P,IC1,25,AN13_/_RPA4_/_T1G_/_RA4*%
%TO.N,unconnected-(IC1-AN13_{slash}_RPA4_{slash}_T1G_{slash}_RA4-Pad25)*%
X215554500Y-147974799D03*
%TO.P,IC1,26,VDD_3*%
%TO.N,+3V3*%
X215554500Y-147474800D03*
%TO.P,IC1,27,OSCI/CLKI_/_AN17_/_RPC12_/_RC12*%
%TO.N,unconnected-(IC1-OSCI{slash}CLKI_{slash}_AN17_{slash}_RPC12_{slash}_RC12-Pad27)*%
X215554500Y-146974798D03*
%TO.P,IC1,28,OSCO_/_CLKO_/_RPC15_/_RC15*%
%TO.N,unconnected-(IC1-OSCO_{slash}_CLKO_{slash}_RPC15_{slash}_RC15-Pad28)*%
X215554500Y-146474799D03*
%TO.P,IC1,29,VSS_3*%
%TO.N,GND*%
X215554500Y-145974800D03*
%TO.P,IC1,30,RPD8_/_RD8*%
%TO.N,Net-(IC1-RPD8_{slash}_RD8)*%
X215554500Y-145474799D03*
%TO.P,IC1,31,PGD2/_RPB5_/_SDA1_/_RB5*%
%TO.N,Net-(IC1-PGD2{slash}_RPB5_{slash}_SDA1_{slash}_RB5)*%
X215554500Y-144974799D03*
%TO.P,IC1,32,PGC2/RPB6_/_SCL1_/_RB6*%
%TO.N,Net-(IC1-PGC2{slash}RPB6_{slash}_SCL1_{slash}_RB6)*%
X215554500Y-144474798D03*
%TO.P,IC1,33,AN14_/_RPC10_/_RC10*%
%TO.N,unconnected-(IC1-AN14_{slash}_RPC10_{slash}_RC10-Pad33)*%
X215554500Y-143974799D03*
%TO.P,IC1,34,AN15_/_RPB7_/_SCK1_/_INT0_/_RB7*%
%TO.N,Net-(IC1-AN15_{slash}_RPB7_{slash}_SCK1_{slash}_INT0_{slash}_RB7)*%
X215554500Y-143474800D03*
%TO.P,IC1,35,SOSCI_/_RPC13_/_RC13*%
%TO.N,unconnected-(IC1-SOSCI_{slash}_RPC13_{slash}_RC13-Pad35)*%
X215554500Y-142974798D03*
%TO.P,IC1,36,SOSCO_/_RPB8_/_T1CK_/_RB8*%
%TO.N,Net-(IC1-SOSCO_{slash}_RPB8_{slash}_T1CK_{slash}_RB8)*%
X215554500Y-142474799D03*
D13*
%TO.P,IC1,37,TMS_/_AN16_/_LVDIN_/_RPB9_/_RB9*%
%TO.N,Net-(IC1-TMS_{slash}_AN16_{slash}_LVDIN_{slash}_RPB9_{slash}_RB9)*%
X214024600Y-140944899D03*
%TO.P,IC1,38,RPC6_/_RC6*%
%TO.N,Net-(IC1-RPC6_{slash}_RC6)*%
X213524601Y-140944899D03*
%TO.P,IC1,39,RPC7_/_RC7*%
%TO.N,unconnected-(IC1-RPC7_{slash}_RC7-Pad39)*%
X213024599Y-140944899D03*
%TO.P,IC1,40,RPC8_/_RC8*%
%TO.N,unconnected-(IC1-RPC8_{slash}_RC8-Pad40)*%
X212524600Y-140944899D03*
%TO.P,IC1,41,RPC9_/_RC9*%
%TO.N,unconnected-(IC1-RPC9_{slash}_RC9-Pad41)*%
X212024601Y-140944899D03*
%TO.P,IC1,42,VSS_4*%
%TO.N,GND*%
X211524600Y-140944899D03*
%TO.P,IC1,43,VDD_4*%
%TO.N,+3V3*%
X211024600Y-140944899D03*
%TO.P,IC1,44,TDO_/_RPB10_/_PWMH3_/_RB10*%
%TO.N,unconnected-(IC1-TDO_{slash}_RPB10_{slash}_PWMH3_{slash}_RB10-Pad44)*%
X210524599Y-140944899D03*
%TO.P,IC1,45,TCK_/_RPB11_/_PWML3_/_RB11*%
%TO.N,unconnected-(IC1-TCK_{slash}_RPB11_{slash}_PWML3_{slash}_RB11-Pad45)*%
X210024600Y-140944899D03*
%TO.P,IC1,46,RPB12_/_PWMH2_/_RB12*%
%TO.N,unconnected-(IC1-RPB12_{slash}_PWMH2_{slash}_RB12-Pad46)*%
X209524601Y-140944899D03*
%TO.P,IC1,47,RPB13_/_PWML2_/_CTPLS_/_RB13*%
%TO.N,unconnected-(IC1-RPB13_{slash}_PWML2_{slash}_CTPLS_{slash}_RB13-Pad47)*%
X209024599Y-140944899D03*
%TO.P,IC1,48,PWMH4_/_RA10*%
%TO.N,unconnected-(IC1-PWMH4_{slash}_RA10-Pad48)*%
X208524600Y-140944899D03*
%TD*%
D14*
%TO.P,J2,1,Pin_1*%
%TO.N,GND*%
X189200000Y-153400000D03*
D15*
%TO.P,J2,2,Pin_2*%
%TO.N,Net-(IC1-AN15_{slash}_RPB7_{slash}_SCK1_{slash}_INT0_{slash}_RB7)*%
X189200000Y-150860000D03*
%TO.P,J2,3,Pin_3*%
%TO.N,+3V3*%
X189200000Y-148320000D03*
%TO.P,J2,4,Pin_4*%
%TO.N,Net-(IC1-OA2OUT_{slash}_AN0_{slash}_C2IN2-_{slash}_RPA0_{slash}_RA0)*%
X189200000Y-145780000D03*
%TO.P,J2,5,Pin_5*%
%TO.N,Net-(IC1-RPA7_{slash}_PWML4_{slash}_RA7)*%
X189200000Y-143240000D03*
%TO.P,J2,6,Pin_6*%
%TO.N,GND*%
X189200000Y-140700000D03*
%TD*%
D16*
%TO.P,J3,1,Pin_1*%
%TO.N,GND*%
X207000000Y-159400000D03*
D17*
%TO.P,J3,2,Pin_2*%
%TO.N,Net-(IC1-AN15_{slash}_RPB7_{slash}_SCK1_{slash}_INT0_{slash}_RB7)*%
X204460000Y-159400000D03*
%TO.P,J3,3,Pin_3*%
%TO.N,+3V3*%
X201920000Y-159400000D03*
%TO.P,J3,4,Pin_4*%
%TO.N,Net-(IC1-OA2OUT_{slash}_AN0_{slash}_C2IN2-_{slash}_RPA0_{slash}_RA0)*%
X199380000Y-159400000D03*
%TO.P,J3,5,Pin_5*%
%TO.N,Net-(IC1-RPA7_{slash}_PWML4_{slash}_RA7)*%
X196840000Y-159400000D03*
%TO.P,J3,6,Pin_6*%
%TO.N,+3V3*%
X194300000Y-159400000D03*
%TD*%
D18*
%TO.P,C5,1*%
%TO.N,GND*%
X212037500Y-138500000D03*
%TO.P,C5,2*%
%TO.N,+3V3*%
X209962500Y-138500000D03*
%TD*%
D19*
%TO.P,SW1,1,1*%
%TO.N,Net-(C6-Pad1)*%
X197499999Y-151200002D03*
%TO.P,SW1,2*%
%TO.N,N/C*%
X197499999Y-144700000D03*
%TO.P,SW1,3*%
X202000000Y-151200002D03*
%TO.P,SW1,4,4*%
%TO.N,GND*%
X202000000Y-144700000D03*
%TD*%
D20*
%TO.P,C4,1*%
%TO.N,GND*%
X218000000Y-146662500D03*
%TO.P,C4,2*%
%TO.N,+3V3*%
X218000000Y-148737500D03*
%TD*%
%TO.P,C3,1*%
%TO.N,GND*%
X213720000Y-151802500D03*
%TO.P,C3,2*%
%TO.N,+3V3*%
X213720000Y-153877500D03*
%TD*%
D21*
%TO.P,D2,1,K*%
%TO.N,Net-(D2-K)*%
X206425000Y-153800000D03*
%TO.P,D2,2,A*%
%TO.N,Net-(D2-A)*%
X204375000Y-153800000D03*
%TD*%
D22*
%TO.P,D1,1,K*%
%TO.N,Net-(D1-K)*%
X194900000Y-139975000D03*
%TO.P,D1,2,A*%
%TO.N,Net-(D1-A)*%
X194900000Y-142025000D03*
%TD*%
D20*
%TO.P,C1,1*%
%TO.N,GND*%
X204500000Y-144462500D03*
%TO.P,C1,2*%
%TO.N,+3V3*%
X204500000Y-146537500D03*
%TD*%
D23*
%TO.P,C2,1*%
%TO.N,+3V3*%
X210450000Y-153877500D03*
%TO.P,C2,2*%
%TO.N,GND*%
X210450000Y-151802500D03*
%TD*%
D24*
%TO.P,U1,1,S1*%
%TO.N,GND*%
X218200000Y-140200000D03*
%TO.P,U1,2,G1*%
%TO.N,Net-(IC1-TMS_{slash}_AN16_{slash}_LVDIN_{slash}_RPB9_{slash}_RB9)*%
X218200000Y-139550000D03*
%TO.P,U1,3,D2*%
%TO.N,Net-(D1-K)*%
X218200000Y-138900000D03*
%TO.P,U1,4,S2*%
%TO.N,GND*%
X216300000Y-138900000D03*
%TO.P,U1,5,G2*%
%TO.N,Net-(IC1-RPC6_{slash}_RC6)*%
X216300000Y-139550000D03*
%TO.P,U1,6,D1*%
%TO.N,Net-(D2-K)*%
X216300000Y-140200000D03*
%TD*%
D16*
%TO.P,J5,1,Pin_1*%
%TO.N,+3V3*%
X223400000Y-159400000D03*
D17*
%TO.P,J5,2,Pin_2*%
%TO.N,GND*%
X220860000Y-159400000D03*
%TO.P,J5,3,Pin_3*%
%TO.N,Net-(IC1-PGC2{slash}RPB6_{slash}_SCL1_{slash}_RB6)*%
X218320000Y-159400000D03*
%TO.P,J5,4,Pin_4*%
%TO.N,Net-(IC1-PGD2{slash}_RPB5_{slash}_SDA1_{slash}_RB5)*%
X215780000Y-159400000D03*
%TO.P,J5,5,Pin_5*%
%TO.N,Net-(IC1-SOSCO_{slash}_RPB8_{slash}_T1CK_{slash}_RB8)*%
X213240000Y-159400000D03*
%TO.P,J5,6,Pin_6*%
%TO.N,Net-(IC1-RPD8_{slash}_RD8)*%
X210700000Y-159400000D03*
%TD*%
D25*
%TO.N,GND*%
X218300000Y-141500000D03*
X203100000Y-155500000D03*
X218700000Y-152700000D03*
X212010000Y-151770000D03*
X192100000Y-156600000D03*
X208700000Y-154100000D03*
X211500000Y-136500000D03*
%TO.N,+3V3*%
X198218750Y-152818750D03*
X210000000Y-135774000D03*
X199600000Y-139000000D03*
X194300000Y-154000000D03*
X208900000Y-161546000D03*
%TO.N,Net-(D1-K)*%
X207700000Y-139300000D03*
X216500000Y-137700000D03*
%TO.N,Net-(D1-A)*%
X198400000Y-141000000D03*
%TO.N,Net-(D2-K)*%
X215100000Y-140500000D03*
X207900000Y-153300000D03*
%TO.N,Net-(D2-A)*%
X203200000Y-153400000D03*
%TO.N,Net-(IC1-~{MCLR})*%
X203000000Y-139250000D03*
X203000000Y-142700000D03*
%TO.N,Net-(IC1-OA2OUT_{slash}_AN0_{slash}_C2IN2-_{slash}_RPA0_{slash}_RA0)*%
X199800000Y-153600000D03*
%TO.N,Net-(IC1-PGC1{slash}OA1IN+_{slash}_AN4_{slash}_C1IN1+_{slash}_C1IN3-_{slash}_RPB2_{slash}_RB2)*%
X205600000Y-149500000D03*
%TO.N,Net-(IC1-PGD1{slash}OA1IN-_{slash}_AN5_{slash}_CTCMP_{slash}_C1IN1-_{slash}_RTCC_{slash}_RPB3_{slash}_RB3)*%
X206900000Y-151000000D03*
%TO.N,Net-(IC1-AN15_{slash}_RPB7_{slash}_SCK1_{slash}_INT0_{slash}_RB7)*%
X217600000Y-143700000D03*
%TD*%
D26*
%TO.N,GND*%
X212524600Y-151255400D02*
X212010000Y-151770000D01*
X212524600Y-150607100D02*
X213720000Y-151802500D01*
X217277999Y-145940499D02*
X218000000Y-146662500D01*
X212524600Y-149504699D02*
X212524600Y-150607100D01*
X194900000Y-132600000D02*
X194900000Y-135400000D01*
X207000000Y-155800000D02*
X207000000Y-159400000D01*
X212037500Y-137037500D02*
X211500000Y-136500000D01*
X189600000Y-140700000D02*
X189200000Y-140700000D01*
X192800000Y-157300000D02*
X192800000Y-159816399D01*
X215588801Y-145940499D02*
X217277999Y-145940499D01*
X208700000Y-154100000D02*
X207000000Y-155800000D01*
X199910000Y-132600000D02*
X194900000Y-132600000D01*
X210450000Y-151802500D02*
X211977500Y-151802500D01*
X218700000Y-152700000D02*
X219100000Y-152300000D01*
X218300000Y-141500000D02*
X218300000Y-140300000D01*
X201505000Y-134195000D02*
X199910000Y-132600000D01*
X219100000Y-147762500D02*
X218000000Y-146662500D01*
X219100000Y-152300000D02*
X219100000Y-147762500D01*
X211977500Y-151802500D02*
X212010000Y-151770000D01*
X212524600Y-150607100D02*
X212524600Y-151255400D01*
X192800000Y-159816399D02*
X195183601Y-162200000D01*
X204100000Y-144700000D02*
X202000000Y-144700000D01*
X211524600Y-139878500D02*
X212037500Y-139365600D01*
X195183601Y-162200000D02*
X204200000Y-162200000D01*
X203100000Y-155500000D02*
X207000000Y-159400000D01*
X210024600Y-149504699D02*
X210024600Y-151377100D01*
X204200000Y-162200000D02*
X207000000Y-159400000D01*
X218300000Y-140300000D02*
X218200000Y-140200000D01*
X206994700Y-144474798D02*
X204512298Y-144474798D01*
X192100000Y-156600000D02*
X192800000Y-157300000D01*
X212037500Y-138500000D02*
X212037500Y-137037500D01*
X211524600Y-140944899D02*
X211524600Y-139878500D01*
X216300000Y-138900000D02*
X212437500Y-138900000D01*
X212037500Y-139365600D02*
X212037500Y-138500000D01*
X215554500Y-145974800D02*
X215588801Y-145940499D01*
X194900000Y-135400000D02*
X189600000Y-140700000D01*
%TO.N,+3V3*%
X205725201Y-144974799D02*
X204500000Y-146200000D01*
X213024599Y-149504699D02*
X213024599Y-150384599D01*
X204500000Y-146537500D02*
X198218750Y-152818750D01*
X214770000Y-151226827D02*
X214770000Y-152827500D01*
X212100000Y-155400000D02*
X212100000Y-155200000D01*
X209400000Y-152827500D02*
X210450000Y-153877500D01*
X209962500Y-135811500D02*
X210000000Y-135774000D01*
X210450000Y-153877500D02*
X212200000Y-153877500D01*
X211024600Y-139562100D02*
X209962500Y-138500000D01*
X217974000Y-153000720D02*
X218000000Y-153026720D01*
X212200000Y-155300000D02*
X212200000Y-153877500D01*
X218000000Y-148737500D02*
X218000000Y-152373280D01*
X197037500Y-154000000D02*
X194300000Y-154000000D01*
X216737300Y-147474800D02*
X218000000Y-148737500D01*
X209524601Y-149504699D02*
X209524601Y-151102226D01*
X206994700Y-144974799D02*
X205725201Y-144974799D01*
X212200000Y-153877500D02*
X213720000Y-153877500D01*
X209962500Y-138500000D02*
X209962500Y-135811500D01*
X218000000Y-153026720D02*
X218000000Y-153200000D01*
X208900000Y-161546000D02*
X208900000Y-158600000D01*
X211024600Y-140944899D02*
X211024600Y-139562100D01*
X215554500Y-147474800D02*
X216737300Y-147474800D01*
X208900000Y-158600000D02*
X212100000Y-155400000D01*
X215900000Y-155300000D02*
X212200000Y-155300000D01*
X198218750Y-152818750D02*
X197037500Y-154000000D01*
X213024599Y-150384599D02*
X213530000Y-150890000D01*
X204045000Y-133255000D02*
X204045000Y-134195000D01*
X218000000Y-153200000D02*
X215900000Y-155300000D01*
X218000000Y-152373280D02*
X217974000Y-152399280D01*
X209400000Y-151226827D02*
X209400000Y-152827500D01*
X199600000Y-139000000D02*
X199600000Y-138640000D01*
X217974000Y-152399280D02*
X217974000Y-153000720D01*
X214433173Y-150890000D02*
X214770000Y-151226827D01*
X209524601Y-151102226D02*
X209400000Y-151226827D01*
X213530000Y-150890000D02*
X214433173Y-150890000D01*
X214770000Y-152827500D02*
X213720000Y-153877500D01*
X199600000Y-138640000D02*
X204045000Y-134195000D01*
%TO.N,Net-(D1-K)*%
X194900000Y-139975000D02*
X207025000Y-139975000D01*
X216500000Y-137800000D02*
X217600000Y-138900000D01*
X207025000Y-139975000D02*
X207700000Y-139300000D01*
X217600000Y-138900000D02*
X218200000Y-138900000D01*
X216500000Y-137700000D02*
X216500000Y-137800000D01*
%TO.N,Net-(D1-A)*%
X197375000Y-142025000D02*
X194900000Y-142025000D01*
X198400000Y-141000000D02*
X197375000Y-142025000D01*
%TO.N,Net-(D2-K)*%
X207400000Y-153800000D02*
X207900000Y-153300000D01*
X216300000Y-140200000D02*
X215400000Y-140200000D01*
X206425000Y-153800000D02*
X207400000Y-153800000D01*
X215400000Y-140200000D02*
X215100000Y-140500000D01*
%TO.N,Net-(D2-A)*%
X203200000Y-153400000D02*
X203975000Y-153400000D01*
%TO.N,Net-(IC1-RPA7_{slash}_PWML4_{slash}_RA7)*%
X202000000Y-141700000D02*
X204291310Y-141700000D01*
X189000000Y-155500000D02*
X186800000Y-153300000D01*
X186800000Y-145640000D02*
X189200000Y-143240000D01*
X204291310Y-141700000D02*
X205066109Y-142474799D01*
X205066109Y-142474799D02*
X206994700Y-142474799D01*
X186800000Y-153300000D02*
X186800000Y-145640000D01*
X189200000Y-143240000D02*
X200460000Y-143240000D01*
X192940000Y-155500000D02*
X189000000Y-155500000D01*
X200460000Y-143240000D02*
X202000000Y-141700000D01*
X196840000Y-159400000D02*
X192940000Y-155500000D01*
%TO.N,Net-(IC1-~{MCLR})*%
X203000000Y-139250000D02*
X205500000Y-136750000D01*
X204653500Y-142700000D02*
X205928299Y-143974799D01*
X205928299Y-143974799D02*
X206994700Y-143974799D01*
X203000000Y-142700000D02*
X204653500Y-142700000D01*
X205500000Y-135280000D02*
X206585000Y-134195000D01*
X205500000Y-136750000D02*
X205500000Y-135280000D01*
%TO.N,Net-(IC1-OA2OUT_{slash}_AN0_{slash}_C2IN2-_{slash}_RPA0_{slash}_RA0)*%
X205800000Y-148100000D02*
X205800000Y-146770000D01*
X204200000Y-149700000D02*
X205800000Y-148100000D01*
X206095201Y-146474799D02*
X206994700Y-146474799D01*
X205800000Y-146770000D02*
X206095201Y-146474799D01*
X201700000Y-153600000D02*
X204200000Y-151100000D01*
X199800000Y-153600000D02*
X201700000Y-153600000D01*
X204200000Y-151100000D02*
X204200000Y-149700000D01*
%TO.N,Net-(IC1-PGC1{slash}OA1IN+_{slash}_AN4_{slash}_C1IN1+_{slash}_C1IN3-_{slash}_RPB2_{slash}_RB2)*%
X208429299Y-149600000D02*
X208524600Y-149504699D01*
X205600000Y-149500000D02*
X205700000Y-149600000D01*
X205700000Y-149600000D02*
X208429299Y-149600000D01*
%TO.N,Net-(IC1-PGD1{slash}OA1IN-_{slash}_AN5_{slash}_CTCMP_{slash}_C1IN1-_{slash}_RTCC_{slash}_RPB3_{slash}_RB3)*%
X209024599Y-150571100D02*
X209024599Y-149504699D01*
X206900000Y-151000000D02*
X207200000Y-151300000D01*
X207200000Y-151300000D02*
X208295699Y-151300000D01*
X208295699Y-151300000D02*
X209024599Y-150571100D01*
%TO.N,Net-(IC1-RPD8_{slash}_RD8)*%
X219600000Y-153800000D02*
X215900000Y-157500000D01*
X215900000Y-157500000D02*
X212600000Y-157500000D01*
X215554500Y-145474799D02*
X218874799Y-145474799D01*
X219600000Y-146200000D02*
X219600000Y-153800000D01*
X218874799Y-145474799D02*
X219600000Y-146200000D01*
X212600000Y-157500000D02*
X210700000Y-159400000D01*
%TO.N,Net-(IC1-PGD2{slash}_RPB5_{slash}_SDA1_{slash}_RB5)*%
X219012609Y-144974799D02*
X220068190Y-146030380D01*
X220068190Y-154631810D02*
X216037810Y-158662190D01*
X220068190Y-146030380D02*
X220068190Y-154631810D01*
X215554500Y-144974799D02*
X219012609Y-144974799D01*
%TO.N,Net-(IC1-PGC2{slash}RPB6_{slash}_SCL1_{slash}_RB6)*%
X220600000Y-145700000D02*
X219374798Y-144474798D01*
X219374798Y-144474798D02*
X215554500Y-144474798D01*
X220600000Y-157000000D02*
X220600000Y-145700000D01*
X218320000Y-159280000D02*
X220600000Y-157000000D01*
%TO.N,Net-(IC1-AN15_{slash}_RPB7_{slash}_SCK1_{slash}_INT0_{slash}_RB7)*%
X217374800Y-143474800D02*
X217600000Y-143700000D01*
X215554500Y-143474800D02*
X217374800Y-143474800D01*
X189200000Y-150860000D02*
X195840000Y-157500000D01*
X202560000Y-157500000D02*
X204460000Y-159400000D01*
X195840000Y-157500000D02*
X202560000Y-157500000D01*
%TO.N,Net-(IC1-SOSCO_{slash}_RPB8_{slash}_T1CK_{slash}_RB8)*%
X225100000Y-160400000D02*
X225100000Y-148900000D01*
X224000000Y-161500000D02*
X225100000Y-160400000D01*
X213240000Y-159400000D02*
X215340000Y-161500000D01*
X215340000Y-161500000D02*
X224000000Y-161500000D01*
X218674799Y-142474799D02*
X215554500Y-142474799D01*
X225100000Y-148900000D02*
X218674799Y-142474799D01*
%TO.N,Net-(IC1-TMS_{slash}_AN16_{slash}_LVDIN_{slash}_RPB9_{slash}_RB9)*%
X217625000Y-139550000D02*
X216951000Y-140224000D01*
X216451000Y-141226000D02*
X214305701Y-141226000D01*
X214305701Y-141226000D02*
X214024600Y-140944899D01*
X216951000Y-140726000D02*
X216451000Y-141226000D01*
X216951000Y-140224000D02*
X216951000Y-140726000D01*
X218200000Y-139550000D02*
X217625000Y-139550000D01*
%TO.N,Net-(IC1-RPC6_{slash}_RC6)*%
X213853099Y-139550000D02*
X213524601Y-139878498D01*
X216300000Y-139550000D02*
X213853099Y-139550000D01*
X213524601Y-139878498D02*
X213524601Y-140944899D01*
%TD*%
M02*
