%TF.GenerationSoftware,KiCad,Pcbnew,9.0.2*%
%TF.CreationDate,2025-05-28T14:02:20-07:00*%
%TF.ProjectId,MCU_DSP,4d43555f-4453-4502-9e6b-696361645f70,2.0*%
%TF.SameCoordinates,Original*%
%TF.FileFunction,Soldermask,Top*%
%TF.FilePolarity,Negative*%
%FSLAX46Y46*%
G04 Gerber Fmt 4.6, Leading zero omitted, Abs format (unit mm)*
G04 Created by KiCad (PCBNEW 9.0.2) date 2025-05-28 14:02:20*
%MOMM*%
%LPD*%
G01*
G04 APERTURE LIST*
G04 Aperture macros list*
%AMRoundRect*
0 Rectangle with rounded corners*
0 $1 Rounding radius*
0 $2 $3 $4 $5 $6 $7 $8 $9 X,Y pos of 4 corners*
0 Add a 4 corners polygon primitive as box body*
4,1,4,$2,$3,$4,$5,$6,$7,$8,$9,$2,$3,0*
0 Add four circle primitives for the rounded corners*
1,1,$1+$1,$2,$3*
1,1,$1+$1,$4,$5*
1,1,$1+$1,$6,$7*
1,1,$1+$1,$8,$9*
0 Add four rect primitives between the rounded corners*
20,1,$1+$1,$2,$3,$4,$5,0*
20,1,$1+$1,$4,$5,$6,$7,0*
20,1,$1+$1,$6,$7,$8,$9,0*
20,1,$1+$1,$8,$9,$2,$3,0*%
G04 Aperture macros list end*
%ADD10R,1.700000X1.700000*%
%ADD11O,1.700000X1.700000*%
%ADD12C,3.200000*%
%ADD13R,1.549400X0.279400*%
%ADD14R,0.279400X1.549400*%
%ADD15RoundRect,0.250000X0.845000X-0.620000X0.845000X0.620000X-0.845000X0.620000X-0.845000X-0.620000X0*%
%ADD16O,2.190000X1.740000*%
%ADD17RoundRect,0.250000X0.620000X0.845000X-0.620000X0.845000X-0.620000X-0.845000X0.620000X-0.845000X0*%
%ADD18O,1.740000X2.190000*%
%ADD19RoundRect,0.250000X0.337500X0.475000X-0.337500X0.475000X-0.337500X-0.475000X0.337500X-0.475000X0*%
%ADD20C,1.507998*%
%ADD21RoundRect,0.250000X-0.475000X0.337500X-0.475000X-0.337500X0.475000X-0.337500X0.475000X0.337500X0*%
%ADD22RoundRect,0.250000X0.325000X0.450000X-0.325000X0.450000X-0.325000X-0.450000X0.325000X-0.450000X0*%
%ADD23RoundRect,0.250000X-0.450000X0.325000X-0.450000X-0.325000X0.450000X-0.325000X0.450000X0.325000X0*%
%ADD24RoundRect,0.250000X0.475000X-0.337500X0.475000X0.337500X-0.475000X0.337500X-0.475000X-0.337500X0*%
%ADD25R,0.650000X0.400000*%
G04 APERTURE END LIST*
D10*
%TO.C,J1*%
X196425000Y-134195000D03*
D11*
X198965000Y-134195000D03*
X201505000Y-134195000D03*
X204045000Y-134195000D03*
X206585000Y-134195000D03*
%TD*%
D12*
%TO.C,H3*%
X188900000Y-159500000D03*
%TD*%
D13*
%TO.C,IC1*%
X206994700Y-142474799D03*
X206994700Y-142974798D03*
X206994700Y-143474800D03*
X206994700Y-143974799D03*
X206994700Y-144474798D03*
X206994700Y-144974799D03*
X206994700Y-145474799D03*
X206994700Y-145974800D03*
X206994700Y-146474799D03*
X206994700Y-146974798D03*
X206994700Y-147474800D03*
X206994700Y-147974799D03*
D14*
X208524600Y-149504699D03*
X209024599Y-149504699D03*
X209524601Y-149504699D03*
X210024600Y-149504699D03*
X210524599Y-149504699D03*
X211024600Y-149504699D03*
X211524600Y-149504699D03*
X212024601Y-149504699D03*
X212524600Y-149504699D03*
X213024599Y-149504699D03*
X213524601Y-149504699D03*
X214024600Y-149504699D03*
D13*
X215554500Y-147974799D03*
X215554500Y-147474800D03*
X215554500Y-146974798D03*
X215554500Y-146474799D03*
X215554500Y-145974800D03*
X215554500Y-145474799D03*
X215554500Y-144974799D03*
X215554500Y-144474798D03*
X215554500Y-143974799D03*
X215554500Y-143474800D03*
X215554500Y-142974798D03*
X215554500Y-142474799D03*
D14*
X214024600Y-140944899D03*
X213524601Y-140944899D03*
X213024599Y-140944899D03*
X212524600Y-140944899D03*
X212024601Y-140944899D03*
X211524600Y-140944899D03*
X211024600Y-140944899D03*
X210524599Y-140944899D03*
X210024600Y-140944899D03*
X209524601Y-140944899D03*
X209024599Y-140944899D03*
X208524600Y-140944899D03*
%TD*%
D15*
%TO.C,J2*%
X189200000Y-153400000D03*
D16*
X189200000Y-150860000D03*
X189200000Y-148320000D03*
X189200000Y-145780000D03*
X189200000Y-143240000D03*
X189200000Y-140700000D03*
%TD*%
D17*
%TO.C,J3*%
X207000000Y-159400000D03*
D18*
X204460000Y-159400000D03*
X201920000Y-159400000D03*
X199380000Y-159400000D03*
X196840000Y-159400000D03*
X194300000Y-159400000D03*
%TD*%
D19*
%TO.C,C5*%
X212037500Y-138500000D03*
X209962500Y-138500000D03*
%TD*%
D12*
%TO.C,H2*%
X223100000Y-135300000D03*
%TD*%
D20*
%TO.C,SW1*%
X197499999Y-151200002D03*
X197499999Y-144700000D03*
X202000000Y-151200002D03*
X202000000Y-144700000D03*
%TD*%
D21*
%TO.C,C4*%
X218000000Y-146662500D03*
X218000000Y-148737500D03*
%TD*%
%TO.C,C3*%
X213720000Y-151802500D03*
X213720000Y-153877500D03*
%TD*%
D22*
%TO.C,D2*%
X206425000Y-153800000D03*
X204375000Y-153800000D03*
%TD*%
D23*
%TO.C,D1*%
X194900000Y-139975000D03*
X194900000Y-142025000D03*
%TD*%
D21*
%TO.C,C1*%
X204500000Y-144462500D03*
X204500000Y-146537500D03*
%TD*%
D12*
%TO.C,H1*%
X188900000Y-135300000D03*
%TD*%
D24*
%TO.C,C2*%
X210450000Y-153877500D03*
X210450000Y-151802500D03*
%TD*%
D25*
%TO.C,U1*%
X218200000Y-140200000D03*
X218200000Y-139550000D03*
X218200000Y-138900000D03*
X216300000Y-138900000D03*
X216300000Y-139550000D03*
X216300000Y-140200000D03*
%TD*%
D17*
%TO.C,J5*%
X223400000Y-159400000D03*
D18*
X220860000Y-159400000D03*
X218320000Y-159400000D03*
X215780000Y-159400000D03*
X213240000Y-159400000D03*
X210700000Y-159400000D03*
%TD*%
M02*
